<svg xmlns="http://www.w3.org/2000/svg" viewBox="0 0 171.34 130.25"><defs><style>.cls-1{fill:#fff;}.cls-2{fill:none;stroke:#e586a3;stroke-miterlimit:10;stroke-width:2.43px;}</style></defs><title>1</title><g id="Layer_2" data-name="Layer 2"><g id="Facts"><g id="_1" data-name="1"><path class="cls-1" d="M170.13,65.13c0,2.51-3.1,4.77-3.48,7.21s1.86,5.56,1.1,7.93-4.39,3.59-5.5,5.84.19,5.82-1.21,7.91-5.2,2.26-6.85,4.17-1.25,5.67-3.1,7.39-5.59,1-7.6,2.55c-2.34,1.76-3.21,5.83-5.81,7.37s-6.52.3-9.26,1.57-4.33,5.05-7.18,6.05-6.47-1-9.39-.21-5.17,4.18-8.15,4.67-6.21-2-9.22-1.81S88.69,129,85.67,129s-5.87-3-8.81-3.27-6.31,2.29-9.21,1.81-5.3-4-8.15-4.67-6.62,1.18-9.39.21-4.52-4.82-7.19-6.05-6.73-.08-9.26-1.57-3.46-5.61-5.8-7.37c-2-1.52-5.8-.89-7.6-2.55s-1.5-5.53-3.11-7.39S11.68,96.07,10.31,94s-.14-5.7-1.22-7.91S4.35,82.63,3.6,80.27s1.48-5.46,1.09-7.93-3.48-4.7-3.48-7.21,3.1-4.78,3.48-7.22S2.84,52.35,3.6,50,8,46.4,9.09,44.15s-.18-5.83,1.22-7.92S15.5,34,17.15,32.06s1.25-5.67,3.11-7.38,5.58-1,7.6-2.55c2.34-1.76,3.2-5.84,5.8-7.38s6.52-.3,9.26-1.57,4.34-5,7.19-6,6.46,1,9.39.21,5.17-4.18,8.15-4.67,6.21,2.05,9.21,1.81,5.8-3.27,8.81-3.27,5.88,3,8.81,3.27,6.32-2.29,9.22-1.81,5.3,4,8.14,4.67,6.63-1.18,9.4-.21,4.52,4.82,7.18,6.05,6.74.08,9.26,1.57,3.47,5.62,5.81,7.38c2,1.52,5.79.88,7.6,2.55s1.49,5.53,3.1,7.38,5.48,2.13,6.85,4.17.13,5.7,1.22,7.92S167,47.62,167.75,50s-1.49,5.47-1.1,7.93S170.13,62.61,170.13,65.13Z"/><path class="cls-2" d="M170.13,65.13c0,2.51-3.1,4.77-3.48,7.21s1.86,5.56,1.1,7.93-4.39,3.59-5.5,5.84.19,5.82-1.21,7.91-5.2,2.26-6.85,4.17-1.25,5.67-3.1,7.39-5.59,1-7.6,2.55c-2.34,1.76-3.21,5.83-5.81,7.37s-6.52.3-9.26,1.57-4.33,5.05-7.18,6.05-6.47-1-9.39-.21-5.17,4.18-8.15,4.67-6.21-2-9.22-1.81S88.69,129,85.67,129s-5.87-3-8.81-3.27-6.31,2.29-9.21,1.81-5.3-4-8.15-4.67-6.62,1.18-9.39.21-4.52-4.82-7.19-6.05-6.73-.08-9.26-1.57-3.46-5.61-5.8-7.37c-2-1.52-5.8-.89-7.6-2.55s-1.5-5.53-3.11-7.39S11.68,96.07,10.31,94s-.14-5.7-1.22-7.91S4.35,82.63,3.6,80.27s1.48-5.46,1.09-7.93-3.48-4.7-3.48-7.21,3.1-4.78,3.48-7.22S2.84,52.35,3.6,50,8,46.4,9.09,44.15s-.18-5.83,1.22-7.92S15.5,34,17.15,32.06s1.25-5.67,3.11-7.38,5.58-1,7.6-2.55c2.34-1.76,3.2-5.84,5.8-7.38s6.52-.3,9.26-1.57,4.34-5,7.19-6,6.46,1,9.39.21,5.17-4.18,8.15-4.67,6.21,2.05,9.21,1.81,5.8-3.27,8.81-3.27,5.88,3,8.81,3.27,6.32-2.29,9.22-1.81,5.3,4,8.14,4.67,6.63-1.18,9.4-.21,4.52,4.82,7.18,6.05,6.74.08,9.26,1.57,3.47,5.62,5.81,7.38c2,1.52,5.79.88,7.6,2.55s1.49,5.53,3.1,7.38,5.48,2.13,6.85,4.17.13,5.7,1.22,7.92S167,47.62,167.75,50s-1.49,5.47-1.1,7.93S170.13,62.61,170.13,65.13Z"/><path d="M38.74,28.7a.42.42,0,0,1-.14.3l-.23.27a.94.94,0,0,0-.11.54,4.21,4.21,0,0,1,0,.57,60.86,60.86,0,0,0-.43,7v1.67c0,.82.22,1.29.52,1.4v.17a.3.3,0,0,1-.3.19c-.73,0-1.17-.71-1.31-2.15a9.19,9.19,0,0,1,0-1.66l.46-5.65-1.29,4.72c-.8,2.47-1.57,3.71-2.33,3.71a1.44,1.44,0,0,1-1-.65,3.37,3.37,0,0,1-.67-1.08,29.24,29.24,0,0,1-1.11-3.83c-.3-1.31-.59-2.61-.9-3.91l-.1.27a39.19,39.19,0,0,0-.28,4.63l.18,4c0,.42.16.65.42.68q0,.48-.84.48c-.53,0-.79-1-.79-2.89,0-.88,0-2.18.14-3.91s.14-3,.14-3.91a1.61,1.61,0,0,0-.05-.44A1,1,0,0,1,28.6,29c0-.46.47-.69,1.4-.69a1,1,0,0,1,.63.37c0,.36.09.9.16,1.61a32.58,32.58,0,0,0,1,4.48c.68,2.4,1.23,3.61,1.67,3.61s1.14-1.1,1.8-3.29a42.28,42.28,0,0,0,1-4.2c.15-.45.34-1.08.58-1.89a1.08,1.08,0,0,1,1.2-.79,1,1,0,0,1,.46.12A.37.37,0,0,1,38.74,28.7Z"/><path d="M45.16,36.89a5,5,0,0,1-.67,2.63,2.42,2.42,0,0,1-2.18,1.35,2.33,2.33,0,0,1-2.12-1.11,4.39,4.39,0,0,1-.58-2.41,6.77,6.77,0,0,1,.67-2.92q.84-1.77,2.13-1.77a2.11,2.11,0,0,1,1,.38A4.18,4.18,0,0,1,45.16,36.89Zm-.84,0a6.35,6.35,0,0,0-.3-2c-.29-.82-.74-1.24-1.35-1.24S41.43,34.08,41,35a5.69,5.69,0,0,0-.46,2.3,4.79,4.79,0,0,0,.32,1.85,1.48,1.48,0,0,0,1.42,1A1.71,1.71,0,0,0,43.9,39,5,5,0,0,0,44.32,36.88Z"/><path d="M49,34.83a1.55,1.55,0,0,1-.66.17,2.56,2.56,0,0,0-.67.13c0,.12,0,.77,0,1.94,0,.91,0,1.52,0,1.84a3.38,3.38,0,0,0,.09.61,3.28,3.28,0,0,1,.09.65.39.39,0,0,1-.18.28.56.56,0,0,1-.31.14c-.24,0-.42-.24-.56-.72a3.6,3.6,0,0,1-.14-1V35.23c-.07-.06-.33-.06-.79,0s-.54-.09-.54-.4.47-.65,1.41-.61L47,31.05a.49.49,0,0,0,0-.17.54.54,0,0,1-.05-.16.29.29,0,0,1,.14-.21.49.49,0,0,1,.34-.07.57.57,0,0,1,.61.61,10.54,10.54,0,0,1-.12,1.31,9.25,9.25,0,0,0-.13,1.3,1.75,1.75,0,0,0,0,.4l1-.05c.33,0,.49.12.49.38A.52.52,0,0,1,49,34.83Z"/><path d="M54.52,40.81A.7.7,0,0,1,54,41a.58.58,0,0,1-.41-.24v-2.4q0-4.44-1.47-4.44a1.21,1.21,0,0,0-1,.73,2.58,2.58,0,0,0-.36,1.3.85.85,0,0,1-.05.21.85.85,0,0,0,0,.22v2.24a5.81,5.81,0,0,0,.09.86,7.07,7.07,0,0,1,.08.84c0,.19-.14.28-.42.28a.58.58,0,0,1-.49-.28,1,1,0,0,1-.21-.58l.11-10.78a.78.78,0,0,1,0-.21c0-.21.12-.31.35-.31a1.07,1.07,0,0,1,.52.24c.23.15.34.29.34.39a5.7,5.7,0,0,1-.17,1.21,6.37,6.37,0,0,0-.16,1.2s0,.8,0,2.33a1.93,1.93,0,0,1,1-.58,3.5,3.5,0,0,1,1.35.34c1,.42,1.52,1.52,1.52,3.32Z"/><path d="M60.65,38.61c0,.51-.35,1-1,1.38a3.42,3.42,0,0,1-1.75.56q-2.34,0-2.34-3A9.56,9.56,0,0,1,56,34.76c.42-1.31,1-2,1.61-2a3,3,0,0,1,1.84.85,2.34,2.34,0,0,1,1,1.69,2.52,2.52,0,0,1-.88,1.89,2.86,2.86,0,0,1-2,.8,1.51,1.51,0,0,1-.44-.17,1.28,1.28,0,0,0-.47-.18c-.15,0-.22,0-.22.14,0,1.34.44,2,1.33,2A2,2,0,0,0,59,39.38a4.46,4.46,0,0,0,.77-.82c.22-.3.36-.44.43-.44C60.51,38.12,60.65,38.28,60.65,38.61Zm-1.21-3.22a2.1,2.1,0,0,0-.35-1.15,1.07,1.07,0,0,0-.93-.53c-.47,0-.84.29-1.14.87a3.44,3.44,0,0,0-.36,1.53A1.15,1.15,0,0,0,57,37a1.09,1.09,0,0,0,.83.35A1.44,1.44,0,0,0,59,36.68,2,2,0,0,0,59.44,35.39Z"/><path d="M65.32,34.11s0,.15,0,.3-.3.35-.44.35-.17-.06-.24-.18c0-.73-.34-1.1-.91-1.1-.37,0-.74.69-1.1,2.07a7.72,7.72,0,0,0-.21,2,14.27,14.27,0,0,0,.08,2s0,.1.09.21a.72.72,0,0,1,.07.26c0,.26-.17.38-.52.38a.53.53,0,0,1-.6-.61,1.76,1.76,0,0,1,0-.25,1.14,1.14,0,0,0,0-.26q0-1-.09-2.88c-.06-1.29-.09-2.25-.09-2.89,0-.23,0-.38.13-.43A1,1,0,0,1,62,33c.29,0,.46.11.51.32l0,.68c.3-.47.48-.73.53-.79a1.08,1.08,0,0,1,.8-.44,1.2,1.2,0,0,1,.63.2,1.93,1.93,0,0,1,.48.54A1.34,1.34,0,0,1,65.32,34.11Z"/><path d="M67.35,28.63a.68.68,0,0,1-.12.22l-.13.24A3.09,3.09,0,0,0,67,30c0,.16,0,.38,0,.68s0,.52,0,.67c0,.44-.17.67-.51.67s-.34-.06-.4-.18q0-2,0-2.22a4.2,4.2,0,0,1,.07-.7c.07-.36.14-.56.22-.58a.53.53,0,0,1,.2,0C67.1,28.34,67.35,28.44,67.35,28.63Z"/><path d="M73.51,39.32c0,.41-.31.76-.93,1a3.76,3.76,0,0,1-1.49.33A3.23,3.23,0,0,1,70,40.46a5.29,5.29,0,0,1-1.07-.74c-.54-.43-.8-.73-.8-.9,0-.36.21-.53.64-.49h.11c0,.35.4.74,1.12,1.15a3.38,3.38,0,0,0,1.57.56c.52,0,.77-.17.77-.52s-.31-.51-.94-.88a10.58,10.58,0,0,1-1.77-1.21,2.89,2.89,0,0,1-1-2.14,3.5,3.5,0,0,1,.47-1.74,1.59,1.59,0,0,1,1.37-1,2.75,2.75,0,0,1,1.43.55,2.09,2.09,0,0,1,1,1.11,4.1,4.1,0,0,1,.14,1.11,5.18,5.18,0,0,1-.24,1.48.56.56,0,0,1-.37.13,1.56,1.56,0,0,1-.39-.1c-.17-.06-.26-.13-.26-.2s.07-.08.19-.39a2.69,2.69,0,0,0,.14-1.08c0-1.25-.39-1.87-1.17-1.87-.41,0-.73.27-1,.82a3.1,3.1,0,0,0-.31,1.35,2.24,2.24,0,0,0,1,1.67c.22.18.84.59,1.84,1.21C73.18,38.77,73.51,39.09,73.51,39.32Z"/><path d="M85.84,33a11,11,0,0,1-1.17,5q-1.45,2.84-3.85,2.83a2.57,2.57,0,0,1-1.64-.61c-.2.25-.33.38-.39.38a.71.71,0,0,1-.38-.12,8.82,8.82,0,0,1-.25-2.62c0-1,0-2.44.06-4.37s0-3.39,0-4.38v-.28q0-.39.42-.39a.82.82,0,0,1,.45.17.45.45,0,0,1,.25.36,1.42,1.42,0,0,1-.12.51,1.31,1.31,0,0,0-.13.5v.68a2.39,2.39,0,0,0,.61-.85,3.76,3.76,0,0,1,.82-1.09,2.47,2.47,0,0,1,1.66-.56,3.09,3.09,0,0,1,2.83,1.56A6.24,6.24,0,0,1,85.84,33Zm-1-.09a6.73,6.73,0,0,0-.45-2.64,2.08,2.08,0,0,0-2-1.47A2.6,2.6,0,0,0,80.42,30a6.11,6.11,0,0,0-1.1,2.11A8,8,0,0,0,79,34.3v3.63a2.26,2.26,0,0,0,.44,1.41,1.5,1.5,0,0,0,1.29.67,3.12,3.12,0,0,0,2.5-1.47,6.81,6.81,0,0,0,1.26-2.77A14.06,14.06,0,0,0,84.81,32.92Z"/><path d="M92.25,40.85c0,.16-.13.24-.38.24a.46.46,0,0,1-.51-.35,5.87,5.87,0,0,1,0-.68.7.7,0,0,0,0-.28,3.52,3.52,0,0,1-2.12.72,3,3,0,0,1-1.52-.44,1.42,1.42,0,0,1-.84-1.22,1.83,1.83,0,0,1,1-1.4,3,3,0,0,1,1.69-.63h1.73a.53.53,0,0,0,.1-.37,6.11,6.11,0,0,0-.19-1.77,1.24,1.24,0,0,0-1.24-1,1.55,1.55,0,0,0-1.23.84,2.7,2.7,0,0,0-.5,1.47v.2c0,.09,0,.14-.15.14a.79.79,0,0,1-.59-.58,3.49,3.49,0,0,1,.3-1.24,3.59,3.59,0,0,1,.65-1.12,1.4,1.4,0,0,1,1.08-.48,3,3,0,0,1,1.84.63,2.1,2.1,0,0,1,.91,1.65Zm-.93-2.78c0-.47-.36-.7-1.08-.7a3.57,3.57,0,0,0-1.51.29,1.24,1.24,0,0,0-.82,1.16.81.81,0,0,0,.44.73,1.53,1.53,0,0,0,.87.23,2.38,2.38,0,0,0,1.43-.49A1.46,1.46,0,0,0,91.32,38.07Z"/><path d="M98.85,33.48c-.1.51-.19,1-.28,1.54a7.83,7.83,0,0,0-.16,1.54V42a2.49,2.49,0,0,1-.71,1.86,2.59,2.59,0,0,1-1.9.69,3.59,3.59,0,0,1-1.45-.35,2.55,2.55,0,0,1-1.28-1A.61.61,0,0,1,93,43a.44.44,0,0,1,.49-.51.41.41,0,0,1,.23.07l.6.61a2.14,2.14,0,0,0,1.5.54,1.52,1.52,0,0,0,1.54-.8A5.08,5.08,0,0,0,97.57,41a5.76,5.76,0,0,0-.07-.7,2.57,2.57,0,0,1,0-.77,5.29,5.29,0,0,1-.71.58,1.52,1.52,0,0,1-.83.24,2,2,0,0,1-1.81-.92,3.61,3.61,0,0,1-.54-2c0-1.58,0-2.91.07-4a.56.56,0,0,1,.61-.56c.45,0,.64.07.6.23a14.58,14.58,0,0,0-.34,4.07c0,1.64.47,2.45,1.4,2.45.57,0,1-.43,1.35-1.31a5.46,5.46,0,0,0,.37-2.05v-2c0-.2,0-.45,0-.75s.21-.45.57-.42S98.87,33.26,98.85,33.48Z"/><path d="M104.64,33.5a4.47,4.47,0,0,1-.15.94,4.54,4.54,0,0,0-.15,1v3.87a4.39,4.39,0,0,0,.18,1.05.22.22,0,0,1-.2.14.74.74,0,0,1-.85-.83V33.2a.9.9,0,0,1,.43-.12.94.94,0,0,1,.44.12Q104.64,33.32,104.64,33.5Zm.33-2.63c0,.4-.19.6-.56.6a.89.89,0,0,1-.61-.25.71.71,0,0,1-.28-.56.52.52,0,0,1,.59-.59.84.84,0,0,1,.61.23A.72.72,0,0,1,105,30.87Z"/><path d="M110.66,39.32c0,.41-.31.76-.93,1a3.76,3.76,0,0,1-1.49.33,3.23,3.23,0,0,1-1.08-.23,5.29,5.29,0,0,1-1.07-.74c-.53-.43-.8-.73-.8-.9,0-.36.21-.53.64-.49H106c0,.35.4.74,1.12,1.15a3.38,3.38,0,0,0,1.57.56c.52,0,.78-.17.78-.52s-.32-.51-1-.88a10.58,10.58,0,0,1-1.77-1.21,2.89,2.89,0,0,1-1-2.14,3.5,3.5,0,0,1,.47-1.74,1.59,1.59,0,0,1,1.37-1,2.75,2.75,0,0,1,1.43.55,2.09,2.09,0,0,1,1,1.11,3.74,3.74,0,0,1,.14,1.11,5.18,5.18,0,0,1-.24,1.48.56.56,0,0,1-.37.13,1.56,1.56,0,0,1-.39-.1c-.17-.06-.26-.13-.26-.2s.07-.08.19-.39a2.65,2.65,0,0,0,.15-1.08c0-1.25-.4-1.87-1.18-1.87-.41,0-.73.27-1,.82a3.1,3.1,0,0,0-.31,1.35,2.24,2.24,0,0,0,1,1.67c.23.18.84.59,1.84,1.21C110.33,38.77,110.66,39.09,110.66,39.32Z"/><path d="M120.77,36.89a5.09,5.09,0,0,1-.66,2.63,2.44,2.44,0,0,1-2.19,1.35,2.35,2.35,0,0,1-2.12-1.11,4.48,4.48,0,0,1-.57-2.41,6.9,6.9,0,0,1,.66-2.92c.56-1.18,1.27-1.77,2.14-1.77A2.08,2.08,0,0,1,119,33,4.18,4.18,0,0,1,120.77,36.89Zm-.84,0a6.36,6.36,0,0,0-.29-2c-.3-.82-.74-1.24-1.35-1.24s-1.25.46-1.65,1.38a5.86,5.86,0,0,0-.45,2.3,4.8,4.8,0,0,0,.31,1.85,1.5,1.5,0,0,0,1.42,1A1.71,1.71,0,0,0,119.51,39,5,5,0,0,0,119.93,36.88Z"/><path d="M126.88,29.54c0,.24-.17.35-.52.35a.32.32,0,0,1-.16,0c0-.5-.37-.75-1-.75s-1,.65-1.33,2a12.05,12.05,0,0,0-.32,2.66.85.85,0,0,1,.32,0h.47c.43,0,.65.12.65.38a1.85,1.85,0,0,1,0,.35,1.79,1.79,0,0,1-.88.16,1.28,1.28,0,0,0-.57.07c0,.45,0,1.28,0,2.47v1.26a7,7,0,0,0,.21,1.69.53.53,0,0,1,0,.16q0,.42-.6.42c-.35,0-.53-.47-.53-1.42,0-2.56,0-4.08.07-4.55h-.89c-.27,0-.4-.12-.4-.38s.23-.51.7-.51h.63c0-.23,0-.53.07-.89.17-3.1,1-4.66,2.61-4.66Q126.88,28.28,126.88,29.54Z"/><path d="M128.82,34.83a1.55,1.55,0,0,1-.66.17,2.56,2.56,0,0,0-.67.13c0,.12,0,.77,0,1.94,0,.91,0,1.52,0,1.84a3.38,3.38,0,0,0,.09.61,3.28,3.28,0,0,1,.09.65.39.39,0,0,1-.18.28.53.53,0,0,1-.31.14c-.24,0-.42-.24-.56-.72a3.6,3.6,0,0,1-.14-1V35.23c-.07-.06-.33-.06-.79,0s-.54-.09-.54-.4.47-.65,1.42-.61l.22-3.17a.49.49,0,0,0,0-.17.54.54,0,0,1,0-.16.29.29,0,0,1,.14-.21.49.49,0,0,1,.34-.07c.41,0,.61.24.61.61a10.54,10.54,0,0,1-.12,1.31,11.09,11.09,0,0,0-.13,1.3,2.58,2.58,0,0,0,0,.4l1-.05c.33,0,.49.12.49.38A.49.49,0,0,1,128.82,34.83Z"/><path d="M134.41,38.61c0,.51-.35,1-1,1.38a3.42,3.42,0,0,1-1.75.56q-2.34,0-2.34-3a9.56,9.56,0,0,1,.47-2.82c.42-1.31,1-2,1.61-2a3,3,0,0,1,1.84.85,2.34,2.34,0,0,1,1,1.69,2.48,2.48,0,0,1-.88,1.89,2.86,2.86,0,0,1-2,.8,1.51,1.51,0,0,1-.44-.17,1.28,1.28,0,0,0-.47-.18c-.15,0-.22,0-.22.14,0,1.34.44,2,1.33,2a2,2,0,0,0,1.26-.45,4.46,4.46,0,0,0,.77-.82c.22-.3.36-.44.43-.44C134.27,38.12,134.41,38.28,134.41,38.61Zm-1.21-3.22a2.1,2.1,0,0,0-.35-1.15,1.07,1.07,0,0,0-.93-.53,1.32,1.32,0,0,0-1.14.87,3.44,3.44,0,0,0-.36,1.53,1.15,1.15,0,0,0,.32.84,1.09,1.09,0,0,0,.83.35,1.44,1.44,0,0,0,1.19-.62A2,2,0,0,0,133.2,35.39Z"/><path d="M140.74,40.43a.3.3,0,0,1-.28.19,1.41,1.41,0,0,1-.59-.24V39.31c0-3.87-.49-5.81-1.45-5.81a1.37,1.37,0,0,0-1,.66,6.38,6.38,0,0,0-1.33,4.15,6.3,6.3,0,0,0,.1,1,7.64,7.64,0,0,1,.09,1c0,.18-.11.27-.35.27-.45,0-.68-.37-.68-1.11v-4c0-.1,0-.26,0-.45s0-.35,0-.46a5.25,5.25,0,0,0-.06-.66,6.08,6.08,0,0,1-.07-.65c0-.09.08-.2.22-.33a.65.65,0,0,1,.34-.18.54.54,0,0,1,.43.25c0,.75-.06,1.2-.06,1.33s0,.34,0,.5q.15,0,.42-.57a4,4,0,0,1,.56-.91,1.23,1.23,0,0,1,1-.49,2.1,2.1,0,0,1,.63.15,2.37,2.37,0,0,1,1.35,1.16,8.39,8.39,0,0,1,.68,3.66Z"/><path d="M24,56.85c0,.16-.13.24-.38.24a.46.46,0,0,1-.51-.35,5.87,5.87,0,0,1,0-.68.7.7,0,0,0-.05-.28,3.5,3.5,0,0,1-2.12.72,3,3,0,0,1-1.52-.44,1.42,1.42,0,0,1-.84-1.22c0-.48.33-1,1-1.4a3,3,0,0,1,1.68-.63H23a.53.53,0,0,0,.1-.37,6.11,6.11,0,0,0-.19-1.77,1.24,1.24,0,0,0-1.24-1,1.56,1.56,0,0,0-1.23.84,2.78,2.78,0,0,0-.5,1.47v.2a.13.13,0,0,1-.14.14.59.59,0,0,1-.39-.21.59.59,0,0,1-.21-.37,3.49,3.49,0,0,1,.3-1.24,3.59,3.59,0,0,1,.65-1.12,1.4,1.4,0,0,1,1.08-.48,3,3,0,0,1,1.84.63,2.1,2.1,0,0,1,.91,1.65Zm-.93-2.78c0-.47-.36-.7-1.08-.7a3.6,3.6,0,0,0-1.51.29,1.26,1.26,0,0,0-.82,1.16.81.81,0,0,0,.44.73,1.55,1.55,0,0,0,.87.23,2.36,2.36,0,0,0,1.43-.49A1.46,1.46,0,0,0,23.05,54.07Z"/><path d="M30.23,55.32c0,.41-.31.76-.93,1a3.76,3.76,0,0,1-1.49.33,3.23,3.23,0,0,1-1.08-.23,5.29,5.29,0,0,1-1.07-.74c-.53-.43-.8-.73-.8-.9,0-.36.21-.53.64-.49h.11c0,.35.4.74,1.12,1.15A3.38,3.38,0,0,0,28.3,56c.52,0,.77-.17.77-.52s-.31-.51-.94-.88a10.58,10.58,0,0,1-1.77-1.21,2.89,2.89,0,0,1-1-2.14,3.5,3.5,0,0,1,.47-1.74,1.59,1.59,0,0,1,1.37-1,2.75,2.75,0,0,1,1.43.55,2.09,2.09,0,0,1,1,1.11,3.74,3.74,0,0,1,.14,1.11,5.18,5.18,0,0,1-.24,1.48.56.56,0,0,1-.37.13,1.56,1.56,0,0,1-.39-.1c-.17-.06-.26-.13-.26-.2s.07-.08.19-.39a2.69,2.69,0,0,0,.14-1.08c0-1.25-.39-1.87-1.17-1.87-.41,0-.73.27-1,.82a3.1,3.1,0,0,0-.31,1.35,2.24,2.24,0,0,0,1,1.67c.23.18.84.59,1.84,1.21C29.9,54.77,30.23,55.09,30.23,55.32Z"/><path d="M35.92,55.32c0,.41-.31.76-.93,1a3.76,3.76,0,0,1-1.49.33,3.18,3.18,0,0,1-1.08-.23,5,5,0,0,1-1.07-.74q-.81-.64-.81-.9c0-.36.22-.53.65-.49h.11c0,.35.39.74,1.12,1.15A3.34,3.34,0,0,0,34,56c.52,0,.77-.17.77-.52s-.31-.51-.94-.88a9.77,9.77,0,0,1-1.77-1.21,2.89,2.89,0,0,1-1-2.14,3.4,3.4,0,0,1,.47-1.74,1.59,1.59,0,0,1,1.36-1,2.75,2.75,0,0,1,1.44.55,2.09,2.09,0,0,1,1,1.11,4.1,4.1,0,0,1,.14,1.11,4.88,4.88,0,0,1-.25,1.48.52.52,0,0,1-.36.13,1.56,1.56,0,0,1-.39-.1c-.17-.06-.26-.13-.26-.2s.06-.08.19-.39a2.69,2.69,0,0,0,.14-1.08c0-1.25-.39-1.87-1.17-1.87-.41,0-.74.27-1,.82a3.11,3.11,0,0,0-.32,1.35,2.25,2.25,0,0,0,1,1.67c.22.18.84.59,1.84,1.21C35.58,54.77,35.92,55.09,35.92,55.32Z"/><path d="M42.2,52.89a5,5,0,0,1-.67,2.63,2.42,2.42,0,0,1-2.18,1.35,2.33,2.33,0,0,1-2.12-1.11,4.39,4.39,0,0,1-.58-2.41,6.77,6.77,0,0,1,.67-2.92q.84-1.77,2.13-1.77a2.11,2.11,0,0,1,.95.38A4.18,4.18,0,0,1,42.2,52.89Zm-.84,0a6.35,6.35,0,0,0-.3-2c-.29-.82-.74-1.24-1.35-1.24s-1.24.46-1.64,1.38a5.69,5.69,0,0,0-.46,2.3,4.79,4.79,0,0,0,.32,1.85,1.48,1.48,0,0,0,1.42,1A1.71,1.71,0,0,0,40.94,55,5,5,0,0,0,41.36,52.88Z"/><path d="M48.57,54.52q0,.43-.72,1.14a3.07,3.07,0,0,1-1.17.84,3.48,3.48,0,0,1-1,.19,2.29,2.29,0,0,1-2-.93,3.42,3.42,0,0,1-.63-2.14,9.41,9.41,0,0,1,.58-3c.48-1.38,1.07-2.07,1.79-2.07a2.9,2.9,0,0,1,1.34.49c.56.34.88.66.95,1a4.94,4.94,0,0,1,.12,1.07c0,1.28-.19,1.92-.58,1.92a.71.71,0,0,1-.33-.1.3.3,0,0,1-.19-.25.32.32,0,0,1,.07-.18.69.69,0,0,1,.09-.15,5.12,5.12,0,0,0,.07-1c0-1.3-.3-1.94-.88-1.94s-1.17.59-1.57,1.77a8.06,8.06,0,0,0-.46,2.59,3.65,3.65,0,0,0,.3,1.58,1.32,1.32,0,0,0,1.24.83,2.07,2.07,0,0,0,1.19-.53,3.39,3.39,0,0,0,.91-1l.21-.49a.29.29,0,0,1,.25-.12c.07,0,.15.07.25.23A.8.8,0,0,1,48.57,54.52Z"/><path d="M50.7,49.5a4.47,4.47,0,0,1-.15.94,5.12,5.12,0,0,0-.14,1v3.87a4.28,4.28,0,0,0,.17,1.05.22.22,0,0,1-.19.14.75.75,0,0,1-.86-.83V49.2a.94.94,0,0,1,.44-.12,1,1,0,0,1,.44.12C50.6,49.28,50.7,49.38,50.7,49.5ZM51,46.87c0,.4-.19.6-.56.6a.89.89,0,0,1-.62-.25.75.75,0,0,1-.28-.56.53.53,0,0,1,.6-.59.84.84,0,0,1,.6.23A.73.73,0,0,1,51,46.87Z"/><path d="M57,56.85c0,.16-.13.24-.38.24a.46.46,0,0,1-.51-.35,5.87,5.87,0,0,1,0-.68.7.7,0,0,0,0-.28,3.5,3.5,0,0,1-2.12.72,3,3,0,0,1-1.52-.44,1.42,1.42,0,0,1-.84-1.22c0-.48.33-1,1-1.4a3,3,0,0,1,1.68-.63h1.73a.53.53,0,0,0,.1-.37,6.11,6.11,0,0,0-.19-1.77,1.24,1.24,0,0,0-1.24-1,1.56,1.56,0,0,0-1.23.84,2.78,2.78,0,0,0-.5,1.47v.2a.13.13,0,0,1-.14.14.59.59,0,0,1-.39-.21.59.59,0,0,1-.21-.37,3.49,3.49,0,0,1,.3-1.24,3.59,3.59,0,0,1,.65-1.12,1.4,1.4,0,0,1,1.08-.48,3,3,0,0,1,1.84.63,2.1,2.1,0,0,1,.91,1.65ZM56,54.07c0-.47-.36-.7-1.08-.7a3.6,3.6,0,0,0-1.51.29,1.26,1.26,0,0,0-.82,1.16.81.81,0,0,0,.44.73,1.55,1.55,0,0,0,.87.23,2.36,2.36,0,0,0,1.43-.49A1.46,1.46,0,0,0,56,54.07Z"/><path d="M61.17,50.83a1.61,1.61,0,0,1-.67.17,2.55,2.55,0,0,0-.66.13c0,.12,0,.77,0,1.94,0,.91,0,1.52,0,1.84a4.21,4.21,0,0,0,.08.61,3.28,3.28,0,0,1,.09.65.41.41,0,0,1-.17.28.58.58,0,0,1-.32.14c-.23,0-.42-.24-.56-.72a4,4,0,0,1-.14-1V51.23q-.11-.09-.78,0c-.37.05-.55-.09-.55-.4s.47-.65,1.42-.61l.23-3.17a.58.58,0,0,0,0-.17.45.45,0,0,1,0-.16.29.29,0,0,1,.14-.21.45.45,0,0,1,.33-.07c.41,0,.61.24.61.61A10.54,10.54,0,0,1,60,48.36a10.58,10.58,0,0,0-.12,1.3,2.6,2.6,0,0,0,0,.4l1-.05c.32,0,.49.12.49.38A.52.52,0,0,1,61.17,50.83Z"/><path d="M66.75,54.61c0,.51-.34,1-1,1.38a3.44,3.44,0,0,1-1.75.56c-1.56,0-2.35-1-2.35-3a9.27,9.27,0,0,1,.48-2.82c.42-1.31.95-2,1.61-2a2.91,2.91,0,0,1,1.83.85,2.3,2.3,0,0,1,1,1.69,2.51,2.51,0,0,1-.87,1.89,2.9,2.9,0,0,1-2,.8,1.53,1.53,0,0,1-.45-.17,1.26,1.26,0,0,0-.46-.18c-.15,0-.23,0-.23.14,0,1.34.45,2,1.33,2a2,2,0,0,0,1.26-.45,4.15,4.15,0,0,0,.77-.82c.22-.3.37-.44.44-.44C66.62,54.12,66.75,54.28,66.75,54.61Zm-1.21-3.22a2,2,0,0,0-.35-1.15,1.06,1.06,0,0,0-.92-.53,1.3,1.3,0,0,0-1.14.87,3.32,3.32,0,0,0-.37,1.53,1.15,1.15,0,0,0,.33.84,1.08,1.08,0,0,0,.83.35,1.47,1.47,0,0,0,1.19-.62A2,2,0,0,0,65.54,51.39Z"/><path d="M73.09,45.21a6.7,6.7,0,0,1-.11,1c-.08.55-.13.89-.16,1,0,.36-.09,1.57-.17,3.61-.07,1.87-.11,2.9-.11,3.1a7.42,7.42,0,0,0,.34,2.65.36.36,0,0,1-.32.19.66.66,0,0,1-.39-.17.74.74,0,0,1-.27-.35,8.31,8.31,0,0,0-.11-1.07,2.77,2.77,0,0,1-2,1.31,2,2,0,0,1-1.75-.86,3.25,3.25,0,0,1-.52-1.94,9.34,9.34,0,0,1,.54-3q.7-2.07,1.86-2.07a1.65,1.65,0,0,1,1,.37c.07.05.35.29.83.73a49.28,49.28,0,0,0,.17-5.23.45.45,0,0,1,.33-.12.84.84,0,0,1,.83.82Zm-1.32,6.48a2.69,2.69,0,0,0-.35-1.39,1.27,1.27,0,0,0-1.13-.73c-.59,0-1.05.59-1.4,1.78a8.58,8.58,0,0,0-.42,2.54,3.36,3.36,0,0,0,.24,1.33,1.08,1.08,0,0,0,1,.74c.72,0,1.27-.56,1.64-1.68A7.86,7.86,0,0,0,71.77,51.69Z"/><path d="M85.7,50.76a12.7,12.7,0,0,1-.43,3.29c-.41,1.54-1,2.31-1.79,2.31A1.75,1.75,0,0,1,82,55.29c-.15-.35-.3-.7-.45-1.07l-.07,0L81,55.66a1.17,1.17,0,0,1-1.1.8q-2.23,0-2.23-5.33c0-.82,0-1.46.07-1.93A.36.36,0,0,1,78,49a1,1,0,0,1,.45.14c.18.1.27.22.27.35a3.24,3.24,0,0,1-.12.7,4,4,0,0,0-.11.77c0,3,.39,4.55,1.17,4.55.5,0,.9-.58,1.21-1.72a8.54,8.54,0,0,0,.35-2.36V49.78c0-.25.14-.37.42-.37s.51.23.51.7a1.58,1.58,0,0,1,0,.26,1.8,1.8,0,0,0,0,.27v2.15a5.37,5.37,0,0,0,.27,1.61c.22.76.52,1.14.89,1.14s.92-.64,1.26-1.91a10.64,10.64,0,0,0,.38-2.57,3.51,3.51,0,0,0-.14-1.35.69.69,0,0,0-.12-.16.43.43,0,0,1-.12-.19.51.51,0,0,1,.17-.37.45.45,0,0,1,.35-.17C85.49,48.82,85.7,49.46,85.7,50.76Z"/><path d="M88,49.5a4.47,4.47,0,0,1-.15.94,4.54,4.54,0,0,0-.15,1v3.87a4.39,4.39,0,0,0,.18,1.05.23.23,0,0,1-.2.14.74.74,0,0,1-.85-.83V49.2a.9.9,0,0,1,.43-.12.94.94,0,0,1,.44.12Q88,49.32,88,49.5Zm.33-2.63c0,.4-.19.6-.56.6a.87.87,0,0,1-.61-.25.71.71,0,0,1-.28-.56.52.52,0,0,1,.59-.59.84.84,0,0,1,.61.23A.72.72,0,0,1,88.31,46.87Z"/><path d="M92.13,50.83a1.66,1.66,0,0,1-.67.17,2.44,2.44,0,0,0-.66.13c0,.12,0,.77,0,1.94,0,.91,0,1.52,0,1.84a3.38,3.38,0,0,0,.09.61,3.28,3.28,0,0,1,.09.65.39.39,0,0,1-.18.28.53.53,0,0,1-.31.14c-.23,0-.42-.24-.56-.72a4,4,0,0,1-.14-1V51.23c-.07-.06-.33-.06-.79,0s-.54-.09-.54-.4.47-.65,1.42-.61l.22-3.17a.49.49,0,0,0,0-.17.45.45,0,0,1,0-.16.26.26,0,0,1,.14-.21.45.45,0,0,1,.33-.07c.41,0,.61.24.61.61A10.54,10.54,0,0,1,91,48.36a10.58,10.58,0,0,0-.12,1.3,2.6,2.6,0,0,0,0,.4l1-.05c.33,0,.49.12.49.38A.51.51,0,0,1,92.13,50.83Z"/><path d="M97.67,56.81a.7.7,0,0,1-.52.14.56.56,0,0,1-.4-.24v-2.4c0-3-.5-4.44-1.48-4.44a1.21,1.21,0,0,0-1,.73,2.58,2.58,0,0,0-.36,1.3.85.85,0,0,1,0,.21,1.78,1.78,0,0,0,0,.22v2.24a5.81,5.81,0,0,0,.09.86,5.73,5.73,0,0,1,.09.84c0,.19-.14.28-.42.28a.58.58,0,0,1-.5-.28,1,1,0,0,1-.2-.58l.1-10.78a.76.76,0,0,1,0-.21c0-.21.11-.31.35-.31a1.09,1.09,0,0,1,.51.24c.23.15.34.29.34.39a6.26,6.26,0,0,1-.16,1.21,6.58,6.58,0,0,0-.17,1.2s0,.8,0,2.33a1.87,1.87,0,0,1,1-.58,3.42,3.42,0,0,1,1.35.34c1,.42,1.52,1.52,1.52,3.32Z"/><path d="M112.85,44.7a.45.45,0,0,1-.13.3,2.91,2.91,0,0,0-.24.27.94.94,0,0,0-.11.54,4.21,4.21,0,0,1,0,.57,60.86,60.86,0,0,0-.43,7v1.67c0,.82.22,1.29.52,1.4v.17a.3.3,0,0,1-.3.19c-.73,0-1.17-.71-1.31-2.15a9.19,9.19,0,0,1,0-1.66l.46-5.65L110,52.07q-1.19,3.7-2.33,3.71a1.44,1.44,0,0,1-1-.65,3.37,3.37,0,0,1-.67-1.08,29.24,29.24,0,0,1-1.11-3.83c-.3-1.31-.59-2.61-.89-3.91l-.11.27a39.19,39.19,0,0,0-.28,4.63l.18,4c0,.42.16.65.42.68q0,.48-.84.48c-.53,0-.79-1-.79-2.89,0-.88,0-2.18.14-3.91s.14-3,.14-3.91a1.61,1.61,0,0,0,0-.44,1,1,0,0,1-.06-.19c0-.46.47-.69,1.4-.69a1,1,0,0,1,.63.37c0,.36.09.9.16,1.61a32.58,32.58,0,0,0,1,4.48c.68,2.4,1.23,3.61,1.67,3.61s1.15-1.1,1.8-3.29a42.28,42.28,0,0,0,1-4.2c.15-.45.34-1.08.58-1.89a1.08,1.08,0,0,1,1.2-.79,1,1,0,0,1,.46.12A.37.37,0,0,1,112.85,44.7Z"/><path d="M119.27,52.89a5,5,0,0,1-.67,2.63,2.42,2.42,0,0,1-2.18,1.35,2.33,2.33,0,0,1-2.12-1.11,4.39,4.39,0,0,1-.58-2.41,6.77,6.77,0,0,1,.67-2.92q.84-1.77,2.13-1.77a2.11,2.11,0,0,1,1,.38A4.18,4.18,0,0,1,119.27,52.89Zm-.84,0a6.35,6.35,0,0,0-.3-2c-.29-.82-.74-1.24-1.35-1.24s-1.24.46-1.64,1.38a5.87,5.87,0,0,0-.46,2.3,4.79,4.79,0,0,0,.32,1.85,1.48,1.48,0,0,0,1.42,1A1.71,1.71,0,0,0,118,55,5,5,0,0,0,118.43,52.88Z"/><path d="M123.08,50.83a1.55,1.55,0,0,1-.66.17,2.56,2.56,0,0,0-.67.13c0,.12,0,.77,0,1.94,0,.91,0,1.52,0,1.84a3.38,3.38,0,0,0,.09.61,3.13,3.13,0,0,1,.08.65.38.38,0,0,1-.17.28.56.56,0,0,1-.31.14c-.24,0-.42-.24-.57-.72a4,4,0,0,1-.13-1V51.23c-.07-.06-.33-.06-.79,0s-.54-.09-.54-.4.47-.65,1.41-.61l.23-3.17a1,1,0,0,0,0-.17.54.54,0,0,1,0-.16.29.29,0,0,1,.14-.21.49.49,0,0,1,.34-.07.57.57,0,0,1,.61.61,9.22,9.22,0,0,1-.13,1.31,10.58,10.58,0,0,0-.12,1.3,1.75,1.75,0,0,0,0,.4l1-.05c.33,0,.49.12.49.38A.52.52,0,0,1,123.08,50.83Z"/><path d="M128.63,56.81a.7.7,0,0,1-.52.14.58.58,0,0,1-.41-.24v-2.4c0-3-.49-4.44-1.48-4.44a1.21,1.21,0,0,0-1,.73,2.58,2.58,0,0,0-.36,1.3.85.85,0,0,1,0,.21.85.85,0,0,0,0,.22v2.24a5.81,5.81,0,0,0,.09.86,7.07,7.07,0,0,1,.08.84c0,.19-.14.28-.42.28a.6.6,0,0,1-.5-.28,1,1,0,0,1-.2-.58l.11-10.78a.52.52,0,0,1,0-.21c0-.21.12-.31.35-.31a1.07,1.07,0,0,1,.52.24c.23.15.34.29.34.39a5.7,5.7,0,0,1-.17,1.21,6.37,6.37,0,0,0-.16,1.2s0,.8,0,2.33a1.89,1.89,0,0,1,1-.58,3.5,3.5,0,0,1,1.35.34c1,.42,1.52,1.52,1.52,3.32Z"/><path d="M134.76,54.61c0,.51-.35,1-1,1.38a3.44,3.44,0,0,1-1.75.56q-2.34,0-2.34-3a9.56,9.56,0,0,1,.47-2.82c.42-1.31,1-2,1.61-2a3,3,0,0,1,1.84.85,2.34,2.34,0,0,1,1,1.69,2.52,2.52,0,0,1-.88,1.89,2.86,2.86,0,0,1-2,.8,1.41,1.41,0,0,1-.44-.17,1.35,1.35,0,0,0-.47-.18c-.15,0-.22,0-.22.14,0,1.34.44,2,1.33,2a2,2,0,0,0,1.26-.45,4.46,4.46,0,0,0,.77-.82c.22-.3.36-.44.43-.44C134.62,54.12,134.76,54.28,134.76,54.61Zm-1.21-3.22a2.1,2.1,0,0,0-.35-1.15,1.07,1.07,0,0,0-.93-.53c-.47,0-.84.29-1.14.87a3.44,3.44,0,0,0-.36,1.53,1.15,1.15,0,0,0,.32.84,1.08,1.08,0,0,0,.83.35,1.44,1.44,0,0,0,1.19-.62A2,2,0,0,0,133.55,51.39Z"/><path d="M139.43,50.11s0,.15,0,.3-.3.35-.44.35-.17-.06-.24-.18c0-.73-.34-1.1-.91-1.1-.38,0-.74.69-1.1,2.07a7.72,7.72,0,0,0-.21,2,12.74,12.74,0,0,0,.08,2l.09.21a.72.72,0,0,1,.07.26c0,.26-.17.38-.52.38a.53.53,0,0,1-.6-.61,1,1,0,0,1,0-.25,1.14,1.14,0,0,0,.05-.26q0-1-.09-2.88c-.06-1.29-.09-2.25-.09-2.89,0-.23,0-.38.13-.43a1,1,0,0,1,.47-.08c.29,0,.46.11.51.32l0,.68c.3-.47.48-.73.53-.79a1.08,1.08,0,0,1,.8-.44,1.2,1.2,0,0,1,.63.2,1.93,1.93,0,0,1,.48.54A1.34,1.34,0,0,1,139.43,50.11Z"/><path d="M141.56,49.5a4.47,4.47,0,0,1-.15.94,4.38,4.38,0,0,0-.14,1v3.87a4.28,4.28,0,0,0,.17,1.05.22.22,0,0,1-.19.14.75.75,0,0,1-.86-.83V49.2a.94.94,0,0,1,.44-.12,1,1,0,0,1,.44.12C141.46,49.28,141.56,49.38,141.56,49.5Zm.34-2.63c0,.4-.19.6-.56.6a.89.89,0,0,1-.62-.25.75.75,0,0,1-.28-.56.53.53,0,0,1,.6-.59.84.84,0,0,1,.6.23A.73.73,0,0,1,141.9,46.87Z"/><path d="M148.32,56.43a.31.31,0,0,1-.28.19,1.49,1.49,0,0,1-.6-.24V55.31q0-5.81-1.44-5.81a1.4,1.4,0,0,0-1,.66,6.43,6.43,0,0,0-1.32,4.15,7.48,7.48,0,0,0,.09,1,6.42,6.42,0,0,1,.1,1c0,.18-.12.27-.35.27-.46,0-.68-.37-.68-1.11v-4a4.14,4.14,0,0,1,0-.45c0-.2,0-.35,0-.46a5.25,5.25,0,0,0-.06-.66,5.46,5.46,0,0,1-.06-.65c0-.09.07-.2.22-.33a.62.62,0,0,1,.34-.18.53.53,0,0,1,.42.25c0,.75-.05,1.2-.05,1.33a4.1,4.1,0,0,0,0,.5q.15,0,.42-.57a3.65,3.65,0,0,1,.56-.91,1.23,1.23,0,0,1,1-.49,2.1,2.1,0,0,1,.63.15,2.37,2.37,0,0,1,1.35,1.16,8.39,8.39,0,0,1,.68,3.66Z"/><path d="M154.6,51.09c0,.07,0,.17,0,.3a14.68,14.68,0,0,0-.36,2.82c0,.36,0,.91.05,1.66s0,1.3,0,1.68a4.92,4.92,0,0,1-.18,1.57,1.86,1.86,0,0,1-.8,1,2.27,2.27,0,0,1-1.22.38,5.54,5.54,0,0,1-1.7-.31q-1.23-.39-1.23-.93c0-.32.12-.47.37-.47s.2.07.28.21a1.86,1.86,0,0,0,.23.33,1.65,1.65,0,0,0,.72.26,3.48,3.48,0,0,0,.78.14,1.67,1.67,0,0,0,1.49-.77,3,3,0,0,0,.44-1.7,6.51,6.51,0,0,0-.2-1.78,2.47,2.47,0,0,1-2,1.1,1.9,1.9,0,0,1-.82-.24,2.11,2.11,0,0,1-.7-.51A2.74,2.74,0,0,1,149.3,54a10.67,10.67,0,0,1,.54-3.2c.47-1.48,1.08-2.22,1.84-2.22.6,0,1.25.54,1.92,1.64a5.1,5.1,0,0,0,.33.51A3.61,3.61,0,0,1,154.6,51.09Zm-1,1a.82.82,0,0,0-.26-.61,2.87,2.87,0,0,0-.37-1.26,1.23,1.23,0,0,0-1.08-.65c-.32,0-.63.36-1,1.07a6.81,6.81,0,0,0-.47,1.51,10.78,10.78,0,0,0-.18,1.78c0,1.44.42,2.15,1.25,2.15.63,0,1.15-.52,1.57-1.57A6.69,6.69,0,0,0,153.55,52.05Z"/><path d="M21.12,68.85c0,.66-.41,1.16-1.23,1.51a5.25,5.25,0,0,1-2.1.42,7,7,0,0,1-2.26-.42C14.48,70,14,69.55,14,69c0-.29.14-.44.42-.44a1.25,1.25,0,0,1,.77.39l.66.61A4.08,4.08,0,0,0,18,70c1.33,0,2-.35,2-1.05,0-.33-.28-.73-.86-1.21l-1.31-.94A19.3,19.3,0,0,1,15.43,65a3.83,3.83,0,0,1-1.1-2.73,4.47,4.47,0,0,1,.82-2.62,2.69,2.69,0,0,1,2.29-1.33,2.55,2.55,0,0,1,2,1,4.6,4.6,0,0,1,1,2.12,11.18,11.18,0,0,0,.14,1.28l.14.63c0,.93-.23,1.4-.69,1.4a.55.55,0,0,1-.36-.2.6.6,0,0,1-.18-.38,3.62,3.62,0,0,1,.1-.72,4.09,4.09,0,0,0,.09-.71,5.49,5.49,0,0,0-.38-2.14q-.5-1.26-1.53-1.26a2.08,2.08,0,0,0-1.71.9,3.22,3.22,0,0,0-.68,2,3.64,3.64,0,0,0,1.5,2.73l2.77,2C20.62,67.62,21.12,68.27,21.12,68.85Z"/><path d="M26.91,63.8c0,.36,0,.9-.11,1.61a17.2,17.2,0,0,0-.12,1.87q0,.31.06,1.2c0,.59.06,1,.06,1.27,0,.51-.05.82-.17.92a.6.6,0,0,1-.82-.26c0-.22-.1-.44-.14-.65a2.4,2.4,0,0,1-1.74,1,1.43,1.43,0,0,1-1.05-.4,2.12,2.12,0,0,1-.71-.84,6.53,6.53,0,0,1-.25-2.24V63.45c-.07-.35.13-.53.6-.53s.49.19.49.56q0,.84-.06,2.19c0,1.14-.05,1.87-.05,2.19a2.75,2.75,0,0,0,.28,1.26c.23.5.53.75.89.75.6,0,1.06-.4,1.39-1.19a5.42,5.42,0,0,0,.35-2V64.43a1.35,1.35,0,0,0-.1-.4,1.33,1.33,0,0,1-.1-.41,1.37,1.37,0,0,1,0-.19.89.89,0,0,1,.49-.25C26.65,63.14,26.91,63.34,26.91,63.8Z"/><path d="M33.52,70.43a.3.3,0,0,1-.28.19,1.41,1.41,0,0,1-.59-.24V69.31q0-5.81-1.45-5.81c-.3,0-.62.22-1,.66a6.38,6.38,0,0,0-1.33,4.15,7.9,7.9,0,0,0,.1,1,8.09,8.09,0,0,1,.1,1q0,.27-.36.27c-.45,0-.68-.37-.68-1.11v-4c0-.1,0-.26,0-.45s0-.35,0-.46a5.25,5.25,0,0,0-.06-.66,5.46,5.46,0,0,1-.06-.65.52.52,0,0,1,.21-.33.64.64,0,0,1,.35-.18A.53.53,0,0,1,29,63c0,.75-.06,1.2-.06,1.33s0,.34,0,.5q.16,0,.42-.57a4,4,0,0,1,.56-.91,1.23,1.23,0,0,1,1-.49,2.1,2.1,0,0,1,.63.15,2.37,2.37,0,0,1,1.35,1.16,8.24,8.24,0,0,1,.68,3.66Z"/><path d="M40,59.21a6.7,6.7,0,0,1-.11,1c-.08.55-.13.89-.16,1,0,.36-.09,1.57-.17,3.61-.07,1.87-.11,2.9-.11,3.1a7.19,7.19,0,0,0,.34,2.65.37.37,0,0,1-.32.19.66.66,0,0,1-.39-.17.74.74,0,0,1-.27-.35,8.31,8.31,0,0,0-.11-1.07,2.77,2.77,0,0,1-2,1.31,2,2,0,0,1-1.75-.86,3.25,3.25,0,0,1-.52-1.94,9.34,9.34,0,0,1,.54-3q.7-2.07,1.86-2.07a1.67,1.67,0,0,1,1,.37c.07.05.35.29.83.73a49.28,49.28,0,0,0,.17-5.23.45.45,0,0,1,.33-.12.8.8,0,0,1,.58.24A.83.83,0,0,1,40,59.21Zm-1.32,6.48a2.69,2.69,0,0,0-.35-1.39,1.27,1.27,0,0,0-1.14-.73c-.58,0-1,.59-1.39,1.78a8.58,8.58,0,0,0-.42,2.54,3.36,3.36,0,0,0,.24,1.33,1.07,1.07,0,0,0,1,.74c.72,0,1.27-.56,1.64-1.68A7.86,7.86,0,0,0,38.63,65.69Z"/><path d="M45.86,70.85q0,.24-.39.24c-.28,0-.45-.11-.5-.35a4,4,0,0,1,0-.68.7.7,0,0,0-.05-.28,3.52,3.52,0,0,1-2.12.72,2.93,2.93,0,0,1-1.52-.44,1.42,1.42,0,0,1-.84-1.22,1.83,1.83,0,0,1,1-1.4,3,3,0,0,1,1.68-.63h1.74a.53.53,0,0,0,.1-.37,6.11,6.11,0,0,0-.19-1.77,1.25,1.25,0,0,0-1.24-1,1.53,1.53,0,0,0-1.23.84A2.72,2.72,0,0,0,41.76,66v.2a.12.12,0,0,1-.14.14.79.79,0,0,1-.59-.58,3.49,3.49,0,0,1,.3-1.24A3.59,3.59,0,0,1,42,63.38a1.42,1.42,0,0,1,1.09-.48,3,3,0,0,1,1.84.63,2.13,2.13,0,0,1,.91,1.65Zm-.93-2.78c0-.47-.36-.7-1.08-.7a3.54,3.54,0,0,0-1.51.29,1.24,1.24,0,0,0-.82,1.16.8.8,0,0,0,.44.73,1.53,1.53,0,0,0,.87.23,2.38,2.38,0,0,0,1.43-.49A1.46,1.46,0,0,0,44.93,68.07Z"/><path d="M52.46,63.48c-.1.51-.19,1-.28,1.54A7.83,7.83,0,0,0,52,66.56V72a2.49,2.49,0,0,1-.71,1.86,2.59,2.59,0,0,1-1.9.69A3.59,3.59,0,0,1,48,74.24a2.55,2.55,0,0,1-1.28-1,.61.61,0,0,1-.09-.31.44.44,0,0,1,.49-.51.43.43,0,0,1,.23.07l.6.61a2.12,2.12,0,0,0,1.5.54,1.53,1.53,0,0,0,1.54-.8A5.08,5.08,0,0,0,51.18,71a5.76,5.76,0,0,0-.07-.7,3,3,0,0,1,0-.77,4.79,4.79,0,0,1-.7.58,1.53,1.53,0,0,1-.84.24,2,2,0,0,1-1.8-.92,3.61,3.61,0,0,1-.54-2c0-1.58,0-2.91.07-4a.56.56,0,0,1,.61-.56c.44,0,.64.07.6.23a14.58,14.58,0,0,0-.34,4.07c0,1.64.47,2.45,1.4,2.45.56,0,1-.43,1.35-1.31a5.46,5.46,0,0,0,.37-2v-2c0-.2,0-.45,0-.75s.21-.45.57-.42S52.48,63.26,52.46,63.48Z"/><path d="M53.38,69.55a.69.69,0,0,1,.14-.4c.1-.13.3-.19.62-.19a.89.89,0,0,1,.56.2,1.12,1.12,0,0,1,.33.67,6.83,6.83,0,0,1,.1,1.27,2.46,2.46,0,0,1-.36,1.1,3.44,3.44,0,0,1-.65.81,1.12,1.12,0,0,1-.7.31.28.28,0,0,1-.32-.24.51.51,0,0,1,.21-.45c.2-.17.41-.33.62-.49a1.35,1.35,0,0,0,.5-.64,1,1,0,0,0,0-.75,1.09,1.09,0,0,0-.43-.58l-.46-.31A.38.38,0,0,1,53.38,69.55Z"/><path d="M65.41,70.85q0,.24-.39.24a.46.46,0,0,1-.51-.35s0-.26,0-.68a.55.55,0,0,0-.06-.28,3.49,3.49,0,0,1-2.11.72,3,3,0,0,1-1.53-.44A1.42,1.42,0,0,1,60,68.84c0-.48.34-1,1-1.4a3,3,0,0,1,1.68-.63h1.73a.53.53,0,0,0,.11-.37,6.48,6.48,0,0,0-.19-1.77,1.25,1.25,0,0,0-1.25-1,1.53,1.53,0,0,0-1.22.84A2.72,2.72,0,0,0,61.31,66v.2a.13.13,0,0,1-.14.14.57.57,0,0,1-.38-.21.59.59,0,0,1-.21-.37,3.67,3.67,0,0,1,.29-1.24,3.8,3.8,0,0,1,.65-1.12,1.4,1.4,0,0,1,1.09-.48,3,3,0,0,1,1.83.63,2.07,2.07,0,0,1,.91,1.65Zm-.93-2.78c0-.47-.36-.7-1.09-.7a3.52,3.52,0,0,0-1.5.29,1.24,1.24,0,0,0-.82,1.16.81.81,0,0,0,.43.73,1.58,1.58,0,0,0,.88.23,2.35,2.35,0,0,0,1.42-.49A1.47,1.47,0,0,0,64.48,68.07Z"/><path d="M77.73,67.65a2.55,2.55,0,0,1-.16.73,3.21,3.21,0,0,1-1.49,1.72,4.46,4.46,0,0,1-2.24.59A3.39,3.39,0,0,1,70.76,69a6.55,6.55,0,0,1-.88-3.55,11.16,11.16,0,0,1,.55-3.5,6.41,6.41,0,0,1,1.82-3,2.72,2.72,0,0,1,1.8-.78,2.14,2.14,0,0,1,2,1.29,5.41,5.41,0,0,1,.53,2.5,7.61,7.61,0,0,1-.23,1.7c-.2.84-.45,1.26-.77,1.26a.53.53,0,0,1-.52-.38l.33-.25a3.25,3.25,0,0,0,.45-2.13,5.32,5.32,0,0,0-.38-2Q75,59,74.12,59a2.07,2.07,0,0,0-1.43.83,6,6,0,0,0-1,1.41,10.58,10.58,0,0,0-.89,4.57,5.63,5.63,0,0,0,.63,2.87A2.64,2.64,0,0,0,73.91,70a3,3,0,0,0,1.66-.48,3.21,3.21,0,0,0,1.16-1.29,3.51,3.51,0,0,1,.3-.73.41.41,0,0,1,.35-.23C77.61,67.26,77.73,67.39,77.73,67.65Z"/><path d="M83.06,70.81a.7.7,0,0,1-.52.14.56.56,0,0,1-.4-.24v-2.4c0-3-.5-4.44-1.48-4.44a1.21,1.21,0,0,0-1,.73,2.58,2.58,0,0,0-.36,1.3.85.85,0,0,1,0,.21,1.78,1.78,0,0,0,0,.22v2.24a5.81,5.81,0,0,0,.09.86,5.73,5.73,0,0,1,.09.84c0,.19-.14.28-.42.28a.58.58,0,0,1-.5-.28,1,1,0,0,1-.2-.58l.1-10.78a.76.76,0,0,1,0-.21c0-.21.11-.31.35-.31a1.09,1.09,0,0,1,.51.24c.23.15.34.29.34.39a6.26,6.26,0,0,1-.16,1.21,6.58,6.58,0,0,0-.17,1.2s0,.8,0,2.33a1.87,1.87,0,0,1,1-.58,3.42,3.42,0,0,1,1.35.34c1,.42,1.52,1.52,1.52,3.32Z"/><path d="M88,64.11s0,.15,0,.3-.3.35-.44.35-.17-.06-.24-.18c0-.73-.34-1.1-.91-1.1q-.57,0-1.11,2.07a7.72,7.72,0,0,0-.21,2,12.21,12.21,0,0,0,.09,2l.09.21a1,1,0,0,1,.07.26c0,.26-.18.38-.53.38a.53.53,0,0,1-.59-.61,1,1,0,0,1,0-.25,1.14,1.14,0,0,0,0-.26q0-1-.09-2.88c-.06-1.29-.09-2.25-.09-2.89,0-.23,0-.38.12-.43a1,1,0,0,1,.48-.08c.29,0,.46.11.5.32s0,.46,0,.68c.3-.47.48-.73.52-.79a1.11,1.11,0,0,1,.81-.44,1.2,1.2,0,0,1,.63.2,2.31,2.31,0,0,1,.48.54A1.45,1.45,0,0,1,88,64.11Z"/><path d="M90.08,63.5a4.47,4.47,0,0,1-.15.94,4.54,4.54,0,0,0-.15,1v3.87a4.39,4.39,0,0,0,.18,1,.22.22,0,0,1-.19.14c-.58,0-.86-.28-.86-.83V63.2a.94.94,0,0,1,.44-.12.9.9,0,0,1,.43.12Q90.08,63.32,90.08,63.5Zm.33-2.63c0,.4-.18.6-.56.6a.89.89,0,0,1-.61-.25.71.71,0,0,1-.28-.56.53.53,0,0,1,.6-.59.84.84,0,0,1,.6.23A.72.72,0,0,1,90.41,60.87Z"/><path d="M96.1,69.32c0,.41-.31.76-.93,1a3.75,3.75,0,0,1-1.48.33,3.23,3.23,0,0,1-1.09-.23,5.29,5.29,0,0,1-1.07-.74c-.53-.43-.8-.73-.8-.9,0-.36.21-.53.65-.49h.1c0,.35.4.74,1.12,1.15a3.37,3.37,0,0,0,1.58.56c.51,0,.77-.17.77-.52s-.32-.51-1-.88a10.58,10.58,0,0,1-1.77-1.21,2.89,2.89,0,0,1-1-2.14,3.5,3.5,0,0,1,.47-1.74,1.6,1.6,0,0,1,1.37-1,2.72,2.72,0,0,1,1.43.55,2.09,2.09,0,0,1,1,1.11,3.74,3.74,0,0,1,.14,1.11,5.18,5.18,0,0,1-.24,1.48.56.56,0,0,1-.37.13,1.42,1.42,0,0,1-.38-.1c-.18-.06-.27-.13-.27-.2s.07-.08.2-.39a2.89,2.89,0,0,0,.14-1.08c0-1.25-.4-1.87-1.18-1.87-.4,0-.73.27-1,.82a3.1,3.1,0,0,0-.31,1.35,2.22,2.22,0,0,0,1,1.67c.22.18.83.59,1.83,1.21C95.77,68.77,96.1,69.09,96.1,69.32Z"/><path d="M99.88,64.83a1.55,1.55,0,0,1-.66.17,2.56,2.56,0,0,0-.67.13c0,.12,0,.77,0,1.94,0,.91,0,1.52,0,1.84a3.38,3.38,0,0,0,.09.61,4,4,0,0,1,.08.65.41.41,0,0,1-.17.28.55.55,0,0,1-.32.14c-.23,0-.42-.24-.56-.72a4,4,0,0,1-.14-1V65.23q-.1-.09-.78,0c-.37,0-.55-.09-.55-.4s.48-.65,1.42-.61l.23-3.17a.58.58,0,0,0-.05-.17.9.9,0,0,1,0-.16.29.29,0,0,1,.14-.21.45.45,0,0,1,.33-.07c.41,0,.62.24.62.61a11,11,0,0,1-.13,1.31,10.58,10.58,0,0,0-.12,1.3,1.75,1.75,0,0,0,0,.4l1,0c.32,0,.49.12.49.38A.52.52,0,0,1,99.88,64.83Z"/><path d="M102.24,63.5a4.47,4.47,0,0,1-.15.94,4.38,4.38,0,0,0-.14,1v3.87a4.28,4.28,0,0,0,.17,1,.22.22,0,0,1-.19.14.75.75,0,0,1-.86-.83V63.2a.94.94,0,0,1,.44-.12,1,1,0,0,1,.44.12C102.14,63.28,102.24,63.38,102.24,63.5Zm.34-2.63q0,.6-.57.6a.89.89,0,0,1-.61-.25.75.75,0,0,1-.28-.56.53.53,0,0,1,.6-.59.84.84,0,0,1,.6.23A.73.73,0,0,1,102.58,60.87Z"/><path d="M108.49,70.85c0,.16-.13.24-.38.24a.46.46,0,0,1-.51-.35,5.87,5.87,0,0,1,0-.68.7.7,0,0,0,0-.28,3.52,3.52,0,0,1-2.12.72,3,3,0,0,1-1.52-.44,1.42,1.42,0,0,1-.84-1.22c0-.48.33-1,1-1.4a3,3,0,0,1,1.68-.63h1.73a.53.53,0,0,0,.1-.37,6.11,6.11,0,0,0-.19-1.77,1.24,1.24,0,0,0-1.24-1,1.55,1.55,0,0,0-1.23.84,2.7,2.7,0,0,0-.5,1.47v.2a.13.13,0,0,1-.14.14.59.59,0,0,1-.39-.21.59.59,0,0,1-.21-.37,3.49,3.49,0,0,1,.3-1.24,3.59,3.59,0,0,1,.65-1.12,1.4,1.4,0,0,1,1.08-.48,3,3,0,0,1,1.84.63,2.1,2.1,0,0,1,.91,1.65Zm-.93-2.78c0-.47-.36-.7-1.08-.7a3.57,3.57,0,0,0-1.51.29,1.26,1.26,0,0,0-.82,1.16.81.81,0,0,0,.44.73,1.53,1.53,0,0,0,.87.23,2.38,2.38,0,0,0,1.43-.49A1.46,1.46,0,0,0,107.56,68.07Z"/><path d="M115.32,70.43a.31.31,0,0,1-.29.19,1.46,1.46,0,0,1-.59-.24V69.31q0-5.81-1.45-5.81c-.3,0-.62.22-1,.66a6.43,6.43,0,0,0-1.32,4.15,7.48,7.48,0,0,0,.09,1,6.42,6.42,0,0,1,.1,1q0,.27-.36.27c-.45,0-.67-.37-.67-1.11v-4c0-.1,0-.26,0-.45s0-.35,0-.46a5.25,5.25,0,0,0-.06-.66,5.46,5.46,0,0,1-.06-.65c0-.09.07-.2.22-.33a.62.62,0,0,1,.34-.18.53.53,0,0,1,.42.25c0,.75,0,1.2,0,1.33s0,.34,0,.5q.17,0,.42-.57a4,4,0,0,1,.56-.91,1.24,1.24,0,0,1,1-.49,2.1,2.1,0,0,1,.63.15,2.35,2.35,0,0,1,1.34,1.16,8.23,8.23,0,0,1,.69,3.66Z"/><path d="M124.61,70.81a.73.73,0,0,1-.53.14.56.56,0,0,1-.4-.24v-2.4c0-3-.49-4.44-1.48-4.44a1.2,1.2,0,0,0-1,.73,2.49,2.49,0,0,0-.37,1.3.73.73,0,0,1,0,.21,1,1,0,0,0,0,.22v2.24a5.81,5.81,0,0,0,.09.86,5.73,5.73,0,0,1,.09.84c0,.19-.14.28-.42.28a.58.58,0,0,1-.5-.28,1,1,0,0,1-.2-.58l.1-10.78a.76.76,0,0,1,0-.21c0-.21.12-.31.35-.31a1.07,1.07,0,0,1,.52.24c.22.15.34.29.34.39a6.44,6.44,0,0,1-.17,1.21,6.58,6.58,0,0,0-.17,1.2s0,.8,0,2.33a1.86,1.86,0,0,1,1-.58,3.42,3.42,0,0,1,1.34.34c1,.42,1.53,1.52,1.53,3.32Z"/><path d="M131.15,66.89a5.09,5.09,0,0,1-.66,2.63,2.44,2.44,0,0,1-2.19,1.35,2.34,2.34,0,0,1-2.12-1.11,4.48,4.48,0,0,1-.58-2.41,6.91,6.91,0,0,1,.67-2.92q.84-1.77,2.13-1.77a2.07,2.07,0,0,1,.95.38A4.18,4.18,0,0,1,131.15,66.89Zm-.84,0a6.35,6.35,0,0,0-.3-2c-.29-.82-.74-1.24-1.34-1.24s-1.25.46-1.65,1.38a5.86,5.86,0,0,0-.45,2.3,4.8,4.8,0,0,0,.31,1.85,1.5,1.5,0,0,0,1.42,1A1.71,1.71,0,0,0,129.89,69,5,5,0,0,0,130.31,66.88Z"/><path d="M133.46,70.17c0,.3-.16.45-.49.45-.51,0-.76-1.05-.75-3.17l.05-7.85a3.43,3.43,0,0,0-.05-.56,3.13,3.13,0,0,1-.05-.53,1,1,0,0,1,.56-.24.83.83,0,0,1,.49.17.52.52,0,0,1,.24.42,1.59,1.59,0,0,1-.09.46c-.07.23-.11.38-.12.43a20.41,20.41,0,0,0-.21,3.33c0,2.3,0,3.4,0,3.32a20,20,0,0,0,.28,3.24,1,1,0,0,0,.08.24A.67.67,0,0,1,133.46,70.17Z"/><path d="M135.74,63.5a4.47,4.47,0,0,1-.15.94,4.54,4.54,0,0,0-.15,1v3.87a4.39,4.39,0,0,0,.18,1,.23.23,0,0,1-.2.14.74.74,0,0,1-.85-.83V63.2a.9.9,0,0,1,.43-.12.94.94,0,0,1,.44.12Q135.74,63.32,135.74,63.5Zm.33-2.63c0,.4-.19.6-.56.6a.87.87,0,0,1-.61-.25.71.71,0,0,1-.28-.56.52.52,0,0,1,.59-.59.84.84,0,0,1,.61.23A.72.72,0,0,1,136.07,60.87Z"/><path d="M142.49,59.21a6.51,6.51,0,0,1-.1,1c-.08.55-.14.89-.16,1,0,.36-.09,1.57-.17,3.61-.07,1.87-.11,2.9-.11,3.1a7.47,7.47,0,0,0,.33,2.65.35.35,0,0,1-.31.19.71.71,0,0,1-.4-.17.89.89,0,0,1-.27-.35,7.9,7.9,0,0,0-.1-1.07,2.77,2.77,0,0,1-2,1.31,2,2,0,0,1-1.75-.86,3.25,3.25,0,0,1-.52-1.94,9.34,9.34,0,0,1,.54-3c.46-1.38,1.08-2.07,1.85-2.07a1.68,1.68,0,0,1,1,.37c.07.05.34.29.82.73a45.67,45.67,0,0,0,.18-5.23.45.45,0,0,1,.33-.12.82.82,0,0,1,.82.82Zm-1.31,6.48a2.79,2.79,0,0,0-.35-1.39,1.27,1.27,0,0,0-1.14-.73c-.58,0-1.05.59-1.4,1.78a8.58,8.58,0,0,0-.42,2.54,3.19,3.19,0,0,0,.25,1.33,1.07,1.07,0,0,0,1,.74c.72,0,1.27-.56,1.64-1.68A7.86,7.86,0,0,0,141.18,65.69Z"/><path d="M148.41,70.85q0,.24-.39.24a.46.46,0,0,1-.51-.35s0-.26,0-.68a.7.7,0,0,0-.05-.28,3.52,3.52,0,0,1-2.12.72,3,3,0,0,1-1.53-.44,1.43,1.43,0,0,1-.83-1.22,1.83,1.83,0,0,1,1-1.4,3,3,0,0,1,1.68-.63h1.74a.53.53,0,0,0,.1-.37,6.11,6.11,0,0,0-.19-1.77,1.25,1.25,0,0,0-1.24-1,1.53,1.53,0,0,0-1.23.84,2.72,2.72,0,0,0-.51,1.47v.2a.12.12,0,0,1-.14.14.79.79,0,0,1-.59-.58,3.49,3.49,0,0,1,.3-1.24,3.59,3.59,0,0,1,.64-1.12,1.42,1.42,0,0,1,1.09-.48,3,3,0,0,1,1.84.63,2.09,2.09,0,0,1,.9,1.65Zm-.93-2.78c0-.47-.36-.7-1.09-.7a3.52,3.52,0,0,0-1.5.29,1.24,1.24,0,0,0-.82,1.16.8.8,0,0,0,.44.73,1.53,1.53,0,0,0,.87.23,2.38,2.38,0,0,0,1.43-.49A1.46,1.46,0,0,0,147.48,68.07Z"/><path d="M155,63.48c-.1.51-.19,1-.28,1.54a7.83,7.83,0,0,0-.16,1.54V72a2.49,2.49,0,0,1-.71,1.86,2.61,2.61,0,0,1-1.9.69,3.55,3.55,0,0,1-1.45-.35,2.5,2.5,0,0,1-1.28-1,.61.61,0,0,1-.09-.31.44.44,0,0,1,.49-.51.43.43,0,0,1,.23.07l.6.61a2.12,2.12,0,0,0,1.5.54,1.53,1.53,0,0,0,1.54-.8,5.08,5.08,0,0,0,.23-1.84c0-.12,0-.35-.07-.7a3,3,0,0,1,0-.77,4.79,4.79,0,0,1-.7.58,1.53,1.53,0,0,1-.84.24,2,2,0,0,1-1.8-.92,3.61,3.61,0,0,1-.54-2c0-1.58,0-2.91.07-4a.56.56,0,0,1,.61-.56c.44,0,.64.07.6.23a14.58,14.58,0,0,0-.34,4.07c0,1.64.47,2.45,1.4,2.45.56,0,1-.43,1.35-1.31a5.46,5.46,0,0,0,.37-2v-2c0-.2,0-.45,0-.75s.21-.45.57-.42S155,63.26,155,63.48Z"/><path d="M157.38,70q0,.25-.33.42a1,1,0,0,1-.54.14.77.77,0,0,1-.53-.21.64.64,0,0,1-.22-.49.53.53,0,0,1,.61-.59,1.34,1.34,0,0,1,.68.2A.6.6,0,0,1,157.38,70Z"/><path d="M30.71,75.42c0,.29-.1.44-.3.44a1.85,1.85,0,0,0-.39-.19,3.58,3.58,0,0,0-1.35-.14h-.79c-.28,0-.46,0-.53.13a1.43,1.43,0,0,0-.17.59c0,.31-.1.77-.2,1.38a46.75,46.75,0,0,0-.33,5.72,6.33,6.33,0,0,0,.49,3c0,.17-.06.25-.18.25q-.91,0-1.17-1a9,9,0,0,1-.1-1.75c0-1.31,0-2.29.08-3,0-.31.08-1,.2-2.2.09-.93.14-1.66.14-2.21s0-.83,0-.49c0-.17-.08-.26-.22-.26a5.4,5.4,0,0,0-.94.12A5.4,5.4,0,0,1,24,76a.87.87,0,0,1-.91-.56c.12-.19,1-.39,2.61-.59,1.36-.15,2.34-.23,3-.23C30,74.58,30.71,74.86,30.71,75.42Z"/><path d="M36.31,86.81a.72.72,0,0,1-.53.14.58.58,0,0,1-.4-.24v-2.4c0-3-.49-4.44-1.48-4.44a1.21,1.21,0,0,0-1,.73,2.59,2.59,0,0,0-.37,1.3.73.73,0,0,1,0,.21.85.85,0,0,0,0,.22v2.24a7.15,7.15,0,0,0,.08.86,5.73,5.73,0,0,1,.09.84c0,.19-.14.28-.42.28a.6.6,0,0,1-.5-.28,1,1,0,0,1-.2-.58l.11-10.78a.52.52,0,0,1,0-.21c0-.21.12-.31.35-.31a1.07,1.07,0,0,1,.52.24c.23.15.34.29.34.39a6.44,6.44,0,0,1-.17,1.21,6.37,6.37,0,0,0-.16,1.2s0,.8,0,2.33a1.89,1.89,0,0,1,1-.58,3.5,3.5,0,0,1,1.35.34c1,.42,1.52,1.52,1.52,3.32Z"/><path d="M42.43,84.61c0,.51-.34,1-1,1.38a3.44,3.44,0,0,1-1.75.56q-2.34,0-2.34-3a9.24,9.24,0,0,1,.47-2.82c.42-1.31,1-2,1.61-2a3,3,0,0,1,1.84.85,2.32,2.32,0,0,1,1,1.69,2.51,2.51,0,0,1-.87,1.89,2.86,2.86,0,0,1-2,.8,1.41,1.41,0,0,1-.44-.17,1.35,1.35,0,0,0-.47-.18c-.15,0-.23,0-.23.14,0,1.34.45,2,1.33,2a2,2,0,0,0,1.26-.45,4.15,4.15,0,0,0,.77-.82c.23-.3.37-.44.44-.44C42.3,84.12,42.43,84.28,42.43,84.61Zm-1.2-3.22a2.1,2.1,0,0,0-.35-1.15,1.09,1.09,0,0,0-.93-.53,1.3,1.3,0,0,0-1.14.87,3.45,3.45,0,0,0-.37,1.53,1.15,1.15,0,0,0,.33.84,1.08,1.08,0,0,0,.83.35,1.45,1.45,0,0,0,1.19-.62A2,2,0,0,0,41.23,81.39Z"/><path d="M48.56,79.48c-.1.51-.19,1-.27,1.54a7.88,7.88,0,0,0-.17,1.54V88a2.49,2.49,0,0,1-.71,1.86,2.59,2.59,0,0,1-1.9.69,3.59,3.59,0,0,1-1.45-.35,2.55,2.55,0,0,1-1.28-1A.71.71,0,0,1,42.7,89c0-.34.16-.51.49-.51a.4.4,0,0,1,.22.07l.6.61a2.16,2.16,0,0,0,1.5.54,1.52,1.52,0,0,0,1.54-.8A4.87,4.87,0,0,0,47.28,87a5.76,5.76,0,0,0-.07-.7,2.94,2.94,0,0,1,0-.77,5.41,5.41,0,0,1-.7.58,1.57,1.57,0,0,1-.84.24,2,2,0,0,1-1.81-.92,3.61,3.61,0,0,1-.54-2c0-1.58,0-2.91.07-4a.56.56,0,0,1,.61-.56c.45,0,.65.07.6.23a15.14,15.14,0,0,0-.33,4.07c0,1.64.46,2.45,1.39,2.45.57,0,1-.43,1.36-1.31a5.65,5.65,0,0,0,.36-2v-2c0-.2,0-.45,0-.75s.2-.45.56-.42S48.58,79.26,48.56,79.48Z"/><path d="M58.53,86.85c0,.16-.12.24-.38.24a.46.46,0,0,1-.51-.35,5.87,5.87,0,0,1,0-.68.56.56,0,0,0,0-.28,3.5,3.5,0,0,1-2.12.72,3,3,0,0,1-1.52-.44,1.42,1.42,0,0,1-.84-1.22c0-.48.33-1,1-1.4a3,3,0,0,1,1.68-.63H57.5a.53.53,0,0,0,.11-.37,6,6,0,0,0-.2-1.77,1.24,1.24,0,0,0-1.24-1,1.53,1.53,0,0,0-1.22.84A2.72,2.72,0,0,0,54.44,82v.2a.13.13,0,0,1-.14.14.59.59,0,0,1-.39-.21.59.59,0,0,1-.21-.37A3.49,3.49,0,0,1,54,80.5a3.8,3.8,0,0,1,.65-1.12,1.4,1.4,0,0,1,1.08-.48,3,3,0,0,1,1.84.63,2.07,2.07,0,0,1,.91,1.65Zm-.92-2.78c0-.47-.37-.7-1.09-.7a3.52,3.52,0,0,0-1.5.29,1.25,1.25,0,0,0-.83,1.16.81.81,0,0,0,.44.73,1.58,1.58,0,0,0,.88.23,2.35,2.35,0,0,0,1.42-.49A1.47,1.47,0,0,0,57.61,84.07Z"/><path d="M63.66,80.11a2.12,2.12,0,0,1,0,.3c-.15.23-.29.35-.43.35a.29.29,0,0,1-.25-.18c0-.73-.34-1.1-.91-1.1-.37,0-.74.69-1.1,2.07a7.72,7.72,0,0,0-.21,2,12.21,12.21,0,0,0,.09,2l.08.21A.72.72,0,0,1,61,86c0,.26-.17.38-.52.38a.53.53,0,0,1-.6-.61,1.08,1.08,0,0,1,0-.25,1,1,0,0,0,0-.26q0-1-.09-2.88c0-1.29-.08-2.25-.08-2.89,0-.23,0-.38.12-.43a1,1,0,0,1,.47-.08c.29,0,.46.11.51.32l0,.68c.31-.47.48-.73.53-.79a1.09,1.09,0,0,1,.8-.44,1.2,1.2,0,0,1,.63.2,2.08,2.08,0,0,1,.49.54A1.39,1.39,0,0,1,63.66,80.11Z"/><path d="M69.1,84.61c0,.51-.34,1-1,1.38a3.44,3.44,0,0,1-1.75.56q-2.34,0-2.34-3a9.24,9.24,0,0,1,.47-2.82c.42-1.31,1-2,1.61-2a3,3,0,0,1,1.84.85,2.32,2.32,0,0,1,1,1.69A2.51,2.51,0,0,1,68,83.23a2.88,2.88,0,0,1-2,.8,1.53,1.53,0,0,1-.45-.17,1.26,1.26,0,0,0-.46-.18c-.15,0-.23,0-.23.14,0,1.34.45,2,1.33,2a2,2,0,0,0,1.26-.45,4.15,4.15,0,0,0,.77-.82c.22-.3.37-.44.44-.44C69,84.12,69.1,84.28,69.1,84.61Zm-1.2-3.22a2.1,2.1,0,0,0-.35-1.15,1.09,1.09,0,0,0-.93-.53,1.3,1.3,0,0,0-1.14.87,3.45,3.45,0,0,0-.37,1.53,1.15,1.15,0,0,0,.33.84,1.08,1.08,0,0,0,.83.35,1.45,1.45,0,0,0,1.19-.62A2,2,0,0,0,67.9,81.39Z"/><path d="M79.13,86.43a.31.31,0,0,1-.28.19,1.41,1.41,0,0,1-.59-.24V85.31c0-3.87-.49-5.81-1.45-5.81a1.4,1.4,0,0,0-1,.66,6.43,6.43,0,0,0-1.32,4.15,6.3,6.3,0,0,0,.1,1,7.64,7.64,0,0,1,.09,1c0,.18-.12.27-.35.27-.45,0-.68-.37-.68-1.11v-4c0-.1,0-.26,0-.45s0-.35,0-.46a5.72,5.72,0,0,0-.07-.66,5.46,5.46,0,0,1-.06-.65c0-.09.08-.2.22-.33a.65.65,0,0,1,.34-.18.52.52,0,0,1,.42.25c0,.75,0,1.2,0,1.33s0,.34,0,.5q.15,0,.42-.57a4,4,0,0,1,.56-.91,1.23,1.23,0,0,1,1-.49,2.1,2.1,0,0,1,.63.15,2.37,2.37,0,0,1,1.35,1.16,8.39,8.39,0,0,1,.68,3.66Z"/><path d="M85.55,82.89a5.09,5.09,0,0,1-.66,2.63,2.44,2.44,0,0,1-2.19,1.35,2.35,2.35,0,0,1-2.12-1.11A4.48,4.48,0,0,1,80,83.35a6.9,6.9,0,0,1,.66-2.92c.56-1.18,1.27-1.77,2.14-1.77a2.08,2.08,0,0,1,.94.38A4.18,4.18,0,0,1,85.55,82.89Zm-.84,0a6.66,6.66,0,0,0-.29-2c-.3-.82-.74-1.24-1.35-1.24s-1.25.46-1.65,1.38A5.86,5.86,0,0,0,81,83.3a4.8,4.8,0,0,0,.31,1.85,1.5,1.5,0,0,0,1.42,1A1.71,1.71,0,0,0,84.29,85,5,5,0,0,0,84.71,82.88Z"/><path d="M89.37,80.83a1.61,1.61,0,0,1-.67.17,2.55,2.55,0,0,0-.66.13c0,.12,0,.77,0,1.94,0,.91,0,1.52,0,1.84a4.21,4.21,0,0,0,.08.61,3.28,3.28,0,0,1,.09.65.41.41,0,0,1-.17.28.58.58,0,0,1-.32.14c-.23,0-.42-.24-.56-.72a4,4,0,0,1-.14-1V81.23q-.11-.09-.78,0c-.37,0-.55-.09-.55-.4s.47-.65,1.42-.61l.23-3.17a.58.58,0,0,0,0-.17.45.45,0,0,1,0-.16.26.26,0,0,1,.14-.21.45.45,0,0,1,.33-.07c.41,0,.61.24.61.61a10.54,10.54,0,0,1-.12,1.31,10.58,10.58,0,0,0-.12,1.3,2.6,2.6,0,0,0,0,.4l1,0c.32,0,.49.12.49.38A.52.52,0,0,1,89.37,80.83Z"/><path d="M98.05,80.11s0,.15,0,.3-.3.35-.44.35-.17-.06-.24-.18c0-.73-.34-1.1-.91-1.1-.38,0-.74.69-1.1,2.07a7.72,7.72,0,0,0-.21,2,12.74,12.74,0,0,0,.08,2l.09.21a.72.72,0,0,1,.07.26c0,.26-.17.38-.52.38a.53.53,0,0,1-.6-.61,1,1,0,0,1,0-.25,1.14,1.14,0,0,0,0-.26q0-1-.09-2.88c-.06-1.29-.09-2.25-.09-2.89,0-.23,0-.38.13-.43a1,1,0,0,1,.47-.08c.29,0,.46.11.51.32l0,.68c.3-.47.48-.73.53-.79a1.08,1.08,0,0,1,.8-.44,1.2,1.2,0,0,1,.63.2,1.93,1.93,0,0,1,.48.54A1.34,1.34,0,0,1,98.05,80.11Z"/><path d="M103.49,84.61c0,.51-.34,1-1,1.38a3.44,3.44,0,0,1-1.75.56c-1.57,0-2.35-1-2.35-3a9.27,9.27,0,0,1,.48-2.82c.42-1.31,1-2,1.6-2a2.91,2.91,0,0,1,1.84.85,2.3,2.3,0,0,1,1,1.69,2.51,2.51,0,0,1-.87,1.89,2.9,2.9,0,0,1-2,.8,1.53,1.53,0,0,1-.45-.17,1.33,1.33,0,0,0-.46-.18c-.15,0-.23,0-.23.14,0,1.34.44,2,1.33,2a2,2,0,0,0,1.26-.45,4.46,4.46,0,0,0,.77-.82c.22-.3.37-.44.44-.44C103.36,84.12,103.49,84.28,103.49,84.61Zm-1.21-3.22a2,2,0,0,0-.35-1.15,1.06,1.06,0,0,0-.92-.53,1.3,1.3,0,0,0-1.14.87,3.32,3.32,0,0,0-.37,1.53,1.19,1.19,0,0,0,.32.84,1.12,1.12,0,0,0,.84.35,1.44,1.44,0,0,0,1.18-.62A2,2,0,0,0,102.28,81.39Z"/><path d="M105.57,86.17c0,.3-.16.45-.49.45-.51,0-.76-1.05-.75-3.17l0-7.85a3.43,3.43,0,0,0,0-.56,4.72,4.72,0,0,1,0-.53,1,1,0,0,1,.56-.24.83.83,0,0,1,.49.17.52.52,0,0,1,.24.42,1.59,1.59,0,0,1-.09.46c-.06.23-.11.38-.12.43a20.41,20.41,0,0,0-.21,3.33c0,2.3,0,3.4,0,3.32a18.73,18.73,0,0,0,.29,3.24.84.84,0,0,0,.07.24A.67.67,0,0,1,105.57,86.17Z"/><path d="M111.75,86.85c0,.16-.13.24-.38.24a.46.46,0,0,1-.51-.35,5.87,5.87,0,0,1,0-.68.7.7,0,0,0,0-.28,3.52,3.52,0,0,1-2.12.72,3,3,0,0,1-1.52-.44,1.42,1.42,0,0,1-.84-1.22,1.83,1.83,0,0,1,1-1.4,3,3,0,0,1,1.69-.63h1.73a.53.53,0,0,0,.1-.37,6.11,6.11,0,0,0-.19-1.77,1.24,1.24,0,0,0-1.24-1,1.55,1.55,0,0,0-1.23.84,2.7,2.7,0,0,0-.5,1.47v.2c0,.09,0,.14-.15.14a.79.79,0,0,1-.59-.58,3.49,3.49,0,0,1,.3-1.24,3.59,3.59,0,0,1,.65-1.12A1.4,1.4,0,0,1,109,78.9a3,3,0,0,1,1.84.63,2.1,2.1,0,0,1,.91,1.65Zm-.93-2.78c0-.47-.36-.7-1.08-.7a3.57,3.57,0,0,0-1.51.29,1.24,1.24,0,0,0-.82,1.16.81.81,0,0,0,.44.73,1.53,1.53,0,0,0,.87.23,2.38,2.38,0,0,0,1.43-.49A1.46,1.46,0,0,0,110.82,84.07Z"/><path d="M116,80.83a1.61,1.61,0,0,1-.67.17,2.55,2.55,0,0,0-.66.13c0,.12,0,.77,0,1.94,0,.91,0,1.52,0,1.84a3.13,3.13,0,0,0,.08.61,3.28,3.28,0,0,1,.09.65.41.41,0,0,1-.17.28.58.58,0,0,1-.32.14c-.23,0-.42-.24-.56-.72a4,4,0,0,1-.14-1V81.23q-.11-.09-.78,0c-.37,0-.55-.09-.55-.4s.47-.65,1.42-.61l.23-3.17a.58.58,0,0,0,0-.17.45.45,0,0,1,0-.16.26.26,0,0,1,.14-.21.45.45,0,0,1,.33-.07c.41,0,.61.24.61.61a10.54,10.54,0,0,1-.12,1.31,10.58,10.58,0,0,0-.12,1.3,2.6,2.6,0,0,0,0,.4l1,0c.32,0,.49.12.49.38A.52.52,0,0,1,116,80.83Z"/><path d="M121.55,84.61c0,.51-.34,1-1,1.38a3.44,3.44,0,0,1-1.75.56c-1.57,0-2.35-1-2.35-3a9.27,9.27,0,0,1,.48-2.82c.42-1.31.95-2,1.61-2a2.91,2.91,0,0,1,1.83.85,2.3,2.3,0,0,1,1,1.69,2.51,2.51,0,0,1-.87,1.89,2.9,2.9,0,0,1-2,.8,1.53,1.53,0,0,1-.45-.17,1.33,1.33,0,0,0-.46-.18c-.15,0-.23,0-.23.14,0,1.34.44,2,1.33,2a2,2,0,0,0,1.26-.45,4.46,4.46,0,0,0,.77-.82c.22-.3.37-.44.44-.44C121.42,84.12,121.55,84.28,121.55,84.61Zm-1.21-3.22a2,2,0,0,0-.35-1.15,1.06,1.06,0,0,0-.92-.53,1.3,1.3,0,0,0-1.14.87,3.32,3.32,0,0,0-.37,1.53,1.19,1.19,0,0,0,.32.84,1.12,1.12,0,0,0,.84.35,1.47,1.47,0,0,0,1.19-.62A2,2,0,0,0,120.34,81.39Z"/><path d="M127.89,75.21a6.7,6.7,0,0,1-.11,1c-.08.55-.13.89-.16,1,0,.36-.09,1.57-.17,3.61-.07,1.87-.11,2.9-.11,3.1a7.19,7.19,0,0,0,.34,2.65.37.37,0,0,1-.32.19.66.66,0,0,1-.39-.17.74.74,0,0,1-.27-.35,8.31,8.31,0,0,0-.11-1.07,2.77,2.77,0,0,1-2,1.31,2,2,0,0,1-1.75-.86,3.25,3.25,0,0,1-.52-1.94,9.34,9.34,0,0,1,.54-3q.7-2.07,1.86-2.07a1.67,1.67,0,0,1,1,.37c.07,0,.35.29.83.73a49.28,49.28,0,0,0,.17-5.23.45.45,0,0,1,.33-.12.8.8,0,0,1,.58.24A.83.83,0,0,1,127.89,75.21Zm-1.32,6.48a2.69,2.69,0,0,0-.35-1.39,1.27,1.27,0,0,0-1.13-.73c-.59,0-1,.59-1.4,1.78a8.58,8.58,0,0,0-.42,2.54,3.36,3.36,0,0,0,.24,1.33,1.07,1.07,0,0,0,1,.74c.72,0,1.27-.56,1.64-1.68A7.86,7.86,0,0,0,126.57,81.69Z"/><path d="M136.11,80.83a1.56,1.56,0,0,1-.67.17,2.55,2.55,0,0,0-.66.13c0,.12,0,.77,0,1.94,0,.91,0,1.52,0,1.84a4.21,4.21,0,0,0,.08.61,3.28,3.28,0,0,1,.09.65.41.41,0,0,1-.17.28.55.55,0,0,1-.32.14c-.23,0-.42-.24-.56-.72a4,4,0,0,1-.14-1V81.23q-.1-.09-.78,0c-.37,0-.55-.09-.55-.4s.48-.65,1.42-.61l.23-3.17a.58.58,0,0,0,0-.17.45.45,0,0,1,0-.16.29.29,0,0,1,.14-.21.45.45,0,0,1,.33-.07c.41,0,.61.24.61.61a10.54,10.54,0,0,1-.12,1.31,10.58,10.58,0,0,0-.12,1.3,2.6,2.6,0,0,0,0,.4l1,0c.32,0,.49.12.49.38A.52.52,0,0,1,136.11,80.83Z"/><path d="M142.2,82.89a5,5,0,0,1-.67,2.63,2.42,2.42,0,0,1-2.18,1.35,2.34,2.34,0,0,1-2.12-1.11,4.39,4.39,0,0,1-.58-2.41,6.77,6.77,0,0,1,.67-2.92q.84-1.77,2.13-1.77a2.11,2.11,0,0,1,1,.38A4.18,4.18,0,0,1,142.2,82.89Zm-.84,0a6.35,6.35,0,0,0-.3-2c-.29-.82-.74-1.24-1.35-1.24s-1.24.46-1.64,1.38a5.87,5.87,0,0,0-.46,2.3,4.79,4.79,0,0,0,.32,1.85,1.49,1.49,0,0,0,1.42,1A1.71,1.71,0,0,0,140.94,85,5,5,0,0,0,141.36,82.88Z"/><path d="M60.9,99.61c0,.51-.34,1-1,1.38a3.44,3.44,0,0,1-1.75.56c-1.57,0-2.35-1-2.35-3a9.27,9.27,0,0,1,.48-2.82c.42-1.31,1-2,1.61-2a2.91,2.91,0,0,1,1.83.85,2.3,2.3,0,0,1,1,1.69,2.51,2.51,0,0,1-.87,1.89,2.9,2.9,0,0,1-2,.8,1.53,1.53,0,0,1-.45-.17,1.26,1.26,0,0,0-.46-.18c-.15,0-.23,0-.23.14,0,1.34.44,2,1.33,2a2,2,0,0,0,1.26-.45,4.46,4.46,0,0,0,.77-.82c.22-.3.37-.44.44-.44C60.77,99.12,60.9,99.28,60.9,99.61Zm-1.21-3.22a2,2,0,0,0-.35-1.15,1.06,1.06,0,0,0-.92-.53,1.3,1.3,0,0,0-1.14.87,3.32,3.32,0,0,0-.37,1.53,1.19,1.19,0,0,0,.32.84,1.12,1.12,0,0,0,.84.35,1.47,1.47,0,0,0,1.19-.62A2,2,0,0,0,59.69,96.39Z"/><path d="M67,101.85c0,.16-.13.24-.38.24a.46.46,0,0,1-.51-.35,5.87,5.87,0,0,1,0-.68.7.7,0,0,0,0-.28,3.5,3.5,0,0,1-2.12.72,3,3,0,0,1-1.52-.44,1.42,1.42,0,0,1-.84-1.22c0-.48.33-1,1-1.4a3,3,0,0,1,1.68-.63H66a.53.53,0,0,0,.1-.37,6.11,6.11,0,0,0-.19-1.77,1.24,1.24,0,0,0-1.24-1,1.56,1.56,0,0,0-1.23.84A2.78,2.78,0,0,0,62.9,97v.2a.13.13,0,0,1-.14.14.59.59,0,0,1-.39-.21.59.59,0,0,1-.21-.37,3.49,3.49,0,0,1,.3-1.24,3.59,3.59,0,0,1,.65-1.12,1.4,1.4,0,0,1,1.08-.48,3,3,0,0,1,1.84.63,2.1,2.1,0,0,1,.91,1.65Zm-.93-2.78c0-.47-.36-.7-1.08-.7a3.6,3.6,0,0,0-1.51.29,1.26,1.26,0,0,0-.82,1.16.81.81,0,0,0,.44.73,1.55,1.55,0,0,0,.87.23,2.36,2.36,0,0,0,1.43-.49A1.46,1.46,0,0,0,66.06,99.07Z"/><path d="M73.54,99.52q0,.44-.72,1.14a3.07,3.07,0,0,1-1.17.84,3.48,3.48,0,0,1-1,.19,2.29,2.29,0,0,1-2-.93A3.42,3.42,0,0,1,68,98.62a9.15,9.15,0,0,1,.58-3c.48-1.38,1.07-2.07,1.78-2.07a2.89,2.89,0,0,1,1.35.49c.56.34.88.66,1,1a4.94,4.94,0,0,1,.12,1.07c0,1.28-.19,1.92-.58,1.92a.71.71,0,0,1-.33-.1.3.3,0,0,1-.19-.25.32.32,0,0,1,.07-.18l.08-.15a4.46,4.46,0,0,0,.07-1c0-1.3-.29-1.94-.87-1.94s-1.17.59-1.58,1.77A8.31,8.31,0,0,0,69,98.67a3.65,3.65,0,0,0,.3,1.58,1.31,1.31,0,0,0,1.24.83,2.1,2.1,0,0,0,1.19-.53,3.39,3.39,0,0,0,.91-1c0-.11.12-.28.21-.49a.29.29,0,0,1,.24-.12c.07,0,.16.07.26.23A.8.8,0,0,1,73.54,99.52Z"/><path d="M79.14,101.81a.73.73,0,0,1-.53.14.56.56,0,0,1-.4-.24v-2.4c0-3-.49-4.44-1.48-4.44a1.2,1.2,0,0,0-1,.73,2.49,2.49,0,0,0-.37,1.3.73.73,0,0,1,0,.21,1,1,0,0,0,0,.22v2.24a5.81,5.81,0,0,0,.09.86,5.73,5.73,0,0,1,.09.84c0,.19-.14.28-.42.28a.58.58,0,0,1-.5-.28,1,1,0,0,1-.2-.58l.1-10.78a.76.76,0,0,1,0-.21c0-.21.12-.31.35-.31a1,1,0,0,1,.51.24c.23.15.35.29.35.39a6.44,6.44,0,0,1-.17,1.21,6.58,6.58,0,0,0-.17,1.2s0,.8,0,2.33a1.86,1.86,0,0,1,1-.58,3.42,3.42,0,0,1,1.34.34c1,.42,1.53,1.52,1.53,3.32Z"/><path d="M89.37,97.89a5.09,5.09,0,0,1-.66,2.63,2.44,2.44,0,0,1-2.19,1.35,2.35,2.35,0,0,1-2.12-1.11,4.48,4.48,0,0,1-.57-2.41,6.9,6.9,0,0,1,.66-2.92c.56-1.18,1.27-1.77,2.14-1.77a2.08,2.08,0,0,1,.94.38A4.18,4.18,0,0,1,89.37,97.89Zm-.84,0a6.66,6.66,0,0,0-.29-2c-.3-.82-.74-1.24-1.35-1.24s-1.25.46-1.65,1.38a5.86,5.86,0,0,0-.45,2.3,4.8,4.8,0,0,0,.31,1.85,1.5,1.5,0,0,0,1.42,1A1.71,1.71,0,0,0,88.11,100,5,5,0,0,0,88.53,97.88Z"/><path d="M93.19,95.83a1.66,1.66,0,0,1-.67.17,2.55,2.55,0,0,0-.66.13c0,.12,0,.77,0,1.94,0,.91,0,1.52,0,1.84a3.13,3.13,0,0,0,.08.61,3.28,3.28,0,0,1,.09.65.41.41,0,0,1-.17.28.58.58,0,0,1-.32.14c-.23,0-.42-.24-.56-.72a4,4,0,0,1-.14-1V96.23q-.1-.09-.78,0c-.37,0-.55-.09-.55-.4s.47-.65,1.42-.61l.23-3.17a.58.58,0,0,0-.05-.17.45.45,0,0,1,0-.16.26.26,0,0,1,.14-.21.45.45,0,0,1,.33-.07c.41,0,.61.24.61.61a10.54,10.54,0,0,1-.12,1.31,10.58,10.58,0,0,0-.12,1.3,2.6,2.6,0,0,0,0,.4l1,0c.32,0,.49.12.49.38A.52.52,0,0,1,93.19,95.83Z"/><path d="M98.74,101.81a.73.73,0,0,1-.53.14.56.56,0,0,1-.4-.24v-2.4c0-3-.49-4.44-1.48-4.44a1.19,1.19,0,0,0-1,.73,2.49,2.49,0,0,0-.37,1.3.73.73,0,0,1,0,.21,1,1,0,0,0,0,.22v2.24a5.81,5.81,0,0,0,.09.86,5.73,5.73,0,0,1,.09.84c0,.19-.14.28-.42.28a.58.58,0,0,1-.5-.28,1,1,0,0,1-.2-.58L94,89.91a.76.76,0,0,1,0-.21c0-.21.12-.31.35-.31a1,1,0,0,1,.51.24c.23.15.35.29.35.39A6.44,6.44,0,0,1,95,91.23a6.58,6.58,0,0,0-.17,1.2s0,.8,0,2.33a1.86,1.86,0,0,1,1-.58,3.42,3.42,0,0,1,1.34.34c1,.42,1.53,1.52,1.53,3.32Z"/><path d="M104.86,99.61c0,.51-.34,1-1,1.38a3.44,3.44,0,0,1-1.75.56c-1.57,0-2.35-1-2.35-3a9.27,9.27,0,0,1,.48-2.82c.42-1.31,1-2,1.61-2a2.91,2.91,0,0,1,1.83.85,2.3,2.3,0,0,1,1,1.69,2.51,2.51,0,0,1-.87,1.89,2.9,2.9,0,0,1-2,.8,1.53,1.53,0,0,1-.45-.17,1.26,1.26,0,0,0-.46-.18c-.15,0-.23,0-.23.14,0,1.34.44,2,1.33,2a2,2,0,0,0,1.26-.45,4.46,4.46,0,0,0,.77-.82c.22-.3.37-.44.44-.44C104.73,99.12,104.86,99.28,104.86,99.61Zm-1.21-3.22a2,2,0,0,0-.35-1.15,1.06,1.06,0,0,0-.92-.53,1.3,1.3,0,0,0-1.14.87,3.32,3.32,0,0,0-.37,1.53,1.19,1.19,0,0,0,.32.84,1.12,1.12,0,0,0,.84.35,1.47,1.47,0,0,0,1.19-.62A2,2,0,0,0,103.65,96.39Z"/><path d="M109.53,95.11s0,.15,0,.3-.3.35-.44.35a.31.31,0,0,1-.25-.18c0-.73-.33-1.1-.91-1.1-.37,0-.74.69-1.1,2.07a7.72,7.72,0,0,0-.21,2,12.21,12.21,0,0,0,.09,2l.09.21a1,1,0,0,1,.07.26c0,.26-.18.38-.53.38s-.59-.2-.59-.61a1,1,0,0,1,0-.25,1,1,0,0,0,0-.26c0-.64,0-1.6-.08-2.88s-.09-2.25-.09-2.89c0-.23,0-.38.12-.43a1,1,0,0,1,.47-.08c.3,0,.46.11.51.32s0,.46,0,.68c.3-.47.47-.73.52-.79a1.11,1.11,0,0,1,.81-.44,1.2,1.2,0,0,1,.63.2,2.31,2.31,0,0,1,.48.54A1.39,1.39,0,0,1,109.53,95.11Z"/><path d="M112,101q0,.25-.33.42a1.1,1.1,0,0,1-.55.14.75.75,0,0,1-.52-.21.65.65,0,0,1-.23-.49.53.53,0,0,1,.61-.59,1.37,1.37,0,0,1,.69.2A.6.6,0,0,1,112,101Z"/></g></g></g></svg>