<svg xmlns="http://www.w3.org/2000/svg" viewBox="0 0 135.17 115.9"><defs><style>.cls-1{fill:#fff;}.cls-2{fill:none;stroke:#e586a3;stroke-miterlimit:10;stroke-width:2.04px;}</style></defs><title>10</title><g id="Layer_2" data-name="Layer 2"><g id="Facts"><g id="_10" data-name="10"><path class="cls-1" d="M134.16,58c0,2.18-2.58,4.16-2.87,6.28S133,69,132.39,71s-3.58,3.31-4.42,5.3.38,5-.7,6.86-4.3,2.3-5.6,4-.81,4.93-2.3,6.51S114.66,95,113,96.41s-2.22,4.92-4.21,6.26-5.26.45-7.38,1.58-3.22,4.32-5.45,5.22-5.24-.64-7.55,0-4,3.59-6.38,4-5-1.65-7.42-1.43-4.61,2.77-7,2.77-4.68-2.55-7-2.77-5.1,1.86-7.41,1.43-4.12-3.38-6.38-4-5.36.85-7.55,0-3.37-4.12-5.45-5.22-5.43-.26-7.38-1.58S24,97.94,22.17,96.41s-4.89-1.12-6.36-2.67-1-4.8-2.31-6.51S9,85.05,7.9,83.2s.14-4.89-.7-6.86S3.36,73.12,2.78,71s1.39-4.67,1.1-6.81S1,60.13,1,58s2.58-4.17,2.86-6.28-1.66-4.74-1.1-6.81,3.59-3.32,4.42-5.3-.38-5,.7-6.86,4.3-2.31,5.6-4,.82-4.92,2.31-6.5,4.71-1.27,6.36-2.67,2.22-4.92,4.22-6.26,5.25-.46,7.38-1.58S37,7.33,39.22,6.43s5.24.64,7.55,0,4-3.59,6.38-4,5,1.65,7.41,1.42S65.18,1,67.59,1s4.68,2.55,7,2.76S79.71,1.92,82,2.36s4.11,3.38,6.38,4,5.36-.85,7.54,0,3.37,4.12,5.46,5.22,5.42.26,7.38,1.58S111.21,18,113,19.49s4.9,1.12,6.37,2.67,1,4.79,2.3,6.5,4.53,2.18,5.6,4-.14,4.88.7,6.86,3.85,3.22,4.42,5.3-1.39,4.66-1.1,6.81S134.16,55.77,134.16,58Z"/><path class="cls-2" d="M134.16,58c0,2.18-2.58,4.16-2.87,6.28S133,69,132.39,71s-3.58,3.31-4.42,5.3.38,5-.7,6.86-4.3,2.3-5.6,4-.81,4.93-2.3,6.51S114.66,95,113,96.41s-2.22,4.92-4.21,6.26-5.26.45-7.38,1.58-3.22,4.32-5.45,5.22-5.24-.64-7.55,0-4,3.59-6.38,4-5-1.65-7.42-1.43-4.61,2.77-7,2.77-4.68-2.55-7-2.77-5.1,1.86-7.41,1.43-4.12-3.38-6.38-4-5.36.85-7.55,0-3.37-4.12-5.45-5.22-5.43-.26-7.38-1.58S24,97.94,22.17,96.41s-4.89-1.12-6.36-2.67-1-4.8-2.31-6.51S9,85.05,7.9,83.2s.14-4.89-.7-6.86S3.36,73.12,2.78,71s1.39-4.67,1.1-6.81S1,60.13,1,58s2.58-4.17,2.86-6.28-1.66-4.74-1.1-6.81,3.59-3.32,4.42-5.3-.38-5,.7-6.86,4.3-2.31,5.6-4,.82-4.92,2.31-6.5,4.71-1.27,6.36-2.67,2.22-4.92,4.22-6.26,5.25-.46,7.38-1.58S37,7.33,39.22,6.43s5.24.64,7.55,0,4-3.59,6.38-4,5,1.65,7.41,1.42S65.18,1,67.59,1s4.68,2.55,7,2.76S79.71,1.92,82,2.36s4.11,3.38,6.38,4,5.36-.85,7.54,0,3.37,4.12,5.46,5.22,5.42.26,7.38,1.58S111.21,18,113,19.49s4.9,1.12,6.37,2.67,1,4.79,2.3,6.5,4.53,2.18,5.6,4-.14,4.88.7,6.86,3.85,3.22,4.42,5.3-1.39,4.66-1.1,6.81S134.16,55.77,134.16,58Z"/><path d="M44.91,31.29v.07a.29.29,0,0,1-.26.15c-.14,0-.23,0-.27-.07-.08-.41-.76-1.07-2-2a6.17,6.17,0,0,0-2.59-1.34h-.85v.93A6.6,6.6,0,0,0,39,30a3.19,3.19,0,0,0,.15.82,2.12,2.12,0,0,0,.26.38c0,.23-.13.34-.39.34a.76.76,0,0,1-.66-.31,9.37,9.37,0,0,1-.22-2.94c0-.14-.18-.27-.53-.38s-.52-.24-.52-.39.32-.42,1-.6a9.63,9.63,0,0,0,.13-1.44c0-.75.07-1.23.09-1.45s.06-.41.14-.9a4.21,4.21,0,0,0,.09-.92,1.09,1.09,0,0,0-.4,0c-.22,0-.32-.09-.32-.26a.36.36,0,0,1,.3-.39l.43-.12a1,1,0,0,1,.2-.33A.75.75,0,0,1,39,21a.47.47,0,0,1,.33.16.51.51,0,0,0,.31.17l.21,0,.21,0a5.34,5.34,0,0,1,2.81.69,2.58,2.58,0,0,1,1.39,2.37,2.93,2.93,0,0,1-.76,2.1,7.6,7.6,0,0,1-1.86,1.28.74.74,0,0,0-.21.07,11.56,11.56,0,0,0,1.35,1,11,11,0,0,1,1.5,1.12A1.89,1.89,0,0,1,44.91,31.29Zm-1.46-7a1.92,1.92,0,0,0-1-1.75A4,4,0,0,0,40.36,22a3.59,3.59,0,0,0-.72.06l-.2.3a2.06,2.06,0,0,0-.23.91c0,.55,0,.88-.06,1A17.22,17.22,0,0,0,38.91,27a5.8,5.8,0,0,0,1.37.42,2.22,2.22,0,0,0,.6-.12,3.74,3.74,0,0,0,1.79-1.09A2.7,2.7,0,0,0,43.45,24.28Z"/><path d="M49.65,29.88c0,.44-.3.83-.89,1.18a2.92,2.92,0,0,1-1.5.48q-2,0-2-2.55a8.07,8.07,0,0,1,.41-2.41Q46.2,24.9,47,24.9a2.53,2.53,0,0,1,1.57.72,2,2,0,0,1,.86,1.45,2.14,2.14,0,0,1-.75,1.62,2.45,2.45,0,0,1-1.7.69,1.14,1.14,0,0,1-.38-.15,1.18,1.18,0,0,0-.4-.15c-.13,0-.19,0-.19.12,0,1.15.38,1.73,1.14,1.73a1.71,1.71,0,0,0,1.08-.39,3.59,3.59,0,0,0,.66-.71c.19-.25.31-.37.37-.37C49.53,29.46,49.65,29.6,49.65,29.88Zm-1-2.76a1.79,1.79,0,0,0-.3-1,.91.91,0,0,0-.79-.45,1.12,1.12,0,0,0-1,.75,2.86,2.86,0,0,0-.31,1.3,1,1,0,0,0,.28.73.94.94,0,0,0,.71.29,1.23,1.23,0,0,0,1-.52A1.75,1.75,0,0,0,48.61,27.12Z"/><path d="M54.69,30.49c0,.35-.27.65-.8.89a3.18,3.18,0,0,1-1.27.28,2.52,2.52,0,0,1-.93-.2,4.67,4.67,0,0,1-.92-.63c-.46-.37-.69-.63-.69-.77,0-.31.19-.45.56-.42h.09c0,.3.34.63,1,1a3,3,0,0,0,1.35.49q.66,0,.66-.45c0-.18-.27-.44-.81-.76a8.81,8.81,0,0,1-1.52-1A2.5,2.5,0,0,1,50.55,27a3,3,0,0,1,.4-1.49,1.35,1.35,0,0,1,1.17-.84,2.41,2.41,0,0,1,1.23.47,1.82,1.82,0,0,1,.84,1,3.3,3.3,0,0,1,.12.94,4.43,4.43,0,0,1-.21,1.28.48.48,0,0,1-.31.1,1.25,1.25,0,0,1-.33-.08c-.15-.06-.23-.11-.23-.17s.06-.07.17-.33a2.45,2.45,0,0,0,.12-.93c0-1.07-.34-1.61-1-1.61-.35,0-.63.24-.84.71a2.66,2.66,0,0,0-.27,1.16,1.9,1.9,0,0,0,.86,1.42,17.45,17.45,0,0,0,1.57,1C54.4,30,54.69,30.29,54.69,30.49Z"/><path d="M59.59,29.88c0,.44-.29.83-.88,1.18a2.92,2.92,0,0,1-1.5.48q-2,0-2-2.55a8,8,0,0,1,.4-2.41Q56.14,24.9,57,24.9a2.56,2.56,0,0,1,1.58.72,2,2,0,0,1,.85,1.45,2.14,2.14,0,0,1-.75,1.62,2.43,2.43,0,0,1-1.69.69,1.24,1.24,0,0,1-.39-.15,1.09,1.09,0,0,0-.39-.15c-.13,0-.2,0-.2.12,0,1.15.38,1.73,1.14,1.73a1.71,1.71,0,0,0,1.08-.39,3.59,3.59,0,0,0,.66-.71c.19-.25.32-.37.38-.37C59.48,29.46,59.59,29.6,59.59,29.88Zm-1-2.76a1.79,1.79,0,0,0-.3-1,.92.92,0,0,0-.8-.45c-.4,0-.72.25-1,.75a2.87,2.87,0,0,0-.32,1.3,1,1,0,0,0,.28.73.94.94,0,0,0,.71.29,1.23,1.23,0,0,0,1-.52A1.76,1.76,0,0,0,58.56,27.12Z"/><path d="M64.81,31.8q0,.21-.33.21a.39.39,0,0,1-.43-.3,4.53,4.53,0,0,1,0-.59.55.55,0,0,0,0-.24,3,3,0,0,1-1.82.62,2.51,2.51,0,0,1-1.3-.38,1.22,1.22,0,0,1-.72-1.05c0-.41.28-.81.85-1.2a2.59,2.59,0,0,1,1.44-.54h1.49A.43.43,0,0,0,64,28a5.24,5.24,0,0,0-.17-1.52,1.05,1.05,0,0,0-1.06-.85,1.32,1.32,0,0,0-1,.72,2.31,2.31,0,0,0-.44,1.26v.16a.11.11,0,0,1-.12.12.5.5,0,0,1-.33-.18.48.48,0,0,1-.18-.31,3,3,0,0,1,.26-1.06,3.18,3.18,0,0,1,.55-1,1.21,1.21,0,0,1,.93-.4,2.58,2.58,0,0,1,1.58.54,1.77,1.77,0,0,1,.78,1.41ZM64,29.41q0-.6-.93-.6a3.06,3.06,0,0,0-1.29.26,1.06,1.06,0,0,0-.71,1,.7.7,0,0,0,.38.63,1.39,1.39,0,0,0,.75.19,2,2,0,0,0,1.22-.42A1.27,1.27,0,0,0,64,29.41Z"/><path d="M69.21,26s0,.13,0,.26-.25.3-.37.3a.25.25,0,0,1-.21-.15c0-.63-.29-.95-.78-.95-.32,0-.64.59-1,1.77A6.68,6.68,0,0,0,66.7,29a10.32,10.32,0,0,0,.08,1.69l.07.19a.61.61,0,0,1,.06.22q0,.33-.45.33a.46.46,0,0,1-.51-.53.79.79,0,0,1,0-.22,1.23,1.23,0,0,0,0-.21c0-.55,0-1.38-.08-2.48s-.07-1.92-.07-2.47c0-.2,0-.33.1-.37a.79.79,0,0,1,.41-.07c.25,0,.39.09.43.27l0,.59c.26-.4.41-.63.45-.68a.92.92,0,0,1,.69-.37,1,1,0,0,1,.54.16,1.72,1.72,0,0,1,.41.47A1.19,1.19,0,0,1,69.21,26Z"/><path d="M74.31,29.8c0,.25-.21.57-.62,1a2.74,2.74,0,0,1-1,.72,3,3,0,0,1-.87.16,1.94,1.94,0,0,1-1.68-.8A2.93,2.93,0,0,1,69.6,29a7.93,7.93,0,0,1,.49-2.58c.41-1.19.92-1.78,1.53-1.78a2.45,2.45,0,0,1,1.16.43c.48.28.75.56.81.82a4.09,4.09,0,0,1,.1.91c0,1.1-.16,1.65-.49,1.65a.64.64,0,0,1-.29-.09c-.11-.06-.16-.13-.16-.21a.35.35,0,0,1,.06-.16l.07-.12a4,4,0,0,0,.06-.9c0-1.11-.25-1.67-.75-1.67s-1,.51-1.35,1.52a7,7,0,0,0-.39,2.23,3.15,3.15,0,0,0,.26,1.35,1.12,1.12,0,0,0,1.06.71,1.74,1.74,0,0,0,1-.46,2.94,2.94,0,0,0,.78-.86l.18-.42a.25.25,0,0,1,.21-.11c.06,0,.13.07.22.21A.7.7,0,0,1,74.31,29.8Z"/><path d="M79.11,31.77a.64.64,0,0,1-.45.12.5.5,0,0,1-.35-.21V29.62c0-2.54-.42-3.81-1.27-3.81a1,1,0,0,0-.89.63,2.17,2.17,0,0,0-.31,1.11,1.3,1.3,0,0,1,0,.19.58.58,0,0,0,0,.19v1.92a5.26,5.26,0,0,0,.08.73,5,5,0,0,1,.07.72q0,.24-.36.24a.52.52,0,0,1-.43-.24.86.86,0,0,1-.17-.49L75,21.57a.57.57,0,0,1,0-.18q0-.27.3-.27a.84.84,0,0,1,.44.2c.2.14.3.25.3.34a5.21,5.21,0,0,1-.15,1,5.81,5.81,0,0,0-.14,1s0,.69,0,2a1.56,1.56,0,0,1,.86-.49,3,3,0,0,1,1.15.28c.87.36,1.31,1.31,1.31,2.85Z"/><path d="M87.18,31.77a.64.64,0,0,1-.45.12.5.5,0,0,1-.35-.21V29.62c0-2.54-.42-3.81-1.27-3.81a1,1,0,0,0-.89.63,2.17,2.17,0,0,0-.31,1.11,1.3,1.3,0,0,1,0,.19.58.58,0,0,0,0,.19v1.92a5.26,5.26,0,0,0,.08.73,5,5,0,0,1,.07.72q0,.24-.36.24a.52.52,0,0,1-.43-.24.86.86,0,0,1-.17-.49l.09-9.24a.57.57,0,0,1,0-.18q0-.27.3-.27a.84.84,0,0,1,.44.2c.2.14.3.25.3.34a5.21,5.21,0,0,1-.15,1,5.81,5.81,0,0,0-.14,1s0,.69,0,2a1.56,1.56,0,0,1,.86-.49,3,3,0,0,1,1.15.28c.87.36,1.31,1.31,1.31,2.85Z"/><path d="M92.61,31.8q0,.21-.33.21a.4.4,0,0,1-.44-.3s0-.23,0-.59a.54.54,0,0,0,0-.24A3,3,0,0,1,90,31.5a2.54,2.54,0,0,1-1.31-.38,1.22,1.22,0,0,1-.72-1.05c0-.41.29-.81.86-1.2a2.59,2.59,0,0,1,1.44-.54h1.48a.43.43,0,0,0,.09-.31,5.31,5.31,0,0,0-.16-1.52,1.06,1.06,0,0,0-1.07-.85,1.32,1.32,0,0,0-1,.72,2.3,2.3,0,0,0-.43,1.26v.16a.11.11,0,0,1-.12.12.5.5,0,0,1-.33-.18.48.48,0,0,1-.18-.31,3,3,0,0,1,.25-1.06,3.18,3.18,0,0,1,.56-1,1.21,1.21,0,0,1,.93-.4,2.55,2.55,0,0,1,1.57.54,1.77,1.77,0,0,1,.78,1.41Zm-.8-2.39q0-.6-.93-.6a3.06,3.06,0,0,0-1.29.26,1.05,1.05,0,0,0-.7,1,.7.7,0,0,0,.37.63,1.39,1.39,0,0,0,.75.19,2,2,0,0,0,1.22-.42A1.25,1.25,0,0,0,91.81,29.41Z"/><path d="M98,30.49c0,.35-.26.65-.79.89a3.22,3.22,0,0,1-1.28.28,2.52,2.52,0,0,1-.93-.2,4.69,4.69,0,0,1-.91-.63c-.46-.37-.69-.63-.69-.77,0-.31.18-.45.55-.42H94c0,.3.34.63,1,1a3,3,0,0,0,1.35.49q.66,0,.66-.45c0-.18-.27-.44-.81-.76a8.62,8.62,0,0,1-1.51-1A2.52,2.52,0,0,1,93.82,27a3,3,0,0,1,.41-1.49,1.35,1.35,0,0,1,1.17-.84,2.41,2.41,0,0,1,1.23.47,1.82,1.82,0,0,1,.84,1,3.3,3.3,0,0,1,.12.94,4.43,4.43,0,0,1-.21,1.28.51.51,0,0,1-.32.1,1.25,1.25,0,0,1-.33-.08c-.15-.06-.22-.11-.22-.17s0-.07.16-.33a2.45,2.45,0,0,0,.12-.93c0-1.07-.33-1.61-1-1.61-.35,0-.63.24-.84.71a2.66,2.66,0,0,0-.27,1.16,1.88,1.88,0,0,0,.85,1.42,18.28,18.28,0,0,0,1.58,1C97.68,30,98,30.29,98,30.49Z"/><path d="M34.41,42.69A6.28,6.28,0,0,1,34,45.18a1.94,1.94,0,0,1-1.85,1.39,1.8,1.8,0,0,1-1.44-.76c-.07,0-.1.34-.1.93a13.48,13.48,0,0,0,.19,2.76,2.3,2.3,0,0,0,.15.36,1.5,1.5,0,0,1,.12.34q0,.24-.3.24a.89.89,0,0,1-.5-.1,1.31,1.31,0,0,1-.25-.69,4.63,4.63,0,0,1-.09-.78V45.06q0-.53.06-1.41T30,42.24q0-.41,0-1.05V40.12c0-.69.18-1,.54-1,.18,0,.27.06.27.19s0,.62-.06,1.1-.06.84-.06,1.08h.06l.69-1a1.23,1.23,0,0,1,1-.52,1.63,1.63,0,0,1,1.51.9A3.53,3.53,0,0,1,34.41,42.69Zm-.75.06a5,5,0,0,0-.16-1.37c-.17-.56-.45-.84-.83-.84s-.62.25-1,.74a4,4,0,0,0-.73,1.32,7.89,7.89,0,0,0-.27,1.5q-.06.72-.06.69s0,.08.13.15l.18.13.49.7a.85.85,0,0,0,.74.35c.54,0,1-.45,1.23-1.35A6.72,6.72,0,0,0,33.66,42.75Z"/><path d="M38.49,41s0,.13,0,.26-.26.3-.38.3a.25.25,0,0,1-.21-.15c0-.63-.29-1-.78-1-.32,0-.63.59-.94,1.77A6.68,6.68,0,0,0,36,44a10.86,10.86,0,0,0,.07,1.69l.08.19a.61.61,0,0,1,.06.22q0,.33-.45.33a.46.46,0,0,1-.51-.53.79.79,0,0,1,0-.22,1,1,0,0,0,0-.21c0-.55,0-1.38-.07-2.48s-.08-1.92-.08-2.47c0-.2,0-.33.11-.37a.74.74,0,0,1,.4-.07c.25,0,.4.09.44.27l0,.59c.26-.4.41-.63.45-.68a.92.92,0,0,1,.69-.37,1,1,0,0,1,.54.16,1.72,1.72,0,0,1,.41.47A1.13,1.13,0,0,1,38.49,41Z"/><path d="M43.4,43.41a4.32,4.32,0,0,1-.57,2.25A2.08,2.08,0,0,1,41,46.81a2,2,0,0,1-1.81-.94,3.82,3.82,0,0,1-.5-2.07,5.92,5.92,0,0,1,.57-2.51c.48-1,1.09-1.51,1.83-1.51a1.74,1.74,0,0,1,.81.33A3.58,3.58,0,0,1,43.4,43.41Zm-.72,0a5.4,5.4,0,0,0-.26-1.72c-.25-.71-.63-1.07-1.15-1.07s-1.07.4-1.41,1.19a4.93,4.93,0,0,0-.39,2,4.13,4.13,0,0,0,.27,1.59,1.28,1.28,0,0,0,1.21.89,1.48,1.48,0,0,0,1.37-1A4.38,4.38,0,0,0,42.68,43.39Z"/><path d="M48.45,40.39A11.28,11.28,0,0,1,47.91,44c-.45,1.68-.92,2.52-1.42,2.52s-1.15-.64-1.65-1.91a15.5,15.5,0,0,1-.78-2.73,7.66,7.66,0,0,1-.15-1.54A.34.34,0,0,1,44,40a.32.32,0,0,1,.24-.13,1.05,1.05,0,0,1,.54.3,2.22,2.22,0,0,0-.06.51,8.46,8.46,0,0,0,.36,2.21A12.8,12.8,0,0,0,45.9,45q.26.51.42.51c.39,0,.73-.79,1-2.36a17.51,17.51,0,0,0,.33-3c0-.06,0-.12.15-.19a.42.42,0,0,1,.24-.11Q48.44,39.91,48.45,40.39Z"/><path d="M53.24,44.88c0,.44-.3.83-.89,1.18a2.92,2.92,0,0,1-1.5.48q-2,0-2-2.55a8.07,8.07,0,0,1,.41-2.41q.54-1.68,1.38-1.68a2.53,2.53,0,0,1,1.57.72,2,2,0,0,1,.86,1.45,2.14,2.14,0,0,1-.75,1.62,2.45,2.45,0,0,1-1.7.69,1.22,1.22,0,0,1-.38-.15,1.11,1.11,0,0,0-.4-.15c-.13,0-.19,0-.19.12,0,1.15.38,1.73,1.14,1.73a1.71,1.71,0,0,0,1.08-.39,3.59,3.59,0,0,0,.66-.71c.19-.25.31-.37.37-.37C53.12,44.46,53.24,44.6,53.24,44.88Zm-1-2.76a1.79,1.79,0,0,0-.3-1,.91.91,0,0,0-.79-.45,1.12,1.12,0,0,0-1,.75,2.86,2.86,0,0,0-.31,1.3,1,1,0,0,0,.28.73.94.94,0,0,0,.71.29,1.23,1.23,0,0,0,1-.52A1.75,1.75,0,0,0,52.2,42.12Z"/><path d="M58.67,46.44a.26.26,0,0,1-.24.16,1.21,1.21,0,0,1-.51-.21v-.91q0-5-1.24-5-.39,0-.84.57a5.51,5.51,0,0,0-1.13,3.55,6.76,6.76,0,0,0,.08.83,5.42,5.42,0,0,1,.08.84c0,.15-.1.22-.3.22-.39,0-.58-.31-.58-.94V42.16c0-.09,0-.22,0-.39s0-.3,0-.39a5.49,5.49,0,0,0-.05-.57,3.85,3.85,0,0,1-.06-.55A.44.44,0,0,1,54.1,40a.53.53,0,0,1,.29-.16.46.46,0,0,1,.36.21c0,.65,0,1,0,1.14s0,.3,0,.44c.09,0,.21-.2.36-.5a3.62,3.62,0,0,1,.48-.78,1.08,1.08,0,0,1,.83-.42,1.77,1.77,0,0,1,.54.14,2,2,0,0,1,1.15,1,7.1,7.1,0,0,1,.59,3.13Z"/><path d="M65.72,41.64a1.45,1.45,0,0,1-.57.15,2.53,2.53,0,0,0-.57.1c0,.11,0,.67,0,1.67,0,.78,0,1.3,0,1.57a3.08,3.08,0,0,0,.08.53,2.81,2.81,0,0,1,.07.55.33.33,0,0,1-.15.24.45.45,0,0,1-.27.12c-.2,0-.36-.2-.48-.61a3.36,3.36,0,0,1-.12-.86V42s-.28,0-.67,0-.47-.07-.47-.34.41-.56,1.22-.53L64,38.4a.64.64,0,0,0,0-.15.33.33,0,0,1,0-.14.21.21,0,0,1,.12-.17.38.38,0,0,1,.28-.07c.35,0,.53.21.53.53a9.07,9.07,0,0,1-.11,1.12,8.65,8.65,0,0,0-.1,1.11,2,2,0,0,0,0,.35l.82,0q.42,0,.42.33A.44.44,0,0,1,65.72,41.64Z"/><path d="M70.47,46.77a.64.64,0,0,1-.45.12.48.48,0,0,1-.34-.21V44.62c0-2.54-.42-3.81-1.27-3.81a1,1,0,0,0-.89.63,2.18,2.18,0,0,0-.32,1.11,1,1,0,0,1,0,.19.58.58,0,0,0,0,.19v1.92a4.94,4.94,0,0,0,.07.73,5.31,5.31,0,0,1,.08.72q0,.24-.36.24a.52.52,0,0,1-.43-.24.86.86,0,0,1-.17-.49l.09-9.24a.57.57,0,0,1,0-.18q0-.27.3-.27a.84.84,0,0,1,.44.2c.2.14.29.25.29.34a5,5,0,0,1-.14,1,5.81,5.81,0,0,0-.14,1s0,.69,0,2a1.55,1.55,0,0,1,.85-.49,3.07,3.07,0,0,1,1.16.28c.87.36,1.3,1.31,1.3,2.85Z"/><path d="M75.9,46.8q0,.21-.33.21a.39.39,0,0,1-.43-.3,4.53,4.53,0,0,1,0-.59.55.55,0,0,0,0-.24,3,3,0,0,1-1.81.62A2.51,2.51,0,0,1,72,46.12a1.22,1.22,0,0,1-.72-1c0-.41.28-.81.86-1.2a2.53,2.53,0,0,1,1.43-.54H75a.43.43,0,0,0,.09-.31,5.24,5.24,0,0,0-.17-1.52,1,1,0,0,0-1.06-.85,1.32,1.32,0,0,0-1,.72,2.31,2.31,0,0,0-.44,1.26v.16a.11.11,0,0,1-.12.12.5.5,0,0,1-.33-.18.46.46,0,0,1-.17-.31A3,3,0,0,1,72,41.36a3.18,3.18,0,0,1,.55-1,1.21,1.21,0,0,1,.93-.4,2.58,2.58,0,0,1,1.58.54,1.77,1.77,0,0,1,.78,1.41Zm-.79-2.39q0-.6-.93-.6a3.06,3.06,0,0,0-1.29.26,1.06,1.06,0,0,0-.71,1,.7.7,0,0,0,.38.63,1.39,1.39,0,0,0,.75.19,2,2,0,0,0,1.22-.42A1.25,1.25,0,0,0,75.11,44.41Z"/><path d="M79.52,41.64a1.45,1.45,0,0,1-.57.15,2.53,2.53,0,0,0-.57.1c0,.11,0,.67,0,1.67,0,.78,0,1.3,0,1.57a3.08,3.08,0,0,0,.08.53,2.81,2.81,0,0,1,.07.55.33.33,0,0,1-.15.24.45.45,0,0,1-.27.12c-.2,0-.36-.2-.48-.61a3.36,3.36,0,0,1-.12-.86V42s-.28,0-.67,0-.47-.07-.47-.34.41-.56,1.22-.53l.19-2.71a.64.64,0,0,0,0-.15.33.33,0,0,1,0-.14.21.21,0,0,1,.12-.17.38.38,0,0,1,.28-.07c.35,0,.53.21.53.53a9.07,9.07,0,0,1-.11,1.12,8.65,8.65,0,0,0-.1,1.11,2,2,0,0,0,0,.35l.82,0q.42,0,.42.33A.44.44,0,0,1,79.52,41.64Z"/><path d="M86.76,41.64a1.45,1.45,0,0,1-.57.15,2.53,2.53,0,0,0-.57.1c0,.11,0,.67,0,1.67,0,.78,0,1.3,0,1.57a2.83,2.83,0,0,0,.07.53,3,3,0,0,1,.08.55.33.33,0,0,1-.15.24.45.45,0,0,1-.27.12c-.2,0-.36-.2-.48-.61a3.36,3.36,0,0,1-.12-.86V42c-.06,0-.28,0-.67,0s-.47-.07-.47-.34.4-.56,1.21-.53L85,38.4a.41.41,0,0,0,0-.15.63.63,0,0,1,0-.14.21.21,0,0,1,.12-.17.41.41,0,0,1,.29-.07.49.49,0,0,1,.52.53,8.63,8.63,0,0,1-.1,1.12,9.13,9.13,0,0,0-.11,1.11,2,2,0,0,0,0,.35l.83,0q.42,0,.42.33A.44.44,0,0,1,86.76,41.64Z"/><path d="M91.52,46.77a.64.64,0,0,1-.45.12.51.51,0,0,1-.35-.21V44.62q0-3.81-1.26-3.81a1,1,0,0,0-.9.63,2.17,2.17,0,0,0-.31,1.11.63.63,0,0,1,0,.19.89.89,0,0,0,0,.19v1.92a4.94,4.94,0,0,0,.07.73,5.31,5.31,0,0,1,.08.72q0,.24-.36.24a.51.51,0,0,1-.43-.24.8.8,0,0,1-.18-.49l.1-9.24a.38.38,0,0,1,0-.18c0-.18.09-.27.29-.27a.9.9,0,0,1,.45.2c.19.14.29.25.29.34a5.86,5.86,0,0,1-.14,1,5,5,0,0,0-.14,1s0,.69,0,2a1.52,1.52,0,0,1,.85-.49,3.07,3.07,0,0,1,1.16.28c.87.36,1.3,1.31,1.3,2.85Z"/><path d="M96.77,44.88c0,.44-.3.83-.88,1.18a3,3,0,0,1-1.5.48q-2,0-2-2.55a8,8,0,0,1,.4-2.41q.54-1.68,1.38-1.68a2.56,2.56,0,0,1,1.58.72,2,2,0,0,1,.85,1.45,2.14,2.14,0,0,1-.75,1.62,2.43,2.43,0,0,1-1.7.69,1.32,1.32,0,0,1-.38-.15,1.16,1.16,0,0,0-.39-.15c-.13,0-.2,0-.2.12,0,1.15.38,1.73,1.14,1.73a1.71,1.71,0,0,0,1.08-.39,3.59,3.59,0,0,0,.66-.71c.19-.25.32-.37.38-.37C96.66,44.46,96.77,44.6,96.77,44.88Zm-1-2.76a1.73,1.73,0,0,0-.31-1,.91.91,0,0,0-.79-.45c-.4,0-.72.25-1,.75a2.87,2.87,0,0,0-.32,1.3,1,1,0,0,0,.28.73.94.94,0,0,0,.71.29,1.23,1.23,0,0,0,1-.52A1.76,1.76,0,0,0,95.74,42.12Z"/><path d="M100.78,41s0,.13,0,.26-.25.3-.37.3a.25.25,0,0,1-.21-.15c0-.63-.29-1-.78-1-.32,0-.64.59-1,1.77A6.68,6.68,0,0,0,98.27,44a10.32,10.32,0,0,0,.08,1.69l.07.19a.61.61,0,0,1,.06.22q0,.33-.45.33a.46.46,0,0,1-.51-.53.79.79,0,0,1,0-.22,1.23,1.23,0,0,0,0-.21c0-.55,0-1.38-.08-2.48s-.07-1.92-.07-2.47c0-.2,0-.33.1-.37a.79.79,0,0,1,.41-.07c.25,0,.39.09.43.27l0,.59c.26-.4.41-.63.45-.68a.92.92,0,0,1,.69-.37,1,1,0,0,1,.54.16,1.72,1.72,0,0,1,.41.47A1.19,1.19,0,0,1,100.78,41Z"/><path d="M105.44,44.88c0,.44-.3.83-.88,1.18a3,3,0,0,1-1.5.48q-2,0-2-2.55a8,8,0,0,1,.4-2.41q.54-1.68,1.38-1.68a2.56,2.56,0,0,1,1.58.72,2,2,0,0,1,.85,1.45,2.14,2.14,0,0,1-.75,1.62,2.43,2.43,0,0,1-1.7.69,1.32,1.32,0,0,1-.38-.15,1.16,1.16,0,0,0-.39-.15c-.13,0-.2,0-.2.12,0,1.15.38,1.73,1.14,1.73a1.71,1.71,0,0,0,1.08-.39,3.59,3.59,0,0,0,.66-.71c.19-.25.32-.37.38-.37C105.33,44.46,105.44,44.6,105.44,44.88Zm-1-2.76a1.73,1.73,0,0,0-.31-1,.91.91,0,0,0-.79-.45c-.4,0-.72.25-1,.75a2.87,2.87,0,0,0-.32,1.3,1,1,0,0,0,.28.73.94.94,0,0,0,.71.29,1.23,1.23,0,0,0,1-.52A1.76,1.76,0,0,0,104.41,42.12Z"/><path d="M32.6,61.8q0,.21-.33.21a.4.4,0,0,1-.44-.3s0-.23,0-.59a.54.54,0,0,0-.05-.24A3,3,0,0,1,30,61.5a2.54,2.54,0,0,1-1.31-.38,1.22,1.22,0,0,1-.72-1c0-.41.29-.81.86-1.2a2.59,2.59,0,0,1,1.44-.54h1.48A.43.43,0,0,0,31.8,58a5.31,5.31,0,0,0-.16-1.52,1.06,1.06,0,0,0-1.07-.85,1.32,1.32,0,0,0-1.05.72,2.3,2.3,0,0,0-.43,1.26v.16a.11.11,0,0,1-.12.12.5.5,0,0,1-.33-.18.48.48,0,0,1-.18-.31,3,3,0,0,1,.25-1.06,3.18,3.18,0,0,1,.56-1,1.21,1.21,0,0,1,.93-.4,2.55,2.55,0,0,1,1.57.54,1.77,1.77,0,0,1,.78,1.41Zm-.8-2.39q0-.6-.93-.6a3.06,3.06,0,0,0-1.29.26,1.05,1.05,0,0,0-.7,1,.7.7,0,0,0,.37.63,1.39,1.39,0,0,0,.75.19,2.08,2.08,0,0,0,1.23-.42A1.26,1.26,0,0,0,31.8,59.41Z"/><path d="M37,56s0,.13,0,.26-.26.3-.38.3a.25.25,0,0,1-.21-.15c0-.63-.29-1-.78-1-.32,0-.63.59-.94,1.77A6.68,6.68,0,0,0,34.49,59a10.86,10.86,0,0,0,.07,1.69l.08.19a.61.61,0,0,1,.06.22q0,.33-.45.33a.46.46,0,0,1-.51-.53.79.79,0,0,1,0-.22,1,1,0,0,0,0-.21c0-.55,0-1.38-.07-2.48s-.08-1.92-.08-2.47c0-.2,0-.33.11-.37a.74.74,0,0,1,.4-.07c.25,0,.4.09.44.27l0,.59c.26-.4.41-.63.45-.68a.92.92,0,0,1,.69-.37,1,1,0,0,1,.54.16,1.72,1.72,0,0,1,.41.47A1.13,1.13,0,0,1,37,56Z"/><path d="M41.66,59.88c0,.44-.3.83-.89,1.18a2.92,2.92,0,0,1-1.5.48q-2,0-2-2.55a8.07,8.07,0,0,1,.41-2.41q.54-1.68,1.38-1.68a2.53,2.53,0,0,1,1.57.72,2,2,0,0,1,.86,1.45,2.14,2.14,0,0,1-.75,1.62,2.45,2.45,0,0,1-1.7.69,1.22,1.22,0,0,1-.38-.15,1.11,1.11,0,0,0-.4-.15c-.13,0-.19,0-.19.12,0,1.15.38,1.73,1.14,1.73a1.71,1.71,0,0,0,1.08-.39,3.59,3.59,0,0,0,.66-.71c.19-.25.31-.37.37-.37C41.54,59.46,41.66,59.6,41.66,59.88Zm-1-2.76a1.79,1.79,0,0,0-.3-1,.91.91,0,0,0-.79-.45,1.12,1.12,0,0,0-1,.75,2.86,2.86,0,0,0-.31,1.3,1,1,0,0,0,.28.73.94.94,0,0,0,.71.29,1.23,1.23,0,0,0,1-.52A1.75,1.75,0,0,0,40.62,57.12Z"/><path d="M50.16,61.8q0,.21-.33.21a.39.39,0,0,1-.43-.3,4.53,4.53,0,0,1,0-.59.55.55,0,0,0,0-.24,3,3,0,0,1-1.82.62,2.51,2.51,0,0,1-1.3-.38,1.22,1.22,0,0,1-.72-1c0-.41.28-.81.85-1.2a2.59,2.59,0,0,1,1.44-.54h1.49a.43.43,0,0,0,.09-.31,5.24,5.24,0,0,0-.17-1.52,1.05,1.05,0,0,0-1.06-.85,1.32,1.32,0,0,0-1,.72,2.31,2.31,0,0,0-.44,1.26v.16a.11.11,0,0,1-.12.12.5.5,0,0,1-.33-.18.48.48,0,0,1-.18-.31,3,3,0,0,1,.26-1.06,3.18,3.18,0,0,1,.55-1,1.21,1.21,0,0,1,.93-.4,2.58,2.58,0,0,1,1.58.54,1.77,1.77,0,0,1,.78,1.41Zm-.79-2.39q0-.6-.93-.6a3.06,3.06,0,0,0-1.29.26,1.06,1.06,0,0,0-.71,1,.7.7,0,0,0,.38.63,1.39,1.39,0,0,0,.75.19,2,2,0,0,0,1.22-.42A1.25,1.25,0,0,0,49.37,59.41Z"/><path d="M55.77,59.8c0,.25-.2.57-.61,1a2.76,2.76,0,0,1-1,.72,3,3,0,0,1-.87.16,1.94,1.94,0,0,1-1.68-.8A2.93,2.93,0,0,1,51.06,59a8,8,0,0,1,.5-2.58c.41-1.19.92-1.78,1.53-1.78a2.42,2.42,0,0,1,1.15.43c.48.28.75.56.81.82a4.11,4.11,0,0,1,.11.91c0,1.1-.17,1.65-.5,1.65a.6.6,0,0,1-.28-.09c-.11-.06-.17-.13-.17-.21a.35.35,0,0,1,.06-.16l.08-.12a4,4,0,0,0,.06-.9c0-1.11-.25-1.67-.75-1.67s-1,.51-1.35,1.52a7,7,0,0,0-.39,2.23,3.16,3.16,0,0,0,.25,1.35,1.14,1.14,0,0,0,1.07.71,1.74,1.74,0,0,0,1-.46,2.94,2.94,0,0,0,.78-.86l.18-.42a.25.25,0,0,1,.21-.11c.06,0,.13.07.22.21A.65.65,0,0,1,55.77,59.8Z"/><path d="M58.8,56.64a1.45,1.45,0,0,1-.57.15,2.53,2.53,0,0,0-.57.1c0,.11,0,.67,0,1.67,0,.78,0,1.3,0,1.57a2.83,2.83,0,0,0,.07.53,3,3,0,0,1,.08.55.33.33,0,0,1-.15.24.45.45,0,0,1-.27.12c-.2,0-.36-.2-.48-.61a3.36,3.36,0,0,1-.12-.86V57c-.06,0-.28,0-.67,0s-.47-.07-.47-.34.4-.56,1.21-.53l.2-2.71a.41.41,0,0,0,0-.15.63.63,0,0,1,0-.14.21.21,0,0,1,.12-.17.41.41,0,0,1,.29-.07.49.49,0,0,1,.52.53,8.63,8.63,0,0,1-.1,1.12,9.13,9.13,0,0,0-.11,1.11,2,2,0,0,0,0,.35l.83,0q.42,0,.42.33A.44.44,0,0,1,58.8,56.64Z"/><path d="M63.8,55.75a13.23,13.23,0,0,1-.1,1.39c-.06.61-.1,1.15-.1,1.6q0,.27.06,1c0,.51.05.87.05,1.09,0,.44-.05.71-.15.8a.48.48,0,0,1-.26.06.45.45,0,0,1-.45-.29l-.12-.55a2.08,2.08,0,0,1-1.48.84,1.22,1.22,0,0,1-.9-.35,1.9,1.9,0,0,1-.62-.72,5.73,5.73,0,0,1-.21-1.92V55.45Q59.43,55,60,55q.42,0,.42.48c0,.48,0,1.11,0,1.88,0,1,0,1.6,0,1.87a2.35,2.35,0,0,0,.24,1.08c.2.43.46.65.77.65.51,0,.9-.34,1.18-1a4.56,4.56,0,0,0,.3-1.68v-2a.94.94,0,0,0-.08-.34,1.13,1.13,0,0,1-.08-.35.92.92,0,0,1,0-.16.7.7,0,0,1,.42-.21C63.57,55.19,63.8,55.36,63.8,55.75Z"/><path d="M69,61.8q0,.21-.33.21a.4.4,0,0,1-.44-.3s0-.23,0-.59a.54.54,0,0,0,0-.24,3,3,0,0,1-1.81.62,2.54,2.54,0,0,1-1.31-.38,1.22,1.22,0,0,1-.72-1c0-.41.29-.81.86-1.2a2.59,2.59,0,0,1,1.44-.54h1.48a.43.43,0,0,0,.09-.31,5.31,5.31,0,0,0-.16-1.52A1.06,1.06,0,0,0,67,55.65a1.32,1.32,0,0,0-1,.72,2.3,2.3,0,0,0-.43,1.26v.16a.11.11,0,0,1-.12.12.5.5,0,0,1-.33-.18.48.48,0,0,1-.18-.31,3,3,0,0,1,.25-1.06,3.18,3.18,0,0,1,.56-1,1.21,1.21,0,0,1,.93-.4,2.55,2.55,0,0,1,1.57.54A1.77,1.77,0,0,1,69,56.94Zm-.8-2.39q0-.6-.93-.6a3.06,3.06,0,0,0-1.29.26,1.05,1.05,0,0,0-.7,1,.7.7,0,0,0,.37.63,1.39,1.39,0,0,0,.75.19,2.08,2.08,0,0,0,1.23-.42A1.26,1.26,0,0,0,68.22,59.41Z"/><path d="M71.19,61.21q0,.39-.42.39c-.44,0-.65-.9-.64-2.71l0-6.74a3.26,3.26,0,0,0,0-.47,3.85,3.85,0,0,1,0-.46.88.88,0,0,1,.48-.21.72.72,0,0,1,.42.15.44.44,0,0,1,.21.36,1.34,1.34,0,0,1-.07.39c-.06.2-.1.33-.11.38a17.36,17.36,0,0,0-.18,2.85c0,2,0,2.92,0,2.85a16.51,16.51,0,0,0,.24,2.77.57.57,0,0,0,.07.2A.79.79,0,0,1,71.19,61.21Z"/><path d="M73.17,61.21q0,.39-.42.39c-.44,0-.65-.9-.64-2.71l0-6.74a3.26,3.26,0,0,0,0-.47,3.85,3.85,0,0,1,0-.46.88.88,0,0,1,.48-.21.72.72,0,0,1,.42.15.44.44,0,0,1,.21.36,1.34,1.34,0,0,1-.07.39c-.06.2-.1.33-.11.38a17.36,17.36,0,0,0-.18,2.85c0,2,0,2.92,0,2.85A16.51,16.51,0,0,0,73,60.76a.57.57,0,0,0,.07.2A.79.79,0,0,1,73.17,61.21Z"/><path d="M78.5,55.48c-.08.44-.16.88-.23,1.32a6.36,6.36,0,0,0-.15,1.32v4.7a2.12,2.12,0,0,1-.6,1.59,2.23,2.23,0,0,1-1.63.6,3.19,3.19,0,0,1-1.25-.3,2.21,2.21,0,0,1-1.09-.83.56.56,0,0,1-.08-.27.37.37,0,0,1,.42-.43.41.41,0,0,1,.2.06l.51.52a1.84,1.84,0,0,0,1.29.47,1.32,1.32,0,0,0,1.32-.69A4.39,4.39,0,0,0,77.4,62a5.71,5.71,0,0,0-.06-.6,2.54,2.54,0,0,1,0-.66,4.42,4.42,0,0,1-.6.5,1.32,1.32,0,0,1-.72.21,1.73,1.73,0,0,1-1.54-.8A3.06,3.06,0,0,1,74,58.86q0-2,.06-3.42a.49.49,0,0,1,.53-.48c.38,0,.55.06.51.19a12.94,12.94,0,0,0-.29,3.5q0,2.1,1.2,2.1c.48,0,.87-.38,1.16-1.13a4.66,4.66,0,0,0,.31-1.75V56.16c0-.17,0-.39,0-.65s.18-.38.49-.36S78.52,55.29,78.5,55.48Z"/><path d="M86.43,61.77a.64.64,0,0,1-.45.12.48.48,0,0,1-.34-.21V59.62c0-2.54-.42-3.81-1.27-3.81a1,1,0,0,0-.89.63,2.18,2.18,0,0,0-.32,1.11,1,1,0,0,1,0,.19.58.58,0,0,0,0,.19v1.92a4.94,4.94,0,0,0,.07.73,5.31,5.31,0,0,1,.08.72q0,.24-.36.24a.52.52,0,0,1-.43-.24.86.86,0,0,1-.17-.49l.09-9.24a.57.57,0,0,1,0-.18q0-.27.3-.27a.84.84,0,0,1,.44.2c.2.14.29.25.29.34a5,5,0,0,1-.14,1,5.81,5.81,0,0,0-.14,1s0,.69,0,2a1.55,1.55,0,0,1,.85-.49,3.07,3.07,0,0,1,1.16.28c.87.36,1.3,1.31,1.3,2.85Z"/><path d="M91.68,59.88c0,.44-.29.83-.88,1.18a2.92,2.92,0,0,1-1.5.48q-2,0-2-2.55a8,8,0,0,1,.4-2.41q.54-1.68,1.38-1.68a2.56,2.56,0,0,1,1.58.72,2,2,0,0,1,.85,1.45,2.14,2.14,0,0,1-.75,1.62,2.43,2.43,0,0,1-1.69.69,1.14,1.14,0,0,1-.38-.15,1.18,1.18,0,0,0-.4-.15c-.13,0-.2,0-.2.12,0,1.15.38,1.73,1.14,1.73a1.71,1.71,0,0,0,1.08-.39,3.59,3.59,0,0,0,.66-.71c.19-.25.32-.37.38-.37C91.57,59.46,91.68,59.6,91.68,59.88Zm-1-2.76a1.79,1.79,0,0,0-.3-1,.92.92,0,0,0-.8-.45c-.4,0-.72.25-1,.75a2.87,2.87,0,0,0-.32,1.3,1.05,1.05,0,0,0,.28.73,1,1,0,0,0,.71.29,1.23,1.23,0,0,0,1-.52A1.76,1.76,0,0,0,90.65,57.12Z"/><path d="M96.91,61.8q0,.21-.33.21a.4.4,0,0,1-.44-.3s0-.23,0-.59a.54.54,0,0,0,0-.24,3,3,0,0,1-1.81.62A2.54,2.54,0,0,1,93,61.12a1.22,1.22,0,0,1-.72-1c0-.41.29-.81.86-1.2a2.59,2.59,0,0,1,1.44-.54H96a.43.43,0,0,0,.09-.31A5.31,5.31,0,0,0,96,56.5a1.06,1.06,0,0,0-1.07-.85,1.32,1.32,0,0,0-1,.72,2.3,2.3,0,0,0-.43,1.26v.16a.11.11,0,0,1-.12.12.5.5,0,0,1-.33-.18.48.48,0,0,1-.18-.31A3,3,0,0,1,93,56.36a3.18,3.18,0,0,1,.56-1,1.21,1.21,0,0,1,.93-.4,2.55,2.55,0,0,1,1.57.54,1.77,1.77,0,0,1,.78,1.41Zm-.8-2.39q0-.6-.93-.6a3.06,3.06,0,0,0-1.29.26,1.05,1.05,0,0,0-.7,1,.7.7,0,0,0,.37.63,1.39,1.39,0,0,0,.75.19,2,2,0,0,0,1.22-.42A1.25,1.25,0,0,0,96.11,59.41Z"/><path d="M99.08,61.21q0,.39-.42.39c-.44,0-.65-.9-.64-2.71l0-6.74a3.26,3.26,0,0,0,0-.47,2.48,2.48,0,0,1,0-.46.88.88,0,0,1,.48-.21.72.72,0,0,1,.42.15.44.44,0,0,1,.21.36,1.34,1.34,0,0,1-.07.39,3,3,0,0,0-.11.38,17.36,17.36,0,0,0-.18,2.85c0,2,0,2.92,0,2.85a15.7,15.7,0,0,0,.23,2.77A1,1,0,0,0,99,61,.63.63,0,0,1,99.08,61.21Z"/><path d="M102.49,56.64a1.45,1.45,0,0,1-.57.15,2.53,2.53,0,0,0-.57.1c0,.11,0,.67,0,1.67,0,.78,0,1.3,0,1.57a3.08,3.08,0,0,0,.08.53,2.81,2.81,0,0,1,.07.55.33.33,0,0,1-.15.24.45.45,0,0,1-.27.12c-.2,0-.36-.2-.48-.61a3.36,3.36,0,0,1-.12-.86V57c-.06,0-.28,0-.67,0s-.47-.07-.47-.34.41-.56,1.22-.53l.19-2.71a.41.41,0,0,0,0-.15.5.5,0,0,1,0-.14.21.21,0,0,1,.12-.17.38.38,0,0,1,.28-.07c.35,0,.53.21.53.53a9.07,9.07,0,0,1-.11,1.12,8.65,8.65,0,0,0-.1,1.11,2,2,0,0,0,0,.35l.82,0q.42,0,.42.33A.44.44,0,0,1,102.49,56.64Z"/><path d="M107.24,61.77a.64.64,0,0,1-.45.12.48.48,0,0,1-.34-.21V59.62c0-2.54-.43-3.81-1.27-3.81a1,1,0,0,0-.9.63,2.27,2.27,0,0,0-.31,1.11.63.63,0,0,1,0,.19.89.89,0,0,0,0,.19v1.92a4.94,4.94,0,0,0,.07.73,5.31,5.31,0,0,1,.08.72q0,.24-.36.24a.51.51,0,0,1-.43-.24.79.79,0,0,1-.17-.49l.09-9.24a.57.57,0,0,1,0-.18q0-.27.3-.27a.87.87,0,0,1,.44.2c.19.14.29.25.29.34a5.86,5.86,0,0,1-.14,1,5,5,0,0,0-.14,1s0,.69,0,2a1.55,1.55,0,0,1,.85-.49,3.07,3.07,0,0,1,1.16.28c.87.36,1.3,1.31,1.3,2.85Z"/><path d="M48.85,73a5.83,5.83,0,0,1-.36,2.19,1.69,1.69,0,0,1-1.62,1.23,2.45,2.45,0,0,1-.76-.16L45.36,76a.58.58,0,0,0,0,.19,2,2,0,0,0,0,.22c0,.09,0,.17,0,.22s-.09.22-.26.22a.51.51,0,0,1-.42-.21,2.12,2.12,0,0,1-.16-.88c0-.41-.05-.73-.05-1v-.09l.29-8.37H45a.51.51,0,0,1,.39.21.68.68,0,0,1,.19.45,15,15,0,0,1-.14,1.65,12.86,12.86,0,0,0-.14,1.65v.57a.84.84,0,0,0,.3-.35A2.37,2.37,0,0,1,46,70a1,1,0,0,1,.73-.27,1.86,1.86,0,0,1,1.34.6,2.66,2.66,0,0,1,.72,1.3A7.22,7.22,0,0,1,48.85,73Zm-.79.08a5.9,5.9,0,0,0-.2-1.61q-.28-1.05-1-1c-.55,0-1,.41-1.3,1.22a5.31,5.31,0,0,0-.38,1.94,3.38,3.38,0,0,0,.3,1.49,1.22,1.22,0,0,0,1.14.83c.51,0,.89-.36,1.14-1.09A5.42,5.42,0,0,0,48.06,73.11Z"/><path d="M54,74.88c0,.44-.3.83-.89,1.18a2.92,2.92,0,0,1-1.5.48q-2,0-2-2.55A8.07,8.07,0,0,1,50,71.58q.54-1.68,1.38-1.68a2.53,2.53,0,0,1,1.57.72,2,2,0,0,1,.86,1.45,2.14,2.14,0,0,1-.75,1.62,2.45,2.45,0,0,1-1.7.69,1.14,1.14,0,0,1-.38-.15,1.18,1.18,0,0,0-.4-.15c-.13,0-.19,0-.19.12,0,1.15.38,1.73,1.14,1.73a1.71,1.71,0,0,0,1.08-.39,3.59,3.59,0,0,0,.66-.71c.19-.25.31-.37.37-.37C53.88,74.46,54,74.6,54,74.88Zm-1-2.76a1.79,1.79,0,0,0-.3-1,.91.91,0,0,0-.79-.45,1.12,1.12,0,0,0-1,.75,2.86,2.86,0,0,0-.31,1.3,1,1,0,0,0,.27.73,1,1,0,0,0,.72.29,1.23,1.23,0,0,0,1-.52A1.75,1.75,0,0,0,53,72.12Z"/><path d="M59.43,76.44a.26.26,0,0,1-.24.16,1.17,1.17,0,0,1-.51-.21v-.91c0-3.32-.42-5-1.24-5q-.39,0-.84.57a5.51,5.51,0,0,0-1.13,3.55,5.21,5.21,0,0,0,.08.83,7.07,7.07,0,0,1,.08.84c0,.15-.1.22-.3.22-.39,0-.58-.31-.58-.94V72.16c0-.09,0-.22,0-.39s0-.3,0-.39a3.92,3.92,0,0,0-.06-.57,5.44,5.44,0,0,1,0-.55.4.4,0,0,1,.19-.28.5.5,0,0,1,.29-.16.46.46,0,0,1,.36.21c0,.65,0,1,0,1.14s0,.3,0,.44c.09,0,.21-.2.36-.5a3.62,3.62,0,0,1,.48-.78,1.08,1.08,0,0,1,.83-.42,1.77,1.77,0,0,1,.54.14,2,2,0,0,1,1.15,1,7.1,7.1,0,0,1,.59,3.13Z"/><path d="M64.65,74.88c0,.44-.3.83-.89,1.18a2.92,2.92,0,0,1-1.5.48q-2,0-2-2.55a8.07,8.07,0,0,1,.41-2.41Q61.2,69.9,62,69.9a2.53,2.53,0,0,1,1.57.72,2,2,0,0,1,.86,1.45,2.14,2.14,0,0,1-.75,1.62,2.45,2.45,0,0,1-1.7.69,1.14,1.14,0,0,1-.38-.15,1.18,1.18,0,0,0-.4-.15c-.13,0-.19,0-.19.12,0,1.15.38,1.73,1.14,1.73a1.71,1.71,0,0,0,1.08-.39,3.59,3.59,0,0,0,.66-.71c.19-.25.31-.37.37-.37C64.53,74.46,64.65,74.6,64.65,74.88Zm-1-2.76a1.79,1.79,0,0,0-.3-1,.91.91,0,0,0-.79-.45,1.12,1.12,0,0,0-1,.75,2.86,2.86,0,0,0-.31,1.3,1,1,0,0,0,.28.73.94.94,0,0,0,.71.29,1.23,1.23,0,0,0,1-.52A1.75,1.75,0,0,0,63.61,72.12Z"/><path d="M69.69,67.11q0,.3-.45.3a.26.26,0,0,1-.14,0c0-.43-.32-.65-.84-.65s-.87.56-1.14,1.69a10.24,10.24,0,0,0-.27,2.27h.68c.37,0,.55.11.55.33a2.13,2.13,0,0,1,0,.3,1.6,1.6,0,0,1-.76.14,1.11,1.11,0,0,0-.48.06c0,.39,0,1.09,0,2.11v1.08a6.14,6.14,0,0,0,.18,1.46.35.35,0,0,1,0,.13q0,.36-.51.36c-.3,0-.45-.4-.45-1.21q0-3.3.06-3.9h-.76c-.23,0-.35-.11-.35-.33s.2-.44.6-.44h.54c0-.2,0-.45.06-.76q.23-4,2.24-4Q69.69,66,69.69,67.11Z"/><path d="M70,70.5a3.62,3.62,0,0,1-.13.81,4.12,4.12,0,0,0-.12.81v3.31a3.77,3.77,0,0,0,.15.9.19.19,0,0,1-.17.12c-.49,0-.73-.23-.73-.7V70.24a.76.76,0,0,1,.37-.1.8.8,0,0,1,.38.1C70,70.31,70,70.4,70,70.5Zm.29-2.25q0,.51-.48.51a.79.79,0,0,1-.53-.21.63.63,0,0,1-.24-.48.45.45,0,0,1,.51-.51.76.76,0,0,1,.52.19A.67.67,0,0,1,70.32,68.25Z"/><path d="M73.59,71.64a1.45,1.45,0,0,1-.57.15,2.53,2.53,0,0,0-.57.1c0,.11,0,.67,0,1.67,0,.78,0,1.3,0,1.57a3.08,3.08,0,0,0,.08.53,2.81,2.81,0,0,1,.07.55.33.33,0,0,1-.15.24.45.45,0,0,1-.27.12c-.2,0-.36-.2-.48-.61a3.36,3.36,0,0,1-.12-.86V72c-.06,0-.28,0-.67,0s-.47-.07-.47-.34.41-.56,1.22-.53l.19-2.71a.41.41,0,0,0,0-.15.5.5,0,0,1,0-.14.21.21,0,0,1,.12-.17.38.38,0,0,1,.28-.07c.35,0,.53.21.53.53a9.07,9.07,0,0,1-.11,1.12,8.65,8.65,0,0,0-.1,1.11,2,2,0,0,0,0,.35l.82,0q.42,0,.42.33A.44.44,0,0,1,73.59,71.64Z"/><path d="M78.54,75.49c0,.35-.27.65-.8.89a3.18,3.18,0,0,1-1.27.28,2.52,2.52,0,0,1-.93-.2,4.67,4.67,0,0,1-.92-.63c-.46-.37-.69-.63-.69-.77,0-.31.19-.45.56-.42h.09c0,.3.34.63,1,1a3,3,0,0,0,1.35.49q.66,0,.66-.45c0-.18-.27-.44-.81-.76a8.81,8.81,0,0,1-1.52-1A2.5,2.5,0,0,1,74.4,72a3,3,0,0,1,.4-1.49A1.35,1.35,0,0,1,76,69.7a2.41,2.41,0,0,1,1.23.47,1.82,1.82,0,0,1,.84,1,3.3,3.3,0,0,1,.12.94A4.43,4.43,0,0,1,78,73.35a.48.48,0,0,1-.31.1,1.25,1.25,0,0,1-.33-.08c-.15-.06-.23-.11-.23-.17s.06-.07.17-.33a2.45,2.45,0,0,0,.12-.93c0-1.07-.34-1.61-1-1.61-.35,0-.63.24-.84.71a2.66,2.66,0,0,0-.27,1.16,1.9,1.9,0,0,0,.86,1.42,17.45,17.45,0,0,0,1.57,1C78.25,75,78.54,75.29,78.54,75.49Z"/><path d="M85.59,71.64a1.45,1.45,0,0,1-.57.15,2.53,2.53,0,0,0-.57.1c0,.11,0,.67,0,1.67,0,.78,0,1.3,0,1.57a3.08,3.08,0,0,0,.08.53,2.81,2.81,0,0,1,.07.55.33.33,0,0,1-.15.24.45.45,0,0,1-.27.12c-.2,0-.36-.2-.48-.61a3.36,3.36,0,0,1-.12-.86V72c-.06,0-.28,0-.67,0s-.47-.07-.47-.34.41-.56,1.22-.53l.19-2.71a.41.41,0,0,0,0-.15.5.5,0,0,1,0-.14.21.21,0,0,1,.12-.17.38.38,0,0,1,.28-.07c.35,0,.53.21.53.53a9.07,9.07,0,0,1-.11,1.12,8.65,8.65,0,0,0-.1,1.11,2,2,0,0,0,0,.35l.82,0q.42,0,.42.33A.44.44,0,0,1,85.59,71.64Z"/><path d="M90.81,73.41a4.32,4.32,0,0,1-.57,2.25,2.08,2.08,0,0,1-1.88,1.15,2,2,0,0,1-1.81-.94,3.82,3.82,0,0,1-.5-2.07,5.92,5.92,0,0,1,.57-2.51c.48-1,1.09-1.51,1.83-1.51a1.74,1.74,0,0,1,.81.33A3.58,3.58,0,0,1,90.81,73.41Zm-.72,0a5.4,5.4,0,0,0-.26-1.72c-.25-.71-.63-1.07-1.15-1.07s-1.07.4-1.41,1.19a4.93,4.93,0,0,0-.39,2,4.13,4.13,0,0,0,.27,1.59,1.28,1.28,0,0,0,1.21.89,1.48,1.48,0,0,0,1.37-1A4.38,4.38,0,0,0,90.09,73.39Z"/><path d="M32.31,86s0,.13,0,.26-.25.3-.37.3a.25.25,0,0,1-.21-.15c0-.63-.29-1-.78-1-.32,0-.64.59-.95,1.77A6.68,6.68,0,0,0,29.8,89a10.32,10.32,0,0,0,.08,1.69l.07.19a.61.61,0,0,1,.06.22q0,.33-.45.33a.46.46,0,0,1-.51-.53.79.79,0,0,1,0-.22,1.23,1.23,0,0,0,0-.21c0-.55,0-1.38-.08-2.48S29,86.05,29,85.5c0-.2,0-.33.1-.37a.79.79,0,0,1,.41-.07c.25,0,.39.09.43.27l0,.59c.26-.4.41-.63.45-.68a.92.92,0,0,1,.69-.37,1,1,0,0,1,.54.16,1.72,1.72,0,0,1,.41.47A1.19,1.19,0,0,1,32.31,86Z"/><path d="M37,89.88c0,.44-.29.83-.88,1.18a2.92,2.92,0,0,1-1.5.48q-2,0-2-2.55a8,8,0,0,1,.4-2.41q.54-1.68,1.38-1.68a2.56,2.56,0,0,1,1.58.72,2,2,0,0,1,.85,1.45A2.14,2.14,0,0,1,36,88.69a2.43,2.43,0,0,1-1.69.69,1.14,1.14,0,0,1-.38-.15,1.18,1.18,0,0,0-.4-.15c-.13,0-.2,0-.2.12,0,1.15.38,1.73,1.14,1.73a1.71,1.71,0,0,0,1.08-.39,3.59,3.59,0,0,0,.66-.71c.19-.25.32-.37.38-.37C36.86,89.46,37,89.6,37,89.88Zm-1-2.76a1.79,1.79,0,0,0-.3-1,.92.92,0,0,0-.8-.45c-.4,0-.72.25-1,.75a2.87,2.87,0,0,0-.32,1.3,1,1,0,0,0,.28.73,1,1,0,0,0,.71.29,1.23,1.23,0,0,0,1-.52A1.76,1.76,0,0,0,35.94,87.12Z"/><path d="M42.36,89.8c0,.25-.21.57-.62,1a2.74,2.74,0,0,1-1,.72,3,3,0,0,1-.87.16,1.94,1.94,0,0,1-1.68-.8A2.93,2.93,0,0,1,37.65,89a7.93,7.93,0,0,1,.49-2.58c.41-1.19.92-1.78,1.53-1.78a2.45,2.45,0,0,1,1.16.43c.48.28.75.56.81.82a4.09,4.09,0,0,1,.1.91c0,1.1-.16,1.65-.49,1.65a.64.64,0,0,1-.29-.09c-.11-.06-.16-.13-.16-.21a.35.35,0,0,1,.06-.16l.07-.12A4,4,0,0,0,41,87c0-1.11-.25-1.67-.75-1.67s-1,.51-1.35,1.52a7,7,0,0,0-.39,2.23,3.15,3.15,0,0,0,.26,1.35,1.12,1.12,0,0,0,1.06.71,1.74,1.74,0,0,0,1-.46,2.94,2.94,0,0,0,.78-.86l.18-.42a.25.25,0,0,1,.21-.11c.06,0,.13.07.22.21A.7.7,0,0,1,42.36,89.8Z"/><path d="M47.5,89.88c0,.44-.29.83-.88,1.18a2.92,2.92,0,0,1-1.5.48q-2,0-2-2.55a8,8,0,0,1,.4-2.41q.54-1.68,1.38-1.68a2.56,2.56,0,0,1,1.58.72,2,2,0,0,1,.85,1.45,2.14,2.14,0,0,1-.75,1.62,2.43,2.43,0,0,1-1.69.69,1.14,1.14,0,0,1-.38-.15,1.18,1.18,0,0,0-.4-.15c-.13,0-.2,0-.2.12,0,1.15.38,1.73,1.14,1.73a1.71,1.71,0,0,0,1.08-.39,3.59,3.59,0,0,0,.66-.71c.19-.25.32-.37.38-.37C47.39,89.46,47.5,89.6,47.5,89.88Zm-1-2.76a1.79,1.79,0,0,0-.3-1,.92.92,0,0,0-.8-.45c-.4,0-.72.25-1,.75a2.87,2.87,0,0,0-.32,1.3,1.05,1.05,0,0,0,.28.73,1,1,0,0,0,.71.29,1.23,1.23,0,0,0,1-.52A1.76,1.76,0,0,0,46.47,87.12Z"/><path d="M49.62,85.5a4.32,4.32,0,0,1-.13.81,3.62,3.62,0,0,0-.13.81v3.31a3.77,3.77,0,0,0,.15.9.18.18,0,0,1-.16.12c-.49,0-.74-.23-.74-.7V85.24a.8.8,0,0,1,.38-.1.76.76,0,0,1,.37.1C49.53,85.31,49.62,85.4,49.62,85.5Zm.28-2.25q0,.51-.48.51a.77.77,0,0,1-.52-.21.63.63,0,0,1-.24-.48.45.45,0,0,1,.51-.51.72.72,0,0,1,.51.19A.63.63,0,0,1,49.9,83.25Z"/><path d="M55,85.39A11.28,11.28,0,0,1,54.42,89c-.45,1.68-.93,2.52-1.43,2.52s-1.15-.64-1.65-1.91a15.5,15.5,0,0,1-.78-2.73,7.66,7.66,0,0,1-.15-1.54.47.47,0,0,1,.38-.38,1.05,1.05,0,0,1,.54.3,2.22,2.22,0,0,0-.06.51,8.46,8.46,0,0,0,.36,2.21,12.8,12.8,0,0,0,.78,2.1q.26.51.42.51c.39,0,.73-.79,1-2.36a17.51,17.51,0,0,0,.33-3c0-.06,0-.12.14-.19a.45.45,0,0,1,.25-.11Q54.95,84.91,55,85.39Z"/><path d="M57,85.5a4.32,4.32,0,0,1-.13.81,3.62,3.62,0,0,0-.13.81v3.31a3.77,3.77,0,0,0,.15.9.18.18,0,0,1-.16.12c-.49,0-.74-.23-.74-.7V85.24a.8.8,0,0,1,.38-.1.76.76,0,0,1,.37.1C56.94,85.31,57,85.4,57,85.5Zm.28-2.25q0,.51-.48.51a.77.77,0,0,1-.52-.21.63.63,0,0,1-.24-.48.45.45,0,0,1,.51-.51.72.72,0,0,1,.51.19A.63.63,0,0,1,57.31,83.25Z"/><path d="M62.82,91.44a.26.26,0,0,1-.24.16,1.17,1.17,0,0,1-.51-.21v-.91c0-3.32-.42-5-1.24-5q-.39,0-.84.57a5.45,5.45,0,0,0-1.13,3.55,5.21,5.21,0,0,0,.08.83,7.07,7.07,0,0,1,.08.84c0,.15-.1.22-.3.22-.39,0-.58-.31-.58-.94V87.16c0-.09,0-.22,0-.39s0-.3,0-.39a3.92,3.92,0,0,0-.06-.57,5.44,5.44,0,0,1,0-.55.4.4,0,0,1,.19-.28.5.5,0,0,1,.29-.16.46.46,0,0,1,.36.21c0,.65,0,1,0,1.14s0,.3,0,.44c.09,0,.21-.2.36-.5a3.62,3.62,0,0,1,.48-.78,1.08,1.08,0,0,1,.83-.42,1.77,1.77,0,0,1,.54.14,2,2,0,0,1,1.15,1,7.1,7.1,0,0,1,.59,3.13Z"/><path d="M68.2,86.86c0,.06,0,.15,0,.26a12.39,12.39,0,0,0-.32,2.41c0,.31,0,.79,0,1.43s0,1.12,0,1.44a4.37,4.37,0,0,1-.15,1.35,1.64,1.64,0,0,1-.69.82,1.91,1.91,0,0,1-1.05.33,4.73,4.73,0,0,1-1.45-.27c-.7-.22-1.05-.48-1.05-.79s.1-.41.31-.41.17.06.24.18a1.33,1.33,0,0,0,.2.29,1.4,1.4,0,0,0,.61.22,2.93,2.93,0,0,0,.68.12,1.42,1.42,0,0,0,1.27-.66,2.54,2.54,0,0,0,.38-1.45,5.67,5.67,0,0,0-.17-1.53,2.1,2.1,0,0,1-1.72.94,1.71,1.71,0,0,1-.71-.2,1.87,1.87,0,0,1-.6-.44,2.34,2.34,0,0,1-.4-1.52,9.09,9.09,0,0,1,.46-2.74c.4-1.27.93-1.91,1.58-1.91s1.07.47,1.65,1.41a4.14,4.14,0,0,0,.28.44A2.84,2.84,0,0,1,68.2,86.86Zm-.9.83a.69.69,0,0,0-.22-.53,2.41,2.41,0,0,0-.32-1.08,1,1,0,0,0-.93-.55c-.27,0-.54.3-.81.91a5.72,5.72,0,0,0-.4,1.29,9.55,9.55,0,0,0-.15,1.53c0,1.23.35,1.85,1.06,1.85q.81,0,1.35-1.35A5.79,5.79,0,0,0,67.3,87.69Z"/><path d="M77,82.11q0,.3-.45.3a.23.23,0,0,1-.13,0c0-.43-.32-.65-.84-.65s-.87.56-1.14,1.69a10.24,10.24,0,0,0-.27,2.27h.67c.37,0,.56.11.56.33a2.13,2.13,0,0,1,0,.3,1.66,1.66,0,0,1-.76.14,1.17,1.17,0,0,0-.49.06c0,.39,0,1.09,0,2.11v1.08a6.68,6.68,0,0,0,.17,1.46.24.24,0,0,1,0,.13q0,.36-.51.36c-.3,0-.45-.4-.45-1.21q0-3.3.06-3.9h-.77c-.23,0-.34-.11-.34-.33s.2-.44.6-.44h.54c0-.2,0-.45.06-.76q.23-4,2.23-4Q77,81,77,82.11Z"/><path d="M77.49,91.21q0,.39-.42.39c-.44,0-.66-.9-.65-2.71l0-6.74a3.59,3.59,0,0,0,0-.47,3.38,3.38,0,0,1,0-.46.88.88,0,0,1,.48-.21.72.72,0,0,1,.42.15.44.44,0,0,1,.21.36,1.41,1.41,0,0,1-.08.39c-.06.2-.09.33-.1.38a17.36,17.36,0,0,0-.18,2.85c0,2,0,2.92,0,2.85a16.51,16.51,0,0,0,.24,2.77.57.57,0,0,0,.07.2A.88.88,0,0,1,77.49,91.21Z"/><path d="M83,88.41a4.32,4.32,0,0,1-.57,2.25,2.07,2.07,0,0,1-1.87,1.15,2,2,0,0,1-1.82-.94,3.82,3.82,0,0,1-.49-2.07,5.92,5.92,0,0,1,.57-2.51c.48-1,1.09-1.51,1.83-1.51a1.74,1.74,0,0,1,.81.33A3.57,3.57,0,0,1,83,88.41Zm-.72,0A5.41,5.41,0,0,0,82,86.67c-.25-.71-.64-1.07-1.16-1.07s-1.07.4-1.41,1.19a4.93,4.93,0,0,0-.39,2,4.13,4.13,0,0,0,.27,1.59,1.29,1.29,0,0,0,1.22.89,1.47,1.47,0,0,0,1.36-1A4.38,4.38,0,0,0,82.27,88.39Z"/><path d="M90.64,86.58a10.81,10.81,0,0,1-.37,2.82q-.52,2-1.53,2a1.5,1.5,0,0,1-1.26-.92l-.39-.91-.06,0c-.14.4-.29.8-.44,1.2a1,1,0,0,1-.94.69q-1.91,0-1.91-4.58,0-1,.06-1.65a.32.32,0,0,1,.27-.15.78.78,0,0,1,.39.13c.15.08.23.18.23.29a3.52,3.52,0,0,1-.1.61,2.71,2.71,0,0,0-.1.65c0,2.6.34,3.9,1,3.9.43,0,.77-.49,1-1.47a7.11,7.11,0,0,0,.3-2V85.74c0-.21.12-.32.36-.32s.44.2.44.6a1.31,1.31,0,0,1,0,.23c0,.1,0,.17,0,.22v1.85a4.74,4.74,0,0,0,.23,1.38c.19.65.44,1,.76,1s.79-.54,1.08-1.63A8.9,8.9,0,0,0,90,86.83a3.12,3.12,0,0,0-.12-1.15.5.5,0,0,0-.1-.14c-.07-.08-.11-.13-.11-.16a.49.49,0,0,1,.14-.32.43.43,0,0,1,.31-.15C90.46,84.91,90.64,85.47,90.64,86.58Z"/><path d="M95.79,89.88c0,.44-.3.83-.89,1.18a2.92,2.92,0,0,1-1.5.48q-2,0-2-2.55a8.07,8.07,0,0,1,.41-2.41q.54-1.68,1.38-1.68a2.53,2.53,0,0,1,1.57.72,2,2,0,0,1,.86,1.45,2.14,2.14,0,0,1-.75,1.62,2.45,2.45,0,0,1-1.7.69,1.14,1.14,0,0,1-.38-.15,1.18,1.18,0,0,0-.4-.15c-.13,0-.19,0-.19.12,0,1.15.38,1.73,1.14,1.73a1.71,1.71,0,0,0,1.08-.39,3.59,3.59,0,0,0,.66-.71c.19-.25.31-.37.37-.37C95.67,89.46,95.79,89.6,95.79,89.88Zm-1-2.76a1.79,1.79,0,0,0-.3-1,.91.91,0,0,0-.79-.45,1.12,1.12,0,0,0-1,.75,2.86,2.86,0,0,0-.31,1.3,1,1,0,0,0,.27.73,1,1,0,0,0,.72.29,1.23,1.23,0,0,0,1-.52A1.75,1.75,0,0,0,94.75,87.12Z"/><path d="M99.79,86s0,.13,0,.26-.26.3-.38.3a.25.25,0,0,1-.21-.15c0-.63-.29-1-.78-1-.32,0-.63.59-.94,1.77A6.68,6.68,0,0,0,97.29,89a10.86,10.86,0,0,0,.07,1.69l.08.19a.61.61,0,0,1,.06.22q0,.33-.45.33a.46.46,0,0,1-.51-.53,1.22,1.22,0,0,1,0-.22.68.68,0,0,0,0-.21c0-.55,0-1.38-.07-2.48s-.08-1.92-.08-2.47c0-.2,0-.33.11-.37a.74.74,0,0,1,.4-.07c.25,0,.4.09.44.27l0,.59c.26-.4.41-.63.45-.68a.92.92,0,0,1,.69-.37,1,1,0,0,1,.54.16,1.91,1.91,0,0,1,.41.47A1.25,1.25,0,0,1,99.79,86Z"/><path d="M104.31,90.49c0,.35-.27.65-.8.89a3.18,3.18,0,0,1-1.27.28,2.52,2.52,0,0,1-.93-.2,4.67,4.67,0,0,1-.92-.63c-.46-.37-.69-.63-.69-.77,0-.31.19-.45.56-.42h.09c0,.3.34.63,1,1a3,3,0,0,0,1.35.49q.66,0,.66-.45c0-.18-.27-.44-.81-.76a8.81,8.81,0,0,1-1.52-1,2.5,2.5,0,0,1-.82-1.84,3,3,0,0,1,.4-1.49,1.35,1.35,0,0,1,1.17-.84,2.41,2.41,0,0,1,1.23.47,1.82,1.82,0,0,1,.84,1,3.3,3.3,0,0,1,.12.94,4.43,4.43,0,0,1-.21,1.28.48.48,0,0,1-.31.1,1.25,1.25,0,0,1-.33-.08c-.15-.06-.23-.11-.23-.17s.06-.07.17-.33a2.45,2.45,0,0,0,.12-.93c0-1.07-.34-1.61-1-1.61-.35,0-.63.24-.84.71A2.66,2.66,0,0,0,101,87.2a1.9,1.9,0,0,0,.86,1.42,17.45,17.45,0,0,0,1.57,1C104,90,104.31,90.29,104.31,90.49Z"/><path d="M106.38,91.05c0,.14-.1.26-.29.36a1,1,0,0,1-.46.12.64.64,0,0,1-.45-.18.56.56,0,0,1-.2-.42.46.46,0,0,1,.53-.51,1.05,1.05,0,0,1,.58.17A.52.52,0,0,1,106.38,91.05Z"/></g></g></g></svg>