<svg xmlns="http://www.w3.org/2000/svg" viewBox="0 0 147.9 126.81"><defs><style>.cls-1{fill:#fff;}.cls-2{fill:none;stroke:#6eccb2;stroke-miterlimit:10;stroke-width:2.23px;}</style></defs><title>11</title><g id="Layer_2" data-name="Layer 2"><g id="Facts"><g id="_11" data-name="11"><path class="cls-1" d="M146.79,63.4c0,2.39-2.82,4.56-3.14,6.87s1.82,5.19,1.2,7.45-3.92,3.63-4.83,5.8.42,5.47-.77,7.51-4.7,2.52-6.13,4.42-.89,5.39-2.52,7.11-5.15,1.39-7,2.93-2.43,5.38-4.61,6.85-5.75.49-8.08,1.72-3.52,4.73-6,5.71-5.73-.7-8.26,0-4.39,3.93-7,4.42-5.49-1.81-8.11-1.56-5,3-7.69,3-5.12-2.78-7.69-3-5.58,2-8.11,1.56-4.5-3.7-7-4.42-5.87.93-8.26,0-3.68-4.5-6-5.71-5.94-.28-8.08-1.72-2.65-5.18-4.61-6.85-5.36-1.23-7-2.93-1.12-5.24-2.53-7.12S9.82,93.06,8.65,91s.15-5.34-.77-7.51S3.67,80,3.05,77.72s1.51-5.1,1.2-7.45S1.11,65.79,1.11,63.4s2.82-4.55,3.14-6.86-1.82-5.2-1.2-7.46S7,45.45,7.88,43.29s-.42-5.47.77-7.51,4.7-2.52,6.12-4.42.9-5.39,2.53-7.11,5.15-1.39,7-2.93,2.43-5.38,4.61-6.85S34.62,14,37,12.74,40.47,8,42.91,7s5.73.71,8.26,0,4.39-3.93,7-4.42,5.49,1.8,8.11,1.56,5-3,7.69-3,5.12,2.79,7.69,3,5.58-2,8.11-1.56,4.5,3.7,7,4.42,5.87-.93,8.26,0,3.68,4.51,6,5.71,5.94.29,8.08,1.73,2.65,5.17,4.61,6.85,5.36,1.23,7,2.93,1.12,5.24,2.52,7.11,5,2.39,6.13,4.42-.15,5.34.77,7.51,4.21,3.52,4.83,5.79-1.51,5.11-1.2,7.46S146.79,61,146.79,63.4Z"/><path class="cls-2" d="M146.79,63.4c0,2.39-2.82,4.56-3.14,6.87s1.82,5.19,1.2,7.45-3.92,3.63-4.83,5.8.42,5.47-.77,7.51-4.7,2.52-6.13,4.42-.89,5.39-2.52,7.11-5.15,1.39-7,2.93-2.43,5.38-4.61,6.85-5.75.49-8.08,1.72-3.52,4.73-6,5.71-5.73-.7-8.26,0-4.39,3.93-7,4.42-5.49-1.81-8.11-1.56-5,3-7.69,3-5.12-2.78-7.69-3-5.58,2-8.11,1.56-4.5-3.7-7-4.42-5.87.93-8.26,0-3.68-4.5-6-5.71-5.94-.28-8.08-1.72-2.65-5.18-4.61-6.85-5.36-1.23-7-2.93-1.12-5.24-2.53-7.12S9.82,93.06,8.65,91s.15-5.34-.77-7.51S3.67,80,3.05,77.72s1.51-5.1,1.2-7.45S1.11,65.79,1.11,63.4s2.82-4.55,3.14-6.86-1.82-5.2-1.2-7.46S7,45.45,7.88,43.29s-.42-5.47.77-7.51,4.7-2.52,6.12-4.42.9-5.39,2.53-7.11,5.15-1.39,7-2.93,2.43-5.38,4.61-6.85S34.62,14,37,12.74,40.47,8,42.91,7s5.73.71,8.26,0,4.39-3.93,7-4.42,5.49,1.8,8.11,1.56,5-3,7.69-3,5.12,2.79,7.69,3,5.58-2,8.11-1.56,4.5,3.7,7,4.42,5.87-.93,8.26,0,3.68,4.51,6,5.71,5.94.29,8.08,1.73,2.65,5.17,4.61,6.85,5.36,1.23,7,2.93,1.12,5.24,2.52,7.11,5,2.39,6.13,4.42-.15,5.34.77,7.51,4.21,3.52,4.83,5.79-1.51,5.11-1.2,7.46S146.79,61,146.79,63.4Z"/><path d="M50.7,24.32a.37.37,0,0,1-.12.26c-.07.08-.14.15-.2.23a.79.79,0,0,0-.09.46,3.11,3.11,0,0,1,0,.49,51.83,51.83,0,0,0-.37,6v1.43c0,.71.18,1.11.45,1.2v.15a.27.27,0,0,1-.26.16c-.63,0-1-.61-1.12-1.84a6.83,6.83,0,0,1,0-1.43l.39-4.84-1.11,4.05c-.68,2.12-1.34,3.18-2,3.18a1.27,1.27,0,0,1-.9-.56,3.16,3.16,0,0,1-.56-.93,25.19,25.19,0,0,1-1-3.28c-.25-1.12-.51-2.24-.76-3.35l-.09.23a32.43,32.43,0,0,0-.24,4l.14,3.44c0,.36.15.55.37.58,0,.27-.24.41-.72.41s-.68-.83-.68-2.48c0-.75,0-1.87.12-3.35s.12-2.6.12-3.35a1.29,1.29,0,0,0,0-.38,1.07,1.07,0,0,1-.05-.16c0-.39.4-.59,1.2-.59a.87.87,0,0,1,.54.32l.14,1.38a27.7,27.7,0,0,0,.88,3.84c.58,2.06,1.06,3.09,1.43,3.09s1-.94,1.54-2.82a34.58,34.58,0,0,0,.84-3.6c.13-.38.3-.92.5-1.62a.93.93,0,0,1,1-.68.82.82,0,0,1,.39.11A.32.32,0,0,1,50.7,24.32Z"/><path d="M56.2,31.34a4.32,4.32,0,0,1-.57,2.25,2.08,2.08,0,0,1-1.87,1.16,2,2,0,0,1-1.82-1,3.82,3.82,0,0,1-.49-2.07,5.88,5.88,0,0,1,.57-2.5c.48-1,1.09-1.52,1.83-1.52a1.74,1.74,0,0,1,.81.33A3.57,3.57,0,0,1,56.2,31.34Zm-.72,0a5.48,5.48,0,0,0-.25-1.73c-.25-.71-.64-1.06-1.16-1.06s-1.07.39-1.41,1.18a5,5,0,0,0-.39,2,4.13,4.13,0,0,0,.27,1.59,1.28,1.28,0,0,0,1.22.88,1.47,1.47,0,0,0,1.36-1A4.33,4.33,0,0,0,55.48,31.33Z"/><path d="M59.47,29.57a1.45,1.45,0,0,1-.57.15,2.28,2.28,0,0,0-.57.11c0,.11,0,.66,0,1.66,0,.78,0,1.31,0,1.58a2.75,2.75,0,0,0,.07.52,3.08,3.08,0,0,1,.08.56.36.36,0,0,1-.15.24.45.45,0,0,1-.27.12c-.2,0-.36-.21-.48-.62a3.28,3.28,0,0,1-.12-.85V29.92a1.36,1.36,0,0,0-.68,0c-.31,0-.46-.08-.46-.35s.4-.55,1.21-.52l.2-2.72a.63.63,0,0,0,0-.14.38.38,0,0,1,0-.14.24.24,0,0,1,.12-.18.46.46,0,0,1,.29-.06c.35,0,.52.2.52.52a11.06,11.06,0,0,1-.1,1.13,9.13,9.13,0,0,0-.11,1.11,1.87,1.87,0,0,0,0,.34l.83,0c.27,0,.42.11.42.33A.43.43,0,0,1,59.47,29.57Z"/><path d="M64.23,34.7a.64.64,0,0,1-.45.12.5.5,0,0,1-.35-.21v-2c0-2.54-.42-3.81-1.27-3.81a1,1,0,0,0-.89.63A2.17,2.17,0,0,0,61,30.49a1,1,0,0,1,0,.18.63.63,0,0,0,0,.19v1.92a5.37,5.37,0,0,0,.08.74,5,5,0,0,1,.07.72q0,.24-.36.24a.52.52,0,0,1-.43-.24.88.88,0,0,1-.17-.5l.09-9.24a.57.57,0,0,1,0-.18q0-.27.3-.27a.93.93,0,0,1,.44.2c.2.14.3.25.3.34a5.21,5.21,0,0,1-.15,1,5.81,5.81,0,0,0-.14,1s0,.69,0,2a1.6,1.6,0,0,1,.86-.5,3.07,3.07,0,0,1,1.15.29c.87.36,1.31,1.31,1.31,2.85Z"/><path d="M69.48,32.81c0,.44-.3.84-.89,1.19a2.92,2.92,0,0,1-1.5.48q-2,0-2-2.55a8.13,8.13,0,0,1,.41-2.42q.54-1.68,1.38-1.68a2.5,2.5,0,0,1,1.57.73A2,2,0,0,1,69.3,30a2.14,2.14,0,0,1-.75,1.62,2.45,2.45,0,0,1-1.7.69,1.14,1.14,0,0,1-.38-.15,1.18,1.18,0,0,0-.4-.15c-.13,0-.19,0-.19.12,0,1.15.38,1.72,1.14,1.72a1.71,1.71,0,0,0,1.08-.39,3.49,3.49,0,0,0,.66-.7c.19-.25.31-.38.37-.38C69.36,32.39,69.48,32.53,69.48,32.81Zm-1-2.76a1.74,1.74,0,0,0-.3-1,.9.9,0,0,0-.79-.46,1.12,1.12,0,0,0-1,.75,2.9,2.9,0,0,0-.31,1.31,1,1,0,0,0,.27.72,1,1,0,0,0,.72.3,1.24,1.24,0,0,0,1-.53A1.75,1.75,0,0,0,68.44,30.05Z"/><path d="M73.48,29s0,.12,0,.25-.26.3-.38.3a.25.25,0,0,1-.21-.15c0-.63-.29-.94-.78-.94-.32,0-.63.59-.94,1.77A6.6,6.6,0,0,0,71,31.91a11,11,0,0,0,.07,1.7l.08.18a.66.66,0,0,1,.06.22q0,.33-.45.33a.45.45,0,0,1-.51-.52,1.12,1.12,0,0,1,0-.22.79.79,0,0,0,0-.22c0-.55,0-1.37-.07-2.47s-.08-1.93-.08-2.48c0-.2,0-.32.11-.37a.89.89,0,0,1,.4-.06c.25,0,.4.09.44.27l0,.58c.26-.4.41-.62.45-.67a.94.94,0,0,1,.69-.38,1,1,0,0,1,.54.17,1.8,1.8,0,0,1,.41.46A1.27,1.27,0,0,1,73.48,29Z"/><path d="M75.22,24.26a.65.65,0,0,1-.1.19,1.59,1.59,0,0,0-.11.2,2.64,2.64,0,0,0-.09.81c0,.13,0,.32,0,.58s0,.45,0,.58c0,.38-.15.57-.44.57s-.29-.05-.34-.15c0-1.15,0-1.79,0-1.91a4,4,0,0,1,.06-.6c.06-.31.12-.47.19-.49a.4.4,0,0,1,.17,0C75,24,75.22,24.09,75.22,24.26Z"/><path d="M80.5,33.42c0,.35-.26.65-.79.89a3.24,3.24,0,0,1-1.28.29,2.74,2.74,0,0,1-.93-.2,4.43,4.43,0,0,1-.91-.64c-.46-.37-.69-.62-.69-.77,0-.31.18-.45.55-.42h.09q0,.45,1,1a3,3,0,0,0,1.35.48q.66,0,.66-.45,0-.27-.81-.75a8.53,8.53,0,0,1-1.51-1A2.48,2.48,0,0,1,76.36,30a3,3,0,0,1,.41-1.49,1.35,1.35,0,0,1,1.17-.84,2.32,2.32,0,0,1,1.23.47,1.77,1.77,0,0,1,.84.95,3.38,3.38,0,0,1,.12,1,4.37,4.37,0,0,1-.21,1.27.52.52,0,0,1-.32.11,1,1,0,0,1-.33-.09c-.15-.05-.22-.11-.22-.17s0-.07.16-.33a2.45,2.45,0,0,0,.12-.93c0-1.07-.33-1.6-1-1.6-.35,0-.63.23-.84.7a2.69,2.69,0,0,0-.27,1.16,1.9,1.9,0,0,0,.85,1.43,18.28,18.28,0,0,0,1.58,1C80.22,33,80.5,33.22,80.5,33.42Z"/><path d="M91.08,28a9.4,9.4,0,0,1-1,4.28q-1.25,2.43-3.3,2.43a2.23,2.23,0,0,1-1.41-.53q-.26.33-.33.33a.6.6,0,0,1-.33-.1,7.84,7.84,0,0,1-.21-2.25c0-.84,0-2.09.05-3.75s0-2.9,0-3.75v-.24q0-.33.36-.33a.67.67,0,0,1,.39.14.39.39,0,0,1,.21.31,1.08,1.08,0,0,1-.11.44,1.44,1.44,0,0,0-.1.43V26a2.18,2.18,0,0,0,.52-.73,3.22,3.22,0,0,1,.71-.93A2.09,2.09,0,0,1,88,23.86a2.64,2.64,0,0,1,2.42,1.33A5.3,5.3,0,0,1,91.08,28Zm-.89-.07a5.74,5.74,0,0,0-.39-2.27,1.78,1.78,0,0,0-1.71-1.26,2.24,2.24,0,0,0-1.66,1,5.18,5.18,0,0,0-1,1.81,7,7,0,0,0-.24,1.86v3.11a2,2,0,0,0,.38,1.21,1.3,1.3,0,0,0,1.11.57,2.67,2.67,0,0,0,2.14-1.26A5.84,5.84,0,0,0,90,30.38,12.24,12.24,0,0,0,90.19,27.94Z"/><path d="M96.57,34.73q0,.21-.33.21a.4.4,0,0,1-.44-.3s0-.22,0-.58a.54.54,0,0,0-.05-.24,3,3,0,0,1-1.81.61,2.53,2.53,0,0,1-1.31-.37A1.22,1.22,0,0,1,91.9,33c0-.41.29-.81.86-1.2a2.59,2.59,0,0,1,1.44-.54h1.48a.45.45,0,0,0,.09-.32,5.23,5.23,0,0,0-.16-1.51,1.07,1.07,0,0,0-1.07-.86,1.32,1.32,0,0,0-1.05.72,2.3,2.3,0,0,0-.43,1.26v.17a.11.11,0,0,1-.12.12.67.67,0,0,1-.51-.5,3,3,0,0,1,.25-1.06,3.24,3.24,0,0,1,.56-1,1.22,1.22,0,0,1,.93-.41,2.55,2.55,0,0,1,1.57.54,1.77,1.77,0,0,1,.78,1.41Zm-.8-2.38q0-.6-.93-.6a3.06,3.06,0,0,0-1.29.25,1.05,1.05,0,0,0-.7,1,.7.7,0,0,0,.37.63,1.4,1.4,0,0,0,.75.2,2,2,0,0,0,1.22-.42A1.25,1.25,0,0,0,95.77,32.35Z"/><path d="M102.22,28.42c-.08.44-.16.88-.23,1.32a6.32,6.32,0,0,0-.14,1.32v4.69a2.16,2.16,0,0,1-.61,1.6,2.26,2.26,0,0,1-1.63.59,3.15,3.15,0,0,1-1.24-.3,2.23,2.23,0,0,1-1.1-.82.54.54,0,0,1-.07-.27c0-.29.14-.44.42-.44a.38.38,0,0,1,.19.06l.51.53a1.84,1.84,0,0,0,1.29.46,1.32,1.32,0,0,0,1.32-.69,4.27,4.27,0,0,0,.2-1.57,5.71,5.71,0,0,0-.06-.6,2.54,2.54,0,0,1,0-.66,4.12,4.12,0,0,1-.6.49,1.32,1.32,0,0,1-.72.21,1.74,1.74,0,0,1-1.55-.79,3.09,3.09,0,0,1-.46-1.76q0-2,.06-3.42a.48.48,0,0,1,.52-.48c.38,0,.55.07.51.2a13,13,0,0,0-.28,3.49c0,1.4.39,2.1,1.19,2.1.49,0,.87-.37,1.16-1.12a4.72,4.72,0,0,0,.32-1.76V29.09c0-.17,0-.38,0-.64s.18-.38.49-.36S102.24,28.23,102.22,28.42Z"/><path d="M40.38,43.43a4.12,4.12,0,0,1-.12.81,3.62,3.62,0,0,0-.13.81v3.32a3.77,3.77,0,0,0,.15.9.19.19,0,0,1-.17.12.64.64,0,0,1-.73-.71v-5.5a.78.78,0,0,1,.37-.11.82.82,0,0,1,.38.11C40.3,43.25,40.38,43.33,40.38,43.43Zm.29-2.25q0,.51-.48.51a.79.79,0,0,1-.53-.21.63.63,0,0,1-.24-.48.45.45,0,0,1,.51-.51.75.75,0,0,1,.52.2A.61.61,0,0,1,40.67,41.18Z"/><path d="M45.54,48.42c0,.35-.26.65-.79.89a3.24,3.24,0,0,1-1.28.29,2.74,2.74,0,0,1-.93-.2,4.43,4.43,0,0,1-.91-.64c-.46-.37-.69-.62-.69-.77,0-.31.18-.45.55-.42h.09q0,.45,1,1a3,3,0,0,0,1.35.48q.66,0,.66-.45,0-.27-.81-.75a8.53,8.53,0,0,1-1.51-1A2.48,2.48,0,0,1,41.4,45a3,3,0,0,1,.41-1.49A1.35,1.35,0,0,1,43,42.64a2.32,2.32,0,0,1,1.23.47,1.77,1.77,0,0,1,.84,1,3.38,3.38,0,0,1,.12.95A4.37,4.37,0,0,1,45,46.28a.52.52,0,0,1-.32.11,1,1,0,0,1-.33-.09c-.15,0-.22-.11-.22-.17s0-.07.16-.33a2.45,2.45,0,0,0,.12-.93c0-1.07-.33-1.6-1-1.6-.35,0-.63.23-.84.7a2.69,2.69,0,0,0-.27,1.16,1.9,1.9,0,0,0,.85,1.43,18.28,18.28,0,0,0,1.58,1C45.26,48,45.54,48.22,45.54,48.42Z"/><path d="M54.17,47.74c0,.24-.21.57-.62,1a2.62,2.62,0,0,1-1,.72,3.06,3.06,0,0,1-.87.17A2,2,0,0,1,50,48.8,2.93,2.93,0,0,1,49.46,47,7.94,7.94,0,0,1,50,44.38q.61-1.77,1.53-1.77a2.52,2.52,0,0,1,1.16.42c.48.29.75.56.81.82a4.18,4.18,0,0,1,.1.92c0,1.1-.16,1.65-.49,1.65a.64.64,0,0,1-.29-.09c-.11-.06-.16-.13-.16-.21a.32.32,0,0,1,.06-.16l.07-.13a4,4,0,0,0,.06-.9c0-1.11-.25-1.66-.75-1.66s-1,.5-1.35,1.51A7.13,7.13,0,0,0,50.31,47a3.15,3.15,0,0,0,.26,1.35,1.11,1.11,0,0,0,1.06.71,1.78,1.78,0,0,0,1-.45,2.94,2.94,0,0,0,.78-.86c0-.11.1-.25.18-.43a.24.24,0,0,1,.21-.1c.06,0,.14.06.22.2A.65.65,0,0,1,54.17,47.74Z"/><path d="M59.31,47.81c0,.44-.29.84-.88,1.19a2.92,2.92,0,0,1-1.5.48q-2,0-2-2.55a8.1,8.1,0,0,1,.4-2.42q.54-1.68,1.38-1.68a2.52,2.52,0,0,1,1.58.73A2,2,0,0,1,59.13,45a2.14,2.14,0,0,1-.75,1.62,2.43,2.43,0,0,1-1.69.69,1.14,1.14,0,0,1-.38-.15,1.18,1.18,0,0,0-.4-.15c-.13,0-.2,0-.2.12,0,1.15.38,1.72,1.14,1.72a1.71,1.71,0,0,0,1.08-.39,3.49,3.49,0,0,0,.66-.7c.19-.25.32-.38.38-.38C59.2,47.39,59.31,47.53,59.31,47.81Zm-1-2.76a1.74,1.74,0,0,0-.3-1,.91.91,0,0,0-.8-.46c-.4,0-.72.25-1,.75a2.91,2.91,0,0,0-.32,1.31,1,1,0,0,0,.28.72.93.93,0,0,0,.71.3,1.24,1.24,0,0,0,1-.53A1.76,1.76,0,0,0,58.28,45.05Z"/><path d="M61.1,49.15q0,.39-.42.39c-.44,0-.66-.91-.65-2.72l0-6.73a3.89,3.89,0,0,0,0-.48,3.15,3.15,0,0,1,0-.45.88.88,0,0,1,.48-.21.72.72,0,0,1,.42.15.44.44,0,0,1,.21.36,1.41,1.41,0,0,1-.08.39c-.06.2-.09.32-.1.37a17.36,17.36,0,0,0-.18,2.85c0,2,0,2.92,0,2.85A16.65,16.65,0,0,0,61,48.7a1.19,1.19,0,0,0,.07.2A.6.6,0,0,1,61.1,49.15Z"/><path d="M66.24,47.81c0,.44-.29.84-.88,1.19a2.92,2.92,0,0,1-1.5.48q-2,0-2-2.55a8.1,8.1,0,0,1,.4-2.42q.54-1.68,1.38-1.68a2.52,2.52,0,0,1,1.58.73A2,2,0,0,1,66.06,45a2.14,2.14,0,0,1-.75,1.62,2.43,2.43,0,0,1-1.69.69,1.14,1.14,0,0,1-.38-.15,1.18,1.18,0,0,0-.4-.15c-.13,0-.2,0-.2.12,0,1.15.38,1.72,1.14,1.72a1.71,1.71,0,0,0,1.08-.39,3.49,3.49,0,0,0,.66-.7c.19-.25.32-.38.38-.38C66.13,47.39,66.24,47.53,66.24,47.81Zm-1-2.76a1.74,1.74,0,0,0-.3-1,.91.91,0,0,0-.8-.46c-.4,0-.72.25-1,.75a2.91,2.91,0,0,0-.32,1.31,1,1,0,0,0,.28.72.93.93,0,0,0,.71.3,1.24,1.24,0,0,0,1-.53A1.76,1.76,0,0,0,65.21,45.05Z"/><path d="M71.3,46a5.83,5.83,0,0,1-.36,2.19,1.69,1.69,0,0,1-1.62,1.23,2.57,2.57,0,0,1-.77-.17L67.8,49a.64.64,0,0,0,0,.2c0,.05,0,.12,0,.21a2,2,0,0,1,0,.22c0,.15-.08.23-.25.23a.51.51,0,0,1-.42-.21,2.12,2.12,0,0,1-.17-.89c0-.41,0-.73,0-1v-.09l.28-8.37h.21a.52.52,0,0,1,.4.22A.64.64,0,0,1,68,40a15,15,0,0,1-.14,1.65,13.29,13.29,0,0,0-.15,1.65v.57a.79.79,0,0,0,.3-.34A2.49,2.49,0,0,1,68.4,43a1.07,1.07,0,0,1,.74-.27,1.84,1.84,0,0,1,1.33.6,2.69,2.69,0,0,1,.72,1.31A7.09,7.09,0,0,1,71.3,46Zm-.8.08a5.88,5.88,0,0,0-.19-1.61q-.28-1-1-1c-.55,0-1,.4-1.31,1.21a5.34,5.34,0,0,0-.37,1.94A3.35,3.35,0,0,0,68,48a1.2,1.2,0,0,0,1.14.83q.77,0,1.14-1.08A5.48,5.48,0,0,0,70.5,46.05Z"/><path d="M75.38,44s0,.12,0,.25-.25.3-.37.3a.25.25,0,0,1-.21-.15c0-.63-.29-.94-.78-.94-.32,0-.64.59-1,1.77a6.6,6.6,0,0,0-.18,1.72,10.48,10.48,0,0,0,.08,1.7,1.87,1.87,0,0,0,.07.18.66.66,0,0,1,.06.22q0,.33-.45.33a.45.45,0,0,1-.51-.52,1.31,1.31,0,0,1,0-.22.79.79,0,0,0,0-.22c0-.55,0-1.37-.08-2.47s-.07-1.93-.07-2.48c0-.2,0-.32.1-.37a.94.94,0,0,1,.41-.06c.25,0,.39.09.43.27l0,.58c.26-.4.41-.62.45-.67a.94.94,0,0,1,.69-.38,1,1,0,0,1,.54.17,1.79,1.79,0,0,1,.42.46A1.27,1.27,0,0,1,75.38,44Z"/><path d="M80,49.73q0,.21-.33.21a.39.39,0,0,1-.43-.3,4.31,4.31,0,0,1,0-.58.55.55,0,0,0,0-.24,3,3,0,0,1-1.82.61,2.49,2.49,0,0,1-1.3-.37A1.22,1.22,0,0,1,75.32,48c0-.41.28-.81.85-1.2a2.59,2.59,0,0,1,1.44-.54H79.1a.45.45,0,0,0,.09-.32A5.16,5.16,0,0,0,79,44.44,1.06,1.06,0,0,0,78,43.58a1.32,1.32,0,0,0-1,.72,2.31,2.31,0,0,0-.44,1.26v.17a.11.11,0,0,1-.12.12.67.67,0,0,1-.51-.5,3,3,0,0,1,.26-1.06,3.24,3.24,0,0,1,.55-1,1.22,1.22,0,0,1,.93-.41,2.58,2.58,0,0,1,1.58.54,1.77,1.77,0,0,1,.78,1.41Zm-.79-2.38q0-.6-.93-.6A3.06,3.06,0,0,0,77,47a1.06,1.06,0,0,0-.71,1,.7.7,0,0,0,.38.63,1.4,1.4,0,0,0,.75.2,2,2,0,0,0,1.22-.42A1.25,1.25,0,0,0,79.19,47.35Z"/><path d="M83.6,44.57a1.45,1.45,0,0,1-.57.15,2.28,2.28,0,0,0-.57.11c0,.11,0,.66,0,1.66,0,.78,0,1.31,0,1.58a3,3,0,0,0,.08.52,2.89,2.89,0,0,1,.07.56.33.33,0,0,1-.15.24.45.45,0,0,1-.27.12c-.2,0-.36-.21-.48-.62A3.28,3.28,0,0,1,81.6,48V44.92c-.06-.05-.28-.05-.67,0s-.47-.08-.47-.35.41-.55,1.22-.52l.19-2.72a.5.5,0,0,0,0-.14.38.38,0,0,1,0-.14.24.24,0,0,1,.12-.18.43.43,0,0,1,.28-.06c.35,0,.53.2.53.52a9.19,9.19,0,0,1-.11,1.13,8.65,8.65,0,0,0-.1,1.11,1.87,1.87,0,0,0,0,.34l.82,0q.42,0,.42.33A.42.42,0,0,1,83.6,44.57Z"/><path d="M88.38,47.81c0,.44-.29.84-.88,1.19a2.92,2.92,0,0,1-1.5.48q-2,0-2-2.55a8.1,8.1,0,0,1,.4-2.42q.54-1.68,1.38-1.68a2.52,2.52,0,0,1,1.58.73A2,2,0,0,1,88.2,45a2.14,2.14,0,0,1-.75,1.62,2.43,2.43,0,0,1-1.69.69,1.14,1.14,0,0,1-.38-.15A1.18,1.18,0,0,0,85,47c-.13,0-.2,0-.2.12,0,1.15.38,1.72,1.14,1.72A1.71,1.71,0,0,0,87,48.47a3.49,3.49,0,0,0,.66-.7c.19-.25.32-.38.38-.38C88.27,47.39,88.38,47.53,88.38,47.81Zm-1-2.76a1.74,1.74,0,0,0-.3-1,.91.91,0,0,0-.8-.46c-.4,0-.72.25-1,.75A2.91,2.91,0,0,0,85,45.67a1,1,0,0,0,.28.72.93.93,0,0,0,.71.3,1.24,1.24,0,0,0,1-.53A1.76,1.76,0,0,0,87.35,45.05Z"/><path d="M93.81,39.76a5.55,5.55,0,0,1-.09.88c-.07.47-.11.77-.13.89q0,.47-.15,3.09c-.06,1.61-.09,2.49-.09,2.66a6.36,6.36,0,0,0,.28,2.27.32.32,0,0,1-.27.17.54.54,0,0,1-.33-.15.64.64,0,0,1-.24-.3,7,7,0,0,0-.09-.92A2.36,2.36,0,0,1,91,49.48a1.74,1.74,0,0,1-1.5-.74,2.79,2.79,0,0,1-.45-1.66,8,8,0,0,1,.46-2.61q.6-1.77,1.59-1.77A1.47,1.47,0,0,1,92,43c.06,0,.29.25.7.63a40.31,40.31,0,0,0,.15-4.48.4.4,0,0,1,.29-.11.67.67,0,0,1,.49.21A.69.69,0,0,1,93.81,39.76Zm-1.12,5.55a2.36,2.36,0,0,0-.3-1.19,1.1,1.1,0,0,0-1-.63q-.75,0-1.2,1.53a7.35,7.35,0,0,0-.36,2.18,2.83,2.83,0,0,0,.21,1.14.92.92,0,0,0,.86.63q.93,0,1.41-1.44A6.71,6.71,0,0,0,92.69,45.31Z"/><path d="M98.81,43.43a3.62,3.62,0,0,1-.13.81,4.32,4.32,0,0,0-.13.81v3.32a3.77,3.77,0,0,0,.15.9.18.18,0,0,1-.16.12.64.64,0,0,1-.74-.71v-5.5a.82.82,0,0,1,.38-.11.78.78,0,0,1,.37.11C98.72,43.25,98.81,43.33,98.81,43.43Zm.28-2.25q0,.51-.48.51a.77.77,0,0,1-.52-.21.63.63,0,0,1-.24-.48.45.45,0,0,1,.51-.51.77.77,0,0,1,.52.2A.64.64,0,0,1,99.09,41.18Z"/><path d="M104.6,49.37a.28.28,0,0,1-.24.17,1.21,1.21,0,0,1-.51-.21v-.92q0-5-1.24-5-.39,0-.84.57a5.54,5.54,0,0,0-1.13,3.56,6.94,6.94,0,0,0,.08.83,5.21,5.21,0,0,1,.08.83c0,.15-.1.23-.3.23-.39,0-.58-.32-.58-1V45.1c0-.09,0-.22,0-.39s0-.3,0-.39a5.49,5.49,0,0,0,0-.57,4,4,0,0,1-.06-.56c0-.08.07-.17.19-.28a.56.56,0,0,1,.29-.15.46.46,0,0,1,.36.21c0,.65,0,1,0,1.14s0,.29,0,.43c.09,0,.21-.19.36-.49a3.62,3.62,0,0,1,.48-.78,1.08,1.08,0,0,1,.83-.42,1.68,1.68,0,0,1,.54.13A2,2,0,0,1,104,44a7.15,7.15,0,0,1,.59,3.14Z"/><path d="M27.34,62.74a1.64,1.64,0,0,1-.61,1,2.72,2.72,0,0,1-1,.72,3.06,3.06,0,0,1-.87.17,2,2,0,0,1-1.68-.8A2.93,2.93,0,0,1,22.63,62a8,8,0,0,1,.5-2.59q.61-1.77,1.53-1.77a2.53,2.53,0,0,1,1.15.42c.48.29.75.56.81.82a4.2,4.2,0,0,1,.11.92c0,1.1-.17,1.65-.5,1.65a.6.6,0,0,1-.28-.09c-.11-.06-.17-.13-.17-.21a.32.32,0,0,1,.06-.16l.08-.13a4,4,0,0,0,.06-.9c0-1.11-.25-1.66-.75-1.66s-1,.5-1.35,1.51A6.85,6.85,0,0,0,23.49,62a3.16,3.16,0,0,0,.25,1.35,1.12,1.12,0,0,0,1.07.71,1.81,1.81,0,0,0,1-.45,2.9,2.9,0,0,0,.77-.86c0-.11.11-.25.19-.43a.24.24,0,0,1,.21-.1c.06,0,.13.06.21.2A.65.65,0,0,1,27.34,62.74Z"/><path d="M29.2,64.15q0,.39-.42.39c-.44,0-.65-.91-.64-2.72l0-6.73a3.5,3.5,0,0,0,0-.48,2.32,2.32,0,0,1-.05-.45.88.88,0,0,1,.48-.21.72.72,0,0,1,.42.15.44.44,0,0,1,.21.36,1.34,1.34,0,0,1-.07.39,3,3,0,0,0-.11.37,17.36,17.36,0,0,0-.18,2.85c0,2,0,2.92,0,2.85a15.83,15.83,0,0,0,.23,2.78,1.19,1.19,0,0,0,.07.2A.6.6,0,0,1,29.2,64.15Z"/><path d="M34.71,61.34a4.32,4.32,0,0,1-.57,2.25,2.09,2.09,0,0,1-1.88,1.16,2,2,0,0,1-1.81-1,3.82,3.82,0,0,1-.5-2.07,5.88,5.88,0,0,1,.57-2.5c.48-1,1.09-1.52,1.83-1.52a1.74,1.74,0,0,1,.81.33A3.58,3.58,0,0,1,34.71,61.34Zm-.72,0a5.47,5.47,0,0,0-.26-1.73c-.25-.71-.63-1.06-1.15-1.06s-1.07.39-1.41,1.18a5,5,0,0,0-.39,2,4.13,4.13,0,0,0,.27,1.59,1.27,1.27,0,0,0,1.21.88,1.48,1.48,0,0,0,1.37-1A4.33,4.33,0,0,0,34,61.33Z"/><path d="M39.94,63.42c0,.35-.26.65-.8.89a3.16,3.16,0,0,1-1.27.29,2.74,2.74,0,0,1-.93-.2,4.43,4.43,0,0,1-.91-.64c-.47-.37-.69-.62-.69-.77,0-.31.18-.45.55-.42H36q0,.45,1,1a3,3,0,0,0,1.35.48q.66,0,.66-.45,0-.27-.81-.75a8.16,8.16,0,0,1-1.51-1A2.48,2.48,0,0,1,35.8,60a2.86,2.86,0,0,1,.41-1.49,1.35,1.35,0,0,1,1.17-.84,2.27,2.27,0,0,1,1.22.47,1.75,1.75,0,0,1,.85,1,3.79,3.79,0,0,1,.12.95,4.09,4.09,0,0,1-.22,1.27.47.47,0,0,1-.31.11,1,1,0,0,1-.33-.09c-.15,0-.22-.11-.22-.17s0-.07.16-.33a2.45,2.45,0,0,0,.12-.93c0-1.07-.34-1.6-1-1.6-.35,0-.63.23-.84.7a2.69,2.69,0,0,0-.27,1.16,1.9,1.9,0,0,0,.85,1.43,18.28,18.28,0,0,0,1.58,1C39.66,63,39.94,63.22,39.94,63.42Z"/><path d="M44.85,62.81c0,.44-.3.84-.89,1.19a2.92,2.92,0,0,1-1.5.48q-2,0-2-2.55a8.13,8.13,0,0,1,.41-2.42q.54-1.68,1.38-1.68a2.5,2.5,0,0,1,1.57.73A2,2,0,0,1,44.67,60a2.14,2.14,0,0,1-.75,1.62,2.45,2.45,0,0,1-1.7.69,1.14,1.14,0,0,1-.38-.15,1.18,1.18,0,0,0-.4-.15c-.13,0-.19,0-.19.12,0,1.15.38,1.72,1.14,1.72a1.71,1.71,0,0,0,1.08-.39,3.49,3.49,0,0,0,.66-.7c.19-.25.31-.38.37-.38C44.73,62.39,44.85,62.53,44.85,62.81Zm-1-2.76a1.74,1.74,0,0,0-.3-1,.9.9,0,0,0-.79-.46,1.12,1.12,0,0,0-1,.75,2.9,2.9,0,0,0-.31,1.31,1,1,0,0,0,.27.72,1,1,0,0,0,.72.3,1.24,1.24,0,0,0,1-.53A1.81,1.81,0,0,0,43.81,60.05Z"/><path d="M51.82,59.57a1.45,1.45,0,0,1-.57.15,2.28,2.28,0,0,0-.57.11c0,.11,0,.66,0,1.66,0,.78,0,1.31,0,1.58a2.75,2.75,0,0,0,.07.52,3.08,3.08,0,0,1,.08.56.33.33,0,0,1-.15.24.45.45,0,0,1-.27.12c-.2,0-.36-.21-.48-.62a3.28,3.28,0,0,1-.12-.85V59.92a1.36,1.36,0,0,0-.68,0c-.31,0-.46-.08-.46-.35s.4-.55,1.21-.52l.2-2.72a.63.63,0,0,0,0-.14.38.38,0,0,1,0-.14.24.24,0,0,1,.12-.18.46.46,0,0,1,.29-.06c.35,0,.52.2.52.52a8.75,8.75,0,0,1-.1,1.13,9.13,9.13,0,0,0-.11,1.11,1.87,1.87,0,0,0,0,.34l.83,0q.42,0,.42.33A.43.43,0,0,1,51.82,59.57Z"/><path d="M57,61.34a4.32,4.32,0,0,1-.57,2.25,2.08,2.08,0,0,1-1.87,1.16,2,2,0,0,1-1.82-1,3.82,3.82,0,0,1-.49-2.07,5.88,5.88,0,0,1,.57-2.5c.48-1,1.09-1.52,1.83-1.52a1.78,1.78,0,0,1,.81.33A3.57,3.57,0,0,1,57,61.34Zm-.72,0a5.48,5.48,0,0,0-.25-1.73c-.25-.71-.64-1.06-1.16-1.06s-1.07.39-1.41,1.18a5,5,0,0,0-.39,2,4.13,4.13,0,0,0,.27,1.59,1.28,1.28,0,0,0,1.22.88,1.47,1.47,0,0,0,1.36-1A4.33,4.33,0,0,0,56.32,61.33Z"/><path d="M68.23,60.88A3.41,3.41,0,0,1,67,63.55a4.11,4.11,0,0,1-2.8,1,6.44,6.44,0,0,1-1.2-.11A4.73,4.73,0,0,1,61.75,64c-.57-.28-.85-.54-.85-.79s.16-.36.48-.36a2.35,2.35,0,0,1,1.11.59,2.48,2.48,0,0,0,1.44.59,3.72,3.72,0,0,0,2.4-.78,2.7,2.7,0,0,0,1-2.22,1.93,1.93,0,0,0-.67-1.54A2.44,2.44,0,0,0,65.07,59a5,5,0,0,0-1.17.16,3.38,3.38,0,0,0-1.07.42l-.3.29a.55.55,0,0,1-.33.18,1.06,1.06,0,0,1-.49-.2,1.68,1.68,0,0,1,.09-.44,1.6,1.6,0,0,0,.09-.45V57.34a7.7,7.7,0,0,1,.46-3,.62.62,0,0,1,.27-.05.43.43,0,0,1,.36.15.36.36,0,0,0,.25.15l.85-.1c1.08-.13,1.81-.2,2.19-.2.62,0,.93.18.93.53a1.33,1.33,0,0,1-.21.57h-.14a1.13,1.13,0,0,1-.28-.08l-.26-.09a6.72,6.72,0,0,0-1.15-.06,11.1,11.1,0,0,0-1.17.12,3.12,3.12,0,0,0-1.07.23c-.21.18-.31,1-.31,2.58a5.39,5.39,0,0,0,0,.78l0,0a5.15,5.15,0,0,0,.69-.27,5,5,0,0,1,1.91-.35,3.18,3.18,0,0,1,2.08.66A2.42,2.42,0,0,1,68.23,60.88Z"/><path d="M76.69,59a6.8,6.8,0,0,1-1,3.61,3.39,3.39,0,0,1-3,1.89A3.28,3.28,0,0,1,69.9,63,5.09,5.09,0,0,1,69,59.92a7.12,7.12,0,0,1,.81-3.2A4.28,4.28,0,0,1,72,54.44a3.77,3.77,0,0,1,1.34-.21,3.64,3.64,0,0,1,1,.32,3.3,3.3,0,0,1,1.79,1.84A6.15,6.15,0,0,1,76.69,59Zm-.75-.06a5.68,5.68,0,0,0-.58-2.72,2.42,2.42,0,0,0-2.25-1.35,2,2,0,0,0-1.08.36,4.74,4.74,0,0,0-1.73,2.09A6.56,6.56,0,0,0,69.75,60a6,6,0,0,0,.1,1.25A3,3,0,0,0,70.92,63a2.94,2.94,0,0,0,1.92.69A2.64,2.64,0,0,0,75.27,62,6.64,6.64,0,0,0,75.94,58.9Z"/><path d="M85.24,62.74a1.64,1.64,0,0,1-.61,1,2.64,2.64,0,0,1-1,.72,3.06,3.06,0,0,1-.87.17,2,2,0,0,1-1.68-.8A2.93,2.93,0,0,1,80.53,62a8,8,0,0,1,.5-2.59q.61-1.77,1.53-1.77a2.49,2.49,0,0,1,1.15.42c.48.29.75.56.81.82a4.2,4.2,0,0,1,.11.92c0,1.1-.17,1.65-.5,1.65a.6.6,0,0,1-.28-.09c-.11-.06-.17-.13-.17-.21a.32.32,0,0,1,.06-.16l.08-.13a4,4,0,0,0,.06-.9c0-1.11-.25-1.66-.75-1.66s-1,.5-1.35,1.51A7.13,7.13,0,0,0,81.39,62a3.16,3.16,0,0,0,.25,1.35,1.12,1.12,0,0,0,1.07.71,1.78,1.78,0,0,0,1-.45,2.94,2.94,0,0,0,.78-.86c0-.11.1-.25.18-.43a.24.24,0,0,1,.21-.1c.06,0,.13.06.21.2A.65.65,0,0,1,85.24,62.74Z"/><path d="M90.75,61.34a4.32,4.32,0,0,1-.57,2.25,2.09,2.09,0,0,1-1.88,1.16,2,2,0,0,1-1.81-1,3.82,3.82,0,0,1-.5-2.07,5.88,5.88,0,0,1,.57-2.5c.48-1,1.09-1.52,1.83-1.52a1.74,1.74,0,0,1,.81.33A3.58,3.58,0,0,1,90.75,61.34Zm-.72,0a5.47,5.47,0,0,0-.26-1.73c-.25-.71-.63-1.06-1.15-1.06s-1.07.39-1.41,1.18a5,5,0,0,0-.39,2,4.13,4.13,0,0,0,.27,1.59,1.27,1.27,0,0,0,1.21.88,1.48,1.48,0,0,0,1.37-1A4.33,4.33,0,0,0,90,61.33Z"/><path d="M95.79,58.69c0,.31,0,.77-.1,1.38a14.37,14.37,0,0,0-.1,1.6c0,.18,0,.52,0,1s.06.87.06,1.09a1.31,1.31,0,0,1-.15.79.48.48,0,0,1-.26.06.44.44,0,0,1-.45-.28l-.12-.56a2,2,0,0,1-1.48.84,1.18,1.18,0,0,1-.9-.35,1.9,1.9,0,0,1-.62-.72,5.7,5.7,0,0,1-.21-1.91V58.39q-.09-.45.51-.45.42,0,.42.48c0,.48,0,1.1,0,1.87,0,1-.05,1.61-.05,1.88a2.35,2.35,0,0,0,.24,1.08c.2.43.46.64.77.64.51,0,.9-.34,1.18-1a4.56,4.56,0,0,0,.3-1.68v-2a1.14,1.14,0,0,0-.08-.34.94.94,0,0,1-.08-.35,1,1,0,0,1,0-.17.7.7,0,0,1,.42-.21C95.56,58.12,95.79,58.3,95.79,58.69Z"/><path d="M101.46,64.37a.28.28,0,0,1-.24.17,1.17,1.17,0,0,1-.51-.21v-.92c0-3.32-.42-5-1.24-5q-.39,0-.84.57a5.48,5.48,0,0,0-1.13,3.56,5.32,5.32,0,0,0,.08.83,6.76,6.76,0,0,1,.08.83c0,.15-.1.23-.3.23-.39,0-.58-.32-.58-1V60.1c0-.09,0-.22,0-.39s0-.3,0-.39a3.92,3.92,0,0,0-.06-.57,5.58,5.58,0,0,1,0-.56c0-.08.06-.17.19-.28a.53.53,0,0,1,.29-.15.46.46,0,0,1,.36.21c0,.65,0,1,0,1.14s0,.29,0,.43c.09,0,.21-.19.36-.49a3.62,3.62,0,0,1,.48-.78,1.08,1.08,0,0,1,.83-.42,1.68,1.68,0,0,1,.54.13,2,2,0,0,1,1.15,1,7.15,7.15,0,0,1,.59,3.14Z"/><path d="M104.93,59.57a1.38,1.38,0,0,1-.56.15,2.28,2.28,0,0,0-.57.11c0,.11,0,.66,0,1.66,0,.78,0,1.31,0,1.58a3,3,0,0,0,.08.52,4,4,0,0,1,.07.56.33.33,0,0,1-.15.24.45.45,0,0,1-.27.12c-.2,0-.36-.21-.48-.62a3.28,3.28,0,0,1-.12-.85V59.92c-.06-.05-.28-.05-.67,0s-.47-.08-.47-.35.41-.55,1.22-.52l.19-2.72a.33.33,0,0,0,0-.14.58.58,0,0,1,0-.14.24.24,0,0,1,.12-.18.43.43,0,0,1,.28-.06c.35,0,.52.2.52.52a8.75,8.75,0,0,1-.1,1.13,9.13,9.13,0,0,0-.11,1.11,1.27,1.27,0,0,0,0,.34l.82,0q.42,0,.42.33A.43.43,0,0,1,104.93,59.57Z"/><path d="M109.21,59s0,.12,0,.25-.26.3-.38.3a.25.25,0,0,1-.21-.15c0-.63-.29-.94-.78-.94-.32,0-.64.59-.94,1.77a6.6,6.6,0,0,0-.18,1.72,11,11,0,0,0,.07,1.7,1.87,1.87,0,0,0,.07.18.75.75,0,0,1,.07.22q0,.33-.45.33a.45.45,0,0,1-.51-.52,1.12,1.12,0,0,1,0-.22.79.79,0,0,0,0-.22c0-.55,0-1.37-.07-2.47s-.08-1.93-.08-2.48c0-.2,0-.32.11-.37a.89.89,0,0,1,.4-.06c.25,0,.4.09.44.27s0,.39,0,.58l.46-.67a.92.92,0,0,1,.69-.38,1.06,1.06,0,0,1,.54.17,1.8,1.8,0,0,1,.41.46A1.27,1.27,0,0,1,109.21,59Z"/><path d="M111,58.43a3.62,3.62,0,0,1-.13.81,4.12,4.12,0,0,0-.12.81v3.32a4.22,4.22,0,0,0,.14.9.18.18,0,0,1-.16.12.64.64,0,0,1-.73-.71v-5.5a.78.78,0,0,1,.37-.11.82.82,0,0,1,.38.11C111,58.25,111,58.33,111,58.43Zm.29-2.25q0,.51-.48.51a.79.79,0,0,1-.53-.21.63.63,0,0,1-.24-.48.45.45,0,0,1,.51-.51.77.77,0,0,1,.52.2A.64.64,0,0,1,111.33,56.18Z"/><path d="M116.23,62.81c0,.44-.29.84-.88,1.19a2.92,2.92,0,0,1-1.5.48q-2,0-2-2.55a8.1,8.1,0,0,1,.4-2.42q.54-1.68,1.38-1.68a2.52,2.52,0,0,1,1.58.73,2,2,0,0,1,.85,1.45,2.14,2.14,0,0,1-.75,1.62,2.43,2.43,0,0,1-1.69.69,1.24,1.24,0,0,1-.39-.15,1.09,1.09,0,0,0-.39-.15c-.13,0-.2,0-.2.12,0,1.15.38,1.72,1.14,1.72a1.71,1.71,0,0,0,1.08-.39,3.49,3.49,0,0,0,.66-.7c.19-.25.32-.38.38-.38C116.12,62.39,116.23,62.53,116.23,62.81Zm-1-2.76a1.74,1.74,0,0,0-.3-1,.91.91,0,0,0-.8-.46c-.4,0-.72.25-1,.75a2.91,2.91,0,0,0-.32,1.31,1,1,0,0,0,.28.72.91.91,0,0,0,.71.3,1.24,1.24,0,0,0,1-.53A1.76,1.76,0,0,0,115.2,60.05Z"/><path d="M121.27,63.42c0,.35-.26.65-.79.89a3.24,3.24,0,0,1-1.28.29,2.74,2.74,0,0,1-.93-.2,4.43,4.43,0,0,1-.91-.64c-.47-.37-.69-.62-.69-.77,0-.31.18-.45.55-.42h.09q0,.45,1,1a3,3,0,0,0,1.35.48q.66,0,.66-.45,0-.27-.81-.75a8.53,8.53,0,0,1-1.51-1,2.48,2.48,0,0,1-.83-1.83,3,3,0,0,1,.41-1.49,1.35,1.35,0,0,1,1.17-.84,2.27,2.27,0,0,1,1.22.47,1.75,1.75,0,0,1,.85,1,3.79,3.79,0,0,1,.12.95,4.09,4.09,0,0,1-.22,1.27.47.47,0,0,1-.31.11,1,1,0,0,1-.33-.09c-.15,0-.22-.11-.22-.17s.05-.07.16-.33a2.45,2.45,0,0,0,.12-.93c0-1.07-.33-1.6-1-1.6-.35,0-.63.23-.84.7a2.69,2.69,0,0,0-.27,1.16,1.9,1.9,0,0,0,.85,1.43,18.28,18.28,0,0,0,1.58,1C121,63,121.27,63.22,121.27,63.42Z"/><path d="M30.47,73.43a3.62,3.62,0,0,1-.13.81,4.32,4.32,0,0,0-.13.81v3.32a3.77,3.77,0,0,0,.15.9.18.18,0,0,1-.16.12.64.64,0,0,1-.74-.71v-5.5a.82.82,0,0,1,.38-.11.78.78,0,0,1,.37.11C30.38,73.25,30.47,73.33,30.47,73.43Zm.28-2.25q0,.51-.48.51a.77.77,0,0,1-.52-.21.63.63,0,0,1-.24-.48.45.45,0,0,1,.51-.51.77.77,0,0,1,.52.2A.64.64,0,0,1,30.75,71.18Z"/><path d="M36.26,79.37a.28.28,0,0,1-.24.17,1.17,1.17,0,0,1-.51-.21v-.92q0-5-1.24-5-.39,0-.84.57a5.54,5.54,0,0,0-1.13,3.56,6.94,6.94,0,0,0,.08.83,5.21,5.21,0,0,1,.08.83c0,.15-.1.23-.3.23-.39,0-.58-.32-.58-1V75.1c0-.09,0-.22,0-.39s0-.3,0-.39a5.49,5.49,0,0,0-.05-.57,4,4,0,0,1-.06-.56c0-.08.07-.17.19-.28a.56.56,0,0,1,.29-.15.46.46,0,0,1,.36.21c0,.65,0,1,0,1.14s0,.29,0,.43c.09,0,.21-.19.36-.49a3.62,3.62,0,0,1,.48-.78,1.08,1.08,0,0,1,.83-.42,1.68,1.68,0,0,1,.54.13,2,2,0,0,1,1.15,1,7.15,7.15,0,0,1,.59,3.14Z"/><path d="M44.93,69.76a5.55,5.55,0,0,1-.09.88c-.07.47-.12.77-.14.89q0,.47-.15,3.09c-.06,1.61-.09,2.49-.09,2.66a6.31,6.31,0,0,0,.29,2.27.32.32,0,0,1-.27.17.58.58,0,0,1-.34-.15.67.67,0,0,1-.23-.3,7,7,0,0,0-.09-.92,2.38,2.38,0,0,1-1.7,1.13,1.74,1.74,0,0,1-1.5-.74,2.79,2.79,0,0,1-.45-1.66,8,8,0,0,1,.47-2.61q.6-1.77,1.59-1.77a1.44,1.44,0,0,1,.85.31c.06,0,.3.25.71.63a40.31,40.31,0,0,0,.15-4.48.38.38,0,0,1,.28-.11.72.72,0,0,1,.71.71ZM43.8,75.31a2.36,2.36,0,0,0-.3-1.19,1.08,1.08,0,0,0-1-.63q-.75,0-1.2,1.53A7.35,7.35,0,0,0,41,77.2a2.83,2.83,0,0,0,.21,1.14A.91.91,0,0,0,42,79q.93,0,1.41-1.44A6.71,6.71,0,0,0,43.8,75.31Z"/><path d="M46.88,73.43a3.62,3.62,0,0,1-.13.81,4.32,4.32,0,0,0-.13.81v3.32a3.77,3.77,0,0,0,.15.9.18.18,0,0,1-.16.12.64.64,0,0,1-.74-.71v-5.5a.82.82,0,0,1,.38-.11.78.78,0,0,1,.37.11C46.79,73.25,46.88,73.33,46.88,73.43Zm.28-2.25q0,.51-.48.51a.77.77,0,0,1-.52-.21.63.63,0,0,1-.24-.48.45.45,0,0,1,.51-.51.77.77,0,0,1,.52.2A.64.64,0,0,1,47.16,71.18Z"/><path d="M52,70q0,.3-.45.3a.26.26,0,0,1-.14,0c0-.43-.32-.64-.84-.64s-.87.56-1.14,1.68a10.33,10.33,0,0,0-.27,2.28h.68c.37,0,.55.11.55.33a2.13,2.13,0,0,1,0,.3,1.62,1.62,0,0,1-.76.13,1.11,1.11,0,0,0-.48.06c0,.39,0,1.1,0,2.12v1.08a6.06,6.06,0,0,0,.18,1.45.39.39,0,0,1,0,.14q0,.36-.51.36c-.3,0-.45-.41-.45-1.22q0-3.3.06-3.9h-.76c-.23,0-.35-.11-.35-.33s.2-.43.6-.43h.54c0-.2,0-.46.06-.77q.23-4,2.24-4Q52,69,52,70Z"/><path d="M55.08,70q0,.3-.45.3a.23.23,0,0,1-.13,0c0-.43-.32-.64-.84-.64s-.87.56-1.14,1.68a10.33,10.33,0,0,0-.27,2.28h.67c.37,0,.56.11.56.33a2.13,2.13,0,0,1,0,.3,1.65,1.65,0,0,1-.76.13,1.17,1.17,0,0,0-.49.06c0,.39,0,1.1,0,2.12v1.08a6.06,6.06,0,0,0,.18,1.45.39.39,0,0,1,0,.14q0,.36-.51.36c-.3,0-.45-.41-.45-1.22q0-3.3.06-3.9H50.7c-.23,0-.34-.11-.34-.33s.2-.43.6-.43h.54c0-.2,0-.46.06-.77q.22-4,2.23-4Q55.08,69,55.08,70Z"/><path d="M58.08,77.81c0,.44-.29.84-.88,1.19a2.92,2.92,0,0,1-1.5.48q-2,0-2-2.55a8.1,8.1,0,0,1,.4-2.42q.54-1.68,1.38-1.68a2.52,2.52,0,0,1,1.58.73A2,2,0,0,1,57.9,75a2.14,2.14,0,0,1-.75,1.62,2.43,2.43,0,0,1-1.69.69,1.14,1.14,0,0,1-.38-.15,1.18,1.18,0,0,0-.4-.15c-.13,0-.2,0-.2.12,0,1.15.38,1.72,1.14,1.72a1.71,1.71,0,0,0,1.08-.39,3.49,3.49,0,0,0,.66-.7c.19-.25.32-.38.38-.38C58,77.39,58.08,77.53,58.08,77.81Zm-1-2.76a1.74,1.74,0,0,0-.3-1,.91.91,0,0,0-.8-.46c-.4,0-.72.25-1,.75a2.91,2.91,0,0,0-.32,1.31,1,1,0,0,0,.28.72.93.93,0,0,0,.71.3,1.24,1.24,0,0,0,1-.53A1.76,1.76,0,0,0,57.05,75.05Z"/><path d="M62.09,74s0,.12,0,.25-.25.3-.37.3a.25.25,0,0,1-.21-.15c0-.63-.29-.94-.78-.94-.32,0-.64.59-1,1.77a6.6,6.6,0,0,0-.18,1.72,10.48,10.48,0,0,0,.08,1.7,1.87,1.87,0,0,0,.07.18.66.66,0,0,1,.06.22q0,.33-.45.33a.45.45,0,0,1-.51-.52,1.31,1.31,0,0,1,0-.22,1.51,1.51,0,0,0,0-.22c0-.55,0-1.37-.08-2.47s-.07-1.93-.07-2.48c0-.2,0-.32.1-.37a.94.94,0,0,1,.41-.06c.25,0,.39.09.43.27l0,.58c.26-.4.41-.62.45-.67a.94.94,0,0,1,.69-.38,1,1,0,0,1,.54.17,1.63,1.63,0,0,1,.41.46A1.2,1.2,0,0,1,62.09,74Z"/><path d="M66.75,77.81c0,.44-.29.84-.88,1.19a2.92,2.92,0,0,1-1.5.48q-2,0-2-2.55a8.1,8.1,0,0,1,.4-2.42q.54-1.68,1.38-1.68a2.52,2.52,0,0,1,1.58.73A2,2,0,0,1,66.57,75a2.14,2.14,0,0,1-.75,1.62,2.43,2.43,0,0,1-1.69.69,1.24,1.24,0,0,1-.39-.15,1.09,1.09,0,0,0-.39-.15c-.13,0-.2,0-.2.12,0,1.15.38,1.72,1.14,1.72a1.71,1.71,0,0,0,1.08-.39,3.49,3.49,0,0,0,.66-.7c.19-.25.32-.38.38-.38C66.64,77.39,66.75,77.53,66.75,77.81Zm-1-2.76a1.74,1.74,0,0,0-.3-1,.91.91,0,0,0-.8-.46c-.4,0-.72.25-1,.75a2.91,2.91,0,0,0-.32,1.31,1,1,0,0,0,.28.72.91.91,0,0,0,.71.3,1.24,1.24,0,0,0,1-.53A1.76,1.76,0,0,0,65.72,75.05Z"/><path d="M72.18,79.37a.25.25,0,0,1-.24.17,1.27,1.27,0,0,1-.51-.21v-.92q0-5-1.24-5c-.26,0-.53.19-.83.57a5.49,5.49,0,0,0-1.14,3.56,5.62,5.62,0,0,0,.09.83,6.76,6.76,0,0,1,.08.83c0,.15-.1.23-.31.23-.38,0-.58-.32-.58-1V75.1c0-.09,0-.22,0-.39s0-.3,0-.39a3.63,3.63,0,0,0,0-.57,3.61,3.61,0,0,1,0-.56c0-.08.06-.17.18-.28a.58.58,0,0,1,.3-.15.46.46,0,0,1,.36.21c0,.65,0,1,0,1.14s0,.29,0,.43c.09,0,.21-.19.36-.49a3.62,3.62,0,0,1,.48-.78,1.06,1.06,0,0,1,.82-.42,1.68,1.68,0,0,1,.54.13,2,2,0,0,1,1.16,1,7.16,7.16,0,0,1,.58,3.14Z"/><path d="M75.66,74.57a1.45,1.45,0,0,1-.57.15,2.28,2.28,0,0,0-.57.11c0,.11,0,.66,0,1.66,0,.78,0,1.31,0,1.58a2.75,2.75,0,0,0,.07.52,3.08,3.08,0,0,1,.08.56.33.33,0,0,1-.15.24.45.45,0,0,1-.27.12c-.2,0-.36-.21-.48-.62a3.28,3.28,0,0,1-.12-.85V74.92c-.06,0-.28,0-.67,0s-.47-.08-.47-.35.4-.55,1.21-.52l.2-2.72a.33.33,0,0,0,0-.14.82.82,0,0,1,0-.14.24.24,0,0,1,.12-.18.46.46,0,0,1,.29-.06c.35,0,.52.2.52.52a8.75,8.75,0,0,1-.1,1.13,9.13,9.13,0,0,0-.11,1.11,1.87,1.87,0,0,0,0,.34l.83,0q.42,0,.42.33A.43.43,0,0,1,75.66,74.57Z"/><path d="M84.27,75.62a6.28,6.28,0,0,1-.43,2.49A2,2,0,0,1,82,79.51a1.82,1.82,0,0,1-1.44-.77c-.07,0-.1.34-.1.93a13.48,13.48,0,0,0,.19,2.76,2.3,2.3,0,0,0,.15.36,1.5,1.5,0,0,1,.12.35q0,.24-.3.24a.88.88,0,0,1-.5-.11,1.31,1.31,0,0,1-.25-.69,4.63,4.63,0,0,1-.09-.78V78q0-.52.06-1.41t.06-1.41q0-.4,0-1V73.06c0-.69.18-1,.54-1,.18,0,.27.07.27.2s0,.61-.06,1.09-.06.84-.06,1.08h.06l.69-.94a1.24,1.24,0,0,1,1-.53,1.63,1.63,0,0,1,1.51.9A3.53,3.53,0,0,1,84.27,75.62Zm-.75.06a4.93,4.93,0,0,0-.16-1.36c-.17-.56-.45-.84-.83-.84s-.62.24-1,.73a4,4,0,0,0-.73,1.32,7.89,7.89,0,0,0-.27,1.5q-.06.72-.06.69s0,.08.13.15l.18.14.49.69a.83.83,0,0,0,.74.36c.54,0,1-.45,1.23-1.35A6.78,6.78,0,0,0,83.52,75.68Z"/><path d="M89.34,79.73q0,.21-.33.21a.39.39,0,0,1-.43-.3,4.31,4.31,0,0,1,0-.58.55.55,0,0,0,0-.24,3,3,0,0,1-1.82.61,2.49,2.49,0,0,1-1.3-.37,1.22,1.22,0,0,1-.72-1c0-.41.28-.81.85-1.2A2.59,2.59,0,0,1,87,76.27h1.49a.45.45,0,0,0,.09-.32,5.16,5.16,0,0,0-.17-1.51,1.06,1.06,0,0,0-1.06-.86,1.32,1.32,0,0,0-1,.72,2.31,2.31,0,0,0-.44,1.26v.17a.11.11,0,0,1-.12.12.67.67,0,0,1-.51-.5,3,3,0,0,1,.26-1.06,3.24,3.24,0,0,1,.55-1,1.22,1.22,0,0,1,.93-.41,2.58,2.58,0,0,1,1.58.54,1.77,1.77,0,0,1,.78,1.41Zm-.79-2.38q0-.6-.93-.6a3.06,3.06,0,0,0-1.29.25,1.06,1.06,0,0,0-.71,1,.7.7,0,0,0,.38.63,1.4,1.4,0,0,0,.75.2A2,2,0,0,0,88,78.4,1.27,1.27,0,0,0,88.55,77.35Z"/><path d="M93.74,74s0,.12,0,.25-.25.3-.37.3a.25.25,0,0,1-.21-.15c0-.63-.29-.94-.78-.94-.32,0-.64.59-1,1.77a6.6,6.6,0,0,0-.18,1.72,10.48,10.48,0,0,0,.08,1.7,1.87,1.87,0,0,0,.07.18.66.66,0,0,1,.06.22q0,.33-.45.33a.45.45,0,0,1-.51-.52,1.31,1.31,0,0,1,0-.22.79.79,0,0,0,0-.22c0-.55,0-1.37-.08-2.47s-.07-1.93-.07-2.48c0-.2,0-.32.1-.37a.94.94,0,0,1,.41-.06c.25,0,.39.09.43.27l0,.58c.26-.4.41-.62.45-.67a.94.94,0,0,1,.69-.38,1,1,0,0,1,.54.17,1.79,1.79,0,0,1,.42.46A1.27,1.27,0,0,1,93.74,74Z"/><path d="M96.9,74.57a1.45,1.45,0,0,1-.57.15,2.28,2.28,0,0,0-.57.11c0,.11,0,.66,0,1.66,0,.78,0,1.31,0,1.58a2.75,2.75,0,0,0,.07.52,3.08,3.08,0,0,1,.08.56.33.33,0,0,1-.15.24.45.45,0,0,1-.27.12c-.2,0-.36-.21-.48-.62a3.28,3.28,0,0,1-.12-.85V74.92c-.06,0-.28,0-.67,0s-.47-.08-.47-.35.4-.55,1.21-.52l.2-2.72a.33.33,0,0,0,0-.14.82.82,0,0,1,0-.14.24.24,0,0,1,.12-.18.46.46,0,0,1,.29-.06c.35,0,.52.2.52.52a8.75,8.75,0,0,1-.1,1.13,9.13,9.13,0,0,0-.11,1.11,1.87,1.87,0,0,0,0,.34l.83,0q.42,0,.42.33A.43.43,0,0,1,96.9,74.57Z"/><path d="M101.85,78.42c0,.35-.26.65-.79.89a3.24,3.24,0,0,1-1.28.29,2.74,2.74,0,0,1-.93-.2,4.43,4.43,0,0,1-.91-.64c-.46-.37-.69-.62-.69-.77,0-.31.18-.45.55-.42h.09q0,.45,1,1a3,3,0,0,0,1.35.48q.66,0,.66-.45,0-.27-.81-.75a8.53,8.53,0,0,1-1.51-1A2.48,2.48,0,0,1,97.71,75a3,3,0,0,1,.41-1.49,1.35,1.35,0,0,1,1.17-.84,2.32,2.32,0,0,1,1.23.47,1.77,1.77,0,0,1,.84,1,3.38,3.38,0,0,1,.12,1,4.37,4.37,0,0,1-.21,1.27.52.52,0,0,1-.32.11,1,1,0,0,1-.33-.09c-.15,0-.22-.11-.22-.17s0-.07.16-.33a2.45,2.45,0,0,0,.12-.93c0-1.07-.33-1.6-1-1.6-.35,0-.63.23-.84.7a2.69,2.69,0,0,0-.27,1.16,1.9,1.9,0,0,0,.85,1.43,18.28,18.28,0,0,0,1.58,1C101.57,78,101.85,78.22,101.85,78.42Z"/><path d="M110.52,76.34a4.32,4.32,0,0,1-.57,2.25,2.08,2.08,0,0,1-1.87,1.16,2,2,0,0,1-1.82-1,3.82,3.82,0,0,1-.49-2.07,5.88,5.88,0,0,1,.57-2.5c.48-1,1.09-1.52,1.83-1.52A1.74,1.74,0,0,1,109,73,3.57,3.57,0,0,1,110.52,76.34Zm-.72,0a5.48,5.48,0,0,0-.25-1.73c-.25-.71-.64-1.06-1.16-1.06s-1.07.39-1.41,1.18a5,5,0,0,0-.39,2,4.13,4.13,0,0,0,.27,1.59,1.28,1.28,0,0,0,1.22.88,1.47,1.47,0,0,0,1.36-1A4.33,4.33,0,0,0,109.8,76.33Z"/><path d="M115.76,70q0,.3-.45.3a.26.26,0,0,1-.14,0c0-.43-.32-.64-.84-.64s-.87.56-1.14,1.68a10.33,10.33,0,0,0-.27,2.28h.68c.37,0,.55.11.55.33a2.13,2.13,0,0,1,0,.3,1.62,1.62,0,0,1-.76.13,1.11,1.11,0,0,0-.48.06c0,.39,0,1.1,0,2.12v1.08A6.06,6.06,0,0,0,113,79.1a.39.39,0,0,1,0,.14q0,.36-.51.36c-.3,0-.45-.41-.45-1.22q0-3.3.06-3.9h-.76c-.23,0-.35-.11-.35-.33s.2-.43.6-.43h.54c0-.2,0-.46.06-.77q.22-4,2.24-4Q115.76,69,115.76,70Z"/><path d="M53.73,89.57a1.45,1.45,0,0,1-.57.15,2.28,2.28,0,0,0-.57.11c0,.11,0,.66,0,1.66,0,.78,0,1.31,0,1.58a2.75,2.75,0,0,0,.07.52,3.08,3.08,0,0,1,.08.56.33.33,0,0,1-.15.24.45.45,0,0,1-.27.12c-.2,0-.36-.21-.48-.62a3.28,3.28,0,0,1-.12-.85V89.92a1.36,1.36,0,0,0-.68,0c-.31,0-.46-.08-.46-.35s.4-.55,1.21-.52l.2-2.72a.63.63,0,0,0,0-.14.38.38,0,0,1,0-.14.24.24,0,0,1,.12-.18.46.46,0,0,1,.29-.06c.35,0,.52.2.52.52a8.75,8.75,0,0,1-.1,1.13,9.13,9.13,0,0,0-.11,1.11,1.87,1.87,0,0,0,0,.34l.83,0q.42,0,.42.33A.43.43,0,0,1,53.73,89.57Z"/><path d="M58.49,94.7a.64.64,0,0,1-.45.12.5.5,0,0,1-.35-.21v-2c0-2.54-.42-3.81-1.27-3.81a1,1,0,0,0-.89.63,2.17,2.17,0,0,0-.31,1.11,1,1,0,0,1,0,.18.63.63,0,0,0,0,.19v1.92a5.37,5.37,0,0,0,.08.74,5,5,0,0,1,.07.72q0,.24-.36.24a.52.52,0,0,1-.43-.24.88.88,0,0,1-.17-.5l.09-9.24a.57.57,0,0,1,0-.18q0-.27.3-.27a.93.93,0,0,1,.44.2c.2.14.3.25.3.34a5.21,5.21,0,0,1-.15,1,5.81,5.81,0,0,0-.14,1s0,.69,0,2a1.6,1.6,0,0,1,.86-.5,3.07,3.07,0,0,1,1.15.29c.87.36,1.31,1.31,1.31,2.85Z"/><path d="M63.74,92.81c0,.44-.3.84-.89,1.19a2.92,2.92,0,0,1-1.5.48q-2,0-2-2.55a8.13,8.13,0,0,1,.41-2.42q.54-1.68,1.38-1.68a2.5,2.5,0,0,1,1.57.73A2,2,0,0,1,63.56,90a2.14,2.14,0,0,1-.75,1.62,2.45,2.45,0,0,1-1.7.69,1.14,1.14,0,0,1-.38-.15,1.18,1.18,0,0,0-.4-.15c-.13,0-.19,0-.19.12,0,1.15.38,1.72,1.14,1.72a1.71,1.71,0,0,0,1.08-.39,3.49,3.49,0,0,0,.66-.7c.19-.25.31-.38.37-.38C63.62,92.39,63.74,92.53,63.74,92.81Zm-1-2.76a1.74,1.74,0,0,0-.3-1,.9.9,0,0,0-.79-.46,1.12,1.12,0,0,0-1,.75,2.9,2.9,0,0,0-.31,1.31,1,1,0,0,0,.28.72.91.91,0,0,0,.71.3,1.24,1.24,0,0,0,1-.53A1.75,1.75,0,0,0,62.7,90.05Z"/><path d="M74.48,89.51a10.82,10.82,0,0,1-.38,2.82q-.52,2-1.53,2a1.49,1.49,0,0,1-1.26-.91l-.39-.92-.06,0c-.14.4-.28.8-.43,1.2a1,1,0,0,1-1,.69q-1.91,0-1.9-4.57,0-1,.06-1.65a.32.32,0,0,1,.27-.15.86.86,0,0,1,.39.12c.15.09.22.19.22.3a2.6,2.6,0,0,1-.1.6,3.36,3.36,0,0,0-.09.66c0,2.6.33,3.9,1,3.9.43,0,.78-.49,1-1.47a7.18,7.18,0,0,0,.3-2V88.67c0-.21.12-.31.36-.31s.43.2.43.6c0,.05,0,.12,0,.22a1.11,1.11,0,0,0,0,.23v1.84a4.71,4.71,0,0,0,.22,1.38c.19.65.45,1,.77,1s.79-.55,1.08-1.64a8.83,8.83,0,0,0,.33-2.2,3.19,3.19,0,0,0-.12-1.16,1,1,0,0,0-.11-.13.35.35,0,0,1-.1-.17.5.5,0,0,1,.45-.46C74.3,87.85,74.48,88.4,74.48,89.51Z"/><path d="M79.86,91.34a4.32,4.32,0,0,1-.57,2.25,2.08,2.08,0,0,1-1.87,1.16,2,2,0,0,1-1.82-1,3.82,3.82,0,0,1-.49-2.07,5.88,5.88,0,0,1,.57-2.5c.48-1,1.09-1.52,1.83-1.52a1.74,1.74,0,0,1,.81.33A3.57,3.57,0,0,1,79.86,91.34Zm-.72,0a5.48,5.48,0,0,0-.25-1.73c-.25-.71-.64-1.06-1.16-1.06s-1.07.39-1.41,1.18a5,5,0,0,0-.39,2,4.13,4.13,0,0,0,.27,1.59,1.28,1.28,0,0,0,1.22.88,1.47,1.47,0,0,0,1.36-1A4.33,4.33,0,0,0,79.14,91.33Z"/><path d="M83.94,89s0,.12,0,.25-.26.3-.38.3a.25.25,0,0,1-.21-.15c0-.63-.29-.94-.78-.94-.32,0-.63.59-.94,1.77a6.6,6.6,0,0,0-.18,1.72,11,11,0,0,0,.07,1.7l.08.18a.66.66,0,0,1,.06.22q0,.33-.45.33a.45.45,0,0,1-.51-.52.73.73,0,0,1,0-.22,1.22,1.22,0,0,0,0-.22c0-.55,0-1.37-.07-2.47s-.08-1.93-.08-2.48c0-.2,0-.32.11-.37a.89.89,0,0,1,.4-.06c.25,0,.4.09.44.27l0,.58c.26-.4.41-.62.45-.67a.94.94,0,0,1,.69-.38,1,1,0,0,1,.54.17,1.63,1.63,0,0,1,.41.46A1.27,1.27,0,0,1,83.94,89Z"/><path d="M85.8,94.15q0,.39-.42.39c-.44,0-.65-.91-.64-2.72l0-6.73a3.5,3.5,0,0,0,0-.48,3.54,3.54,0,0,1,0-.45.88.88,0,0,1,.48-.21.72.72,0,0,1,.42.15.44.44,0,0,1,.21.36,1.34,1.34,0,0,1-.07.39c-.06.2-.1.32-.11.37a17.36,17.36,0,0,0-.18,2.85c0,2,0,2.92,0,2.85a16.65,16.65,0,0,0,.24,2.78.65.65,0,0,0,.07.2A.74.74,0,0,1,85.8,94.15Z"/><path d="M91.31,84.76a5.55,5.55,0,0,1-.09.88c-.07.47-.12.77-.14.89q0,.47-.15,3.09c-.06,1.61-.09,2.49-.09,2.66a6.31,6.31,0,0,0,.29,2.27.32.32,0,0,1-.27.17.58.58,0,0,1-.34-.15.67.67,0,0,1-.23-.3,7,7,0,0,0-.09-.92,2.38,2.38,0,0,1-1.7,1.13,1.74,1.74,0,0,1-1.5-.74,2.79,2.79,0,0,1-.45-1.66A8,8,0,0,1,87,89.47q.6-1.77,1.59-1.77a1.44,1.44,0,0,1,.85.31c.06,0,.3.25.71.63a40.31,40.31,0,0,0,.15-4.48.38.38,0,0,1,.28-.11.72.72,0,0,1,.71.71Zm-1.13,5.55a2.36,2.36,0,0,0-.3-1.19,1.08,1.08,0,0,0-1-.63q-.75,0-1.2,1.53a7.35,7.35,0,0,0-.36,2.18,2.83,2.83,0,0,0,.21,1.14.91.91,0,0,0,.85.63q.93,0,1.41-1.44A6.71,6.71,0,0,0,90.18,90.31Z"/><path d="M93.38,94c0,.14-.1.26-.29.36a1,1,0,0,1-.46.12.64.64,0,0,1-.45-.18.56.56,0,0,1-.2-.42.46.46,0,0,1,.53-.51,1.14,1.14,0,0,1,.58.17A.53.53,0,0,1,93.38,94Z"/></g></g></g></svg>