<svg xmlns="http://www.w3.org/2000/svg" viewBox="0 0 181.44 127.34"><defs><style>.cls-1{fill:#fff;}.cls-2{fill:none;stroke:#e6dee1;stroke-miterlimit:10;stroke-width:2.47px;}</style></defs><title>7</title><g id="Layer_2" data-name="Layer 2"><g id="Facts"><g id="_7" data-name="7"><path class="cls-1" d="M180.2,63.67c0,2.52-3.16,4.74-3.59,7.17s1.79,5.61.95,8-4.55,3.39-5.75,5.6,0,5.84-1.52,7.88-5.32,2-7.06,3.8-1.47,5.64-3.4,7.28-5.65.74-7.73,2.18c-2.52,1.75-3.64,5.91-6.45,7.43s-6.8.16-9.74,1.4-4.74,5.06-7.77,6-6.73-1.08-9.83-.36-5.53,4.19-8.66,4.66-6.5-2.14-9.66-1.9-6.1,3.3-9.27,3.3-6.19-3.08-9.27-3.3-6.61,2.36-9.66,1.9-5.66-4-8.66-4.66-6.91,1.3-9.84.36-4.94-4.84-7.77-6-7,.07-9.74-1.4-3.93-5.68-6.44-7.43c-2.09-1.44-5.87-.6-7.73-2.18s-1.72-5.5-3.4-7.27-5.61-1.85-7.07-3.81-.35-5.72-1.52-7.88-4.92-3.28-5.75-5.6,1.38-5.52,1-8-3.58-4.65-3.58-7.17S4.4,58.93,4.82,56.5s-1.78-5.61-.94-8,4.54-3.4,5.74-5.61,0-5.84,1.52-7.87,5.33-2,7.07-3.81,1.46-5.64,3.4-7.27,5.64-.75,7.73-2.19C31.85,20,33,15.88,35.78,14.36s6.81-.15,9.74-1.39,4.74-5.07,7.77-6S60,8,63.13,7.3s5.52-4.2,8.66-4.67,6.49,2.14,9.66,1.91,6.1-3.3,9.27-3.3,6.19,3.07,9.27,3.3,6.6-2.37,9.65-1.91,5.66,4,8.67,4.66,6.9-1.3,9.83-.36,4.94,4.84,7.77,6,7.05-.07,9.75,1.39,3.92,5.69,6.44,7.43c2.08,1.44,5.86.61,7.73,2.19s1.71,5.49,3.4,7.27,5.61,1.84,7.06,3.81.35,5.72,1.52,7.87,4.92,3.28,5.75,5.61-1.38,5.51-.95,8S180.2,61.16,180.2,63.67Z"/><path class="cls-2" d="M180.2,63.67c0,2.52-3.16,4.74-3.59,7.17s1.79,5.61.95,8-4.55,3.39-5.75,5.6,0,5.84-1.52,7.88-5.32,2-7.06,3.8-1.47,5.64-3.4,7.28-5.65.74-7.73,2.18c-2.52,1.75-3.64,5.91-6.45,7.43s-6.8.16-9.74,1.4-4.74,5.06-7.77,6-6.73-1.08-9.83-.36-5.53,4.19-8.66,4.66-6.5-2.14-9.66-1.9-6.1,3.3-9.27,3.3-6.19-3.08-9.27-3.3-6.61,2.36-9.66,1.9-5.66-4-8.66-4.66-6.91,1.3-9.84.36-4.94-4.84-7.77-6-7,.07-9.74-1.4-3.93-5.68-6.44-7.43c-2.09-1.44-5.87-.6-7.73-2.18s-1.72-5.5-3.4-7.27-5.61-1.85-7.07-3.81-.35-5.72-1.52-7.88-4.92-3.28-5.75-5.6,1.38-5.52,1-8-3.58-4.65-3.58-7.17S4.4,58.93,4.82,56.5s-1.78-5.61-.94-8,4.54-3.4,5.74-5.61,0-5.84,1.52-7.87,5.33-2,7.07-3.81,1.46-5.64,3.4-7.27,5.64-.75,7.73-2.19C31.85,20,33,15.88,35.78,14.36s6.81-.15,9.74-1.39,4.74-5.07,7.77-6S60,8,63.13,7.3s5.52-4.2,8.66-4.67,6.49,2.14,9.66,1.91,6.1-3.3,9.27-3.3,6.19,3.07,9.27,3.3,6.6-2.37,9.65-1.91,5.66,4,8.67,4.66,6.9-1.3,9.83-.36,4.94,4.84,7.77,6,7.05-.07,9.75,1.39,3.92,5.69,6.44,7.43c2.08,1.44,5.86.61,7.73,2.19s1.71,5.49,3.4,7.27,5.61,1.84,7.06,3.81.35,5.72,1.52,7.87,4.92,3.28,5.75,5.61-1.38,5.51-.95,8S180.2,61.16,180.2,63.67Z"/><path d="M53.87,23.57c0,.25-.08.38-.25.38a1.47,1.47,0,0,0-.33-.17,3.3,3.3,0,0,0-1.16-.12h-.68a.63.63,0,0,0-.45.11,1.14,1.14,0,0,0-.15.51c0,.27-.09.66-.17,1.18a39.91,39.91,0,0,0-.29,4.91A5.49,5.49,0,0,0,50.81,33q0,.21-.15.21c-.53,0-.86-.3-1-.9a7.6,7.6,0,0,1-.09-1.5c0-1.12,0-2,.07-2.54,0-.27.07-.9.17-1.89q.12-1.18.12-1.89c0-.57,0-.71,0-.42,0-.15-.07-.22-.19-.22a4.37,4.37,0,0,0-.8.1,4.8,4.8,0,0,1-.81.11.74.74,0,0,1-.78-.48c.1-.17.85-.34,2.24-.51,1.16-.13,2-.2,2.53-.2Q53.87,22.85,53.87,23.57Z"/><path d="M58.67,33.34a.64.64,0,0,1-.45.12.48.48,0,0,1-.34-.21V31.19c0-2.54-.42-3.81-1.27-3.81a1,1,0,0,0-.89.63,2.18,2.18,0,0,0-.32,1.11,1,1,0,0,1,0,.19.58.58,0,0,0,0,.19v1.92a4.94,4.94,0,0,0,.07.73,5.31,5.31,0,0,1,.08.72q0,.24-.36.24a.52.52,0,0,1-.43-.24.86.86,0,0,1-.17-.5l.09-9.23a.57.57,0,0,1,0-.18q0-.27.3-.27a.84.84,0,0,1,.44.2c.2.13.29.25.29.34a5.13,5.13,0,0,1-.14,1,5.81,5.81,0,0,0-.14,1s0,.69,0,2a1.55,1.55,0,0,1,.85-.49,3.07,3.07,0,0,1,1.16.28c.87.36,1.3,1.31,1.3,2.85Z"/><path d="M63.92,31.45c0,.44-.29.83-.88,1.18a2.92,2.92,0,0,1-1.5.48q-2,0-2-2.55a8,8,0,0,1,.4-2.41q.54-1.68,1.38-1.68a2.56,2.56,0,0,1,1.58.72,2,2,0,0,1,.85,1.45A2.14,2.14,0,0,1,63,30.26,2.43,2.43,0,0,1,61.3,31a1.14,1.14,0,0,1-.38-.15,1.18,1.18,0,0,0-.4-.15c-.13,0-.2,0-.2.12,0,1.15.38,1.73,1.14,1.73a1.71,1.71,0,0,0,1.08-.39,3.59,3.59,0,0,0,.66-.71c.19-.25.32-.37.38-.37C63.81,31,63.92,31.17,63.92,31.45Zm-1-2.76a1.79,1.79,0,0,0-.3-1,.92.92,0,0,0-.8-.45c-.4,0-.72.25-1,.75a2.87,2.87,0,0,0-.32,1.3,1.05,1.05,0,0,0,.28.73,1,1,0,0,0,.71.29,1.23,1.23,0,0,0,1-.52A1.76,1.76,0,0,0,62.89,28.69Z"/><path d="M74.65,33a1,1,0,0,1-.48.19.69.69,0,0,1-.3-.1V31.5c0-3.09-.32-4.63-1-4.63-.37,0-.7.48-1,1.44a7.68,7.68,0,0,0-.32,2v1.5a1.13,1.13,0,0,0,.07.34,1.3,1.3,0,0,1,.06.32.31.31,0,0,1-.16.24.53.53,0,0,1-.29.12.43.43,0,0,1-.3-.19.51.51,0,0,1-.16-.32v-3A5.86,5.86,0,0,0,70.67,28q-.21-.93-.51-.93c-.11,0-.27.14-.49.42a5.58,5.58,0,0,0-1.13,3.54,7.11,7.11,0,0,0,.06.76,6.82,6.82,0,0,1,.06.74c0,.3-.12.45-.37.45a.42.42,0,0,1-.32-.15,2.35,2.35,0,0,1-.13-.67,7,7,0,0,1-.08-.74V27.92q0-1.53.36-1.53a.48.48,0,0,1,.31.14.41.41,0,0,1,.16.3,4.92,4.92,0,0,1-.09.82c-.06.44-.1.72-.11.83l.08.07L69,27.26c.27-.55.59-.82,1-.82s1,.56,1.35,1.68a3.16,3.16,0,0,0,.37-.75,3.69,3.69,0,0,1,.41-.81.86.86,0,0,1,.7-.36,1.34,1.34,0,0,1,.9.54,5.19,5.19,0,0,1,.92,3.53Z"/><path d="M80.27,30a4.32,4.32,0,0,1-.57,2.25,2.07,2.07,0,0,1-1.87,1.15A2,2,0,0,1,76,32.44a3.82,3.82,0,0,1-.49-2.07,5.92,5.92,0,0,1,.57-2.51c.48-1,1.09-1.51,1.83-1.51a1.74,1.74,0,0,1,.81.33A3.57,3.57,0,0,1,80.27,30Zm-.72,0a5.41,5.41,0,0,0-.25-1.72c-.25-.71-.64-1.07-1.16-1.07s-1.07.4-1.41,1.19a4.93,4.93,0,0,0-.39,2,4.13,4.13,0,0,0,.27,1.59,1.29,1.29,0,0,0,1.22.89,1.47,1.47,0,0,0,1.36-1A4.38,4.38,0,0,0,79.55,30Z"/><path d="M85.51,32.06c0,.35-.27.64-.8.88a3,3,0,0,1-1.27.29,2.52,2.52,0,0,1-.93-.2,4.67,4.67,0,0,1-.92-.63c-.46-.37-.69-.63-.69-.77,0-.31.19-.45.56-.42h.09c0,.3.34.63,1,1a3,3,0,0,0,1.35.49c.44,0,.66-.15.66-.46s-.27-.43-.81-.75a8.81,8.81,0,0,1-1.52-1,2.5,2.5,0,0,1-.82-1.84,3,3,0,0,1,.4-1.49,1.35,1.35,0,0,1,1.17-.84,2.41,2.41,0,0,1,1.23.47,1.82,1.82,0,0,1,.84,1,3.3,3.3,0,0,1,.12.94,4.43,4.43,0,0,1-.21,1.28.48.48,0,0,1-.31.1,1.25,1.25,0,0,1-.33-.08c-.15-.06-.23-.11-.23-.17s.06-.07.17-.33a2.45,2.45,0,0,0,.12-.93c0-1.07-.34-1.61-1-1.61-.35,0-.63.24-.84.71a2.66,2.66,0,0,0-.27,1.16,1.9,1.9,0,0,0,.86,1.42,17.45,17.45,0,0,0,1.57,1C85.22,31.58,85.51,31.86,85.51,32.06Z"/><path d="M88.75,28.21a1.45,1.45,0,0,1-.57.15,2.53,2.53,0,0,0-.57.1c0,.11,0,.67,0,1.67,0,.78,0,1.3,0,1.57a3.08,3.08,0,0,0,.08.53,2.81,2.81,0,0,1,.07.55.33.33,0,0,1-.15.24.45.45,0,0,1-.27.12c-.2,0-.36-.2-.48-.61a3.36,3.36,0,0,1-.12-.86V28.55c-.06-.05-.28-.05-.67,0s-.47-.07-.47-.34.41-.56,1.22-.53L87,25a.41.41,0,0,0,0-.15.5.5,0,0,1,0-.14.21.21,0,0,1,.12-.17.38.38,0,0,1,.28-.07c.35,0,.53.21.53.53a9.07,9.07,0,0,1-.11,1.12,8.65,8.65,0,0,0-.1,1.11,2,2,0,0,0,0,.35l.82-.05q.42,0,.42.33A.44.44,0,0,1,88.75,28.21Z"/><path d="M97.57,31.37c0,.25-.21.57-.62,1a2.74,2.74,0,0,1-1,.72,3,3,0,0,1-.87.16,1.94,1.94,0,0,1-1.68-.8,2.93,2.93,0,0,1-.54-1.83A8,8,0,0,1,93.35,28q.62-1.77,1.53-1.77a2.45,2.45,0,0,1,1.16.43c.48.28.75.56.81.82a4.09,4.09,0,0,1,.1.91c0,1.1-.16,1.65-.49,1.65a.64.64,0,0,1-.29-.09c-.11-.06-.16-.13-.16-.21a.35.35,0,0,1,.06-.16l.07-.12a4,4,0,0,0,.06-.9c0-1.11-.25-1.67-.75-1.67s-1,.51-1.35,1.52a7,7,0,0,0-.39,2.23A3.15,3.15,0,0,0,94,32a1.12,1.12,0,0,0,1.06.71,1.8,1.8,0,0,0,1-.46,2.94,2.94,0,0,0,.78-.86L97,31a.25.25,0,0,1,.21-.11c.06,0,.13.07.22.2A.78.78,0,0,1,97.57,31.37Z"/><path d="M103.07,30a4.32,4.32,0,0,1-.57,2.25,2.07,2.07,0,0,1-1.87,1.15,2,2,0,0,1-1.82-.94,3.82,3.82,0,0,1-.49-2.07,5.92,5.92,0,0,1,.57-2.51c.48-1,1.09-1.51,1.83-1.51a1.74,1.74,0,0,1,.81.33A3.57,3.57,0,0,1,103.07,30Zm-.72,0a5.41,5.41,0,0,0-.25-1.72c-.25-.71-.64-1.07-1.16-1.07s-1.07.4-1.41,1.19a4.93,4.93,0,0,0-.39,2,4.13,4.13,0,0,0,.27,1.59,1.29,1.29,0,0,0,1.22.89,1.47,1.47,0,0,0,1.36-1A4.38,4.38,0,0,0,102.35,30Z"/><path d="M110.92,33a1,1,0,0,1-.48.19.69.69,0,0,1-.3-.1V31.5c0-3.09-.32-4.63-1-4.63-.38,0-.7.48-1,1.44a7.68,7.68,0,0,0-.32,2v1.5a1.43,1.43,0,0,0,.06.34,1,1,0,0,1,.07.32.31.31,0,0,1-.16.24.53.53,0,0,1-.29.12.43.43,0,0,1-.3-.19.51.51,0,0,1-.16-.32v-3a5.86,5.86,0,0,0-.17-1.22q-.21-.93-.51-.93c-.11,0-.27.14-.49.42a5.58,5.58,0,0,0-1.13,3.54,7.11,7.11,0,0,0,.06.76,6.82,6.82,0,0,1,.06.74c0,.3-.12.45-.37.45a.42.42,0,0,1-.32-.15,2.35,2.35,0,0,1-.13-.67,7,7,0,0,1-.08-.74V27.92q0-1.53.36-1.53a.5.5,0,0,1,.31.14.45.45,0,0,1,.16.3,4.92,4.92,0,0,1-.09.82c-.06.44-.1.72-.11.83l.08.07.57-1.29c.27-.55.59-.82,1-.82q.78,0,1.35,1.68a3.16,3.16,0,0,0,.37-.75,3.69,3.69,0,0,1,.41-.81.86.86,0,0,1,.7-.36,1.34,1.34,0,0,1,.9.54,5.19,5.19,0,0,1,.92,3.53Z"/><path d="M118.79,33a1,1,0,0,1-.48.19.69.69,0,0,1-.3-.1V31.5c0-3.09-.31-4.63-1-4.63-.37,0-.7.48-1,1.44a7.33,7.33,0,0,0-.33,2v1.5a1.13,1.13,0,0,0,.07.34,1.44,1.44,0,0,1,.07.32c0,.08-.06.16-.17.24a.5.5,0,0,1-.28.12.43.43,0,0,1-.3-.19.53.53,0,0,1-.17-.32v-3a5.75,5.75,0,0,0-.16-1.22q-.21-.93-.51-.93c-.11,0-.28.14-.5.42a5.57,5.57,0,0,0-1.12,3.54,7.11,7.11,0,0,0,.06.76,6.82,6.82,0,0,1,.06.74c0,.3-.13.45-.38.45a.4.4,0,0,1-.31-.15,2.18,2.18,0,0,1-.14-.67,6.19,6.19,0,0,1-.07-.74V27.92q0-1.53.36-1.53a.46.46,0,0,1,.3.14.41.41,0,0,1,.16.3,4.92,4.92,0,0,1-.09.82c-.06.44-.09.72-.1.83l.07.07.57-1.29c.27-.55.59-.82,1-.82s1,.56,1.35,1.68a3.08,3.08,0,0,0,.38-.75,3.75,3.75,0,0,1,.4-.81.88.88,0,0,1,.71-.36,1.34,1.34,0,0,1,.9.54,5.2,5.2,0,0,1,.91,3.53Z"/><path d="M124.42,30a4.32,4.32,0,0,1-.57,2.25A2.08,2.08,0,0,1,122,33.38a2,2,0,0,1-1.81-.94,3.82,3.82,0,0,1-.5-2.07,5.92,5.92,0,0,1,.57-2.51c.48-1,1.09-1.51,1.83-1.51a1.74,1.74,0,0,1,.81.33A3.58,3.58,0,0,1,124.42,30Zm-.72,0a5.4,5.4,0,0,0-.26-1.72c-.25-.71-.63-1.07-1.15-1.07s-1.07.4-1.41,1.19a4.93,4.93,0,0,0-.39,2,4.13,4.13,0,0,0,.27,1.59,1.28,1.28,0,0,0,1.21.89,1.48,1.48,0,0,0,1.37-1A4.38,4.38,0,0,0,123.7,30Z"/><path d="M129.92,33a.26.26,0,0,1-.24.16,1.27,1.27,0,0,1-.51-.21v-.91q0-5-1.24-5c-.26,0-.54.19-.83.57A5.46,5.46,0,0,0,126,31.19,6.76,6.76,0,0,0,126,32a5.73,5.73,0,0,1,.09.84c0,.15-.11.22-.31.22-.39,0-.58-.31-.58-.94V28.73c0-.09,0-.22,0-.39s0-.3,0-.39a5.49,5.49,0,0,0,0-.57,3.51,3.51,0,0,1,0-.55.41.41,0,0,1,.18-.28.54.54,0,0,1,.3-.16.46.46,0,0,1,.36.21c0,.65-.05,1-.05,1.14s0,.3,0,.44c.09,0,.21-.2.36-.5a3.62,3.62,0,0,1,.48-.78,1.06,1.06,0,0,1,.82-.42,1.77,1.77,0,0,1,.54.14,2,2,0,0,1,1.16,1,7.11,7.11,0,0,1,.58,3.13Z"/><path d="M34.44,38.68q0,.3-.45.3a.17.17,0,0,1-.13,0c0-.42-.32-.64-.84-.64s-.87.56-1.14,1.69a10.24,10.24,0,0,0-.27,2.27h.67c.37,0,.56.11.56.33a2.13,2.13,0,0,1,0,.3,1.66,1.66,0,0,1-.76.14,1.14,1.14,0,0,0-.49.06c0,.39,0,1.09,0,2.11v1.08a6.68,6.68,0,0,0,.17,1.46.38.38,0,0,1,0,.13q0,.36-.51.36c-.3,0-.45-.4-.45-1.21q0-3.3.06-3.9h-.77c-.23,0-.34-.11-.34-.33s.2-.44.6-.44h.54c0-.2,0-.45.06-.76q.22-4,2.23-4Q34.44,37.6,34.44,38.68Z"/><path d="M35,47.78q0,.39-.42.39c-.44,0-.66-.9-.65-2.71L34,38.72a3.59,3.59,0,0,0-.05-.47,3.38,3.38,0,0,1,0-.46.88.88,0,0,1,.48-.21.72.72,0,0,1,.42.15.44.44,0,0,1,.21.36,1.41,1.41,0,0,1-.08.39c-.06.2-.09.33-.1.38a17.36,17.36,0,0,0-.18,2.85c0,2,0,2.92,0,2.85a16.51,16.51,0,0,0,.24,2.77.57.57,0,0,0,.07.2A.88.88,0,0,1,35,47.78Z"/><path d="M40.47,45a4.32,4.32,0,0,1-.57,2.25A2.07,2.07,0,0,1,38,48.38a2,2,0,0,1-1.82-.94,3.82,3.82,0,0,1-.49-2.07,5.92,5.92,0,0,1,.57-2.51c.48-1,1.09-1.51,1.83-1.51a1.74,1.74,0,0,1,.81.33A3.57,3.57,0,0,1,40.47,45Zm-.72,0a5.41,5.41,0,0,0-.25-1.72c-.25-.71-.64-1.07-1.16-1.07s-1.07.4-1.41,1.19a4.93,4.93,0,0,0-.39,2,4.13,4.13,0,0,0,.27,1.59A1.29,1.29,0,0,0,38,47.8a1.47,1.47,0,0,0,1.36-1A4.38,4.38,0,0,0,39.75,45Z"/><path d="M48.12,43.15A10.81,10.81,0,0,1,47.75,46q-.53,2-1.53,2A1.5,1.5,0,0,1,45,47l-.39-.91-.06,0c-.14.4-.29.8-.44,1.2a1,1,0,0,1-.94.69q-1.91,0-1.91-4.58,0-1.05.06-1.65a.32.32,0,0,1,.27-.15.78.78,0,0,1,.39.13c.15.08.23.18.23.29a3.52,3.52,0,0,1-.1.61,2.71,2.71,0,0,0-.1.65c0,2.6.34,3.9,1,3.9.43,0,.77-.49,1-1.47a7.11,7.11,0,0,0,.3-2V42.31c0-.21.12-.32.36-.32s.44.2.44.6a1.31,1.31,0,0,1,0,.23c0,.1,0,.17,0,.22v1.85a4.74,4.74,0,0,0,.23,1.38c.19.65.44,1,.76,1s.79-.54,1.08-1.63a8.9,8.9,0,0,0,.33-2.21,3.12,3.12,0,0,0-.12-1.15.5.5,0,0,0-.1-.14c-.07-.08-.11-.13-.11-.16a.49.49,0,0,1,.14-.32.43.43,0,0,1,.31-.15C47.94,41.48,48.12,42,48.12,43.15Z"/><path d="M53.27,46.45c0,.44-.3.83-.89,1.18a2.92,2.92,0,0,1-1.5.48q-2,0-2-2.55a8.07,8.07,0,0,1,.41-2.41q.54-1.68,1.38-1.68a2.53,2.53,0,0,1,1.57.72,2,2,0,0,1,.86,1.45,2.14,2.14,0,0,1-.75,1.62,2.45,2.45,0,0,1-1.7.69,1.14,1.14,0,0,1-.38-.15,1.18,1.18,0,0,0-.4-.15c-.13,0-.19,0-.19.12,0,1.15.38,1.73,1.14,1.73a1.71,1.71,0,0,0,1.08-.39,3.59,3.59,0,0,0,.66-.71c.19-.25.31-.37.37-.37C53.15,46,53.27,46.17,53.27,46.45Zm-1-2.76a1.79,1.79,0,0,0-.3-1,.91.91,0,0,0-.79-.45,1.12,1.12,0,0,0-1,.75,2.86,2.86,0,0,0-.31,1.3,1,1,0,0,0,.27.73,1,1,0,0,0,.72.29,1.23,1.23,0,0,0,1-.52A1.75,1.75,0,0,0,52.23,43.69Z"/><path d="M57.27,42.59s0,.13,0,.26-.26.3-.38.3a.25.25,0,0,1-.21-.15c0-.63-.29-1-.78-1-.32,0-.63.59-.94,1.77a6.68,6.68,0,0,0-.18,1.73,10.86,10.86,0,0,0,.07,1.69l.08.19a.61.61,0,0,1,.06.22q0,.33-.45.33a.46.46,0,0,1-.51-.53,1.22,1.22,0,0,1,0-.22.68.68,0,0,0,0-.21c0-.55,0-1.38-.07-2.48s-.08-1.92-.08-2.47c0-.2,0-.33.11-.37a.74.74,0,0,1,.4-.07c.25,0,.4.09.44.27l0,.59c.26-.4.41-.63.45-.68a.92.92,0,0,1,.69-.37,1,1,0,0,1,.54.16,1.91,1.91,0,0,1,.41.47A1.25,1.25,0,0,1,57.27,42.59Z"/><path d="M66,38.68q0,.3-.45.3a.17.17,0,0,1-.13,0c0-.42-.32-.64-.84-.64s-.87.56-1.14,1.69a10.24,10.24,0,0,0-.27,2.27h.67c.37,0,.56.11.56.33a2.13,2.13,0,0,1,0,.3,1.66,1.66,0,0,1-.76.14,1.17,1.17,0,0,0-.49.06c0,.39,0,1.09,0,2.11v1.08a6.68,6.68,0,0,0,.17,1.46.24.24,0,0,1,0,.13q0,.36-.51.36c-.3,0-.45-.4-.45-1.21q0-3.3.06-3.9h-.77c-.23,0-.34-.11-.34-.33s.2-.44.6-.44h.54c0-.2,0-.45.06-.76q.23-4,2.23-4Q66,37.6,66,38.68Z"/><path d="M69.21,45a4.32,4.32,0,0,1-.57,2.25,2.07,2.07,0,0,1-1.87,1.15A2,2,0,0,1,65,47.44a3.82,3.82,0,0,1-.49-2.07A5.92,5.92,0,0,1,65,42.86c.48-1,1.09-1.51,1.83-1.51a1.74,1.74,0,0,1,.81.33A3.57,3.57,0,0,1,69.21,45Zm-.72,0a5.41,5.41,0,0,0-.25-1.72c-.25-.71-.64-1.07-1.16-1.07s-1.07.4-1.41,1.19a4.93,4.93,0,0,0-.39,2,4.13,4.13,0,0,0,.27,1.59,1.29,1.29,0,0,0,1.22.89,1.47,1.47,0,0,0,1.36-1A4.38,4.38,0,0,0,68.49,45Z"/><path d="M73.29,42.59s0,.13,0,.26-.26.3-.38.3a.25.25,0,0,1-.21-.15c0-.63-.29-1-.78-1-.32,0-.63.59-.94,1.77a6.68,6.68,0,0,0-.18,1.73,10.86,10.86,0,0,0,.07,1.69l.08.19a.61.61,0,0,1,.06.22q0,.33-.45.33a.46.46,0,0,1-.51-.53,1.22,1.22,0,0,1,0-.22.68.68,0,0,0,0-.21c0-.55,0-1.38-.07-2.48S70,42.62,70,42.07c0-.2,0-.33.11-.37a.74.74,0,0,1,.4-.07c.25,0,.4.09.44.27l0,.59c.26-.4.41-.63.45-.68a.92.92,0,0,1,.69-.37,1,1,0,0,1,.54.16,1.91,1.91,0,0,1,.41.47A1.25,1.25,0,0,1,73.29,42.59Z"/><path d="M86.19,38a.38.38,0,0,1-.11.25c-.08.08-.14.16-.2.23a.81.81,0,0,0-.09.46,3.27,3.27,0,0,1,0,.5,52,52,0,0,0-.38,6v1.42q.06,1.07.45,1.2v.15a.26.26,0,0,1-.25.17c-.63,0-1-.62-1.13-1.85a7.48,7.48,0,0,1,0-1.42l.39-4.85-1.11,4.05c-.68,2.12-1.34,3.18-2,3.18a1.25,1.25,0,0,1-.9-.55,3,3,0,0,1-.57-.93,25.41,25.41,0,0,1-1-3.29c-.24-1.12-.5-2.23-.76-3.34l-.09.22a32.56,32.56,0,0,0-.24,4L78.39,47c0,.36.14.56.36.59,0,.27-.23.4-.72.4s-.67-.82-.67-2.47q0-1.12.12-3.36c.08-1.48.12-2.6.12-3.35a1.18,1.18,0,0,0,0-.37.69.69,0,0,1,0-.17c0-.39.4-.58,1.2-.58a.85.85,0,0,1,.54.31l.13,1.38a28.06,28.06,0,0,0,.89,3.84c.58,2.06,1,3.09,1.42,3.09s1-.94,1.55-2.82a34.58,34.58,0,0,0,.84-3.6c.13-.38.29-.92.49-1.62a.93.93,0,0,1,1-.67.81.81,0,0,1,.39.1A.32.32,0,0,1,86.19,38Z"/><path d="M91.7,45a4.32,4.32,0,0,1-.57,2.25,2.08,2.08,0,0,1-1.88,1.15,2,2,0,0,1-1.81-.94,3.82,3.82,0,0,1-.5-2.07,5.92,5.92,0,0,1,.57-2.51c.48-1,1.09-1.51,1.83-1.51a1.74,1.74,0,0,1,.81.33A3.58,3.58,0,0,1,91.7,45ZM91,45a5.4,5.4,0,0,0-.26-1.72c-.25-.71-.63-1.07-1.15-1.07s-1.07.4-1.41,1.19a4.93,4.93,0,0,0-.39,2A4.13,4.13,0,0,0,88,46.91a1.28,1.28,0,0,0,1.21.89,1.48,1.48,0,0,0,1.37-1A4.38,4.38,0,0,0,91,45Z"/><path d="M95,43.21a1.45,1.45,0,0,1-.57.15,2.53,2.53,0,0,0-.57.1c0,.11,0,.67,0,1.67,0,.78,0,1.3,0,1.57a3.08,3.08,0,0,0,.08.53,2.81,2.81,0,0,1,.07.55.33.33,0,0,1-.15.24.45.45,0,0,1-.27.12c-.2,0-.36-.2-.48-.61a3.36,3.36,0,0,1-.12-.86V43.55c-.06,0-.28,0-.67,0s-.47-.07-.47-.34.41-.56,1.22-.53L93.24,40a.41.41,0,0,0,0-.15.5.5,0,0,1,0-.14.21.21,0,0,1,.12-.17.38.38,0,0,1,.28-.07c.35,0,.53.21.53.53A9.07,9.07,0,0,1,94,41.09a8.65,8.65,0,0,0-.1,1.11,2,2,0,0,0,0,.35l.82,0q.42,0,.42.33A.44.44,0,0,1,95,43.21Z"/><path d="M99.72,48.34a.64.64,0,0,1-.45.12.48.48,0,0,1-.34-.21V46.19c0-2.54-.43-3.81-1.27-3.81a1,1,0,0,0-.9.63,2.27,2.27,0,0,0-.31,1.11.63.63,0,0,1,0,.19.89.89,0,0,0,0,.19v1.92a4.94,4.94,0,0,0,.07.73,5.31,5.31,0,0,1,.08.72q0,.24-.36.24a.51.51,0,0,1-.43-.24.8.8,0,0,1-.17-.5l.09-9.23a.57.57,0,0,1,0-.18q0-.27.3-.27a.87.87,0,0,1,.44.2c.19.13.29.25.29.34a6,6,0,0,1-.14,1,5,5,0,0,0-.14,1s0,.69,0,2a1.55,1.55,0,0,1,.85-.49,3.07,3.07,0,0,1,1.16.28c.87.36,1.3,1.31,1.3,2.85Z"/><path d="M105,46.45c0,.44-.29.83-.88,1.18a2.92,2.92,0,0,1-1.5.48q-2,0-2-2.55a8,8,0,0,1,.4-2.41q.54-1.68,1.38-1.68a2.56,2.56,0,0,1,1.58.72,2,2,0,0,1,.85,1.45,2.14,2.14,0,0,1-.75,1.62,2.43,2.43,0,0,1-1.69.69,1.24,1.24,0,0,1-.39-.15,1.09,1.09,0,0,0-.39-.15c-.13,0-.2,0-.2.12,0,1.15.38,1.73,1.14,1.73a1.71,1.71,0,0,0,1.08-.39,3.59,3.59,0,0,0,.66-.71c.19-.25.32-.37.38-.37C104.86,46,105,46.17,105,46.45Zm-1-2.76a1.79,1.79,0,0,0-.3-1,.92.92,0,0,0-.8-.45c-.4,0-.72.25-1,.75a2.87,2.87,0,0,0-.32,1.3,1,1,0,0,0,.28.73.94.94,0,0,0,.71.29,1.23,1.23,0,0,0,1-.52A1.76,1.76,0,0,0,103.94,43.69Z"/><path d="M109,42.59s0,.13,0,.26-.25.3-.37.3a.25.25,0,0,1-.21-.15c0-.63-.29-1-.78-1-.32,0-.64.59-.95,1.77a6.68,6.68,0,0,0-.18,1.73,10.32,10.32,0,0,0,.08,1.69l.07.19a.61.61,0,0,1,.06.22q0,.33-.45.33a.46.46,0,0,1-.51-.53,1.51,1.51,0,0,1,0-.22.68.68,0,0,0,0-.21c0-.55,0-1.38-.08-2.48s-.07-1.92-.07-2.47c0-.2,0-.33.1-.37a.79.79,0,0,1,.41-.07c.25,0,.39.09.43.27l0,.59c.26-.4.41-.63.45-.68a.92.92,0,0,1,.69-.37,1,1,0,0,1,.54.16,1.72,1.72,0,0,1,.41.47A1.19,1.19,0,0,1,109,42.59Z"/><path d="M110.72,37.9a.91.91,0,0,1-.1.18,1.06,1.06,0,0,0-.11.21,2.64,2.64,0,0,0-.09.81c0,.13,0,.32,0,.57s0,.45,0,.58c0,.38-.14.57-.43.57s-.3,0-.35-.15c0-1.15,0-1.78,0-1.9a4,4,0,0,1,.06-.6c.06-.31.13-.48.2-.5a.35.35,0,0,1,.16,0C110.5,37.64,110.72,37.73,110.72,37.9Z"/><path d="M116,47.06c0,.35-.27.64-.8.88a3,3,0,0,1-1.27.29A2.52,2.52,0,0,1,113,48a4.67,4.67,0,0,1-.92-.63c-.46-.37-.69-.63-.69-.77,0-.31.19-.45.56-.42H112c0,.3.34.63,1,1a3,3,0,0,0,1.35.49c.44,0,.66-.15.66-.46s-.27-.43-.81-.75a8.81,8.81,0,0,1-1.52-1,2.5,2.5,0,0,1-.82-1.84,3,3,0,0,1,.4-1.49,1.35,1.35,0,0,1,1.17-.84,2.41,2.41,0,0,1,1.23.47,1.82,1.82,0,0,1,.84,1,3.3,3.3,0,0,1,.12.94,4.43,4.43,0,0,1-.21,1.28.48.48,0,0,1-.31.1,1.25,1.25,0,0,1-.33-.08c-.15-.06-.23-.11-.23-.17s.06-.07.17-.33a2.45,2.45,0,0,0,.12-.93c0-1.07-.34-1.61-1-1.61-.35,0-.63.24-.84.71a2.66,2.66,0,0,0-.27,1.16,1.9,1.9,0,0,0,.86,1.42,17.45,17.45,0,0,0,1.57,1C115.71,46.58,116,46.86,116,47.06Z"/><path d="M126.57,41.65a9.35,9.35,0,0,1-1,4.27q-1.25,2.43-3.3,2.43a2.22,2.22,0,0,1-1.41-.52q-.26.33-.33.33a.62.62,0,0,1-.33-.11A7.84,7.84,0,0,1,120,45.8c0-.84,0-2.09,0-3.74s0-2.91,0-3.76v-.24q0-.33.36-.33a.74.74,0,0,1,.39.14.4.4,0,0,1,.21.31,1.23,1.23,0,0,1-.11.44,1.23,1.23,0,0,0-.1.43v.59a2.27,2.27,0,0,0,.52-.74,3.21,3.21,0,0,1,.7-.93,2.11,2.11,0,0,1,1.43-.48,2.66,2.66,0,0,1,2.42,1.34A5.3,5.3,0,0,1,126.57,41.65Zm-.88-.08a5.69,5.69,0,0,0-.39-2.26,1.78,1.78,0,0,0-1.71-1.26,2.24,2.24,0,0,0-1.67,1A5.19,5.19,0,0,0,121,40.9a7,7,0,0,0-.24,1.86v3.1a2,2,0,0,0,.37,1.22,1.31,1.31,0,0,0,1.11.57,2.69,2.69,0,0,0,2.15-1.26A5.84,5.84,0,0,0,125.45,44,12.34,12.34,0,0,0,125.69,41.57Z"/><path d="M132.06,48.37q0,.21-.33.21a.39.39,0,0,1-.43-.3,4.53,4.53,0,0,1,0-.59.55.55,0,0,0,0-.24,3,3,0,0,1-1.82.62,2.51,2.51,0,0,1-1.3-.38,1.22,1.22,0,0,1-.72-1c0-.41.28-.81.85-1.2a2.59,2.59,0,0,1,1.44-.54h1.49a.43.43,0,0,0,.09-.31,5.24,5.24,0,0,0-.17-1.52,1.05,1.05,0,0,0-1.06-.85,1.32,1.32,0,0,0-1,.72,2.31,2.31,0,0,0-.44,1.26v.16a.11.11,0,0,1-.12.12.5.5,0,0,1-.33-.18.48.48,0,0,1-.18-.31,3,3,0,0,1,.26-1.06,3.18,3.18,0,0,1,.55-1,1.21,1.21,0,0,1,.93-.4,2.58,2.58,0,0,1,1.58.54,1.77,1.77,0,0,1,.78,1.41ZM131.27,46q0-.6-.93-.6a3.06,3.06,0,0,0-1.29.26,1.06,1.06,0,0,0-.71,1,.7.7,0,0,0,.38.63,1.39,1.39,0,0,0,.75.19,2,2,0,0,0,1.22-.42A1.25,1.25,0,0,0,131.27,46Z"/><path d="M137.72,42.05c-.09.44-.16.88-.24,1.32a7.07,7.07,0,0,0-.14,1.32v4.7a2.09,2.09,0,0,1-.61,1.59,2.19,2.19,0,0,1-1.62.6,3.19,3.19,0,0,1-1.25-.3,2.21,2.21,0,0,1-1.09-.83.56.56,0,0,1-.08-.27.37.37,0,0,1,.42-.43.41.41,0,0,1,.2.06l.51.52a1.84,1.84,0,0,0,1.29.47,1.32,1.32,0,0,0,1.32-.69,4.39,4.39,0,0,0,.19-1.58,5.71,5.71,0,0,0-.06-.6,2.54,2.54,0,0,1,0-.66,4.42,4.42,0,0,1-.6.5,1.32,1.32,0,0,1-.72.21,1.73,1.73,0,0,1-1.54-.8,3.06,3.06,0,0,1-.47-1.75q0-2,.06-3.42a.49.49,0,0,1,.53-.48c.38,0,.55.06.51.19a12.94,12.94,0,0,0-.29,3.5q0,2.1,1.2,2.1c.48,0,.87-.38,1.16-1.13a4.66,4.66,0,0,0,.31-1.75V42.73c0-.17,0-.39,0-.65s.18-.38.49-.36S137.74,41.86,137.72,42.05Z"/><path d="M142.68,42.07a3.62,3.62,0,0,1-.13.81,4.12,4.12,0,0,0-.12.81V47a3.77,3.77,0,0,0,.15.9.19.19,0,0,1-.17.12c-.49,0-.73-.23-.73-.7V41.81a.76.76,0,0,1,.37-.1.8.8,0,0,1,.38.1C142.6,41.88,142.68,42,142.68,42.07Zm.29-2.25q0,.51-.48.51a.79.79,0,0,1-.53-.21.63.63,0,0,1-.24-.48.45.45,0,0,1,.51-.51.76.76,0,0,1,.52.19A.67.67,0,0,1,143,39.82Z"/><path d="M147.84,47.06c0,.35-.26.64-.79.88a3.08,3.08,0,0,1-1.28.29,2.52,2.52,0,0,1-.93-.2,4.69,4.69,0,0,1-.91-.63c-.46-.37-.69-.63-.69-.77,0-.31.18-.45.55-.42h.09c0,.3.34.63,1,1a3,3,0,0,0,1.35.49c.44,0,.66-.15.66-.46s-.27-.43-.81-.75a8.62,8.62,0,0,1-1.51-1,2.52,2.52,0,0,1-.83-1.84,3,3,0,0,1,.41-1.49,1.35,1.35,0,0,1,1.17-.84,2.41,2.41,0,0,1,1.23.47,1.82,1.82,0,0,1,.84,1,3.3,3.3,0,0,1,.12.94,4.43,4.43,0,0,1-.21,1.28.51.51,0,0,1-.32.1,1.25,1.25,0,0,1-.33-.08c-.15-.06-.22-.11-.22-.17s.05-.07.16-.33a2.45,2.45,0,0,0,.12-.93c0-1.07-.33-1.61-1-1.61-.35,0-.63.24-.84.71a2.66,2.66,0,0,0-.27,1.16,1.88,1.88,0,0,0,.85,1.42,18.28,18.28,0,0,0,1.58,1C147.56,46.58,147.84,46.86,147.84,47.06Z"/><path d="M31.32,58.21a1.45,1.45,0,0,1-.57.15,2.53,2.53,0,0,0-.57.1c0,.11,0,.67,0,1.67,0,.78,0,1.3,0,1.57a2.83,2.83,0,0,0,.07.53,3,3,0,0,1,.08.55.33.33,0,0,1-.15.24.45.45,0,0,1-.27.12c-.2,0-.36-.2-.48-.61a3.36,3.36,0,0,1-.12-.86V58.55a1.36,1.36,0,0,0-.68,0c-.31,0-.46-.07-.46-.34s.4-.56,1.21-.53L29.6,55a.85.85,0,0,0,0-.15.33.33,0,0,1,0-.14.21.21,0,0,1,.12-.17.41.41,0,0,1,.29-.07.49.49,0,0,1,.52.53,8.63,8.63,0,0,1-.1,1.12,9.13,9.13,0,0,0-.11,1.11,2,2,0,0,0,0,.35l.83,0q.42,0,.42.33A.44.44,0,0,1,31.32,58.21Z"/><path d="M36.08,63.34a.64.64,0,0,1-.45.12.5.5,0,0,1-.35-.21V61.19c0-2.54-.42-3.81-1.27-3.81a1,1,0,0,0-.89.63,2.17,2.17,0,0,0-.31,1.11,1.3,1.3,0,0,1,0,.19.58.58,0,0,0,0,.19v1.92a4.06,4.06,0,0,0,.08.73,5,5,0,0,1,.07.72q0,.24-.36.24a.52.52,0,0,1-.43-.24.86.86,0,0,1-.17-.5L32,53.14A.57.57,0,0,1,32,53q0-.27.3-.27a.84.84,0,0,1,.44.2c.2.13.3.25.3.34a5.31,5.31,0,0,1-.15,1,5.81,5.81,0,0,0-.14,1s0,.69,0,2a1.56,1.56,0,0,1,.86-.49,3,3,0,0,1,1.15.28c.87.36,1.31,1.31,1.31,2.85Z"/><path d="M41.33,61.45c0,.44-.3.83-.89,1.18a2.92,2.92,0,0,1-1.5.48q-2,0-2-2.55a8.07,8.07,0,0,1,.41-2.41q.54-1.68,1.38-1.68a2.53,2.53,0,0,1,1.57.72,2,2,0,0,1,.86,1.45,2.14,2.14,0,0,1-.75,1.62,2.45,2.45,0,0,1-1.7.69,1.14,1.14,0,0,1-.38-.15,1.18,1.18,0,0,0-.4-.15c-.13,0-.19,0-.19.12,0,1.15.38,1.73,1.14,1.73A1.71,1.71,0,0,0,40,62.11a3.59,3.59,0,0,0,.66-.71c.19-.25.31-.37.37-.37C41.21,61,41.33,61.17,41.33,61.45Zm-1-2.76a1.79,1.79,0,0,0-.3-1,.91.91,0,0,0-.79-.45,1.12,1.12,0,0,0-1,.75,2.86,2.86,0,0,0-.31,1.3,1,1,0,0,0,.27.73,1,1,0,0,0,.72.29,1.23,1.23,0,0,0,1-.52A1.75,1.75,0,0,0,40.29,58.69Z"/><path d="M49.88,61.37c0,.25-.21.57-.62,1a2.76,2.76,0,0,1-1,.72,2.88,2.88,0,0,1-.87.16,1.92,1.92,0,0,1-1.67-.8,2.87,2.87,0,0,1-.54-1.83A8,8,0,0,1,45.66,58q.62-1.77,1.53-1.77a2.38,2.38,0,0,1,1.15.43c.49.28.75.56.82.82a4.78,4.78,0,0,1,.1.91c0,1.1-.17,1.65-.5,1.65a.6.6,0,0,1-.28-.09c-.11-.06-.16-.13-.16-.21a.35.35,0,0,1,.06-.16l.07-.12a4,4,0,0,0,.06-.9c0-1.11-.25-1.67-.75-1.67s-1,.51-1.35,1.52A7,7,0,0,0,46,60.65,3,3,0,0,0,46.28,62a1.11,1.11,0,0,0,1.06.71,1.8,1.8,0,0,0,1-.46,2.94,2.94,0,0,0,.78-.86l.18-.42a.25.25,0,0,1,.21-.11c.06,0,.13.07.22.2A.78.78,0,0,1,49.88,61.37Z"/><path d="M55.17,63.37q0,.21-.33.21a.39.39,0,0,1-.43-.3,4.53,4.53,0,0,1,0-.59.55.55,0,0,0,0-.24,3,3,0,0,1-1.82.62,2.51,2.51,0,0,1-1.3-.38,1.22,1.22,0,0,1-.72-1c0-.41.28-.81.85-1.2a2.59,2.59,0,0,1,1.44-.54h1.49a.43.43,0,0,0,.09-.31,5.24,5.24,0,0,0-.17-1.52,1.05,1.05,0,0,0-1.06-.85,1.32,1.32,0,0,0-1,.72,2.31,2.31,0,0,0-.44,1.26v.16a.11.11,0,0,1-.12.12.5.5,0,0,1-.33-.18A.48.48,0,0,1,51,59a3,3,0,0,1,.26-1.06,3.18,3.18,0,0,1,.55-1,1.21,1.21,0,0,1,.93-.4,2.58,2.58,0,0,1,1.58.54,1.77,1.77,0,0,1,.78,1.41ZM54.38,61q0-.6-.93-.6a3.06,3.06,0,0,0-1.29.26,1.06,1.06,0,0,0-.71,1,.7.7,0,0,0,.38.63,1.39,1.39,0,0,0,.75.19A2,2,0,0,0,53.8,62,1.27,1.27,0,0,0,54.38,61Z"/><path d="M59.57,57.59s0,.13,0,.26-.25.3-.37.3S59,58.1,59,58c0-.63-.3-1-.78-1-.32,0-.64.59-.95,1.77a6.68,6.68,0,0,0-.18,1.73,10.32,10.32,0,0,0,.08,1.69l.07.19a.61.61,0,0,1,.06.22q0,.33-.45.33a.46.46,0,0,1-.51-.53.79.79,0,0,1,0-.22,1.23,1.23,0,0,0,0-.21c0-.55,0-1.38-.08-2.48s-.07-1.92-.07-2.47c0-.2,0-.33.1-.37a.79.79,0,0,1,.41-.07c.25,0,.39.09.43.27l0,.59c.26-.4.41-.63.45-.68a.92.92,0,0,1,.69-.37,1,1,0,0,1,.54.16,1.72,1.72,0,0,1,.41.47A1.19,1.19,0,0,1,59.57,57.59Z"/><path d="M65.07,63a.26.26,0,0,1-.24.16,1.27,1.27,0,0,1-.51-.21v-.91q0-5-1.24-5c-.26,0-.54.19-.83.57a5.46,5.46,0,0,0-1.14,3.55,6.76,6.76,0,0,0,.08.83,5.73,5.73,0,0,1,.09.84c0,.15-.11.22-.31.22-.39,0-.58-.31-.58-.94V58.73c0-.09,0-.22,0-.39s0-.3,0-.39a5.49,5.49,0,0,0-.05-.57,3.51,3.51,0,0,1,0-.55.41.41,0,0,1,.18-.28.54.54,0,0,1,.3-.16.48.48,0,0,1,.36.21c0,.65,0,1,0,1.14s0,.3,0,.44c.09,0,.21-.2.36-.5A3.26,3.26,0,0,1,62,56.9a1.06,1.06,0,0,1,.82-.42,1.77,1.77,0,0,1,.54.14,2,2,0,0,1,1.16,1,7.11,7.11,0,0,1,.58,3.13Z"/><path d="M70.49,63.37q0,.21-.33.21a.4.4,0,0,1-.44-.3s0-.23,0-.59a.54.54,0,0,0,0-.24,3,3,0,0,1-1.81.62,2.54,2.54,0,0,1-1.31-.38,1.22,1.22,0,0,1-.72-1c0-.41.29-.81.86-1.2a2.56,2.56,0,0,1,1.44-.54H69.6a.43.43,0,0,0,.09-.31,5.7,5.7,0,0,0-.16-1.52,1.06,1.06,0,0,0-1.07-.85,1.32,1.32,0,0,0-1,.72A2.3,2.3,0,0,0,67,59.2v.16a.11.11,0,0,1-.12.12.48.48,0,0,1-.33-.18.48.48,0,0,1-.18-.31,3,3,0,0,1,.25-1.06,3.18,3.18,0,0,1,.56-1,1.2,1.2,0,0,1,.93-.4,2.55,2.55,0,0,1,1.57.54,1.77,1.77,0,0,1,.78,1.41ZM69.69,61q0-.6-.93-.6a3.06,3.06,0,0,0-1.29.26,1.05,1.05,0,0,0-.7,1,.7.7,0,0,0,.37.63,1.39,1.39,0,0,0,.75.19A2,2,0,0,0,69.11,62,1.25,1.25,0,0,0,69.69,61Z"/><path d="M74.1,58.21a1.45,1.45,0,0,1-.57.15,2.53,2.53,0,0,0-.57.1c0,.11,0,.67,0,1.67,0,.78,0,1.3,0,1.57a2.83,2.83,0,0,0,.07.53,3,3,0,0,1,.08.55A.33.33,0,0,1,73,63a.45.45,0,0,1-.27.12c-.2,0-.36-.2-.48-.61a3.36,3.36,0,0,1-.12-.86V58.55a1.36,1.36,0,0,0-.68,0c-.31,0-.46-.07-.46-.34s.4-.56,1.21-.53l.2-2.71a.85.85,0,0,0,0-.15.33.33,0,0,1,0-.14.21.21,0,0,1,.12-.17.41.41,0,0,1,.29-.07.49.49,0,0,1,.52.53,8.63,8.63,0,0,1-.1,1.12A9.13,9.13,0,0,0,73,57.2a2,2,0,0,0,0,.35l.83,0q.42,0,.42.33A.44.44,0,0,1,74.1,58.21Z"/><path d="M76.13,57.07a4.32,4.32,0,0,1-.13.81,3.62,3.62,0,0,0-.13.81V62a3.77,3.77,0,0,0,.15.9.18.18,0,0,1-.16.12c-.49,0-.74-.23-.74-.7V56.81a.8.8,0,0,1,.38-.1.76.76,0,0,1,.37.1C76,56.88,76.13,57,76.13,57.07Zm.28-2.25q0,.51-.48.51a.77.77,0,0,1-.52-.21.63.63,0,0,1-.24-.48.45.45,0,0,1,.51-.51.72.72,0,0,1,.51.19A.63.63,0,0,1,76.41,54.82Z"/><path d="M81.56,60A4.32,4.32,0,0,1,81,62.23a2.08,2.08,0,0,1-1.88,1.15,2,2,0,0,1-1.81-.94,3.82,3.82,0,0,1-.5-2.07,5.92,5.92,0,0,1,.57-2.51c.48-1,1.09-1.51,1.83-1.51a1.74,1.74,0,0,1,.81.33A3.58,3.58,0,0,1,81.56,60Zm-.72,0a5.4,5.4,0,0,0-.26-1.72c-.25-.71-.63-1.07-1.15-1.07s-1.07.4-1.41,1.19a4.93,4.93,0,0,0-.39,2,4.13,4.13,0,0,0,.27,1.59,1.28,1.28,0,0,0,1.21.89,1.48,1.48,0,0,0,1.37-1A4.38,4.38,0,0,0,80.84,60Z"/><path d="M87.06,63a.26.26,0,0,1-.24.16,1.27,1.27,0,0,1-.51-.21v-.91q0-5-1.24-5c-.26,0-.54.19-.83.57a5.46,5.46,0,0,0-1.14,3.55,6.76,6.76,0,0,0,.08.83,5.73,5.73,0,0,1,.09.84c0,.15-.11.22-.31.22-.39,0-.58-.31-.58-.94V58.73c0-.09,0-.22,0-.39s0-.3,0-.39a5.49,5.49,0,0,0,0-.57,3.51,3.51,0,0,1,0-.55.41.41,0,0,1,.18-.28.54.54,0,0,1,.3-.16.46.46,0,0,1,.36.21c0,.65-.05,1-.05,1.14s0,.3,0,.44c.09,0,.21-.2.36-.5A3.62,3.62,0,0,1,84,56.9a1.06,1.06,0,0,1,.82-.42,1.77,1.77,0,0,1,.54.14,2,2,0,0,1,1.16,1,7.11,7.11,0,0,1,.58,3.13Z"/><path d="M88.34,62.26a.59.59,0,0,1,.12-.35c.08-.11.25-.16.52-.16a.71.71,0,0,1,.48.17.94.94,0,0,1,.29.58,5.48,5.48,0,0,1,.08,1.08,2.09,2.09,0,0,1-.31.94,2.89,2.89,0,0,1-.55.7.94.94,0,0,1-.6.26c-.16,0-.25-.07-.27-.2a.41.41,0,0,1,.18-.38,5.43,5.43,0,0,1,.53-.42,1.3,1.3,0,0,0,.43-.56.88.88,0,0,0,0-.64,1,1,0,0,0-.38-.5l-.39-.26A.3.3,0,0,1,88.34,62.26Zm1.3-4.88a.53.53,0,0,1-.27.46,1.08,1.08,0,0,1-.57.17c-.39,0-.58-.21-.58-.63s.19-.52.57-.52C89.36,56.86,89.64,57,89.64,57.38Z"/><path d="M98.37,59.26a6.46,6.46,0,0,1-.43,2.49,1.94,1.94,0,0,1-1.85,1.39,1.8,1.8,0,0,1-1.44-.76c-.07,0-.1.34-.1.93a13.48,13.48,0,0,0,.19,2.76,3.12,3.12,0,0,0,.14.36,1.27,1.27,0,0,1,.13.34q0,.24-.3.24a.87.87,0,0,1-.5-.1c-.1-.07-.18-.3-.25-.69a4.63,4.63,0,0,1-.09-.78V61.63c0-.35,0-.82,0-1.41s.06-1.16.07-1.41,0-.62,0-1.05V56.69c0-.69.18-1,.54-1,.18,0,.27.06.27.19s0,.62-.06,1.1-.06.84-.06,1.08h.06l.69-1a1.23,1.23,0,0,1,1-.52,1.64,1.64,0,0,1,1.51.9A3.53,3.53,0,0,1,98.37,59.26Zm-.75.06A5,5,0,0,0,97.46,58c-.17-.56-.45-.84-.83-.84s-.62.25-1,.74a3.78,3.78,0,0,0-.73,1.32,6.56,6.56,0,0,0-.27,1.5q-.06.72-.06.69s0,.08.13.15l.18.13.48.7a.86.86,0,0,0,.74.35c.55,0,1-.45,1.24-1.35A6.72,6.72,0,0,0,97.62,59.32Z"/><path d="M100.35,57.07a3.62,3.62,0,0,1-.13.81,4.12,4.12,0,0,0-.12.81V62a3.77,3.77,0,0,0,.15.9.19.19,0,0,1-.17.12c-.49,0-.73-.23-.73-.7V56.81a.76.76,0,0,1,.37-.1.8.8,0,0,1,.38.1C100.27,56.88,100.35,57,100.35,57.07Zm.29-2.25q0,.51-.48.51a.79.79,0,0,1-.53-.21.63.63,0,0,1-.24-.48.45.45,0,0,1,.51-.51.76.76,0,0,1,.52.19A.67.67,0,0,1,100.64,54.82Z"/><path d="M106.14,63a.26.26,0,0,1-.24.16,1.27,1.27,0,0,1-.51-.21v-.91q0-5-1.24-5c-.26,0-.54.19-.83.57a5.46,5.46,0,0,0-1.14,3.55,6.76,6.76,0,0,0,.08.83,5.73,5.73,0,0,1,.09.84c0,.15-.11.22-.31.22-.39,0-.58-.31-.58-.94V58.73c0-.09,0-.22,0-.39s0-.3,0-.39a5.49,5.49,0,0,0,0-.57,3.51,3.51,0,0,1,0-.55.41.41,0,0,1,.18-.28.54.54,0,0,1,.3-.16.46.46,0,0,1,.36.21c0,.65,0,1,0,1.14s0,.3,0,.44c.09,0,.21-.2.36-.5a3.62,3.62,0,0,1,.48-.78,1.06,1.06,0,0,1,.82-.42,1.77,1.77,0,0,1,.54.14,2,2,0,0,1,1.16,1,7.11,7.11,0,0,1,.58,3.13Z"/><path d="M112.27,63.52a1.1,1.1,0,0,1-.6.3c-.22,0-.6-.32-1.14-1-.68-.81-1-1.23-1.08-1.27a5.26,5.26,0,0,1-.64-.71,3,3,0,0,0-.69-.64l-.27.36v1.48a.89.89,0,0,0,.11.38,1.38,1.38,0,0,1,.1.39c0,.06,0,.11-.13.17a.46.46,0,0,1-.23.08c-.4,0-.6-.21-.6-.64v-2.1c0-.13,0-.33,0-.58s0-.45,0-.58V55.07a10.16,10.16,0,0,0-.07-1.39,1.46,1.46,0,0,0-.07-.33,1.7,1.7,0,0,1,0-.35c0-.1.08-.2.23-.3a.83.83,0,0,1,.41-.15.71.71,0,0,1,.3.08.25.25,0,0,1,.15.21s0,.13-.07.36a6.59,6.59,0,0,0-.12,1.57l-.06,4.35.07.08a8.57,8.57,0,0,0,1.33-1.11l1-1.08c.58-.58.91-.87,1-.87a.4.4,0,0,1,.36.2.75.75,0,0,1,.13.43l0,.07a18.46,18.46,0,0,0-1.69,1.35c-.85.75-1.28,1.25-1.28,1.49s.15.31.45.67l1.4,1.65a6,6,0,0,0,1.61,1.35Z"/><path d="M120.55,63.37q0,.21-.33.21a.39.39,0,0,1-.43-.3,4.53,4.53,0,0,1,0-.59.55.55,0,0,0,0-.24,3,3,0,0,1-1.81.62,2.51,2.51,0,0,1-1.31-.38,1.22,1.22,0,0,1-.72-1c0-.41.28-.81.86-1.2a2.53,2.53,0,0,1,1.43-.54h1.49a.43.43,0,0,0,.09-.31,5.24,5.24,0,0,0-.17-1.52,1,1,0,0,0-1.06-.85,1.32,1.32,0,0,0-1,.72,2.3,2.3,0,0,0-.43,1.26v.16c0,.08,0,.12-.13.12a.5.5,0,0,1-.33-.18.46.46,0,0,1-.17-.31,3,3,0,0,1,.25-1.06,3.18,3.18,0,0,1,.55-1,1.21,1.21,0,0,1,.93-.4,2.58,2.58,0,0,1,1.58.54,1.77,1.77,0,0,1,.78,1.41ZM119.76,61q0-.6-.93-.6a3.06,3.06,0,0,0-1.29.26,1.05,1.05,0,0,0-.7,1,.7.7,0,0,0,.37.63,1.39,1.39,0,0,0,.75.19,2,2,0,0,0,1.22-.42A1.25,1.25,0,0,0,119.76,61Z"/><path d="M126.41,63a.26.26,0,0,1-.24.16,1.17,1.17,0,0,1-.51-.21v-.91c0-3.32-.42-5-1.24-5q-.39,0-.84.57a5.45,5.45,0,0,0-1.13,3.55,5.21,5.21,0,0,0,.08.83,7.07,7.07,0,0,1,.08.84c0,.15-.1.22-.3.22-.39,0-.58-.31-.58-.94V58.73c0-.09,0-.22,0-.39s0-.3,0-.39a3.92,3.92,0,0,0-.06-.57,5.44,5.44,0,0,1,0-.55.4.4,0,0,1,.19-.28.5.5,0,0,1,.29-.16.46.46,0,0,1,.36.21c0,.65,0,1,0,1.14s0,.3,0,.44c.09,0,.21-.2.36-.5a3.62,3.62,0,0,1,.48-.78,1.08,1.08,0,0,1,.83-.42,1.77,1.77,0,0,1,.54.14,2,2,0,0,1,1.15,1,7.1,7.1,0,0,1,.59,3.13Z"/><path d="M131.91,53.39a5.66,5.66,0,0,1-.09.89c-.07.47-.11.76-.13.88,0,.31-.08,1.35-.15,3.1s-.09,2.49-.09,2.66a6.4,6.4,0,0,0,.28,2.27.31.31,0,0,1-.27.16.58.58,0,0,1-.34-.15.67.67,0,0,1-.23-.3,6.93,6.93,0,0,0-.09-.91,2.35,2.35,0,0,1-1.69,1.12,1.73,1.73,0,0,1-1.5-.73,2.82,2.82,0,0,1-.45-1.67,8,8,0,0,1,.46-2.61q.6-1.77,1.59-1.77a1.48,1.48,0,0,1,.86.32c.06,0,.29.25.7.63a40.53,40.53,0,0,0,.15-4.49.39.39,0,0,1,.29-.1.72.72,0,0,1,.7.7Zm-1.12,5.55a2.33,2.33,0,0,0-.3-1.18,1.1,1.1,0,0,0-1-.63q-.75,0-1.2,1.53a7.29,7.29,0,0,0-.36,2.17,2.83,2.83,0,0,0,.21,1.14.91.91,0,0,0,.86.63c.61,0,1.09-.48,1.4-1.44A6.47,6.47,0,0,0,130.79,58.94Z"/><path d="M139.16,57.59s0,.13,0,.26-.26.3-.37.3-.15,0-.21-.15c0-.63-.3-1-.78-1-.32,0-.64.59-.95,1.77a6.68,6.68,0,0,0-.18,1.73,9.23,9.23,0,0,0,.08,1.69l.07.19a.61.61,0,0,1,.06.22q0,.33-.45.33a.46.46,0,0,1-.51-.53.79.79,0,0,1,0-.22,1.23,1.23,0,0,0,0-.21c0-.55,0-1.38-.08-2.48s-.07-1.92-.07-2.47c0-.2,0-.33.1-.37a.76.76,0,0,1,.41-.07c.25,0,.39.09.43.27l0,.59c.26-.4.41-.63.45-.68a.92.92,0,0,1,.69-.37,1,1,0,0,1,.54.16,1.72,1.72,0,0,1,.41.47A1.19,1.19,0,0,1,139.16,57.59Z"/><path d="M143.82,61.45c0,.44-.3.83-.89,1.18a2.92,2.92,0,0,1-1.5.48q-2,0-2-2.55a8.07,8.07,0,0,1,.41-2.41q.54-1.68,1.38-1.68a2.58,2.58,0,0,1,1.58.72,2,2,0,0,1,.85,1.45,2.14,2.14,0,0,1-.75,1.62,2.43,2.43,0,0,1-1.7.69,1.22,1.22,0,0,1-.38-.15,1.16,1.16,0,0,0-.39-.15c-.13,0-.2,0-.2.12,0,1.15.38,1.73,1.14,1.73a1.71,1.71,0,0,0,1.08-.39,3.59,3.59,0,0,0,.66-.71c.19-.25.32-.37.37-.37C143.71,61,143.82,61.17,143.82,61.45Zm-1-2.76a1.81,1.81,0,0,0-.31-1,.91.91,0,0,0-.79-.45,1.12,1.12,0,0,0-1,.75,2.86,2.86,0,0,0-.31,1.3,1,1,0,0,0,.28.73.94.94,0,0,0,.71.29,1.23,1.23,0,0,0,1-.52A1.76,1.76,0,0,0,142.79,58.69Z"/><path d="M149.25,53.39a5.66,5.66,0,0,1-.09.89c-.07.47-.11.76-.13.88,0,.31-.08,1.35-.15,3.1s-.09,2.49-.09,2.66a6.4,6.4,0,0,0,.28,2.27.31.31,0,0,1-.27.16.58.58,0,0,1-.34-.15.67.67,0,0,1-.23-.3,6.93,6.93,0,0,0-.09-.91,2.35,2.35,0,0,1-1.69,1.12,1.73,1.73,0,0,1-1.5-.73,2.82,2.82,0,0,1-.45-1.67A8,8,0,0,1,145,58.1q.6-1.77,1.59-1.77a1.48,1.48,0,0,1,.86.32c.05,0,.29.25.7.63a40.53,40.53,0,0,0,.15-4.49.38.38,0,0,1,.29-.1.72.72,0,0,1,.7.7Zm-1.12,5.55a2.33,2.33,0,0,0-.3-1.18,1.1,1.1,0,0,0-1-.63q-.75,0-1.2,1.53a7.29,7.29,0,0,0-.36,2.17A2.83,2.83,0,0,0,145.5,62a.91.91,0,0,0,.86.63c.61,0,1.09-.48,1.4-1.44A6.71,6.71,0,0,0,148.13,58.94Z"/><path d="M27.66,68.68q0,.3-.45.3a.17.17,0,0,1-.13,0c0-.42-.33-.64-.84-.64s-.87.56-1.14,1.69a10.24,10.24,0,0,0-.27,2.27,1.2,1.2,0,0,1,.27,0h.4c.37,0,.56.11.56.33a2.13,2.13,0,0,1,0,.3,1.66,1.66,0,0,1-.76.14,1.14,1.14,0,0,0-.49.06c0,.39,0,1.09,0,2.11v1.08a6.68,6.68,0,0,0,.17,1.46.38.38,0,0,1,0,.13q0,.36-.51.36c-.3,0-.45-.4-.45-1.21,0-2.2,0-3.5.06-3.9h-.77c-.23,0-.34-.11-.34-.33s.2-.44.6-.44h.54c0-.2,0-.45.06-.76q.22-4,2.23-4Q27.66,67.6,27.66,68.68Z"/><path d="M30.84,75a4.32,4.32,0,0,1-.57,2.25,2.07,2.07,0,0,1-1.88,1.15,2,2,0,0,1-1.81-.94,3.82,3.82,0,0,1-.49-2.07,5.78,5.78,0,0,1,.57-2.51c.47-1,1.09-1.51,1.83-1.51a1.82,1.82,0,0,1,.81.33A3.57,3.57,0,0,1,30.84,75Zm-.72,0a5.41,5.41,0,0,0-.25-1.72c-.25-.71-.64-1.07-1.16-1.07s-1.07.4-1.41,1.19a4.93,4.93,0,0,0-.39,2,4.13,4.13,0,0,0,.27,1.59,1.28,1.28,0,0,0,1.21.89,1.47,1.47,0,0,0,1.37-1A4.38,4.38,0,0,0,30.12,75Z"/><path d="M34.92,72.59s0,.13,0,.26-.26.3-.38.3a.25.25,0,0,1-.21-.15c0-.63-.29-1-.78-1-.32,0-.64.59-.95,1.77a6.75,6.75,0,0,0-.17,1.73,10.86,10.86,0,0,0,.07,1.69l.07.19a.67.67,0,0,1,.07.22c0,.22-.16.33-.46.33s-.5-.18-.5-.53a1.22,1.22,0,0,1,0-.22.68.68,0,0,0,0-.21c0-.55,0-1.38-.07-2.48s-.08-1.92-.08-2.47c0-.2,0-.33.11-.37a.72.72,0,0,1,.4-.07c.25,0,.4.09.44.27s0,.4,0,.59c.27-.4.41-.63.45-.68a.93.93,0,0,1,.7-.37,1.07,1.07,0,0,1,.54.16,2.15,2.15,0,0,1,.41.47A1.25,1.25,0,0,1,34.92,72.59Z"/><path d="M45.72,78a1,1,0,0,1-.48.19.69.69,0,0,1-.3-.1V76.5c0-3.09-.32-4.63-.95-4.63-.37,0-.7.48-1,1.44a7.33,7.33,0,0,0-.33,2v1.5a1.13,1.13,0,0,0,.07.34,1.44,1.44,0,0,1,.07.32c0,.08-.06.16-.17.24a.5.5,0,0,1-.28.12.41.41,0,0,1-.3-.19.48.48,0,0,1-.17-.32v-3A6.48,6.48,0,0,0,41.75,73q-.22-.93-.51-.93c-.11,0-.28.14-.5.42a5.57,5.57,0,0,0-1.12,3.54,6.54,6.54,0,0,0,.05.76c0,.33.07.58.07.74s-.13.45-.38.45a.39.39,0,0,1-.31-.15,1.89,1.89,0,0,1-.14-.67,6.19,6.19,0,0,1-.07-.74V72.92q0-1.53.36-1.53a.46.46,0,0,1,.3.14.41.41,0,0,1,.16.3,4.92,4.92,0,0,1-.09.82c-.06.44-.1.72-.11.83l.08.07.57-1.29c.27-.55.59-.82,1-.82q.78,0,1.35,1.68a3.5,3.5,0,0,0,.38-.75,3.75,3.75,0,0,1,.4-.81.88.88,0,0,1,.71-.36,1.34,1.34,0,0,1,.89.54,5.14,5.14,0,0,1,.92,3.53Z"/><path d="M51.34,75a4.32,4.32,0,0,1-.57,2.25,2.06,2.06,0,0,1-1.87,1.15,2,2,0,0,1-1.81-.94,3.73,3.73,0,0,1-.5-2.07,5.92,5.92,0,0,1,.57-2.51c.48-1,1.09-1.51,1.83-1.51a1.74,1.74,0,0,1,.81.33A3.57,3.57,0,0,1,51.34,75Zm-.71,0a5.4,5.4,0,0,0-.26-1.72c-.25-.71-.64-1.07-1.16-1.07s-1.07.4-1.41,1.19a5.11,5.11,0,0,0-.38,2,4.14,4.14,0,0,0,.26,1.59,1.29,1.29,0,0,0,1.22.89,1.46,1.46,0,0,0,1.36-1A4.38,4.38,0,0,0,50.63,75Z"/><path d="M54.61,73.21a1.44,1.44,0,0,1-.56.15,2.55,2.55,0,0,0-.58.1c0,.11,0,.67,0,1.67,0,.78,0,1.3,0,1.57a2.83,2.83,0,0,0,.07.53,3,3,0,0,1,.08.55.33.33,0,0,1-.15.24.45.45,0,0,1-.27.12c-.2,0-.36-.2-.48-.61a3.36,3.36,0,0,1-.12-.86V73.55c-.06,0-.28,0-.67,0s-.47-.07-.47-.34.4-.56,1.21-.53l.2-2.71a.41.41,0,0,0,0-.15.63.63,0,0,1,0-.14.21.21,0,0,1,.12-.17.41.41,0,0,1,.29-.07.49.49,0,0,1,.52.53,8.63,8.63,0,0,1-.1,1.12,9.13,9.13,0,0,0-.11,1.11,2,2,0,0,0,0,.35l.83,0q.42,0,.42.33A.44.44,0,0,1,54.61,73.21Z"/><path d="M59.37,78.34a.64.64,0,0,1-.45.12.48.48,0,0,1-.34-.21V76.19c0-2.54-.43-3.81-1.27-3.81a1,1,0,0,0-.9.63,2.27,2.27,0,0,0-.31,1.11.63.63,0,0,1,0,.19.89.89,0,0,0,0,.19v1.92a4.94,4.94,0,0,0,.07.73,5.31,5.31,0,0,1,.08.72q0,.24-.36.24a.51.51,0,0,1-.43-.24.81.81,0,0,1-.18-.5l.1-9.23a.57.57,0,0,1,0-.18q0-.27.3-.27a.91.91,0,0,1,.44.2c.19.13.29.25.29.34a6,6,0,0,1-.14,1,5,5,0,0,0-.14,1s0,.69,0,2a1.52,1.52,0,0,1,.85-.49,3.07,3.07,0,0,1,1.16.28c.87.36,1.3,1.31,1.3,2.85Z"/><path d="M64.62,76.45c0,.44-.29.83-.88,1.18a2.92,2.92,0,0,1-1.5.48q-2,0-2-2.55a8,8,0,0,1,.4-2.41q.54-1.68,1.38-1.68a2.56,2.56,0,0,1,1.58.72,2,2,0,0,1,.85,1.45,2.14,2.14,0,0,1-.75,1.62A2.43,2.43,0,0,1,62,76a1.24,1.24,0,0,1-.39-.15,1.09,1.09,0,0,0-.39-.15c-.13,0-.2,0-.2.12,0,1.15.38,1.73,1.14,1.73a1.71,1.71,0,0,0,1.08-.39,3.59,3.59,0,0,0,.66-.71c.19-.25.32-.37.38-.37C64.51,76,64.62,76.17,64.62,76.45Zm-1-2.76a1.79,1.79,0,0,0-.3-1,.92.92,0,0,0-.8-.45c-.4,0-.72.25-1,.75a2.87,2.87,0,0,0-.32,1.3,1,1,0,0,0,.28.73.94.94,0,0,0,.71.29,1.23,1.23,0,0,0,1-.52A1.76,1.76,0,0,0,63.59,73.69Z"/><path d="M68.63,72.59s0,.13,0,.26-.26.3-.37.3S68.09,73.1,68,73c0-.63-.3-1-.78-1-.33,0-.64.59-1,1.77a6.68,6.68,0,0,0-.18,1.73,9.23,9.23,0,0,0,.08,1.69l.07.19a.61.61,0,0,1,.06.22q0,.33-.45.33a.46.46,0,0,1-.51-.53.79.79,0,0,1,0-.22,1.23,1.23,0,0,0,0-.21c0-.55,0-1.38-.08-2.48s-.07-1.92-.07-2.47c0-.2,0-.33.1-.37a.74.74,0,0,1,.4-.07c.25,0,.4.09.44.27l0,.59c.26-.4.41-.63.45-.68a.92.92,0,0,1,.69-.37,1,1,0,0,1,.54.16,1.72,1.72,0,0,1,.41.47A1.19,1.19,0,0,1,68.63,72.59Z"/><path d="M73.14,77.06c0,.35-.26.64-.8.88a3,3,0,0,1-1.27.29,2.52,2.52,0,0,1-.93-.2,4.69,4.69,0,0,1-.91-.63c-.47-.37-.69-.63-.69-.77,0-.31.18-.45.55-.42h.09c0,.3.34.63,1,1a3,3,0,0,0,1.35.49c.44,0,.66-.15.66-.46s-.27-.43-.81-.75a8.24,8.24,0,0,1-1.51-1A2.52,2.52,0,0,1,69,73.6a2.86,2.86,0,0,1,.41-1.49,1.34,1.34,0,0,1,1.17-.84,2.35,2.35,0,0,1,1.22.47,1.8,1.8,0,0,1,.85,1,3.7,3.7,0,0,1,.12.94,4.15,4.15,0,0,1-.22,1.28.48.48,0,0,1-.31.1,1.25,1.25,0,0,1-.33-.08c-.15-.06-.22-.11-.22-.17s0-.07.16-.33a2.45,2.45,0,0,0,.12-.93c0-1.07-.34-1.61-1-1.61-.34,0-.62.24-.83.71a2.66,2.66,0,0,0-.27,1.16,1.88,1.88,0,0,0,.85,1.42,16.69,16.69,0,0,0,1.58,1C72.86,76.58,73.14,76.86,73.14,77.06Z"/><path d="M84,73.15A10.82,10.82,0,0,1,83.58,76q-.52,2-1.53,2A1.5,1.5,0,0,1,80.79,77l-.39-.91-.06,0c-.14.4-.29.8-.44,1.2A1,1,0,0,1,79,78q-1.9,0-1.91-4.58,0-1,.06-1.65a.32.32,0,0,1,.27-.15.75.75,0,0,1,.39.13c.15.08.23.18.23.29a2.75,2.75,0,0,1-.1.61,3.33,3.33,0,0,0-.1.65c0,2.6.34,3.9,1,3.9.43,0,.78-.49,1-1.47a7.11,7.11,0,0,0,.3-2V72.31c0-.21.12-.32.36-.32s.44.2.44.6c0,0,0,.13,0,.23a1.22,1.22,0,0,0,0,.22v1.85a4.74,4.74,0,0,0,.23,1.38c.19.65.44,1,.76,1s.79-.54,1.08-1.63a9,9,0,0,0,.34-2.21,3,3,0,0,0-.13-1.15.5.5,0,0,0-.1-.14C83,72,83,72,83,72a.45.45,0,0,1,.15-.32.4.4,0,0,1,.31-.15C83.77,71.48,84,72,84,73.15Z"/><path d="M88.75,78.34a.62.62,0,0,1-.45.12.5.5,0,0,1-.34-.21V76.19c0-2.54-.42-3.81-1.27-3.81a1,1,0,0,0-.89.63,2.17,2.17,0,0,0-.31,1.11,1.3,1.3,0,0,1,0,.19.58.58,0,0,0,0,.19v1.92a4.06,4.06,0,0,0,.08.73,5,5,0,0,1,.07.72q0,.24-.36.24a.52.52,0,0,1-.43-.24.86.86,0,0,1-.17-.5l.09-9.23a.57.57,0,0,1,0-.18q0-.27.3-.27a.84.84,0,0,1,.44.2c.2.13.3.25.3.34a5.31,5.31,0,0,1-.15,1,5.81,5.81,0,0,0-.14,1s0,.69,0,2a1.53,1.53,0,0,1,.86-.49,3,3,0,0,1,1.15.28c.87.36,1.3,1.31,1.3,2.85Z"/><path d="M94.37,75a4.42,4.42,0,0,1-.57,2.25,2.08,2.08,0,0,1-1.88,1.15,2,2,0,0,1-1.81-.94,3.82,3.82,0,0,1-.5-2.07,5.92,5.92,0,0,1,.57-2.51c.48-1,1.09-1.51,1.83-1.51a1.74,1.74,0,0,1,.81.33A3.58,3.58,0,0,1,94.37,75Zm-.72,0a5.4,5.4,0,0,0-.26-1.72c-.25-.71-.64-1.07-1.15-1.07s-1.07.4-1.41,1.19a4.93,4.93,0,0,0-.39,2,4.13,4.13,0,0,0,.27,1.59,1.27,1.27,0,0,0,1.21.89,1.48,1.48,0,0,0,1.37-1A4.38,4.38,0,0,0,93.65,75Z"/><path d="M103,78.37q0,.21-.33.21a.4.4,0,0,1-.44-.3s0-.23,0-.59a.54.54,0,0,0,0-.24,3,3,0,0,1-1.81.62A2.54,2.54,0,0,1,99,77.69a1.22,1.22,0,0,1-.72-1c0-.41.29-.81.86-1.2a2.56,2.56,0,0,1,1.44-.54h1.48a.43.43,0,0,0,.09-.31,5.7,5.7,0,0,0-.16-1.52,1.06,1.06,0,0,0-1.07-.85,1.32,1.32,0,0,0-1,.72,2.3,2.3,0,0,0-.43,1.26v.16a.11.11,0,0,1-.12.12A.48.48,0,0,1,99,74.3a.48.48,0,0,1-.18-.31,3,3,0,0,1,.25-1.06,3.18,3.18,0,0,1,.56-1,1.2,1.2,0,0,1,.93-.4,2.55,2.55,0,0,1,1.57.54,1.77,1.77,0,0,1,.78,1.41Zm-.8-2.39q0-.6-.93-.6a3.06,3.06,0,0,0-1.29.26,1.05,1.05,0,0,0-.7,1,.7.7,0,0,0,.37.63,1.39,1.39,0,0,0,.75.19,2,2,0,0,0,1.22-.42A1.25,1.25,0,0,0,102.15,76Z"/><path d="M107.34,72.59s0,.13,0,.26-.26.3-.38.3a.25.25,0,0,1-.21-.15c0-.63-.29-1-.78-1-.32,0-.64.59-.95,1.77a6.75,6.75,0,0,0-.17,1.73,10.86,10.86,0,0,0,.07,1.69l.07.19a.67.67,0,0,1,.07.22c0,.22-.16.33-.46.33s-.5-.18-.5-.53a1.22,1.22,0,0,1,0-.22.68.68,0,0,0,0-.21c0-.55,0-1.38-.07-2.48s-.08-1.92-.08-2.47c0-.2,0-.33.11-.37a.72.72,0,0,1,.4-.07c.25,0,.4.09.44.27s0,.4,0,.59c.27-.4.41-.63.45-.68a.93.93,0,0,1,.7-.37,1.07,1.07,0,0,1,.54.16,2.15,2.15,0,0,1,.41.47A1.25,1.25,0,0,1,107.34,72.59Z"/><path d="M112,76.45c0,.44-.29.83-.88,1.18a2.92,2.92,0,0,1-1.5.48q-2,0-2-2.55a8.07,8.07,0,0,1,.41-2.41q.54-1.68,1.38-1.68a2.53,2.53,0,0,1,1.57.72,2,2,0,0,1,.86,1.45,2.14,2.14,0,0,1-.75,1.62,2.45,2.45,0,0,1-1.7.69,1.14,1.14,0,0,1-.38-.15,1.18,1.18,0,0,0-.4-.15c-.13,0-.19,0-.19.12,0,1.15.38,1.73,1.14,1.73a1.71,1.71,0,0,0,1.08-.39,3.59,3.59,0,0,0,.66-.71c.19-.25.31-.37.37-.37C111.89,76,112,76.17,112,76.45Zm-1-2.76a1.79,1.79,0,0,0-.3-1,.91.91,0,0,0-.79-.45,1.12,1.12,0,0,0-1,.75,2.86,2.86,0,0,0-.31,1.3,1,1,0,0,0,.27.73,1,1,0,0,0,.72.29,1.23,1.23,0,0,0,1-.52A1.81,1.81,0,0,0,111,73.69Z"/><path d="M120.51,78.37q0,.21-.33.21a.39.39,0,0,1-.43-.3,4.53,4.53,0,0,1,0-.59.55.55,0,0,0,0-.24,3,3,0,0,1-1.82.62,2.51,2.51,0,0,1-1.3-.38,1.22,1.22,0,0,1-.72-1c0-.41.28-.81.85-1.2a2.59,2.59,0,0,1,1.44-.54h1.49a.43.43,0,0,0,.09-.31,5.24,5.24,0,0,0-.17-1.52,1.05,1.05,0,0,0-1.06-.85,1.32,1.32,0,0,0-1,.72A2.31,2.31,0,0,0,117,74.2v.16a.11.11,0,0,1-.12.12.5.5,0,0,1-.33-.18.48.48,0,0,1-.18-.31,3,3,0,0,1,.26-1.06,3.18,3.18,0,0,1,.55-1,1.21,1.21,0,0,1,.93-.4,2.58,2.58,0,0,1,1.58.54,1.77,1.77,0,0,1,.78,1.41ZM119.72,76q0-.6-.93-.6a3.06,3.06,0,0,0-1.29.26,1.06,1.06,0,0,0-.71,1,.7.7,0,0,0,.38.63,1.39,1.39,0,0,0,.75.19,2,2,0,0,0,1.22-.42A1.27,1.27,0,0,0,119.72,76Z"/><path d="M122.69,77.78q0,.39-.42.39c-.44,0-.66-.9-.65-2.71l0-6.74a3.59,3.59,0,0,0,0-.47,3.38,3.38,0,0,1,0-.46.82.82,0,0,1,.48-.21.72.72,0,0,1,.42.15.44.44,0,0,1,.21.36,1.41,1.41,0,0,1-.08.39c-.06.2-.1.33-.11.38a17.56,17.56,0,0,0-.17,2.85c0,2,0,2.92,0,2.85a16.51,16.51,0,0,0,.24,2.77.57.57,0,0,0,.07.2A.88.88,0,0,1,122.69,77.78Z"/><path d="M124.64,72.07a4.32,4.32,0,0,1-.13.81,3.62,3.62,0,0,0-.13.81V77a3.77,3.77,0,0,0,.15.9.18.18,0,0,1-.16.12c-.49,0-.74-.23-.74-.7V71.81a.8.8,0,0,1,.38-.1.76.76,0,0,1,.37.1C124.55,71.88,124.64,72,124.64,72.07Zm.28-2.25q0,.51-.48.51a.77.77,0,0,1-.52-.21.63.63,0,0,1-.24-.48.45.45,0,0,1,.51-.51.72.72,0,0,1,.51.19A.63.63,0,0,1,124.92,69.82Z"/><path d="M130,72a11.28,11.28,0,0,1-.54,3.56C129,77.2,128.51,78,128,78s-1.15-.64-1.65-1.91a15.5,15.5,0,0,1-.78-2.73,7.66,7.66,0,0,1-.15-1.54.47.47,0,0,1,.38-.38,1.05,1.05,0,0,1,.54.3,2.22,2.22,0,0,0-.06.51,8.46,8.46,0,0,0,.36,2.21,12.8,12.8,0,0,0,.78,2.1q.25.51.42.51c.39,0,.73-.79,1-2.36a17.51,17.51,0,0,0,.33-3c0-.06,0-.12.14-.19a.45.45,0,0,1,.25-.11Q130,71.48,130,72Z"/><path d="M134.76,76.45c0,.44-.29.83-.88,1.18a2.92,2.92,0,0,1-1.5.48q-2,0-2-2.55a8,8,0,0,1,.4-2.41q.54-1.68,1.38-1.68a2.56,2.56,0,0,1,1.58.72,2,2,0,0,1,.85,1.45,2.14,2.14,0,0,1-.75,1.62,2.43,2.43,0,0,1-1.69.69,1.24,1.24,0,0,1-.39-.15,1.09,1.09,0,0,0-.39-.15c-.13,0-.2,0-.2.12,0,1.15.38,1.73,1.14,1.73a1.71,1.71,0,0,0,1.08-.39,3.59,3.59,0,0,0,.66-.71c.19-.25.32-.37.38-.37C134.65,76,134.76,76.17,134.76,76.45Zm-1-2.76a1.79,1.79,0,0,0-.3-1,.92.92,0,0,0-.8-.45c-.4,0-.72.25-1,.75a2.87,2.87,0,0,0-.32,1.3,1,1,0,0,0,.28.73.94.94,0,0,0,.71.29,1.23,1.23,0,0,0,1-.52A1.76,1.76,0,0,0,133.73,73.69Z"/><path d="M143.27,78.37q0,.21-.33.21a.4.4,0,0,1-.44-.3s0-.23,0-.59a.54.54,0,0,0-.05-.24,3,3,0,0,1-1.81.62,2.54,2.54,0,0,1-1.31-.38,1.22,1.22,0,0,1-.72-1c0-.41.29-.81.86-1.2a2.59,2.59,0,0,1,1.44-.54h1.48a.43.43,0,0,0,.09-.31,5.31,5.31,0,0,0-.16-1.52,1.06,1.06,0,0,0-1.07-.85,1.32,1.32,0,0,0-1.05.72,2.3,2.3,0,0,0-.43,1.26v.16a.11.11,0,0,1-.12.12.5.5,0,0,1-.33-.18.48.48,0,0,1-.18-.31,3,3,0,0,1,.25-1.06,3.18,3.18,0,0,1,.56-1,1.21,1.21,0,0,1,.93-.4,2.55,2.55,0,0,1,1.57.54,1.77,1.77,0,0,1,.78,1.41Zm-.8-2.39q0-.6-.93-.6a3.06,3.06,0,0,0-1.29.26,1.05,1.05,0,0,0-.7,1,.7.7,0,0,0,.37.63,1.39,1.39,0,0,0,.75.19,2,2,0,0,0,1.22-.42A1.25,1.25,0,0,0,142.47,76Z"/><path d="M149.12,78a.26.26,0,0,1-.24.16,1.17,1.17,0,0,1-.51-.21v-.91c0-3.32-.42-5-1.24-5q-.39,0-.84.57a5.45,5.45,0,0,0-1.13,3.55,5.21,5.21,0,0,0,.08.83,7.07,7.07,0,0,1,.08.84c0,.15-.1.22-.3.22-.39,0-.58-.31-.58-.94V73.73c0-.09,0-.22,0-.39s0-.3,0-.39a3.92,3.92,0,0,0-.06-.57,5.44,5.44,0,0,1,0-.55.4.4,0,0,1,.19-.28.5.5,0,0,1,.29-.16.46.46,0,0,1,.36.21c0,.65,0,1,0,1.14s0,.3,0,.44c.09,0,.21-.2.36-.5a3.62,3.62,0,0,1,.48-.78,1.08,1.08,0,0,1,.83-.42,1.77,1.77,0,0,1,.54.14,2,2,0,0,1,1.15,1,7.1,7.1,0,0,1,.59,3.13Z"/><path d="M154.62,68.39a5.66,5.66,0,0,1-.09.89c-.07.47-.11.76-.13.88,0,.31-.08,1.35-.15,3.1-.06,1.6-.09,2.49-.09,2.66a6.4,6.4,0,0,0,.28,2.27.31.31,0,0,1-.27.16.58.58,0,0,1-.34-.15.67.67,0,0,1-.23-.3,6.93,6.93,0,0,0-.09-.91,2.35,2.35,0,0,1-1.69,1.12,1.73,1.73,0,0,1-1.5-.73,2.82,2.82,0,0,1-.45-1.67,8,8,0,0,1,.46-2.61q.6-1.77,1.59-1.77a1.48,1.48,0,0,1,.86.32c.06,0,.29.25.7.63a40.53,40.53,0,0,0,.15-4.49.39.39,0,0,1,.29-.1.72.72,0,0,1,.7.7Zm-1.12,5.55a2.33,2.33,0,0,0-.3-1.18,1.1,1.1,0,0,0-1-.63q-.75,0-1.2,1.53a7.29,7.29,0,0,0-.36,2.17,2.83,2.83,0,0,0,.21,1.14.91.91,0,0,0,.86.63c.61,0,1.09-.48,1.4-1.44A6.47,6.47,0,0,0,153.5,73.94Z"/><path d="M40.55,88.15A10.82,10.82,0,0,1,40.17,91q-.53,2-1.53,2A1.5,1.5,0,0,1,37.38,92L37,91.12l-.06,0c-.14.4-.28.8-.43,1.2a1,1,0,0,1-1,.69q-1.9,0-1.9-4.58,0-1,.06-1.65a.32.32,0,0,1,.27-.15.78.78,0,0,1,.39.13.34.34,0,0,1,.22.29,2.75,2.75,0,0,1-.1.61,3.19,3.19,0,0,0-.09.65c0,2.6.33,3.9,1,3.9.43,0,.78-.49,1-1.47a7.11,7.11,0,0,0,.3-2V87.31c0-.21.12-.32.36-.32s.43.2.43.6c0,0,0,.13,0,.23a1,1,0,0,0,0,.22v1.85a4.71,4.71,0,0,0,.22,1.38c.19.65.45,1,.77,1s.79-.54,1.08-1.63a8.9,8.9,0,0,0,.33-2.21,3.12,3.12,0,0,0-.12-1.15.75.75,0,0,0-.11-.14c-.07-.08-.1-.13-.1-.16a.44.44,0,0,1,.14-.32.42.42,0,0,1,.31-.15C40.37,86.48,40.55,87,40.55,88.15Z"/><path d="M45.35,93.34a.64.64,0,0,1-.45.12.5.5,0,0,1-.35-.21V91.19c0-2.54-.42-3.81-1.27-3.81a1,1,0,0,0-.89.63,2.17,2.17,0,0,0-.31,1.11,1.3,1.3,0,0,1,0,.19.58.58,0,0,0,0,.19v1.92a5.26,5.26,0,0,0,.08.73,5,5,0,0,1,.07.72q0,.24-.36.24a.52.52,0,0,1-.43-.24.86.86,0,0,1-.17-.5l.09-9.23a.57.57,0,0,1,0-.18q0-.27.3-.27a.84.84,0,0,1,.44.2c.2.13.3.25.3.34a5.31,5.31,0,0,1-.15,1,5.81,5.81,0,0,0-.14,1s0,.69,0,2a1.56,1.56,0,0,1,.86-.49,3,3,0,0,1,1.15.28c.87.36,1.31,1.31,1.31,2.85Z"/><path d="M47.52,87.07a3.62,3.62,0,0,1-.13.81,4.12,4.12,0,0,0-.12.81V92a3.77,3.77,0,0,0,.15.9.19.19,0,0,1-.17.12c-.49,0-.73-.23-.73-.7V86.81a.76.76,0,0,1,.37-.1.8.8,0,0,1,.38.1C47.44,86.88,47.52,87,47.52,87.07Zm.29-2.25q0,.51-.48.51a.79.79,0,0,1-.53-.21.63.63,0,0,1-.24-.48.45.45,0,0,1,.51-.51.76.76,0,0,1,.52.19A.67.67,0,0,1,47.81,84.82Z"/><path d="M51.08,88.21a1.45,1.45,0,0,1-.57.15,2.53,2.53,0,0,0-.57.1c0,.11,0,.67,0,1.67,0,.78,0,1.3,0,1.57a3.08,3.08,0,0,0,.08.53,2.81,2.81,0,0,1,.07.55A.33.33,0,0,1,50,93a.45.45,0,0,1-.27.12c-.2,0-.36-.2-.48-.61a3.36,3.36,0,0,1-.12-.86V88.55c-.06,0-.28,0-.67,0s-.47-.07-.47-.34.41-.56,1.22-.53L49.35,85a.41.41,0,0,0,0-.15.5.5,0,0,1,0-.14.21.21,0,0,1,.12-.17.38.38,0,0,1,.28-.07c.35,0,.53.21.53.53a9.07,9.07,0,0,1-.11,1.12A8.65,8.65,0,0,0,50,87.2a2,2,0,0,0,0,.35l.82,0q.42,0,.42.33A.44.44,0,0,1,51.08,88.21Z"/><path d="M55.86,91.45c0,.44-.29.83-.88,1.18a2.92,2.92,0,0,1-1.5.48q-2,0-2-2.55a8,8,0,0,1,.4-2.41q.54-1.68,1.38-1.68a2.56,2.56,0,0,1,1.58.72,2,2,0,0,1,.85,1.45,2.14,2.14,0,0,1-.75,1.62,2.43,2.43,0,0,1-1.69.69,1.24,1.24,0,0,1-.39-.15,1.09,1.09,0,0,0-.39-.15c-.13,0-.2,0-.2.12,0,1.15.38,1.73,1.14,1.73a1.71,1.71,0,0,0,1.08-.39,3.59,3.59,0,0,0,.66-.71c.19-.25.32-.37.38-.37C55.75,91,55.86,91.17,55.86,91.45Zm-1-2.76a1.79,1.79,0,0,0-.3-1,.92.92,0,0,0-.8-.45c-.4,0-.72.25-1,.75a2.87,2.87,0,0,0-.32,1.3,1,1,0,0,0,.28.73.94.94,0,0,0,.71.29,1.23,1.23,0,0,0,1-.52A1.76,1.76,0,0,0,54.83,88.69Z"/><path d="M64.55,83.68q0,.3-.45.3a.2.2,0,0,1-.14,0c0-.42-.32-.64-.84-.64S62.25,83.86,62,85a10.24,10.24,0,0,0-.27,2.27,1.2,1.2,0,0,1,.27,0h.41c.37,0,.55.11.55.33a2.13,2.13,0,0,1,0,.3,1.6,1.6,0,0,1-.76.14,1.11,1.11,0,0,0-.48.06c0,.39-.05,1.09-.05,2.11v1.08a6.14,6.14,0,0,0,.18,1.46.35.35,0,0,1,0,.13q0,.36-.51.36c-.3,0-.45-.4-.45-1.21q0-3.3.06-3.9h-.76c-.23,0-.35-.11-.35-.33s.2-.44.6-.44H61c0-.2,0-.45.06-.76q.23-4,2.24-4Q64.55,82.6,64.55,83.68Z"/><path d="M67.73,90a4.32,4.32,0,0,1-.57,2.25,2.08,2.08,0,0,1-1.88,1.15,2,2,0,0,1-1.81-.94,3.82,3.82,0,0,1-.5-2.07,5.92,5.92,0,0,1,.57-2.51c.48-1,1.09-1.51,1.83-1.51a1.74,1.74,0,0,1,.81.33A3.58,3.58,0,0,1,67.73,90ZM67,90a5.4,5.4,0,0,0-.26-1.72c-.25-.71-.63-1.07-1.15-1.07s-1.07.4-1.41,1.19a4.93,4.93,0,0,0-.39,2,4.13,4.13,0,0,0,.27,1.59,1.28,1.28,0,0,0,1.21.89,1.48,1.48,0,0,0,1.37-1A4.38,4.38,0,0,0,67,90Z"/><path d="M71.81,87.59s0,.13,0,.26-.25.3-.37.3a.25.25,0,0,1-.21-.15c0-.63-.29-1-.78-1-.32,0-.64.59-1,1.77a6.68,6.68,0,0,0-.18,1.73,10.32,10.32,0,0,0,.08,1.69l.07.19a.61.61,0,0,1,.06.22q0,.33-.45.33a.46.46,0,0,1-.51-.53.79.79,0,0,1,0-.22,1.23,1.23,0,0,0,0-.21c0-.55,0-1.38-.08-2.48s-.07-1.92-.07-2.47c0-.2,0-.33.1-.37a.79.79,0,0,1,.41-.07c.25,0,.39.09.43.27l0,.59c.26-.4.41-.63.45-.68a.92.92,0,0,1,.69-.37,1,1,0,0,1,.54.16,1.72,1.72,0,0,1,.41.47A1.19,1.19,0,0,1,71.81,87.59Z"/><path d="M78.86,88.21a1.45,1.45,0,0,1-.57.15,2.53,2.53,0,0,0-.57.1c0,.11,0,.67,0,1.67,0,.78,0,1.3,0,1.57a3.08,3.08,0,0,0,.08.53,2.81,2.81,0,0,1,.07.55.33.33,0,0,1-.15.24.45.45,0,0,1-.27.12c-.2,0-.36-.2-.48-.61a3.36,3.36,0,0,1-.12-.86V88.55c-.06,0-.28,0-.67,0s-.47-.07-.47-.34.41-.56,1.22-.53L77.13,85a.41.41,0,0,0,0-.15.5.5,0,0,1,0-.14.21.21,0,0,1,.12-.17.38.38,0,0,1,.28-.07c.35,0,.53.21.53.53a9.07,9.07,0,0,1-.11,1.12,8.65,8.65,0,0,0-.1,1.11,2,2,0,0,0,0,.35l.82,0q.42,0,.42.33A.44.44,0,0,1,78.86,88.21Z"/><path d="M83.61,93.34a.64.64,0,0,1-.45.12.48.48,0,0,1-.34-.21V91.19c0-2.54-.43-3.81-1.27-3.81a1,1,0,0,0-.9.63,2.27,2.27,0,0,0-.31,1.11.63.63,0,0,1,0,.19.89.89,0,0,0,0,.19v1.92a4.94,4.94,0,0,0,.07.73,5.31,5.31,0,0,1,.08.72q0,.24-.36.24a.51.51,0,0,1-.43-.24.8.8,0,0,1-.17-.5l.09-9.23a.57.57,0,0,1,0-.18q0-.27.3-.27a.87.87,0,0,1,.44.2c.19.13.29.25.29.34a6,6,0,0,1-.14,1,5,5,0,0,0-.14,1s0,.69,0,2a1.55,1.55,0,0,1,.85-.49,3.07,3.07,0,0,1,1.16.28c.87.36,1.3,1.31,1.3,2.85Z"/><path d="M89.22,90a4.32,4.32,0,0,1-.57,2.25,2.07,2.07,0,0,1-1.87,1.15A2,2,0,0,1,85,92.44a3.82,3.82,0,0,1-.49-2.07A5.92,5.92,0,0,1,85,87.86c.48-1,1.09-1.51,1.83-1.51a1.74,1.74,0,0,1,.81.33A3.57,3.57,0,0,1,89.22,90Zm-.72,0a5.41,5.41,0,0,0-.25-1.72c-.25-.71-.64-1.07-1.16-1.07s-1.07.4-1.41,1.19a4.93,4.93,0,0,0-.39,2,4.13,4.13,0,0,0,.27,1.59,1.29,1.29,0,0,0,1.22.89,1.47,1.47,0,0,0,1.36-1A4.38,4.38,0,0,0,88.5,90Z"/><path d="M94.46,92.06c0,.35-.27.64-.8.88a3,3,0,0,1-1.27.29,2.52,2.52,0,0,1-.93-.2,4.67,4.67,0,0,1-.92-.63c-.46-.37-.69-.63-.69-.77,0-.31.19-.45.56-.42h.09c0,.3.34.63,1,1a3,3,0,0,0,1.35.49c.44,0,.66-.15.66-.46s-.27-.43-.81-.75a8.81,8.81,0,0,1-1.52-1,2.5,2.5,0,0,1-.82-1.84,3,3,0,0,1,.4-1.49,1.35,1.35,0,0,1,1.17-.84,2.41,2.41,0,0,1,1.23.47,1.82,1.82,0,0,1,.84,1,3.3,3.3,0,0,1,.12.94,4.43,4.43,0,0,1-.21,1.28.48.48,0,0,1-.31.1,1.25,1.25,0,0,1-.33-.08c-.15-.06-.23-.11-.23-.17s.06-.07.17-.33a2.45,2.45,0,0,0,.12-.93c0-1.07-.34-1.61-1-1.61-.35,0-.63.24-.84.71a2.66,2.66,0,0,0-.27,1.16A1.9,1.9,0,0,0,92,90.19a17.45,17.45,0,0,0,1.57,1C94.17,91.58,94.46,91.86,94.46,92.06Z"/><path d="M99.36,91.45c0,.44-.29.83-.88,1.18a2.92,2.92,0,0,1-1.5.48q-2,0-2-2.55a8,8,0,0,1,.4-2.41q.54-1.68,1.38-1.68a2.56,2.56,0,0,1,1.58.72,2,2,0,0,1,.85,1.45,2.14,2.14,0,0,1-.75,1.62,2.43,2.43,0,0,1-1.69.69,1.24,1.24,0,0,1-.39-.15,1.09,1.09,0,0,0-.39-.15c-.13,0-.2,0-.2.12,0,1.15.38,1.73,1.14,1.73A1.71,1.71,0,0,0,98,92.11a3.59,3.59,0,0,0,.66-.71c.19-.25.32-.37.38-.37C99.25,91,99.36,91.17,99.36,91.45Zm-1-2.76a1.79,1.79,0,0,0-.3-1,.92.92,0,0,0-.8-.45c-.4,0-.72.25-1,.75a2.87,2.87,0,0,0-.32,1.3,1,1,0,0,0,.28.73.94.94,0,0,0,.71.29,1.23,1.23,0,0,0,1-.52A1.76,1.76,0,0,0,98.33,88.69Z"/><path d="M110.1,88.15a10.81,10.81,0,0,1-.37,2.82q-.53,2-1.53,2a1.5,1.5,0,0,1-1.26-.92l-.39-.91-.06,0c-.14.4-.29.8-.44,1.2a1,1,0,0,1-.94.69q-1.9,0-1.91-4.58,0-1,.06-1.65a.32.32,0,0,1,.27-.15.78.78,0,0,1,.39.13c.15.08.23.18.23.29a3.52,3.52,0,0,1-.1.61,2.71,2.71,0,0,0-.1.65c0,2.6.34,3.9,1,3.9.43,0,.77-.49,1-1.47a7.11,7.11,0,0,0,.3-2V87.31c0-.21.12-.32.36-.32s.44.2.44.6a1.31,1.31,0,0,1,0,.23c0,.1,0,.17,0,.22v1.85a4.74,4.74,0,0,0,.23,1.38c.19.65.44,1,.76,1s.79-.54,1.08-1.63a8.9,8.9,0,0,0,.33-2.21,3.12,3.12,0,0,0-.12-1.15.5.5,0,0,0-.1-.14c-.07-.08-.11-.13-.11-.16a.49.49,0,0,1,.14-.32.43.43,0,0,1,.31-.15C109.92,86.48,110.1,87,110.1,88.15Z"/><path d="M114.9,93.34a.64.64,0,0,1-.45.12.48.48,0,0,1-.34-.21V91.19c0-2.54-.43-3.81-1.27-3.81A1,1,0,0,0,112,88a2.18,2.18,0,0,0-.32,1.11.63.63,0,0,1,0,.19.89.89,0,0,0,0,.19v1.92a4.94,4.94,0,0,0,.07.73,5.31,5.31,0,0,1,.08.72q0,.24-.36.24a.52.52,0,0,1-.43-.24.8.8,0,0,1-.17-.5l.09-9.23a.57.57,0,0,1,0-.18q0-.27.3-.27a.84.84,0,0,1,.44.2c.2.13.29.25.29.34a5.13,5.13,0,0,1-.14,1,5,5,0,0,0-.14,1s0,.69,0,2a1.55,1.55,0,0,1,.85-.49,3.07,3.07,0,0,1,1.16.28c.87.36,1.3,1.31,1.3,2.85Z"/><path d="M120.51,90a4.32,4.32,0,0,1-.57,2.25,2.07,2.07,0,0,1-1.87,1.15,2,2,0,0,1-1.82-.94,3.82,3.82,0,0,1-.49-2.07,5.92,5.92,0,0,1,.57-2.51c.48-1,1.09-1.51,1.83-1.51a1.74,1.74,0,0,1,.81.33A3.57,3.57,0,0,1,120.51,90Zm-.72,0a5.41,5.41,0,0,0-.25-1.72c-.25-.71-.64-1.07-1.16-1.07s-1.07.4-1.41,1.19a4.93,4.93,0,0,0-.39,2,4.13,4.13,0,0,0,.27,1.59,1.29,1.29,0,0,0,1.22.89,1.47,1.47,0,0,0,1.36-1A4.38,4.38,0,0,0,119.79,90Z"/><path d="M128.48,93.34a.64.64,0,0,1-.45.12.5.5,0,0,1-.35-.21V91.19q0-3.81-1.26-3.81a1,1,0,0,0-.9.63,2.17,2.17,0,0,0-.31,1.11.63.63,0,0,1,0,.19,1.08,1.08,0,0,0,0,.19v1.92a5.26,5.26,0,0,0,.08.73,5,5,0,0,1,.07.72q0,.24-.36.24a.49.49,0,0,1-.42-.24.81.81,0,0,1-.18-.5l.09-9.23a.57.57,0,0,1,0-.18q0-.27.3-.27a.9.9,0,0,1,.45.2c.19.13.29.25.29.34a6,6,0,0,1-.14,1,5.16,5.16,0,0,0-.15,1s0,.69,0,2a1.56,1.56,0,0,1,.86-.49,3,3,0,0,1,1.15.28c.87.36,1.31,1.31,1.31,2.85Z"/><path d="M133.91,93.37q0,.21-.33.21a.4.4,0,0,1-.44-.3s0-.23,0-.59a.54.54,0,0,0,0-.24,3,3,0,0,1-1.81.62,2.54,2.54,0,0,1-1.31-.38,1.22,1.22,0,0,1-.72-1c0-.41.29-.81.86-1.2a2.59,2.59,0,0,1,1.44-.54H133a.43.43,0,0,0,.09-.31,5.31,5.31,0,0,0-.16-1.52,1.06,1.06,0,0,0-1.07-.85,1.32,1.32,0,0,0-1,.72,2.3,2.3,0,0,0-.43,1.26v.16a.11.11,0,0,1-.12.12.5.5,0,0,1-.33-.18.48.48,0,0,1-.18-.31,3,3,0,0,1,.25-1.06,3.18,3.18,0,0,1,.56-1,1.21,1.21,0,0,1,.93-.4,2.55,2.55,0,0,1,1.57.54,1.77,1.77,0,0,1,.78,1.41Zm-.8-2.39q0-.6-.93-.6a3.06,3.06,0,0,0-1.29.26,1.05,1.05,0,0,0-.7,1,.7.7,0,0,0,.37.63,1.39,1.39,0,0,0,.75.19,2.08,2.08,0,0,0,1.23-.42A1.26,1.26,0,0,0,133.11,91Z"/><path d="M139.08,87a11.28,11.28,0,0,1-.54,3.56c-.45,1.68-.92,2.52-1.42,2.52s-1.15-.64-1.65-1.91a15.5,15.5,0,0,1-.78-2.73,7.66,7.66,0,0,1-.15-1.54.34.34,0,0,1,.13-.25.32.32,0,0,1,.24-.13,1.05,1.05,0,0,1,.54.3,2.22,2.22,0,0,0-.06.51,8.46,8.46,0,0,0,.36,2.21,12.8,12.8,0,0,0,.78,2.1q.25.51.42.51c.39,0,.73-.79,1-2.36a17.51,17.51,0,0,0,.33-3c0-.06,0-.12.15-.19a.42.42,0,0,1,.24-.11Q139.07,86.48,139.08,87Z"/><path d="M143.87,91.45c0,.44-.3.83-.89,1.18a2.92,2.92,0,0,1-1.5.48q-2,0-2-2.55a8.07,8.07,0,0,1,.41-2.41q.54-1.68,1.38-1.68a2.53,2.53,0,0,1,1.57.72,2,2,0,0,1,.86,1.45,2.14,2.14,0,0,1-.75,1.62,2.45,2.45,0,0,1-1.7.69,1.14,1.14,0,0,1-.38-.15,1.11,1.11,0,0,0-.4-.15c-.13,0-.19,0-.19.12,0,1.15.38,1.73,1.14,1.73a1.71,1.71,0,0,0,1.08-.39,3.59,3.59,0,0,0,.66-.71c.19-.25.31-.37.37-.37C143.75,91,143.87,91.17,143.87,91.45Zm-1-2.76a1.79,1.79,0,0,0-.3-1,.91.91,0,0,0-.79-.45,1.12,1.12,0,0,0-1,.75,2.86,2.86,0,0,0-.31,1.3,1,1,0,0,0,.28.73.94.94,0,0,0,.71.29,1.23,1.23,0,0,0,1-.52A1.75,1.75,0,0,0,142.83,88.69Z"/><path d="M63.53,104.26a6.28,6.28,0,0,1-.43,2.49,1.94,1.94,0,0,1-1.85,1.39,1.8,1.8,0,0,1-1.44-.76c-.07,0-.1.34-.1.93a13.48,13.48,0,0,0,.19,2.76,2.3,2.3,0,0,0,.15.36,1.5,1.5,0,0,1,.12.34q0,.24-.3.24a.87.87,0,0,1-.5-.1c-.1-.07-.18-.3-.25-.69a4.63,4.63,0,0,1-.09-.78v-3.81q0-.52.06-1.41t.06-1.41q0-.41,0-1v-1.07c0-.69.18-1,.54-1,.18,0,.27.06.27.19s0,.62-.06,1.1-.06.84-.06,1.08h.06l.69-1a1.23,1.23,0,0,1,1-.52,1.63,1.63,0,0,1,1.51.9A3.53,3.53,0,0,1,63.53,104.26Zm-.75.06a5,5,0,0,0-.16-1.37c-.17-.56-.45-.84-.83-.84s-.62.25-1,.74a4,4,0,0,0-.73,1.32,7.89,7.89,0,0,0-.27,1.5q-.06.72-.06.69s0,.08.13.15l.18.13.49.7a.85.85,0,0,0,.74.35c.54,0,1-.45,1.23-1.35A6.72,6.72,0,0,0,62.78,104.32Z"/><path d="M68.6,108.37q0,.21-.33.21a.39.39,0,0,1-.43-.3,4.53,4.53,0,0,1,0-.59.55.55,0,0,0,0-.24,3,3,0,0,1-1.82.62,2.51,2.51,0,0,1-1.3-.38,1.22,1.22,0,0,1-.72-1c0-.41.28-.81.85-1.2a2.59,2.59,0,0,1,1.44-.54h1.49a.43.43,0,0,0,.09-.31,5.24,5.24,0,0,0-.17-1.52,1.05,1.05,0,0,0-1.06-.85,1.32,1.32,0,0,0-1,.72,2.31,2.31,0,0,0-.44,1.26v.16a.11.11,0,0,1-.12.12.5.5,0,0,1-.33-.18.48.48,0,0,1-.18-.31,3,3,0,0,1,.26-1.06,3.18,3.18,0,0,1,.55-1,1.21,1.21,0,0,1,.93-.4,2.58,2.58,0,0,1,1.58.54,1.77,1.77,0,0,1,.78,1.41ZM67.81,106q0-.6-.93-.6a3.06,3.06,0,0,0-1.29.26,1.06,1.06,0,0,0-.71,1,.7.7,0,0,0,.38.63,1.39,1.39,0,0,0,.75.19,2,2,0,0,0,1.22-.42A1.25,1.25,0,0,0,67.81,106Z"/><path d="M74,107.06c0,.35-.27.64-.8.88a3,3,0,0,1-1.27.29A2.52,2.52,0,0,1,71,108a4.67,4.67,0,0,1-.92-.63c-.46-.37-.69-.63-.69-.77,0-.31.19-.45.56-.42H70c0,.3.34.63,1,1a3,3,0,0,0,1.35.49c.44,0,.66-.15.66-.46s-.27-.43-.81-.75a8.81,8.81,0,0,1-1.52-1,2.5,2.5,0,0,1-.82-1.84,3,3,0,0,1,.4-1.49,1.35,1.35,0,0,1,1.17-.84,2.41,2.41,0,0,1,1.23.47,1.82,1.82,0,0,1,.84,1,3.3,3.3,0,0,1,.12.94,4.43,4.43,0,0,1-.21,1.28.48.48,0,0,1-.31.1,1.25,1.25,0,0,1-.33-.08c-.15-.06-.23-.11-.23-.17s.06-.07.17-.33a2.45,2.45,0,0,0,.12-.93c0-1.07-.34-1.61-1-1.61-.35,0-.63.24-.84.71a2.66,2.66,0,0,0-.27,1.16,1.9,1.9,0,0,0,.86,1.42,17.45,17.45,0,0,0,1.57,1C73.67,106.58,74,106.86,74,107.06Z"/><path d="M78.83,107.06c0,.35-.26.64-.79.88a3.08,3.08,0,0,1-1.28.29,2.52,2.52,0,0,1-.93-.2,4.69,4.69,0,0,1-.91-.63c-.46-.37-.69-.63-.69-.77,0-.31.18-.45.55-.42h.09c0,.3.34.63,1,1a3,3,0,0,0,1.35.49c.44,0,.66-.15.66-.46s-.27-.43-.81-.75a8.62,8.62,0,0,1-1.51-1,2.52,2.52,0,0,1-.83-1.84,3,3,0,0,1,.41-1.49,1.35,1.35,0,0,1,1.17-.84,2.41,2.41,0,0,1,1.23.47,1.82,1.82,0,0,1,.84,1,3.3,3.3,0,0,1,.12.94,4.43,4.43,0,0,1-.21,1.28.51.51,0,0,1-.32.1,1.25,1.25,0,0,1-.33-.08c-.15-.06-.22-.11-.22-.17s.05-.07.16-.33a2.45,2.45,0,0,0,.12-.93c0-1.07-.33-1.61-1-1.61-.35,0-.63.24-.84.71a2.66,2.66,0,0,0-.27,1.16,1.88,1.88,0,0,0,.85,1.42,18.28,18.28,0,0,0,1.58,1C78.55,106.58,78.83,106.86,78.83,107.06Z"/><path d="M83.74,106.45c0,.44-.3.83-.89,1.18a2.92,2.92,0,0,1-1.5.48q-2,0-2-2.55a8.07,8.07,0,0,1,.41-2.41q.54-1.68,1.38-1.68a2.53,2.53,0,0,1,1.57.72,2,2,0,0,1,.86,1.45,2.14,2.14,0,0,1-.75,1.62,2.45,2.45,0,0,1-1.7.69,1.14,1.14,0,0,1-.38-.15,1.18,1.18,0,0,0-.4-.15c-.13,0-.19,0-.19.12,0,1.15.38,1.73,1.14,1.73a1.71,1.71,0,0,0,1.08-.39,3.59,3.59,0,0,0,.66-.71c.19-.25.31-.37.37-.37C83.62,106,83.74,106.17,83.74,106.45Zm-1-2.76a1.79,1.79,0,0,0-.3-1,.91.91,0,0,0-.79-.45,1.12,1.12,0,0,0-1,.75,2.86,2.86,0,0,0-.31,1.3,1,1,0,0,0,.27.73,1,1,0,0,0,.72.29,1.23,1.23,0,0,0,1-.52A1.75,1.75,0,0,0,82.7,103.69Z"/><path d="M89.17,98.39a5.66,5.66,0,0,1-.09.89c-.07.47-.12.76-.14.88,0,.31-.08,1.35-.15,3.1-.06,1.6-.09,2.49-.09,2.66a6.35,6.35,0,0,0,.29,2.27.31.31,0,0,1-.27.16.56.56,0,0,1-.34-.15.61.61,0,0,1-.23-.3,6.93,6.93,0,0,0-.09-.91,2.36,2.36,0,0,1-1.7,1.12,1.73,1.73,0,0,1-1.5-.73,2.82,2.82,0,0,1-.45-1.67,8,8,0,0,1,.47-2.61q.6-1.77,1.59-1.77a1.45,1.45,0,0,1,.85.32c.06,0,.3.25.71.63a40.53,40.53,0,0,0,.15-4.49.37.37,0,0,1,.28-.1.69.69,0,0,1,.5.21A.67.67,0,0,1,89.17,98.39ZM88,103.94a2.33,2.33,0,0,0-.3-1.18,1.08,1.08,0,0,0-1-.63q-.75,0-1.2,1.53a7.29,7.29,0,0,0-.36,2.17,2.83,2.83,0,0,0,.21,1.14.91.91,0,0,0,.85.63q.93,0,1.41-1.44A6.71,6.71,0,0,0,88,103.94Z"/><path d="M97.75,108.37q0,.21-.33.21a.4.4,0,0,1-.44-.3s0-.23,0-.59a.54.54,0,0,0,0-.24,3,3,0,0,1-1.81.62,2.54,2.54,0,0,1-1.31-.38,1.22,1.22,0,0,1-.72-1c0-.41.29-.81.86-1.2a2.59,2.59,0,0,1,1.44-.54h1.48a.43.43,0,0,0,.09-.31,5.31,5.31,0,0,0-.16-1.52,1.06,1.06,0,0,0-1.07-.85,1.32,1.32,0,0,0-1,.72,2.3,2.3,0,0,0-.43,1.26v.16a.11.11,0,0,1-.12.12.5.5,0,0,1-.33-.18.48.48,0,0,1-.18-.31,3,3,0,0,1,.25-1.06,3.18,3.18,0,0,1,.56-1,1.21,1.21,0,0,1,.93-.4,2.55,2.55,0,0,1,1.57.54,1.77,1.77,0,0,1,.78,1.41ZM97,106q0-.6-.93-.6a3.06,3.06,0,0,0-1.29.26,1.05,1.05,0,0,0-.7,1,.7.7,0,0,0,.37.63,1.39,1.39,0,0,0,.75.19,2.08,2.08,0,0,0,1.23-.42A1.26,1.26,0,0,0,97,106Z"/><path d="M105.62,103.15a10.81,10.81,0,0,1-.37,2.82q-.52,2-1.53,2a1.5,1.5,0,0,1-1.26-.92l-.39-.91-.06,0c-.14.4-.29.8-.44,1.2a1,1,0,0,1-.94.69q-1.91,0-1.91-4.58,0-1,.06-1.65a.32.32,0,0,1,.27-.15.78.78,0,0,1,.39.13c.15.08.23.18.23.29a3.52,3.52,0,0,1-.1.61,2.71,2.71,0,0,0-.1.65c0,2.6.34,3.9,1,3.9.43,0,.77-.49,1-1.47a7.11,7.11,0,0,0,.3-2v-1.44c0-.21.12-.32.36-.32s.44.2.44.6a1.31,1.31,0,0,1,0,.23c0,.1,0,.17,0,.22v1.85a4.74,4.74,0,0,0,.23,1.38c.19.65.44,1,.76,1s.79-.54,1.08-1.63a8.9,8.9,0,0,0,.33-2.21,3.12,3.12,0,0,0-.12-1.15.5.5,0,0,0-.1-.14c-.07-.08-.11-.13-.11-.16a.49.49,0,0,1,.14-.32.43.43,0,0,1,.31-.15C105.44,101.48,105.62,102,105.62,103.15Z"/><path d="M110.78,108.37q0,.21-.33.21a.39.39,0,0,1-.43-.3,4.53,4.53,0,0,1,0-.59.55.55,0,0,0,0-.24,3,3,0,0,1-1.82.62,2.51,2.51,0,0,1-1.3-.38,1.22,1.22,0,0,1-.72-1c0-.41.28-.81.85-1.2a2.59,2.59,0,0,1,1.44-.54h1.49a.43.43,0,0,0,.09-.31,5.24,5.24,0,0,0-.17-1.52,1.05,1.05,0,0,0-1.06-.85,1.32,1.32,0,0,0-1.05.72,2.31,2.31,0,0,0-.44,1.26v.16a.11.11,0,0,1-.12.12.5.5,0,0,1-.33-.18.48.48,0,0,1-.18-.31,3,3,0,0,1,.26-1.06,3.18,3.18,0,0,1,.55-1,1.21,1.21,0,0,1,.93-.4,2.58,2.58,0,0,1,1.58.54,1.77,1.77,0,0,1,.78,1.41ZM110,106q0-.6-.93-.6a3.06,3.06,0,0,0-1.29.26,1.06,1.06,0,0,0-.71,1,.7.7,0,0,0,.38.63,1.39,1.39,0,0,0,.75.19,2,2,0,0,0,1.22-.42A1.25,1.25,0,0,0,110,106Z"/><path d="M116.44,102.05c-.09.44-.16.88-.24,1.32a7.07,7.07,0,0,0-.14,1.32v4.7a2.09,2.09,0,0,1-.61,1.59,2.19,2.19,0,0,1-1.62.6,3.19,3.19,0,0,1-1.25-.3,2.21,2.21,0,0,1-1.09-.83.56.56,0,0,1-.08-.27.37.37,0,0,1,.42-.43.41.41,0,0,1,.2.06l.51.52a1.84,1.84,0,0,0,1.29.47,1.32,1.32,0,0,0,1.32-.69,4.39,4.39,0,0,0,.19-1.58,5.71,5.71,0,0,0-.06-.6,2.54,2.54,0,0,1,0-.66,4.42,4.42,0,0,1-.6.5,1.32,1.32,0,0,1-.72.21,1.73,1.73,0,0,1-1.54-.8,3.06,3.06,0,0,1-.47-1.75q0-2,.06-3.42a.49.49,0,0,1,.53-.48c.38,0,.55.06.51.19a12.94,12.94,0,0,0-.29,3.5c0,1.4.4,2.1,1.19,2.1.49,0,.88-.38,1.17-1.13a4.66,4.66,0,0,0,.31-1.75v-1.71c0-.17,0-.39,0-.65s.18-.38.49-.36S116.46,101.86,116.44,102.05Z"/><path d="M118.48,107.62c0,.14-.1.26-.29.36a1,1,0,0,1-.46.12.64.64,0,0,1-.45-.18.56.56,0,0,1-.2-.42.46.46,0,0,1,.53-.51,1.05,1.05,0,0,1,.58.17A.52.52,0,0,1,118.48,107.62Z"/></g></g></g></svg>