<svg xmlns="http://www.w3.org/2000/svg" viewBox="0 0 197.94 138.93"><defs><style>.cls-1{fill:#fff;}.cls-2{fill:none;stroke:#92dfcb;stroke-miterlimit:10;stroke-width:2.7px;}</style></defs><title>3</title><g id="Layer_2" data-name="Layer 2"><g id="Facts"><g id="_3" data-name="3"><path class="cls-1" d="M196.6,69.46c0,2.75-3.45,5.17-3.92,7.83s1.95,6.12,1,8.69-5,3.7-6.27,6.11,0,6.38-1.66,8.59-5.81,2.15-7.71,4.16-1.6,6.14-3.71,7.93-6.16.81-8.43,2.39c-2.75,1.9-4,6.44-7,8.1s-7.43.17-10.63,1.52-5.17,5.53-8.48,6.59-7.35-1.18-10.73-.4-6,4.57-9.45,5.09-7.08-2.33-10.53-2.08-6.66,3.6-10.12,3.6-6.75-3.35-10.11-3.6-7.21,2.58-10.54,2.08-6.17-4.33-9.45-5.09-7.53,1.43-10.73.4-5.39-5.28-8.48-6.59S42,124.86,39,123.26s-4.29-6.2-7-8.1c-2.28-1.58-6.4-.66-8.44-2.39s-1.87-6-3.7-7.93-6.13-2-7.72-4.16-.38-6.24-1.65-8.59S5.13,88.51,4.23,86s1.5-6,1-8.69-3.91-5.08-3.91-7.83S4.8,64.3,5.26,61.64s-1.95-6.12-1-8.69,5-3.7,6.27-6.11,0-6.38,1.65-8.59S18,36.1,19.87,34.09s1.59-6.14,3.7-7.93,6.16-.81,8.44-2.39c2.74-1.9,4-6.44,7-8.1s7.42-.17,10.62-1.52,5.17-5.53,8.48-6.59,7.35,1.18,10.73.4,6-4.58,9.45-5.09S85.41,5.2,88.86,5,95.51,1.35,99,1.35,105.72,4.7,109.09,5s7.2-2.58,10.53-2.08S125.8,7.2,129.07,8s7.53-1.43,10.73-.4,5.39,5.28,8.48,6.59,7.69-.08,10.63,1.52,4.28,6.2,7,8.1c2.27,1.58,6.39.66,8.43,2.39s1.87,6,3.71,7.93,6.12,2,7.71,4.16.38,6.24,1.66,8.59,5.36,3.58,6.27,6.11-1.51,6-1,8.69S196.6,66.72,196.6,69.46Z"/><path class="cls-2" d="M196.6,69.46c0,2.75-3.45,5.17-3.92,7.83s1.95,6.12,1,8.69-5,3.7-6.27,6.11,0,6.38-1.66,8.59-5.81,2.15-7.71,4.16-1.6,6.14-3.71,7.93-6.16.81-8.43,2.39c-2.75,1.9-4,6.44-7,8.1s-7.43.17-10.63,1.52-5.17,5.53-8.48,6.59-7.35-1.18-10.73-.4-6,4.57-9.45,5.09-7.08-2.33-10.53-2.08-6.66,3.6-10.12,3.6-6.75-3.35-10.11-3.6-7.21,2.58-10.54,2.08-6.17-4.33-9.45-5.09-7.53,1.43-10.73.4-5.39-5.28-8.48-6.59S42,124.86,39,123.26s-4.29-6.2-7-8.1c-2.28-1.58-6.4-.66-8.44-2.39s-1.87-6-3.7-7.93-6.13-2-7.72-4.16-.38-6.24-1.65-8.59S5.13,88.51,4.23,86s1.5-6,1-8.69-3.91-5.08-3.91-7.83S4.8,64.3,5.26,61.64s-1.95-6.12-1-8.69,5-3.7,6.27-6.11,0-6.38,1.65-8.59S18,36.1,19.87,34.09s1.59-6.14,3.7-7.93,6.16-.81,8.44-2.39c2.74-1.9,4-6.44,7-8.1s7.42-.17,10.62-1.52,5.17-5.53,8.48-6.59,7.35,1.18,10.73.4,6-4.58,9.45-5.09S85.41,5.2,88.86,5,95.51,1.35,99,1.35,105.72,4.7,109.09,5s7.2-2.58,10.53-2.08S125.8,7.2,129.07,8s7.53-1.43,10.73-.4,5.39,5.28,8.48,6.59,7.69-.08,10.63,1.52,4.28,6.2,7,8.1c2.27,1.58,6.39.66,8.43,2.39s1.87,6,3.71,7.93,6.12,2,7.71,4.16.38,6.24,1.66,8.59,5.36,3.58,6.27,6.11-1.51,6-1,8.69S196.6,66.72,196.6,69.46Z"/><path d="M54.52,27.17l-.14.26a3.39,3.39,0,0,0-.12.79,51.25,51.25,0,0,0-.34,5.69,5.51,5.51,0,0,0,.46,2.8.92.92,0,0,1-.45.2q-.65,0-.78-1A11.92,11.92,0,0,1,53,34.54l.11-7.11a.63.63,0,0,1,.28-.45.84.84,0,0,1,.5-.24.73.73,0,0,1,.37.16C54.44,27,54.52,27.09,54.52,27.17Z"/><path d="M60.23,36.86A.25.25,0,0,1,60,37a1.27,1.27,0,0,1-.51-.21V35.9q0-5-1.24-5c-.25,0-.53.19-.83.57a5.56,5.56,0,0,0-1,4.39,6.76,6.76,0,0,1,.08.83c0,.15-.1.23-.31.23-.38,0-.58-.32-.58-.95v-3.4c0-.09,0-.22,0-.39s0-.3,0-.39a3.63,3.63,0,0,0,0-.57,5.58,5.58,0,0,1-.05-.56c0-.08.06-.17.19-.28a.53.53,0,0,1,.29-.15.46.46,0,0,1,.36.21c0,.65,0,1,0,1.14s0,.29,0,.43c.09,0,.21-.19.36-.49a3.62,3.62,0,0,1,.48-.78,1.06,1.06,0,0,1,.82-.42,1.68,1.68,0,0,1,.54.13,2,2,0,0,1,1.16,1,7.16,7.16,0,0,1,.58,3.14Z"/><path d="M65.75,27.71s-.06.38-.18,1.05a19.47,19.47,0,0,0-.34,3V34.9a4.4,4.4,0,0,0,.15,1.54l.12.15a.34.34,0,0,1,.1.2.22.22,0,0,1-.25.25,1.42,1.42,0,0,1-.62-.19,1.18,1.18,0,0,1-.12-.5V29.62l-.24-.18v-.36a7.06,7.06,0,0,1,.26-1.35c.18-.72.32-1.08.43-1.08s.31.13.46.41A1.41,1.41,0,0,1,65.75,27.71Z"/><path d="M73.09,30.4a8,8,0,0,1-1,3.81A9.26,9.26,0,0,1,71,35.83c-.6.72-1.1,1.08-1.49,1.08a1.31,1.31,0,0,1-.58-.18c-.26-.14-.39-.29-.39-.44s.09-.3.27-.3a.44.44,0,0,1,.24.12.44.44,0,0,0,.24.12c.37,0,.87-.47,1.51-1.41a8,8,0,0,0,1.07-2l.19-.6a4.34,4.34,0,0,1-2.61,1.18A2.84,2.84,0,0,1,67.92,33a2.59,2.59,0,0,1-1-1.16,3.45,3.45,0,0,1-.24-1.43,4.42,4.42,0,0,1,.83-2.74A2.94,2.94,0,0,1,70,26.5a2.71,2.71,0,0,1,2.36,1.24A4.6,4.6,0,0,1,73.09,30.4Zm-.75.07a4.62,4.62,0,0,0-.53-2.23A2,2,0,0,0,70,27.05a2.28,2.28,0,0,0-2,1.22,4.3,4.3,0,0,0-.68,2.32,2.43,2.43,0,0,0,.54,1.61,1.91,1.91,0,0,0,1.53.69A3.34,3.34,0,0,0,71,32.23a3,3,0,0,0,1.2-1.13A1.68,1.68,0,0,0,72.34,30.47Z"/><path d="M75.37,27.71s-.06.38-.18,1.05a19.76,19.76,0,0,0-.35,3V34.9A4.4,4.4,0,0,0,75,36.44l.12.15a.37.37,0,0,1,.11.2c0,.17-.09.25-.26.25a1.39,1.39,0,0,1-.61-.19,1.18,1.18,0,0,1-.12-.5V29.62L74,29.44v-.36a6.77,6.77,0,0,1,.25-1.35c.18-.72.33-1.08.44-1.08s.3.13.46.41A1.53,1.53,0,0,1,75.37,27.71Z"/><path d="M83.5,36.07q0,.36-.21.36l-.24-.08a2.86,2.86,0,0,0-.87-.12,16.58,16.58,0,0,0-4.28.59l-.54.18a2.22,2.22,0,0,1-.51.13c-.39,0-.58-.18-.58-.54a.83.83,0,0,1,.25-.54c.31-.27.78-.68,1.4-1.24a14.82,14.82,0,0,0,2.37-2.75,6.19,6.19,0,0,0,1.32-3.25,1.56,1.56,0,0,0-.47-1.15A1.66,1.66,0,0,0,80,27.2a3.08,3.08,0,0,0-2.55,1.88c0,.3-.09.6-.14.9s-.21.67-.39.67a.67.67,0,0,1-.33-.18c-.16-.13-.24-.22-.24-.28a3.09,3.09,0,0,1,.77-1.83A4.48,4.48,0,0,1,78.59,27a3.18,3.18,0,0,1,1.49-.36,2.44,2.44,0,0,1,2.38,2.38A5.48,5.48,0,0,1,81,32.36,22.19,22.19,0,0,1,78.38,35l-.51.48a1.89,1.89,0,0,0-.37.57.26.26,0,0,0,.25.13h.08L83,35.38a.45.45,0,0,1,.41.22A.94.94,0,0,1,83.5,36.07Z"/><path d="M84.25,36.11a.56.56,0,0,1,.12-.34.62.62,0,0,1,.52-.17.76.76,0,0,1,.48.17,1,1,0,0,1,.29.58,4.86,4.86,0,0,1,.08,1.09,2,2,0,0,1-.31.94,2.65,2.65,0,0,1-.55.69.9.9,0,0,1-.6.27c-.16,0-.25-.07-.27-.2a.43.43,0,0,1,.18-.39c.17-.15.35-.29.53-.42a1.2,1.2,0,0,0,.43-.55.88.88,0,0,0,0-.64.94.94,0,0,0-.38-.5l-.39-.27A.29.29,0,0,1,84.25,36.11Z"/><path d="M97,34c0,.32-.12.48-.37.48a1,1,0,0,1-.32-.06,4.71,4.71,0,0,0,.38,1.71.41.41,0,0,1-.19.32.64.64,0,0,1-.38.12,1,1,0,0,1-.41-.11,1.76,1.76,0,0,1-.12-.75c0-.09,0-.25,0-.49v-.5a.91.91,0,0,0,0-.36,1.83,1.83,0,0,0-.38,0l-.35,0a17.56,17.56,0,0,0-2,.18A5.07,5.07,0,0,0,91,35,2.57,2.57,0,0,0,90.68,36a11.56,11.56,0,0,0-.13,1.17.24.24,0,0,1-.21.1.72.72,0,0,1-.44-.19.53.53,0,0,1-.24-.38,1.59,1.59,0,0,1,.12-.4c.08-.21.13-.34.14-.39a20,20,0,0,1,1-3.68q2-5.63,3.06-5.62c.77,0,1.37,1,1.79,2.94.15.69.32,2,.52,4a1.4,1.4,0,0,0,.45.16Q97,33.77,97,34Zm-1.45-.43c-.25-1.76-.41-2.83-.48-3.2-.33-1.68-.68-2.51-1-2.5s-.93.79-1.55,2.31c-.35,1-.69,1.92-1,2.88a3.73,3.73,0,0,0-.2.58q-.06.36.21.36c.06,0,.37-.05.92-.15S93.84,33.63,95.53,33.52Z"/><path d="M102.26,36.86A.25.25,0,0,1,102,37a1.27,1.27,0,0,1-.51-.21V35.9q0-5-1.24-5c-.25,0-.53.19-.83.57a5.56,5.56,0,0,0-1,4.39,6.76,6.76,0,0,1,.08.83c0,.15-.1.23-.31.23-.38,0-.58-.32-.58-.95v-3.4c0-.09,0-.22,0-.39s0-.3,0-.39a3.63,3.63,0,0,0,0-.57,5.58,5.58,0,0,1,0-.56c0-.08.06-.17.19-.28a.53.53,0,0,1,.29-.15.46.46,0,0,1,.36.21c0,.65,0,1,0,1.14s0,.29,0,.43c.09,0,.21-.19.36-.49a3.62,3.62,0,0,1,.48-.78,1.06,1.06,0,0,1,.82-.42,1.68,1.68,0,0,1,.54.13,2,2,0,0,1,1.16,1,7.16,7.16,0,0,1,.58,3.14Z"/><path d="M107.89,36.86a.28.28,0,0,1-.24.17,1.21,1.21,0,0,1-.51-.21V35.9q0-5-1.24-5-.39,0-.84.57a5.54,5.54,0,0,0-1.13,3.56,6.76,6.76,0,0,0,.08.83,5.21,5.21,0,0,1,.08.83c0,.15-.1.23-.3.23-.39,0-.58-.32-.58-.95v-3.4c0-.09,0-.22,0-.39s0-.3,0-.39a5.49,5.49,0,0,0,0-.57,4,4,0,0,1-.06-.56c0-.08.07-.17.19-.28a.56.56,0,0,1,.29-.15.46.46,0,0,1,.36.21c0,.65,0,1,0,1.14s0,.29,0,.43c.09,0,.21-.19.36-.49a3.62,3.62,0,0,1,.48-.78,1.08,1.08,0,0,1,.83-.42,1.68,1.68,0,0,1,.54.13,2,2,0,0,1,1.15,1,7.15,7.15,0,0,1,.59,3.14Z"/><path d="M113.3,37.22q0,.21-.33.21a.39.39,0,0,1-.43-.3,4.31,4.31,0,0,1,0-.58.55.55,0,0,0,0-.24,3,3,0,0,1-1.82.61,2.49,2.49,0,0,1-1.3-.37,1.22,1.22,0,0,1-.72-1c0-.41.28-.81.85-1.2a2.59,2.59,0,0,1,1.44-.54h1.49a.45.45,0,0,0,.09-.32,5.16,5.16,0,0,0-.17-1.51,1.06,1.06,0,0,0-1.06-.86,1.32,1.32,0,0,0-1,.72,2.31,2.31,0,0,0-.44,1.26v.17a.11.11,0,0,1-.12.12.67.67,0,0,1-.51-.5,3,3,0,0,1,.26-1.06,3.24,3.24,0,0,1,.55-1,1.22,1.22,0,0,1,.93-.41,2.58,2.58,0,0,1,1.58.54,1.77,1.77,0,0,1,.78,1.41Zm-.79-2.38q0-.6-.93-.6a3.06,3.06,0,0,0-1.29.25,1.06,1.06,0,0,0-.71,1,.7.7,0,0,0,.38.63,1.4,1.4,0,0,0,.75.2,2,2,0,0,0,1.22-.42A1.25,1.25,0,0,0,112.51,34.84Z"/><path d="M123.88,27.25c0,.17-.1.25-.3.25h-.27l-.27,0q-.72,0-.72.45c0,.08,0,.2,0,.35a2.38,2.38,0,0,1,0,.34,39.4,39.4,0,0,1-.21,4.4,10.75,10.75,0,0,1-.52,2.51A2,2,0,0,1,119.81,37a2.38,2.38,0,0,1-1.89-1.22,3.81,3.81,0,0,1-.78-2.19c0-.82.14-1.23.41-1.23q.66,0,.66,1.14v1a1.77,1.77,0,0,0,.48,1.13,1.35,1.35,0,0,0,1,.57q1.68,0,1.68-5c0-2.31,0-3.38,0-3.21l0,0a3,3,0,0,0-1.2.45,6.05,6.05,0,0,1-.84.43.32.32,0,0,1-.29-.19.7.7,0,0,1-.1-.36c0-.17.11-.31.33-.41s.54-.18,1.08-.33a4.55,4.55,0,0,0,1-.42l0,0c0-.31.17-.47.4-.47a.59.59,0,0,1,.28.14.58.58,0,0,0,.28.13,1.34,1.34,0,0,0,.38-.07,1.78,1.78,0,0,1,.38-.06.88.88,0,0,1,.47.14A.41.41,0,0,1,123.88,27.25Z"/><path d="M128.17,37.22q0,.21-.33.21a.4.4,0,0,1-.44-.3s0-.22,0-.58a.54.54,0,0,0,0-.24,3,3,0,0,1-1.81.61,2.53,2.53,0,0,1-1.31-.37,1.22,1.22,0,0,1-.72-1c0-.41.29-.81.86-1.2a2.59,2.59,0,0,1,1.44-.54h1.48a.45.45,0,0,0,.09-.32,5.23,5.23,0,0,0-.16-1.51,1.07,1.07,0,0,0-1.07-.86,1.32,1.32,0,0,0-1,.72,2.3,2.3,0,0,0-.43,1.26v.17a.11.11,0,0,1-.12.12.67.67,0,0,1-.51-.5,3,3,0,0,1,.25-1.06,3.24,3.24,0,0,1,.56-1,1.22,1.22,0,0,1,.93-.41,2.55,2.55,0,0,1,1.57.54,1.77,1.77,0,0,1,.78,1.41Zm-.8-2.38q0-.6-.93-.6a3.06,3.06,0,0,0-1.29.25,1.05,1.05,0,0,0-.7,1,.7.7,0,0,0,.37.63,1.4,1.4,0,0,0,.75.2,2.08,2.08,0,0,0,1.23-.42A1.26,1.26,0,0,0,127.37,34.84Z"/><path d="M132.56,31.45s0,.12,0,.25-.26.3-.38.3a.25.25,0,0,1-.21-.15c0-.63-.29-.94-.78-.94-.32,0-.63.59-.94,1.77a6.6,6.6,0,0,0-.18,1.72,11,11,0,0,0,.07,1.7l.08.18a.66.66,0,0,1,.06.22q0,.33-.45.33a.45.45,0,0,1-.51-.52.79.79,0,0,1,0-.22,1.22,1.22,0,0,0,0-.22c0-.55,0-1.37-.07-2.47s-.08-1.93-.08-2.48c0-.2,0-.32.11-.36a.74.74,0,0,1,.4-.07c.25,0,.4.09.44.27l0,.58c.26-.4.41-.62.45-.67a.94.94,0,0,1,.69-.38,1,1,0,0,1,.54.17,1.63,1.63,0,0,1,.41.46A1.15,1.15,0,0,1,132.56,31.45Z"/><path d="M137.86,30.82a11.23,11.23,0,0,1-.54,3.55c-.45,1.68-.93,2.52-1.43,2.52s-1.15-.63-1.65-1.9a15.5,15.5,0,0,1-.78-2.73,7.76,7.76,0,0,1-.15-1.55.47.47,0,0,1,.38-.37,1.05,1.05,0,0,1,.54.3,2.22,2.22,0,0,0-.06.51,8.39,8.39,0,0,0,.36,2.2,12.8,12.8,0,0,0,.78,2.1q.25.51.42.51c.39,0,.73-.78,1-2.35a17.51,17.51,0,0,0,.33-3c0-.06,0-.13.14-.2a.45.45,0,0,1,.25-.1Q137.85,30.34,137.86,30.82Z"/><path d="M139.93,30.92a3.62,3.62,0,0,1-.13.81,4.32,4.32,0,0,0-.13.81v3.32a3.77,3.77,0,0,0,.15.9.18.18,0,0,1-.16.12.64.64,0,0,1-.74-.71v-5.5a.82.82,0,0,1,.38-.11.78.78,0,0,1,.37.11C139.84,30.74,139.93,30.82,139.93,30.92Zm.28-2.25q0,.51-.48.51a.77.77,0,0,1-.52-.21.63.63,0,0,1-.24-.48.45.45,0,0,1,.51-.51.77.77,0,0,1,.52.2A.64.64,0,0,1,140.21,28.67Z"/><path d="M145.09,35.91c0,.36-.27.65-.8.89a3.16,3.16,0,0,1-1.27.29,2.74,2.74,0,0,1-.93-.2,4.69,4.69,0,0,1-.91-.63c-.47-.38-.7-.63-.7-.77,0-.32.19-.46.56-.43h.09c0,.31.34.63,1,1a3,3,0,0,0,1.35.48q.66,0,.66-.45,0-.27-.81-.75a8.71,8.71,0,0,1-1.52-1,2.5,2.5,0,0,1-.82-1.83,2.86,2.86,0,0,1,.41-1.49,1.34,1.34,0,0,1,1.16-.84,2.32,2.32,0,0,1,1.23.47,1.8,1.8,0,0,1,.85.95,3.79,3.79,0,0,1,.12.95,4.09,4.09,0,0,1-.22,1.27.49.49,0,0,1-.31.11,1,1,0,0,1-.33-.09c-.15,0-.22-.11-.22-.17s.05-.07.16-.33a2.45,2.45,0,0,0,.12-.93c0-1.07-.34-1.6-1-1.6-.35,0-.63.23-.84.7a2.87,2.87,0,0,0-.26,1.16,1.9,1.9,0,0,0,.85,1.43,17.45,17.45,0,0,0,1.57,1C144.81,35.44,145.09,35.71,145.09,35.91Z"/><path d="M40.73,47.06a1.45,1.45,0,0,1-.57.15,2.28,2.28,0,0,0-.57.11c0,.11,0,.66,0,1.66,0,.78,0,1.31,0,1.58a3,3,0,0,0,.08.52,2.89,2.89,0,0,1,.07.56.33.33,0,0,1-.15.24.45.45,0,0,1-.27.12c-.2,0-.36-.21-.48-.62a3.28,3.28,0,0,1-.12-.85V47.41c-.06,0-.28,0-.67,0s-.47-.08-.47-.35.41-.55,1.22-.52L39,43.82a.33.33,0,0,0,0-.14.58.58,0,0,1,0-.14.24.24,0,0,1,.12-.18.43.43,0,0,1,.28-.06c.35,0,.53.2.53.52A9.19,9.19,0,0,1,39.75,45a8.65,8.65,0,0,0-.1,1.11,1.87,1.87,0,0,0,0,.34l.82,0q.42,0,.42.33A.42.42,0,0,1,40.73,47.06Z"/><path d="M45,46.45s0,.12,0,.25-.26.3-.38.3a.25.25,0,0,1-.21-.15c0-.63-.29-.94-.78-.94-.32,0-.63.59-.94,1.77a6.6,6.6,0,0,0-.18,1.72,11,11,0,0,0,.07,1.7l.08.18a.66.66,0,0,1,.06.22q0,.33-.45.33a.45.45,0,0,1-.51-.52,1.22,1.22,0,0,1,0-.22.79.79,0,0,0,0-.22c0-.55,0-1.37-.07-2.47s-.08-1.93-.08-2.48c0-.2,0-.32.11-.36a.74.74,0,0,1,.4-.07c.25,0,.4.09.44.27l0,.58c.26-.4.41-.62.45-.67a.94.94,0,0,1,.69-.38,1,1,0,0,1,.54.17,1.8,1.8,0,0,1,.41.46A1.27,1.27,0,0,1,45,46.45Z"/><path d="M49.61,52.22q0,.21-.33.21a.4.4,0,0,1-.44-.3s0-.22,0-.58a.54.54,0,0,0,0-.24,3,3,0,0,1-1.81.61,2.53,2.53,0,0,1-1.31-.37,1.22,1.22,0,0,1-.72-1c0-.41.29-.81.86-1.2a2.59,2.59,0,0,1,1.44-.54h1.48a.45.45,0,0,0,.09-.32,5.23,5.23,0,0,0-.16-1.51,1.07,1.07,0,0,0-1.07-.86,1.32,1.32,0,0,0-1,.72,2.3,2.3,0,0,0-.43,1.26v.17a.11.11,0,0,1-.12.12.67.67,0,0,1-.51-.5,3,3,0,0,1,.25-1.06,3.24,3.24,0,0,1,.56-1,1.22,1.22,0,0,1,.93-.41,2.55,2.55,0,0,1,1.57.54,1.77,1.77,0,0,1,.78,1.41Zm-.8-2.38q0-.6-.93-.6a3.06,3.06,0,0,0-1.29.25,1.05,1.05,0,0,0-.7,1,.7.7,0,0,0,.37.63,1.4,1.4,0,0,0,.75.2,2,2,0,0,0,1.22-.42A1.25,1.25,0,0,0,48.81,49.84Z"/><path d="M55.26,42.25a5.55,5.55,0,0,1-.09.88c-.07.48-.11.77-.13.89q0,.46-.15,3.09c-.06,1.61-.09,2.49-.09,2.66A6.32,6.32,0,0,0,55.08,52a.32.32,0,0,1-.27.17.58.58,0,0,1-.34-.15.67.67,0,0,1-.23-.3,7,7,0,0,0-.09-.92A2.36,2.36,0,0,1,52.46,52a1.74,1.74,0,0,1-1.5-.74,2.79,2.79,0,0,1-.45-1.66A8,8,0,0,1,51,47q.6-1.77,1.59-1.77a1.47,1.47,0,0,1,.86.31c.06,0,.29.25.7.63a40.18,40.18,0,0,0,.15-4.48.4.4,0,0,1,.29-.11.67.67,0,0,1,.49.21A.69.69,0,0,1,55.26,42.25ZM54.14,47.8a2.36,2.36,0,0,0-.3-1.19,1.1,1.1,0,0,0-1-.63q-.75,0-1.2,1.53a7.35,7.35,0,0,0-.36,2.18,2.83,2.83,0,0,0,.21,1.14.92.92,0,0,0,.86.63q.93,0,1.41-1.44A6.71,6.71,0,0,0,54.14,47.8Z"/><path d="M60.41,50.3c0,.44-.3.84-.89,1.19A2.92,2.92,0,0,1,58,52q-2,0-2-2.55A8.13,8.13,0,0,1,56.42,47q.54-1.68,1.38-1.68a2.5,2.5,0,0,1,1.57.73,2,2,0,0,1,.86,1.45,2.14,2.14,0,0,1-.75,1.62,2.45,2.45,0,0,1-1.7.69,1.14,1.14,0,0,1-.38-.15,1.18,1.18,0,0,0-.4-.15c-.13,0-.19,0-.19.12,0,1.15.38,1.72,1.14,1.72A1.71,1.71,0,0,0,59,51a3.49,3.49,0,0,0,.66-.7c.19-.25.31-.38.37-.38C60.29,49.88,60.41,50,60.41,50.3Zm-1-2.76a1.74,1.74,0,0,0-.3-1,.92.92,0,0,0-.79-.46,1.12,1.12,0,0,0-1,.75A2.9,2.9,0,0,0,57,48.16a1,1,0,0,0,.27.73,1,1,0,0,0,.72.29,1.24,1.24,0,0,0,1-.53A1.75,1.75,0,0,0,59.37,47.54Z"/><path d="M68,51.89a1.08,1.08,0,0,1-.48.2.69.69,0,0,1-.3-.11V50.36c0-3.09-.32-4.63-1-4.63-.38,0-.7.48-1,1.44a7.26,7.26,0,0,0-.32,1.95v1.5A1.29,1.29,0,0,0,65,51a1.13,1.13,0,0,1,.07.33.31.31,0,0,1-.16.24.53.53,0,0,1-.29.12.47.47,0,0,1-.3-.19.53.53,0,0,1-.16-.32v-3A5.78,5.78,0,0,0,64,46.9q-.21-.93-.51-.93c-.11,0-.27.14-.49.42a5.58,5.58,0,0,0-1.13,3.54,7.11,7.11,0,0,0,.06.76,6.82,6.82,0,0,1,.06.74c0,.3-.12.45-.37.45a.42.42,0,0,1-.32-.15,2.47,2.47,0,0,1-.13-.68,6.88,6.88,0,0,1-.08-.73V46.78q0-1.53.36-1.53a.5.5,0,0,1,.31.14.41.41,0,0,1,.16.29,5,5,0,0,1-.09.83c-.06.44-.1.71-.11.82l.08.08.57-1.29c.27-.55.59-.83,1-.83q.78,0,1.35,1.68a3.16,3.16,0,0,0,.37-.75,3.69,3.69,0,0,1,.41-.81.86.86,0,0,1,.7-.36,1.34,1.34,0,0,1,.9.54A5.21,5.21,0,0,1,68,49.13Z"/><path d="M73.26,52.22q0,.21-.33.21a.39.39,0,0,1-.43-.3,2.94,2.94,0,0,1,0-.58.55.55,0,0,0,0-.24,3,3,0,0,1-1.82.61,2.53,2.53,0,0,1-1.31-.37,1.23,1.23,0,0,1-.71-1c0-.41.28-.81.85-1.2a2.59,2.59,0,0,1,1.44-.54h1.49a.45.45,0,0,0,.09-.32,5.16,5.16,0,0,0-.17-1.51,1.06,1.06,0,0,0-1.07-.86,1.32,1.32,0,0,0-1,.72,2.31,2.31,0,0,0-.44,1.26v.17a.11.11,0,0,1-.12.12.67.67,0,0,1-.51-.5,2.83,2.83,0,0,1,.26-1.06,3.24,3.24,0,0,1,.55-1,1.22,1.22,0,0,1,.93-.41,2.58,2.58,0,0,1,1.58.54,1.8,1.8,0,0,1,.78,1.41Zm-.79-2.38c0-.4-.32-.6-.93-.6a3,3,0,0,0-1.29.25,1,1,0,0,0-.71,1,.7.7,0,0,0,.38.63,1.4,1.4,0,0,0,.75.2,2,2,0,0,0,1.22-.42A1.27,1.27,0,0,0,72.47,49.84Z"/><path d="M77.66,46.45s0,.12,0,.25-.25.3-.37.3a.25.25,0,0,1-.21-.15c0-.63-.29-.94-.78-.94-.32,0-.64.59-1,1.77a6.6,6.6,0,0,0-.18,1.72,10.48,10.48,0,0,0,.08,1.7,1.87,1.87,0,0,0,.07.18.66.66,0,0,1,.06.22q0,.33-.45.33a.45.45,0,0,1-.51-.52.79.79,0,0,1,0-.22,1.51,1.51,0,0,0,0-.22c0-.55,0-1.37-.08-2.47s-.07-1.93-.07-2.48c0-.2,0-.32.1-.36a.79.79,0,0,1,.41-.07c.25,0,.39.09.43.27l0,.58c.26-.4.41-.62.45-.67a.94.94,0,0,1,.69-.38,1,1,0,0,1,.54.17,1.63,1.63,0,0,1,.41.46A1.2,1.2,0,0,1,77.66,46.45Z"/><path d="M83.67,52.37a1.1,1.1,0,0,1-.6.3c-.22,0-.6-.31-1.14-.94l-1.09-1.28a5.91,5.91,0,0,1-.63-.7,3,3,0,0,0-.69-.65l-.27.36V51a1.06,1.06,0,0,0,.1.38,1.07,1.07,0,0,1,.11.38c0,.06,0,.12-.13.18a.49.49,0,0,1-.23.08c-.4,0-.6-.22-.6-.65v-2.1a4.93,4.93,0,0,1,0-.57c0-.26,0-.45,0-.58V43.93a12.28,12.28,0,0,0-.07-1.4,2.46,2.46,0,0,0-.07-.33,1.61,1.61,0,0,1,0-.34c0-.1.07-.2.23-.3a.77.77,0,0,1,.41-.15.67.67,0,0,1,.29.08c.11.06.16.12.16.2s0,.13-.08.36a7.51,7.51,0,0,0-.11,1.58L79.25,48l.07.07a9.63,9.63,0,0,0,1.33-1.11l1-1.08c.57-.58.91-.87,1-.87a.42.42,0,0,1,.36.2.69.69,0,0,1,.12.43v.08a16,16,0,0,0-1.69,1.35c-.86.75-1.28,1.24-1.28,1.48a1.93,1.93,0,0,0,.45.68l1.4,1.65a5.88,5.88,0,0,0,1.61,1.35Z"/><path d="M87.66,50.3c0,.44-.29.84-.88,1.19a2.92,2.92,0,0,1-1.5.48q-2,0-2-2.55a8.1,8.1,0,0,1,.4-2.42q.54-1.68,1.38-1.68a2.52,2.52,0,0,1,1.58.73,2,2,0,0,1,.85,1.45,2.14,2.14,0,0,1-.75,1.62,2.43,2.43,0,0,1-1.69.69,1.24,1.24,0,0,1-.39-.15,1.09,1.09,0,0,0-.39-.15c-.13,0-.2,0-.2.12,0,1.15.38,1.72,1.14,1.72A1.71,1.71,0,0,0,86.28,51a3.49,3.49,0,0,0,.66-.7c.19-.25.32-.38.38-.38C87.55,49.88,87.66,50,87.66,50.3Zm-1-2.76a1.74,1.74,0,0,0-.3-1,.93.93,0,0,0-.8-.46c-.4,0-.72.25-1,.75a2.91,2.91,0,0,0-.32,1.31,1,1,0,0,0,.28.73.94.94,0,0,0,.71.29,1.24,1.24,0,0,0,1-.53A1.76,1.76,0,0,0,86.63,47.54Z"/><path d="M93.09,42.25a5.55,5.55,0,0,1-.09.88c-.07.48-.12.77-.14.89q0,.46-.15,3.09c-.06,1.61-.09,2.49-.09,2.66A6.27,6.27,0,0,0,92.91,52a.32.32,0,0,1-.27.17.58.58,0,0,1-.34-.15.67.67,0,0,1-.23-.3,7,7,0,0,0-.09-.92A2.38,2.38,0,0,1,90.28,52a1.74,1.74,0,0,1-1.5-.74,2.79,2.79,0,0,1-.45-1.66A8,8,0,0,1,88.8,47q.6-1.77,1.59-1.77a1.44,1.44,0,0,1,.85.31c.06,0,.3.25.71.63a40.18,40.18,0,0,0,.15-4.48.38.38,0,0,1,.28-.11.72.72,0,0,1,.71.71ZM92,47.8a2.36,2.36,0,0,0-.3-1.19,1.08,1.08,0,0,0-1-.63q-.75,0-1.2,1.53a7.35,7.35,0,0,0-.36,2.18,2.83,2.83,0,0,0,.21,1.14.91.91,0,0,0,.85.63q.93,0,1.41-1.44A6.71,6.71,0,0,0,92,47.8Z"/><path d="M101.38,48.46a5.83,5.83,0,0,1-.36,2.19,1.69,1.69,0,0,1-1.62,1.23,2.52,2.52,0,0,1-.76-.17l-.75-.27a.64.64,0,0,0,0,.2,2,2,0,0,0,0,.22c0,.09,0,.16,0,.21s-.09.23-.26.23a.51.51,0,0,1-.42-.21,2.19,2.19,0,0,1-.16-.89c0-.41,0-.73,0-1v-.09l.29-8.37h.21a.56.56,0,0,1,.4.22.7.7,0,0,1,.18.44,12.86,12.86,0,0,1-.14,1.65,15,15,0,0,0-.14,1.65v.57a.79.79,0,0,0,.3-.34,2.49,2.49,0,0,1,.39-.53,1,1,0,0,1,.73-.27,1.86,1.86,0,0,1,1.34.6,2.69,2.69,0,0,1,.72,1.31A7.22,7.22,0,0,1,101.38,48.46Zm-.79.08a5.85,5.85,0,0,0-.2-1.61q-.28-1.05-1-1c-.55,0-1,.4-1.3,1.22A5.27,5.27,0,0,0,97.75,49a3.34,3.34,0,0,0,.3,1.48,1.2,1.2,0,0,0,1.14.83q.77,0,1.14-1.08A5.47,5.47,0,0,0,100.59,48.54Z"/><path d="M106.89,48.83a4.32,4.32,0,0,1-.57,2.25,2.08,2.08,0,0,1-1.88,1.16,2,2,0,0,1-1.81-1,3.82,3.82,0,0,1-.49-2.07,5.74,5.74,0,0,1,.57-2.5c.48-1,1.09-1.52,1.83-1.52a1.78,1.78,0,0,1,.81.33A3.57,3.57,0,0,1,106.89,48.83Zm-.72,0a5.48,5.48,0,0,0-.25-1.73c-.25-.71-.64-1.06-1.16-1.06s-1.07.39-1.41,1.18a5,5,0,0,0-.39,2,4.13,4.13,0,0,0,.27,1.59,1.28,1.28,0,0,0,1.21.88,1.47,1.47,0,0,0,1.37-1A4.33,4.33,0,0,0,106.17,48.82Z"/><path d="M110.16,47.06a1.45,1.45,0,0,1-.57.15,2.28,2.28,0,0,0-.57.11c0,.11,0,.66,0,1.66,0,.78,0,1.31,0,1.58a3,3,0,0,0,.08.52,3.08,3.08,0,0,1,.08.56.34.34,0,0,1-.16.24.41.41,0,0,1-.26.12c-.21,0-.37-.21-.49-.62a3.28,3.28,0,0,1-.12-.85V47.41s-.28,0-.67,0-.47-.08-.47-.35.41-.55,1.22-.52l.2-2.72a.63.63,0,0,0,0-.14.38.38,0,0,1,0-.14.24.24,0,0,1,.12-.18.45.45,0,0,1,.29-.06c.34,0,.52.2.52.52a11.06,11.06,0,0,1-.1,1.13,7.45,7.45,0,0,0-.11,1.11,1.87,1.87,0,0,0,0,.34l.83,0c.27,0,.42.11.42.33A.43.43,0,0,1,110.16,47.06Z"/><path d="M114.91,52.19a.62.62,0,0,1-.45.12.5.5,0,0,1-.34-.21V50.05c0-2.54-.42-3.81-1.27-3.81a1,1,0,0,0-.89.63,2.17,2.17,0,0,0-.31,1.11,1,1,0,0,1,0,.18.63.63,0,0,0,0,.19v1.92a4.15,4.15,0,0,0,.08.74,7,7,0,0,1,.07.72q0,.24-.36.24a.52.52,0,0,1-.43-.24.88.88,0,0,1-.17-.5l.09-9.24a.57.57,0,0,1,0-.18q0-.27.3-.27a.88.88,0,0,1,.44.21q.3.2.3.33a5.21,5.21,0,0,1-.15,1,5.89,5.89,0,0,0-.14,1s0,.68,0,2a1.58,1.58,0,0,1,.85-.5,3.11,3.11,0,0,1,1.16.29c.87.36,1.3,1.31,1.3,2.85Z"/><path d="M120.54,44.3a.59.59,0,0,1-.12.35c-.08.11-.25.16-.52.16a.71.71,0,0,1-.48-.17.92.92,0,0,1-.29-.58,4.81,4.81,0,0,1-.08-1.08,1.87,1.87,0,0,1,.31-.94,2.67,2.67,0,0,1,.55-.7.89.89,0,0,1,.6-.26c.16,0,.25.07.27.2a.42.42,0,0,1-.18.38c-.17.15-.35.29-.53.42a1.23,1.23,0,0,0-.43.56.86.86,0,0,0,0,.63,1,1,0,0,0,.38.51l.38.26A.31.31,0,0,1,120.54,44.3Z"/><path d="M130.59,41.81a.4.4,0,0,1-.11.26l-.21.23a.91.91,0,0,0-.08.46v.49a52,52,0,0,0-.38,6v1.43q.06,1.07.45,1.2V52a.26.26,0,0,1-.25.16c-.64,0-1-.61-1.13-1.84a7.58,7.58,0,0,1,0-1.43l.4-4.84-1.11,4.05c-.68,2.12-1.34,3.18-2,3.18a1.27,1.27,0,0,1-.9-.56,3,3,0,0,1-.57-.93,25.19,25.19,0,0,1-1-3.28c-.25-1.12-.5-2.24-.76-3.35l-.09.23a32.43,32.43,0,0,0-.24,4l.15,3.44c0,.36.14.55.36.58,0,.27-.23.41-.72.41s-.67-.83-.67-2.48c0-.75,0-1.86.11-3.35s.12-2.6.12-3.35a1.29,1.29,0,0,0,0-.38,1.07,1.07,0,0,1,0-.16c0-.39.41-.59,1.21-.59a.87.87,0,0,1,.54.32c0,.31.07.77.13,1.38a29.27,29.27,0,0,0,.88,3.84c.58,2.06,1.06,3.09,1.43,3.09s1-.94,1.55-2.82c.34-1.21.63-2.41.84-3.6.13-.38.29-.92.49-1.62a.94.94,0,0,1,1-.68.82.82,0,0,1,.39.11A.32.32,0,0,1,130.59,41.81Z"/><path d="M136.1,48.83a4.33,4.33,0,0,1-.58,2.25,2.07,2.07,0,0,1-1.87,1.16,2,2,0,0,1-1.81-1,3.82,3.82,0,0,1-.5-2.07,5.88,5.88,0,0,1,.57-2.5c.48-1,1.09-1.52,1.83-1.52a1.74,1.74,0,0,1,.81.33A3.58,3.58,0,0,1,136.1,48.83Zm-.72,0a5.47,5.47,0,0,0-.26-1.73c-.25-.71-.64-1.06-1.15-1.06s-1.07.39-1.41,1.18a5,5,0,0,0-.39,2,4.13,4.13,0,0,0,.27,1.59,1.26,1.26,0,0,0,1.21.88,1.48,1.48,0,0,0,1.37-1A4.33,4.33,0,0,0,135.38,48.82Z"/><path d="M139.37,47.06a1.45,1.45,0,0,1-.57.15,2.28,2.28,0,0,0-.57.11c0,.11,0,.66,0,1.66,0,.78,0,1.31,0,1.58a3,3,0,0,0,.08.52,2.89,2.89,0,0,1,.07.56.33.33,0,0,1-.15.24A.45.45,0,0,1,138,52c-.2,0-.36-.21-.48-.62a3.28,3.28,0,0,1-.12-.85V47.41c-.06,0-.28,0-.67,0s-.47-.08-.47-.35.41-.55,1.22-.52l.19-2.72a.33.33,0,0,0,0-.14.58.58,0,0,1,0-.14.24.24,0,0,1,.12-.18.43.43,0,0,1,.28-.06c.35,0,.53.2.53.52a9.19,9.19,0,0,1-.11,1.13,8.65,8.65,0,0,0-.1,1.11,1.87,1.87,0,0,0,0,.34l.82,0q.42,0,.42.33A.42.42,0,0,1,139.37,47.06Z"/><path d="M144.12,52.19a.64.64,0,0,1-.45.12.48.48,0,0,1-.34-.21V50.05c0-2.54-.43-3.81-1.27-3.81a1,1,0,0,0-.9.63,2.27,2.27,0,0,0-.31,1.11.54.54,0,0,1,0,.18,1,1,0,0,0,0,.19v1.92a5,5,0,0,0,.07.74,5.31,5.31,0,0,1,.08.72q0,.24-.36.24a.51.51,0,0,1-.43-.24.82.82,0,0,1-.17-.5l.09-9.24a.57.57,0,0,1,0-.18q0-.27.3-.27a.92.92,0,0,1,.44.21c.19.13.29.24.29.33a5.86,5.86,0,0,1-.14,1,5.05,5.05,0,0,0-.14,1s0,.68,0,2a1.58,1.58,0,0,1,.85-.5,3.11,3.11,0,0,1,1.16.29c.87.36,1.3,1.31,1.3,2.85Z"/><path d="M149.37,50.3c0,.44-.29.84-.88,1.19A2.92,2.92,0,0,1,147,52q-2,0-2-2.55a8.1,8.1,0,0,1,.4-2.42q.54-1.68,1.38-1.68a2.52,2.52,0,0,1,1.58.73,2,2,0,0,1,.85,1.45,2.14,2.14,0,0,1-.75,1.62,2.43,2.43,0,0,1-1.69.69,1.24,1.24,0,0,1-.39-.15,1.09,1.09,0,0,0-.39-.15c-.13,0-.2,0-.2.12,0,1.15.38,1.72,1.14,1.72A1.71,1.71,0,0,0,148,51a3.49,3.49,0,0,0,.66-.7c.19-.25.32-.38.38-.38C149.26,49.88,149.37,50,149.37,50.3Zm-1-2.76a1.74,1.74,0,0,0-.3-1,.93.93,0,0,0-.8-.46c-.4,0-.72.25-1,.75a2.91,2.91,0,0,0-.32,1.31,1,1,0,0,0,.28.73.94.94,0,0,0,.71.29,1.24,1.24,0,0,0,1-.53A1.76,1.76,0,0,0,148.34,47.54Z"/><path d="M153.38,46.45s0,.12,0,.25-.25.3-.37.3-.15,0-.21-.15c0-.63-.3-.94-.78-.94-.32,0-.64.59-.95,1.77a6.6,6.6,0,0,0-.18,1.72,10.48,10.48,0,0,0,.08,1.7,1.87,1.87,0,0,0,.07.18.66.66,0,0,1,.06.22q0,.33-.45.33a.45.45,0,0,1-.51-.52.79.79,0,0,1,0-.22,1.51,1.51,0,0,0,0-.22c0-.55,0-1.37-.08-2.47s-.07-1.93-.07-2.48c0-.2,0-.32.1-.36a.79.79,0,0,1,.41-.07c.25,0,.39.09.43.27l0,.58c.26-.4.41-.62.45-.67a.94.94,0,0,1,.69-.38,1,1,0,0,1,.54.17,1.63,1.63,0,0,1,.41.46A1.2,1.2,0,0,1,153.38,46.45Z"/><path d="M155.12,41.75a1.18,1.18,0,0,1-.1.19.85.85,0,0,0-.11.2,2.64,2.64,0,0,0-.09.81c0,.13,0,.32,0,.58s0,.45,0,.58c0,.38-.14.57-.43.57s-.3,0-.35-.15c0-1.15,0-1.79,0-1.91a4,4,0,0,1,.06-.6c.06-.31.13-.47.2-.49a.35.35,0,0,1,.16,0C154.9,41.5,155.12,41.58,155.12,41.75Z"/><path d="M160.4,50.91c0,.36-.27.65-.8.89a3.2,3.2,0,0,1-1.27.29,2.74,2.74,0,0,1-.93-.2,4.67,4.67,0,0,1-.92-.63c-.46-.38-.69-.63-.69-.77,0-.32.19-.46.56-.43h.09c0,.31.33.63,1,1a3,3,0,0,0,1.35.48q.66,0,.66-.45,0-.27-.81-.75a8.71,8.71,0,0,1-1.52-1,2.47,2.47,0,0,1-.82-1.83,3,3,0,0,1,.4-1.49,1.35,1.35,0,0,1,1.17-.84,2.32,2.32,0,0,1,1.23.47,1.77,1.77,0,0,1,.84.95,3.38,3.38,0,0,1,.12,1,4.37,4.37,0,0,1-.21,1.27.49.49,0,0,1-.31.11,1,1,0,0,1-.33-.09c-.15,0-.23-.11-.23-.17s.06-.07.17-.33a2.45,2.45,0,0,0,.12-.93c0-1.07-.34-1.6-1-1.6-.35,0-.63.23-.84.7a2.73,2.73,0,0,0-.27,1.16,1.91,1.91,0,0,0,.86,1.43,17.45,17.45,0,0,0,1.57,1C160.11,50.44,160.4,50.71,160.4,50.91Z"/><path d="M58.48,60.5a9.4,9.4,0,0,1-1,4.28q-1.24,2.43-3.3,2.43a2.23,2.23,0,0,1-1.41-.53q-.25.33-.33.33a.6.6,0,0,1-.33-.1,7.84,7.84,0,0,1-.21-2.25c0-.84,0-2.09,0-3.75s0-2.9,0-3.75v-.24q0-.33.36-.33a.74.74,0,0,1,.39.14.39.39,0,0,1,.21.31,1.18,1.18,0,0,1-.1.44,1.23,1.23,0,0,0-.11.43v.58a2.16,2.16,0,0,0,.53-.73,3.21,3.21,0,0,1,.7-.93,2.09,2.09,0,0,1,1.42-.48,2.65,2.65,0,0,1,2.43,1.33A5.4,5.4,0,0,1,58.48,60.5Zm-.89-.07a5.74,5.74,0,0,0-.39-2.27,1.78,1.78,0,0,0-1.71-1.26,2.24,2.24,0,0,0-1.66,1,5.18,5.18,0,0,0-.95,1.81,7,7,0,0,0-.24,1.86v3.11A2,2,0,0,0,53,65.93a1.31,1.31,0,0,0,1.11.57,2.67,2.67,0,0,0,2.14-1.26,5.84,5.84,0,0,0,1.08-2.37A12.24,12.24,0,0,0,57.59,60.43Z"/><path d="M64,67.22q0,.21-.33.21a.4.4,0,0,1-.44-.3s0-.22,0-.58a.54.54,0,0,0,0-.24,3,3,0,0,1-1.81.61A2.53,2.53,0,0,1,60,66.55a1.22,1.22,0,0,1-.72-1c0-.41.29-.81.86-1.2a2.59,2.59,0,0,1,1.44-.54h1.48a.45.45,0,0,0,.09-.32A5.23,5.23,0,0,0,63,61.93a1.07,1.07,0,0,0-1.07-.86,1.32,1.32,0,0,0-1,.72,2.3,2.3,0,0,0-.43,1.26v.17a.11.11,0,0,1-.12.12.67.67,0,0,1-.51-.5,3,3,0,0,1,.25-1.06,3.24,3.24,0,0,1,.56-1,1.22,1.22,0,0,1,.93-.41,2.55,2.55,0,0,1,1.57.54,1.77,1.77,0,0,1,.78,1.41Zm-.8-2.38q0-.6-.93-.6a3.06,3.06,0,0,0-1.29.25,1.05,1.05,0,0,0-.7,1,.7.7,0,0,0,.37.63,1.4,1.4,0,0,0,.75.2,2.08,2.08,0,0,0,1.23-.42A1.26,1.26,0,0,0,63.17,64.84Z"/><path d="M69.62,60.91c-.08.44-.16.88-.23,1.32a7.07,7.07,0,0,0-.14,1.32v4.69a2.13,2.13,0,0,1-.61,1.6,2.25,2.25,0,0,1-1.63.59,3.15,3.15,0,0,1-1.24-.3,2.23,2.23,0,0,1-1.1-.82A.54.54,0,0,1,64.6,69c0-.29.14-.44.42-.44a.38.38,0,0,1,.19.06l.51.53a1.84,1.84,0,0,0,1.29.46A1.32,1.32,0,0,0,68.33,69a4.27,4.27,0,0,0,.2-1.57,5.71,5.71,0,0,0-.06-.6,2.54,2.54,0,0,1,0-.66,4.12,4.12,0,0,1-.6.49,1.32,1.32,0,0,1-.72.21A1.74,1.74,0,0,1,65.57,66a3.09,3.09,0,0,1-.46-1.76q0-2,.06-3.42a.48.48,0,0,1,.52-.48c.38,0,.55.07.51.2a13,13,0,0,0-.28,3.49c0,1.4.4,2.1,1.19,2.1.49,0,.88-.37,1.17-1.12a4.91,4.91,0,0,0,.31-1.76V61.58c0-.17,0-.38,0-.64s.17-.38.48-.36S69.64,60.72,69.62,60.91Z"/><path d="M71.33,56.75a.81.81,0,0,1-.09.19,1.08,1.08,0,0,0-.12.2A2.64,2.64,0,0,0,71,58c0,.13,0,.32,0,.58s0,.45,0,.58c0,.38-.15.57-.44.57s-.29,0-.34-.15c0-1.15,0-1.79,0-1.91a4,4,0,0,1,.06-.6c.06-.31.12-.47.19-.49a.4.4,0,0,1,.17,0C71.12,56.5,71.33,56.58,71.33,56.75Z"/><path d="M79.84,67.22q0,.21-.33.21a.4.4,0,0,1-.44-.3s0-.22,0-.58a.54.54,0,0,0,0-.24,3,3,0,0,1-1.81.61,2.53,2.53,0,0,1-1.31-.37,1.22,1.22,0,0,1-.72-1c0-.41.29-.81.86-1.2a2.59,2.59,0,0,1,1.44-.54H79a.45.45,0,0,0,.09-.32,5.23,5.23,0,0,0-.16-1.51,1.07,1.07,0,0,0-1.07-.86,1.32,1.32,0,0,0-1,.72,2.3,2.3,0,0,0-.43,1.26v.17a.11.11,0,0,1-.12.12.67.67,0,0,1-.51-.5A3,3,0,0,1,76,61.78a3.24,3.24,0,0,1,.56-1,1.22,1.22,0,0,1,.93-.41A2.55,2.55,0,0,1,79,61a1.77,1.77,0,0,1,.78,1.41ZM79,64.84q0-.6-.93-.6a3.06,3.06,0,0,0-1.29.25,1.05,1.05,0,0,0-.7,1,.7.7,0,0,0,.37.63,1.4,1.4,0,0,0,.75.2,2.08,2.08,0,0,0,1.23-.42A1.26,1.26,0,0,0,79,64.84Z"/><path d="M85.69,66.86a.28.28,0,0,1-.24.17,1.21,1.21,0,0,1-.51-.21V65.9q0-5-1.24-5-.39,0-.84.57a5.54,5.54,0,0,0-1.13,3.56,6.76,6.76,0,0,0,.08.83,5.21,5.21,0,0,1,.08.83c0,.15-.1.23-.3.23-.39,0-.58-.32-.58-1v-3.4c0-.09,0-.22,0-.39s0-.3,0-.39a5.49,5.49,0,0,0-.05-.57,4,4,0,0,1-.06-.56c0-.08.07-.17.19-.28a.56.56,0,0,1,.29-.15.46.46,0,0,1,.36.21c0,.65,0,1,0,1.14s0,.29,0,.43c.09,0,.21-.19.36-.49a3.62,3.62,0,0,1,.48-.78,1.08,1.08,0,0,1,.83-.42,1.68,1.68,0,0,1,.54.13,2,2,0,0,1,1.15,1,7.15,7.15,0,0,1,.59,3.14Z"/><path d="M91.19,57.25a5.55,5.55,0,0,1-.09.88c-.07.48-.11.77-.13.89q0,.46-.15,3.09c-.06,1.61-.09,2.49-.09,2.66A6.32,6.32,0,0,0,91,67a.32.32,0,0,1-.27.17.54.54,0,0,1-.33-.15.64.64,0,0,1-.24-.3,7,7,0,0,0-.09-.92A2.36,2.36,0,0,1,88.39,67a1.74,1.74,0,0,1-1.5-.74,2.79,2.79,0,0,1-.45-1.66A8,8,0,0,1,86.9,62q.6-1.77,1.59-1.77a1.47,1.47,0,0,1,.86.31c.06,0,.29.25.7.63a40.18,40.18,0,0,0,.15-4.48.4.4,0,0,1,.29-.11.67.67,0,0,1,.49.21A.69.69,0,0,1,91.19,57.25ZM90.07,62.8a2.36,2.36,0,0,0-.3-1.19,1.1,1.1,0,0,0-1-.63q-.75,0-1.2,1.53a7.35,7.35,0,0,0-.36,2.18,2.83,2.83,0,0,0,.21,1.14.92.92,0,0,0,.86.63q.93,0,1.41-1.44A6.71,6.71,0,0,0,90.07,62.8Z"/><path d="M96.71,59.3a.59.59,0,0,1-.12.35c-.08.11-.25.16-.52.16a.71.71,0,0,1-.48-.17,1,1,0,0,1-.29-.58A5.48,5.48,0,0,1,95.22,58a2.09,2.09,0,0,1,.31-.94,2.89,2.89,0,0,1,.55-.7.89.89,0,0,1,.6-.26c.16,0,.25.07.27.2a.42.42,0,0,1-.18.38,5.43,5.43,0,0,1-.53.42,1.3,1.3,0,0,0-.43.56.86.86,0,0,0,0,.63,1,1,0,0,0,.38.51l.39.26A.3.3,0,0,1,96.71,59.3Z"/><path d="M100.91,62.06a1.45,1.45,0,0,1-.57.15,2.28,2.28,0,0,0-.57.11c0,.11,0,.66,0,1.66,0,.78,0,1.31,0,1.58a2.75,2.75,0,0,0,.07.52,3.08,3.08,0,0,1,.08.56.33.33,0,0,1-.15.24.45.45,0,0,1-.27.12c-.2,0-.36-.21-.48-.62a3.28,3.28,0,0,1-.12-.85V62.41c-.06,0-.28,0-.67,0s-.47-.08-.47-.35.4-.55,1.21-.52l.2-2.72a.33.33,0,0,0,0-.14.82.82,0,0,1,0-.14.24.24,0,0,1,.12-.18.46.46,0,0,1,.29-.06c.35,0,.52.2.52.52a8.75,8.75,0,0,1-.1,1.13,9.13,9.13,0,0,0-.11,1.11,1.87,1.87,0,0,0,0,.34l.83,0q.42,0,.42.33A.43.43,0,0,1,100.91,62.06Z"/><path d="M105.67,67.19a.64.64,0,0,1-.45.12.5.5,0,0,1-.35-.21v-2q0-3.81-1.26-3.81a1,1,0,0,0-.9.63A2.17,2.17,0,0,0,102.4,63a.54.54,0,0,1,0,.18,1.3,1.3,0,0,0,0,.19v1.92a5.37,5.37,0,0,0,.08.74,5.31,5.31,0,0,1,.08.72c0,.16-.12.24-.37.24a.49.49,0,0,1-.42-.24.83.83,0,0,1-.18-.5l.1-9.24a.39.39,0,0,1,0-.18q0-.27.3-.27a.94.94,0,0,1,.45.21c.19.13.29.24.29.33a5.86,5.86,0,0,1-.14,1,5.23,5.23,0,0,0-.15,1s0,.68,0,2a1.55,1.55,0,0,1,.85-.5,3.07,3.07,0,0,1,1.15.29c.87.36,1.31,1.31,1.31,2.85Z"/><path d="M110.92,65.3c0,.44-.3.84-.89,1.19a2.92,2.92,0,0,1-1.5.48q-2,0-2-2.55a8.13,8.13,0,0,1,.41-2.42q.54-1.68,1.38-1.68a2.54,2.54,0,0,1,1.58.73,2,2,0,0,1,.85,1.45,2.14,2.14,0,0,1-.75,1.62,2.43,2.43,0,0,1-1.7.69,1.22,1.22,0,0,1-.38-.15,1.16,1.16,0,0,0-.39-.15c-.13,0-.2,0-.2.12,0,1.15.38,1.72,1.14,1.72a1.71,1.71,0,0,0,1.08-.39,3.49,3.49,0,0,0,.66-.7c.19-.25.32-.38.37-.38C110.81,64.88,110.92,65,110.92,65.3Zm-1-2.76a1.75,1.75,0,0,0-.31-1,.92.92,0,0,0-.79-.46,1.12,1.12,0,0,0-1,.75,3,3,0,0,0-.31,1.31,1,1,0,0,0,.28.73.94.94,0,0,0,.71.29,1.24,1.24,0,0,0,1-.53A1.76,1.76,0,0,0,109.89,62.54Z"/><path d="M119.36,65.91c0,.36-.26.65-.79.89a3.24,3.24,0,0,1-1.28.29,2.74,2.74,0,0,1-.93-.2,4.69,4.69,0,0,1-.91-.63c-.46-.38-.69-.63-.69-.77,0-.32.18-.46.55-.43h.09c0,.31.34.63,1,1a3,3,0,0,0,1.35.48q.66,0,.66-.45,0-.27-.81-.75a8.53,8.53,0,0,1-1.51-1,2.48,2.48,0,0,1-.83-1.83,3,3,0,0,1,.41-1.49,1.35,1.35,0,0,1,1.17-.84,2.32,2.32,0,0,1,1.23.47,1.77,1.77,0,0,1,.84.95,3.38,3.38,0,0,1,.12,1,4.37,4.37,0,0,1-.21,1.27.52.52,0,0,1-.32.11,1,1,0,0,1-.33-.09c-.15,0-.22-.11-.22-.17s0-.07.16-.33a2.45,2.45,0,0,0,.12-.93c0-1.07-.33-1.6-1-1.6-.35,0-.63.23-.84.7a2.73,2.73,0,0,0-.27,1.16,1.9,1.9,0,0,0,.85,1.43,18.28,18.28,0,0,0,1.58,1C119.08,65.44,119.36,65.71,119.36,65.91Z"/><path d="M124.27,65.3c0,.44-.3.84-.89,1.19a2.92,2.92,0,0,1-1.5.48q-2,0-2-2.55a8.13,8.13,0,0,1,.41-2.42q.54-1.68,1.38-1.68a2.5,2.5,0,0,1,1.57.73,2,2,0,0,1,.86,1.45,2.14,2.14,0,0,1-.75,1.62,2.45,2.45,0,0,1-1.7.69,1.22,1.22,0,0,1-.38-.15,1.11,1.11,0,0,0-.4-.15c-.13,0-.19,0-.19.12,0,1.15.38,1.72,1.14,1.72a1.71,1.71,0,0,0,1.08-.39,3.49,3.49,0,0,0,.66-.7c.19-.25.31-.38.37-.38C124.15,64.88,124.27,65,124.27,65.3Zm-1-2.76a1.74,1.74,0,0,0-.3-1,.92.92,0,0,0-.79-.46,1.12,1.12,0,0,0-1,.75,2.9,2.9,0,0,0-.31,1.31,1,1,0,0,0,.28.73.94.94,0,0,0,.71.29,1.24,1.24,0,0,0,1-.53A1.75,1.75,0,0,0,123.23,62.54Z"/><path d="M129.65,65.23a1.64,1.64,0,0,1-.61,1,2.64,2.64,0,0,1-1,.72,3.06,3.06,0,0,1-.87.17,2,2,0,0,1-1.68-.8,2.93,2.93,0,0,1-.54-1.83,8,8,0,0,1,.5-2.59q.61-1.77,1.53-1.77a2.49,2.49,0,0,1,1.15.42c.48.29.75.56.81.82a4.2,4.2,0,0,1,.11.92c0,1.1-.17,1.65-.5,1.65a.6.6,0,0,1-.28-.09c-.11-.06-.17-.13-.17-.21a.35.35,0,0,1,.06-.16l.08-.13a4,4,0,0,0,.06-.9c0-1.11-.25-1.66-.75-1.66s-1,.5-1.35,1.52a7,7,0,0,0-.39,2.22,3.24,3.24,0,0,0,.25,1.36,1.13,1.13,0,0,0,1.07.7,1.78,1.78,0,0,0,1-.45,2.94,2.94,0,0,0,.78-.86c0-.1.1-.25.18-.43a.24.24,0,0,1,.21-.1c.06,0,.13.07.22.2A.72.72,0,0,1,129.65,65.23Z"/><path d="M135.16,63.83a4.32,4.32,0,0,1-.57,2.25,2.09,2.09,0,0,1-1.88,1.16,2,2,0,0,1-1.81-.95,3.82,3.82,0,0,1-.5-2.07,5.88,5.88,0,0,1,.57-2.5c.48-1,1.09-1.52,1.83-1.52a1.74,1.74,0,0,1,.81.33A3.58,3.58,0,0,1,135.16,63.83Zm-.72,0a5.47,5.47,0,0,0-.26-1.73c-.25-.71-.63-1.06-1.15-1.06s-1.07.39-1.41,1.18a5,5,0,0,0-.39,2,4.13,4.13,0,0,0,.27,1.59,1.27,1.27,0,0,0,1.21.88,1.48,1.48,0,0,0,1.37-1A4.33,4.33,0,0,0,134.44,63.82Z"/><path d="M140.66,66.86a.25.25,0,0,1-.24.17,1.27,1.27,0,0,1-.51-.21V65.9q0-5-1.24-5c-.25,0-.53.19-.83.57a5.56,5.56,0,0,0-1.05,4.39,6.76,6.76,0,0,1,.08.83c0,.15-.1.23-.31.23-.38,0-.58-.32-.58-1v-3.4c0-.09,0-.22,0-.39s0-.3,0-.39a3.63,3.63,0,0,0,0-.57,5.58,5.58,0,0,1-.05-.56c0-.08.06-.17.19-.28a.53.53,0,0,1,.29-.15.46.46,0,0,1,.36.21c0,.65-.05,1-.05,1.14s0,.29,0,.43c.09,0,.21-.19.36-.49a3.62,3.62,0,0,1,.48-.78,1.06,1.06,0,0,1,.82-.42,1.68,1.68,0,0,1,.54.13,2,2,0,0,1,1.16,1,7.16,7.16,0,0,1,.58,3.14Z"/><path d="M146.17,57.25a5.55,5.55,0,0,1-.09.88c-.07.48-.12.77-.14.89q0,.46-.15,3.09c-.06,1.61-.09,2.49-.09,2.66A6.27,6.27,0,0,0,146,67a.32.32,0,0,1-.27.17.58.58,0,0,1-.34-.15.67.67,0,0,1-.23-.3,7,7,0,0,0-.09-.92,2.38,2.38,0,0,1-1.7,1.13,1.74,1.74,0,0,1-1.5-.74,2.79,2.79,0,0,1-.45-1.66,8,8,0,0,1,.47-2.61q.6-1.77,1.59-1.77a1.44,1.44,0,0,1,.85.31c.06,0,.3.25.71.63a40.18,40.18,0,0,0,.15-4.48.38.38,0,0,1,.28-.11.72.72,0,0,1,.71.71ZM145,62.8a2.36,2.36,0,0,0-.3-1.19,1.08,1.08,0,0,0-1-.63q-.75,0-1.2,1.53a7.35,7.35,0,0,0-.36,2.18,2.83,2.83,0,0,0,.21,1.14.91.91,0,0,0,.85.63q.93,0,1.41-1.44A6.71,6.71,0,0,0,145,62.8Z"/><path d="M69.41,80.51q0,.84-1,1.29a4.52,4.52,0,0,1-1.8.36,6,6,0,0,1-1.93-.36c-.9-.31-1.35-.69-1.35-1.15,0-.25.12-.38.36-.38a1.08,1.08,0,0,1,.66.33l.57.53a3.45,3.45,0,0,0,1.84.37q1.71,0,1.71-.9c0-.28-.24-.62-.73-1l-1.13-.81a16.14,16.14,0,0,1-2-1.59,3.31,3.31,0,0,1-1-2.34,3.88,3.88,0,0,1,.71-2.25,2.31,2.31,0,0,1,2-1.14,2.19,2.19,0,0,1,1.73.85,3.85,3.85,0,0,1,.82,1.82c0,.24,0,.6.12,1.09l.12.54c0,.8-.19,1.2-.58,1.2a.43.43,0,0,1-.31-.17.54.54,0,0,1-.16-.32,3.14,3.14,0,0,1,.09-.62,3.76,3.76,0,0,0,.08-.61,4.74,4.74,0,0,0-.33-1.83c-.29-.72-.72-1.08-1.31-1.08a1.76,1.76,0,0,0-1.46.77,2.7,2.7,0,0,0-.59,1.69,3.15,3.15,0,0,0,1.28,2.34l2.38,1.72C69,79.45,69.41,80,69.41,80.51Z"/><path d="M74.38,76.18a12.91,12.91,0,0,1-.1,1.38c-.06.62-.1,1.15-.1,1.6,0,.18,0,.53.06,1s.05.87.05,1.09c0,.44-.05.7-.15.79a.48.48,0,0,1-.26.06.44.44,0,0,1-.45-.28l-.12-.56a2,2,0,0,1-1.48.84,1.21,1.21,0,0,1-.9-.34,2,2,0,0,1-.62-.73,5.7,5.7,0,0,1-.21-1.91V75.88q-.09-.45.51-.45.42,0,.42.48c0,.48,0,1.1,0,1.87,0,1,0,1.61,0,1.88a2.35,2.35,0,0,0,.24,1.08c.2.43.46.64.77.64.51,0,.9-.34,1.18-1a4.56,4.56,0,0,0,.3-1.68v-2a.9.9,0,0,0-.08-.34,1.2,1.2,0,0,1-.08-.35,1,1,0,0,1,0-.17.7.7,0,0,1,.42-.21C74.15,75.61,74.38,75.79,74.38,76.18Z"/><path d="M80.05,81.86a.28.28,0,0,1-.24.17,1.17,1.17,0,0,1-.51-.21V80.9q0-5-1.24-5-.39,0-.84.57a5.54,5.54,0,0,0-1.13,3.56,6.76,6.76,0,0,0,.08.83,5.21,5.21,0,0,1,.08.83c0,.15-.1.23-.3.23-.39,0-.58-.32-.58-1v-3.4c0-.09,0-.22,0-.39s0-.3,0-.39a5.49,5.49,0,0,0-.05-.57,4,4,0,0,1-.06-.56c0-.08.07-.17.19-.28a.56.56,0,0,1,.29-.15.46.46,0,0,1,.36.21c0,.65,0,1,0,1.14s0,.29,0,.43c.09,0,.21-.19.36-.49a3.62,3.62,0,0,1,.48-.78,1.08,1.08,0,0,1,.83-.42,1.68,1.68,0,0,1,.54.13,2,2,0,0,1,1.15,1,7.15,7.15,0,0,1,.59,3.14Z"/><path d="M85.55,72.25a5.55,5.55,0,0,1-.09.88c-.07.48-.11.77-.13.89q0,.47-.15,3.09c-.06,1.61-.09,2.49-.09,2.66A6.32,6.32,0,0,0,85.37,82a.32.32,0,0,1-.27.17.54.54,0,0,1-.33-.15.64.64,0,0,1-.24-.3,7,7,0,0,0-.09-.92A2.36,2.36,0,0,1,82.75,82a1.74,1.74,0,0,1-1.5-.74,2.79,2.79,0,0,1-.45-1.66A8,8,0,0,1,81.26,77q.6-1.77,1.59-1.77a1.47,1.47,0,0,1,.86.31c.06,0,.29.25.7.63a40.18,40.18,0,0,0,.15-4.48.4.4,0,0,1,.29-.11.67.67,0,0,1,.49.21A.69.69,0,0,1,85.55,72.25ZM84.43,77.8a2.36,2.36,0,0,0-.3-1.19,1.1,1.1,0,0,0-1-.63q-.75,0-1.2,1.53a7.35,7.35,0,0,0-.36,2.18,2.83,2.83,0,0,0,.21,1.14.92.92,0,0,0,.86.63q.93,0,1.41-1.44A6.71,6.71,0,0,0,84.43,77.8Z"/><path d="M90.62,82.22q0,.21-.33.21a.39.39,0,0,1-.43-.3,4.31,4.31,0,0,1,0-.58.55.55,0,0,0,0-.24,3,3,0,0,1-1.82.61,2.49,2.49,0,0,1-1.3-.37,1.22,1.22,0,0,1-.72-1c0-.41.28-.81.85-1.2a2.59,2.59,0,0,1,1.44-.54h1.49a.45.45,0,0,0,.09-.32,5.16,5.16,0,0,0-.17-1.51,1.06,1.06,0,0,0-1.06-.86,1.32,1.32,0,0,0-1,.72,2.31,2.31,0,0,0-.44,1.26v.17a.11.11,0,0,1-.12.12.67.67,0,0,1-.51-.5,3,3,0,0,1,.26-1.06,3.24,3.24,0,0,1,.55-1,1.22,1.22,0,0,1,.93-.41A2.58,2.58,0,0,1,89.8,76a1.77,1.77,0,0,1,.78,1.41Zm-.79-2.38q0-.6-.93-.6a3.06,3.06,0,0,0-1.29.25,1.06,1.06,0,0,0-.71,1,.7.7,0,0,0,.38.63,1.4,1.4,0,0,0,.75.2,2,2,0,0,0,1.22-.42A1.25,1.25,0,0,0,89.83,79.84Z"/><path d="M96.28,75.91c-.09.44-.16.88-.24,1.32a7.07,7.07,0,0,0-.14,1.32v4.69a2.13,2.13,0,0,1-.61,1.6,2.22,2.22,0,0,1-1.62.59,3.19,3.19,0,0,1-1.25-.3,2.2,2.2,0,0,1-1.09-.82.56.56,0,0,1-.08-.27c0-.29.14-.44.42-.44a.41.41,0,0,1,.2.06l.51.53a1.84,1.84,0,0,0,1.29.46A1.32,1.32,0,0,0,95,84a4.33,4.33,0,0,0,.19-1.57,5.71,5.71,0,0,0-.06-.6,2.54,2.54,0,0,1,0-.66,4.12,4.12,0,0,1-.6.49,1.32,1.32,0,0,1-.72.21A1.72,1.72,0,0,1,92.23,81a3.09,3.09,0,0,1-.47-1.76q0-2,.06-3.42a.49.49,0,0,1,.53-.48c.38,0,.55.07.51.2a12.85,12.85,0,0,0-.29,3.49q0,2.1,1.2,2.1c.48,0,.87-.37,1.16-1.12a4.71,4.71,0,0,0,.31-1.76V76.58c0-.17,0-.38,0-.64s.18-.38.49-.36S96.3,75.72,96.28,75.91Z"/><path d="M101.24,75.92a3.62,3.62,0,0,1-.13.81,4.12,4.12,0,0,0-.12.81v3.32a3.77,3.77,0,0,0,.15.9.19.19,0,0,1-.17.12.64.64,0,0,1-.73-.71v-5.5a.78.78,0,0,1,.37-.11.82.82,0,0,1,.38.11C101.16,75.74,101.24,75.82,101.24,75.92Zm.29-2.25q0,.51-.48.51a.79.79,0,0,1-.53-.21.63.63,0,0,1-.24-.48.45.45,0,0,1,.51-.51.77.77,0,0,1,.52.2A.64.64,0,0,1,101.53,73.67Z"/><path d="M107,81.86a.25.25,0,0,1-.24.17,1.27,1.27,0,0,1-.51-.21V80.9q0-5-1.24-5c-.26,0-.53.19-.83.57a5.56,5.56,0,0,0-1,4.39,6.76,6.76,0,0,1,.08.83c0,.15-.1.23-.31.23-.38,0-.58-.32-.58-1v-3.4c0-.09,0-.22,0-.39s0-.3,0-.39a3.63,3.63,0,0,0,0-.57,5.58,5.58,0,0,1,0-.56c0-.08.06-.17.19-.28a.53.53,0,0,1,.29-.15.46.46,0,0,1,.36.21c0,.65-.05,1-.05,1.14s0,.29,0,.43c.09,0,.21-.19.36-.49a3.62,3.62,0,0,1,.48-.78,1.06,1.06,0,0,1,.82-.42,1.68,1.68,0,0,1,.54.13,2,2,0,0,1,1.16,1A7.16,7.16,0,0,1,107,79.6Z"/><path d="M119.93,71.81a.36.36,0,0,1-.11.26l-.2.23a.79.79,0,0,0-.09.46,3.11,3.11,0,0,1,0,.49,52,52,0,0,0-.38,6v1.43q.06,1.06.45,1.2V82a.25.25,0,0,1-.25.16c-.63,0-1-.61-1.13-1.84a7.59,7.59,0,0,1,0-1.43l.39-4.84-1.11,4c-.68,2.12-1.34,3.18-2,3.18a1.27,1.27,0,0,1-.9-.56,3,3,0,0,1-.57-.93,23.9,23.9,0,0,1-1-3.28c-.25-1.12-.51-2.24-.77-3.35l-.09.23a32.43,32.43,0,0,0-.24,4l.15,3.44c0,.36.14.55.36.58,0,.27-.23.41-.72.41s-.67-.83-.67-2.48c0-.75,0-1.86.12-3.35s.12-2.6.12-3.35a1.25,1.25,0,0,0,0-.38.66.66,0,0,1,0-.16c0-.39.4-.59,1.2-.59a.87.87,0,0,1,.54.32c0,.31.07.77.13,1.38a28.06,28.06,0,0,0,.89,3.84c.58,2.06,1,3.09,1.42,3.09s1-.94,1.55-2.82a34.58,34.58,0,0,0,.84-3.6c.13-.38.29-.92.49-1.62a.94.94,0,0,1,1-.68.82.82,0,0,1,.39.11A.31.31,0,0,1,119.93,71.81Z"/><path d="M125.35,82.22q0,.21-.33.21a.4.4,0,0,1-.44-.3s0-.22,0-.58a.54.54,0,0,0,0-.24,3,3,0,0,1-1.81.61,2.53,2.53,0,0,1-1.31-.37,1.22,1.22,0,0,1-.72-1c0-.41.29-.81.86-1.2a2.59,2.59,0,0,1,1.44-.54h1.48a.45.45,0,0,0,.09-.32,5.23,5.23,0,0,0-.16-1.51,1.07,1.07,0,0,0-1.07-.86,1.32,1.32,0,0,0-1,.72,2.3,2.3,0,0,0-.43,1.26v.17a.11.11,0,0,1-.12.12.67.67,0,0,1-.51-.5,3,3,0,0,1,.25-1.06,3.24,3.24,0,0,1,.56-1,1.22,1.22,0,0,1,.93-.41,2.55,2.55,0,0,1,1.57.54,1.77,1.77,0,0,1,.78,1.41Zm-.8-2.38q0-.6-.93-.6a3.06,3.06,0,0,0-1.29.25,1.05,1.05,0,0,0-.7,1,.7.7,0,0,0,.37.63,1.4,1.4,0,0,0,.75.2,2.08,2.08,0,0,0,1.23-.42A1.26,1.26,0,0,0,124.55,79.84Z"/><path d="M131,75.91c-.08.44-.16.88-.23,1.32a7.07,7.07,0,0,0-.14,1.32v4.69a2.13,2.13,0,0,1-.61,1.6,2.25,2.25,0,0,1-1.63.59,3.15,3.15,0,0,1-1.24-.3,2.23,2.23,0,0,1-1.1-.82A.54.54,0,0,1,126,84c0-.29.14-.44.42-.44a.38.38,0,0,1,.19.06l.51.53a1.84,1.84,0,0,0,1.29.46,1.32,1.32,0,0,0,1.32-.69,4.27,4.27,0,0,0,.2-1.57,5.71,5.71,0,0,0-.06-.6,2.54,2.54,0,0,1,0-.66,4.12,4.12,0,0,1-.6.49,1.32,1.32,0,0,1-.72.21A1.74,1.74,0,0,1,127,81a3.09,3.09,0,0,1-.46-1.76q0-2,.06-3.42a.48.48,0,0,1,.52-.48c.38,0,.55.07.51.2a13,13,0,0,0-.28,3.49c0,1.4.4,2.1,1.19,2.1.49,0,.88-.37,1.16-1.12a4.72,4.72,0,0,0,.32-1.76V76.58c0-.17,0-.38,0-.64s.17-.38.48-.36S131,75.72,131,75.91Z"/><path d="M132.71,71.75a.81.81,0,0,1-.09.19,1.08,1.08,0,0,0-.12.2,2.64,2.64,0,0,0-.09.81c0,.13,0,.32,0,.58s0,.45,0,.58c0,.38-.15.57-.44.57s-.29-.05-.34-.15c0-1.15,0-1.79,0-1.91a4,4,0,0,1,.06-.6c.06-.31.12-.47.19-.49a.4.4,0,0,1,.17,0C132.5,71.5,132.71,71.58,132.71,71.75Z"/><path d="M134.71,81.47c0,.14-.1.26-.29.36A1,1,0,0,1,134,82a.64.64,0,0,1-.45-.18.56.56,0,0,1-.2-.42.46.46,0,0,1,.53-.51,1.07,1.07,0,0,1,.58.18A.51.51,0,0,1,134.71,81.47Z"/><path d="M36.1,95.51q0,.84-1.05,1.29a4.52,4.52,0,0,1-1.8.36,6,6,0,0,1-1.94-.36c-.9-.31-1.35-.69-1.35-1.15,0-.25.12-.38.36-.38a1.08,1.08,0,0,1,.66.33l.57.53a3.49,3.49,0,0,0,1.85.37q1.71,0,1.71-.9c0-.28-.25-.62-.74-1l-1.12-.81a16.53,16.53,0,0,1-2-1.59,3.3,3.3,0,0,1-.94-2.34,3.87,3.87,0,0,1,.7-2.25,2.32,2.32,0,0,1,2-1.14,2.17,2.17,0,0,1,1.72.85,3.86,3.86,0,0,1,.83,1.82c0,.24,0,.6.12,1.09l.12.54c0,.8-.2,1.2-.59,1.2a.39.39,0,0,1-.3-.17.49.49,0,0,1-.16-.32,3.86,3.86,0,0,1,.08-.62,2.89,2.89,0,0,0,.08-.61,4.94,4.94,0,0,0-.32-1.83c-.29-.72-.73-1.08-1.31-1.08a1.76,1.76,0,0,0-1.47.77,2.76,2.76,0,0,0-.59,1.69,3.13,3.13,0,0,0,1.29,2.34l2.38,1.72C35.68,94.45,36.1,95,36.1,95.51Z"/><path d="M40.82,97.19a.64.64,0,0,1-.45.12A.48.48,0,0,1,40,97.1v-2c0-2.54-.42-3.81-1.27-3.81a1,1,0,0,0-.89.63A2.18,2.18,0,0,0,37.55,93a.82.82,0,0,1,0,.18.63.63,0,0,0,0,.19v1.92a5,5,0,0,0,.07.74,5.31,5.31,0,0,1,.08.72q0,.24-.36.24a.52.52,0,0,1-.43-.24.88.88,0,0,1-.17-.5L36.76,87a.57.57,0,0,1,0-.18q0-.27.3-.27a.88.88,0,0,1,.44.21c.2.13.29.24.29.33a5,5,0,0,1-.14,1,5.89,5.89,0,0,0-.14,1s0,.68,0,2a1.58,1.58,0,0,1,.85-.5,3.11,3.11,0,0,1,1.16.29c.87.36,1.3,1.31,1.3,2.85Z"/><path d="M46.07,95.3c0,.44-.29.84-.88,1.19a2.92,2.92,0,0,1-1.5.48q-2,0-2-2.55a8.1,8.1,0,0,1,.4-2.42q.54-1.68,1.38-1.68a2.52,2.52,0,0,1,1.58.73,2,2,0,0,1,.85,1.45,2.14,2.14,0,0,1-.75,1.62,2.43,2.43,0,0,1-1.69.69,1.14,1.14,0,0,1-.38-.15,1.18,1.18,0,0,0-.4-.15c-.13,0-.2,0-.2.12,0,1.15.38,1.72,1.14,1.72A1.71,1.71,0,0,0,44.69,96a3.49,3.49,0,0,0,.66-.7c.19-.25.32-.38.38-.38C46,94.88,46.07,95,46.07,95.3Zm-1-2.76a1.74,1.74,0,0,0-.3-1,.93.93,0,0,0-.8-.46c-.4,0-.72.25-1,.75a2.91,2.91,0,0,0-.32,1.31,1.05,1.05,0,0,0,.28.73,1,1,0,0,0,.71.29,1.24,1.24,0,0,0,1-.53A1.76,1.76,0,0,0,45,92.54Z"/><path d="M54.58,97.22q0,.21-.33.21a.4.4,0,0,1-.44-.3s0-.22,0-.58a.54.54,0,0,0,0-.24,3,3,0,0,1-1.81.61,2.53,2.53,0,0,1-1.31-.37,1.22,1.22,0,0,1-.72-1c0-.41.29-.81.86-1.2a2.59,2.59,0,0,1,1.44-.54h1.48a.45.45,0,0,0,.09-.32,5.23,5.23,0,0,0-.16-1.51,1.07,1.07,0,0,0-1.07-.86,1.32,1.32,0,0,0-1,.72,2.3,2.3,0,0,0-.43,1.26v.17a.11.11,0,0,1-.12.12.67.67,0,0,1-.51-.5,3,3,0,0,1,.25-1.06,3.24,3.24,0,0,1,.56-1,1.22,1.22,0,0,1,.93-.41,2.55,2.55,0,0,1,1.57.54,1.77,1.77,0,0,1,.78,1.41Zm-.8-2.38q0-.6-.93-.6a3.06,3.06,0,0,0-1.29.25,1.05,1.05,0,0,0-.7,1,.7.7,0,0,0,.37.63,1.4,1.4,0,0,0,.75.2,2.08,2.08,0,0,0,1.23-.42A1.26,1.26,0,0,0,53.78,94.84Z"/><path d="M56.75,96.64q0,.39-.42.39c-.44,0-.65-.91-.64-2.72l0-6.73a3.26,3.26,0,0,0,0-.47,3.85,3.85,0,0,1,0-.46.88.88,0,0,1,.48-.21.72.72,0,0,1,.42.15.44.44,0,0,1,.21.36,1.34,1.34,0,0,1-.07.39c-.06.2-.1.32-.11.37a17.36,17.36,0,0,0-.18,2.85c0,2,0,2.92,0,2.85a16.65,16.65,0,0,0,.24,2.78.65.65,0,0,0,.07.2A.74.74,0,0,1,56.75,96.64Z"/><path d="M61.75,95.91c0,.36-.27.65-.8.89a3.2,3.2,0,0,1-1.27.29,2.74,2.74,0,0,1-.93-.2,4.67,4.67,0,0,1-.92-.63c-.46-.38-.69-.63-.69-.77,0-.32.19-.46.56-.43h.09c0,.31.34.63,1,1a3,3,0,0,0,1.35.48q.66,0,.66-.45,0-.27-.81-.75a8.71,8.71,0,0,1-1.52-1,2.47,2.47,0,0,1-.82-1.83A3,3,0,0,1,58,91a1.35,1.35,0,0,1,1.17-.84,2.32,2.32,0,0,1,1.23.47,1.77,1.77,0,0,1,.84,1,3.38,3.38,0,0,1,.12,1,4.37,4.37,0,0,1-.21,1.27.49.49,0,0,1-.31.11,1,1,0,0,1-.33-.09c-.15-.05-.23-.11-.23-.17s.06-.07.17-.33a2.45,2.45,0,0,0,.12-.93c0-1.07-.34-1.6-1-1.6-.35,0-.63.23-.84.7a2.73,2.73,0,0,0-.27,1.16,1.91,1.91,0,0,0,.86,1.43,17.45,17.45,0,0,0,1.57,1C61.46,95.44,61.75,95.71,61.75,95.91Z"/><path d="M67.13,93.83a4.32,4.32,0,0,1-.57,2.25,2.08,2.08,0,0,1-1.87,1.16,2,2,0,0,1-1.82-.95,3.82,3.82,0,0,1-.49-2.07,5.88,5.88,0,0,1,.57-2.5c.48-1,1.09-1.52,1.83-1.52a1.74,1.74,0,0,1,.81.33A3.57,3.57,0,0,1,67.13,93.83Zm-.72,0a5.48,5.48,0,0,0-.25-1.73C65.91,91.38,65.52,91,65,91s-1.07.39-1.41,1.18a5,5,0,0,0-.39,2,4.13,4.13,0,0,0,.27,1.59,1.28,1.28,0,0,0,1.22.88,1.47,1.47,0,0,0,1.36-1A4.33,4.33,0,0,0,66.41,93.82Z"/><path d="M75.76,95.23c0,.24-.21.57-.62,1a2.62,2.62,0,0,1-1,.72,3.06,3.06,0,0,1-.87.17,2,2,0,0,1-1.68-.8,2.93,2.93,0,0,1-.54-1.83,8,8,0,0,1,.49-2.59q.61-1.77,1.53-1.77a2.52,2.52,0,0,1,1.16.42c.48.29.75.56.81.82a4.18,4.18,0,0,1,.1.92c0,1.1-.16,1.65-.49,1.65a.64.64,0,0,1-.29-.09c-.11-.06-.16-.13-.16-.21a.35.35,0,0,1,.06-.16.92.92,0,0,0,.07-.13,4,4,0,0,0,.06-.9c0-1.11-.25-1.66-.75-1.66s-1,.5-1.35,1.52a7,7,0,0,0-.39,2.22,3.23,3.23,0,0,0,.26,1.36,1.11,1.11,0,0,0,1.06.7,1.78,1.78,0,0,0,1-.45,2.94,2.94,0,0,0,.78-.86c0-.1.1-.25.18-.43a.24.24,0,0,1,.21-.1c.06,0,.14.07.22.2A.65.65,0,0,1,75.76,95.23Z"/><path d="M79.84,91.45s0,.12,0,.25-.25.3-.37.3a.25.25,0,0,1-.21-.15c0-.63-.29-.94-.78-.94-.32,0-.64.59-.95,1.77a6.6,6.6,0,0,0-.18,1.72,10.48,10.48,0,0,0,.08,1.7,1.87,1.87,0,0,0,.07.18.66.66,0,0,1,.06.22q0,.33-.45.33a.45.45,0,0,1-.51-.52,1.51,1.51,0,0,1,0-.22.79.79,0,0,0,0-.22c0-.55,0-1.37-.08-2.47s-.07-1.93-.07-2.48c0-.2,0-.32.1-.36a.79.79,0,0,1,.41-.07c.25,0,.39.09.43.27l0,.58c.26-.4.41-.62.45-.67a.94.94,0,0,1,.69-.38,1,1,0,0,1,.54.17,1.79,1.79,0,0,1,.42.46A1.27,1.27,0,0,1,79.84,91.45Z"/><path d="M84.5,95.3c0,.44-.29.84-.88,1.19a2.92,2.92,0,0,1-1.5.48q-2,0-2-2.55a8.1,8.1,0,0,1,.4-2.42q.54-1.68,1.38-1.68a2.52,2.52,0,0,1,1.58.73,2,2,0,0,1,.85,1.45,2.14,2.14,0,0,1-.75,1.62,2.43,2.43,0,0,1-1.69.69,1.14,1.14,0,0,1-.38-.15,1.18,1.18,0,0,0-.4-.15c-.13,0-.2,0-.2.12,0,1.15.38,1.72,1.14,1.72A1.71,1.71,0,0,0,83.12,96a3.49,3.49,0,0,0,.66-.7c.19-.25.32-.38.38-.38C84.39,94.88,84.5,95,84.5,95.3Zm-1-2.76a1.74,1.74,0,0,0-.3-1,.93.93,0,0,0-.8-.46c-.4,0-.72.25-1,.75a2.91,2.91,0,0,0-.32,1.31,1.05,1.05,0,0,0,.28.73,1,1,0,0,0,.71.29,1.24,1.24,0,0,0,1-.53A1.76,1.76,0,0,0,83.47,92.54Z"/><path d="M89.72,97.22q0,.21-.33.21a.39.39,0,0,1-.43-.3,4.31,4.31,0,0,1,0-.58.55.55,0,0,0,0-.24,3,3,0,0,1-1.82.61,2.49,2.49,0,0,1-1.3-.37,1.22,1.22,0,0,1-.72-1c0-.41.28-.81.85-1.2a2.59,2.59,0,0,1,1.44-.54h1.49a.45.45,0,0,0,.09-.32,5.16,5.16,0,0,0-.17-1.51,1.06,1.06,0,0,0-1.06-.86,1.32,1.32,0,0,0-1,.72,2.31,2.31,0,0,0-.44,1.26v.17a.11.11,0,0,1-.12.12.67.67,0,0,1-.51-.5,3,3,0,0,1,.26-1.06,3.24,3.24,0,0,1,.55-1,1.22,1.22,0,0,1,.93-.41A2.58,2.58,0,0,1,88.9,91a1.77,1.77,0,0,1,.78,1.41Zm-.79-2.38q0-.6-.93-.6a3.06,3.06,0,0,0-1.29.25,1.06,1.06,0,0,0-.71,1,.7.7,0,0,0,.38.63,1.4,1.4,0,0,0,.75.2,2,2,0,0,0,1.22-.42A1.25,1.25,0,0,0,88.93,94.84Z"/><path d="M93.34,92.06a1.45,1.45,0,0,1-.57.15,2.28,2.28,0,0,0-.57.11c0,.11,0,.66,0,1.66,0,.78,0,1.31,0,1.58a3,3,0,0,0,.08.52,2.89,2.89,0,0,1,.07.56.33.33,0,0,1-.15.24.45.45,0,0,1-.27.12c-.2,0-.36-.21-.48-.62a3.28,3.28,0,0,1-.12-.85V92.41c-.06,0-.28,0-.67,0s-.47-.08-.47-.35.41-.55,1.22-.52l.19-2.72a.33.33,0,0,0,0-.14.58.58,0,0,1,0-.14.24.24,0,0,1,.12-.18.43.43,0,0,1,.28-.06c.35,0,.53.2.53.52A9.19,9.19,0,0,1,92.36,90a8.65,8.65,0,0,0-.1,1.11,1.87,1.87,0,0,0,0,.34l.82,0q.42,0,.42.33A.42.42,0,0,1,93.34,92.06Z"/><path d="M98.12,95.3c0,.44-.29.84-.88,1.19a2.92,2.92,0,0,1-1.5.48q-2,0-2-2.55a8.1,8.1,0,0,1,.4-2.42q.54-1.68,1.38-1.68a2.52,2.52,0,0,1,1.58.73,2,2,0,0,1,.85,1.45,2.14,2.14,0,0,1-.75,1.62,2.43,2.43,0,0,1-1.69.69,1.14,1.14,0,0,1-.38-.15,1.18,1.18,0,0,0-.4-.15c-.13,0-.2,0-.2.12,0,1.15.38,1.72,1.14,1.72A1.71,1.71,0,0,0,96.74,96a3.49,3.49,0,0,0,.66-.7c.19-.25.32-.38.38-.38C98,94.88,98.12,95,98.12,95.3Zm-1-2.76a1.74,1.74,0,0,0-.3-1,.93.93,0,0,0-.8-.46c-.4,0-.72.25-1,.75a2.91,2.91,0,0,0-.32,1.31,1.05,1.05,0,0,0,.28.73,1,1,0,0,0,.71.29,1.24,1.24,0,0,0,1-.53A1.76,1.76,0,0,0,97.09,92.54Z"/><path d="M103.55,87.25a5.55,5.55,0,0,1-.09.88c-.07.48-.11.77-.13.89q0,.47-.15,3.09c-.06,1.61-.09,2.49-.09,2.66a6.32,6.32,0,0,0,.28,2.27.32.32,0,0,1-.27.17.54.54,0,0,1-.33-.15.64.64,0,0,1-.24-.3,7,7,0,0,0-.09-.92A2.36,2.36,0,0,1,100.75,97a1.74,1.74,0,0,1-1.5-.74,2.79,2.79,0,0,1-.45-1.66A8,8,0,0,1,99.26,92q.6-1.77,1.59-1.77a1.47,1.47,0,0,1,.86.31c.06,0,.29.25.7.63a40.18,40.18,0,0,0,.15-4.48.4.4,0,0,1,.29-.11.67.67,0,0,1,.49.21A.69.69,0,0,1,103.55,87.25Zm-1.12,5.55a2.36,2.36,0,0,0-.3-1.19,1.1,1.1,0,0,0-1-.63q-.75,0-1.2,1.53a7.35,7.35,0,0,0-.36,2.18,2.83,2.83,0,0,0,.21,1.14.92.92,0,0,0,.86.63q.93,0,1.41-1.44A6.71,6.71,0,0,0,102.43,92.8Z"/><path d="M116.45,86.81a.4.4,0,0,1-.11.26l-.2.23a.79.79,0,0,0-.09.46,3.11,3.11,0,0,1,0,.49,52,52,0,0,0-.38,6v1.43q.06,1.06.45,1.2V97a.25.25,0,0,1-.25.16c-.63,0-1-.61-1.13-1.84a7.59,7.59,0,0,1,0-1.43l.39-4.84-1.11,4c-.68,2.12-1.34,3.18-2,3.18a1.27,1.27,0,0,1-.9-.56,3,3,0,0,1-.57-.93,23.9,23.9,0,0,1-1-3.28c-.25-1.12-.51-2.24-.77-3.35l-.09.23a32.43,32.43,0,0,0-.24,4l.15,3.44c0,.36.14.55.36.58,0,.27-.23.41-.72.41s-.67-.83-.67-2.48c0-.75,0-1.86.12-3.35s.12-2.6.12-3.35a1.25,1.25,0,0,0,0-.38.66.66,0,0,1,0-.16c0-.39.4-.59,1.2-.59a.87.87,0,0,1,.54.32c0,.31.07.77.13,1.38a28.06,28.06,0,0,0,.89,3.84c.58,2.06,1,3.09,1.42,3.09s1-.94,1.55-2.82a34.58,34.58,0,0,0,.84-3.6c.13-.38.29-.92.49-1.62a.94.94,0,0,1,1-.68.82.82,0,0,1,.39.11A.31.31,0,0,1,116.45,86.81Z"/><path d="M122,93.83a4.32,4.32,0,0,1-.57,2.25,2.09,2.09,0,0,1-1.88,1.16,2,2,0,0,1-1.81-.95,3.82,3.82,0,0,1-.5-2.07,5.88,5.88,0,0,1,.57-2.5c.48-1,1.09-1.52,1.83-1.52a1.74,1.74,0,0,1,.81.33A3.58,3.58,0,0,1,122,93.83Zm-.72,0a5.47,5.47,0,0,0-.26-1.73c-.25-.71-.63-1.06-1.15-1.06s-1.07.39-1.41,1.18a5,5,0,0,0-.39,2,4.13,4.13,0,0,0,.27,1.59,1.27,1.27,0,0,0,1.21.88,1.48,1.48,0,0,0,1.37-1A4.33,4.33,0,0,0,121.24,93.82Z"/><path d="M125.23,92.06a1.45,1.45,0,0,1-.57.15,2.28,2.28,0,0,0-.57.11c0,.11,0,.66,0,1.66,0,.78,0,1.31,0,1.58a3,3,0,0,0,.08.52,2.89,2.89,0,0,1,.07.56.33.33,0,0,1-.15.24.45.45,0,0,1-.27.12c-.2,0-.36-.21-.48-.62a3.28,3.28,0,0,1-.12-.85V92.41c-.06,0-.28,0-.67,0s-.47-.08-.47-.35.41-.55,1.22-.52l.19-2.72a.33.33,0,0,0,0-.14.58.58,0,0,1,0-.14.24.24,0,0,1,.12-.18.43.43,0,0,1,.28-.06c.35,0,.53.2.53.52a9.19,9.19,0,0,1-.11,1.13,8.65,8.65,0,0,0-.1,1.11,1.87,1.87,0,0,0,0,.34l.82,0q.42,0,.42.33A.42.42,0,0,1,125.23,92.06Z"/><path d="M130,97.19a.64.64,0,0,1-.45.12.48.48,0,0,1-.34-.21v-2c0-2.54-.42-3.81-1.27-3.81a1,1,0,0,0-.89.63,2.18,2.18,0,0,0-.32,1.11.82.82,0,0,1,0,.18.63.63,0,0,0,0,.19v1.92a5,5,0,0,0,.07.74,5.31,5.31,0,0,1,.08.72q0,.24-.36.24a.52.52,0,0,1-.43-.24.88.88,0,0,1-.17-.5l.09-9.24a.57.57,0,0,1,0-.18q0-.27.3-.27a.88.88,0,0,1,.44.21c.2.13.29.24.29.33a5,5,0,0,1-.14,1,5.89,5.89,0,0,0-.14,1s0,.68,0,2a1.58,1.58,0,0,1,.85-.5,3.11,3.11,0,0,1,1.16.29c.87.36,1.3,1.31,1.3,2.85Z"/><path d="M135.23,95.3c0,.44-.29.84-.88,1.19a2.92,2.92,0,0,1-1.5.48q-2,0-2-2.55a8.1,8.1,0,0,1,.4-2.42q.54-1.68,1.38-1.68a2.52,2.52,0,0,1,1.58.73,2,2,0,0,1,.85,1.45,2.14,2.14,0,0,1-.75,1.62,2.43,2.43,0,0,1-1.69.69,1.14,1.14,0,0,1-.38-.15,1.18,1.18,0,0,0-.4-.15c-.13,0-.2,0-.2.12,0,1.15.38,1.72,1.14,1.72a1.71,1.71,0,0,0,1.08-.39,3.49,3.49,0,0,0,.66-.7c.19-.25.32-.38.38-.38C135.12,94.88,135.23,95,135.23,95.3Zm-1-2.76a1.74,1.74,0,0,0-.3-1,.93.93,0,0,0-.8-.46c-.4,0-.72.25-1,.75a2.91,2.91,0,0,0-.32,1.31,1.05,1.05,0,0,0,.28.73,1,1,0,0,0,.71.29,1.24,1.24,0,0,0,1-.53A1.76,1.76,0,0,0,134.2,92.54Z"/><path d="M139.24,91.45s0,.12,0,.25-.25.3-.37.3a.25.25,0,0,1-.21-.15c0-.63-.29-.94-.78-.94-.32,0-.64.59-1,1.77a6.6,6.6,0,0,0-.18,1.72,10.48,10.48,0,0,0,.08,1.7,1.87,1.87,0,0,0,.07.18.66.66,0,0,1,.06.22q0,.33-.45.33a.45.45,0,0,1-.51-.52,1.51,1.51,0,0,1,0-.22.79.79,0,0,0,0-.22c0-.55,0-1.37-.08-2.47s-.07-1.93-.07-2.48c0-.2,0-.32.1-.36a.79.79,0,0,1,.41-.07c.25,0,.39.09.43.27l0,.58c.26-.4.41-.62.45-.67a.94.94,0,0,1,.69-.38,1,1,0,0,1,.54.17,1.79,1.79,0,0,1,.42.46A1.27,1.27,0,0,1,139.24,91.45Z"/><path d="M141,86.75a1.18,1.18,0,0,1-.1.19.85.85,0,0,0-.11.2,2.64,2.64,0,0,0-.09.81c0,.13,0,.32,0,.58s0,.45,0,.58c0,.38-.14.57-.43.57s-.3-.05-.35-.15c0-1.15,0-1.79,0-1.91A4,4,0,0,1,140,87c.06-.31.13-.47.2-.49a.35.35,0,0,1,.16,0C140.76,86.5,141,86.58,141,86.75Z"/><path d="M146.26,95.91c0,.36-.27.65-.8.89a3.2,3.2,0,0,1-1.27.29,2.74,2.74,0,0,1-.93-.2,4.67,4.67,0,0,1-.92-.63c-.46-.38-.69-.63-.69-.77,0-.32.19-.46.56-.43h.09c0,.31.34.63,1,1a3,3,0,0,0,1.35.48q.66,0,.66-.45,0-.27-.81-.75a8.71,8.71,0,0,1-1.52-1,2.47,2.47,0,0,1-.82-1.83,3,3,0,0,1,.4-1.49,1.35,1.35,0,0,1,1.17-.84,2.32,2.32,0,0,1,1.23.47,1.77,1.77,0,0,1,.84,1,3.38,3.38,0,0,1,.12,1,4.37,4.37,0,0,1-.21,1.27.49.49,0,0,1-.31.11,1,1,0,0,1-.33-.09c-.15-.05-.23-.11-.23-.17s.06-.07.17-.33a2.45,2.45,0,0,0,.12-.93c0-1.07-.34-1.6-1-1.6-.35,0-.63.23-.84.7a2.73,2.73,0,0,0-.27,1.16,1.91,1.91,0,0,0,.86,1.43,17.45,17.45,0,0,0,1.57,1C146,95.44,146.26,95.71,146.26,95.91Z"/><path d="M156.83,90.5a9.39,9.39,0,0,1-1,4.28q-1.25,2.43-3.3,2.43a2.23,2.23,0,0,1-1.41-.53q-.26.33-.33.33a.6.6,0,0,1-.33-.1,7.84,7.84,0,0,1-.21-2.25c0-.84,0-2.09,0-3.75s.05-2.9.05-3.75v-.24q0-.33.36-.33a.74.74,0,0,1,.39.14.39.39,0,0,1,.21.31,1.23,1.23,0,0,1-.11.44,1.18,1.18,0,0,0-.1.43v.58a2.18,2.18,0,0,0,.52-.73,3.21,3.21,0,0,1,.7-.93,2.11,2.11,0,0,1,1.43-.48,2.65,2.65,0,0,1,2.42,1.33A5.3,5.3,0,0,1,156.83,90.5Zm-.88-.07a5.74,5.74,0,0,0-.39-2.27,1.78,1.78,0,0,0-1.71-1.26,2.26,2.26,0,0,0-1.67,1,5.15,5.15,0,0,0-.94,1.81,7,7,0,0,0-.24,1.86v3.11a2,2,0,0,0,.37,1.21,1.31,1.31,0,0,0,1.11.57,2.69,2.69,0,0,0,2.15-1.26,5.84,5.84,0,0,0,1.08-2.37A12.24,12.24,0,0,0,156,90.43Z"/><path d="M162.32,97.22q0,.21-.33.21a.39.39,0,0,1-.43-.3,4.31,4.31,0,0,1,0-.58.55.55,0,0,0,0-.24,3,3,0,0,1-1.82.61,2.49,2.49,0,0,1-1.3-.37,1.22,1.22,0,0,1-.72-1c0-.41.28-.81.85-1.2a2.59,2.59,0,0,1,1.44-.54h1.49a.45.45,0,0,0,.09-.32,5.16,5.16,0,0,0-.17-1.51,1.06,1.06,0,0,0-1.06-.86,1.32,1.32,0,0,0-1.05.72,2.31,2.31,0,0,0-.44,1.26v.17a.11.11,0,0,1-.12.12.67.67,0,0,1-.51-.5,3,3,0,0,1,.26-1.06,3.24,3.24,0,0,1,.55-1,1.22,1.22,0,0,1,.93-.41,2.58,2.58,0,0,1,1.58.54,1.77,1.77,0,0,1,.78,1.41Zm-.79-2.38q0-.6-.93-.6a3.06,3.06,0,0,0-1.29.25,1.06,1.06,0,0,0-.71,1,.7.7,0,0,0,.38.63,1.4,1.4,0,0,0,.75.2,2,2,0,0,0,1.22-.42A1.25,1.25,0,0,0,161.53,94.84Z"/><path d="M168,90.91c-.09.44-.16.88-.24,1.32a7.07,7.07,0,0,0-.14,1.32v4.69a2.13,2.13,0,0,1-.61,1.6,2.22,2.22,0,0,1-1.62.59,3.19,3.19,0,0,1-1.25-.3,2.2,2.2,0,0,1-1.09-.82A.56.56,0,0,1,163,99c0-.29.14-.44.42-.44a.41.41,0,0,1,.2.06l.51.53a1.84,1.84,0,0,0,1.29.46,1.32,1.32,0,0,0,1.32-.69,4.33,4.33,0,0,0,.19-1.57,5.71,5.71,0,0,0-.06-.6,2.54,2.54,0,0,1,0-.66,4.12,4.12,0,0,1-.6.49,1.32,1.32,0,0,1-.72.21,1.72,1.72,0,0,1-1.54-.79,3.09,3.09,0,0,1-.47-1.76q0-2,.06-3.42a.49.49,0,0,1,.53-.48c.38,0,.55.07.51.2a12.85,12.85,0,0,0-.29,3.49q0,2.1,1.2,2.1c.48,0,.87-.37,1.16-1.12a4.71,4.71,0,0,0,.31-1.76V91.58c0-.17,0-.38,0-.64s.18-.38.49-.36S168,90.72,168,90.91Z"/><path d="M44.46,102.17a1.68,1.68,0,0,1-.13.26,3.39,3.39,0,0,0-.12.79,51.4,51.4,0,0,0-.35,5.69,5.48,5.48,0,0,0,.47,2.8.92.92,0,0,1-.45.2q-.65,0-.78-1a11.92,11.92,0,0,1-.12-1.32l.1-7.11a.65.65,0,0,1,.29-.45.82.82,0,0,1,.49-.24.73.73,0,0,1,.37.16C44.38,102,44.46,102.09,44.46,102.17Z"/><path d="M50.18,111.86a.28.28,0,0,1-.24.17,1.17,1.17,0,0,1-.51-.21v-.92c0-3.32-.42-5-1.24-5q-.39,0-.84.57a5.48,5.48,0,0,0-1.13,3.56,5.21,5.21,0,0,0,.08.83,6.76,6.76,0,0,1,.08.83c0,.15-.1.23-.3.23-.39,0-.58-.32-.58-1v-3.4c0-.09,0-.22,0-.39s0-.3,0-.39a3.92,3.92,0,0,0-.06-.57,5.58,5.58,0,0,1,0-.56c0-.08.06-.17.19-.28a.53.53,0,0,1,.29-.15.46.46,0,0,1,.36.21c0,.65,0,1,0,1.14s0,.29,0,.43c.09,0,.21-.19.36-.49a3.62,3.62,0,0,1,.48-.78,1.08,1.08,0,0,1,.83-.42,1.68,1.68,0,0,1,.54.13,2,2,0,0,1,1.15,1,7.15,7.15,0,0,1,.59,3.14Z"/><path d="M53.66,107.06a1.45,1.45,0,0,1-.57.15,2.28,2.28,0,0,0-.57.11c0,.11,0,.66,0,1.66,0,.78,0,1.31,0,1.58a3,3,0,0,0,.08.52,2.89,2.89,0,0,1,.07.56.33.33,0,0,1-.15.24.45.45,0,0,1-.27.12c-.2,0-.36-.21-.48-.62a3.28,3.28,0,0,1-.12-.85v-3.12c-.06,0-.28,0-.67,0s-.47-.08-.47-.35.41-.55,1.22-.52l.19-2.72a.33.33,0,0,0,0-.14.58.58,0,0,1,0-.14.24.24,0,0,1,.12-.18.43.43,0,0,1,.28-.06c.35,0,.53.2.53.52a9.19,9.19,0,0,1-.11,1.13,8.65,8.65,0,0,0-.1,1.11,1.87,1.87,0,0,0,0,.34l.82,0q.42,0,.42.33A.42.42,0,0,1,53.66,107.06Z"/><path d="M58.44,110.3c0,.44-.29.84-.88,1.19a2.92,2.92,0,0,1-1.5.48q-2,0-2-2.55a8.1,8.1,0,0,1,.4-2.42q.54-1.68,1.38-1.68a2.52,2.52,0,0,1,1.58.73,2,2,0,0,1,.85,1.45,2.14,2.14,0,0,1-.75,1.62,2.43,2.43,0,0,1-1.69.69,1.24,1.24,0,0,1-.39-.15,1.09,1.09,0,0,0-.39-.15c-.13,0-.2,0-.2.12,0,1.15.38,1.72,1.14,1.72a1.71,1.71,0,0,0,1.08-.39,3.49,3.49,0,0,0,.66-.7c.19-.25.32-.38.38-.38C58.33,109.88,58.44,110,58.44,110.3Zm-1-2.76a1.74,1.74,0,0,0-.3-1,.93.93,0,0,0-.8-.46c-.4,0-.72.25-1,.75a2.91,2.91,0,0,0-.32,1.31,1,1,0,0,0,.28.73.94.94,0,0,0,.71.29,1.24,1.24,0,0,0,1-.53A1.76,1.76,0,0,0,57.41,107.54Z"/><path d="M62.45,106.45s0,.12,0,.25-.25.3-.37.3a.25.25,0,0,1-.21-.15c0-.63-.29-.94-.78-.94-.32,0-.64.59-1,1.77a6.6,6.6,0,0,0-.18,1.72,10.48,10.48,0,0,0,.08,1.7,1.87,1.87,0,0,0,.07.18.66.66,0,0,1,.06.22q0,.33-.45.33a.45.45,0,0,1-.51-.52.79.79,0,0,1,0-.22,1.51,1.51,0,0,0,0-.22c0-.55,0-1.37-.08-2.47s-.07-1.93-.07-2.48c0-.2,0-.32.1-.36a.79.79,0,0,1,.41-.07c.25,0,.39.09.43.27l0,.58c.26-.4.41-.62.45-.67a.94.94,0,0,1,.69-.38,1,1,0,0,1,.54.17,1.63,1.63,0,0,1,.41.46A1.2,1.2,0,0,1,62.45,106.45Z"/><path d="M68,111.86a.26.26,0,0,1-.24.17,1.27,1.27,0,0,1-.51-.21v-.92q0-5-1.24-5c-.26,0-.53.19-.83.57A5.49,5.49,0,0,0,64,110.05a6.76,6.76,0,0,0,.08.83,5.49,5.49,0,0,1,.09.83c0,.15-.1.23-.31.23-.38,0-.58-.32-.58-1v-3.4c0-.09,0-.22,0-.39s0-.3,0-.39a5.49,5.49,0,0,0,0-.57,3.61,3.61,0,0,1,0-.56c0-.08.06-.17.18-.28a.58.58,0,0,1,.3-.15.46.46,0,0,1,.36.21c0,.65-.05,1-.05,1.14s0,.29,0,.43c.09,0,.21-.19.36-.49a3.62,3.62,0,0,1,.48-.78,1.06,1.06,0,0,1,.82-.42,1.68,1.68,0,0,1,.54.13,2,2,0,0,1,1.16,1A7.16,7.16,0,0,1,68,109.6Z"/><path d="M73.37,112.22q0,.21-.33.21a.4.4,0,0,1-.44-.3s0-.22,0-.58a.54.54,0,0,0,0-.24,3,3,0,0,1-1.81.61,2.53,2.53,0,0,1-1.31-.37,1.22,1.22,0,0,1-.72-1c0-.41.29-.81.86-1.2a2.59,2.59,0,0,1,1.44-.54h1.48a.45.45,0,0,0,.09-.32,5.23,5.23,0,0,0-.16-1.51,1.07,1.07,0,0,0-1.07-.86,1.32,1.32,0,0,0-1,.72,2.3,2.3,0,0,0-.43,1.26v.17a.11.11,0,0,1-.12.12.67.67,0,0,1-.51-.5,3,3,0,0,1,.25-1.06,3.24,3.24,0,0,1,.56-1,1.22,1.22,0,0,1,.93-.41,2.55,2.55,0,0,1,1.57.54,1.77,1.77,0,0,1,.78,1.41Zm-.8-2.38q0-.6-.93-.6a3.06,3.06,0,0,0-1.29.25,1.05,1.05,0,0,0-.7,1,.7.7,0,0,0,.37.63,1.4,1.4,0,0,0,.75.2,2,2,0,0,0,1.22-.42A1.25,1.25,0,0,0,72.57,109.84Z"/><path d="M77,107.06a1.45,1.45,0,0,1-.57.15,2.28,2.28,0,0,0-.57.11c0,.11,0,.66,0,1.66,0,.78,0,1.31,0,1.58a2.75,2.75,0,0,0,.07.52,3.08,3.08,0,0,1,.08.56.33.33,0,0,1-.15.24.45.45,0,0,1-.27.12c-.2,0-.36-.21-.48-.62a3.28,3.28,0,0,1-.12-.85v-3.12a1.36,1.36,0,0,0-.68,0c-.31,0-.46-.08-.46-.35s.4-.55,1.21-.52l.2-2.72a.63.63,0,0,0,0-.14.38.38,0,0,1,0-.14.24.24,0,0,1,.12-.18.46.46,0,0,1,.29-.06c.35,0,.52.2.52.52A8.75,8.75,0,0,1,76,105a9.13,9.13,0,0,0-.11,1.11,1.87,1.87,0,0,0,0,.34l.83,0q.42,0,.42.33A.43.43,0,0,1,77,107.06Z"/><path d="M79,105.92a4.32,4.32,0,0,1-.13.81,3.62,3.62,0,0,0-.13.81v3.32a3.77,3.77,0,0,0,.15.9.18.18,0,0,1-.16.12.64.64,0,0,1-.74-.71v-5.5a.82.82,0,0,1,.38-.11.78.78,0,0,1,.37.11C78.92,105.74,79,105.82,79,105.92Zm.28-2.25q0,.51-.48.51a.77.77,0,0,1-.52-.21.63.63,0,0,1-.24-.48.45.45,0,0,1,.51-.51.73.73,0,0,1,.51.2A.61.61,0,0,1,79.29,103.67Z"/><path d="M84.44,108.83a4.32,4.32,0,0,1-.57,2.25A2.09,2.09,0,0,1,82,112.24a2,2,0,0,1-1.81-.95,3.82,3.82,0,0,1-.5-2.07,5.88,5.88,0,0,1,.57-2.5c.48-1,1.09-1.52,1.83-1.52a1.74,1.74,0,0,1,.81.33A3.58,3.58,0,0,1,84.44,108.83Zm-.72,0a5.47,5.47,0,0,0-.26-1.73c-.25-.71-.63-1.06-1.15-1.06s-1.07.39-1.41,1.18a5,5,0,0,0-.39,2,4.13,4.13,0,0,0,.27,1.59,1.27,1.27,0,0,0,1.21.88,1.48,1.48,0,0,0,1.37-1A4.33,4.33,0,0,0,83.72,108.82Z"/><path d="M89.94,111.86a.25.25,0,0,1-.24.17,1.27,1.27,0,0,1-.51-.21v-.92q0-5-1.24-5c-.26,0-.53.19-.83.57A5.49,5.49,0,0,0,86,110.05a6.76,6.76,0,0,0,.08.83,5.49,5.49,0,0,1,.09.83c0,.15-.1.23-.31.23-.38,0-.58-.32-.58-1v-3.4c0-.09,0-.22,0-.39s0-.3,0-.39a5.49,5.49,0,0,0-.05-.57,3.61,3.61,0,0,1,0-.56c0-.08.06-.17.18-.28a.58.58,0,0,1,.3-.15.46.46,0,0,1,.36.21c0,.65,0,1,0,1.14s0,.29,0,.43c.09,0,.21-.19.36-.49a3.62,3.62,0,0,1,.48-.78,1.06,1.06,0,0,1,.82-.42,1.68,1.68,0,0,1,.54.13,2,2,0,0,1,1.16,1,7.16,7.16,0,0,1,.58,3.14Z"/><path d="M95.36,112.22q0,.21-.33.21a.4.4,0,0,1-.44-.3s0-.22,0-.58a.54.54,0,0,0,0-.24,3,3,0,0,1-1.81.61,2.53,2.53,0,0,1-1.31-.37,1.22,1.22,0,0,1-.72-1c0-.41.29-.81.86-1.2a2.59,2.59,0,0,1,1.44-.54h1.48a.45.45,0,0,0,.09-.32,5.23,5.23,0,0,0-.16-1.51,1.07,1.07,0,0,0-1.07-.86,1.32,1.32,0,0,0-1,.72,2.3,2.3,0,0,0-.43,1.26v.17a.11.11,0,0,1-.12.12.67.67,0,0,1-.51-.5,3,3,0,0,1,.25-1.06,3.24,3.24,0,0,1,.56-1,1.22,1.22,0,0,1,.93-.41,2.55,2.55,0,0,1,1.57.54,1.77,1.77,0,0,1,.78,1.41Zm-.8-2.38q0-.6-.93-.6a3.06,3.06,0,0,0-1.29.25,1.05,1.05,0,0,0-.7,1,.7.7,0,0,0,.37.63,1.4,1.4,0,0,0,.75.2,2,2,0,0,0,1.22-.42A1.25,1.25,0,0,0,94.56,109.84Z"/><path d="M97.53,111.64q0,.39-.42.39c-.44,0-.65-.91-.64-2.72l0-6.73a3.26,3.26,0,0,0,0-.47,3.85,3.85,0,0,1,0-.46.88.88,0,0,1,.48-.21.72.72,0,0,1,.42.15.44.44,0,0,1,.21.36,1.34,1.34,0,0,1-.07.39c-.06.2-.1.32-.11.37a17.36,17.36,0,0,0-.18,2.85c0,2,0,2.92,0,2.85a16.65,16.65,0,0,0,.24,2.78.65.65,0,0,0,.07.2A.74.74,0,0,1,97.53,111.64Z"/><path d="M108.54,109c0,.32-.12.48-.37.48a1,1,0,0,1-.32-.06,4.71,4.71,0,0,0,.38,1.71.43.43,0,0,1-.19.32.64.64,0,0,1-.38.12,1,1,0,0,1-.41-.11,1.76,1.76,0,0,1-.12-.75c0-.09,0-.25,0-.49v-.5a.91.91,0,0,0-.05-.36,1.83,1.83,0,0,0-.38,0l-.35,0a17.56,17.56,0,0,0-2,.18,5.07,5.07,0,0,0-1.81.42,2.57,2.57,0,0,0-.29,1.08,11.56,11.56,0,0,0-.13,1.17.24.24,0,0,1-.21.1.72.72,0,0,1-.44-.19.53.53,0,0,1-.24-.38,1.59,1.59,0,0,1,.12-.4c.08-.21.13-.34.14-.39a20,20,0,0,1,1-3.68q2-5.62,3.06-5.62c.77,0,1.37,1,1.79,2.94.15.69.32,2,.52,4a1.4,1.4,0,0,0,.45.16Q108.54,108.77,108.54,109Zm-1.45-.43c-.25-1.76-.41-2.83-.48-3.2-.33-1.68-.68-2.51-1-2.5s-.93.79-1.55,2.31c-.35,1-.69,1.92-1,2.88a3.73,3.73,0,0,0-.2.58q-.06.36.21.36c.06,0,.37,0,.92-.15S105.4,108.63,107.09,108.52Z"/><path d="M113.67,110.91c0,.36-.26.65-.79.89a3.24,3.24,0,0,1-1.28.29,2.74,2.74,0,0,1-.93-.2,4.69,4.69,0,0,1-.91-.63c-.46-.38-.69-.63-.69-.77,0-.32.18-.46.55-.43h.09c0,.31.34.63,1,1a3,3,0,0,0,1.35.48q.66,0,.66-.45,0-.27-.81-.75a8.53,8.53,0,0,1-1.51-1,2.48,2.48,0,0,1-.83-1.83,3,3,0,0,1,.41-1.49,1.35,1.35,0,0,1,1.17-.84,2.32,2.32,0,0,1,1.23.47,1.77,1.77,0,0,1,.84,1,3.38,3.38,0,0,1,.12,1,4.37,4.37,0,0,1-.21,1.27.52.52,0,0,1-.32.11,1,1,0,0,1-.33-.09c-.15-.05-.22-.11-.22-.17s0-.07.16-.33a2.45,2.45,0,0,0,.12-.93c0-1.07-.33-1.6-1-1.6-.35,0-.63.23-.84.7a2.73,2.73,0,0,0-.27,1.16,1.9,1.9,0,0,0,.85,1.43,18.28,18.28,0,0,0,1.58,1C113.39,110.44,113.67,110.71,113.67,110.91Z"/><path d="M118.55,110.91c0,.36-.27.65-.8.89a3.2,3.2,0,0,1-1.27.29,2.74,2.74,0,0,1-.93-.2,4.67,4.67,0,0,1-.92-.63c-.46-.38-.69-.63-.69-.77,0-.32.19-.46.56-.43h.09c0,.31.34.63,1,1a3,3,0,0,0,1.35.48q.66,0,.66-.45,0-.27-.81-.75a8.71,8.71,0,0,1-1.52-1,2.47,2.47,0,0,1-.82-1.83,3,3,0,0,1,.4-1.49,1.35,1.35,0,0,1,1.17-.84,2.32,2.32,0,0,1,1.23.47,1.77,1.77,0,0,1,.84,1,3.38,3.38,0,0,1,.12,1,4.37,4.37,0,0,1-.21,1.27.49.49,0,0,1-.31.11,1,1,0,0,1-.33-.09c-.15-.05-.23-.11-.23-.17s.06-.07.17-.33a2.45,2.45,0,0,0,.12-.93c0-1.07-.34-1.6-1-1.6-.35,0-.63.23-.84.7a2.73,2.73,0,0,0-.27,1.16,1.91,1.91,0,0,0,.86,1.43,17.45,17.45,0,0,0,1.57,1C118.26,110.44,118.55,110.71,118.55,110.91Z"/><path d="M123.93,108.83a4.32,4.32,0,0,1-.57,2.25,2.08,2.08,0,0,1-1.87,1.16,2,2,0,0,1-1.82-.95,3.82,3.82,0,0,1-.49-2.07,5.88,5.88,0,0,1,.57-2.5c.48-1,1.09-1.52,1.83-1.52a1.74,1.74,0,0,1,.81.33A3.57,3.57,0,0,1,123.93,108.83Zm-.72,0a5.48,5.48,0,0,0-.25-1.73c-.25-.71-.64-1.06-1.16-1.06s-1.07.39-1.41,1.18a5,5,0,0,0-.39,2,4.13,4.13,0,0,0,.27,1.59,1.28,1.28,0,0,0,1.22.88,1.47,1.47,0,0,0,1.36-1A4.33,4.33,0,0,0,123.21,108.82Z"/><path d="M129.39,110.23a1.64,1.64,0,0,1-.61,1,2.64,2.64,0,0,1-1,.72,3.06,3.06,0,0,1-.87.17,2,2,0,0,1-1.68-.8,2.93,2.93,0,0,1-.54-1.83,8,8,0,0,1,.5-2.59q.61-1.77,1.53-1.77a2.49,2.49,0,0,1,1.15.42c.48.29.75.56.81.82a4.2,4.2,0,0,1,.11.92c0,1.1-.17,1.65-.5,1.65a.6.6,0,0,1-.28-.09c-.11-.06-.17-.13-.17-.21a.35.35,0,0,1,.06-.16l.08-.13a4,4,0,0,0,.06-.9c0-1.11-.25-1.66-.75-1.66s-1,.5-1.35,1.52a7,7,0,0,0-.39,2.22,3.24,3.24,0,0,0,.25,1.36,1.13,1.13,0,0,0,1.07.7,1.78,1.78,0,0,0,1-.45,2.94,2.94,0,0,0,.78-.86c0-.1.1-.25.18-.43a.24.24,0,0,1,.21-.1c.06,0,.13.07.21.2A.65.65,0,0,1,129.39,110.23Z"/><path d="M131.22,105.92a3.62,3.62,0,0,1-.13.81,4.12,4.12,0,0,0-.12.81v3.32a3.77,3.77,0,0,0,.15.9.19.19,0,0,1-.17.12.64.64,0,0,1-.73-.71v-5.5a.78.78,0,0,1,.37-.11.82.82,0,0,1,.38.11C131.14,105.74,131.22,105.82,131.22,105.92Zm.29-2.25q0,.51-.48.51a.79.79,0,0,1-.53-.21.63.63,0,0,1-.24-.48.45.45,0,0,1,.51-.51.77.77,0,0,1,.52.2A.64.64,0,0,1,131.51,103.67Z"/><path d="M136.58,112.22q0,.21-.33.21a.4.4,0,0,1-.44-.3s0-.22,0-.58a.54.54,0,0,0-.05-.24,3,3,0,0,1-1.81.61,2.53,2.53,0,0,1-1.31-.37,1.22,1.22,0,0,1-.72-1c0-.41.29-.81.86-1.2a2.59,2.59,0,0,1,1.44-.54h1.48a.45.45,0,0,0,.09-.32,5.23,5.23,0,0,0-.16-1.51,1.07,1.07,0,0,0-1.07-.86,1.32,1.32,0,0,0-1.05.72,2.3,2.3,0,0,0-.43,1.26v.17a.11.11,0,0,1-.12.12.67.67,0,0,1-.51-.5,3,3,0,0,1,.25-1.06,3.24,3.24,0,0,1,.56-1,1.22,1.22,0,0,1,.93-.41,2.55,2.55,0,0,1,1.57.54,1.77,1.77,0,0,1,.78,1.41Zm-.8-2.38q0-.6-.93-.6a3.06,3.06,0,0,0-1.29.25,1.05,1.05,0,0,0-.7,1,.7.7,0,0,0,.37.63,1.4,1.4,0,0,0,.75.2,2,2,0,0,0,1.22-.42A1.25,1.25,0,0,0,135.78,109.84Z"/><path d="M140.19,107.06a1.45,1.45,0,0,1-.57.15,2.28,2.28,0,0,0-.57.11c0,.11,0,.66,0,1.66,0,.78,0,1.31,0,1.58a2.75,2.75,0,0,0,.07.52,3.08,3.08,0,0,1,.08.56.33.33,0,0,1-.15.24.45.45,0,0,1-.27.12c-.2,0-.36-.21-.48-.62a3.28,3.28,0,0,1-.12-.85v-3.12a1.36,1.36,0,0,0-.68,0c-.31,0-.46-.08-.46-.35s.4-.55,1.21-.52l.2-2.72a.63.63,0,0,0,0-.14.38.38,0,0,1,0-.14.24.24,0,0,1,.12-.18.46.46,0,0,1,.29-.06c.35,0,.52.2.52.52a8.75,8.75,0,0,1-.1,1.13,9.13,9.13,0,0,0-.11,1.11,1.87,1.87,0,0,0,0,.34l.83,0q.42,0,.42.33A.43.43,0,0,1,140.19,107.06Z"/><path d="M142.22,105.92a4.32,4.32,0,0,1-.13.81,3.62,3.62,0,0,0-.13.81v3.32a3.77,3.77,0,0,0,.15.9.18.18,0,0,1-.16.12.64.64,0,0,1-.74-.71v-5.5a.82.82,0,0,1,.38-.11.78.78,0,0,1,.37.11C142.13,105.74,142.22,105.82,142.22,105.92Zm.28-2.25q0,.51-.48.51a.77.77,0,0,1-.52-.21.63.63,0,0,1-.24-.48.45.45,0,0,1,.51-.51.73.73,0,0,1,.51.2A.61.61,0,0,1,142.5,103.67Z"/><path d="M147.65,108.83a4.32,4.32,0,0,1-.57,2.25,2.09,2.09,0,0,1-1.88,1.16,2,2,0,0,1-1.81-.95,3.82,3.82,0,0,1-.5-2.07,5.88,5.88,0,0,1,.57-2.5c.48-1,1.09-1.52,1.83-1.52a1.74,1.74,0,0,1,.81.33A3.58,3.58,0,0,1,147.65,108.83Zm-.72,0a5.47,5.47,0,0,0-.26-1.73c-.25-.71-.63-1.06-1.15-1.06s-1.07.39-1.41,1.18a5,5,0,0,0-.39,2,4.13,4.13,0,0,0,.27,1.59,1.27,1.27,0,0,0,1.21.88,1.48,1.48,0,0,0,1.37-1A4.33,4.33,0,0,0,146.93,108.82Z"/><path d="M153.15,111.86a.25.25,0,0,1-.24.17,1.27,1.27,0,0,1-.51-.21v-.92q0-5-1.24-5c-.26,0-.53.19-.83.57a5.49,5.49,0,0,0-1.14,3.56,6.76,6.76,0,0,0,.08.83,5.49,5.49,0,0,1,.09.83c0,.15-.1.23-.31.23-.38,0-.58-.32-.58-1v-3.4c0-.09,0-.22,0-.39s0-.3,0-.39a5.49,5.49,0,0,0-.05-.57,3.61,3.61,0,0,1,0-.56c0-.08.06-.17.18-.28a.58.58,0,0,1,.3-.15.46.46,0,0,1,.36.21c0,.65-.05,1-.05,1.14s0,.29,0,.43c.09,0,.21-.19.36-.49a3.62,3.62,0,0,1,.48-.78,1.06,1.06,0,0,1,.82-.42,1.68,1.68,0,0,1,.54.13,2,2,0,0,1,1.16,1,7.16,7.16,0,0,1,.58,3.14Z"/><path d="M155.22,111.47c0,.14-.09.26-.28.36a1,1,0,0,1-.47.12.64.64,0,0,1-.45-.18.55.55,0,0,1-.19-.42.45.45,0,0,1,.52-.51,1.1,1.1,0,0,1,.59.18A.5.5,0,0,1,155.22,111.47Z"/></g></g></g></svg>