<svg xmlns="http://www.w3.org/2000/svg" viewBox="0 0 143.29 100.57"><defs><style>.cls-1{fill:#fff;}.cls-2{fill:none;stroke:#fd6256;stroke-miterlimit:10;stroke-width:1.95px;}</style></defs><title>4</title><g id="Layer_2" data-name="Layer 2"><g id="Facts"><g id="_4" data-name="4"><path class="cls-1" d="M142.32,50.29c0,2-2.5,3.74-2.84,5.66s1.41,4.43.75,6.29-3.59,2.68-4.54,4.43,0,4.61-1.2,6.21-4.2,1.56-5.58,3-1.15,4.45-2.68,5.75-4.46.58-6.11,1.72c-2,1.38-2.87,4.67-5.09,5.87s-5.37.12-7.69,1.1-3.74,4-6.13,4.77-5.33-.86-7.77-.29-4.37,3.31-6.84,3.68S81.47,96.8,79,97s-4.82,2.61-7.32,2.61S66.76,97.17,64.32,97s-5.21,1.87-7.62,1.5-4.47-3.13-6.84-3.68-5.46,1-7.77.29-3.9-3.82-6.14-4.77-5.56.06-7.69-1.1-3.1-4.49-5.09-5.87c-1.65-1.14-4.63-.48-6.11-1.72s-1.35-4.35-2.68-5.75-4.43-1.45-5.58-3-.28-4.52-1.2-6.23-3.89-2.59-4.54-4.42,1.09-4.35.75-6.29S1,52.27,1,50.29s2.49-3.75,2.83-5.67-1.41-4.43-.75-6.29,3.59-2.68,4.54-4.42,0-4.62,1.2-6.22,4.2-1.56,5.58-3,1.16-4.45,2.68-5.74,4.46-.59,6.11-1.73c2-1.38,2.87-4.67,5.09-5.87s5.37-.12,7.69-1.1,3.74-4,6.14-4.77,5.32.86,7.76.29,4.37-3.31,6.85-3.68,5.13,1.69,7.62,1.5S69.14,1,71.65,1,76.53,3.41,79,3.58s5.21-1.86,7.62-1.5,4.47,3.13,6.85,3.68,5.45-1,7.77-.29,3.89,3.83,6.13,4.77,5.56-.05,7.69,1.1,3.11,4.49,5.09,5.87c1.65,1.14,4.63.48,6.11,1.73s1.35,4.34,2.68,5.74,4.44,1.45,5.58,3,.28,4.51,1.2,6.22,3.89,2.59,4.54,4.42-1.09,4.36-.75,6.29S142.32,48.3,142.32,50.29Z"/><path class="cls-2" d="M142.32,50.29c0,2-2.5,3.74-2.84,5.66s1.41,4.43.75,6.29-3.59,2.68-4.54,4.43,0,4.61-1.2,6.21-4.2,1.56-5.58,3-1.15,4.45-2.68,5.75-4.46.58-6.11,1.72c-2,1.38-2.87,4.67-5.09,5.87s-5.37.12-7.69,1.1-3.74,4-6.13,4.77-5.33-.86-7.77-.29-4.37,3.31-6.84,3.68S81.47,96.8,79,97s-4.82,2.61-7.32,2.61S66.76,97.17,64.32,97s-5.21,1.87-7.62,1.5-4.47-3.13-6.84-3.68-5.46,1-7.77.29-3.9-3.82-6.14-4.77-5.56.06-7.69-1.1-3.1-4.49-5.09-5.87c-1.65-1.14-4.63-.48-6.11-1.72s-1.35-4.35-2.68-5.75-4.43-1.45-5.58-3-.28-4.52-1.2-6.23-3.89-2.59-4.54-4.42,1.09-4.35.75-6.29S1,52.27,1,50.29s2.49-3.75,2.83-5.67-1.41-4.43-.75-6.29,3.59-2.68,4.54-4.42,0-4.62,1.2-6.22,4.2-1.56,5.58-3,1.16-4.45,2.68-5.74,4.46-.59,6.11-1.73c2-1.38,2.87-4.67,5.09-5.87s5.37-.12,7.69-1.1,3.74-4,6.14-4.77,5.32.86,7.76.29,4.37-3.31,6.85-3.68,5.13,1.69,7.62,1.5S69.14,1,71.65,1,76.53,3.41,79,3.58s5.21-1.86,7.62-1.5,4.47,3.13,6.85,3.68,5.45-1,7.77-.29,3.89,3.83,6.13,4.77,5.56-.05,7.69,1.1,3.11,4.49,5.09,5.87c1.65,1.14,4.63.48,6.11,1.73s1.35,4.34,2.68,5.74,4.44,1.45,5.58,3,.28,4.51,1.2,6.22,3.89,2.59,4.54,4.42-1.09,4.36-.75,6.29S142.32,48.3,142.32,50.29Z"/><path d="M50.41,22.71a.35.35,0,0,1-.12.25l-.2.24a.75.75,0,0,0-.09.45,3.27,3.27,0,0,1,0,.5,51.83,51.83,0,0,0-.37,6v1.42q.06,1.07.45,1.2v.15a.27.27,0,0,1-.26.17c-.63,0-1-.62-1.12-1.85a7.48,7.48,0,0,1,0-1.42L49.07,25,48,29c-.68,2.12-1.34,3.18-2,3.18a1.21,1.21,0,0,1-.89-.55,3,3,0,0,1-.57-.93,25.41,25.41,0,0,1-1-3.29c-.25-1.12-.51-2.23-.76-3.34l-.09.22a32.56,32.56,0,0,0-.24,4l.15,3.43c0,.36.14.56.36.59,0,.27-.23.4-.72.4s-.68-.82-.68-2.47c0-.75,0-1.87.12-3.35s.12-2.61.12-3.36a1.22,1.22,0,0,0,0-.37,1,1,0,0,1-.05-.17c0-.39.4-.58,1.2-.58a.85.85,0,0,1,.54.31c0,.31.08.77.14,1.38a27.7,27.7,0,0,0,.88,3.84C45.06,30,45.54,31,45.91,31s1-.94,1.54-2.82a34.58,34.58,0,0,0,.84-3.6c.13-.38.3-.92.5-1.62a.92.92,0,0,1,1-.67.81.81,0,0,1,.39.1A.33.33,0,0,1,50.41,22.71Z"/><path d="M55.91,29.73A4.32,4.32,0,0,1,55.34,32a2.07,2.07,0,0,1-1.87,1.15,2,2,0,0,1-1.82-.94,3.82,3.82,0,0,1-.49-2.07,5.92,5.92,0,0,1,.57-2.51c.48-1,1.09-1.51,1.83-1.51a1.74,1.74,0,0,1,.81.33A3.57,3.57,0,0,1,55.91,29.73Zm-.72,0A5.41,5.41,0,0,0,54.94,28c-.25-.71-.64-1.07-1.16-1.07s-1.07.4-1.41,1.19a4.93,4.93,0,0,0-.39,2,4.13,4.13,0,0,0,.27,1.59,1.29,1.29,0,0,0,1.22.89,1.47,1.47,0,0,0,1.36-1A4.38,4.38,0,0,0,55.19,29.71Z"/><path d="M59.18,28a1.45,1.45,0,0,1-.57.15,2.53,2.53,0,0,0-.57.1c0,.11,0,.67,0,1.67,0,.78,0,1.3,0,1.57a2.83,2.83,0,0,0,.07.53,3,3,0,0,1,.08.55.33.33,0,0,1-.15.24.45.45,0,0,1-.27.12c-.2,0-.36-.2-.48-.61a3.36,3.36,0,0,1-.12-.86V28.3a1.36,1.36,0,0,0-.68,0c-.31,0-.46-.07-.46-.34s.4-.56,1.21-.53l.2-2.71a.63.63,0,0,0,0-.14.41.41,0,0,1,0-.15c0-.06,0-.11.12-.17a.47.47,0,0,1,.29-.07.49.49,0,0,1,.52.53,8.63,8.63,0,0,1-.1,1.12A9.13,9.13,0,0,0,58.1,27a2,2,0,0,0,0,.35l.83-.05q.42,0,.42.33A.44.44,0,0,1,59.18,28Z"/><path d="M63.94,33.09a.64.64,0,0,1-.45.12.5.5,0,0,1-.35-.21V30.94c0-2.54-.42-3.81-1.27-3.81a1,1,0,0,0-.89.63,2.17,2.17,0,0,0-.31,1.11,1.08,1.08,0,0,1,0,.19.63.63,0,0,0,0,.19v1.92a5.26,5.26,0,0,0,.08.73,5,5,0,0,1,.07.72q0,.24-.36.24a.52.52,0,0,1-.43-.24.86.86,0,0,1-.17-.49l.09-9.24a.57.57,0,0,1,0-.18q0-.27.3-.27a.93.93,0,0,1,.44.2c.2.14.3.25.3.34a5.21,5.21,0,0,1-.15,1,5.81,5.81,0,0,0-.14,1s0,.69,0,2a1.56,1.56,0,0,1,.86-.49,3,3,0,0,1,1.15.28c.87.36,1.31,1.31,1.31,2.85Z"/><path d="M69.19,31.2c0,.44-.3.83-.89,1.18a2.92,2.92,0,0,1-1.5.48q-2,0-2-2.55a8.07,8.07,0,0,1,.41-2.41q.54-1.68,1.38-1.68a2.5,2.5,0,0,1,1.57.73A2,2,0,0,1,69,28.39,2.14,2.14,0,0,1,68.26,30a2.45,2.45,0,0,1-1.7.69,1.14,1.14,0,0,1-.38-.15,1.18,1.18,0,0,0-.4-.15c-.13,0-.19,0-.19.12,0,1.15.38,1.73,1.14,1.73a1.71,1.71,0,0,0,1.08-.39,3.59,3.59,0,0,0,.66-.71c.19-.25.31-.37.37-.37C69.07,30.78,69.19,30.92,69.19,31.2Zm-1-2.76a1.74,1.74,0,0,0-.3-1,.9.9,0,0,0-.79-.46,1.12,1.12,0,0,0-1,.75,2.86,2.86,0,0,0-.31,1.3,1,1,0,0,0,.27.73.94.94,0,0,0,.72.29,1.23,1.23,0,0,0,1-.52A1.75,1.75,0,0,0,68.15,28.44Z"/><path d="M73.19,27.34s0,.13,0,.26-.26.3-.38.3a.25.25,0,0,1-.21-.15c0-.63-.29-.95-.78-.95-.32,0-.63.59-.94,1.77a6.68,6.68,0,0,0-.18,1.73A10.86,10.86,0,0,0,70.76,32l.08.19a.66.66,0,0,1,.06.22q0,.33-.45.33a.46.46,0,0,1-.51-.53A1,1,0,0,1,70,32a.79.79,0,0,0,0-.22c0-.55,0-1.38-.07-2.48s-.08-1.92-.08-2.47c0-.2,0-.32.11-.37a.86.86,0,0,1,.4-.07c.25,0,.4.09.44.27l0,.59c.26-.4.41-.63.45-.68a.92.92,0,0,1,.69-.37,1,1,0,0,1,.54.16,1.91,1.91,0,0,1,.41.47A1.25,1.25,0,0,1,73.19,27.34Z"/><path d="M74.93,22.65a.65.65,0,0,1-.1.19,1.59,1.59,0,0,0-.11.2,2.64,2.64,0,0,0-.09.81c0,.13,0,.32,0,.58s0,.44,0,.57c0,.38-.15.57-.44.57s-.29-.05-.34-.15c0-1.15,0-1.78,0-1.9a4,4,0,0,1,.06-.6c.06-.31.12-.48.19-.5a.4.4,0,0,1,.17,0C74.72,22.39,74.93,22.48,74.93,22.65Z"/><path d="M80.21,31.81c0,.35-.26.65-.79.89a3.22,3.22,0,0,1-1.28.28,2.7,2.7,0,0,1-.93-.19,4.43,4.43,0,0,1-.91-.64c-.46-.37-.69-.63-.69-.77,0-.31.18-.45.55-.42h.09c0,.3.34.63,1,1a2.89,2.89,0,0,0,1.35.49q.66,0,.66-.45,0-.27-.81-.75a8.53,8.53,0,0,1-1.51-1,2.48,2.48,0,0,1-.83-1.84,2.92,2.92,0,0,1,.41-1.48A1.35,1.35,0,0,1,77.65,26a2.35,2.35,0,0,1,1.23.48,1.77,1.77,0,0,1,.84.95,3.3,3.3,0,0,1,.12.94,4.43,4.43,0,0,1-.21,1.28.51.51,0,0,1-.32.1.94.94,0,0,1-.33-.08c-.15-.05-.22-.11-.22-.17s0-.07.16-.33a2.45,2.45,0,0,0,.12-.93c0-1.07-.33-1.61-1-1.61-.35,0-.63.24-.84.71a2.69,2.69,0,0,0-.27,1.16A1.9,1.9,0,0,0,77.78,30c.19.16.72.5,1.58,1C79.93,31.34,80.21,31.61,80.21,31.81Z"/><path d="M90.79,26.4a9.35,9.35,0,0,1-1,4.27q-1.25,2.43-3.3,2.43a2.22,2.22,0,0,1-1.41-.52q-.25.33-.33.33a.62.62,0,0,1-.33-.11,7.84,7.84,0,0,1-.21-2.25c0-.84,0-2.08,0-3.74s0-2.91,0-3.76v-.24q0-.33.36-.33a.69.69,0,0,1,.39.15.37.37,0,0,1,.21.3,1.27,1.27,0,0,1-.1.45,1.19,1.19,0,0,0-.11.42v.59a2.24,2.24,0,0,0,.53-.74,3,3,0,0,1,.7-.93,2.09,2.09,0,0,1,1.42-.48,2.64,2.64,0,0,1,2.42,1.34A5.3,5.3,0,0,1,90.79,26.4Zm-.89-.08a5.69,5.69,0,0,0-.39-2.26A1.78,1.78,0,0,0,87.8,22.8a2.23,2.23,0,0,0-1.66,1,5.22,5.22,0,0,0-1,1.82A7,7,0,0,0,85,27.51v3.1a2,2,0,0,0,.38,1.22,1.31,1.31,0,0,0,1.11.57,2.67,2.67,0,0,0,2.14-1.26,5.84,5.84,0,0,0,1.08-2.37A12.34,12.34,0,0,0,89.9,26.32Z"/><path d="M96.28,33.12q0,.21-.33.21a.4.4,0,0,1-.44-.3s0-.23,0-.59a.54.54,0,0,0,0-.24,3,3,0,0,1-1.81.62,2.54,2.54,0,0,1-1.31-.38,1.22,1.22,0,0,1-.72-1c0-.41.29-.81.86-1.2a2.59,2.59,0,0,1,1.44-.54h1.48a.43.43,0,0,0,.09-.31,5.31,5.31,0,0,0-.16-1.52A1.06,1.06,0,0,0,94.25,27a1.32,1.32,0,0,0-1,.72A2.3,2.3,0,0,0,92.77,29v.16a.11.11,0,0,1-.12.12.5.5,0,0,1-.33-.18.48.48,0,0,1-.18-.31,3,3,0,0,1,.25-1.06,3.31,3.31,0,0,1,.56-1,1.21,1.21,0,0,1,.93-.4,2.55,2.55,0,0,1,1.57.54,1.77,1.77,0,0,1,.78,1.41Zm-.8-2.39q0-.6-.93-.6a3.06,3.06,0,0,0-1.29.26,1.05,1.05,0,0,0-.7,1,.7.7,0,0,0,.37.63,1.39,1.39,0,0,0,.75.19,2.08,2.08,0,0,0,1.23-.42A1.26,1.26,0,0,0,95.48,30.73Z"/><path d="M101.93,26.8c-.08.44-.16.88-.23,1.32a6.32,6.32,0,0,0-.14,1.32v4.7a2.16,2.16,0,0,1-.61,1.6,2.26,2.26,0,0,1-1.63.59,3.15,3.15,0,0,1-1.24-.3A2.24,2.24,0,0,1,97,35.2a.54.54,0,0,1-.07-.27.37.37,0,0,1,.42-.43.38.38,0,0,1,.19.06l.51.52a1.84,1.84,0,0,0,1.29.47,1.32,1.32,0,0,0,1.32-.69,4.33,4.33,0,0,0,.2-1.58,5.71,5.71,0,0,0-.06-.6,2.54,2.54,0,0,1,0-.66,4.42,4.42,0,0,1-.6.5,1.32,1.32,0,0,1-.72.21,1.75,1.75,0,0,1-1.55-.8,3.06,3.06,0,0,1-.46-1.75q0-2,.06-3.42a.48.48,0,0,1,.52-.48c.38,0,.55.06.51.19a13.09,13.09,0,0,0-.28,3.5c0,1.4.39,2.1,1.19,2.1.49,0,.88-.38,1.16-1.13a4.67,4.67,0,0,0,.32-1.75V27.48c0-.17,0-.39,0-.65s.18-.38.49-.36S102,26.61,101.93,26.8Z"/><path d="M29.29,44.35a5.83,5.83,0,0,1-.36,2.19,1.69,1.69,0,0,1-1.62,1.23,2.45,2.45,0,0,1-.76-.16l-.75-.27a.58.58,0,0,0,0,.19,1.94,1.94,0,0,0,0,.22c0,.1,0,.17,0,.22s-.09.22-.26.22a.51.51,0,0,1-.42-.21A2.12,2.12,0,0,1,25,47.1c0-.41-.05-.73-.05-1v-.09l.29-8.37h.21a.53.53,0,0,1,.4.22.68.68,0,0,1,.18.44A12.86,12.86,0,0,1,25.85,40a15,15,0,0,0-.14,1.65v.57a.84.84,0,0,0,.3-.35,2.37,2.37,0,0,1,.39-.52,1,1,0,0,1,.73-.27,1.86,1.86,0,0,1,1.34.6,2.66,2.66,0,0,1,.72,1.3A7.22,7.22,0,0,1,29.29,44.35Zm-.79.09a5.85,5.85,0,0,0-.2-1.61c-.19-.71-.51-1.06-1-1.06s-1,.41-1.3,1.22a5.31,5.31,0,0,0-.38,1.94,3.38,3.38,0,0,0,.3,1.49,1.22,1.22,0,0,0,1.14.83q.76,0,1.14-1.08A5.51,5.51,0,0,0,28.5,44.44Z"/><path d="M34.44,46.2c0,.44-.3.83-.89,1.18a2.92,2.92,0,0,1-1.5.48q-2,0-2-2.55a8.07,8.07,0,0,1,.41-2.41q.54-1.68,1.38-1.68A2.5,2.5,0,0,1,33.4,42a2,2,0,0,1,.86,1.44A2.14,2.14,0,0,1,33.51,45a2.45,2.45,0,0,1-1.7.69,1.22,1.22,0,0,1-.38-.15,1.11,1.11,0,0,0-.4-.15c-.13,0-.19,0-.19.12,0,1.15.38,1.73,1.14,1.73a1.71,1.71,0,0,0,1.08-.39,3.59,3.59,0,0,0,.66-.71c.19-.25.31-.37.37-.37C34.32,45.78,34.44,45.92,34.44,46.2Zm-1-2.76a1.74,1.74,0,0,0-.3-1,.9.9,0,0,0-.79-.46,1.12,1.12,0,0,0-1,.75,2.86,2.86,0,0,0-.31,1.3,1,1,0,0,0,.28.73.91.91,0,0,0,.71.29,1.23,1.23,0,0,0,1-.52A1.75,1.75,0,0,0,33.4,43.44Z"/><path d="M39.82,46.13c0,.24-.2.56-.61,1a2.64,2.64,0,0,1-1,.72,3,3,0,0,1-.87.16,2,2,0,0,1-1.68-.79,2.94,2.94,0,0,1-.54-1.84,8,8,0,0,1,.5-2.58C36,41.59,36.53,41,37.14,41a2.53,2.53,0,0,1,1.15.43c.48.29.75.56.81.82a4.11,4.11,0,0,1,.11.91c0,1.1-.17,1.65-.5,1.65a.6.6,0,0,1-.28-.09c-.11-.06-.17-.13-.17-.21a.29.29,0,0,1,.06-.15l.08-.13a4,4,0,0,0,.06-.9c0-1.11-.25-1.67-.75-1.67s-1,.51-1.35,1.52A7.08,7.08,0,0,0,36,45.4a3.16,3.16,0,0,0,.25,1.35,1.14,1.14,0,0,0,1.07.71,1.78,1.78,0,0,0,1-.45,3,3,0,0,0,.78-.87l.18-.42a.25.25,0,0,1,.21-.11c.06,0,.13.07.22.21A.68.68,0,0,1,39.82,46.13Z"/><path d="M45.12,48.12q0,.21-.33.21a.4.4,0,0,1-.44-.3s0-.23,0-.59a.54.54,0,0,0-.05-.24,3,3,0,0,1-1.81.62,2.54,2.54,0,0,1-1.31-.38,1.22,1.22,0,0,1-.72-1c0-.41.29-.81.86-1.2a2.59,2.59,0,0,1,1.44-.54h1.48a.43.43,0,0,0,.09-.31,5.31,5.31,0,0,0-.16-1.52A1.06,1.06,0,0,0,43.09,42a1.32,1.32,0,0,0-1.05.72A2.3,2.3,0,0,0,41.61,44v.16a.11.11,0,0,1-.12.12.5.5,0,0,1-.33-.18.48.48,0,0,1-.18-.31,3,3,0,0,1,.25-1.06,3.31,3.31,0,0,1,.56-1,1.21,1.21,0,0,1,.93-.4,2.55,2.55,0,0,1,1.57.54,1.77,1.77,0,0,1,.78,1.41Zm-.8-2.39q0-.6-.93-.6a3.06,3.06,0,0,0-1.29.26,1.05,1.05,0,0,0-.7,1,.7.7,0,0,0,.37.63,1.39,1.39,0,0,0,.75.19,2.08,2.08,0,0,0,1.23-.42A1.26,1.26,0,0,0,44.32,45.73Z"/><path d="M53.07,47.79a1,1,0,0,1-.48.19.69.69,0,0,1-.3-.1V46.25c0-3.08-.32-4.63-.95-4.63-.37,0-.7.48-1,1.44A7.68,7.68,0,0,0,50,45v1.5a1.07,1.07,0,0,0,.07.34,1.39,1.39,0,0,1,.06.32.31.31,0,0,1-.16.24.53.53,0,0,1-.29.12.45.45,0,0,1-.3-.18.55.55,0,0,1-.16-.33V44a5.86,5.86,0,0,0-.17-1.22q-.21-.93-.51-.93c-.11,0-.27.14-.49.42A5.58,5.58,0,0,0,47,45.82a6.92,6.92,0,0,0,.06.76,7,7,0,0,1,.06.74c0,.3-.12.45-.37.45a.42.42,0,0,1-.32-.15,2.35,2.35,0,0,1-.13-.67,7,7,0,0,1-.08-.74V42.67q0-1.53.36-1.53a.45.45,0,0,1,.31.15.38.38,0,0,1,.16.29,4.92,4.92,0,0,1-.09.82c-.06.44-.1.72-.11.83l.08.07L47.46,42c.27-.55.59-.82,1-.82s1,.56,1.35,1.68a3.16,3.16,0,0,0,.37-.75,3.69,3.69,0,0,1,.41-.81.86.86,0,0,1,.7-.36,1.34,1.34,0,0,1,.9.54A5.19,5.19,0,0,1,53.07,45Z"/><path d="M58.41,46.2c0,.44-.3.83-.89,1.18a2.92,2.92,0,0,1-1.5.48q-2,0-2-2.55a8.07,8.07,0,0,1,.41-2.41q.54-1.68,1.38-1.68a2.5,2.5,0,0,1,1.57.73,2,2,0,0,1,.86,1.44A2.14,2.14,0,0,1,57.48,45a2.45,2.45,0,0,1-1.7.69,1.14,1.14,0,0,1-.38-.15,1.18,1.18,0,0,0-.4-.15c-.13,0-.19,0-.19.12,0,1.15.38,1.73,1.14,1.73A1.71,1.71,0,0,0,57,46.86a3.59,3.59,0,0,0,.66-.71c.19-.25.31-.37.37-.37C58.29,45.78,58.41,45.92,58.41,46.2Zm-1-2.76a1.74,1.74,0,0,0-.3-1,.9.9,0,0,0-.79-.46,1.12,1.12,0,0,0-1,.75,2.86,2.86,0,0,0-.31,1.3,1,1,0,0,0,.28.73.91.91,0,0,0,.71.29,1.23,1.23,0,0,0,1-.52A1.75,1.75,0,0,0,57.37,43.44Z"/><path d="M66.91,48.12q0,.21-.33.21a.39.39,0,0,1-.43-.3,4.53,4.53,0,0,1,0-.59.55.55,0,0,0,0-.24,3,3,0,0,1-1.82.62,2.51,2.51,0,0,1-1.3-.38,1.22,1.22,0,0,1-.72-1c0-.41.28-.81.85-1.2a2.59,2.59,0,0,1,1.44-.54H66a.43.43,0,0,0,.09-.31A5.24,5.24,0,0,0,66,42.82,1.05,1.05,0,0,0,64.89,42a1.32,1.32,0,0,0-1,.72A2.31,2.31,0,0,0,63.4,44v.16a.11.11,0,0,1-.12.12.5.5,0,0,1-.33-.18.48.48,0,0,1-.18-.31A3,3,0,0,1,63,42.68a3.31,3.31,0,0,1,.55-1,1.21,1.21,0,0,1,.93-.4,2.58,2.58,0,0,1,1.58.54,1.77,1.77,0,0,1,.78,1.41Zm-.79-2.39q0-.6-.93-.6a3.06,3.06,0,0,0-1.29.26,1.06,1.06,0,0,0-.71,1,.7.7,0,0,0,.38.63,1.39,1.39,0,0,0,.75.19,2,2,0,0,0,1.22-.42A1.25,1.25,0,0,0,66.12,45.73Z"/><path d="M74.16,42.34s0,.13,0,.26-.25.3-.37.3a.25.25,0,0,1-.21-.15c0-.63-.29-1-.78-1-.32,0-.64.59-1,1.77a6.68,6.68,0,0,0-.18,1.73A10.32,10.32,0,0,0,71.73,47a1.73,1.73,0,0,0,.07.19.66.66,0,0,1,.06.22q0,.33-.45.33a.46.46,0,0,1-.51-.53,1.23,1.23,0,0,1,0-.21.79.79,0,0,0,0-.22c0-.55,0-1.38-.08-2.48s-.07-1.92-.07-2.47c0-.2,0-.32.1-.37a.91.91,0,0,1,.41-.07c.25,0,.39.09.43.27l0,.59c.26-.4.41-.63.45-.68a.92.92,0,0,1,.69-.37,1,1,0,0,1,.54.16,1.89,1.89,0,0,1,.42.47A1.25,1.25,0,0,1,74.16,42.34Z"/><path d="M78.82,46.2c0,.44-.29.83-.88,1.18a2.92,2.92,0,0,1-1.5.48q-2,0-2-2.55a8,8,0,0,1,.4-2.41q.54-1.68,1.38-1.68a2.52,2.52,0,0,1,1.58.73,2,2,0,0,1,.85,1.44A2.14,2.14,0,0,1,77.89,45a2.43,2.43,0,0,1-1.69.69,1.14,1.14,0,0,1-.38-.15,1.18,1.18,0,0,0-.4-.15c-.13,0-.2,0-.2.12,0,1.15.38,1.73,1.14,1.73a1.71,1.71,0,0,0,1.08-.39,3.59,3.59,0,0,0,.66-.71c.19-.25.32-.37.38-.37C78.71,45.78,78.82,45.92,78.82,46.2Zm-1-2.76a1.74,1.74,0,0,0-.3-1,.91.91,0,0,0-.8-.46c-.4,0-.72.25-1,.75a2.87,2.87,0,0,0-.32,1.3,1,1,0,0,0,.28.73.92.92,0,0,0,.71.29,1.23,1.23,0,0,0,1-.52A1.76,1.76,0,0,0,77.79,43.44Z"/><path d="M84.21,46.13c0,.24-.21.56-.62,1a2.62,2.62,0,0,1-1,.72,3,3,0,0,1-.87.16A2,2,0,0,1,80,47.19a2.94,2.94,0,0,1-.54-1.84A7.93,7.93,0,0,1,80,42.77c.41-1.18.92-1.78,1.53-1.78a2.56,2.56,0,0,1,1.16.43c.48.29.75.56.81.82a4.09,4.09,0,0,1,.1.91c0,1.1-.16,1.65-.49,1.65a.64.64,0,0,1-.29-.09c-.11-.06-.16-.13-.16-.21a.29.29,0,0,1,.06-.15l.07-.13a4,4,0,0,0,.06-.9c0-1.11-.25-1.67-.75-1.67s-1,.51-1.35,1.52a7.08,7.08,0,0,0-.39,2.23,3.15,3.15,0,0,0,.26,1.35,1.12,1.12,0,0,0,1.06.71,1.78,1.78,0,0,0,1-.45,3,3,0,0,0,.78-.87l.18-.42a.25.25,0,0,1,.21-.11c.06,0,.13.07.22.21A.73.73,0,0,1,84.21,46.13Z"/><path d="M89.71,44.73A4.32,4.32,0,0,1,89.14,47a2.07,2.07,0,0,1-1.87,1.15,2,2,0,0,1-1.82-.94A3.82,3.82,0,0,1,85,45.12a5.92,5.92,0,0,1,.57-2.51c.48-1,1.09-1.51,1.83-1.51a1.74,1.74,0,0,1,.81.33A3.57,3.57,0,0,1,89.71,44.73Zm-.72,0A5.41,5.41,0,0,0,88.74,43c-.25-.71-.64-1.07-1.16-1.07s-1.07.4-1.41,1.19a4.93,4.93,0,0,0-.39,2,4.13,4.13,0,0,0,.27,1.59,1.29,1.29,0,0,0,1.22.89,1.47,1.47,0,0,0,1.36-1A4.38,4.38,0,0,0,89,44.71Z"/><path d="M95.1,43.18c0,.06,0,.15,0,.26a12.24,12.24,0,0,0-.31,2.41c0,.31,0,.79,0,1.43s0,1.12,0,1.44a4.37,4.37,0,0,1-.15,1.35,1.64,1.64,0,0,1-.69.82,1.91,1.91,0,0,1-1,.33A4.79,4.79,0,0,1,91.51,51c-.7-.22-1.05-.48-1.05-.79s.11-.41.32-.41.17.06.24.18a1.49,1.49,0,0,0,.19.29,1.46,1.46,0,0,0,.62.22,2.87,2.87,0,0,0,.67.12,1.44,1.44,0,0,0,1.28-.66,2.54,2.54,0,0,0,.37-1.45A5.72,5.72,0,0,0,94,46.92a2.12,2.12,0,0,1-1.73.94,1.54,1.54,0,0,1-.7-.2,1.73,1.73,0,0,1-.6-.44,2.34,2.34,0,0,1-.41-1.52A9.12,9.12,0,0,1,91,43c.4-1.27.92-1.91,1.57-1.91s1.07.47,1.65,1.41a4.56,4.56,0,0,0,.29.44A2.84,2.84,0,0,1,95.1,43.18Zm-.9.83a.7.7,0,0,0-.23-.53,2.4,2.4,0,0,0-.31-1.08,1,1,0,0,0-.93-.55c-.27,0-.54.3-.81.91a5.78,5.78,0,0,0-.41,1.29,9.55,9.55,0,0,0-.15,1.53c0,1.23.36,1.85,1.07,1.85q.81,0,1.35-1.35A5.79,5.79,0,0,0,94.2,44Z"/><path d="M100.75,47.76a.25.25,0,0,1-.24.16,1.27,1.27,0,0,1-.51-.21V46.8q0-5-1.24-5c-.26,0-.53.19-.83.57a5.46,5.46,0,0,0-1.14,3.55,7.07,7.07,0,0,0,.08.84,5.49,5.49,0,0,1,.09.83c0,.15-.1.22-.31.22-.38,0-.58-.31-.58-.94V43.48c0-.09,0-.22,0-.39s0-.3,0-.39a5.49,5.49,0,0,0,0-.57,3.51,3.51,0,0,1,0-.55c0-.08.06-.17.18-.28a.62.62,0,0,1,.3-.16.46.46,0,0,1,.36.21c0,.65,0,1,0,1.14s0,.3,0,.44c.09,0,.21-.2.36-.5a3.62,3.62,0,0,1,.48-.78,1.06,1.06,0,0,1,.82-.42,1.77,1.77,0,0,1,.54.14,2,2,0,0,1,1.16,1,7.11,7.11,0,0,1,.58,3.13Z"/><path d="M102.82,41.82a3.62,3.62,0,0,1-.13.81,4.12,4.12,0,0,0-.12.81v3.31a3.77,3.77,0,0,0,.15.9.19.19,0,0,1-.17.12c-.49,0-.73-.23-.73-.7V41.56a.76.76,0,0,1,.37-.1.8.8,0,0,1,.38.1C102.74,41.63,102.82,41.72,102.82,41.82Zm.29-2.25q0,.51-.48.51a.79.79,0,0,1-.53-.21.63.63,0,0,1-.24-.48.45.45,0,0,1,.51-.51.76.76,0,0,1,.52.19A.67.67,0,0,1,103.11,39.57Z"/><path d="M108.19,41.9a1.24,1.24,0,0,1-.36.79l-1.89,2.11A5.43,5.43,0,0,0,104.55,47a.64.64,0,0,0,.51.16,13.14,13.14,0,0,0,2.68-.43c.06,0,.13,0,.22.17a.72.72,0,0,1,.13.37c0,.27-.2.4-.59.4s-.82,0-1.41.1a12,12,0,0,1-1.33.1,1.25,1.25,0,0,1-.68-.18.66.66,0,0,1-.34-.59,3.44,3.44,0,0,1,.85-1.71c.2-.26.74-.9,1.62-1.93a5,5,0,0,0,1-1.35.77.77,0,0,0-.48-.12,2.75,2.75,0,0,0-1.16.25,3.41,3.41,0,0,0-.76.48,2.56,2.56,0,0,1-.36.26c-.25,0-.38-.17-.38-.5s.47-.62,1.41-.87a7.65,7.65,0,0,1,1.86-.3C107.89,41.32,108.19,41.51,108.19,41.9Z"/><path d="M113,46.2c0,.44-.3.83-.89,1.18a2.92,2.92,0,0,1-1.5.48q-2,0-2-2.55A8.07,8.07,0,0,1,109,42.9q.54-1.68,1.38-1.68a2.5,2.5,0,0,1,1.57.73,2,2,0,0,1,.86,1.44,2.14,2.14,0,0,1-.75,1.62,2.45,2.45,0,0,1-1.7.69,1.14,1.14,0,0,1-.38-.15,1.18,1.18,0,0,0-.4-.15c-.13,0-.19,0-.19.12,0,1.15.38,1.73,1.14,1.73a1.71,1.71,0,0,0,1.08-.39,3.59,3.59,0,0,0,.66-.71c.19-.25.31-.37.37-.37C112.86,45.78,113,45.92,113,46.2Zm-1-2.76a1.74,1.74,0,0,0-.3-1,.9.9,0,0,0-.79-.46,1.12,1.12,0,0,0-1,.75,2.86,2.86,0,0,0-.31,1.3,1,1,0,0,0,.27.73.94.94,0,0,0,.72.29,1.23,1.23,0,0,0,1-.52A1.75,1.75,0,0,0,111.94,43.44Z"/><path d="M118.41,38.15a5.55,5.55,0,0,1-.09.88c-.07.47-.12.77-.14.89q0,.46-.15,3.09c-.06,1.6-.09,2.49-.09,2.66a6.31,6.31,0,0,0,.29,2.27.31.31,0,0,1-.27.16.56.56,0,0,1-.34-.15.61.61,0,0,1-.23-.3,6.93,6.93,0,0,0-.09-.91,2.36,2.36,0,0,1-1.7,1.12,1.73,1.73,0,0,1-1.5-.73,2.82,2.82,0,0,1-.45-1.67,8,8,0,0,1,.47-2.61q.6-1.77,1.59-1.77a1.45,1.45,0,0,1,.85.32c.06,0,.3.25.71.63a40.4,40.4,0,0,0,.15-4.49.37.37,0,0,1,.28-.1.69.69,0,0,1,.5.21A.67.67,0,0,1,118.41,38.15Zm-1.13,5.54a2.33,2.33,0,0,0-.3-1.18,1.08,1.08,0,0,0-1-.63q-.75,0-1.2,1.53a7.29,7.29,0,0,0-.36,2.17,2.83,2.83,0,0,0,.21,1.14.91.91,0,0,0,.85.63q.93,0,1.41-1.44A6.71,6.71,0,0,0,117.28,43.69Z"/><path d="M29,63.09a.64.64,0,0,1-.45.12.48.48,0,0,1-.34-.21V60.94c0-2.54-.42-3.81-1.27-3.81a1,1,0,0,0-.89.63,2.18,2.18,0,0,0-.32,1.11.89.89,0,0,1,0,.19.63.63,0,0,0,0,.19v1.92a4.94,4.94,0,0,0,.07.73,5.31,5.31,0,0,1,.08.72q0,.24-.36.24a.52.52,0,0,1-.43-.24.86.86,0,0,1-.17-.49L25,52.89a.57.57,0,0,1,0-.18q0-.27.3-.27a.93.93,0,0,1,.44.2c.2.14.29.25.29.34a5,5,0,0,1-.14,1,5.81,5.81,0,0,0-.14,1s0,.69,0,2a1.55,1.55,0,0,1,.85-.49,3.07,3.07,0,0,1,1.16.28c.87.36,1.3,1.31,1.3,2.85Z"/><path d="M34.63,59.73A4.32,4.32,0,0,1,34.06,62a2.07,2.07,0,0,1-1.87,1.15,2,2,0,0,1-1.82-.94,3.82,3.82,0,0,1-.49-2.07,5.92,5.92,0,0,1,.57-2.51c.48-1,1.09-1.51,1.83-1.51a1.74,1.74,0,0,1,.81.33A3.57,3.57,0,0,1,34.63,59.73Zm-.72,0A5.41,5.41,0,0,0,33.66,58c-.25-.71-.64-1.07-1.16-1.07s-1.07.4-1.41,1.19a4.93,4.93,0,0,0-.39,2A4.13,4.13,0,0,0,31,61.66a1.29,1.29,0,0,0,1.22.89,1.47,1.47,0,0,0,1.36-1A4.38,4.38,0,0,0,33.91,59.71Z"/><path d="M36.61,62.53q0,.39-.42.39c-.44,0-.65-.9-.64-2.71l0-6.74a3.38,3.38,0,0,0,0-.47,3.65,3.65,0,0,1,0-.46.88.88,0,0,1,.48-.21.72.72,0,0,1,.42.15.44.44,0,0,1,.21.36,1.34,1.34,0,0,1-.07.39c-.06.2-.1.33-.11.38a17.36,17.36,0,0,0-.18,2.85c0,2,0,2.92,0,2.85a16.51,16.51,0,0,0,.24,2.77.67.67,0,0,0,.07.21A.69.69,0,0,1,36.61,62.53Z"/><path d="M38.56,56.82a4.12,4.12,0,0,1-.12.81,3.62,3.62,0,0,0-.13.81v3.31a3.77,3.77,0,0,0,.15.9.19.19,0,0,1-.17.12c-.49,0-.73-.23-.73-.7V56.56a.76.76,0,0,1,.37-.1.8.8,0,0,1,.38.1C38.48,56.63,38.56,56.72,38.56,56.82Zm.29-2.25q0,.51-.48.51a.79.79,0,0,1-.53-.21.63.63,0,0,1-.24-.48.45.45,0,0,1,.51-.51.74.74,0,0,1,.52.19A.63.63,0,0,1,38.85,54.57Z"/><path d="M44.35,53.15a5.55,5.55,0,0,1-.09.88c-.07.47-.11.77-.13.89q0,.46-.15,3.09c-.06,1.6-.09,2.49-.09,2.66a6.36,6.36,0,0,0,.28,2.27.31.31,0,0,1-.27.16.54.54,0,0,1-.33-.15.64.64,0,0,1-.24-.3,6.93,6.93,0,0,0-.09-.91,2.35,2.35,0,0,1-1.69,1.12,1.73,1.73,0,0,1-1.5-.73,2.82,2.82,0,0,1-.45-1.67,8,8,0,0,1,.46-2.61q.6-1.77,1.59-1.77a1.48,1.48,0,0,1,.86.32c.06,0,.29.25.7.63a40.4,40.4,0,0,0,.15-4.49.39.39,0,0,1,.29-.1.72.72,0,0,1,.7.71Zm-1.12,5.54a2.33,2.33,0,0,0-.3-1.18,1.1,1.1,0,0,0-1-.63q-.75,0-1.2,1.53a7.29,7.29,0,0,0-.36,2.17,2.83,2.83,0,0,0,.21,1.14.92.92,0,0,0,.86.63q.93,0,1.41-1.44A6.71,6.71,0,0,0,43.23,58.69Z"/><path d="M49.42,63.12q0,.21-.33.21a.39.39,0,0,1-.43-.3,4.53,4.53,0,0,1,0-.59.55.55,0,0,0,0-.24,3,3,0,0,1-1.82.62,2.51,2.51,0,0,1-1.3-.38,1.22,1.22,0,0,1-.72-1c0-.41.28-.81.85-1.2a2.59,2.59,0,0,1,1.44-.54h1.49a.43.43,0,0,0,.09-.31,5.24,5.24,0,0,0-.17-1.52A1.05,1.05,0,0,0,47.4,57a1.32,1.32,0,0,0-1,.72A2.31,2.31,0,0,0,45.91,59v.16a.11.11,0,0,1-.12.12.5.5,0,0,1-.33-.18.48.48,0,0,1-.18-.31,3,3,0,0,1,.26-1.06,3.31,3.31,0,0,1,.55-1,1.21,1.21,0,0,1,.93-.4,2.58,2.58,0,0,1,1.58.54,1.77,1.77,0,0,1,.78,1.41Zm-.79-2.39q0-.6-.93-.6a3.06,3.06,0,0,0-1.29.26,1.06,1.06,0,0,0-.71,1,.7.7,0,0,0,.38.63,1.39,1.39,0,0,0,.75.19,2,2,0,0,0,1.22-.42A1.25,1.25,0,0,0,48.63,60.73Z"/><path d="M55.08,56.8c-.09.44-.16.88-.24,1.32a7.07,7.07,0,0,0-.14,1.32v4.7a2.16,2.16,0,0,1-.6,1.6,2.26,2.26,0,0,1-1.63.59,3.19,3.19,0,0,1-1.25-.3,2.21,2.21,0,0,1-1.09-.83.56.56,0,0,1-.08-.27.37.37,0,0,1,.42-.43.41.41,0,0,1,.2.06l.51.52a1.84,1.84,0,0,0,1.29.47,1.32,1.32,0,0,0,1.32-.69A4.39,4.39,0,0,0,54,63.28a5.71,5.71,0,0,0-.06-.6,2.54,2.54,0,0,1,0-.66,4.42,4.42,0,0,1-.6.5,1.32,1.32,0,0,1-.72.21,1.73,1.73,0,0,1-1.54-.8,3.06,3.06,0,0,1-.47-1.75q0-2,.06-3.42a.49.49,0,0,1,.53-.48c.38,0,.55.06.51.19a12.94,12.94,0,0,0-.29,3.5q0,2.1,1.2,2.1c.48,0,.87-.38,1.16-1.13A4.66,4.66,0,0,0,54,59.19V57.48c0-.17,0-.39,0-.65s.18-.38.49-.36S55.1,56.61,55.08,56.8Z"/><path d="M60,56.82a4.12,4.12,0,0,1-.12.81,3.62,3.62,0,0,0-.13.81v3.31a3.77,3.77,0,0,0,.15.9.19.19,0,0,1-.17.12c-.49,0-.73-.23-.73-.7V56.56a.76.76,0,0,1,.37-.1.8.8,0,0,1,.38.1C60,56.63,60,56.72,60,56.82Zm.29-2.25q0,.51-.48.51a.79.79,0,0,1-.53-.21.63.63,0,0,1-.24-.48.45.45,0,0,1,.51-.51.74.74,0,0,1,.52.19A.63.63,0,0,1,60.33,54.57Z"/><path d="M65.83,62.76a.25.25,0,0,1-.24.16,1.27,1.27,0,0,1-.51-.21V61.8q0-5-1.24-5c-.25,0-.53.19-.83.57a5.46,5.46,0,0,0-1.14,3.55,5.73,5.73,0,0,0,.09.84,6.76,6.76,0,0,1,.08.83c0,.15-.1.22-.31.22-.38,0-.58-.31-.58-.94V58.48c0-.09,0-.22,0-.39s0-.3,0-.39a3.63,3.63,0,0,0,0-.57,5.44,5.44,0,0,1-.05-.55c0-.08.06-.17.19-.28a.56.56,0,0,1,.29-.16.46.46,0,0,1,.36.21c0,.65-.05,1-.05,1.14s0,.3,0,.44c.09,0,.21-.2.36-.5a3.62,3.62,0,0,1,.48-.78,1.06,1.06,0,0,1,.82-.42,1.77,1.77,0,0,1,.54.14,2,2,0,0,1,1.16,1,7.11,7.11,0,0,1,.58,3.13Z"/><path d="M71.35,53.61s-.06.38-.18,1a19.47,19.47,0,0,0-.34,3v3.1A4.47,4.47,0,0,0,71,62.34l.12.15a.32.32,0,0,1,.1.19c0,.17-.08.26-.25.26a1.46,1.46,0,0,1-.62-.2,1.14,1.14,0,0,1-.12-.49V55.51L70,55.33V55a7.06,7.06,0,0,1,.26-1.35c.18-.72.32-1.08.43-1.08s.31.14.46.42A1.37,1.37,0,0,1,71.35,53.61Z"/><path d="M78.69,56.29a8,8,0,0,1-1,3.81,9.26,9.26,0,0,1-1.12,1.62c-.6.72-1.1,1.08-1.49,1.08a1.31,1.31,0,0,1-.58-.18c-.26-.14-.39-.28-.39-.43s.09-.3.27-.3a.44.44,0,0,1,.24.12.44.44,0,0,0,.24.12c.37,0,.87-.47,1.51-1.41a8.06,8.06,0,0,0,1.07-2l.19-.6A4.36,4.36,0,0,1,75,59.34a2.93,2.93,0,0,1-1.52-.41,2.67,2.67,0,0,1-1-1.17,3.4,3.4,0,0,1-.24-1.42,4.45,4.45,0,0,1,.83-2.75,2.94,2.94,0,0,1,2.5-1.2,2.72,2.72,0,0,1,2.36,1.25A4.57,4.57,0,0,1,78.69,56.29Zm-.75.08a4.66,4.66,0,0,0-.53-2.24A1.94,1.94,0,0,0,75.63,53a2.27,2.27,0,0,0-1.95,1.21A4.33,4.33,0,0,0,73,56.49a2.4,2.4,0,0,0,.54,1.6,1.91,1.91,0,0,0,1.53.69,3.34,3.34,0,0,0,1.55-.66A3,3,0,0,0,77.82,57,1.68,1.68,0,0,0,77.94,56.37Z"/><path d="M81,53.61s-.06.38-.18,1a19.76,19.76,0,0,0-.35,3v3.1a4.47,4.47,0,0,0,.15,1.55l.12.15a.35.35,0,0,1,.11.19.23.23,0,0,1-.26.26,1.43,1.43,0,0,1-.61-.2,1.14,1.14,0,0,1-.12-.49V55.51l-.24-.18V55a6.77,6.77,0,0,1,.25-1.35c.18-.72.33-1.08.44-1.08s.3.14.46.42A1.49,1.49,0,0,1,81,53.61Z"/><path d="M90.81,59.91,90.7,60a9.7,9.7,0,0,0-1.84-.12c-.25,0-.41,0-.48.16a1.06,1.06,0,0,0-.11.57,6.49,6.49,0,0,0,.15,1.73s0,.1.11.21a.52.52,0,0,1,.1.22.61.61,0,0,1-.1.26h-.48c-.08,0-.19-.09-.33-.26a.74.74,0,0,1-.21-.39.54.54,0,0,1,0-.18.76.76,0,0,0,0-.19c0-.16,0-.41,0-.74s0-.57,0-.73c0-.36-.06-.54-.17-.54a14.77,14.77,0,0,0-2,.19,15.43,15.43,0,0,1-2,.2,2,2,0,0,1-1-.33c-.41-.25-.62-.5-.62-.74s.3-.75.91-1.34l1.32-1.15c.73-.64,1.8-1.64,3.21-3l.6-.77a1.08,1.08,0,0,1,.8-.46.59.59,0,0,1,.41.16.49.49,0,0,1,.19.39,2,2,0,0,1-.12.49c-.1.33-.16.51-.17.54,0,.22-.19,1.09-.42,2.62A19.16,19.16,0,0,0,88.35,59a.32.32,0,0,0,.13.27h.89c.77,0,1.25.14,1.44.43ZM88,54.61h-.16A24,24,0,0,0,85,56.79q-2.13,1.85-2.13,2.4c0,.3.19.44.56.43h.06l4.06-.33Z"/><path d="M95.58,56.82a3.62,3.62,0,0,1-.13.81,4.32,4.32,0,0,0-.13.81v3.31a3.77,3.77,0,0,0,.15.9.18.18,0,0,1-.16.12c-.49,0-.74-.23-.74-.7V56.56a.8.8,0,0,1,.38-.1.76.76,0,0,1,.37.1C95.49,56.63,95.58,56.72,95.58,56.82Zm.28-2.25q0,.51-.48.51a.77.77,0,0,1-.52-.21.63.63,0,0,1-.24-.48.45.45,0,0,1,.51-.51.76.76,0,0,1,.52.19A.66.66,0,0,1,95.86,54.57Z"/><path d="M101.37,62.76a.26.26,0,0,1-.24.16,1.21,1.21,0,0,1-.51-.21V61.8q0-5-1.24-5-.39,0-.84.57a5.51,5.51,0,0,0-1.13,3.55,7.07,7.07,0,0,0,.08.84,5.21,5.21,0,0,1,.08.83c0,.15-.1.22-.3.22-.39,0-.58-.31-.58-.94V58.48c0-.09,0-.22,0-.39s0-.3,0-.39a5.49,5.49,0,0,0,0-.57,3.85,3.85,0,0,1-.06-.55c0-.08.07-.17.19-.28a.6.6,0,0,1,.29-.16.46.46,0,0,1,.36.21c0,.65,0,1,0,1.14s0,.3,0,.44c.09,0,.21-.2.36-.5a3.62,3.62,0,0,1,.48-.78,1.08,1.08,0,0,1,.83-.42,1.77,1.77,0,0,1,.54.14,2,2,0,0,1,1.15,1,7.1,7.1,0,0,1,.59,3.13Z"/><path d="M108.42,58a1.45,1.45,0,0,1-.57.15,2.53,2.53,0,0,0-.57.1c0,.11,0,.67,0,1.67,0,.78,0,1.3,0,1.57a3.08,3.08,0,0,0,.08.53,2.81,2.81,0,0,1,.07.55.33.33,0,0,1-.15.24.45.45,0,0,1-.27.12c-.2,0-.36-.2-.48-.61a3.36,3.36,0,0,1-.12-.86V58.3s-.28,0-.67,0-.47-.07-.47-.34.41-.56,1.22-.53l.19-2.71a.5.5,0,0,0,0-.14.41.41,0,0,1,0-.15c0-.06,0-.11.12-.17a.44.44,0,0,1,.28-.07c.35,0,.53.21.53.53a9.07,9.07,0,0,1-.11,1.12,8.65,8.65,0,0,0-.1,1.11,2,2,0,0,0,0,.35l.82,0q.42,0,.42.33A.44.44,0,0,1,108.42,58Z"/><path d="M113.17,63.09a.62.62,0,0,1-.45.12.5.5,0,0,1-.34-.21V60.94c0-2.54-.42-3.81-1.27-3.81a1,1,0,0,0-.89.63,2.17,2.17,0,0,0-.31,1.11,1.08,1.08,0,0,1,0,.19.63.63,0,0,0,0,.19v1.92a4.06,4.06,0,0,0,.08.73,7,7,0,0,1,.07.72q0,.24-.36.24a.52.52,0,0,1-.43-.24.86.86,0,0,1-.17-.49l.09-9.24a.57.57,0,0,1,0-.18q0-.27.3-.27a.93.93,0,0,1,.44.2c.2.14.3.25.3.34a5.21,5.21,0,0,1-.15,1,5.81,5.81,0,0,0-.14,1s0,.69,0,2a1.55,1.55,0,0,1,.85-.49,3.07,3.07,0,0,1,1.16.28c.87.36,1.3,1.31,1.3,2.85Z"/><path d="M118.42,61.2c0,.44-.29.83-.88,1.18a2.92,2.92,0,0,1-1.5.48q-2,0-2-2.55a7.76,7.76,0,0,1,.41-2.41q.53-1.68,1.38-1.68a2.52,2.52,0,0,1,1.57.73,2,2,0,0,1,.85,1.44,2.14,2.14,0,0,1-.75,1.62,2.43,2.43,0,0,1-1.69.69,1.14,1.14,0,0,1-.38-.15,1.18,1.18,0,0,0-.4-.15c-.13,0-.19,0-.19.12,0,1.15.37,1.73,1.13,1.73a1.69,1.69,0,0,0,1.08-.39,3.59,3.59,0,0,0,.66-.71c.2-.25.32-.37.38-.37C118.31,60.78,118.42,60.92,118.42,61.2Zm-1-2.76a1.74,1.74,0,0,0-.3-1,.91.91,0,0,0-.8-.46,1.12,1.12,0,0,0-1,.75,2.87,2.87,0,0,0-.32,1.3,1,1,0,0,0,.28.73.92.92,0,0,0,.71.29,1.25,1.25,0,0,0,1-.52A1.81,1.81,0,0,0,117.39,58.44Z"/><path d="M46.87,72.15a14,14,0,0,1-.29,2.67,5.19,5.19,0,0,1-.92,2.43A2.25,2.25,0,0,1,44,78a2.68,2.68,0,0,1-1.79-.54,3,3,0,0,1-1-1.92,17.11,17.11,0,0,1-.09-2.25c0-.49,0-1.22.09-2.2s.09-1.7.09-2.18a1.18,1.18,0,0,0-.09-.38,1.26,1.26,0,0,1-.09-.37c0-.1.08-.21.25-.32a.77.77,0,0,1,.41-.16,2.23,2.23,0,0,0,.51,0c.13,0,.19.15.17.35s-.15.65-.23,1.1c-.19,1.85-.29,3-.29,3.42v2a4,4,0,0,0,.39,1.82,1.55,1.55,0,0,0,1.42,1c1.05,0,1.76-1,2.13-3A25.69,25.69,0,0,0,46.12,70l0-.63a4.45,4.45,0,0,0,0-.66,1.65,1.65,0,0,0-.15-.59,1.77,1.77,0,0,1-.12-.28.74.74,0,0,1,.11-.34.35.35,0,0,1,.27-.19.74.74,0,0,1,.39.15c.16.09.24.19.24.29Z"/><path d="M52.52,77.76a.26.26,0,0,1-.24.16,1.27,1.27,0,0,1-.51-.21V76.8q0-5-1.24-5c-.26,0-.54.19-.83.57a5.46,5.46,0,0,0-1.14,3.55,7.07,7.07,0,0,0,.08.84,5.49,5.49,0,0,1,.09.83c0,.15-.11.22-.31.22-.39,0-.58-.31-.58-.94V73.48c0-.09,0-.22,0-.39s0-.3,0-.39a5.49,5.49,0,0,0,0-.57,3.51,3.51,0,0,1,0-.55c0-.08.06-.17.18-.28a.62.62,0,0,1,.3-.16.49.49,0,0,1,.36.21c0,.65,0,1,0,1.14s0,.3,0,.44c.09,0,.2-.2.36-.5a3,3,0,0,1,.48-.78,1.06,1.06,0,0,1,.82-.42,1.77,1.77,0,0,1,.54.14,2,2,0,0,1,1.16,1,7.11,7.11,0,0,1,.58,3.13Z"/><path d="M54.59,71.82a3.62,3.62,0,0,1-.13.81,4.12,4.12,0,0,0-.12.81v3.31a3.77,3.77,0,0,0,.15.9.19.19,0,0,1-.17.12c-.49,0-.73-.23-.73-.7V71.56a.76.76,0,0,1,.37-.1.8.8,0,0,1,.38.1C54.51,71.63,54.59,71.72,54.59,71.82Zm.29-2.25q0,.51-.48.51a.79.79,0,0,1-.53-.21.63.63,0,0,1-.24-.48.45.45,0,0,1,.51-.51.76.76,0,0,1,.52.19A.67.67,0,0,1,54.88,69.57Z"/><path d="M58.15,73a1.45,1.45,0,0,1-.57.15,2.53,2.53,0,0,0-.57.1c0,.11,0,.67,0,1.67,0,.78,0,1.3,0,1.57a3.08,3.08,0,0,0,.08.53,2.81,2.81,0,0,1,.07.55.33.33,0,0,1-.15.24.45.45,0,0,1-.27.12c-.2,0-.36-.2-.48-.61a3.36,3.36,0,0,1-.12-.86V73.3c-.06,0-.28,0-.67,0S55,73.23,55,73s.41-.56,1.22-.53l.19-2.71a.33.33,0,0,0,0-.14.64.64,0,0,1,0-.15c0-.06,0-.11.12-.17a.44.44,0,0,1,.28-.07c.35,0,.53.21.53.53a9.07,9.07,0,0,1-.11,1.12,8.65,8.65,0,0,0-.1,1.11,2,2,0,0,0,0,.35l.82,0q.42,0,.42.33A.44.44,0,0,1,58.15,73Z"/><path d="M62.93,76.2c0,.44-.29.83-.88,1.18a2.92,2.92,0,0,1-1.5.48q-2,0-2-2.55a8,8,0,0,1,.4-2.41q.54-1.68,1.38-1.68A2.52,2.52,0,0,1,61.9,72a2,2,0,0,1,.85,1.44A2.14,2.14,0,0,1,62,75a2.43,2.43,0,0,1-1.69.69,1.24,1.24,0,0,1-.39-.15,1.09,1.09,0,0,0-.39-.15c-.13,0-.2,0-.2.12,0,1.15.38,1.73,1.14,1.73a1.71,1.71,0,0,0,1.08-.39,3.59,3.59,0,0,0,.66-.71c.19-.25.32-.37.38-.37C62.82,75.78,62.93,75.92,62.93,76.2Zm-1-2.76a1.74,1.74,0,0,0-.3-1,.91.91,0,0,0-.8-.46c-.4,0-.72.25-1,.75a2.87,2.87,0,0,0-.32,1.3,1,1,0,0,0,.28.73.91.91,0,0,0,.71.29,1.23,1.23,0,0,0,1-.52A1.76,1.76,0,0,0,61.9,73.44Z"/><path d="M68.36,68.15a5.55,5.55,0,0,1-.09.88c-.07.47-.11.77-.13.89q0,.47-.15,3.09c-.06,1.6-.09,2.49-.09,2.66a6.36,6.36,0,0,0,.28,2.27.31.31,0,0,1-.27.16.58.58,0,0,1-.34-.15.67.67,0,0,1-.23-.3,6.93,6.93,0,0,0-.09-.91,2.35,2.35,0,0,1-1.69,1.12,1.73,1.73,0,0,1-1.5-.73,2.82,2.82,0,0,1-.45-1.67,8,8,0,0,1,.46-2.61q.6-1.77,1.59-1.77a1.48,1.48,0,0,1,.86.32c.06,0,.29.25.7.63a40.4,40.4,0,0,0,.15-4.49.38.38,0,0,1,.29-.1.72.72,0,0,1,.7.71Zm-1.12,5.54a2.33,2.33,0,0,0-.3-1.18,1.1,1.1,0,0,0-1-.63q-.75,0-1.2,1.53a7.29,7.29,0,0,0-.36,2.17,2.83,2.83,0,0,0,.21,1.14.91.91,0,0,0,.86.63c.61,0,1.09-.48,1.4-1.44A6.47,6.47,0,0,0,67.24,73.69Z"/><path d="M78.33,76.41c0,.56-.34,1-1,1.29a4.47,4.47,0,0,1-1.79.36,6,6,0,0,1-1.94-.36c-.9-.31-1.35-.7-1.35-1.16a.32.32,0,0,1,.36-.37,1.08,1.08,0,0,1,.66.33c.35.33.54.5.57.52a3.45,3.45,0,0,0,1.85.38q1.71,0,1.71-.9c0-.28-.25-.63-.74-1l-1.12-.81a15.73,15.73,0,0,1-2-1.59,3.3,3.3,0,0,1-.94-2.34,3.87,3.87,0,0,1,.7-2.25,2.32,2.32,0,0,1,2-1.14,2.18,2.18,0,0,1,1.72.86A3.83,3.83,0,0,1,77.74,70a7.56,7.56,0,0,0,.12,1.1l.12.54c0,.8-.2,1.2-.59,1.2a.46.46,0,0,1-.31-.17.54.54,0,0,1-.15-.33,2.89,2.89,0,0,1,.08-.61,3.86,3.86,0,0,0,.08-.62,4.74,4.74,0,0,0-.33-1.83,1.41,1.41,0,0,0-1.31-1.08A1.77,1.77,0,0,0,74,69a2.71,2.71,0,0,0-.59,1.68A3.13,3.13,0,0,0,74.69,73l2.37,1.73C77.91,75.35,78.33,75.91,78.33,76.41Z"/><path d="M82.15,73a1.45,1.45,0,0,1-.57.15,2.53,2.53,0,0,0-.57.1c0,.11,0,.67,0,1.67,0,.78,0,1.3,0,1.57a3.08,3.08,0,0,0,.08.53,2.81,2.81,0,0,1,.07.55.33.33,0,0,1-.15.24.45.45,0,0,1-.27.12c-.2,0-.36-.2-.48-.61a3.36,3.36,0,0,1-.12-.86V73.3c-.06,0-.28,0-.67,0S79,73.23,79,73s.41-.56,1.22-.53l.19-2.71a.33.33,0,0,0,0-.14.64.64,0,0,1,0-.15c0-.06,0-.11.12-.17a.44.44,0,0,1,.28-.07c.35,0,.53.21.53.53a9.07,9.07,0,0,1-.11,1.12,8.65,8.65,0,0,0-.1,1.11,2,2,0,0,0,0,.35l.82,0q.42,0,.42.33A.44.44,0,0,1,82.15,73Z"/><path d="M87,78.12c0,.14-.12.21-.33.21a.39.39,0,0,1-.44-.3,4.53,4.53,0,0,1,0-.59.55.55,0,0,0,0-.24,3,3,0,0,1-1.81.62A2.54,2.54,0,0,1,83,77.44a1.22,1.22,0,0,1-.72-1c0-.41.29-.81.86-1.2a2.56,2.56,0,0,1,1.44-.54h1.48a.43.43,0,0,0,.09-.31A5.7,5.7,0,0,0,86,72.82,1.06,1.06,0,0,0,84.92,72a1.32,1.32,0,0,0-1,.72A2.3,2.3,0,0,0,83.44,74v.16a.11.11,0,0,1-.12.12.48.48,0,0,1-.33-.18.48.48,0,0,1-.18-.31,3,3,0,0,1,.25-1.06,3.1,3.1,0,0,1,.56-1,1.19,1.19,0,0,1,.92-.4,2.56,2.56,0,0,1,1.58.54,1.77,1.77,0,0,1,.78,1.41Zm-.8-2.39q0-.6-.93-.6a3.06,3.06,0,0,0-1.29.26,1.05,1.05,0,0,0-.7,1,.7.7,0,0,0,.37.63,1.39,1.39,0,0,0,.75.19,2,2,0,0,0,1.22-.42A1.25,1.25,0,0,0,86.15,75.73Z"/><path d="M90.56,73a1.45,1.45,0,0,1-.57.15,2.53,2.53,0,0,0-.57.1c0,.11,0,.67,0,1.67,0,.78,0,1.3,0,1.57a2.83,2.83,0,0,0,.07.53,3,3,0,0,1,.08.55.36.36,0,0,1-.15.24.45.45,0,0,1-.27.12c-.2,0-.36-.2-.48-.61a3.36,3.36,0,0,1-.12-.86V73.3a1.36,1.36,0,0,0-.68,0c-.31,0-.46-.07-.46-.34s.4-.56,1.21-.53l.2-2.71a.63.63,0,0,0,0-.14.41.41,0,0,1,0-.15c0-.06,0-.11.12-.17a.47.47,0,0,1,.29-.07.49.49,0,0,1,.52.53,8.63,8.63,0,0,1-.1,1.12A9.13,9.13,0,0,0,89.48,72a2,2,0,0,0,0,.35l.83,0q.42,0,.42.33A.44.44,0,0,1,90.56,73Z"/><path d="M95.35,76.2c0,.44-.3.83-.89,1.18a2.92,2.92,0,0,1-1.5.48q-2,0-2-2.55a8.07,8.07,0,0,1,.41-2.41q.54-1.68,1.38-1.68a2.5,2.5,0,0,1,1.57.73,2,2,0,0,1,.86,1.44A2.14,2.14,0,0,1,94.42,75a2.45,2.45,0,0,1-1.7.69,1.14,1.14,0,0,1-.38-.15,1.18,1.18,0,0,0-.4-.15c-.13,0-.19,0-.19.12,0,1.15.38,1.73,1.14,1.73A1.71,1.71,0,0,0,94,76.86a3.59,3.59,0,0,0,.66-.71c.19-.25.31-.37.37-.37C95.23,75.78,95.35,75.92,95.35,76.2Zm-1-2.76a1.74,1.74,0,0,0-.3-1,.9.9,0,0,0-.79-.46,1.12,1.12,0,0,0-1,.75,2.86,2.86,0,0,0-.31,1.3,1,1,0,0,0,.27.73.94.94,0,0,0,.72.29,1.23,1.23,0,0,0,1-.52A1.75,1.75,0,0,0,94.31,73.44Z"/><path d="M100.39,76.81c0,.35-.27.65-.8.89a3.18,3.18,0,0,1-1.27.28,2.7,2.7,0,0,1-.93-.19,4.41,4.41,0,0,1-.92-.64c-.46-.37-.69-.63-.69-.77,0-.31.19-.45.56-.42h.09c0,.3.34.63,1,1a2.89,2.89,0,0,0,1.35.49q.66,0,.66-.45,0-.27-.81-.75a8.71,8.71,0,0,1-1.52-1,2.47,2.47,0,0,1-.82-1.84,2.91,2.91,0,0,1,.4-1.48A1.35,1.35,0,0,1,97.82,71a2.35,2.35,0,0,1,1.23.48,1.77,1.77,0,0,1,.84,1,3.3,3.3,0,0,1,.12.94,4.43,4.43,0,0,1-.21,1.28.48.48,0,0,1-.31.1.94.94,0,0,1-.33-.08c-.15,0-.23-.11-.23-.17s.06-.07.17-.33a2.45,2.45,0,0,0,.12-.93c0-1.07-.34-1.61-1-1.61-.35,0-.63.24-.84.71a2.69,2.69,0,0,0-.27,1.16A1.91,1.91,0,0,0,98,75a18.34,18.34,0,0,0,1.57,1C100.1,76.34,100.39,76.61,100.39,76.81Z"/><path d="M102.46,77.37c0,.14-.1.26-.29.36a1,1,0,0,1-.46.12.63.63,0,0,1-.45-.18.56.56,0,0,1-.2-.42.46.46,0,0,1,.53-.51,1.14,1.14,0,0,1,.58.17A.53.53,0,0,1,102.46,77.37Z"/></g></g></g></svg>