<svg xmlns="http://www.w3.org/2000/svg" viewBox="0 0 169.67 119.08"><defs><style>.cls-1{fill:#fff;}.cls-2{fill:none;stroke:#af4758;stroke-miterlimit:10;stroke-width:2.31px;}</style></defs><title>5</title><g id="Layer_2" data-name="Layer 2"><g id="Facts"><g id="_5" data-name="5"><path class="cls-1" d="M168.51,59.54c0,2.35-3,4.43-3.36,6.71s1.67,5.25.89,7.44-4.25,3.18-5.37,5.24,0,5.47-1.42,7.37-5,1.84-6.61,3.56-1.37,5.27-3.18,6.8-5.28.7-7.23,2c-2.35,1.63-3.4,5.52-6,6.94s-6.37.15-9.11,1.31-4.43,4.73-7.27,5.64-6.3-1-9.19-.34-5.17,3.92-8.11,4.36-6.07-2-9-1.78-5.7,3.09-8.67,3.09-5.78-2.88-8.67-3.09-6.17,2.21-9,1.78-5.29-3.71-8.1-4.36-6.45,1.22-9.2.34-4.61-4.52-7.26-5.64-6.59.06-9.11-1.31-3.67-5.31-6-6.94c-1.94-1.35-5.48-.57-7.22-2S18.6,91.52,17,89.86s-5.25-1.72-6.61-3.56S10.09,81,9,78.93s-4.6-3.06-5.38-5.24,1.29-5.15.89-7.44-3.35-4.36-3.35-6.71,3-4.43,3.35-6.71-1.67-5.24-.89-7.44S7.88,42.22,9,40.15s0-5.47,1.42-7.37,5-1.84,6.61-3.56S18.4,24,20.2,22.42s5.29-.7,7.23-2c2.36-1.64,3.4-5.53,6-6.95s6.36-.14,9.11-1.3S47,7.39,49.83,6.48s6.3,1,9.2.34,5.17-3.92,8.1-4.36,6.07,2,9,1.78,5.71-3.08,8.67-3.08S90.62,4,93.5,4.24s6.18-2.21,9-1.78,5.29,3.71,8.1,4.36,6.46-1.22,9.2-.34,4.62,4.53,7.27,5.65,6.58-.07,9.11,1.3,3.67,5.31,6,7c2,1.34,5.48.56,7.23,2s1.6,5.14,3.18,6.8,5.25,1.72,6.61,3.56.32,5.35,1.42,7.37,4.6,3.06,5.37,5.24-1.29,5.15-.89,7.44S168.51,57.19,168.51,59.54Z"/><path class="cls-2" d="M168.51,59.54c0,2.35-3,4.43-3.36,6.71s1.67,5.25.89,7.44-4.25,3.18-5.37,5.24,0,5.47-1.42,7.37-5,1.84-6.61,3.56-1.37,5.27-3.18,6.8-5.28.7-7.23,2c-2.35,1.63-3.4,5.52-6,6.94s-6.37.15-9.11,1.31-4.43,4.73-7.27,5.64-6.3-1-9.19-.34-5.17,3.92-8.11,4.36-6.07-2-9-1.78-5.7,3.09-8.67,3.09-5.78-2.88-8.67-3.09-6.17,2.21-9,1.78-5.29-3.71-8.1-4.36-6.45,1.22-9.2.34-4.61-4.52-7.26-5.64-6.59.06-9.11-1.31-3.67-5.31-6-6.94c-1.94-1.35-5.48-.57-7.22-2S18.6,91.52,17,89.86s-5.25-1.72-6.61-3.56S10.09,81,9,78.93s-4.6-3.06-5.38-5.24,1.29-5.15.89-7.44-3.35-4.36-3.35-6.71,3-4.43,3.35-6.71-1.67-5.24-.89-7.44S7.88,42.22,9,40.15s0-5.47,1.42-7.37,5-1.84,6.61-3.56S18.4,24,20.2,22.42s5.29-.7,7.23-2c2.36-1.64,3.4-5.53,6-6.95s6.36-.14,9.11-1.3S47,7.39,49.83,6.48s6.3,1,9.2.34,5.17-3.92,8.1-4.36,6.07,2,9,1.78,5.71-3.08,8.67-3.08S90.62,4,93.5,4.24s6.18-2.21,9-1.78,5.29,3.71,8.1,4.36,6.46-1.22,9.2-.34,4.62,4.53,7.27,5.65,6.58-.07,9.11,1.3,3.67,5.31,6,7c2,1.34,5.48.56,7.23,2s1.6,5.14,3.18,6.8,5.25,1.72,6.61,3.56.32,5.35,1.42,7.37,4.6,3.06,5.37,5.24-1.29,5.15-.89,7.44S168.51,57.19,168.51,59.54Z"/><path d="M60.9,32.56c0,.29-.1.44-.3.44l-.39-.19a3.86,3.86,0,0,0-1.35-.14h-.79c-.28,0-.46,0-.53.13a1.38,1.38,0,0,0-.17.59c0,.31-.11.77-.2,1.38a46.75,46.75,0,0,0-.33,5.72,6.38,6.38,0,0,0,.49,3q0,.24-.18.24-.91,0-1.17-1.05A8.72,8.72,0,0,1,55.87,41c0-1.31,0-2.29.09-3,0-.31.08-1.05.19-2.2a21.06,21.06,0,0,0,.14-2.21c0-.66,0-.82,0-.49,0-.17-.09-.26-.23-.26a5.31,5.31,0,0,0-.93.12,5.78,5.78,0,0,1-.94.13.88.88,0,0,1-.91-.56q.18-.3,2.61-.6c1.35-.15,2.34-.23,3-.23C60.22,31.72,60.9,32,60.9,32.56Z"/><path d="M66.5,44a.78.78,0,0,1-.53.14.58.58,0,0,1-.4-.25v-2.4c0-3-.49-4.44-1.48-4.44a1.2,1.2,0,0,0-1,.73,2.52,2.52,0,0,0-.37,1.3.79.79,0,0,1,0,.22.91.91,0,0,0,0,.22v2.24a5.83,5.83,0,0,0,.09.85,6,6,0,0,1,.09.84c0,.19-.14.28-.42.28a.58.58,0,0,1-.5-.28,1,1,0,0,1-.2-.58l.1-10.77a.76.76,0,0,1,0-.21c0-.21.12-.32.35-.32a1.07,1.07,0,0,1,.52.24c.22.16.34.29.34.39a6.44,6.44,0,0,1-.17,1.21,6.58,6.58,0,0,0-.17,1.2s0,.8,0,2.33a1.82,1.82,0,0,1,1-.57,3.56,3.56,0,0,1,1.34.33c1,.42,1.53,1.53,1.53,3.32Z"/><path d="M72.62,41.75c0,.51-.34,1-1,1.38a3.35,3.35,0,0,1-1.75.56c-1.56,0-2.35-1-2.35-3A9.27,9.27,0,0,1,68,37.9c.42-1.31,1-2,1.61-2a2.91,2.91,0,0,1,1.83.85,2.32,2.32,0,0,1,1,1.69,2.51,2.51,0,0,1-.87,1.89,2.85,2.85,0,0,1-2,.8,1.27,1.27,0,0,1-.45-.17,1.26,1.26,0,0,0-.46-.18c-.15,0-.23,0-.23.14,0,1.35.45,2,1.33,2A2,2,0,0,0,71,42.52a3.88,3.88,0,0,0,.77-.82c.22-.29.37-.44.44-.44C72.49,41.26,72.62,41.42,72.62,41.75Zm-1.21-3.22a2,2,0,0,0-.35-1.14,1.05,1.05,0,0,0-.92-.54,1.29,1.29,0,0,0-1.14.88,3.28,3.28,0,0,0-.37,1.52,1.18,1.18,0,0,0,.33.85,1.11,1.11,0,0,0,.83.34A1.48,1.48,0,0,0,71,39.83,2.07,2.07,0,0,0,71.41,38.53Z"/><path d="M81.83,44a.78.78,0,0,1-.53.14.58.58,0,0,1-.4-.25v-2.4c0-3-.49-4.44-1.48-4.44a1.2,1.2,0,0,0-1,.73A2.52,2.52,0,0,0,78,39a.79.79,0,0,1,0,.22.91.91,0,0,0,0,.22v2.24a5.83,5.83,0,0,0,.09.85,6,6,0,0,1,.09.84c0,.19-.14.28-.42.28a.58.58,0,0,1-.5-.28,1,1,0,0,1-.2-.58l.1-10.77a.76.76,0,0,1,0-.21c0-.21.12-.32.35-.32a1.07,1.07,0,0,1,.52.24c.22.16.34.29.34.39a6.44,6.44,0,0,1-.17,1.21,6.58,6.58,0,0,0-.17,1.2s0,.8,0,2.33a1.82,1.82,0,0,1,1-.57,3.56,3.56,0,0,1,1.34.33c1,.42,1.53,1.53,1.53,3.32Z"/><path d="M88.37,40a5.07,5.07,0,0,1-.66,2.62A2.44,2.44,0,0,1,85.52,44a2.35,2.35,0,0,1-2.12-1.1,4.54,4.54,0,0,1-.58-2.42,7,7,0,0,1,.67-2.92q.84-1.77,2.13-1.77a2,2,0,0,1,.95.39A4.16,4.16,0,0,1,88.37,40Zm-.84,0a6.25,6.25,0,0,0-.3-2c-.29-.83-.74-1.25-1.34-1.25s-1.25.46-1.65,1.39a5.81,5.81,0,0,0-.45,2.29,4.8,4.8,0,0,0,.31,1.85,1.51,1.51,0,0,0,1.42,1,1.72,1.72,0,0,0,1.59-1.19A5.11,5.11,0,0,0,87.53,40Z"/><path d="M90.68,43.31c0,.3-.16.45-.49.45-.51,0-.76-1-.75-3.16l0-7.86a5,5,0,0,0,0-.55,3.31,3.31,0,0,1,0-.54,1,1,0,0,1,.56-.24.91.91,0,0,1,.49.17.52.52,0,0,1,.24.42,1.59,1.59,0,0,1-.09.46c-.07.23-.11.38-.12.44a20.19,20.19,0,0,0-.21,3.32c0,2.3,0,3.41,0,3.33a20,20,0,0,0,.28,3.23.9.9,0,0,0,.08.24A.67.67,0,0,1,90.68,43.31Z"/><path d="M93,36.64a4.54,4.54,0,0,1-.15,1,4.47,4.47,0,0,0-.15.94V42.4a4.24,4.24,0,0,0,.18,1.05.23.23,0,0,1-.2.14.74.74,0,0,1-.85-.82V36.34a.9.9,0,0,1,.43-.12.94.94,0,0,1,.44.12C92.86,36.43,93,36.52,93,36.64ZM93.29,34c0,.39-.19.59-.56.59a.91.91,0,0,1-.61-.24.73.73,0,0,1-.28-.56.53.53,0,0,1,.59-.6.89.89,0,0,1,.61.23A.73.73,0,0,1,93.29,34Z"/><path d="M99.71,32.35a6.51,6.51,0,0,1-.1,1c-.08.55-.14.89-.16,1,0,.36-.09,1.57-.17,3.61-.07,1.87-.11,2.91-.11,3.1a7.43,7.43,0,0,0,.33,2.65.35.35,0,0,1-.31.19.65.65,0,0,1-.4-.17.89.89,0,0,1-.27-.35,8,8,0,0,0-.1-1.07,2.74,2.74,0,0,1-2,1.31,2,2,0,0,1-1.75-.85,3.29,3.29,0,0,1-.52-2,9.34,9.34,0,0,1,.54-3c.46-1.38,1.08-2.07,1.85-2.07a1.74,1.74,0,0,1,1,.37c.07.05.34.29.82.74a45.89,45.89,0,0,0,.18-5.24.45.45,0,0,1,.33-.12.79.79,0,0,1,.58.25A.78.78,0,0,1,99.71,32.35ZM98.4,38.83a2.72,2.72,0,0,0-.35-1.38,1.28,1.28,0,0,0-1.14-.74c-.58,0-1,.6-1.4,1.79A8.47,8.47,0,0,0,95.09,41a3.16,3.16,0,0,0,.25,1.33,1.07,1.07,0,0,0,1,.74c.72,0,1.27-.56,1.64-1.68A7.86,7.86,0,0,0,98.4,38.83Z"/><path d="M105.63,44c0,.16-.13.25-.39.25a.46.46,0,0,1-.51-.35s0-.27,0-.69a.74.74,0,0,0,0-.28,3.52,3.52,0,0,1-2.12.72A2.88,2.88,0,0,1,101,43.2a1.43,1.43,0,0,1-.84-1.22c0-.48.34-.95,1-1.4a3,3,0,0,1,1.68-.63h1.74a.51.51,0,0,0,.1-.37,6.11,6.11,0,0,0-.19-1.77,1.24,1.24,0,0,0-1.25-1,1.53,1.53,0,0,0-1.22.84,2.66,2.66,0,0,0-.51,1.47v.19a.12.12,0,0,1-.14.14.59.59,0,0,1-.38-.21.57.57,0,0,1-.21-.37,3.4,3.4,0,0,1,.3-1.23,3.66,3.66,0,0,1,.64-1.13,1.41,1.41,0,0,1,1.09-.47,3,3,0,0,1,1.84.63,2.05,2.05,0,0,1,.9,1.64Zm-.93-2.78c0-.47-.36-.7-1.09-.7a3.52,3.52,0,0,0-1.5.3,1.22,1.22,0,0,0-.82,1.15.82.82,0,0,0,.43.74,1.67,1.67,0,0,0,.88.22,2.38,2.38,0,0,0,1.43-.49A1.47,1.47,0,0,0,104.7,41.21Z"/><path d="M112.22,36.62,112,38.16a7.83,7.83,0,0,0-.16,1.54v5.48a2.49,2.49,0,0,1-.71,1.86,2.57,2.57,0,0,1-1.9.7,3.72,3.72,0,0,1-1.45-.35,2.57,2.57,0,0,1-1.28-1,.61.61,0,0,1-.09-.31.44.44,0,0,1,.49-.51.43.43,0,0,1,.23.07c.2.21.4.42.6.61a2.13,2.13,0,0,0,1.5.55,1.54,1.54,0,0,0,1.54-.81,5.08,5.08,0,0,0,.23-1.84c0-.11,0-.35-.07-.7a3,3,0,0,1,0-.77,4.19,4.19,0,0,1-.7.58,1.53,1.53,0,0,1-.84.25,2,2,0,0,1-1.8-.93,3.61,3.61,0,0,1-.54-2c0-1.57,0-2.9.07-4a.56.56,0,0,1,.61-.56c.44,0,.64.08.6.23a14.67,14.67,0,0,0-.34,4.08c0,1.63.47,2.45,1.4,2.45.56,0,1-.44,1.35-1.32a5.41,5.41,0,0,0,.37-2v-2c0-.2,0-.45,0-.75s.21-.44.57-.42S112.25,36.4,112.22,36.62Z"/><path d="M45.21,52.9a12.66,12.66,0,0,1-.44,3.29c-.41,1.54-1,2.31-1.79,2.31a1.75,1.75,0,0,1-1.47-1.07l-.45-1.06-.07,0c-.16.47-.33.93-.51,1.4a1.17,1.17,0,0,1-1.1.81q-2.22,0-2.22-5.34c0-.82,0-1.46.07-1.93a.37.37,0,0,1,.31-.17,1,1,0,0,1,.46.15c.17.1.26.21.26.34a3.86,3.86,0,0,1-.11.71,3.31,3.31,0,0,0-.12.76c0,3,.39,4.55,1.18,4.55.5,0,.9-.57,1.2-1.72a8.18,8.18,0,0,0,.35-2.36V51.92c0-.24.14-.37.42-.37s.51.24.51.7a1.8,1.8,0,0,1,0,.27c0,.11,0,.2,0,.26v2.15a5.34,5.34,0,0,0,.26,1.61c.22.76.52,1.14.89,1.14s.92-.64,1.26-1.91a10.23,10.23,0,0,0,.39-2.57,3.74,3.74,0,0,0-.14-1.35l-.12-.16c-.09-.09-.13-.15-.13-.19a.55.55,0,0,1,.17-.37.51.51,0,0,1,.36-.17C45,51,45.21,51.61,45.21,52.9Z"/><path d="M51.23,59c0,.16-.13.25-.39.25a.46.46,0,0,1-.51-.35s0-.27,0-.69a.58.58,0,0,0-.06-.28,3.47,3.47,0,0,1-2.11.72,2.88,2.88,0,0,1-1.53-.44A1.41,1.41,0,0,1,45.78,57c0-.48.34-.95,1-1.4A3,3,0,0,1,48.46,55h1.73a.51.51,0,0,0,.11-.37,6.11,6.11,0,0,0-.19-1.77,1.24,1.24,0,0,0-1.25-1,1.53,1.53,0,0,0-1.22.84,2.66,2.66,0,0,0-.51,1.47v.19a.12.12,0,0,1-.14.14.59.59,0,0,1-.38-.21.57.57,0,0,1-.21-.37,3.57,3.57,0,0,1,.29-1.23,3.87,3.87,0,0,1,.65-1.13,1.41,1.41,0,0,1,1.09-.47,3,3,0,0,1,1.83.63,2,2,0,0,1,.91,1.64Zm-.93-2.78c0-.47-.36-.7-1.09-.7a3.52,3.52,0,0,0-1.5.3A1.22,1.22,0,0,0,46.89,57a.82.82,0,0,0,.43.74,1.67,1.67,0,0,0,.88.22,2.38,2.38,0,0,0,1.43-.49A1.47,1.47,0,0,0,50.3,56.21Z"/><path d="M57.47,57.47c0,.4-.3.75-.92,1a3.8,3.8,0,0,1-1.49.33A3,3,0,0,1,54,58.6a5.31,5.31,0,0,1-1.06-.74q-.81-.64-.81-.9c0-.36.22-.52.65-.49h.11c0,.35.39.74,1.11,1.15a3.45,3.45,0,0,0,1.58.57c.51,0,.77-.18.77-.53s-.31-.5-.94-.88a9.28,9.28,0,0,1-1.77-1.21,2.89,2.89,0,0,1-1-2.14,3.36,3.36,0,0,1,.47-1.73,1.57,1.57,0,0,1,1.36-1,2.84,2.84,0,0,1,1.44.55,2.12,2.12,0,0,1,1,1.12,4,4,0,0,1,.14,1.1A5,5,0,0,1,56.79,55a.56.56,0,0,1-.36.12A1.15,1.15,0,0,1,56,55c-.17-.06-.26-.13-.26-.2s.06-.08.19-.38a3,3,0,0,0,.14-1.09c0-1.25-.39-1.87-1.17-1.87-.41,0-.74.27-1,.82a3.18,3.18,0,0,0-.32,1.35,2.21,2.21,0,0,0,1,1.67,19.62,19.62,0,0,0,1.84,1.21C57.14,56.91,57.47,57.23,57.47,57.47Z"/><path d="M65.7,53a1.68,1.68,0,0,1-.67.18,2.31,2.31,0,0,0-.66.12c0,.13,0,.77,0,1.94,0,.91,0,1.52,0,1.84a4.05,4.05,0,0,0,.08.61,3.37,3.37,0,0,1,.09.65.39.39,0,0,1-.17.28.55.55,0,0,1-.32.14c-.23,0-.42-.24-.56-.72a4,4,0,0,1-.14-1V53.37q-.1-.09-.78,0c-.37.05-.55-.08-.55-.4s.47-.65,1.42-.61l.23-3.17a.68.68,0,0,0,0-.17.45.45,0,0,1,0-.16.26.26,0,0,1,.14-.2.46.46,0,0,1,.33-.08c.41,0,.61.24.61.61a10.54,10.54,0,0,1-.12,1.31,10.75,10.75,0,0,0-.12,1.3,2.6,2.6,0,0,0,0,.4l1-.05c.32,0,.49.13.49.38A.5.5,0,0,1,65.7,53Z"/><path d="M71.25,59a.78.78,0,0,1-.53.14.58.58,0,0,1-.4-.25v-2.4c0-3-.49-4.44-1.48-4.44a1.2,1.2,0,0,0-1,.73,2.52,2.52,0,0,0-.37,1.3.79.79,0,0,1,0,.22.91.91,0,0,0,0,.22v2.24a5.83,5.83,0,0,0,.09.85,6,6,0,0,1,.09.84c0,.19-.14.28-.42.28a.58.58,0,0,1-.5-.28,1,1,0,0,1-.2-.58l.1-10.77a.76.76,0,0,1,0-.21c0-.21.12-.32.35-.32a1.07,1.07,0,0,1,.52.24c.22.16.34.29.34.39a6.44,6.44,0,0,1-.17,1.21,6.58,6.58,0,0,0-.17,1.2s0,.8,0,2.33a1.82,1.82,0,0,1,1-.57,3.56,3.56,0,0,1,1.34.33c1,.42,1.53,1.53,1.53,3.32Z"/><path d="M77.37,56.75c0,.51-.34,1-1,1.38a3.35,3.35,0,0,1-1.75.56c-1.56,0-2.35-1-2.35-3a9.27,9.27,0,0,1,.48-2.82c.42-1.31,1-2,1.61-2a2.91,2.91,0,0,1,1.83.85,2.32,2.32,0,0,1,1,1.69,2.51,2.51,0,0,1-.87,1.89,2.85,2.85,0,0,1-2,.8,1.27,1.27,0,0,1-.45-.17,1.26,1.26,0,0,0-.46-.18c-.15,0-.23,0-.23.14,0,1.35.45,2,1.33,2a2,2,0,0,0,1.26-.46,3.88,3.88,0,0,0,.77-.82c.22-.29.37-.44.44-.44C77.24,56.26,77.37,56.42,77.37,56.75Zm-1.21-3.22a2,2,0,0,0-.35-1.14,1.05,1.05,0,0,0-.92-.54,1.29,1.29,0,0,0-1.14.88,3.28,3.28,0,0,0-.37,1.52,1.18,1.18,0,0,0,.33.85,1.11,1.11,0,0,0,.83.34,1.48,1.48,0,0,0,1.19-.61A2.07,2.07,0,0,0,76.16,53.53Z"/><path d="M83.71,58.57a.31.31,0,0,1-.28.19,1.49,1.49,0,0,1-.6-.24V57.45q0-5.81-1.44-5.81c-.31,0-.63.22-1,.67a6.4,6.4,0,0,0-1.32,4.14,7.61,7.61,0,0,0,.09,1,6.19,6.19,0,0,1,.1,1c0,.17-.12.26-.36.26-.45,0-.67-.37-.67-1.1v-4c0-.1,0-.25,0-.45a4.3,4.3,0,0,0,0-.46,5.25,5.25,0,0,0-.06-.66,5.29,5.29,0,0,1-.06-.65c0-.09.07-.2.22-.32a.59.59,0,0,1,.34-.19.53.53,0,0,1,.42.25c0,.76,0,1.2,0,1.33s0,.34,0,.51c.11,0,.25-.23.42-.58a4.67,4.67,0,0,1,.56-.91,1.24,1.24,0,0,1,1-.49,1.9,1.9,0,0,1,.63.16A2.27,2.27,0,0,1,83,52.27a8.23,8.23,0,0,1,.69,3.66Z"/><path d="M93.72,59c0,.16-.13.25-.39.25a.46.46,0,0,1-.51-.35s0-.27,0-.69a.74.74,0,0,0,0-.28,3.52,3.52,0,0,1-2.12.72,2.88,2.88,0,0,1-1.53-.44A1.43,1.43,0,0,1,88.27,57c0-.48.34-.95,1-1.4A3,3,0,0,1,91,55h1.73a.47.47,0,0,0,.11-.37,6.11,6.11,0,0,0-.19-1.77,1.24,1.24,0,0,0-1.25-1,1.53,1.53,0,0,0-1.22.84,2.66,2.66,0,0,0-.51,1.47v.19a.12.12,0,0,1-.14.14.59.59,0,0,1-.38-.21.57.57,0,0,1-.21-.37,3.57,3.57,0,0,1,.29-1.23,3.87,3.87,0,0,1,.65-1.13,1.41,1.41,0,0,1,1.09-.47,3,3,0,0,1,1.84.63,2.05,2.05,0,0,1,.9,1.64Zm-.93-2.78c0-.47-.36-.7-1.09-.7a3.52,3.52,0,0,0-1.5.3A1.22,1.22,0,0,0,89.38,57a.82.82,0,0,0,.43.74,1.67,1.67,0,0,0,.88.22,2.38,2.38,0,0,0,1.43-.49A1.47,1.47,0,0,0,92.79,56.21Z"/><path d="M100.31,47.35a6.51,6.51,0,0,1-.1,1c-.08.55-.13.89-.16,1,0,.36-.09,1.57-.17,3.61-.07,1.87-.11,2.91-.11,3.1a7.43,7.43,0,0,0,.33,2.65.35.35,0,0,1-.31.19.6.6,0,0,1-.39-.17.84.84,0,0,1-.28-.35,8,8,0,0,0-.1-1.07,2.74,2.74,0,0,1-2,1.31,2,2,0,0,1-1.75-.85,3.29,3.29,0,0,1-.52-2,9.34,9.34,0,0,1,.54-3c.47-1.38,1.08-2.07,1.85-2.07a1.74,1.74,0,0,1,1,.37c.07.05.35.29.82.74a45.89,45.89,0,0,0,.18-5.24.45.45,0,0,1,.33-.12.84.84,0,0,1,.82.82ZM99,53.83a2.62,2.62,0,0,0-.35-1.38,1.28,1.28,0,0,0-1.14-.74c-.58,0-1.05.6-1.4,1.79A8.47,8.47,0,0,0,95.69,56a3.32,3.32,0,0,0,.25,1.33,1.07,1.07,0,0,0,1,.74c.72,0,1.27-.56,1.64-1.68A7.86,7.86,0,0,0,99,53.83Z"/><path d="M106.23,59c0,.16-.13.25-.39.25a.45.45,0,0,1-.5-.35,4.26,4.26,0,0,1,0-.69.74.74,0,0,0,0-.28,3.52,3.52,0,0,1-2.12.72,2.84,2.84,0,0,1-1.52-.44,1.41,1.41,0,0,1-.84-1.22,1.83,1.83,0,0,1,1-1.4,3,3,0,0,1,1.68-.63h1.74a.51.51,0,0,0,.1-.37,6.11,6.11,0,0,0-.19-1.77,1.24,1.24,0,0,0-1.24-1,1.53,1.53,0,0,0-1.23.84,2.66,2.66,0,0,0-.51,1.47v.19a.12.12,0,0,1-.14.14.59.59,0,0,1-.38-.21.57.57,0,0,1-.21-.37,3.4,3.4,0,0,1,.3-1.23,3.66,3.66,0,0,1,.64-1.13,1.42,1.42,0,0,1,1.09-.47,3,3,0,0,1,1.84.63,2.09,2.09,0,0,1,.91,1.64Zm-.93-2.78c0-.47-.36-.7-1.08-.7a3.54,3.54,0,0,0-1.51.3,1.22,1.22,0,0,0-.82,1.15.81.81,0,0,0,.44.74,1.61,1.61,0,0,0,.87.22,2.38,2.38,0,0,0,1.43-.49A1.44,1.44,0,0,0,105.3,56.21Z"/><path d="M112.62,54.2a7.28,7.28,0,0,1-.51,2.9A2.27,2.27,0,0,1,110,58.73a2.11,2.11,0,0,1-1.68-.89c-.09,0-.13.39-.13,1.08a15.67,15.67,0,0,0,.23,3.22,2.66,2.66,0,0,0,.17.42,1.75,1.75,0,0,1,.15.4c0,.19-.12.28-.35.28a1.06,1.06,0,0,1-.59-.12,1.46,1.46,0,0,1-.29-.8,5.37,5.37,0,0,1-.1-.91V57c0-.41,0-1,.06-1.64s.07-1.36.08-1.65,0-.72,0-1.22V51.2q0-1.2.63-1.2c.21,0,.31.07.31.22s0,.72-.07,1.28-.07,1-.07,1.26h.07l.81-1.1a1.41,1.41,0,0,1,1.17-.61,1.92,1.92,0,0,1,1.77,1.05A4.18,4.18,0,0,1,112.62,54.2Zm-.88.07a5.8,5.8,0,0,0-.19-1.6c-.2-.65-.52-1-1-1s-.73.29-1.19.86a4.58,4.58,0,0,0-.86,1.54,9.76,9.76,0,0,0-.32,1.75c0,.56-.07.83-.07.81s.06.09.16.17l.21.16c.19.27.37.54.57.81a1,1,0,0,0,.86.41c.64,0,1.12-.52,1.44-1.57A7.71,7.71,0,0,0,111.74,54.27Z"/><path d="M116.59,53a1.74,1.74,0,0,1-.67.18,2.31,2.31,0,0,0-.66.12c0,.13,0,.77,0,1.94,0,.91,0,1.52,0,1.84a4.05,4.05,0,0,0,.08.61,3.37,3.37,0,0,1,.09.65.39.39,0,0,1-.17.28.58.58,0,0,1-.32.14c-.23,0-.42-.24-.56-.72a4,4,0,0,1-.14-1V53.37q-.11-.09-.78,0c-.37.05-.55-.08-.55-.4s.47-.65,1.42-.61l.23-3.17a.68.68,0,0,0,0-.17.45.45,0,0,1,0-.16.24.24,0,0,1,.14-.2.46.46,0,0,1,.33-.08c.41,0,.61.24.61.61a10.54,10.54,0,0,1-.12,1.31,10.75,10.75,0,0,0-.12,1.3,2.6,2.6,0,0,0,0,.4l1-.05c.32,0,.49.13.49.38A.5.5,0,0,1,116.59,53Z"/><path d="M122.17,56.75c0,.51-.34,1-1,1.38a3.35,3.35,0,0,1-1.75.56c-1.57,0-2.35-1-2.35-3a9.27,9.27,0,0,1,.48-2.82c.42-1.31,1-2,1.61-2a2.91,2.91,0,0,1,1.83.85,2.32,2.32,0,0,1,1,1.69,2.51,2.51,0,0,1-.87,1.89,2.85,2.85,0,0,1-2,.8,1.27,1.27,0,0,1-.45-.17,1.33,1.33,0,0,0-.46-.18c-.15,0-.23,0-.23.14,0,1.35.44,2,1.33,2a2,2,0,0,0,1.26-.46,4.16,4.16,0,0,0,.77-.82c.22-.29.37-.44.44-.44C122,56.26,122.17,56.42,122.17,56.75ZM121,53.53a2,2,0,0,0-.35-1.14,1.05,1.05,0,0,0-.92-.54,1.29,1.29,0,0,0-1.14.88,3.28,3.28,0,0,0-.37,1.52,1.21,1.21,0,0,0,.32.85,1.15,1.15,0,0,0,.84.34,1.48,1.48,0,0,0,1.19-.61A2.07,2.07,0,0,0,121,53.53Z"/><path d="M128.51,47.35a6.7,6.7,0,0,1-.11,1c-.08.55-.13.89-.16,1,0,.36-.09,1.57-.17,3.61-.07,1.87-.11,2.91-.11,3.1a7.16,7.16,0,0,0,.34,2.65A.37.37,0,0,1,128,59a.6.6,0,0,1-.39-.17.74.74,0,0,1-.27-.35,8.48,8.48,0,0,0-.11-1.07,2.74,2.74,0,0,1-2,1.31,2,2,0,0,1-1.75-.85,3.29,3.29,0,0,1-.52-2,9.34,9.34,0,0,1,.54-3q.7-2.07,1.86-2.07a1.74,1.74,0,0,1,1,.37c.07.05.35.29.83.74a49.52,49.52,0,0,0,.17-5.24.45.45,0,0,1,.33-.12.77.77,0,0,1,.58.25A.79.79,0,0,1,128.51,47.35Zm-1.32,6.48a2.62,2.62,0,0,0-.35-1.38,1.28,1.28,0,0,0-1.13-.74c-.59,0-1,.6-1.4,1.79a8.47,8.47,0,0,0-.42,2.53,3.33,3.33,0,0,0,.24,1.33,1.07,1.07,0,0,0,1,.74c.72,0,1.27-.56,1.64-1.68A7.86,7.86,0,0,0,127.19,53.83Z"/><path d="M43.91,66.64a4.54,4.54,0,0,1-.15,1,4.31,4.31,0,0,0-.14.94V72.4a4.14,4.14,0,0,0,.17,1,.22.22,0,0,1-.19.14c-.57,0-.86-.28-.86-.82V66.34a.94.94,0,0,1,.44-.12,1,1,0,0,1,.44.12C43.81,66.43,43.91,66.52,43.91,66.64ZM44.25,64a.51.51,0,0,1-.57.59.92.92,0,0,1-.61-.24.76.76,0,0,1-.28-.56.53.53,0,0,1,.6-.6.88.88,0,0,1,.6.23A.74.74,0,0,1,44.25,64Z"/><path d="M50.67,73.57a.31.31,0,0,1-.28.19,1.49,1.49,0,0,1-.6-.24V72.45q0-5.81-1.44-5.81c-.3,0-.63.22-1,.67a6.4,6.4,0,0,0-1.32,4.14,7.61,7.61,0,0,0,.09,1,6.19,6.19,0,0,1,.1,1c0,.17-.12.26-.35.26-.46,0-.68-.37-.68-1.1v-4a4.23,4.23,0,0,1,0-.45c0-.2,0-.35,0-.46a5.25,5.25,0,0,0-.06-.66,5.29,5.29,0,0,1-.06-.65c0-.09.07-.2.22-.32a.59.59,0,0,1,.34-.19.53.53,0,0,1,.42.25c0,.76-.05,1.2-.05,1.33a4.35,4.35,0,0,0,0,.51c.1,0,.24-.23.42-.58a3.86,3.86,0,0,1,.56-.91A1.23,1.23,0,0,1,48,66a1.9,1.9,0,0,1,.63.16A2.32,2.32,0,0,1,50,67.27a8.39,8.39,0,0,1,.68,3.66Z"/><path d="M54.73,68a1.8,1.8,0,0,1-.67.18,2.31,2.31,0,0,0-.66.12c0,.13,0,.77,0,1.94,0,.91,0,1.52,0,1.84a3.27,3.27,0,0,0,.09.61,3.37,3.37,0,0,1,.09.65.38.38,0,0,1-.18.28.53.53,0,0,1-.31.14c-.23,0-.42-.24-.56-.72a4,4,0,0,1-.14-1V68.37q-.1-.09-.78,0c-.37,0-.55-.08-.55-.4s.47-.65,1.42-.61l.22-3.17a.54.54,0,0,0,0-.17.45.45,0,0,1,0-.16.24.24,0,0,1,.14-.2.46.46,0,0,1,.33-.08c.41,0,.61.24.61.61a10.54,10.54,0,0,1-.12,1.31,10.75,10.75,0,0,0-.12,1.3,2.6,2.6,0,0,0,0,.4l1,0c.33,0,.49.13.49.38A.5.5,0,0,1,54.73,68Z"/><path d="M60.82,70a5,5,0,0,1-.67,2.62A2.42,2.42,0,0,1,58,74a2.34,2.34,0,0,1-2.12-1.1,4.45,4.45,0,0,1-.58-2.42,6.93,6.93,0,0,1,.66-2.92c.56-1.18,1.28-1.77,2.14-1.77a2,2,0,0,1,.94.39A4.15,4.15,0,0,1,60.82,70ZM60,70a6.25,6.25,0,0,0-.3-2c-.29-.83-.74-1.25-1.35-1.25s-1.25.46-1.64,1.39a5.65,5.65,0,0,0-.46,2.29,4.79,4.79,0,0,0,.32,1.85,1.49,1.49,0,0,0,1.42,1,1.73,1.73,0,0,0,1.59-1.19A5.11,5.11,0,0,0,60,70Z"/><path d="M73.42,73.61a1.27,1.27,0,0,1-.56.22.8.8,0,0,1-.35-.12V71.82q0-5.41-1.11-5.41-.66,0-1.14,1.68a8.82,8.82,0,0,0-.38,2.28v1.75a1.57,1.57,0,0,0,.08.39,1.6,1.6,0,0,1,.08.38.4.4,0,0,1-.19.28.63.63,0,0,1-.34.14.52.52,0,0,1-.35-.22.67.67,0,0,1-.19-.38V69.2a6.54,6.54,0,0,0-.19-1.42c-.16-.72-.36-1.09-.6-1.09s-.32.17-.57.49a6.49,6.49,0,0,0-1.32,4.13c0,.2,0,.5.07.89a7.31,7.31,0,0,1,.07.86c0,.35-.14.53-.43.53a.47.47,0,0,1-.37-.18,2.6,2.6,0,0,1-.16-.78,7.45,7.45,0,0,1-.09-.86V67.64c0-1.19.14-1.79.42-1.79a.55.55,0,0,1,.36.17.45.45,0,0,1,.19.34,5.74,5.74,0,0,1-.11,1c-.07.52-.11.84-.12,1l.09.08.66-1.5c.32-.64.69-1,1.12-1,.61,0,1.13.65,1.58,2A3.92,3.92,0,0,0,70,67a4.37,4.37,0,0,1,.48-.94,1,1,0,0,1,.82-.42,1.58,1.58,0,0,1,1,.63c.71.76,1.07,2.13,1.07,4.12Z"/><path d="M79.59,74c0,.16-.12.25-.38.25a.46.46,0,0,1-.51-.35,6.28,6.28,0,0,1,0-.69.59.59,0,0,0-.05-.28,3.5,3.5,0,0,1-2.12.72A2.87,2.87,0,0,1,75,73.2,1.41,1.41,0,0,1,74.15,72c0-.48.33-1,1-1.4A3,3,0,0,1,76.83,70h1.73a.51.51,0,0,0,.11-.37,6,6,0,0,0-.2-1.77,1.23,1.23,0,0,0-1.24-1,1.53,1.53,0,0,0-1.22.84,2.66,2.66,0,0,0-.51,1.47v.19a.13.13,0,0,1-.14.14.59.59,0,0,1-.39-.21.57.57,0,0,1-.21-.37,3.4,3.4,0,0,1,.3-1.23,3.87,3.87,0,0,1,.65-1.13,1.39,1.39,0,0,1,1.08-.47,3,3,0,0,1,1.84.63,2,2,0,0,1,.91,1.64Zm-.92-2.78c0-.47-.36-.7-1.09-.7a3.52,3.52,0,0,0-1.5.3A1.23,1.23,0,0,0,75.25,72a.83.83,0,0,0,.44.74,1.67,1.67,0,0,0,.88.22A2.35,2.35,0,0,0,78,72.43,1.45,1.45,0,0,0,78.67,71.21Z"/><path d="M86.42,73.57a.31.31,0,0,1-.28.19,1.49,1.49,0,0,1-.6-.24V72.45q0-5.81-1.44-5.81c-.3,0-.63.22-1,.67a6.4,6.4,0,0,0-1.32,4.14,7.61,7.61,0,0,0,.09,1,6.19,6.19,0,0,1,.1,1c0,.17-.12.26-.35.26-.46,0-.68-.37-.68-1.1v-4a4.23,4.23,0,0,1,0-.45c0-.2,0-.35,0-.46a5.25,5.25,0,0,0-.06-.66,5.29,5.29,0,0,1-.06-.65c0-.09.07-.2.22-.32a.62.62,0,0,1,.34-.19.53.53,0,0,1,.42.25c0,.76,0,1.2,0,1.33s0,.34,0,.51c.1,0,.24-.23.42-.58a3.86,3.86,0,0,1,.56-.91,1.23,1.23,0,0,1,1-.49,1.9,1.9,0,0,1,.63.16,2.32,2.32,0,0,1,1.35,1.15,8.39,8.39,0,0,1,.68,3.66Z"/><path d="M92.77,66.62c-.09.52-.19,1-.27,1.54a7.88,7.88,0,0,0-.17,1.54v5.48a2.48,2.48,0,0,1-.7,1.86,2.59,2.59,0,0,1-1.9.7,3.81,3.81,0,0,1-1.46-.35,2.58,2.58,0,0,1-1.27-1,.61.61,0,0,1-.09-.31c0-.34.16-.51.49-.51a.43.43,0,0,1,.23.07c.2.21.39.42.59.61a2.17,2.17,0,0,0,1.51.55A1.54,1.54,0,0,0,91.27,76a5.14,5.14,0,0,0,.22-1.84,6,6,0,0,0-.07-.7,3.45,3.45,0,0,1,0-.77,4.65,4.65,0,0,1-.7.58,1.58,1.58,0,0,1-.84.25,2,2,0,0,1-1.8-.93,3.54,3.54,0,0,1-.55-2c0-1.57,0-2.9.07-4a.57.57,0,0,1,.62-.56c.44,0,.64.08.59.23a15.24,15.24,0,0,0-.33,4.08c0,1.63.46,2.45,1.39,2.45.57,0,1-.44,1.36-1.32a5.39,5.39,0,0,0,.36-2v-2c0-.2,0-.45,0-.75s.21-.44.57-.42S92.8,66.4,92.77,66.62Z"/><path d="M102.85,70a5.07,5.07,0,0,1-.66,2.62A2.44,2.44,0,0,1,100,74a2.35,2.35,0,0,1-2.12-1.1,4.54,4.54,0,0,1-.58-2.42A7,7,0,0,1,98,67.57q.84-1.77,2.13-1.77a2,2,0,0,1,1,.39A4.16,4.16,0,0,1,102.85,70ZM102,70a6.25,6.25,0,0,0-.3-2c-.29-.83-.74-1.25-1.34-1.25s-1.25.46-1.65,1.39a5.81,5.81,0,0,0-.45,2.29,4.8,4.8,0,0,0,.31,1.85,1.51,1.51,0,0,0,1.42,1,1.72,1.72,0,0,0,1.59-1.19A5.11,5.11,0,0,0,102,70Z"/><path d="M106.67,68a1.8,1.8,0,0,1-.67.18,2.22,2.22,0,0,0-.66.12c0,.13,0,.77,0,1.94,0,.91,0,1.52,0,1.84a3.27,3.27,0,0,0,.09.61,3.37,3.37,0,0,1,.09.65.38.38,0,0,1-.18.28.53.53,0,0,1-.31.14c-.23,0-.42-.24-.56-.72a4,4,0,0,1-.14-1V68.37q-.11-.09-.78,0c-.37,0-.55-.08-.55-.4s.47-.65,1.42-.61l.22-3.17a.54.54,0,0,0,0-.17.45.45,0,0,1,0-.16.24.24,0,0,1,.14-.2.46.46,0,0,1,.33-.08c.41,0,.61.24.61.61a10.54,10.54,0,0,1-.12,1.31,10.75,10.75,0,0,0-.12,1.3,2.6,2.6,0,0,0,0,.4l1,0c.33,0,.49.13.49.38A.5.5,0,0,1,106.67,68Z"/><path d="M112.21,74a.75.75,0,0,1-.52.14.58.58,0,0,1-.4-.25v-2.4c0-3-.5-4.44-1.48-4.44a1.21,1.21,0,0,0-1,.73,2.61,2.61,0,0,0-.36,1.3.91.91,0,0,1-.05.22,1.51,1.51,0,0,0,0,.22v2.24a5.83,5.83,0,0,0,.09.85,6,6,0,0,1,.09.84c0,.19-.14.28-.42.28a.58.58,0,0,1-.5-.28.93.93,0,0,1-.2-.58l.1-10.77a.76.76,0,0,1,0-.21c0-.21.11-.32.35-.32a1.09,1.09,0,0,1,.51.24c.23.16.34.29.34.39a6.26,6.26,0,0,1-.16,1.21,6.58,6.58,0,0,0-.17,1.2s0,.8,0,2.33a1.84,1.84,0,0,1,1-.57,3.57,3.57,0,0,1,1.35.33c1,.42,1.52,1.53,1.52,3.32Z"/><path d="M118.34,71.75c0,.51-.35,1-1,1.38a3.38,3.38,0,0,1-1.75.56c-1.57,0-2.35-1-2.35-3a9.56,9.56,0,0,1,.47-2.82c.42-1.31,1-2,1.61-2a2.93,2.93,0,0,1,1.84.85,2.32,2.32,0,0,1,1,1.69,2.48,2.48,0,0,1-.88,1.89,2.81,2.81,0,0,1-2,.8,1.27,1.27,0,0,1-.45-.17,1.33,1.33,0,0,0-.46-.18c-.16,0-.23.05-.23.14,0,1.35.44,2,1.33,2a2,2,0,0,0,1.26-.46,4.16,4.16,0,0,0,.77-.82c.22-.29.37-.44.44-.44C118.2,71.26,118.34,71.42,118.34,71.75Zm-1.21-3.22a2,2,0,0,0-.35-1.14,1.06,1.06,0,0,0-.93-.54,1.29,1.29,0,0,0-1.13.88,3.28,3.28,0,0,0-.37,1.52,1.21,1.21,0,0,0,.32.85,1.14,1.14,0,0,0,.83.34,1.46,1.46,0,0,0,1.19-.61A2,2,0,0,0,117.13,68.53Z"/><path d="M123,67.25a2.12,2.12,0,0,1,0,.3c-.15.23-.29.35-.43.35a.3.3,0,0,1-.25-.17c0-.74-.34-1.11-.91-1.11-.37,0-.74.69-1.1,2.07a7.72,7.72,0,0,0-.21,2,12.21,12.21,0,0,0,.09,2l.08.22a.63.63,0,0,1,.07.25c0,.26-.17.39-.52.39a.54.54,0,0,1-.6-.62,1.19,1.19,0,0,1,.05-.25,1,1,0,0,0,0-.25c0-.65,0-1.61-.09-2.89s-.08-2.25-.08-2.89c0-.23,0-.38.12-.43a1,1,0,0,1,.47-.08c.29,0,.46.11.51.32l0,.68c.31-.47.48-.73.53-.79a1.08,1.08,0,0,1,.8-.43,1.18,1.18,0,0,1,.63.19,2.08,2.08,0,0,1,.49.54A1.44,1.44,0,0,1,123,67.25Z"/><path d="M63.4,86.67c0,.28-.24.66-.72,1.13a3.07,3.07,0,0,1-1.17.84,3.48,3.48,0,0,1-1,.19,2.29,2.29,0,0,1-2-.93,3.42,3.42,0,0,1-.63-2.14,9.41,9.41,0,0,1,.58-3c.48-1.38,1.07-2.07,1.79-2.07a2.94,2.94,0,0,1,1.34.5c.56.33.88.65,1,.95a4.94,4.94,0,0,1,.12,1.07c0,1.28-.19,1.92-.58,1.92a.71.71,0,0,1-.33-.1c-.13-.07-.19-.15-.19-.25a.38.38,0,0,1,.07-.18.69.69,0,0,1,.09-.15,5.12,5.12,0,0,0,.07-1c0-1.29-.3-1.94-.88-1.94s-1.17.59-1.57,1.77a8.07,8.07,0,0,0-.46,2.6,3.71,3.71,0,0,0,.3,1.58,1.31,1.31,0,0,0,1.24.82,2.07,2.07,0,0,0,1.19-.53,3.49,3.49,0,0,0,.91-1l.21-.5a.29.29,0,0,1,.25-.12c.07,0,.15.08.25.24A.8.8,0,0,1,63.4,86.67Z"/><path d="M69.82,85a5.07,5.07,0,0,1-.66,2.62A2.44,2.44,0,0,1,67,89a2.35,2.35,0,0,1-2.12-1.1,4.54,4.54,0,0,1-.58-2.42,7,7,0,0,1,.67-2.92q.84-1.77,2.13-1.77a2,2,0,0,1,1,.39A4.16,4.16,0,0,1,69.82,85ZM69,85a6.25,6.25,0,0,0-.3-2c-.29-.83-.74-1.25-1.34-1.25s-1.25.46-1.65,1.39a5.81,5.81,0,0,0-.45,2.29,4.8,4.8,0,0,0,.31,1.85,1.5,1.5,0,0,0,1.42,1,1.72,1.72,0,0,0,1.59-1.19A5.11,5.11,0,0,0,69,85Z"/><path d="M75.7,81.94c0,.36,0,.9-.11,1.62a17,17,0,0,0-.12,1.86c0,.21,0,.61.07,1.2s.06,1,.06,1.27q0,.77-.18.93a.6.6,0,0,1-.3.07.52.52,0,0,1-.52-.34c0-.22-.09-.43-.14-.64a2.43,2.43,0,0,1-1.73,1,1.42,1.42,0,0,1-1-.41,2.16,2.16,0,0,1-.72-.84,6.73,6.73,0,0,1-.25-2.23V81.59c-.07-.35.13-.53.6-.53s.49.19.49.56c0,.56,0,1.29,0,2.19q-.06,1.71-.06,2.19A2.88,2.88,0,0,0,72,87.26q.36.75.9.75c.59,0,1-.4,1.38-1.19a5.38,5.38,0,0,0,.35-2V82.57a1,1,0,0,0-.1-.39,1.32,1.32,0,0,1-.09-.42,1.34,1.34,0,0,1,0-.19.83.83,0,0,1,.49-.24C75.44,81.28,75.7,81.48,75.7,81.94Z"/><path d="M82.32,88.57a.31.31,0,0,1-.28.19,1.44,1.44,0,0,1-.6-.24V87.45q0-5.81-1.44-5.81c-.31,0-.63.22-1,.67a6.4,6.4,0,0,0-1.32,4.14,7.61,7.61,0,0,0,.09,1,6.19,6.19,0,0,1,.1,1c0,.17-.12.26-.36.26-.45,0-.67-.37-.67-1.1v-4c0-.1,0-.25,0-.45a4.3,4.3,0,0,0,0-.46,5.25,5.25,0,0,0-.06-.66,5.29,5.29,0,0,1-.06-.65c0-.09.07-.2.22-.32a.59.59,0,0,1,.34-.19.53.53,0,0,1,.42.25c0,.76,0,1.2,0,1.33s0,.34,0,.51c.11,0,.25-.23.42-.58a4.67,4.67,0,0,1,.56-.91,1.24,1.24,0,0,1,1-.49,1.9,1.9,0,0,1,.63.16,2.27,2.27,0,0,1,1.34,1.15,8.23,8.23,0,0,1,.69,3.66Z"/><path d="M86.38,83a1.8,1.8,0,0,1-.67.18,2.22,2.22,0,0,0-.66.12c0,.13,0,.77,0,1.94,0,.91,0,1.52,0,1.84a3.27,3.27,0,0,0,.09.61,3.37,3.37,0,0,1,.09.65.38.38,0,0,1-.18.28.53.53,0,0,1-.31.14c-.23,0-.42-.24-.56-.72a4,4,0,0,1-.14-1V83.37c-.07-.06-.33-.06-.79,0s-.54-.08-.54-.4.47-.65,1.42-.61l.22-3.17a.54.54,0,0,0,0-.17.45.45,0,0,1,0-.16.24.24,0,0,1,.14-.2.46.46,0,0,1,.33-.08c.41,0,.61.24.61.61a10.54,10.54,0,0,1-.12,1.31,10.75,10.75,0,0,0-.12,1.3,2.6,2.6,0,0,0,0,.4l1,0c.33,0,.49.13.49.38A.5.5,0,0,1,86.38,83Z"/><path d="M91.36,82.25s0,.15,0,.3-.3.35-.44.35a.31.31,0,0,1-.25-.17c0-.74-.33-1.11-.91-1.11-.37,0-.74.69-1.1,2.07a7.72,7.72,0,0,0-.21,2,12.21,12.21,0,0,0,.09,2s0,.11.09.22a.88.88,0,0,1,.07.25c0,.26-.18.39-.53.39s-.59-.21-.59-.62a1,1,0,0,1,0-.25,1,1,0,0,0,0-.25c0-.65,0-1.61-.08-2.89s-.09-2.25-.09-2.89c0-.23,0-.38.12-.43a1,1,0,0,1,.47-.08c.3,0,.46.11.51.32s0,.46,0,.68c.3-.47.48-.73.52-.79a1.1,1.1,0,0,1,.81-.43,1.18,1.18,0,0,1,.63.19,2.31,2.31,0,0,1,.48.54A1.44,1.44,0,0,1,91.36,82.25Z"/><path d="M93.5,81.64a4.54,4.54,0,0,1-.15,1,4.47,4.47,0,0,0-.15.94V87.4a4.24,4.24,0,0,0,.18,1,.23.23,0,0,1-.2.14.74.74,0,0,1-.85-.82V81.34a.9.9,0,0,1,.43-.12.94.94,0,0,1,.44.12C93.4,81.43,93.5,81.52,93.5,81.64ZM93.83,79c0,.39-.19.59-.56.59a.92.92,0,0,1-.61-.24.73.73,0,0,1-.28-.56.53.53,0,0,1,.59-.6.89.89,0,0,1,.61.23A.73.73,0,0,1,93.83,79Z"/><path d="M99.55,86.75c0,.51-.34,1-1,1.38a3.35,3.35,0,0,1-1.75.56q-2.34,0-2.34-3a9.24,9.24,0,0,1,.47-2.82c.42-1.31.95-2,1.61-2a3,3,0,0,1,1.84.85,2.34,2.34,0,0,1,1,1.69,2.51,2.51,0,0,1-.87,1.89,2.82,2.82,0,0,1-2,.8,1.19,1.19,0,0,1-.44-.17,1.35,1.35,0,0,0-.47-.18c-.15,0-.23.05-.23.14,0,1.35.45,2,1.33,2a2,2,0,0,0,1.26-.46,3.88,3.88,0,0,0,.77-.82c.22-.29.37-.44.44-.44C99.42,86.26,99.55,86.42,99.55,86.75Zm-1.2-3.22A2,2,0,0,0,98,82.39a1.08,1.08,0,0,0-.93-.54,1.29,1.29,0,0,0-1.14.88,3.41,3.41,0,0,0-.37,1.52,1.18,1.18,0,0,0,.33.85,1.11,1.11,0,0,0,.83.34,1.47,1.47,0,0,0,1.19-.61A2.08,2.08,0,0,0,98.35,83.53Z"/><path d="M105.43,87.47c0,.4-.3.75-.92,1a3.8,3.8,0,0,1-1.49.33,3,3,0,0,1-1.09-.23,5.31,5.31,0,0,1-1.06-.74q-.81-.64-.81-.9c0-.36.22-.52.65-.49h.1c0,.35.4.74,1.12,1.15a3.45,3.45,0,0,0,1.58.57c.51,0,.77-.18.77-.53s-.32-.5-1-.88a9.46,9.46,0,0,1-1.76-1.21,2.9,2.9,0,0,1-1-2.14,3.37,3.37,0,0,1,.48-1.73,1.57,1.57,0,0,1,1.36-1,2.84,2.84,0,0,1,1.44.55,2.12,2.12,0,0,1,1,1.12,4,4,0,0,1,.14,1.1,5,5,0,0,1-.25,1.49.59.59,0,0,1-.37.12A1.11,1.11,0,0,1,104,85c-.18-.06-.26-.13-.26-.2s.06-.08.19-.38a3,3,0,0,0,.14-1.09c0-1.25-.39-1.87-1.17-1.87-.41,0-.74.27-1,.82a3.18,3.18,0,0,0-.32,1.35,2.21,2.21,0,0,0,1,1.67,19.62,19.62,0,0,0,1.84,1.21C105.1,86.91,105.43,87.23,105.43,87.47Z"/><path d="M107.85,88.12q0,.24-.33.42a1.21,1.21,0,0,1-.55.14.75.75,0,0,1-.52-.21.67.67,0,0,1-.23-.49.54.54,0,0,1,.61-.6,1.37,1.37,0,0,1,.69.2A.61.61,0,0,1,107.85,88.12Z"/></g></g></g></svg>