<svg xmlns="http://www.w3.org/2000/svg" viewBox="0 0 153.16 107.5"><defs><style>.cls-1{fill:#fff;}.cls-2{fill:none;stroke:#f7cb4e;stroke-miterlimit:10;stroke-width:2.09px;}</style></defs><title>6</title><g id="Layer_2" data-name="Layer 2"><g id="Facts"><g id="_6" data-name="6"><path class="cls-1" d="M152.11,53.75c0,2.12-2.66,4-3,6s1.51,4.74.81,6.72-3.84,2.87-4.85,4.73,0,4.94-1.29,6.65-4.49,1.67-6,3.22-1.24,4.75-2.87,6.14-4.77.63-6.53,1.84c-2.12,1.48-3.07,5-5.44,6.27s-5.74.13-8.22,1.18-4,4.27-6.56,5.09-5.68-.91-8.3-.3-4.66,3.54-7.31,3.93-5.48-1.8-8.15-1.6-5.16,2.78-7.83,2.78-5.23-2.59-7.83-2.78-5.57,2-8.15,1.6-4.78-3.34-7.31-3.93-5.83,1.1-8.31.31-4.16-4.09-6.55-5.1-6,.06-8.23-1.18-3.31-4.79-5.44-6.27c-1.75-1.21-5-.51-6.52-1.84s-1.45-4.64-2.87-6.14-4.74-1.56-6-3.22-.29-4.83-1.28-6.65S4,68.49,3.27,66.52s1.17-4.65.8-6.72-3-3.93-3-6,2.67-4,3-6.06S2.56,43,3.27,41s3.84-2.86,4.85-4.73,0-4.93,1.28-6.65,4.5-1.66,6-3.21,1.24-4.76,2.87-6.14,4.77-.63,6.52-1.85c2.13-1.47,3.07-5,5.44-6.27S36,12,38.43,11s4-4.28,6.55-5.1,5.69.91,8.31.31S58,2.62,60.6,2.22,66.08,4,68.75,3.83,73.9,1,76.58,1s5.22,2.6,7.82,2.79,5.58-2,8.16-1.61,4.77,3.35,7.31,3.94,5.83-1.1,8.3-.31,4.17,4.09,6.56,5.1,6-.06,8.22,1.17,3.32,4.8,5.44,6.27c1.76,1.22,5,.52,6.53,1.85s1.44,4.64,2.87,6.14,4.74,1.55,6,3.21.3,4.83,1.29,6.65S149.19,39,149.89,41s-1.17,4.66-.8,6.72S152.11,51.63,152.11,53.75Z"/><path class="cls-2" d="M152.11,53.75c0,2.12-2.66,4-3,6s1.51,4.74.81,6.72-3.84,2.87-4.85,4.73,0,4.94-1.29,6.65-4.49,1.67-6,3.22-1.24,4.75-2.87,6.14-4.77.63-6.53,1.84c-2.12,1.48-3.07,5-5.44,6.27s-5.74.13-8.22,1.18-4,4.27-6.56,5.09-5.68-.91-8.3-.3-4.66,3.54-7.31,3.93-5.48-1.8-8.15-1.6-5.16,2.78-7.83,2.78-5.23-2.59-7.83-2.78-5.57,2-8.15,1.6-4.78-3.34-7.31-3.93-5.83,1.1-8.31.31-4.16-4.09-6.55-5.1-6,.06-8.23-1.18-3.31-4.79-5.44-6.27c-1.75-1.21-5-.51-6.52-1.84s-1.45-4.64-2.87-6.14-4.74-1.56-6-3.22-.29-4.83-1.28-6.65S4,68.49,3.27,66.52s1.17-4.65.8-6.72-3-3.93-3-6,2.67-4,3-6.06S2.56,43,3.27,41s3.84-2.86,4.85-4.73,0-4.93,1.28-6.65,4.5-1.66,6-3.21,1.24-4.76,2.87-6.14,4.77-.63,6.52-1.85c2.13-1.47,3.07-5,5.44-6.27S36,12,38.43,11s4-4.28,6.55-5.1,5.69.91,8.31.31S58,2.62,60.6,2.22,66.08,4,68.75,3.83,73.9,1,76.58,1s5.22,2.6,7.82,2.79,5.58-2,8.16-1.61,4.77,3.35,7.31,3.94,5.83-1.1,8.3-.31,4.17,4.09,6.56,5.1,6-.06,8.22,1.17,3.32,4.8,5.44,6.27c1.76,1.22,5,.52,6.53,1.85s1.44,4.64,2.87,6.14,4.74,1.55,6,3.21.3,4.83,1.29,6.65S149.19,39,149.89,41s-1.17,4.66-.8,6.72S152.11,51.63,152.11,53.75Z"/><path d="M41.75,31.77c0,.32-.13.48-.38.48a.89.89,0,0,1-.31-.06,4.68,4.68,0,0,0,.37,1.71.4.4,0,0,1-.18.31.69.69,0,0,1-.39.12.94.94,0,0,1-.4-.1,1.76,1.76,0,0,1-.12-.75c0-.09,0-.26,0-.5v-.49a1,1,0,0,0,0-.36,1.68,1.68,0,0,0-.38,0l-.36,0a17.43,17.43,0,0,0-2,.18,5.15,5.15,0,0,0-1.82.42,2.65,2.65,0,0,0-.28,1.08c-.08.53-.13.92-.14,1.17a.25.25,0,0,1-.21.11.72.72,0,0,1-.43-.2.52.52,0,0,1-.24-.37,1.61,1.61,0,0,1,.12-.41,3.21,3.21,0,0,0,.13-.39,20,20,0,0,1,1-3.67q2-5.62,3.06-5.63c.77,0,1.36,1,1.78,2.94.15.69.33,2,.53,4a1.33,1.33,0,0,0,.45.17Q41.75,31.59,41.75,31.77Zm-1.46-.44c-.25-1.76-.41-2.82-.48-3.19-.33-1.68-.68-2.52-1.05-2.51s-.92.79-1.54,2.31c-.35,1-.7,1.92-1,2.88a4.13,4.13,0,0,0-.19.59q-.06.36.21.36l.91-.15C37.54,31.54,38.6,31.44,40.29,31.33Z"/><path d="M46.77,30.93a6.28,6.28,0,0,1-.43,2.49,1.94,1.94,0,0,1-1.85,1.39,1.8,1.8,0,0,1-1.44-.76c-.07,0-.1.34-.1.93a13.48,13.48,0,0,0,.19,2.76,2.3,2.3,0,0,0,.15.36,1.5,1.5,0,0,1,.12.34q0,.24-.3.24a.89.89,0,0,1-.5-.1,1.31,1.31,0,0,1-.25-.69,4.63,4.63,0,0,1-.09-.78V33.3q0-.52.06-1.41t.06-1.41q0-.4,0-1.05V28.36c0-.69.18-1,.54-1,.18,0,.27.06.27.19s0,.62-.06,1.1-.06.84-.06,1.08h.06l.69-.95a1.23,1.23,0,0,1,1-.52,1.63,1.63,0,0,1,1.51.9A3.53,3.53,0,0,1,46.77,30.93ZM46,31a5,5,0,0,0-.16-1.37c-.17-.56-.45-.84-.83-.84s-.62.25-1,.74a4,4,0,0,0-.73,1.32,7.89,7.89,0,0,0-.27,1.5Q43,33.06,43,33s0,.08.13.15l.18.13.49.7a.85.85,0,0,0,.74.35c.54,0,1-.45,1.23-1.35A6.72,6.72,0,0,0,46,31Z"/><path d="M52,30.93a6.28,6.28,0,0,1-.43,2.49,1.94,1.94,0,0,1-1.85,1.39,1.8,1.8,0,0,1-1.44-.76c-.07,0-.1.34-.1.93a13.48,13.48,0,0,0,.19,2.76,2.3,2.3,0,0,0,.15.36,1.5,1.5,0,0,1,.12.34q0,.24-.3.24a.89.89,0,0,1-.5-.1,1.31,1.31,0,0,1-.25-.69,4.63,4.63,0,0,1-.09-.78V33.3q0-.52.06-1.41t.06-1.41q0-.4,0-1.05V28.36c0-.69.18-1,.54-1,.18,0,.27.06.27.19s0,.62-.06,1.1-.06.84-.06,1.08h.06l.69-.95a1.23,1.23,0,0,1,1-.52,1.63,1.63,0,0,1,1.51.9A3.53,3.53,0,0,1,52,30.93Zm-.75.06a5,5,0,0,0-.16-1.37c-.17-.56-.45-.84-.83-.84s-.62.25-1,.74a4,4,0,0,0-.73,1.32,7.89,7.89,0,0,0-.27,1.5q-.06.72-.06.69s0,.08.13.15l.18.13L49,34a.85.85,0,0,0,.74.35c.54,0,1-.45,1.23-1.35A6.72,6.72,0,0,0,51.27,31Z"/><path d="M56.1,29.26s0,.13,0,.26-.26.3-.38.3a.25.25,0,0,1-.21-.15c0-.63-.29-1-.78-1-.32,0-.63.59-.94,1.77a6.68,6.68,0,0,0-.18,1.73,10.86,10.86,0,0,0,.07,1.69l.08.19a.61.61,0,0,1,.06.22q0,.33-.45.33a.46.46,0,0,1-.51-.53.79.79,0,0,1,0-.22,1,1,0,0,0,0-.21c0-.55,0-1.38-.07-2.48s-.08-1.92-.08-2.47c0-.2,0-.33.11-.37a.74.74,0,0,1,.4-.07c.25,0,.4.09.44.27l0,.59c.26-.4.41-.63.45-.68a.92.92,0,0,1,.69-.37,1,1,0,0,1,.54.16,1.72,1.72,0,0,1,.41.47A1.13,1.13,0,0,1,56.1,29.26Z"/><path d="M61,31.65a4.32,4.32,0,0,1-.57,2.25,2.08,2.08,0,0,1-1.88,1.15,2,2,0,0,1-1.81-.94,3.82,3.82,0,0,1-.5-2.07,5.92,5.92,0,0,1,.57-2.51c.48-1,1.09-1.51,1.83-1.51a1.74,1.74,0,0,1,.81.33A3.58,3.58,0,0,1,61,31.65Zm-.72,0A5.4,5.4,0,0,0,60,29.91c-.25-.71-.63-1.07-1.15-1.07s-1.07.4-1.41,1.19a4.93,4.93,0,0,0-.39,2,4.13,4.13,0,0,0,.27,1.59,1.28,1.28,0,0,0,1.21.89,1.48,1.48,0,0,0,1.37-1A4.38,4.38,0,0,0,60.29,31.63Z"/><path d="M66.51,34.35c0,.1-.07.18-.21.25a1,1,0,0,1-.4.11c-.4,0-.85-.35-1.35-1l-1-1.53a13.94,13.94,0,0,0-2,3.41q-.6-.13-.6-.63A7,7,0,0,1,62,33.1a14.88,14.88,0,0,0,1.12-1.63,6.56,6.56,0,0,0-.72-1.32,14.36,14.36,0,0,0-.9-1.35.59.59,0,0,1,.61-.41.62.62,0,0,1,.47.24s.11.27.31.71a11.11,11.11,0,0,0,.72,1.42l1.14-1.42q.92-1.14,1.14-1.14a.35.35,0,0,1,.29.14.47.47,0,0,1,.12.31A7.61,7.61,0,0,1,65.14,30c-.76.8-1.15,1.28-1.15,1.45A4.48,4.48,0,0,0,65,33q1,1.23,1.26,1.23a1.31,1.31,0,0,0,.27,0Z"/><path d="M68.4,28.74a4.12,4.12,0,0,1-.12.81,3.62,3.62,0,0,0-.13.81v3.31a3.77,3.77,0,0,0,.15.9.19.19,0,0,1-.17.12c-.49,0-.73-.23-.73-.7V28.48a.76.76,0,0,1,.37-.1.8.8,0,0,1,.38.1C68.32,28.55,68.4,28.64,68.4,28.74Zm.29-2.25q0,.51-.48.51a.79.79,0,0,1-.53-.21.63.63,0,0,1-.24-.48A.45.45,0,0,1,68,25.8a.74.74,0,0,1,.52.19A.63.63,0,0,1,68.69,26.49Z"/><path d="M76.32,34.71a1,1,0,0,1-.48.19.69.69,0,0,1-.3-.1V33.17c0-3.09-.31-4.63-.94-4.63-.38,0-.7.48-1,1.44a7.33,7.33,0,0,0-.33,1.95v1.5a1.56,1.56,0,0,0,.07.34,1,1,0,0,1,.07.32c0,.08-.06.16-.17.24a.5.5,0,0,1-.28.12.43.43,0,0,1-.3-.19.53.53,0,0,1-.17-.32v-3a5.75,5.75,0,0,0-.16-1.22q-.21-.93-.51-.93c-.11,0-.28.14-.5.42a5.57,5.57,0,0,0-1.12,3.54,7.11,7.11,0,0,0,.06.76,6.82,6.82,0,0,1,.06.74c0,.3-.13.45-.38.45a.4.4,0,0,1-.31-.15,2.18,2.18,0,0,1-.14-.67,6.19,6.19,0,0,1-.07-.74V29.59q0-1.53.36-1.53a.5.5,0,0,1,.31.14.43.43,0,0,1,.15.3,4.92,4.92,0,0,1-.09.82c-.06.44-.09.72-.1.83l.07.07.57-1.29c.27-.55.59-.82,1-.82s1,.56,1.35,1.68A3.08,3.08,0,0,0,73.4,29a3.75,3.75,0,0,1,.4-.81.88.88,0,0,1,.71-.36,1.34,1.34,0,0,1,.9.54,5.2,5.2,0,0,1,.91,3.53Z"/><path d="M81.62,35q0,.21-.33.21a.4.4,0,0,1-.44-.3s0-.23,0-.59a.54.54,0,0,0,0-.24,3,3,0,0,1-1.81.62,2.54,2.54,0,0,1-1.31-.38,1.22,1.22,0,0,1-.72-1c0-.41.29-.81.86-1.2a2.59,2.59,0,0,1,1.44-.54h1.48a.43.43,0,0,0,.09-.31,5.31,5.31,0,0,0-.16-1.52,1.06,1.06,0,0,0-1.07-.85,1.32,1.32,0,0,0-1,.72,2.3,2.3,0,0,0-.43,1.26V31a.11.11,0,0,1-.12.12.5.5,0,0,1-.33-.18.48.48,0,0,1-.18-.31,3,3,0,0,1,.25-1.06,3.18,3.18,0,0,1,.56-1,1.21,1.21,0,0,1,.93-.4,2.55,2.55,0,0,1,1.57.54,1.77,1.77,0,0,1,.78,1.41Zm-.8-2.39q0-.6-.93-.6a3.06,3.06,0,0,0-1.29.26,1.05,1.05,0,0,0-.7,1,.7.7,0,0,0,.37.63,1.39,1.39,0,0,0,.75.19,2.08,2.08,0,0,0,1.23-.42A1.26,1.26,0,0,0,80.82,32.65Z"/><path d="M85.23,29.88a1.45,1.45,0,0,1-.57.15,2.53,2.53,0,0,0-.57.1c0,.11,0,.67,0,1.67,0,.78,0,1.3,0,1.57a2.83,2.83,0,0,0,.07.53,3,3,0,0,1,.08.55.33.33,0,0,1-.15.24.45.45,0,0,1-.27.12c-.2,0-.36-.2-.48-.61a3.36,3.36,0,0,1-.12-.86V30.22c-.06,0-.28,0-.67,0s-.47-.07-.47-.34.4-.56,1.21-.53l.2-2.71a.41.41,0,0,0,0-.15.63.63,0,0,1,0-.14.21.21,0,0,1,.12-.17.41.41,0,0,1,.29-.07.49.49,0,0,1,.52.53,8.63,8.63,0,0,1-.1,1.12,9.13,9.13,0,0,0-.11,1.11,2,2,0,0,0,0,.35l.83,0q.42,0,.42.33A.44.44,0,0,1,85.23,29.88Z"/><path d="M90,33.12c0,.44-.3.83-.89,1.18a2.92,2.92,0,0,1-1.5.48q-2,0-2-2.55A8.07,8.07,0,0,1,86,29.82q.54-1.68,1.38-1.68a2.53,2.53,0,0,1,1.57.72,2,2,0,0,1,.86,1.45,2.14,2.14,0,0,1-.75,1.62,2.45,2.45,0,0,1-1.7.69,1.22,1.22,0,0,1-.38-.15,1.11,1.11,0,0,0-.4-.15c-.13,0-.19,0-.19.12,0,1.15.38,1.73,1.14,1.73a1.71,1.71,0,0,0,1.08-.39,3.59,3.59,0,0,0,.66-.71c.19-.25.31-.37.37-.37C89.9,32.7,90,32.84,90,33.12Zm-1-2.76a1.79,1.79,0,0,0-.3-1,.91.91,0,0,0-.79-.45,1.12,1.12,0,0,0-1,.75A2.86,2.86,0,0,0,86.6,31a1,1,0,0,0,.28.73.94.94,0,0,0,.71.29,1.23,1.23,0,0,0,1-.52A1.75,1.75,0,0,0,89,30.36Z"/><path d="M91.8,34.45q0,.39-.42.39c-.44,0-.65-.9-.64-2.71l0-6.74a3.26,3.26,0,0,0,0-.47,3.85,3.85,0,0,1,0-.46.88.88,0,0,1,.48-.21.72.72,0,0,1,.42.15.44.44,0,0,1,.21.36,1.34,1.34,0,0,1-.07.39c-.06.2-.1.33-.11.38a17.36,17.36,0,0,0-.18,2.85c0,2,0,2.92,0,2.85A16.51,16.51,0,0,0,91.67,34a.57.57,0,0,0,.07.2A.79.79,0,0,1,91.8,34.45Z"/><path d="M97.13,28.72,96.89,30a7.07,7.07,0,0,0-.14,1.32v4.7a2.12,2.12,0,0,1-.6,1.59,2.23,2.23,0,0,1-1.63.6,3.19,3.19,0,0,1-1.25-.3,2.21,2.21,0,0,1-1.09-.83.56.56,0,0,1-.08-.27.37.37,0,0,1,.42-.43.41.41,0,0,1,.2.06l.51.52a1.84,1.84,0,0,0,1.29.47,1.32,1.32,0,0,0,1.32-.69A4.39,4.39,0,0,0,96,35.2a5.71,5.71,0,0,0-.06-.6,2.54,2.54,0,0,1,0-.66,4.42,4.42,0,0,1-.6.5,1.32,1.32,0,0,1-.72.21,1.73,1.73,0,0,1-1.54-.8,3.06,3.06,0,0,1-.47-1.75q0-2,.06-3.42a.49.49,0,0,1,.53-.48c.38,0,.55.06.51.19a12.94,12.94,0,0,0-.29,3.5q0,2.1,1.2,2.1c.48,0,.87-.38,1.16-1.13a4.66,4.66,0,0,0,.31-1.75V29.4c0-.17,0-.39,0-.65s.18-.38.49-.36S97.15,28.53,97.13,28.72Z"/><path d="M102.62,25.53s-.06.38-.18,1a19.76,19.76,0,0,0-.35,3v3.1a4.47,4.47,0,0,0,.15,1.55l.12.15a.35.35,0,0,1,.11.19.23.23,0,0,1-.26.26,1.43,1.43,0,0,1-.61-.2,1.14,1.14,0,0,1-.12-.49V27.43l-.24-.18v-.36a6.77,6.77,0,0,1,.25-1.35c.18-.72.33-1.08.44-1.08s.3.14.46.41A1.57,1.57,0,0,1,102.62,25.53Z"/><path d="M110.75,33.88q0,.36-.21.36l-.24-.07a2.86,2.86,0,0,0-.87-.12,16.55,16.55,0,0,0-4.28.58l-.54.18a2.5,2.5,0,0,1-.51.14c-.39,0-.58-.18-.58-.54a.83.83,0,0,1,.25-.54l1.4-1.25a14.75,14.75,0,0,0,2.37-2.74,6.22,6.22,0,0,0,1.32-3.26,1.56,1.56,0,0,0-.47-1.15,1.65,1.65,0,0,0-1.18-.45,3.09,3.09,0,0,0-2.55,1.87c0,.3-.09.6-.14.9s-.21.68-.39.68a.72.72,0,0,1-.33-.19c-.16-.13-.24-.22-.24-.28a3.09,3.09,0,0,1,.77-1.83,4.48,4.48,0,0,1,1.51-1.32,3.18,3.18,0,0,1,1.49-.36,2.44,2.44,0,0,1,2.38,2.39,5.48,5.48,0,0,1-1.44,3.3,22.24,22.24,0,0,1-2.64,2.65l-.51.48a1.89,1.89,0,0,0-.37.57A.26.26,0,0,0,105,34l.08,0,5.14-.81a.46.46,0,0,1,.41.23A.9.9,0,0,1,110.75,33.88Z"/><path d="M118.58,33.88q0,.36-.21.36l-.24-.07a2.86,2.86,0,0,0-.87-.12,16.55,16.55,0,0,0-4.28.58l-.54.18a2.5,2.5,0,0,1-.51.14c-.39,0-.58-.18-.58-.54a.83.83,0,0,1,.25-.54l1.4-1.25a14.75,14.75,0,0,0,2.37-2.74,6.22,6.22,0,0,0,1.32-3.26,1.56,1.56,0,0,0-.47-1.15A1.65,1.65,0,0,0,115,25a3.09,3.09,0,0,0-2.55,1.87c0,.3-.09.6-.14.9s-.21.68-.39.68a.72.72,0,0,1-.33-.19c-.16-.13-.24-.22-.24-.28a3.09,3.09,0,0,1,.77-1.83,4.48,4.48,0,0,1,1.51-1.32,3.18,3.18,0,0,1,1.49-.36,2.44,2.44,0,0,1,2.38,2.39,5.48,5.48,0,0,1-1.44,3.3,22.24,22.24,0,0,1-2.64,2.65l-.51.48a1.89,1.89,0,0,0-.37.57.26.26,0,0,0,.25.14l.08,0,5.14-.81a.46.46,0,0,1,.41.23A.9.9,0,0,1,118.58,33.88Z"/><path d="M35.37,49.71a1,1,0,0,1-.48.19.69.69,0,0,1-.3-.1V48.17c0-3.09-.32-4.63-1-4.63-.38,0-.7.48-1,1.44a7.68,7.68,0,0,0-.32,2v1.5a1.43,1.43,0,0,0,.06.34,1,1,0,0,1,.07.32.31.31,0,0,1-.16.24.53.53,0,0,1-.29.12.43.43,0,0,1-.3-.19.51.51,0,0,1-.16-.32v-3a5.86,5.86,0,0,0-.17-1.22q-.21-.93-.51-.93c-.11,0-.27.14-.49.42a5.58,5.58,0,0,0-1.13,3.54,7.11,7.11,0,0,0,.06.76,6.82,6.82,0,0,1,.06.74c0,.3-.12.45-.37.45a.42.42,0,0,1-.32-.15,2.35,2.35,0,0,1-.13-.67,7,7,0,0,1-.08-.74V44.59q0-1.53.36-1.53a.5.5,0,0,1,.31.14.45.45,0,0,1,.16.3,4.92,4.92,0,0,1-.09.82c-.06.44-.1.72-.11.83l.08.07.57-1.29c.27-.55.59-.82,1-.82q.78,0,1.35,1.68a3.16,3.16,0,0,0,.37-.75,3.69,3.69,0,0,1,.41-.81.86.86,0,0,1,.7-.36,1.34,1.34,0,0,1,.9.54,5.19,5.19,0,0,1,.92,3.53Z"/><path d="M37.56,43.74a4.32,4.32,0,0,1-.13.81,3.62,3.62,0,0,0-.13.81v3.31a3.77,3.77,0,0,0,.15.9.18.18,0,0,1-.16.12c-.49,0-.74-.23-.74-.7V43.48a.8.8,0,0,1,.38-.1.76.76,0,0,1,.37.1C37.47,43.55,37.56,43.64,37.56,43.74Zm.28-2.25q0,.51-.48.51a.77.77,0,0,1-.52-.21.63.63,0,0,1-.24-.48.45.45,0,0,1,.51-.51.72.72,0,0,1,.51.19A.63.63,0,0,1,37.84,41.49Z"/><path d="M39.7,49.45q0,.39-.42.39c-.44,0-.65-.9-.64-2.71l0-6.74a3.26,3.26,0,0,0,0-.47,3.85,3.85,0,0,1,0-.46.88.88,0,0,1,.48-.21.72.72,0,0,1,.42.15.44.44,0,0,1,.21.36,1.34,1.34,0,0,1-.07.39c-.06.2-.1.33-.11.38a17.36,17.36,0,0,0-.18,2.85c0,2,0,2.92,0,2.85A16.51,16.51,0,0,0,39.57,49a.74.74,0,0,0,.06.2A.63.63,0,0,1,39.7,49.45Z"/><path d="M41.68,49.45q0,.39-.42.39c-.44,0-.65-.9-.64-2.71l0-6.74a3.26,3.26,0,0,0,0-.47,3.85,3.85,0,0,1,0-.46.88.88,0,0,1,.48-.21.72.72,0,0,1,.42.15.44.44,0,0,1,.21.36,1.34,1.34,0,0,1-.07.39c-.06.2-.1.33-.11.38a17.36,17.36,0,0,0-.18,2.85c0,2,0,2.92,0,2.85A16.51,16.51,0,0,0,41.55,49a.74.74,0,0,0,.06.2A.63.63,0,0,1,41.68,49.45Z"/><path d="M43.63,43.74a3.62,3.62,0,0,1-.13.81,4.12,4.12,0,0,0-.12.81v3.31a3.77,3.77,0,0,0,.15.9.19.19,0,0,1-.17.12c-.49,0-.73-.23-.73-.7V43.48a.76.76,0,0,1,.37-.1.8.8,0,0,1,.38.1C43.55,43.55,43.63,43.64,43.63,43.74Zm.29-2.25q0,.51-.48.51a.79.79,0,0,1-.53-.21.63.63,0,0,1-.24-.48.45.45,0,0,1,.51-.51.76.76,0,0,1,.52.19A.67.67,0,0,1,43.92,41.49Z"/><path d="M49.06,46.65a4.32,4.32,0,0,1-.57,2.25,2.07,2.07,0,0,1-1.87,1.15,2,2,0,0,1-1.82-.94A3.82,3.82,0,0,1,44.31,47a5.92,5.92,0,0,1,.57-2.51c.48-1,1.09-1.51,1.83-1.51a1.74,1.74,0,0,1,.81.33A3.57,3.57,0,0,1,49.06,46.65Zm-.72,0a5.41,5.41,0,0,0-.25-1.72c-.25-.71-.64-1.07-1.16-1.07s-1.07.4-1.41,1.19a4.93,4.93,0,0,0-.39,2,4.13,4.13,0,0,0,.27,1.59,1.29,1.29,0,0,0,1.22.89,1.47,1.47,0,0,0,1.36-1A4.38,4.38,0,0,0,48.34,46.63Z"/><path d="M54.57,49.68a.26.26,0,0,1-.24.16,1.17,1.17,0,0,1-.51-.21v-.91c0-3.32-.42-5-1.24-5q-.39,0-.84.57a5.51,5.51,0,0,0-1.13,3.55,5.21,5.21,0,0,0,.08.83,5.42,5.42,0,0,1,.08.84c0,.15-.1.22-.3.22-.39,0-.58-.31-.58-.94V45.4c0-.09,0-.22,0-.39s0-.3,0-.39a5.49,5.49,0,0,0-.05-.57,3.85,3.85,0,0,1-.06-.55.44.44,0,0,1,.19-.28.53.53,0,0,1,.29-.16.46.46,0,0,1,.36.21c0,.65,0,1,0,1.14s0,.3,0,.44c.09,0,.21-.2.36-.5a3.62,3.62,0,0,1,.48-.78,1.08,1.08,0,0,1,.83-.42,1.77,1.77,0,0,1,.54.14,2,2,0,0,1,1.15,1,7.1,7.1,0,0,1,.59,3.13Z"/><path d="M63,45.93a6.28,6.28,0,0,1-.43,2.49,1.94,1.94,0,0,1-1.85,1.39,1.8,1.8,0,0,1-1.44-.76c-.07,0-.1.34-.1.93a13.48,13.48,0,0,0,.19,2.76,2.3,2.3,0,0,0,.15.36,1.5,1.5,0,0,1,.12.34q0,.24-.3.24a.89.89,0,0,1-.5-.1c-.1-.07-.18-.3-.25-.69a4.63,4.63,0,0,1-.09-.78V48.3q0-.52.06-1.41t.06-1.41q0-.4,0-1V43.36c0-.69.18-1,.54-1,.18,0,.27.06.27.19s0,.62-.06,1.1-.06.84-.06,1.08h.06l.69-1a1.23,1.23,0,0,1,1-.52,1.63,1.63,0,0,1,1.51.9A3.53,3.53,0,0,1,63,45.93Zm-.75.06a5,5,0,0,0-.16-1.37c-.17-.56-.45-.84-.83-.84s-.62.25-1,.74a4,4,0,0,0-.73,1.32,7.89,7.89,0,0,0-.27,1.5q-.06.72-.06.69s0,.08.13.15l.18.13L60,49a.85.85,0,0,0,.74.35c.54,0,1-.45,1.23-1.35A6.72,6.72,0,0,0,62.23,46Z"/><path d="M67.78,50a.64.64,0,0,1-.45.12.48.48,0,0,1-.34-.21V47.86c0-2.54-.43-3.81-1.27-3.81a1,1,0,0,0-.89.63,2.18,2.18,0,0,0-.32,1.11.63.63,0,0,1,0,.19.89.89,0,0,0,0,.19v1.92a4.94,4.94,0,0,0,.07.73,5.31,5.31,0,0,1,.08.72q0,.24-.36.24a.52.52,0,0,1-.43-.24.8.8,0,0,1-.17-.5l.09-9.23a.57.57,0,0,1,0-.18q0-.27.3-.27a.84.84,0,0,1,.44.2c.2.13.29.25.29.34a5.13,5.13,0,0,1-.14,1,5,5,0,0,0-.14,1s0,.69,0,2a1.55,1.55,0,0,1,.85-.49,3.07,3.07,0,0,1,1.16.28c.87.36,1.3,1.31,1.3,2.85Z"/><path d="M73.39,46.65a4.32,4.32,0,0,1-.57,2.25A2.07,2.07,0,0,1,71,50.05a2,2,0,0,1-1.82-.94A3.82,3.82,0,0,1,68.64,47a5.92,5.92,0,0,1,.57-2.51C69.69,43.52,70.3,43,71,43a1.74,1.74,0,0,1,.81.33A3.57,3.57,0,0,1,73.39,46.65Zm-.72,0a5.41,5.41,0,0,0-.25-1.72c-.25-.71-.64-1.07-1.16-1.07s-1.07.4-1.41,1.19a4.93,4.93,0,0,0-.39,2,4.13,4.13,0,0,0,.27,1.59,1.29,1.29,0,0,0,1.22.89,1.47,1.47,0,0,0,1.36-1A4.38,4.38,0,0,0,72.67,46.63Z"/><path d="M78.9,49.68a.26.26,0,0,1-.24.16,1.17,1.17,0,0,1-.51-.21v-.91c0-3.32-.42-5-1.24-5q-.39,0-.84.57a5.51,5.51,0,0,0-1.13,3.55,6.76,6.76,0,0,0,.08.83,5.42,5.42,0,0,1,.08.84c0,.15-.1.22-.3.22-.39,0-.58-.31-.58-.94V45.4c0-.09,0-.22,0-.39s0-.3,0-.39a5.49,5.49,0,0,0,0-.57,3.85,3.85,0,0,1-.06-.55.44.44,0,0,1,.19-.28.53.53,0,0,1,.29-.16.46.46,0,0,1,.36.21c0,.65,0,1,0,1.14s0,.3,0,.44c.09,0,.21-.2.36-.5a3.62,3.62,0,0,1,.48-.78,1.08,1.08,0,0,1,.83-.42,1.77,1.77,0,0,1,.54.14,2,2,0,0,1,1.15,1,7.1,7.1,0,0,1,.59,3.13Z"/><path d="M84.12,48.12c0,.44-.3.83-.89,1.18a2.92,2.92,0,0,1-1.5.48q-2,0-2-2.55a8.07,8.07,0,0,1,.41-2.41q.54-1.68,1.38-1.68a2.53,2.53,0,0,1,1.57.72,2,2,0,0,1,.86,1.45,2.14,2.14,0,0,1-.75,1.62,2.45,2.45,0,0,1-1.7.69,1.14,1.14,0,0,1-.38-.15,1.18,1.18,0,0,0-.4-.15c-.13,0-.19,0-.19.12,0,1.15.38,1.73,1.14,1.73a1.71,1.71,0,0,0,1.08-.39,3.59,3.59,0,0,0,.66-.71c.19-.25.31-.37.37-.37C84,47.7,84.12,47.84,84.12,48.12Zm-1-2.76a1.79,1.79,0,0,0-.3-1,.91.91,0,0,0-.79-.45,1.12,1.12,0,0,0-1,.75A2.86,2.86,0,0,0,80.7,46a1,1,0,0,0,.27.73,1,1,0,0,0,.72.29,1.23,1.23,0,0,0,1-.52A1.75,1.75,0,0,0,83.08,45.36Z"/><path d="M92.67,48c0,.25-.21.57-.62,1a2.74,2.74,0,0,1-1,.72,3,3,0,0,1-.87.16,1.94,1.94,0,0,1-1.68-.8A2.93,2.93,0,0,1,88,47.27a8,8,0,0,1,.49-2.59q.61-1.77,1.53-1.77a2.45,2.45,0,0,1,1.16.43c.48.28.75.56.81.82a4.09,4.09,0,0,1,.1.91c0,1.1-.16,1.65-.49,1.65a.64.64,0,0,1-.29-.09c-.11-.06-.16-.13-.16-.21a.35.35,0,0,1,.06-.16l.07-.12a4,4,0,0,0,.06-.9c0-1.11-.25-1.67-.75-1.67s-1,.51-1.35,1.52a7,7,0,0,0-.39,2.23,3.15,3.15,0,0,0,.26,1.35,1.12,1.12,0,0,0,1.06.71,1.8,1.8,0,0,0,1-.46,2.94,2.94,0,0,0,.78-.86l.18-.42a.25.25,0,0,1,.21-.11c.06,0,.13.07.22.2A.78.78,0,0,1,92.67,48Z"/><path d="M98,50q0,.21-.33.21a.39.39,0,0,1-.43-.3,4.53,4.53,0,0,1,0-.59.55.55,0,0,0,0-.24,3,3,0,0,1-1.82.62,2.51,2.51,0,0,1-1.3-.38,1.22,1.22,0,0,1-.72-1c0-.41.28-.81.85-1.2a2.59,2.59,0,0,1,1.44-.54h1.49a.43.43,0,0,0,.09-.31A5.24,5.24,0,0,0,97,44.74a1.05,1.05,0,0,0-1.06-.85,1.32,1.32,0,0,0-1,.72,2.31,2.31,0,0,0-.44,1.26V46a.11.11,0,0,1-.12.12A.5.5,0,0,1,94,46a.48.48,0,0,1-.18-.31,3,3,0,0,1,.26-1.06,3.18,3.18,0,0,1,.55-1,1.21,1.21,0,0,1,.93-.4,2.58,2.58,0,0,1,1.58.54,1.77,1.77,0,0,1,.78,1.41Zm-.79-2.39q0-.6-.93-.6a3.06,3.06,0,0,0-1.29.26,1.06,1.06,0,0,0-.71,1,.7.7,0,0,0,.38.63,1.39,1.39,0,0,0,.75.19,2,2,0,0,0,1.22-.42A1.25,1.25,0,0,0,97.17,47.65Z"/><path d="M100.14,49.45q0,.39-.42.39c-.44,0-.66-.9-.65-2.71l.05-6.74a3.59,3.59,0,0,0-.05-.47,3.38,3.38,0,0,1,0-.46.88.88,0,0,1,.48-.21.72.72,0,0,1,.42.15.44.44,0,0,1,.21.36,1.41,1.41,0,0,1-.08.39c-.06.2-.09.33-.1.38a17.36,17.36,0,0,0-.18,2.85c0,2,0,2.92,0,2.85A16.51,16.51,0,0,0,100,49a.57.57,0,0,0,.07.2A.63.63,0,0,1,100.14,49.45Z"/><path d="M102.12,49.45q0,.39-.42.39c-.44,0-.66-.9-.65-2.71l0-6.74a3.59,3.59,0,0,0,0-.47,3.38,3.38,0,0,1,0-.46.88.88,0,0,1,.48-.21.72.72,0,0,1,.42.15.44.44,0,0,1,.21.36,1.41,1.41,0,0,1-.08.39c-.06.2-.09.33-.1.38a17.36,17.36,0,0,0-.18,2.85c0,2,0,2.92,0,2.85A16.51,16.51,0,0,0,102,49a1,1,0,0,0,.07.2A.63.63,0,0,1,102.12,49.45Z"/><path d="M107.11,48.73c0,.35-.26.64-.79.88a3.08,3.08,0,0,1-1.28.29,2.52,2.52,0,0,1-.93-.2,4.69,4.69,0,0,1-.91-.63c-.46-.37-.69-.63-.69-.77,0-.31.18-.45.55-.42h.09c0,.3.34.63,1,1a3,3,0,0,0,1.35.49c.44,0,.66-.15.66-.46s-.27-.43-.81-.75a8.62,8.62,0,0,1-1.51-1,2.52,2.52,0,0,1-.83-1.84,3,3,0,0,1,.41-1.49,1.35,1.35,0,0,1,1.17-.84,2.41,2.41,0,0,1,1.23.47,1.82,1.82,0,0,1,.84,1,3.3,3.3,0,0,1,.12.94,4.43,4.43,0,0,1-.21,1.28.51.51,0,0,1-.32.1,1.25,1.25,0,0,1-.33-.08c-.15-.06-.22-.11-.22-.17s0-.07.16-.33a2.45,2.45,0,0,0,.12-.93c0-1.07-.33-1.61-1-1.61-.35,0-.63.24-.84.71a2.66,2.66,0,0,0-.27,1.16,1.88,1.88,0,0,0,.85,1.42,18.28,18.28,0,0,0,1.58,1C106.83,48.25,107.11,48.53,107.11,48.73Z"/><path d="M115.69,50q0,.21-.33.21a.39.39,0,0,1-.43-.3,4.53,4.53,0,0,1,0-.59.55.55,0,0,0,0-.24,3,3,0,0,1-1.82.62,2.51,2.51,0,0,1-1.3-.38,1.22,1.22,0,0,1-.72-1c0-.41.28-.81.85-1.2a2.59,2.59,0,0,1,1.44-.54h1.49a.43.43,0,0,0,.09-.31,5.24,5.24,0,0,0-.17-1.52,1.05,1.05,0,0,0-1.06-.85,1.32,1.32,0,0,0-1,.72,2.31,2.31,0,0,0-.44,1.26V46a.11.11,0,0,1-.12.12.5.5,0,0,1-.33-.18.48.48,0,0,1-.18-.31,3,3,0,0,1,.26-1.06,3.18,3.18,0,0,1,.55-1,1.21,1.21,0,0,1,.93-.4,2.58,2.58,0,0,1,1.58.54,1.77,1.77,0,0,1,.78,1.41Zm-.79-2.39q0-.6-.93-.6a3.06,3.06,0,0,0-1.29.26,1.06,1.06,0,0,0-.71,1,.7.7,0,0,0,.38.63,1.39,1.39,0,0,0,.75.19,2,2,0,0,0,1.22-.42A1.25,1.25,0,0,0,114.9,47.65Z"/><path d="M120.09,44.26s0,.13,0,.26-.25.3-.37.3a.25.25,0,0,1-.21-.15c0-.63-.29-1-.78-1-.32,0-.64.59-.95,1.77a6.68,6.68,0,0,0-.18,1.73,10.32,10.32,0,0,0,.08,1.69l.07.19a.61.61,0,0,1,.06.22q0,.33-.45.33a.46.46,0,0,1-.51-.53,1.51,1.51,0,0,1,0-.22.68.68,0,0,0,0-.21c0-.55,0-1.38-.08-2.48s-.07-1.92-.07-2.47c0-.2,0-.33.1-.37a.79.79,0,0,1,.41-.07c.25,0,.39.09.43.27l0,.59c.26-.4.41-.63.45-.68a.92.92,0,0,1,.69-.37,1,1,0,0,1,.54.16,1.89,1.89,0,0,1,.42.47A1.25,1.25,0,0,1,120.09,44.26Z"/><path d="M124.75,48.12c0,.44-.29.83-.88,1.18a2.92,2.92,0,0,1-1.5.48q-2,0-2-2.55a8,8,0,0,1,.4-2.41q.54-1.68,1.38-1.68a2.56,2.56,0,0,1,1.58.72,2,2,0,0,1,.85,1.45,2.14,2.14,0,0,1-.75,1.62,2.43,2.43,0,0,1-1.69.69,1.14,1.14,0,0,1-.38-.15,1.18,1.18,0,0,0-.4-.15c-.13,0-.2,0-.2.12,0,1.15.38,1.73,1.14,1.73a1.71,1.71,0,0,0,1.08-.39,3.59,3.59,0,0,0,.66-.71c.19-.25.32-.37.38-.37C124.64,47.7,124.75,47.84,124.75,48.12Zm-1-2.76a1.79,1.79,0,0,0-.3-1,.92.92,0,0,0-.8-.45c-.4,0-.72.25-1,.75a2.87,2.87,0,0,0-.32,1.3,1.05,1.05,0,0,0,.28.73,1,1,0,0,0,.71.29,1.23,1.23,0,0,0,1-.52A1.76,1.76,0,0,0,123.72,45.36Z"/><path d="M22.74,64.71a1,1,0,0,1-.48.19.69.69,0,0,1-.3-.1V63.17c0-3.09-.31-4.63-.94-4.63-.38,0-.7.48-1,1.44a7.33,7.33,0,0,0-.33,2v1.5a1.56,1.56,0,0,0,.07.34,1,1,0,0,1,.07.32c0,.08-.06.16-.17.24a.5.5,0,0,1-.28.12.43.43,0,0,1-.3-.19.53.53,0,0,1-.17-.32v-3a5.75,5.75,0,0,0-.16-1.22q-.21-.93-.51-.93c-.11,0-.28.14-.5.42a5.57,5.57,0,0,0-1.12,3.54,7.11,7.11,0,0,0,.06.76,6.82,6.82,0,0,1,.06.74c0,.3-.13.45-.38.45a.4.4,0,0,1-.31-.15,2.18,2.18,0,0,1-.14-.67,6.19,6.19,0,0,1-.07-.74V59.59q0-1.53.36-1.53a.5.5,0,0,1,.31.14.43.43,0,0,1,.15.3,4.92,4.92,0,0,1-.09.82c-.06.44-.09.72-.1.83l.07.07.57-1.29c.27-.55.59-.82,1-.82s1,.56,1.35,1.68a3.08,3.08,0,0,0,.38-.75,3.75,3.75,0,0,1,.4-.81.88.88,0,0,1,.71-.36,1.34,1.34,0,0,1,.9.54,5.2,5.2,0,0,1,.91,3.53Z"/><path d="M28,65q0,.21-.33.21a.4.4,0,0,1-.44-.3s0-.23,0-.59a.54.54,0,0,0-.05-.24,3,3,0,0,1-1.81.62,2.54,2.54,0,0,1-1.31-.38,1.22,1.22,0,0,1-.72-1c0-.41.29-.81.86-1.2a2.59,2.59,0,0,1,1.44-.54h1.48a.43.43,0,0,0,.09-.31,5.31,5.31,0,0,0-.16-1.52A1.06,1.06,0,0,0,26,58.89a1.32,1.32,0,0,0-1.05.72,2.3,2.3,0,0,0-.43,1.26V61a.11.11,0,0,1-.12.12.5.5,0,0,1-.33-.18.48.48,0,0,1-.18-.31,3,3,0,0,1,.25-1.06,3.18,3.18,0,0,1,.56-1,1.21,1.21,0,0,1,.93-.4,2.55,2.55,0,0,1,1.57.54A1.77,1.77,0,0,1,28,60.18Zm-.8-2.39q0-.6-.93-.6a3.06,3.06,0,0,0-1.29.26,1.05,1.05,0,0,0-.7,1,.7.7,0,0,0,.37.63,1.39,1.39,0,0,0,.75.19,2.08,2.08,0,0,0,1.23-.42A1.26,1.26,0,0,0,27.24,62.65Z"/><path d="M33.69,55.06a5.66,5.66,0,0,1-.09.89c-.07.47-.11.76-.13.88,0,.31-.08,1.35-.15,3.1s-.09,2.49-.09,2.66a6.4,6.4,0,0,0,.28,2.27.31.31,0,0,1-.27.16.54.54,0,0,1-.33-.15.64.64,0,0,1-.24-.3,6.93,6.93,0,0,0-.09-.91,2.35,2.35,0,0,1-1.69,1.12,1.73,1.73,0,0,1-1.5-.73,2.82,2.82,0,0,1-.45-1.67,8,8,0,0,1,.46-2.61Q30,58,31,58a1.48,1.48,0,0,1,.86.32c.06,0,.29.25.7.63a40.53,40.53,0,0,0,.15-4.49.39.39,0,0,1,.29-.1.72.72,0,0,1,.7.7Zm-1.12,5.55a2.33,2.33,0,0,0-.3-1.18,1.1,1.1,0,0,0-1-.63q-.75,0-1.2,1.53a7.29,7.29,0,0,0-.36,2.17,2.83,2.83,0,0,0,.21,1.14.92.92,0,0,0,.86.63q.93,0,1.41-1.44A6.71,6.71,0,0,0,32.57,60.61Z"/><path d="M38.84,63.12c0,.44-.3.83-.89,1.18a2.92,2.92,0,0,1-1.5.48q-2,0-2-2.55a8.07,8.07,0,0,1,.41-2.41q.54-1.68,1.38-1.68a2.53,2.53,0,0,1,1.57.72,2,2,0,0,1,.86,1.45,2.14,2.14,0,0,1-.75,1.62,2.45,2.45,0,0,1-1.7.69,1.22,1.22,0,0,1-.38-.15,1.11,1.11,0,0,0-.4-.15c-.13,0-.19,0-.19.12,0,1.15.38,1.73,1.14,1.73a1.71,1.71,0,0,0,1.08-.39,3.59,3.59,0,0,0,.66-.71c.19-.25.31-.37.37-.37C38.72,62.7,38.84,62.84,38.84,63.12Zm-1-2.76a1.79,1.79,0,0,0-.3-1,.91.91,0,0,0-.79-.45,1.12,1.12,0,0,0-1,.75,2.86,2.86,0,0,0-.31,1.3,1,1,0,0,0,.28.73.94.94,0,0,0,.71.29,1.23,1.23,0,0,0,1-.52A1.75,1.75,0,0,0,37.8,60.36Z"/><path d="M45.81,59.88a1.45,1.45,0,0,1-.57.15,2.53,2.53,0,0,0-.57.1c0,.11,0,.67,0,1.67,0,.78,0,1.3,0,1.57a2.83,2.83,0,0,0,.07.53,3,3,0,0,1,.08.55.33.33,0,0,1-.15.24.45.45,0,0,1-.27.12c-.2,0-.36-.2-.48-.61a3.36,3.36,0,0,1-.12-.86V60.22c-.06,0-.28,0-.67,0s-.47-.07-.47-.34.4-.56,1.21-.53l.2-2.71a.41.41,0,0,0,0-.15.63.63,0,0,1,0-.14.21.21,0,0,1,.12-.17.41.41,0,0,1,.29-.07.49.49,0,0,1,.52.53,8.63,8.63,0,0,1-.1,1.12,9.13,9.13,0,0,0-.11,1.11,2,2,0,0,0,0,.35l.83,0q.42,0,.42.33A.44.44,0,0,1,45.81,59.88Z"/><path d="M51,61.65a4.32,4.32,0,0,1-.57,2.25,2.07,2.07,0,0,1-1.87,1.15,2,2,0,0,1-1.82-.94A3.82,3.82,0,0,1,46.28,62a5.92,5.92,0,0,1,.57-2.51c.48-1,1.09-1.51,1.83-1.51a1.74,1.74,0,0,1,.81.33A3.57,3.57,0,0,1,51,61.65Zm-.72,0a5.41,5.41,0,0,0-.25-1.72c-.25-.71-.64-1.07-1.16-1.07s-1.07.4-1.41,1.19a4.93,4.93,0,0,0-.39,2,4.13,4.13,0,0,0,.27,1.59,1.29,1.29,0,0,0,1.22.89,1.47,1.47,0,0,0,1.36-1A4.38,4.38,0,0,0,50.31,61.63Z"/><path d="M61.83,64.71a1,1,0,0,1-.48.19.69.69,0,0,1-.3-.1V63.17c0-3.09-.31-4.63-.94-4.63-.38,0-.7.48-1,1.44a7.33,7.33,0,0,0-.33,2v1.5a1.56,1.56,0,0,0,.07.34,1,1,0,0,1,.07.32c0,.08-.06.16-.17.24a.5.5,0,0,1-.28.12.43.43,0,0,1-.3-.19.53.53,0,0,1-.17-.32v-3a5.75,5.75,0,0,0-.16-1.22q-.21-.93-.51-.93c-.11,0-.28.14-.5.42a5.57,5.57,0,0,0-1.12,3.54,7.11,7.11,0,0,0,.06.76,6.82,6.82,0,0,1,.06.74c0,.3-.13.45-.38.45a.4.4,0,0,1-.31-.15,2.18,2.18,0,0,1-.14-.67,6.19,6.19,0,0,1-.07-.74V59.59q0-1.53.36-1.53a.5.5,0,0,1,.31.14.43.43,0,0,1,.15.3,4.92,4.92,0,0,1-.09.82c-.06.44-.09.72-.1.83l.07.07.57-1.29c.27-.55.59-.82,1-.82q.78,0,1.35,1.68a3.08,3.08,0,0,0,.38-.75,3.75,3.75,0,0,1,.4-.81.88.88,0,0,1,.71-.36,1.34,1.34,0,0,1,.9.54,5.2,5.2,0,0,1,.91,3.53Z"/><path d="M67.46,61.65a4.32,4.32,0,0,1-.57,2.25A2.08,2.08,0,0,1,65,65.05a2,2,0,0,1-1.81-.94A3.82,3.82,0,0,1,62.7,62a5.92,5.92,0,0,1,.57-2.51c.48-1,1.09-1.51,1.83-1.51a1.74,1.74,0,0,1,.81.33A3.58,3.58,0,0,1,67.46,61.65Zm-.72,0a5.4,5.4,0,0,0-.26-1.72c-.25-.71-.63-1.07-1.15-1.07s-1.07.4-1.41,1.19a4.93,4.93,0,0,0-.39,2,4.13,4.13,0,0,0,.27,1.59,1.28,1.28,0,0,0,1.21.89,1.48,1.48,0,0,0,1.37-1A4.38,4.38,0,0,0,66.74,61.63Z"/><path d="M75.3,64.71a1,1,0,0,1-.48.19.69.69,0,0,1-.3-.1V63.17c0-3.09-.31-4.63-.94-4.63-.38,0-.7.48-1,1.44a7.33,7.33,0,0,0-.33,2v1.5a1.56,1.56,0,0,0,.07.34,1,1,0,0,1,.07.32c0,.08-.06.16-.17.24a.5.5,0,0,1-.28.12.43.43,0,0,1-.3-.19.53.53,0,0,1-.17-.32v-3a5.75,5.75,0,0,0-.16-1.22q-.21-.93-.51-.93c-.11,0-.28.14-.5.42a5.57,5.57,0,0,0-1.12,3.54,7.11,7.11,0,0,0,.06.76,6.82,6.82,0,0,1,.06.74c0,.3-.13.45-.38.45a.4.4,0,0,1-.31-.15,2.18,2.18,0,0,1-.14-.67,6.19,6.19,0,0,1-.07-.74V59.59q0-1.53.36-1.53a.5.5,0,0,1,.31.14.43.43,0,0,1,.15.3,4.92,4.92,0,0,1-.09.82c-.06.44-.09.72-.1.83l.07.07.57-1.29c.27-.55.59-.82,1-.82s1,.56,1.35,1.68a3.08,3.08,0,0,0,.38-.75,3.75,3.75,0,0,1,.4-.81.88.88,0,0,1,.71-.36,1.34,1.34,0,0,1,.9.54,5.2,5.2,0,0,1,.91,3.53Z"/><path d="M80.42,63.73c0,.35-.27.64-.8.88a3,3,0,0,1-1.27.29,2.52,2.52,0,0,1-.93-.2,4.67,4.67,0,0,1-.92-.63c-.46-.37-.69-.63-.69-.77,0-.31.19-.45.56-.42h.09c0,.3.34.63,1,1a3,3,0,0,0,1.35.49c.44,0,.66-.15.66-.46s-.27-.43-.81-.75a8.81,8.81,0,0,1-1.52-1,2.5,2.5,0,0,1-.82-1.84,3,3,0,0,1,.4-1.49,1.35,1.35,0,0,1,1.17-.84,2.41,2.41,0,0,1,1.23.47,1.82,1.82,0,0,1,.84,1,3.3,3.3,0,0,1,.12.94,4.43,4.43,0,0,1-.21,1.28.48.48,0,0,1-.31.1,1.25,1.25,0,0,1-.33-.08c-.15-.06-.23-.11-.23-.17s.06-.07.17-.33a2.45,2.45,0,0,0,.12-.93c0-1.07-.34-1.61-1-1.61-.35,0-.63.24-.84.71a2.66,2.66,0,0,0-.27,1.16A1.9,1.9,0,0,0,78,61.86a17.45,17.45,0,0,0,1.57,1C80.13,63.25,80.42,63.53,80.42,63.73Z"/><path d="M89.09,61.65a4.32,4.32,0,0,1-.57,2.25,2.08,2.08,0,0,1-1.88,1.15,2,2,0,0,1-1.81-.94,3.82,3.82,0,0,1-.5-2.07,5.92,5.92,0,0,1,.57-2.51c.48-1,1.09-1.51,1.83-1.51a1.74,1.74,0,0,1,.81.33A3.58,3.58,0,0,1,89.09,61.65Zm-.72,0a5.4,5.4,0,0,0-.26-1.72c-.25-.71-.63-1.07-1.15-1.07s-1.07.4-1.41,1.19a4.93,4.93,0,0,0-.39,2,4.13,4.13,0,0,0,.27,1.59,1.28,1.28,0,0,0,1.21.89,1.48,1.48,0,0,0,1.37-1A4.38,4.38,0,0,0,88.37,61.63Z"/><path d="M94.59,64.68a.25.25,0,0,1-.24.16,1.27,1.27,0,0,1-.51-.21v-.91q0-5-1.24-5c-.26,0-.53.19-.83.57a5.54,5.54,0,0,0-1,4.38,7.07,7.07,0,0,1,.08.84c0,.15-.1.22-.31.22-.38,0-.58-.31-.58-.94V60.4c0-.09,0-.22,0-.39s0-.3,0-.39a3.63,3.63,0,0,0,0-.57,3.51,3.51,0,0,1,0-.55.41.41,0,0,1,.18-.28.54.54,0,0,1,.3-.16.46.46,0,0,1,.36.21c0,.65-.05,1-.05,1.14s0,.3,0,.44c.09,0,.21-.2.36-.5a3.62,3.62,0,0,1,.48-.78,1.06,1.06,0,0,1,.82-.42,1.77,1.77,0,0,1,.54.14,2,2,0,0,1,1.16,1,7.11,7.11,0,0,1,.58,3.13Z"/><path d="M107.49,54.63a.38.38,0,0,1-.11.25c-.08.08-.14.16-.2.23a.81.81,0,0,0-.09.46,3.27,3.27,0,0,1,0,.5,52,52,0,0,0-.38,6v1.42q.06,1.07.45,1.2v.15a.26.26,0,0,1-.25.17c-.63,0-1-.62-1.13-1.85a7.48,7.48,0,0,1,0-1.42l.39-4.85-1.11,4c-.68,2.12-1.34,3.18-2,3.18a1.25,1.25,0,0,1-.9-.55,3,3,0,0,1-.57-.93,25.41,25.41,0,0,1-1-3.29c-.24-1.12-.5-2.23-.76-3.34l-.09.22a32.56,32.56,0,0,0-.24,4l.15,3.43c0,.36.14.56.36.59,0,.27-.23.4-.72.4s-.67-.82-.67-2.47q0-1.12.12-3.36c.08-1.48.12-2.6.12-3.35a1.18,1.18,0,0,0-.05-.37.69.69,0,0,1,0-.17c0-.39.4-.58,1.2-.58a.85.85,0,0,1,.54.31l.13,1.38a28.06,28.06,0,0,0,.89,3.84c.58,2.06,1.05,3.09,1.42,3.09s1-.94,1.55-2.82a34.58,34.58,0,0,0,.84-3.6c.13-.38.29-.92.49-1.62a.93.93,0,0,1,1-.67.81.81,0,0,1,.39.1A.32.32,0,0,1,107.49,54.63Z"/><path d="M113,61.65a4.32,4.32,0,0,1-.57,2.25,2.08,2.08,0,0,1-1.88,1.15,2,2,0,0,1-1.81-.94,3.82,3.82,0,0,1-.5-2.07,5.92,5.92,0,0,1,.57-2.51c.48-1,1.09-1.51,1.83-1.51a1.74,1.74,0,0,1,.81.33A3.58,3.58,0,0,1,113,61.65Zm-.72,0a5.4,5.4,0,0,0-.26-1.72c-.25-.71-.63-1.07-1.15-1.07s-1.07.4-1.41,1.19a4.93,4.93,0,0,0-.39,2,4.13,4.13,0,0,0,.27,1.59,1.28,1.28,0,0,0,1.21.89,1.48,1.48,0,0,0,1.37-1A4.38,4.38,0,0,0,112.28,61.63Z"/><path d="M116.27,59.88a1.45,1.45,0,0,1-.57.15,2.53,2.53,0,0,0-.57.1c0,.11,0,.67,0,1.67,0,.78,0,1.3,0,1.57a3.08,3.08,0,0,0,.08.53,2.81,2.81,0,0,1,.07.55.33.33,0,0,1-.15.24.45.45,0,0,1-.27.12c-.2,0-.36-.2-.48-.61a3.36,3.36,0,0,1-.12-.86V60.22c-.06,0-.28,0-.67,0s-.47-.07-.47-.34.41-.56,1.22-.53l.19-2.71a.64.64,0,0,0,0-.15.33.33,0,0,1,0-.14.21.21,0,0,1,.12-.17.38.38,0,0,1,.28-.07c.35,0,.53.21.53.53a9.07,9.07,0,0,1-.11,1.12,8.65,8.65,0,0,0-.1,1.11,2,2,0,0,0,0,.35l.82,0q.42,0,.42.33A.44.44,0,0,1,116.27,59.88Z"/><path d="M121,65a.64.64,0,0,1-.45.12.48.48,0,0,1-.34-.21V62.86c0-2.54-.43-3.81-1.27-3.81a1,1,0,0,0-.89.63,2.18,2.18,0,0,0-.32,1.11,1,1,0,0,1,0,.19.58.58,0,0,0,0,.19v1.92a4.94,4.94,0,0,0,.07.73,5.31,5.31,0,0,1,.08.72q0,.24-.36.24a.52.52,0,0,1-.43-.24.86.86,0,0,1-.17-.5l.09-9.23a.57.57,0,0,1,0-.18q0-.27.3-.27a.84.84,0,0,1,.44.2c.2.13.29.25.29.34a5.13,5.13,0,0,1-.14,1,5,5,0,0,0-.14,1s0,.69,0,2a1.55,1.55,0,0,1,.85-.49,3.07,3.07,0,0,1,1.16.28c.87.36,1.3,1.31,1.3,2.85Z"/><path d="M126.27,63.12c0,.44-.29.83-.88,1.18a2.92,2.92,0,0,1-1.5.48q-2,0-2-2.55a8,8,0,0,1,.4-2.41q.54-1.68,1.38-1.68a2.56,2.56,0,0,1,1.58.72,2,2,0,0,1,.85,1.45,2.14,2.14,0,0,1-.75,1.62,2.43,2.43,0,0,1-1.69.69,1.14,1.14,0,0,1-.38-.15,1.18,1.18,0,0,0-.4-.15c-.13,0-.2,0-.2.12,0,1.15.38,1.73,1.14,1.73a1.71,1.71,0,0,0,1.08-.39,3.59,3.59,0,0,0,.66-.71c.19-.25.32-.37.38-.37C126.16,62.7,126.27,62.84,126.27,63.12Zm-1-2.76a1.79,1.79,0,0,0-.3-1,.92.92,0,0,0-.8-.45c-.4,0-.72.25-1,.75a2.87,2.87,0,0,0-.32,1.3,1.05,1.05,0,0,0,.28.73,1,1,0,0,0,.71.29,1.23,1.23,0,0,0,1-.52A1.76,1.76,0,0,0,125.24,60.36Z"/><path d="M130.28,59.26s0,.13,0,.26-.25.3-.37.3a.25.25,0,0,1-.21-.15c0-.63-.29-1-.78-1-.32,0-.64.59-1,1.77a6.68,6.68,0,0,0-.18,1.73,10.32,10.32,0,0,0,.08,1.69l.07.19a.61.61,0,0,1,.06.22q0,.33-.45.33a.46.46,0,0,1-.51-.53,1.51,1.51,0,0,1,0-.22.68.68,0,0,0,0-.21c0-.55,0-1.38-.08-2.48s-.07-1.92-.07-2.47c0-.2,0-.33.1-.37a.79.79,0,0,1,.41-.07c.25,0,.39.09.43.27l0,.59c.26-.4.41-.63.45-.68a.92.92,0,0,1,.69-.37,1,1,0,0,1,.54.16,1.89,1.89,0,0,1,.42.47A1.25,1.25,0,0,1,130.28,59.26Z"/><path d="M132,54.57a.55.55,0,0,1-.1.18c-.06.11-.1.18-.11.21a2.64,2.64,0,0,0-.09.81c0,.13,0,.32,0,.57s0,.45,0,.58c0,.38-.14.57-.43.57s-.3-.05-.35-.15c0-1.15,0-1.78,0-1.9a4,4,0,0,1,.06-.6c.06-.31.13-.48.2-.5a.35.35,0,0,1,.16,0C131.8,54.31,132,54.4,132,54.57Z"/><path d="M137.3,63.73c0,.35-.27.64-.8.88a3,3,0,0,1-1.27.29,2.52,2.52,0,0,1-.93-.2,4.67,4.67,0,0,1-.92-.63c-.46-.37-.69-.63-.69-.77,0-.31.19-.45.56-.42h.09c0,.3.34.63,1,1a3,3,0,0,0,1.35.49c.44,0,.66-.15.66-.46s-.27-.43-.81-.75a8.81,8.81,0,0,1-1.52-1,2.5,2.5,0,0,1-.82-1.84,3,3,0,0,1,.4-1.49,1.35,1.35,0,0,1,1.17-.84,2.41,2.41,0,0,1,1.23.47,1.82,1.82,0,0,1,.84,1,3.3,3.3,0,0,1,.12.94,4.43,4.43,0,0,1-.21,1.28.48.48,0,0,1-.31.1,1.25,1.25,0,0,1-.33-.08c-.15-.06-.23-.11-.23-.17s.06-.07.17-.33a2.45,2.45,0,0,0,.12-.93c0-1.07-.34-1.61-1-1.61-.35,0-.63.24-.84.71a2.66,2.66,0,0,0-.27,1.16,1.9,1.9,0,0,0,.86,1.42,17.45,17.45,0,0,0,1.57,1C137,63.25,137.3,63.53,137.3,63.73Z"/><path d="M27.79,73.32a9.35,9.35,0,0,1-1,4.27Q25.55,80,23.49,80a2.22,2.22,0,0,1-1.41-.52q-.25.33-.33.33a.62.62,0,0,1-.33-.11,7.84,7.84,0,0,1-.21-2.25c0-.84,0-2.09,0-3.74s.05-2.91.05-3.76v-.24q0-.33.36-.33a.74.74,0,0,1,.39.14.4.4,0,0,1,.21.31,1.23,1.23,0,0,1-.11.44,1.23,1.23,0,0,0-.1.43v.59a2.27,2.27,0,0,0,.52-.74,3.21,3.21,0,0,1,.7-.93,2.1,2.1,0,0,1,1.42-.48,2.66,2.66,0,0,1,2.43,1.34A5.3,5.3,0,0,1,27.79,73.32Zm-.88-.08A5.69,5.69,0,0,0,26.52,71a1.78,1.78,0,0,0-1.71-1.26,2.24,2.24,0,0,0-1.67,1,5.19,5.19,0,0,0-.94,1.82A7,7,0,0,0,22,74.43v3.1a2,2,0,0,0,.37,1.22,1.31,1.31,0,0,0,1.11.57,2.69,2.69,0,0,0,2.15-1.26,5.84,5.84,0,0,0,1.08-2.37A12.34,12.34,0,0,0,26.91,73.24Z"/><path d="M33.28,80q0,.21-.33.21a.39.39,0,0,1-.43-.3,4.53,4.53,0,0,1,0-.59.55.55,0,0,0,0-.24,3,3,0,0,1-1.82.62,2.51,2.51,0,0,1-1.3-.38,1.22,1.22,0,0,1-.72-1c0-.41.28-.81.85-1.2a2.59,2.59,0,0,1,1.44-.54H32.4a.43.43,0,0,0,.09-.31,5.24,5.24,0,0,0-.17-1.52,1.05,1.05,0,0,0-1.06-.85,1.32,1.32,0,0,0-1.05.72,2.31,2.31,0,0,0-.44,1.26V76a.11.11,0,0,1-.12.12.5.5,0,0,1-.33-.18.48.48,0,0,1-.18-.31,3,3,0,0,1,.26-1.06,3.18,3.18,0,0,1,.55-1,1.21,1.21,0,0,1,.93-.4,2.58,2.58,0,0,1,1.58.54,1.77,1.77,0,0,1,.78,1.41Zm-.79-2.39q0-.6-.93-.6a3.06,3.06,0,0,0-1.29.26,1.06,1.06,0,0,0-.71,1,.7.7,0,0,0,.38.63,1.39,1.39,0,0,0,.75.19,2,2,0,0,0,1.22-.42A1.27,1.27,0,0,0,32.49,77.65Z"/><path d="M38.94,73.72q-.13.66-.24,1.32a7.07,7.07,0,0,0-.14,1.32v4.7A2.09,2.09,0,0,1,38,82.65a2.19,2.19,0,0,1-1.62.6,3.19,3.19,0,0,1-1.25-.3A2.21,2.21,0,0,1,34,82.12a.56.56,0,0,1-.08-.27.37.37,0,0,1,.42-.43.41.41,0,0,1,.2.06L35,82a1.84,1.84,0,0,0,1.29.47,1.32,1.32,0,0,0,1.32-.69,4.39,4.39,0,0,0,.19-1.58,5.71,5.71,0,0,0-.06-.6,2.54,2.54,0,0,1,0-.66,4.42,4.42,0,0,1-.6.5,1.32,1.32,0,0,1-.72.21,1.73,1.73,0,0,1-1.54-.8,3.06,3.06,0,0,1-.47-1.75q0-2,.06-3.42A.49.49,0,0,1,35,73.2c.38,0,.55.06.51.19a12.94,12.94,0,0,0-.29,3.5c0,1.4.4,2.1,1.19,2.1.49,0,.88-.38,1.17-1.13a4.66,4.66,0,0,0,.31-1.75V74.4c0-.17,0-.39,0-.65s.18-.38.49-.36S39,73.53,38.94,73.72Z"/><path d="M43.9,73.74a3.62,3.62,0,0,1-.13.81,4.12,4.12,0,0,0-.12.81v3.31a3.77,3.77,0,0,0,.15.9.19.19,0,0,1-.17.12c-.49,0-.73-.23-.73-.7V73.48a.76.76,0,0,1,.37-.1.8.8,0,0,1,.38.1C43.82,73.55,43.9,73.64,43.9,73.74Zm.29-2.25q0,.51-.48.51a.79.79,0,0,1-.53-.21.63.63,0,0,1-.24-.48.45.45,0,0,1,.51-.51A.76.76,0,0,1,44,71,.67.67,0,0,1,44.19,71.49Z"/><path d="M49.69,79.68a.26.26,0,0,1-.24.16,1.27,1.27,0,0,1-.51-.21v-.91q0-5-1.24-5c-.26,0-.53.19-.83.57a5.46,5.46,0,0,0-1.14,3.55,6.76,6.76,0,0,0,.08.83,5.73,5.73,0,0,1,.09.84c0,.15-.1.22-.31.22-.38,0-.58-.31-.58-.94V75.4c0-.09,0-.22,0-.39s0-.3,0-.39a5.49,5.49,0,0,0,0-.57,3.51,3.51,0,0,1-.05-.55.41.41,0,0,1,.18-.28.54.54,0,0,1,.3-.16.46.46,0,0,1,.36.21c0,.65-.05,1-.05,1.14s0,.3,0,.44c.09,0,.21-.2.36-.5a3.62,3.62,0,0,1,.48-.78,1.06,1.06,0,0,1,.82-.42,1.77,1.77,0,0,1,.54.14,2,2,0,0,1,1.16,1,7.11,7.11,0,0,1,.58,3.13Z"/><path d="M56.74,74.88a1.45,1.45,0,0,1-.57.15,2.53,2.53,0,0,0-.57.1c0,.11,0,.67,0,1.67,0,.78,0,1.3,0,1.57a2.83,2.83,0,0,0,.07.53,3,3,0,0,1,.08.55.33.33,0,0,1-.15.24.45.45,0,0,1-.27.12c-.2,0-.36-.2-.48-.61a3.36,3.36,0,0,1-.12-.86V75.22a1.36,1.36,0,0,0-.68,0c-.31,0-.46-.07-.46-.34s.4-.56,1.21-.53l.2-2.71a.85.85,0,0,0,0-.15.33.33,0,0,1,0-.14.21.21,0,0,1,.12-.17.41.41,0,0,1,.29-.07.49.49,0,0,1,.52.53,8.63,8.63,0,0,1-.1,1.12,9.13,9.13,0,0,0-.11,1.11,2,2,0,0,0,0,.35l.83,0q.42,0,.42.33A.44.44,0,0,1,56.74,74.88Z"/><path d="M61.5,80a.64.64,0,0,1-.45.12.5.5,0,0,1-.35-.21V77.86c0-2.54-.42-3.81-1.27-3.81a1,1,0,0,0-.89.63,2.17,2.17,0,0,0-.31,1.11,1.3,1.3,0,0,1,0,.19.58.58,0,0,0,0,.19v1.92a5.26,5.26,0,0,0,.08.73,5,5,0,0,1,.07.72q0,.24-.36.24a.52.52,0,0,1-.43-.24.86.86,0,0,1-.17-.5l.09-9.23a.57.57,0,0,1,0-.18q0-.27.3-.27a.84.84,0,0,1,.44.2c.2.13.3.25.3.34a5.31,5.31,0,0,1-.15,1,5.81,5.81,0,0,0-.14,1s0,.69,0,2a1.56,1.56,0,0,1,.86-.49,3,3,0,0,1,1.15.28c.87.36,1.31,1.31,1.31,2.85Z"/><path d="M66.75,78.12c0,.44-.3.83-.89,1.18a2.92,2.92,0,0,1-1.5.48q-2,0-2-2.55a8.07,8.07,0,0,1,.41-2.41q.54-1.68,1.38-1.68a2.53,2.53,0,0,1,1.57.72,2,2,0,0,1,.86,1.45,2.14,2.14,0,0,1-.75,1.62,2.45,2.45,0,0,1-1.7.69,1.14,1.14,0,0,1-.38-.15,1.18,1.18,0,0,0-.4-.15c-.13,0-.19,0-.19.12,0,1.15.38,1.73,1.14,1.73a1.71,1.71,0,0,0,1.08-.39,3.59,3.59,0,0,0,.66-.71c.19-.25.31-.37.37-.37C66.63,77.7,66.75,77.84,66.75,78.12Zm-1-2.76a1.79,1.79,0,0,0-.3-1,.91.91,0,0,0-.79-.45,1.12,1.12,0,0,0-1,.75,2.86,2.86,0,0,0-.31,1.3,1,1,0,0,0,.27.73,1,1,0,0,0,.72.29,1.23,1.23,0,0,0,1-.52A1.75,1.75,0,0,0,65.71,75.36Z"/><path d="M76.51,74.07a13.94,13.94,0,0,1-.28,2.67,5.19,5.19,0,0,1-.92,2.43A2.28,2.28,0,0,1,73.6,80a2.69,2.69,0,0,1-1.8-.54,3,3,0,0,1-1-1.92,17.11,17.11,0,0,1-.09-2.25c0-.49,0-1.23.09-2.2s.09-1.7.09-2.18a1.29,1.29,0,0,0-.09-.39,1.15,1.15,0,0,1-.09-.36c0-.1.08-.21.24-.32a.82.82,0,0,1,.42-.16,2.23,2.23,0,0,0,.51,0c.13,0,.18.15.16.35s-.14.64-.22,1.09c-.19,1.86-.29,3-.29,3.43v2A4,4,0,0,0,72,78.25a1.54,1.54,0,0,0,1.42,1c1,0,1.75-1,2.12-3a25.78,25.78,0,0,0,.27-4.28l0-.63a4.62,4.62,0,0,0,0-.66,1.76,1.76,0,0,0-.15-.6,1.5,1.5,0,0,1-.12-.27.62.62,0,0,1,.11-.34.3.3,0,0,1,.26-.19.87.87,0,0,1,.4.14c.15.1.23.2.23.3Z"/><path d="M82.17,79.68a.26.26,0,0,1-.24.16,1.17,1.17,0,0,1-.51-.21v-.91c0-3.32-.42-5-1.24-5q-.39,0-.84.57a5.45,5.45,0,0,0-1.13,3.55,5.21,5.21,0,0,0,.08.83,7.07,7.07,0,0,1,.08.84c0,.15-.1.22-.3.22-.39,0-.58-.31-.58-.94V75.4c0-.09,0-.22,0-.39s0-.3,0-.39a3.92,3.92,0,0,0-.06-.57,5.44,5.44,0,0,1,0-.55.4.4,0,0,1,.19-.28.5.5,0,0,1,.29-.16.46.46,0,0,1,.36.21c0,.65,0,1,0,1.14s0,.3,0,.44c.09,0,.21-.2.36-.5a3.62,3.62,0,0,1,.48-.78,1.08,1.08,0,0,1,.83-.42,1.77,1.77,0,0,1,.54.14,2,2,0,0,1,1.15,1,7.1,7.1,0,0,1,.59,3.13Z"/><path d="M84.24,73.74a4.32,4.32,0,0,1-.13.81,3.62,3.62,0,0,0-.13.81v3.31a3.77,3.77,0,0,0,.15.9.18.18,0,0,1-.16.12c-.49,0-.74-.23-.74-.7V73.48a.8.8,0,0,1,.38-.1.76.76,0,0,1,.37.1C84.15,73.55,84.24,73.64,84.24,73.74Zm.28-2.25q0,.51-.48.51a.77.77,0,0,1-.52-.21.63.63,0,0,1-.24-.48.45.45,0,0,1,.51-.51.72.72,0,0,1,.51.19A.63.63,0,0,1,84.52,71.49Z"/><path d="M87.79,74.88a1.45,1.45,0,0,1-.57.15,2.53,2.53,0,0,0-.57.1c0,.11,0,.67,0,1.67,0,.78,0,1.3,0,1.57a2.83,2.83,0,0,0,.07.53,3,3,0,0,1,.08.55.33.33,0,0,1-.15.24.45.45,0,0,1-.27.12c-.2,0-.36-.2-.48-.61a3.36,3.36,0,0,1-.12-.86V75.22a1.36,1.36,0,0,0-.68,0c-.31,0-.46-.07-.46-.34s.4-.56,1.21-.53l.2-2.71a.85.85,0,0,0,0-.15.33.33,0,0,1,0-.14.21.21,0,0,1,.12-.17.41.41,0,0,1,.29-.07.49.49,0,0,1,.52.53,8.63,8.63,0,0,1-.1,1.12,9.13,9.13,0,0,0-.11,1.11,2,2,0,0,0,0,.35l.83,0q.42,0,.42.33A.44.44,0,0,1,87.79,74.88Z"/><path d="M92.58,78.12c0,.44-.3.83-.89,1.18a2.92,2.92,0,0,1-1.5.48q-2,0-2-2.55a8.07,8.07,0,0,1,.41-2.41q.54-1.68,1.38-1.68a2.53,2.53,0,0,1,1.57.72,2,2,0,0,1,.86,1.45,2.14,2.14,0,0,1-.75,1.62,2.45,2.45,0,0,1-1.7.69,1.14,1.14,0,0,1-.38-.15,1.18,1.18,0,0,0-.4-.15c-.13,0-.19,0-.19.12,0,1.15.38,1.73,1.14,1.73a1.71,1.71,0,0,0,1.08-.39,3.59,3.59,0,0,0,.66-.71c.19-.25.31-.37.37-.37C92.46,77.7,92.58,77.84,92.58,78.12Zm-1-2.76a1.79,1.79,0,0,0-.3-1,.91.91,0,0,0-.79-.45,1.12,1.12,0,0,0-1,.75,2.86,2.86,0,0,0-.31,1.3,1,1,0,0,0,.27.73,1,1,0,0,0,.72.29,1.23,1.23,0,0,0,1-.52A1.75,1.75,0,0,0,91.54,75.36Z"/><path d="M98,70.06a5.66,5.66,0,0,1-.09.89c-.07.47-.12.76-.14.88,0,.31-.08,1.35-.15,3.1-.06,1.6-.09,2.49-.09,2.66a6.35,6.35,0,0,0,.29,2.27.31.31,0,0,1-.27.16.56.56,0,0,1-.34-.15.61.61,0,0,1-.23-.3,6.93,6.93,0,0,0-.09-.91,2.36,2.36,0,0,1-1.7,1.12,1.73,1.73,0,0,1-1.5-.73,2.82,2.82,0,0,1-.45-1.67,8,8,0,0,1,.47-2.61Q94.32,73,95.31,73a1.45,1.45,0,0,1,.85.32c.06,0,.3.25.71.63A40.53,40.53,0,0,0,97,69.46a.37.37,0,0,1,.28-.1.69.69,0,0,1,.5.21A.67.67,0,0,1,98,70.06Zm-1.13,5.55a2.33,2.33,0,0,0-.3-1.18,1.08,1.08,0,0,0-1-.63q-.75,0-1.2,1.53a7.29,7.29,0,0,0-.36,2.17,2.83,2.83,0,0,0,.21,1.14.91.91,0,0,0,.85.63q.93,0,1.41-1.44A6.71,6.71,0,0,0,96.88,75.61Z"/><path d="M108,78.33q0,.84-1,1.29a4.52,4.52,0,0,1-1.8.36,6,6,0,0,1-1.93-.36c-.9-.31-1.35-.7-1.35-1.16a.32.32,0,0,1,.36-.37,1.08,1.08,0,0,1,.66.33c.35.33.54.5.57.52a3.44,3.44,0,0,0,1.84.38q1.71,0,1.71-.9c0-.28-.24-.63-.73-1l-1.13-.81a16.14,16.14,0,0,1-2-1.59,3.31,3.31,0,0,1-1-2.34,3.88,3.88,0,0,1,.71-2.25,2.31,2.31,0,0,1,2-1.14,2.2,2.2,0,0,1,1.73.86,3.81,3.81,0,0,1,.82,1.81c0,.24.05.61.12,1.1l.12.54c0,.8-.19,1.2-.58,1.2a.43.43,0,0,1-.31-.18.47.47,0,0,1-.16-.32,3.76,3.76,0,0,1,.08-.61,3.14,3.14,0,0,0,.09-.62,4.74,4.74,0,0,0-.33-1.83c-.29-.72-.73-1.08-1.31-1.08a1.8,1.8,0,0,0-1.47.77,2.75,2.75,0,0,0-.58,1.69,3.11,3.11,0,0,0,1.28,2.34l2.38,1.73C107.56,77.27,108,77.83,108,78.33Z"/><path d="M111.79,74.88a1.45,1.45,0,0,1-.57.15,2.53,2.53,0,0,0-.57.1c0,.11,0,.67,0,1.67,0,.78,0,1.3,0,1.57a2.83,2.83,0,0,0,.07.53,3,3,0,0,1,.08.55.33.33,0,0,1-.15.24.45.45,0,0,1-.27.12c-.2,0-.36-.2-.48-.61a3.36,3.36,0,0,1-.12-.86V75.22a1.36,1.36,0,0,0-.68,0c-.31,0-.46-.07-.46-.34s.4-.56,1.21-.53l.2-2.71a.85.85,0,0,0,0-.15.33.33,0,0,1,0-.14.21.21,0,0,1,.12-.17.41.41,0,0,1,.29-.07.49.49,0,0,1,.52.53,8.63,8.63,0,0,1-.1,1.12,9.13,9.13,0,0,0-.11,1.11,2,2,0,0,0,0,.35l.83,0q.42,0,.42.33A.44.44,0,0,1,111.79,74.88Z"/><path d="M116.59,80q0,.21-.33.21a.39.39,0,0,1-.43-.3,4.53,4.53,0,0,1,0-.59.55.55,0,0,0,0-.24,3,3,0,0,1-1.82.62,2.51,2.51,0,0,1-1.3-.38,1.22,1.22,0,0,1-.72-1c0-.41.28-.81.85-1.2a2.59,2.59,0,0,1,1.44-.54h1.49a.43.43,0,0,0,.09-.31,5.24,5.24,0,0,0-.17-1.52,1.05,1.05,0,0,0-1.06-.85,1.32,1.32,0,0,0-1,.72,2.31,2.31,0,0,0-.44,1.26V76a.11.11,0,0,1-.12.12.5.5,0,0,1-.33-.18.48.48,0,0,1-.18-.31,3,3,0,0,1,.26-1.06,3.18,3.18,0,0,1,.55-1,1.21,1.21,0,0,1,.93-.4,2.58,2.58,0,0,1,1.58.54,1.77,1.77,0,0,1,.78,1.41Zm-.79-2.39q0-.6-.93-.6a3.06,3.06,0,0,0-1.29.26,1.06,1.06,0,0,0-.71,1,.7.7,0,0,0,.38.63,1.39,1.39,0,0,0,.75.19,2,2,0,0,0,1.22-.42A1.27,1.27,0,0,0,115.8,77.65Z"/><path d="M120.21,74.88a1.45,1.45,0,0,1-.57.15,2.53,2.53,0,0,0-.57.1c0,.11,0,.67,0,1.67,0,.78,0,1.3,0,1.57a3.08,3.08,0,0,0,.08.53,2.81,2.81,0,0,1,.07.55.33.33,0,0,1-.15.24.45.45,0,0,1-.27.12c-.2,0-.36-.2-.48-.61a3.36,3.36,0,0,1-.12-.86V75.22c-.06,0-.28,0-.67,0s-.47-.07-.47-.34.41-.56,1.22-.53l.19-2.71a.41.41,0,0,0,0-.15.5.5,0,0,1,0-.14.21.21,0,0,1,.12-.17.38.38,0,0,1,.28-.07c.35,0,.53.21.53.53a9.07,9.07,0,0,1-.11,1.12,8.65,8.65,0,0,0-.1,1.11,2,2,0,0,0,0,.35l.82,0q.42,0,.42.33A.44.44,0,0,1,120.21,74.88Z"/><path d="M125,78.12c0,.44-.29.83-.88,1.18a2.92,2.92,0,0,1-1.5.48q-2,0-2-2.55a8,8,0,0,1,.4-2.41q.54-1.68,1.38-1.68a2.56,2.56,0,0,1,1.58.72,2,2,0,0,1,.85,1.45,2.14,2.14,0,0,1-.75,1.62,2.43,2.43,0,0,1-1.69.69,1.24,1.24,0,0,1-.39-.15,1.09,1.09,0,0,0-.39-.15c-.13,0-.2,0-.2.12,0,1.15.38,1.73,1.14,1.73a1.71,1.71,0,0,0,1.08-.39,3.59,3.59,0,0,0,.66-.71c.19-.25.32-.37.38-.37C124.88,77.7,125,77.84,125,78.12Zm-1-2.76a1.79,1.79,0,0,0-.3-1,.92.92,0,0,0-.8-.45c-.4,0-.72.25-1,.75a2.87,2.87,0,0,0-.32,1.3,1,1,0,0,0,.28.73.94.94,0,0,0,.71.29,1.23,1.23,0,0,0,1-.52A1.76,1.76,0,0,0,124,75.36Z"/><path d="M130,78.73c0,.35-.26.64-.79.88a3.08,3.08,0,0,1-1.28.29,2.52,2.52,0,0,1-.93-.2,4.69,4.69,0,0,1-.91-.63c-.46-.37-.69-.63-.69-.77,0-.31.18-.45.55-.42h.09c0,.3.34.63,1,1a3,3,0,0,0,1.35.49c.44,0,.66-.15.66-.46s-.27-.43-.81-.75a8.62,8.62,0,0,1-1.51-1,2.52,2.52,0,0,1-.83-1.84,3,3,0,0,1,.41-1.49,1.35,1.35,0,0,1,1.17-.84,2.41,2.41,0,0,1,1.23.47,1.82,1.82,0,0,1,.84,1,3.3,3.3,0,0,1,.12.94,4.43,4.43,0,0,1-.21,1.28.51.51,0,0,1-.32.1,1.25,1.25,0,0,1-.33-.08c-.15-.06-.22-.11-.22-.17s0-.07.16-.33a2.45,2.45,0,0,0,.12-.93c0-1.07-.33-1.61-1-1.61-.35,0-.63.24-.84.71a2.66,2.66,0,0,0-.27,1.16,1.88,1.88,0,0,0,.85,1.42,18.28,18.28,0,0,0,1.58,1C129.75,78.25,130,78.53,130,78.73Z"/><path d="M132.1,79.29c0,.14-.09.26-.28.36a1,1,0,0,1-.47.12.64.64,0,0,1-.45-.18.55.55,0,0,1-.19-.42.45.45,0,0,1,.52-.51,1.09,1.09,0,0,1,.59.17A.51.51,0,0,1,132.1,79.29Z"/></g></g></g></svg>