<svg xmlns="http://www.w3.org/2000/svg" viewBox="0 0 130.32 112.06"><defs><style>.cls-1{fill:#fff;}.cls-2{fill:none;stroke:#6eccb2;stroke-miterlimit:10;stroke-width:1.97px;}</style></defs><title>7</title><g id="Layer_2" data-name="Layer 2"><g id="Facts"><g id="_7" data-name="7"><path class="cls-1" d="M129.34,56c0,2.1-2.49,4-2.76,6.06s1.61,4.59,1.06,6.59-3.46,3.2-4.26,5.12.37,4.83-.67,6.63-4.15,2.24-5.41,3.91-.78,4.76-2.21,6.29-4.55,1.23-6.15,2.59-2.13,4.75-4,6-5.07.44-7.12,1.53-3.1,4.17-5.25,5-5-.62-7.28,0-3.87,3.47-6.15,3.9-4.84-1.58-7.15-1.37-4.45,2.67-6.78,2.67-4.51-2.46-6.77-2.67-4.92,1.8-7.16,1.37-4-3.26-6.14-3.9-5.18.82-7.29,0-3.24-4-5.25-5-5.23-.26-7.12-1.53-2.32-4.57-4.05-6-4.73-1.09-6.14-2.59S14.26,86,13,84.34s-4.37-2.12-5.4-3.91S7.75,75.71,7,73.8s-3.72-3.12-4.27-5.13S4,64.17,3.75,62.09,1,58.13,1,56,3.47,52,3.75,50s-1.61-4.58-1.07-6.58S6.14,40.17,7,38.26s-.38-4.83.67-6.64,4.14-2.23,5.4-3.9.78-4.77,2.22-6.29,4.55-1.23,6.14-2.6,2.13-4.74,4.05-6,5.07-.44,7.12-1.53,3.1-4.17,5.25-5,5.06.61,7.29,0S49,2.71,51.23,2.28s4.84,1.59,7.16,1.37S62.84,1,65.16,1s4.52,2.46,6.78,2.67,4.92-1.79,7.15-1.37,4,3.26,6.15,3.9,5.17-.81,7.28,0,3.24,4,5.25,5,5.23.25,7.12,1.53,2.32,4.57,4,6,4.73,1.1,6.15,2.6,1,4.63,2.21,6.29,4.37,2.11,5.41,3.91-.14,4.71.67,6.63,3.71,3.11,4.26,5.12-1.34,4.51-1.06,6.58S129.34,53.92,129.34,56Z"/><path class="cls-2" d="M129.34,56c0,2.1-2.49,4-2.76,6.06s1.61,4.59,1.06,6.59-3.46,3.2-4.26,5.12.37,4.83-.67,6.63-4.15,2.24-5.41,3.91-.78,4.76-2.21,6.29-4.55,1.23-6.15,2.59-2.13,4.75-4,6-5.07.44-7.12,1.53-3.1,4.17-5.25,5-5-.62-7.28,0-3.87,3.47-6.15,3.9-4.84-1.58-7.15-1.37-4.45,2.67-6.78,2.67-4.51-2.46-6.77-2.67-4.92,1.8-7.16,1.37-4-3.26-6.14-3.9-5.18.82-7.29,0-3.24-4-5.25-5-5.23-.26-7.12-1.53-2.32-4.57-4.05-6-4.73-1.09-6.14-2.59S14.26,86,13,84.34s-4.37-2.12-5.4-3.91S7.75,75.71,7,73.8s-3.72-3.12-4.27-5.13S4,64.17,3.75,62.09,1,58.13,1,56,3.47,52,3.75,50s-1.61-4.58-1.07-6.58S6.14,40.17,7,38.26s-.38-4.83.67-6.64,4.14-2.23,5.4-3.9.78-4.77,2.22-6.29,4.55-1.23,6.14-2.6,2.13-4.74,4.05-6,5.07-.44,7.12-1.53,3.1-4.17,5.25-5,5.06.61,7.29,0S49,2.71,51.23,2.28s4.84,1.59,7.16,1.37S62.84,1,65.16,1s4.52,2.46,6.78,2.67,4.92-1.79,7.15-1.37,4,3.26,6.15,3.9,5.17-.81,7.28,0,3.24,4,5.25,5,5.23.25,7.12,1.53,2.32,4.57,4,6,4.73,1.1,6.15,2.6,1,4.63,2.21,6.29,4.37,2.11,5.41,3.91-.14,4.71.67,6.63,3.71,3.11,4.26,5.12-1.34,4.51-1.06,6.58S129.34,53.92,129.34,56Z"/><path d="M43.91,21a.37.37,0,0,1-.12.26c-.07.08-.14.15-.2.23a.79.79,0,0,0-.09.46,3.11,3.11,0,0,1,0,.49,51.83,51.83,0,0,0-.37,6v1.43q.06,1.07.45,1.2v.15a.26.26,0,0,1-.26.16c-.63,0-1-.61-1.12-1.84a7.58,7.58,0,0,1,0-1.43l.39-4.84-1.11,4c-.67,2.12-1.34,3.18-2,3.18a1.25,1.25,0,0,1-.89-.56A3,3,0,0,1,38,29a25.19,25.19,0,0,1-1-3.28c-.25-1.12-.5-2.24-.76-3.35l-.09.23a32.43,32.43,0,0,0-.24,4L36.11,30c0,.36.14.55.36.58,0,.27-.23.41-.72.41s-.68-.83-.68-2.48c0-.75,0-1.87.12-3.35s.12-2.6.12-3.35a1.29,1.29,0,0,0,0-.38,1.07,1.07,0,0,1-.05-.16c0-.39.4-.59,1.2-.59A.87.87,0,0,1,37,21l.14,1.38A27.7,27.7,0,0,0,38,26.25c.58,2.06,1.06,3.09,1.43,3.09s1-.94,1.54-2.82a34.58,34.58,0,0,0,.84-3.6c.13-.38.3-.92.5-1.62a.93.93,0,0,1,1-.68.82.82,0,0,1,.39.11A.32.32,0,0,1,43.91,21Z"/><path d="M49.41,28a4.32,4.32,0,0,1-.57,2.25A2.08,2.08,0,0,1,47,31.44a2,2,0,0,1-1.82-1,3.82,3.82,0,0,1-.49-2.07,5.88,5.88,0,0,1,.57-2.5c.48-1,1.09-1.52,1.83-1.52a1.74,1.74,0,0,1,.81.33A3.57,3.57,0,0,1,49.41,28Zm-.72,0a5.48,5.48,0,0,0-.25-1.73c-.25-.71-.64-1.06-1.16-1.06s-1.07.39-1.41,1.18a5,5,0,0,0-.39,2A4.13,4.13,0,0,0,45.75,30a1.28,1.28,0,0,0,1.22.88,1.47,1.47,0,0,0,1.36-1A4.33,4.33,0,0,0,48.69,28Z"/><path d="M52.68,26.26a1.45,1.45,0,0,1-.57.15,2.28,2.28,0,0,0-.57.11c0,.11,0,.66,0,1.66,0,.78,0,1.31,0,1.58a2.75,2.75,0,0,0,.07.52,3.08,3.08,0,0,1,.08.56.33.33,0,0,1-.15.24.45.45,0,0,1-.27.12c-.2,0-.36-.21-.48-.62a3.28,3.28,0,0,1-.12-.85V26.61a1.36,1.36,0,0,0-.68,0c-.31,0-.46-.08-.46-.35s.4-.55,1.21-.52L51,23a.63.63,0,0,0,0-.14.38.38,0,0,1,0-.14.24.24,0,0,1,.12-.18.46.46,0,0,1,.29-.06c.35,0,.52.2.52.52a8.75,8.75,0,0,1-.1,1.13,9.13,9.13,0,0,0-.11,1.11,1.87,1.87,0,0,0,0,.34l.83,0q.42,0,.42.33A.43.43,0,0,1,52.68,26.26Z"/><path d="M57.44,31.39a.64.64,0,0,1-.45.12.5.5,0,0,1-.35-.21V29.25c0-2.54-.42-3.81-1.27-3.81a1,1,0,0,0-.89.63,2.17,2.17,0,0,0-.31,1.11,1,1,0,0,1,0,.18.63.63,0,0,0,0,.19v1.92a5.37,5.37,0,0,0,.08.74,5,5,0,0,1,.07.72q0,.24-.36.24a.52.52,0,0,1-.43-.24.88.88,0,0,1-.17-.5l.09-9.24a.57.57,0,0,1,0-.18q0-.27.3-.27a.93.93,0,0,1,.44.2c.2.14.3.25.3.34a5.21,5.21,0,0,1-.15,1,5.81,5.81,0,0,0-.14,1s0,.69,0,2a1.6,1.6,0,0,1,.86-.5,3.07,3.07,0,0,1,1.15.29c.87.36,1.31,1.31,1.31,2.85Z"/><path d="M62.69,29.5c0,.44-.3.84-.89,1.19a2.92,2.92,0,0,1-1.5.48q-2,0-2-2.55a8.13,8.13,0,0,1,.41-2.42q.54-1.68,1.38-1.68a2.5,2.5,0,0,1,1.57.73,2,2,0,0,1,.86,1.45,2.14,2.14,0,0,1-.75,1.62,2.45,2.45,0,0,1-1.7.69,1.14,1.14,0,0,1-.38-.15,1.18,1.18,0,0,0-.4-.15c-.13,0-.19,0-.19.12,0,1.15.38,1.72,1.14,1.72a1.71,1.71,0,0,0,1.08-.39,3.49,3.49,0,0,0,.66-.7c.19-.25.31-.38.37-.38C62.57,29.08,62.69,29.22,62.69,29.5Zm-1-2.76a1.74,1.74,0,0,0-.3-1,.9.9,0,0,0-.79-.46,1.12,1.12,0,0,0-1,.75,2.9,2.9,0,0,0-.31,1.31,1,1,0,0,0,.28.72.91.91,0,0,0,.71.3,1.24,1.24,0,0,0,1-.53A1.75,1.75,0,0,0,61.65,26.74Z"/><path d="M66.69,25.65s0,.12,0,.25-.26.3-.38.3a.25.25,0,0,1-.21-.15c0-.63-.29-.94-.78-.94-.32,0-.63.59-.94,1.77a6.6,6.6,0,0,0-.18,1.72,11,11,0,0,0,.07,1.7l.08.18a.66.66,0,0,1,.06.22q0,.33-.45.33a.45.45,0,0,1-.51-.52,1.12,1.12,0,0,1,0-.22.79.79,0,0,0,0-.22c0-.55,0-1.37-.07-2.47s-.08-1.93-.08-2.48c0-.2,0-.32.11-.37a.89.89,0,0,1,.4-.06c.25,0,.4.09.44.27l0,.58c.26-.4.41-.62.45-.67a.94.94,0,0,1,.69-.38,1,1,0,0,1,.54.17,1.8,1.8,0,0,1,.41.46A1.27,1.27,0,0,1,66.69,25.65Z"/><path d="M68.43,21a.65.65,0,0,1-.1.19,1.59,1.59,0,0,0-.11.2,2.64,2.64,0,0,0-.09.81c0,.13,0,.32,0,.58s0,.45,0,.58c0,.38-.15.57-.44.57s-.29-.05-.34-.15c0-1.15,0-1.79,0-1.91a4,4,0,0,1,.06-.6c.06-.31.12-.47.19-.49a.4.4,0,0,1,.17,0C68.22,20.7,68.43,20.78,68.43,21Z"/><path d="M73.71,30.11c0,.35-.26.65-.79.89a3.24,3.24,0,0,1-1.28.29,2.74,2.74,0,0,1-.93-.2,4.43,4.43,0,0,1-.91-.64c-.46-.37-.69-.62-.69-.77,0-.31.18-.45.55-.42h.09q0,.45,1,1a3,3,0,0,0,1.35.48q.66,0,.66-.45,0-.27-.81-.75a8.53,8.53,0,0,1-1.51-1,2.48,2.48,0,0,1-.83-1.83A2.93,2.93,0,0,1,70,25.17a1.35,1.35,0,0,1,1.17-.84,2.32,2.32,0,0,1,1.23.47,1.77,1.77,0,0,1,.84.95,3.38,3.38,0,0,1,.12.95A4.37,4.37,0,0,1,73.13,28a.52.52,0,0,1-.32.11,1,1,0,0,1-.33-.09c-.15,0-.22-.11-.22-.17s0-.07.16-.33a2.45,2.45,0,0,0,.12-.93c0-1.07-.33-1.6-1-1.6-.35,0-.63.23-.84.7a2.69,2.69,0,0,0-.27,1.16,1.9,1.9,0,0,0,.85,1.43c.19.16.72.5,1.58,1C73.43,29.64,73.71,29.91,73.71,30.11Z"/><path d="M84.29,24.7a9.4,9.4,0,0,1-1,4.28Q82,31.41,80,31.41a2.23,2.23,0,0,1-1.41-.53q-.25.33-.33.33a.6.6,0,0,1-.33-.1,7.84,7.84,0,0,1-.21-2.25c0-.84,0-2.09,0-3.75s0-2.9,0-3.75v-.24q0-.33.36-.33a.67.67,0,0,1,.39.14.39.39,0,0,1,.21.31,1.23,1.23,0,0,1-.1.44,1.23,1.23,0,0,0-.11.43v.58a2,2,0,0,0,.52-.73,3.22,3.22,0,0,1,.71-.93,2.09,2.09,0,0,1,1.42-.48,2.64,2.64,0,0,1,2.42,1.33A5.3,5.3,0,0,1,84.29,24.7Zm-.89-.07A5.74,5.74,0,0,0,83,22.36,1.78,1.78,0,0,0,81.3,21.1a2.24,2.24,0,0,0-1.66,1,5.18,5.18,0,0,0-1,1.81,7,7,0,0,0-.24,1.86v3.11a2,2,0,0,0,.38,1.21,1.31,1.31,0,0,0,1.11.57,2.67,2.67,0,0,0,2.14-1.26,5.84,5.84,0,0,0,1.08-2.37A12.24,12.24,0,0,0,83.4,24.63Z"/><path d="M89.78,31.42q0,.21-.33.21a.4.4,0,0,1-.44-.3s0-.22,0-.58a.54.54,0,0,0,0-.24,3,3,0,0,1-1.81.61,2.53,2.53,0,0,1-1.31-.37,1.22,1.22,0,0,1-.72-1.05c0-.41.29-.81.86-1.2A2.59,2.59,0,0,1,87.41,28h1.48a.45.45,0,0,0,.09-.32,5.23,5.23,0,0,0-.16-1.51,1.07,1.07,0,0,0-1.07-.86,1.32,1.32,0,0,0-1,.72,2.3,2.3,0,0,0-.43,1.26v.17a.11.11,0,0,1-.12.12.67.67,0,0,1-.51-.5A3,3,0,0,1,85.89,26a3.24,3.24,0,0,1,.56-1,1.22,1.22,0,0,1,.93-.41,2.55,2.55,0,0,1,1.57.54,1.77,1.77,0,0,1,.78,1.41ZM89,29q0-.6-.93-.6a3.06,3.06,0,0,0-1.29.25,1.05,1.05,0,0,0-.7,1,.7.7,0,0,0,.37.63,1.4,1.4,0,0,0,.75.2,2,2,0,0,0,1.22-.42A1.25,1.25,0,0,0,89,29Z"/><path d="M95.43,25.11c-.08.44-.16.88-.23,1.32a6.32,6.32,0,0,0-.14,1.32v4.69a2.16,2.16,0,0,1-.61,1.6,2.26,2.26,0,0,1-1.63.59,3.15,3.15,0,0,1-1.24-.3,2.23,2.23,0,0,1-1.1-.82.54.54,0,0,1-.07-.27c0-.29.14-.44.42-.44a.38.38,0,0,1,.19.06l.51.53a1.84,1.84,0,0,0,1.29.46,1.32,1.32,0,0,0,1.32-.69,4.27,4.27,0,0,0,.2-1.57,5.71,5.71,0,0,0-.06-.6,2.54,2.54,0,0,1,0-.66,4.12,4.12,0,0,1-.6.49,1.32,1.32,0,0,1-.72.21,1.74,1.74,0,0,1-1.55-.79,3.09,3.09,0,0,1-.46-1.76q0-2,.06-3.42a.48.48,0,0,1,.52-.48c.38,0,.55.07.51.2a13,13,0,0,0-.28,3.49c0,1.4.39,2.1,1.19,2.1.49,0,.88-.37,1.16-1.12a4.72,4.72,0,0,0,.32-1.76V25.78c0-.17,0-.38,0-.64s.18-.38.49-.36S95.45,24.92,95.43,25.11Z"/><path d="M33.59,40.12a4.12,4.12,0,0,1-.12.81,3.62,3.62,0,0,0-.13.81v3.32a3.77,3.77,0,0,0,.15.9.19.19,0,0,1-.17.12.64.64,0,0,1-.73-.71v-5.5a.78.78,0,0,1,.37-.11.82.82,0,0,1,.38.11C33.51,39.94,33.59,40,33.59,40.12Zm.29-2.25q0,.51-.48.51a.79.79,0,0,1-.53-.21.63.63,0,0,1-.24-.48.45.45,0,0,1,.51-.51.75.75,0,0,1,.52.2A.61.61,0,0,1,33.88,37.87Z"/><path d="M38.76,45.11c0,.35-.27.65-.8.89a3.2,3.2,0,0,1-1.27.29,2.64,2.64,0,0,1-.93-.2,4.16,4.16,0,0,1-.92-.64c-.46-.37-.69-.62-.69-.77,0-.31.18-.45.55-.42h.09c0,.3.34.63,1,1a2.94,2.94,0,0,0,1.34.48c.44,0,.67-.15.67-.45s-.28-.43-.82-.75a8.53,8.53,0,0,1-1.51-1,2.48,2.48,0,0,1-.83-1.83A2.93,2.93,0,0,1,35,40.17a1.35,1.35,0,0,1,1.17-.84,2.32,2.32,0,0,1,1.23.47,1.77,1.77,0,0,1,.84,1,3.38,3.38,0,0,1,.12,1A4.37,4.37,0,0,1,38.17,43a.5.5,0,0,1-.32.11,1.09,1.09,0,0,1-.33-.09c-.15-.05-.22-.11-.22-.17s.05-.07.17-.33a2.74,2.74,0,0,0,.11-.93c0-1.07-.33-1.6-1-1.6-.35,0-.63.23-.84.7a2.69,2.69,0,0,0-.27,1.16,1.93,1.93,0,0,0,.85,1.43c.2.16.72.5,1.58,1C38.47,44.64,38.76,44.91,38.76,45.11Z"/><path d="M47.38,44.43c0,.24-.21.57-.62,1a2.62,2.62,0,0,1-1,.72,3.06,3.06,0,0,1-.87.17,2,2,0,0,1-1.68-.8,2.93,2.93,0,0,1-.54-1.83,7.94,7.94,0,0,1,.49-2.59q.62-1.77,1.53-1.77a2.52,2.52,0,0,1,1.16.42c.48.29.75.56.81.82a4.18,4.18,0,0,1,.1.92c0,1.1-.16,1.65-.49,1.65A.64.64,0,0,1,46,43c-.11-.06-.16-.13-.16-.21a.32.32,0,0,1,.06-.16l.07-.13a4,4,0,0,0,.06-.9c0-1.11-.25-1.66-.75-1.66s-1,.5-1.35,1.51a7.13,7.13,0,0,0-.39,2.23,3.15,3.15,0,0,0,.26,1.35,1.11,1.11,0,0,0,1.06.71,1.78,1.78,0,0,0,1-.45,2.85,2.85,0,0,0,.78-.87l.18-.42a.24.24,0,0,1,.21-.1c.06,0,.14.06.22.2A.65.65,0,0,1,47.38,44.43Z"/><path d="M52.52,44.5c0,.44-.29.84-.88,1.19a2.92,2.92,0,0,1-1.5.48q-2,0-2-2.55a8.1,8.1,0,0,1,.4-2.42q.54-1.68,1.38-1.68a2.52,2.52,0,0,1,1.58.73,2,2,0,0,1,.85,1.45,2.14,2.14,0,0,1-.75,1.62A2.43,2.43,0,0,1,49.9,44a1.14,1.14,0,0,1-.38-.15,1.18,1.18,0,0,0-.4-.15c-.13,0-.2,0-.2.12,0,1.15.38,1.72,1.14,1.72a1.71,1.71,0,0,0,1.08-.39,3.49,3.49,0,0,0,.66-.7c.19-.25.32-.38.38-.38C52.41,44.08,52.52,44.22,52.52,44.5Zm-1-2.76a1.74,1.74,0,0,0-.3-1,.91.91,0,0,0-.8-.46c-.4,0-.72.25-1,.75a2.91,2.91,0,0,0-.32,1.31,1,1,0,0,0,.28.72.93.93,0,0,0,.71.3,1.24,1.24,0,0,0,1-.53A1.76,1.76,0,0,0,51.49,41.74Z"/><path d="M54.31,45.84q0,.39-.42.39c-.44,0-.66-.91-.65-2.72l0-6.73a3.89,3.89,0,0,0,0-.48,3.15,3.15,0,0,1,0-.45.88.88,0,0,1,.48-.21.72.72,0,0,1,.42.15.44.44,0,0,1,.21.36,1.41,1.41,0,0,1-.08.39c-.06.2-.09.32-.1.37A17.36,17.36,0,0,0,54,39.76c0,2,0,2.92,0,2.85a15.83,15.83,0,0,0,.23,2.78,1.19,1.19,0,0,0,.07.2A.6.6,0,0,1,54.31,45.84Z"/><path d="M59.45,44.5c0,.44-.29.84-.88,1.19a2.92,2.92,0,0,1-1.5.48q-2,0-2-2.55a7.82,7.82,0,0,1,.41-2.42q.53-1.68,1.38-1.68a2.52,2.52,0,0,1,1.57.73,2,2,0,0,1,.85,1.45,2.14,2.14,0,0,1-.75,1.62,2.43,2.43,0,0,1-1.69.69,1.14,1.14,0,0,1-.38-.15,1.18,1.18,0,0,0-.4-.15c-.13,0-.2,0-.2.12,0,1.15.38,1.72,1.14,1.72a1.69,1.69,0,0,0,1.08-.39,3.49,3.49,0,0,0,.66-.7c.2-.25.32-.38.38-.38C59.34,44.08,59.45,44.22,59.45,44.5Zm-1-2.76a1.74,1.74,0,0,0-.3-1,.91.91,0,0,0-.8-.46,1.12,1.12,0,0,0-1,.75A2.91,2.91,0,0,0,56,42.36a1,1,0,0,0,.28.72.93.93,0,0,0,.71.3,1.26,1.26,0,0,0,1-.53A1.81,1.81,0,0,0,58.42,41.74Z"/><path d="M64.51,42.66a5.83,5.83,0,0,1-.36,2.19,1.69,1.69,0,0,1-1.62,1.23,2.57,2.57,0,0,1-.77-.17L61,45.64a.64.64,0,0,0,0,.2s0,.12,0,.21a2,2,0,0,1,0,.22c0,.15-.08.23-.25.23a.51.51,0,0,1-.42-.21,2.12,2.12,0,0,1-.17-.89c0-.41,0-.73,0-1v-.09L60.41,36h.21a.52.52,0,0,1,.4.22.64.64,0,0,1,.19.44,15,15,0,0,1-.14,1.65,13.29,13.29,0,0,0-.15,1.65v.57a.79.79,0,0,0,.3-.34,2.49,2.49,0,0,1,.39-.53,1.07,1.07,0,0,1,.74-.27,1.84,1.84,0,0,1,1.33.6,2.69,2.69,0,0,1,.72,1.31A7.09,7.09,0,0,1,64.51,42.66Zm-.8.08a5.88,5.88,0,0,0-.19-1.61q-.29-1.05-1-1.05c-.55,0-1,.4-1.31,1.21a5.34,5.34,0,0,0-.37,1.94,3.35,3.35,0,0,0,.3,1.49,1.2,1.2,0,0,0,1.14.83q.76,0,1.14-1.08A5.48,5.48,0,0,0,63.71,42.74Z"/><path d="M68.59,40.65s0,.12,0,.25-.25.3-.37.3a.25.25,0,0,1-.21-.15c0-.63-.29-.94-.78-.94-.32,0-.64.59-.95,1.77a6.6,6.6,0,0,0-.18,1.72,10.48,10.48,0,0,0,.08,1.7,1.87,1.87,0,0,0,.07.18.66.66,0,0,1,.06.22q0,.33-.45.33a.45.45,0,0,1-.51-.52,1.31,1.31,0,0,1,0-.22.79.79,0,0,0,0-.22c0-.55,0-1.37-.08-2.47s-.07-1.93-.07-2.48c0-.2,0-.32.1-.37a.94.94,0,0,1,.41-.06c.25,0,.39.09.43.27l0,.58c.26-.4.41-.62.45-.67a.94.94,0,0,1,.69-.38,1,1,0,0,1,.54.17,1.79,1.79,0,0,1,.42.46A1.27,1.27,0,0,1,68.59,40.65Z"/><path d="M73.19,46.42q0,.21-.33.21a.39.39,0,0,1-.43-.3,4.31,4.31,0,0,1,0-.58.55.55,0,0,0,0-.24,3,3,0,0,1-1.82.61,2.49,2.49,0,0,1-1.3-.37,1.22,1.22,0,0,1-.72-1c0-.41.28-.81.85-1.2A2.59,2.59,0,0,1,70.82,43h1.49a.45.45,0,0,0,.09-.32,5.16,5.16,0,0,0-.17-1.51,1.06,1.06,0,0,0-1.06-.86,1.32,1.32,0,0,0-1,.72,2.31,2.31,0,0,0-.44,1.26v.17a.11.11,0,0,1-.12.12.67.67,0,0,1-.51-.5A3,3,0,0,1,69.31,41a3.24,3.24,0,0,1,.55-1,1.22,1.22,0,0,1,.93-.41,2.58,2.58,0,0,1,1.58.54,1.77,1.77,0,0,1,.78,1.41ZM72.4,44q0-.6-.93-.6a3.06,3.06,0,0,0-1.29.25,1.06,1.06,0,0,0-.71,1,.7.7,0,0,0,.38.63,1.4,1.4,0,0,0,.75.2,2,2,0,0,0,1.22-.42A1.25,1.25,0,0,0,72.4,44Z"/><path d="M76.81,41.26a1.45,1.45,0,0,1-.57.15,2.28,2.28,0,0,0-.57.11c0,.11,0,.66,0,1.66,0,.78,0,1.31,0,1.58a3,3,0,0,0,.08.52,2.89,2.89,0,0,1,.07.56.33.33,0,0,1-.15.24.45.45,0,0,1-.27.12c-.2,0-.36-.21-.48-.62a3.28,3.28,0,0,1-.12-.85V41.61s-.28,0-.67,0-.47-.08-.47-.35.41-.55,1.22-.52L75.08,38a.5.5,0,0,0,0-.14.38.38,0,0,1,0-.14.24.24,0,0,1,.12-.18.43.43,0,0,1,.28-.06c.35,0,.53.2.53.52a9.19,9.19,0,0,1-.11,1.13,8.65,8.65,0,0,0-.1,1.11,1.87,1.87,0,0,0,0,.34l.82,0q.42,0,.42.33A.42.42,0,0,1,76.81,41.26Z"/><path d="M81.59,44.5c0,.44-.29.84-.88,1.19a2.92,2.92,0,0,1-1.5.48q-2,0-2-2.55a8.1,8.1,0,0,1,.4-2.42q.54-1.68,1.38-1.68a2.52,2.52,0,0,1,1.58.73,2,2,0,0,1,.85,1.45,2.14,2.14,0,0,1-.75,1.62A2.43,2.43,0,0,1,79,44a1.14,1.14,0,0,1-.38-.15,1.18,1.18,0,0,0-.4-.15c-.13,0-.2,0-.2.12,0,1.15.38,1.72,1.14,1.72a1.71,1.71,0,0,0,1.08-.39,3.49,3.49,0,0,0,.66-.7c.19-.25.32-.38.38-.38C81.48,44.08,81.59,44.22,81.59,44.5Zm-1-2.76a1.74,1.74,0,0,0-.3-1,.91.91,0,0,0-.8-.46c-.4,0-.72.25-1,.75a2.91,2.91,0,0,0-.32,1.31,1,1,0,0,0,.28.72.93.93,0,0,0,.71.3,1.28,1.28,0,0,0,1-.53A1.81,1.81,0,0,0,80.56,41.74Z"/><path d="M87,36.45a6.76,6.76,0,0,1-.08.88c-.08.47-.12.77-.14.89q0,.47-.15,3.09c-.06,1.61-.09,2.49-.09,2.66a6.09,6.09,0,0,0,.29,2.27.33.33,0,0,1-.28.17.56.56,0,0,1-.33-.15A.55.55,0,0,1,86,46a5.91,5.91,0,0,0-.1-.92,2.36,2.36,0,0,1-1.69,1.13,1.74,1.74,0,0,1-1.5-.74,2.79,2.79,0,0,1-.45-1.66,8.26,8.26,0,0,1,.46-2.61c.41-1.18.93-1.77,1.59-1.77a1.47,1.47,0,0,1,.86.31c.06,0,.3.25.71.63A44.19,44.19,0,0,0,86,35.85a.4.4,0,0,1,.29-.11.65.65,0,0,1,.49.21A.69.69,0,0,1,87,36.45ZM85.9,42a2.36,2.36,0,0,0-.3-1.19,1.09,1.09,0,0,0-1-.63c-.51,0-.9.51-1.2,1.53a7.38,7.38,0,0,0-.37,2.18A3,3,0,0,0,83.27,45a.93.93,0,0,0,.86.63q.93,0,1.41-1.44A6.71,6.71,0,0,0,85.9,42Z"/><path d="M92,40.12a3.62,3.62,0,0,1-.13.81,4.12,4.12,0,0,0-.12.81v3.32a3.66,3.66,0,0,0,.14.9.18.18,0,0,1-.16.12.64.64,0,0,1-.73-.71v-5.5a.78.78,0,0,1,.37-.11.82.82,0,0,1,.38.11C91.94,39.94,92,40,92,40.12Zm.29-2.25c0,.34-.16.51-.49.51a.79.79,0,0,1-.52-.21.63.63,0,0,1-.24-.48.45.45,0,0,1,.51-.51.77.77,0,0,1,.52.2A.64.64,0,0,1,92.31,37.87Z"/><path d="M97.81,46.06a.28.28,0,0,1-.24.17,1.27,1.27,0,0,1-.51-.21V45.1q0-5-1.24-5-.39,0-.84.57a5.54,5.54,0,0,0-1.13,3.56,6.94,6.94,0,0,0,.08.83,5.49,5.49,0,0,1,.09.83c0,.15-.11.23-.31.23-.39,0-.58-.32-.58-1v-3.4c0-.09,0-.22,0-.39s0-.3,0-.39a5.49,5.49,0,0,0,0-.57,3.61,3.61,0,0,1,0-.56c0-.08.06-.17.18-.28a.58.58,0,0,1,.3-.15.49.49,0,0,1,.36.21c0,.65-.05,1-.05,1.14s0,.29,0,.43c.1,0,.21-.19.37-.49a3,3,0,0,1,.48-.78,1,1,0,0,1,.82-.42,1.68,1.68,0,0,1,.54.13,2,2,0,0,1,1.16,1,7.3,7.3,0,0,1,.58,3.14Z"/><path d="M20.55,59.43a1.64,1.64,0,0,1-.61,1,2.64,2.64,0,0,1-1,.72,3.06,3.06,0,0,1-.87.17,2,2,0,0,1-1.68-.8,2.93,2.93,0,0,1-.54-1.83,8,8,0,0,1,.5-2.59Q17,54.3,17.87,54.3a2.49,2.49,0,0,1,1.15.42c.48.29.75.56.81.82a4.2,4.2,0,0,1,.11.92c0,1.1-.17,1.65-.5,1.65a.6.6,0,0,1-.28-.09c-.11-.06-.17-.13-.17-.21a.32.32,0,0,1,.06-.16l.08-.13a4,4,0,0,0,.06-.9c0-1.11-.25-1.66-.75-1.66s-1,.5-1.35,1.51a7.13,7.13,0,0,0-.39,2.23A3.16,3.16,0,0,0,17,60.05a1.12,1.12,0,0,0,1.07.71,1.78,1.78,0,0,0,1-.45,2.85,2.85,0,0,0,.78-.87L20,59a.24.24,0,0,1,.21-.1c.06,0,.13.06.21.2A.65.65,0,0,1,20.55,59.43Z"/><path d="M22.41,60.84q0,.39-.42.39c-.44,0-.65-.91-.64-2.72l0-6.73a3.5,3.5,0,0,0,0-.48,3.54,3.54,0,0,1-.05-.45.88.88,0,0,1,.48-.21.72.72,0,0,1,.42.15.44.44,0,0,1,.21.36,1.34,1.34,0,0,1-.07.39c-.06.2-.1.32-.11.37a17.36,17.36,0,0,0-.18,2.85c0,2,0,2.92,0,2.85a16.65,16.65,0,0,0,.24,2.78.86.86,0,0,0,.06.2A.6.6,0,0,1,22.41,60.84Z"/><path d="M27.92,58a4.32,4.32,0,0,1-.57,2.25,2.09,2.09,0,0,1-1.88,1.16,2,2,0,0,1-1.81-.95,3.82,3.82,0,0,1-.5-2.07,5.88,5.88,0,0,1,.57-2.5c.48-1,1.09-1.52,1.83-1.52a1.74,1.74,0,0,1,.81.33A3.58,3.58,0,0,1,27.92,58Zm-.72,0a5.47,5.47,0,0,0-.26-1.73c-.25-.71-.63-1.06-1.15-1.06s-1.07.39-1.41,1.18a5,5,0,0,0-.39,2A4.13,4.13,0,0,0,24.26,60a1.27,1.27,0,0,0,1.21.88,1.48,1.48,0,0,0,1.37-1A4.33,4.33,0,0,0,27.2,58Z"/><path d="M33.15,60.11c0,.35-.26.65-.79.89a3.24,3.24,0,0,1-1.28.29,2.74,2.74,0,0,1-.93-.2,4.43,4.43,0,0,1-.91-.64c-.46-.37-.69-.62-.69-.77,0-.31.18-.45.55-.42h.09q0,.45,1,1a3,3,0,0,0,1.35.48q.66,0,.66-.45,0-.27-.81-.75a8.53,8.53,0,0,1-1.51-1A2.48,2.48,0,0,1,29,56.66a2.93,2.93,0,0,1,.41-1.49,1.35,1.35,0,0,1,1.17-.84,2.32,2.32,0,0,1,1.23.47,1.77,1.77,0,0,1,.84,1,3.38,3.38,0,0,1,.12,1A4.37,4.37,0,0,1,32.57,58a.52.52,0,0,1-.32.11,1,1,0,0,1-.33-.09c-.15-.05-.22-.11-.22-.17s.05-.07.16-.33a2.45,2.45,0,0,0,.12-.93c0-1.07-.33-1.6-1-1.6-.35,0-.63.23-.84.7a2.69,2.69,0,0,0-.27,1.16,1.9,1.9,0,0,0,.85,1.43c.19.16.72.5,1.58,1C32.87,59.64,33.15,59.91,33.15,60.11Z"/><path d="M38.06,59.5c0,.44-.3.84-.89,1.19a2.92,2.92,0,0,1-1.5.48q-2,0-2-2.55a8.13,8.13,0,0,1,.41-2.42q.54-1.68,1.38-1.68a2.5,2.5,0,0,1,1.57.73,2,2,0,0,1,.86,1.45,2.14,2.14,0,0,1-.75,1.62,2.45,2.45,0,0,1-1.7.69,1.14,1.14,0,0,1-.38-.15,1.18,1.18,0,0,0-.4-.15c-.13,0-.19,0-.19.12,0,1.15.38,1.72,1.14,1.72a1.71,1.71,0,0,0,1.08-.39,3.49,3.49,0,0,0,.66-.7c.19-.25.31-.38.37-.38C37.94,59.08,38.06,59.22,38.06,59.5Zm-1-2.76a1.74,1.74,0,0,0-.3-1,.9.9,0,0,0-.79-.46,1.12,1.12,0,0,0-1,.75,2.9,2.9,0,0,0-.31,1.31,1,1,0,0,0,.27.72,1,1,0,0,0,.72.3,1.24,1.24,0,0,0,1-.53A1.75,1.75,0,0,0,37,56.74Z"/><path d="M45,56.26a1.45,1.45,0,0,1-.57.15,2.28,2.28,0,0,0-.57.11c0,.11,0,.66,0,1.66,0,.78,0,1.31,0,1.58a2.75,2.75,0,0,0,.07.52,3.08,3.08,0,0,1,.08.56.33.33,0,0,1-.15.24.45.45,0,0,1-.27.12c-.2,0-.36-.21-.48-.62a3.28,3.28,0,0,1-.12-.85V56.61a1.36,1.36,0,0,0-.68,0c-.31,0-.46-.08-.46-.35s.4-.55,1.21-.52l.2-2.72a.63.63,0,0,0,0-.14.38.38,0,0,1,0-.14.24.24,0,0,1,.12-.18.46.46,0,0,1,.29-.06c.35,0,.52.2.52.52a8.75,8.75,0,0,1-.1,1.13A9.13,9.13,0,0,0,44,55.26a1.87,1.87,0,0,0,0,.34l.83,0q.42,0,.42.33A.43.43,0,0,1,45,56.26Z"/><path d="M50.25,58a4.32,4.32,0,0,1-.57,2.25,2.08,2.08,0,0,1-1.87,1.16A2,2,0,0,1,46,60.49a3.82,3.82,0,0,1-.49-2.07,5.88,5.88,0,0,1,.57-2.5c.48-1,1.09-1.52,1.83-1.52a1.74,1.74,0,0,1,.81.33A3.57,3.57,0,0,1,50.25,58Zm-.72,0a5.48,5.48,0,0,0-.25-1.73c-.25-.71-.64-1.06-1.16-1.06s-1.07.39-1.41,1.18a5,5,0,0,0-.39,2A4.13,4.13,0,0,0,46.59,60a1.28,1.28,0,0,0,1.22.88,1.47,1.47,0,0,0,1.36-1A4.33,4.33,0,0,0,49.53,58Z"/><path d="M61.44,57.57a3.41,3.41,0,0,1-1.26,2.67,4.11,4.11,0,0,1-2.8,1,6.44,6.44,0,0,1-1.2-.11A4.73,4.73,0,0,1,55,60.73c-.57-.28-.85-.54-.85-.79s.16-.36.48-.36a2.35,2.35,0,0,1,1.11.59,2.48,2.48,0,0,0,1.44.59,3.72,3.72,0,0,0,2.4-.78,2.7,2.7,0,0,0,1.05-2.22,1.93,1.93,0,0,0-.67-1.54,2.44,2.44,0,0,0-1.64-.57,5,5,0,0,0-1.17.16,3.38,3.38,0,0,0-1.07.42l-.3.29a.55.55,0,0,1-.33.18,1.06,1.06,0,0,1-.49-.2,1.61,1.61,0,0,1,.09-.44,1.6,1.6,0,0,0,.09-.45V54a7.7,7.7,0,0,1,.46-3,.62.62,0,0,1,.27,0,.47.47,0,0,1,.37.15.33.33,0,0,0,.24.15l.86-.1c1.07-.13,1.8-.2,2.18-.2.62,0,.93.18.93.53a1.33,1.33,0,0,1-.21.57h-.14a1.13,1.13,0,0,1-.28-.08l-.26-.09a6.72,6.72,0,0,0-1.15-.06,11.1,11.1,0,0,0-1.17.12,3.12,3.12,0,0,0-1.07.23c-.21.18-.31,1-.31,2.58a5.39,5.39,0,0,0,0,.78l0,0a5.15,5.15,0,0,0,.69-.27,5,5,0,0,1,1.91-.35,3.18,3.18,0,0,1,2.08.66A2.42,2.42,0,0,1,61.44,57.57Z"/><path d="M69.9,55.65a6.8,6.8,0,0,1-1,3.61,3.39,3.39,0,0,1-3,1.89,3.3,3.3,0,0,1-2.82-1.42,5.15,5.15,0,0,1-.93-3.12,7.12,7.12,0,0,1,.81-3.2,4.28,4.28,0,0,1,2.26-2.28,3.81,3.81,0,0,1,1.34-.21,3.64,3.64,0,0,1,1,.32,3.3,3.3,0,0,1,1.79,1.84A6.15,6.15,0,0,1,69.9,55.65Zm-.75-.06a5.68,5.68,0,0,0-.58-2.72,2.42,2.42,0,0,0-2.25-1.35,1.93,1.93,0,0,0-1.07.36A4.69,4.69,0,0,0,63.51,54,6.56,6.56,0,0,0,63,56.65a6,6,0,0,0,.1,1.25,3,3,0,0,0,1.07,1.74,3,3,0,0,0,1.92.69,2.64,2.64,0,0,0,2.43-1.67A6.64,6.64,0,0,0,69.15,55.59Z"/><path d="M78.45,59.43a1.64,1.64,0,0,1-.61,1,2.64,2.64,0,0,1-1,.72,3.06,3.06,0,0,1-.87.17,2,2,0,0,1-1.68-.8,2.93,2.93,0,0,1-.54-1.83,8,8,0,0,1,.5-2.59q.62-1.77,1.53-1.77a2.49,2.49,0,0,1,1.15.42c.48.29.75.56.81.82a4.2,4.2,0,0,1,.11.92c0,1.1-.17,1.65-.5,1.65a.6.6,0,0,1-.28-.09c-.11-.06-.17-.13-.17-.21a.32.32,0,0,1,.06-.16l.08-.13a4,4,0,0,0,.06-.9c0-1.11-.25-1.66-.75-1.66s-1,.5-1.35,1.51a7.13,7.13,0,0,0-.39,2.23,3.16,3.16,0,0,0,.25,1.35,1.12,1.12,0,0,0,1.07.71,1.78,1.78,0,0,0,1-.45,2.85,2.85,0,0,0,.78-.87L77.9,59a.24.24,0,0,1,.21-.1c.06,0,.13.06.21.2A.65.65,0,0,1,78.45,59.43Z"/><path d="M84,58a4.32,4.32,0,0,1-.57,2.25,2.09,2.09,0,0,1-1.88,1.16,2,2,0,0,1-1.81-.95,3.82,3.82,0,0,1-.5-2.07,5.88,5.88,0,0,1,.57-2.5c.48-1,1.09-1.52,1.83-1.52a1.74,1.74,0,0,1,.81.33A3.58,3.58,0,0,1,84,58Zm-.72,0A5.47,5.47,0,0,0,83,56.29c-.25-.71-.63-1.06-1.15-1.06s-1.07.39-1.41,1.18a5,5,0,0,0-.39,2A4.13,4.13,0,0,0,80.3,60a1.27,1.27,0,0,0,1.21.88,1.48,1.48,0,0,0,1.37-1A4.33,4.33,0,0,0,83.24,58Z"/><path d="M89,55.38c0,.31,0,.77-.1,1.38a14.37,14.37,0,0,0-.1,1.6c0,.18,0,.52,0,1s.06.87.06,1.09c0,.44,0,.7-.15.79a.48.48,0,0,1-.26.06.44.44,0,0,1-.45-.28l-.12-.56a2,2,0,0,1-1.48.84,1.18,1.18,0,0,1-.9-.35,1.9,1.9,0,0,1-.62-.72,5.7,5.7,0,0,1-.21-1.91V55.08q-.09-.45.51-.45.42,0,.42.48c0,.48,0,1.1,0,1.87,0,1,0,1.61,0,1.88a2.35,2.35,0,0,0,.24,1.08c.2.43.46.64.77.64.51,0,.9-.34,1.18-1a4.56,4.56,0,0,0,.3-1.68v-2a1.14,1.14,0,0,0-.08-.34.94.94,0,0,1-.08-.35,1,1,0,0,1,0-.17.7.7,0,0,1,.42-.21C88.77,54.81,89,55,89,55.38Z"/><path d="M94.67,61.06a.28.28,0,0,1-.24.17,1.17,1.17,0,0,1-.51-.21V60.1c0-3.32-.42-5-1.24-5q-.39,0-.84.57a5.48,5.48,0,0,0-1.13,3.56,5.32,5.32,0,0,0,.08.83,6.76,6.76,0,0,1,.08.83c0,.15-.1.23-.3.23-.39,0-.58-.32-.58-1v-3.4c0-.09,0-.22,0-.39s0-.3,0-.39a3.92,3.92,0,0,0-.06-.57,5.58,5.58,0,0,1,0-.56c0-.08.06-.17.19-.28a.53.53,0,0,1,.29-.15.46.46,0,0,1,.36.21c0,.65,0,1,0,1.14s0,.29,0,.43c.09,0,.21-.19.36-.49a3.62,3.62,0,0,1,.48-.78,1.08,1.08,0,0,1,.83-.42,1.68,1.68,0,0,1,.54.13,2,2,0,0,1,1.15,1,7.15,7.15,0,0,1,.59,3.14Z"/><path d="M98.15,56.26a1.45,1.45,0,0,1-.57.15,2.28,2.28,0,0,0-.57.11c0,.11,0,.66,0,1.66,0,.78,0,1.31,0,1.58a3,3,0,0,0,.08.52,2.89,2.89,0,0,1,.07.56.33.33,0,0,1-.15.24.45.45,0,0,1-.27.12c-.2,0-.36-.21-.48-.62a3.28,3.28,0,0,1-.12-.85V56.61c-.06,0-.28,0-.67,0s-.47-.08-.47-.35.41-.55,1.22-.52L96.42,53a.33.33,0,0,0,0-.14.58.58,0,0,1,0-.14.24.24,0,0,1,.12-.18.43.43,0,0,1,.28-.06c.35,0,.53.2.53.52a9.19,9.19,0,0,1-.11,1.13,8.65,8.65,0,0,0-.1,1.11,1.87,1.87,0,0,0,0,.34l.82,0q.42,0,.42.33A.42.42,0,0,1,98.15,56.26Z"/><path d="M102.42,55.65s0,.12,0,.25-.26.3-.38.3a.25.25,0,0,1-.21-.15c0-.63-.29-.94-.78-.94-.32,0-.63.59-.94,1.77a6.6,6.6,0,0,0-.18,1.72,11,11,0,0,0,.07,1.7l.08.18a.66.66,0,0,1,.06.22q0,.33-.45.33a.45.45,0,0,1-.51-.52,1.12,1.12,0,0,1,0-.22.79.79,0,0,0,0-.22c0-.55,0-1.37-.07-2.47s-.08-1.93-.08-2.48c0-.2,0-.32.11-.37a.89.89,0,0,1,.4-.06c.25,0,.4.09.44.27l0,.58c.26-.4.41-.62.45-.67a.94.94,0,0,1,.69-.38,1,1,0,0,1,.54.17,1.8,1.8,0,0,1,.41.46A1.27,1.27,0,0,1,102.42,55.65Z"/><path d="M104.25,55.12a3.62,3.62,0,0,1-.13.81,4.12,4.12,0,0,0-.12.81v3.32a3.77,3.77,0,0,0,.15.9.19.19,0,0,1-.17.12.64.64,0,0,1-.73-.71v-5.5a.78.78,0,0,1,.37-.11.82.82,0,0,1,.38.11C104.17,54.94,104.25,55,104.25,55.12Zm.29-2.25q0,.51-.48.51a.79.79,0,0,1-.53-.21.63.63,0,0,1-.24-.48.45.45,0,0,1,.51-.51.77.77,0,0,1,.52.2A.64.64,0,0,1,104.54,52.87Z"/><path d="M109.44,59.5c0,.44-.29.84-.88,1.19a2.92,2.92,0,0,1-1.5.48q-2,0-2-2.55a8.1,8.1,0,0,1,.4-2.42q.54-1.68,1.38-1.68a2.52,2.52,0,0,1,1.58.73,2,2,0,0,1,.85,1.45,2.14,2.14,0,0,1-.75,1.62,2.43,2.43,0,0,1-1.69.69,1.14,1.14,0,0,1-.38-.15,1.18,1.18,0,0,0-.4-.15c-.13,0-.2,0-.2.12,0,1.15.38,1.72,1.14,1.72a1.71,1.71,0,0,0,1.08-.39,3.49,3.49,0,0,0,.66-.7c.19-.25.32-.38.38-.38C109.33,59.08,109.44,59.22,109.44,59.5Zm-1-2.76a1.74,1.74,0,0,0-.3-1,.91.91,0,0,0-.8-.46c-.4,0-.72.25-1,.75a2.91,2.91,0,0,0-.32,1.31,1,1,0,0,0,.28.72.91.91,0,0,0,.71.3,1.24,1.24,0,0,0,1-.53A1.76,1.76,0,0,0,108.41,56.74Z"/><path d="M114.48,60.11c0,.35-.26.65-.79.89a3.24,3.24,0,0,1-1.28.29,2.74,2.74,0,0,1-.93-.2,4.43,4.43,0,0,1-.91-.64c-.46-.37-.69-.62-.69-.77,0-.31.18-.45.55-.42h.09q0,.45,1,1a3,3,0,0,0,1.35.48q.66,0,.66-.45,0-.27-.81-.75a8.53,8.53,0,0,1-1.51-1,2.48,2.48,0,0,1-.83-1.83,2.93,2.93,0,0,1,.41-1.49,1.35,1.35,0,0,1,1.17-.84,2.32,2.32,0,0,1,1.23.47,1.77,1.77,0,0,1,.84,1,3.38,3.38,0,0,1,.12,1A4.37,4.37,0,0,1,113.9,58a.52.52,0,0,1-.32.11,1,1,0,0,1-.33-.09c-.15-.05-.22-.11-.22-.17s0-.07.16-.33a2.45,2.45,0,0,0,.12-.93c0-1.07-.33-1.6-1-1.6-.35,0-.63.23-.84.7a2.69,2.69,0,0,0-.27,1.16,1.9,1.9,0,0,0,.85,1.43c.19.16.72.5,1.58,1C114.2,59.64,114.48,59.91,114.48,60.11Z"/><path d="M23.68,70.12a3.62,3.62,0,0,1-.13.81,4.32,4.32,0,0,0-.13.81v3.32a3.77,3.77,0,0,0,.15.9.18.18,0,0,1-.16.12.64.64,0,0,1-.74-.71v-5.5a.82.82,0,0,1,.38-.11.78.78,0,0,1,.37.11C23.59,69.94,23.68,70,23.68,70.12ZM24,67.87q0,.51-.48.51a.77.77,0,0,1-.52-.21.63.63,0,0,1-.24-.48.45.45,0,0,1,.51-.51.77.77,0,0,1,.52.2A.64.64,0,0,1,24,67.87Z"/><path d="M29.47,76.06a.28.28,0,0,1-.24.17,1.21,1.21,0,0,1-.51-.21V75.1q0-5-1.24-5-.39,0-.84.57a5.54,5.54,0,0,0-1.13,3.56,6.94,6.94,0,0,0,.08.83,5.21,5.21,0,0,1,.08.83c0,.15-.1.23-.3.23-.39,0-.58-.32-.58-1v-3.4c0-.09,0-.22,0-.39s0-.3,0-.39a5.49,5.49,0,0,0-.05-.57,4,4,0,0,1-.06-.56c0-.08.07-.17.19-.28a.56.56,0,0,1,.29-.15.46.46,0,0,1,.36.21c0,.65,0,1,0,1.14s0,.29,0,.43c.09,0,.21-.19.36-.49a3.62,3.62,0,0,1,.48-.78,1.08,1.08,0,0,1,.83-.42,1.68,1.68,0,0,1,.54.13,2,2,0,0,1,1.15,1,7.15,7.15,0,0,1,.59,3.14Z"/><path d="M38.14,66.45a5.55,5.55,0,0,1-.09.88c-.07.47-.12.77-.14.89q0,.47-.15,3.09c-.06,1.61-.09,2.49-.09,2.66A6.31,6.31,0,0,0,38,76.24a.32.32,0,0,1-.27.17.58.58,0,0,1-.34-.15.67.67,0,0,1-.23-.3A7,7,0,0,0,37,75a2.38,2.38,0,0,1-1.7,1.13,1.74,1.74,0,0,1-1.5-.74,2.79,2.79,0,0,1-.45-1.66,8,8,0,0,1,.47-2.61q.6-1.77,1.59-1.77a1.44,1.44,0,0,1,.85.31c.06,0,.3.25.71.63a40.31,40.31,0,0,0,.15-4.48.38.38,0,0,1,.28-.11.72.72,0,0,1,.71.71ZM37,72a2.36,2.36,0,0,0-.3-1.19,1.08,1.08,0,0,0-1-.63q-.75,0-1.2,1.53a7.35,7.35,0,0,0-.36,2.18A2.83,2.83,0,0,0,34.39,75a.91.91,0,0,0,.85.63q.93,0,1.41-1.44A6.71,6.71,0,0,0,37,72Z"/><path d="M40.09,70.12a3.62,3.62,0,0,1-.13.81,4.32,4.32,0,0,0-.13.81v3.32A3.77,3.77,0,0,0,40,76a.18.18,0,0,1-.16.12.64.64,0,0,1-.74-.71v-5.5a.82.82,0,0,1,.38-.11.78.78,0,0,1,.37.11C40,69.94,40.09,70,40.09,70.12Zm.28-2.25q0,.51-.48.51a.77.77,0,0,1-.52-.21.63.63,0,0,1-.24-.48.45.45,0,0,1,.51-.51.77.77,0,0,1,.52.2A.64.64,0,0,1,40.37,67.87Z"/><path d="M45.25,66.73q0,.3-.45.3a.26.26,0,0,1-.14,0c0-.43-.32-.64-.84-.64S43,66.92,42.69,68a9.79,9.79,0,0,0-.28,2.28h.68c.37,0,.56.11.56.33a2.51,2.51,0,0,1,0,.3,1.6,1.6,0,0,1-.75.13,1.14,1.14,0,0,0-.49.06c0,.39,0,1.1,0,2.12v1.08a6.06,6.06,0,0,0,.18,1.45.39.39,0,0,1,0,.14q0,.36-.51.36c-.29,0-.45-.41-.45-1.22,0-2.2,0-3.5.07-3.9h-.77c-.23,0-.35-.11-.35-.33s.21-.43.6-.43h.54c0-.2,0-.46.07-.77.14-2.66.89-4,2.23-4Q45.25,65.65,45.25,66.73Z"/><path d="M48.29,66.73q0,.3-.45.3a.23.23,0,0,1-.13,0c0-.43-.32-.64-.84-.64S46,66.92,45.73,68a10.33,10.33,0,0,0-.27,2.28h.67c.37,0,.56.11.56.33a2.13,2.13,0,0,1,0,.3,1.65,1.65,0,0,1-.76.13,1.21,1.21,0,0,0-.49.06c0,.39,0,1.1,0,2.12v1.08a6.06,6.06,0,0,0,.18,1.45.39.39,0,0,1,0,.14q0,.36-.51.36c-.3,0-.45-.41-.45-1.22q0-3.3.06-3.9h-.77c-.23,0-.34-.11-.34-.33s.2-.43.6-.43h.54c0-.2,0-.46.06-.77q.23-4,2.23-4Q48.29,65.65,48.29,66.73Z"/><path d="M51.29,74.5c0,.44-.29.84-.88,1.19a2.92,2.92,0,0,1-1.5.48q-2,0-2-2.55a8.1,8.1,0,0,1,.4-2.42q.54-1.68,1.38-1.68a2.52,2.52,0,0,1,1.58.73,2,2,0,0,1,.85,1.45,2.14,2.14,0,0,1-.75,1.62,2.43,2.43,0,0,1-1.69.69,1.14,1.14,0,0,1-.38-.15,1.18,1.18,0,0,0-.4-.15c-.13,0-.2,0-.2.12,0,1.15.38,1.72,1.14,1.72a1.71,1.71,0,0,0,1.08-.39,3.49,3.49,0,0,0,.66-.7c.19-.25.32-.38.38-.38C51.18,74.08,51.29,74.22,51.29,74.5Zm-1-2.76a1.74,1.74,0,0,0-.3-1,.91.91,0,0,0-.8-.46c-.4,0-.72.25-1,.75a2.91,2.91,0,0,0-.32,1.31,1,1,0,0,0,.28.72.93.93,0,0,0,.71.3,1.24,1.24,0,0,0,1-.53A1.76,1.76,0,0,0,50.26,71.74Z"/><path d="M55.3,70.65s0,.12,0,.25-.25.3-.37.3a.25.25,0,0,1-.21-.15c0-.63-.29-.94-.78-.94-.32,0-.64.59-1,1.77a6.6,6.6,0,0,0-.18,1.72,10.48,10.48,0,0,0,.08,1.7,1.87,1.87,0,0,0,.07.18.66.66,0,0,1,.06.22q0,.33-.45.33a.45.45,0,0,1-.51-.52,1.31,1.31,0,0,1,0-.22.79.79,0,0,0,0-.22c0-.55,0-1.37-.08-2.47S52,70.67,52,70.12c0-.2,0-.32.1-.37a.94.94,0,0,1,.41-.06c.25,0,.39.09.43.27l0,.58c.26-.4.41-.62.45-.67a.94.94,0,0,1,.69-.38,1,1,0,0,1,.54.17,1.79,1.79,0,0,1,.42.46A1.27,1.27,0,0,1,55.3,70.65Z"/><path d="M60,74.5c0,.44-.29.84-.88,1.19a2.92,2.92,0,0,1-1.5.48q-2,0-2-2.55A8.1,8.1,0,0,1,56,71.2q.54-1.68,1.38-1.68a2.52,2.52,0,0,1,1.58.73,2,2,0,0,1,.85,1.45A2.14,2.14,0,0,1,59,73.32a2.43,2.43,0,0,1-1.69.69,1.14,1.14,0,0,1-.38-.15,1.18,1.18,0,0,0-.4-.15c-.13,0-.2,0-.2.12,0,1.15.38,1.72,1.14,1.72a1.71,1.71,0,0,0,1.08-.39,3.49,3.49,0,0,0,.66-.7c.19-.25.32-.38.38-.38C59.85,74.08,60,74.22,60,74.5Zm-1-2.76a1.74,1.74,0,0,0-.3-1,.91.91,0,0,0-.8-.46c-.4,0-.72.25-1,.75a2.91,2.91,0,0,0-.32,1.31,1,1,0,0,0,.28.72.93.93,0,0,0,.71.3,1.24,1.24,0,0,0,1-.53A1.76,1.76,0,0,0,58.93,71.74Z"/><path d="M65.39,76.06a.25.25,0,0,1-.24.17,1.27,1.27,0,0,1-.51-.21V75.1q0-5-1.24-5c-.25,0-.53.19-.83.57a5.49,5.49,0,0,0-1.14,3.56,5.62,5.62,0,0,0,.09.83,6.76,6.76,0,0,1,.08.83c0,.15-.1.23-.31.23-.38,0-.58-.32-.58-1v-3.4c0-.09,0-.22,0-.39s0-.3,0-.39a3.63,3.63,0,0,0-.05-.57,5.58,5.58,0,0,1,0-.56c0-.08.06-.17.19-.28a.53.53,0,0,1,.29-.15.46.46,0,0,1,.36.21c0,.65,0,1,0,1.14s0,.29,0,.43c.09,0,.21-.19.36-.49a3.62,3.62,0,0,1,.48-.78,1.06,1.06,0,0,1,.82-.42,1.68,1.68,0,0,1,.54.13,2,2,0,0,1,1.16,1,7.16,7.16,0,0,1,.58,3.14Z"/><path d="M68.87,71.26a1.45,1.45,0,0,1-.57.15,2.28,2.28,0,0,0-.57.11c0,.11,0,.66,0,1.66,0,.78,0,1.31,0,1.58a2.75,2.75,0,0,0,.07.52,3.08,3.08,0,0,1,.08.56.33.33,0,0,1-.15.24.45.45,0,0,1-.27.12c-.2,0-.36-.21-.48-.62a3.28,3.28,0,0,1-.12-.85V71.61c-.06,0-.28,0-.67,0s-.47-.08-.47-.35.4-.55,1.21-.52l.2-2.72a.33.33,0,0,0,0-.14.82.82,0,0,1,0-.14.24.24,0,0,1,.12-.18.46.46,0,0,1,.29-.06c.35,0,.52.2.52.52a8.75,8.75,0,0,1-.1,1.13,9.13,9.13,0,0,0-.11,1.11,1.87,1.87,0,0,0,0,.34l.83,0q.42,0,.42.33A.43.43,0,0,1,68.87,71.26Z"/><path d="M77.48,72.31a6.28,6.28,0,0,1-.43,2.49,2,2,0,0,1-1.85,1.4,1.82,1.82,0,0,1-1.44-.77c-.07,0-.1.34-.1.93a13.48,13.48,0,0,0,.19,2.76,2.3,2.3,0,0,0,.15.36,1.5,1.5,0,0,1,.12.35q0,.24-.3.24a.88.88,0,0,1-.5-.11,1.31,1.31,0,0,1-.25-.69,4.63,4.63,0,0,1-.09-.78V74.68q0-.53.06-1.41c0-.69.06-1.16.06-1.41s0-.62,0-1V69.75c0-.69.18-1,.54-1,.18,0,.27.07.27.2s0,.61-.06,1.09-.06.84-.06,1.08h.06l.69-.94a1.24,1.24,0,0,1,1-.53,1.63,1.63,0,0,1,1.51.9A3.53,3.53,0,0,1,77.48,72.31Zm-.75.06A4.93,4.93,0,0,0,76.57,71c-.17-.56-.45-.84-.83-.84s-.62.24-1,.73A4,4,0,0,0,74,72.22a7.89,7.89,0,0,0-.27,1.5q-.06.72-.06.69s0,.08.13.15l.18.14.49.69a.83.83,0,0,0,.74.36c.54,0,1-.45,1.24-1.35A7.11,7.11,0,0,0,76.73,72.37Z"/><path d="M82.55,76.42q0,.21-.33.21a.39.39,0,0,1-.43-.3,4.31,4.31,0,0,1,0-.58.55.55,0,0,0,0-.24,3,3,0,0,1-1.82.61,2.49,2.49,0,0,1-1.3-.37,1.22,1.22,0,0,1-.72-1c0-.41.28-.81.85-1.2A2.59,2.59,0,0,1,80.18,73h1.49a.45.45,0,0,0,.09-.32,5.16,5.16,0,0,0-.17-1.51,1.06,1.06,0,0,0-1.06-.86,1.32,1.32,0,0,0-1,.72A2.31,2.31,0,0,0,79,72.25v.17a.11.11,0,0,1-.12.12.67.67,0,0,1-.51-.5A3,3,0,0,1,78.67,71a3.24,3.24,0,0,1,.55-1,1.22,1.22,0,0,1,.93-.41,2.58,2.58,0,0,1,1.58.54,1.77,1.77,0,0,1,.78,1.41ZM81.76,74q0-.6-.93-.6a3.06,3.06,0,0,0-1.29.25,1.06,1.06,0,0,0-.71,1,.7.7,0,0,0,.38.63,1.4,1.4,0,0,0,.75.2,2,2,0,0,0,1.22-.42A1.25,1.25,0,0,0,81.76,74Z"/><path d="M87,70.65s0,.12,0,.25-.25.3-.37.3a.25.25,0,0,1-.21-.15c0-.63-.29-.94-.78-.94-.32,0-.64.59-.95,1.77a6.6,6.6,0,0,0-.18,1.72,10.48,10.48,0,0,0,.08,1.7,1.87,1.87,0,0,0,.07.18.66.66,0,0,1,.06.22q0,.33-.45.33a.45.45,0,0,1-.51-.52,1.31,1.31,0,0,1,0-.22.79.79,0,0,0,0-.22c0-.55,0-1.37-.08-2.47s-.07-1.93-.07-2.48c0-.2,0-.32.1-.37a.94.94,0,0,1,.41-.06c.25,0,.39.09.43.27l0,.58c.26-.4.41-.62.45-.67a.94.94,0,0,1,.69-.38,1,1,0,0,1,.54.17,1.79,1.79,0,0,1,.42.46A1.27,1.27,0,0,1,87,70.65Z"/><path d="M90.11,71.26a1.45,1.45,0,0,1-.57.15,2.28,2.28,0,0,0-.57.11c0,.11,0,.66,0,1.66,0,.78,0,1.31,0,1.58a2.75,2.75,0,0,0,.07.52,3.08,3.08,0,0,1,.08.56.33.33,0,0,1-.15.24.45.45,0,0,1-.27.12c-.2,0-.36-.21-.48-.62a3.28,3.28,0,0,1-.12-.85V71.61c-.06,0-.28,0-.67,0s-.47-.08-.47-.35.4-.55,1.21-.52l.2-2.72a.33.33,0,0,0,0-.14.82.82,0,0,1,0-.14.24.24,0,0,1,.12-.18.46.46,0,0,1,.29-.06c.35,0,.52.2.52.52a8.75,8.75,0,0,1-.1,1.13A9.13,9.13,0,0,0,89,70.26a1.87,1.87,0,0,0,0,.34l.83,0q.42,0,.42.33A.43.43,0,0,1,90.11,71.26Z"/><path d="M95.06,75.11c0,.35-.26.65-.79.89a3.24,3.24,0,0,1-1.28.29,2.74,2.74,0,0,1-.93-.2,4.43,4.43,0,0,1-.91-.64c-.46-.37-.69-.62-.69-.77,0-.31.18-.45.55-.42h.09q0,.45,1,1a3,3,0,0,0,1.35.48q.66,0,.66-.45,0-.27-.81-.75a8.53,8.53,0,0,1-1.51-1,2.48,2.48,0,0,1-.83-1.83,2.93,2.93,0,0,1,.41-1.49,1.35,1.35,0,0,1,1.17-.84,2.32,2.32,0,0,1,1.23.47,1.77,1.77,0,0,1,.84,1,3.38,3.38,0,0,1,.12,1A4.37,4.37,0,0,1,94.48,73a.52.52,0,0,1-.32.11,1,1,0,0,1-.33-.09c-.15,0-.22-.11-.22-.17s0-.07.16-.33a2.45,2.45,0,0,0,.12-.93c0-1.07-.33-1.6-1-1.6-.35,0-.63.23-.84.7a2.69,2.69,0,0,0-.27,1.16,1.9,1.9,0,0,0,.85,1.43c.19.16.72.5,1.58,1C94.78,74.64,95.06,74.91,95.06,75.11Z"/><path d="M103.73,73a4.32,4.32,0,0,1-.57,2.25,2.08,2.08,0,0,1-1.87,1.16,2,2,0,0,1-1.82-1A3.82,3.82,0,0,1,99,73.42a5.88,5.88,0,0,1,.57-2.5c.48-1,1.09-1.52,1.83-1.52a1.74,1.74,0,0,1,.81.33A3.57,3.57,0,0,1,103.73,73ZM103,73a5.48,5.48,0,0,0-.25-1.73c-.25-.71-.64-1.06-1.16-1.06s-1.07.39-1.41,1.18a5,5,0,0,0-.39,2,4.13,4.13,0,0,0,.27,1.59,1.28,1.28,0,0,0,1.22.88,1.47,1.47,0,0,0,1.36-1A4.33,4.33,0,0,0,103,73Z"/><path d="M109,66.73q0,.3-.45.3a.26.26,0,0,1-.14,0c0-.43-.32-.64-.84-.64s-.87.56-1.14,1.68a10.33,10.33,0,0,0-.27,2.28h.68c.37,0,.55.11.55.33a2.13,2.13,0,0,1,0,.3,1.62,1.62,0,0,1-.76.13,1.11,1.11,0,0,0-.48.06c0,.39,0,1.1,0,2.12v1.08a6.06,6.06,0,0,0,.18,1.45.39.39,0,0,1,0,.14q0,.36-.51.36c-.3,0-.45-.41-.45-1.22q0-3.3.06-3.9h-.76c-.23,0-.35-.11-.35-.33s.2-.43.6-.43h.54c0-.2,0-.46.06-.77q.23-4,2.24-4Q109,65.65,109,66.73Z"/><path d="M46.94,86.26a1.45,1.45,0,0,1-.57.15,2.28,2.28,0,0,0-.57.11c0,.11,0,.66,0,1.66,0,.78,0,1.31,0,1.58a2.75,2.75,0,0,0,.07.52,3.08,3.08,0,0,1,.08.56.33.33,0,0,1-.15.24.45.45,0,0,1-.27.12c-.2,0-.36-.21-.48-.62a3.28,3.28,0,0,1-.12-.85V86.61c-.06,0-.28,0-.67,0s-.47-.08-.47-.35.4-.55,1.21-.52l.2-2.72a.33.33,0,0,0,0-.14.82.82,0,0,1,0-.14.24.24,0,0,1,.12-.18.46.46,0,0,1,.29-.06c.35,0,.52.2.52.52a8.75,8.75,0,0,1-.1,1.13,9.13,9.13,0,0,0-.11,1.11,1.87,1.87,0,0,0,0,.34l.83,0q.42,0,.42.33A.43.43,0,0,1,46.94,86.26Z"/><path d="M51.7,91.39a.64.64,0,0,1-.45.12.5.5,0,0,1-.35-.21v-2q0-3.81-1.26-3.81a1,1,0,0,0-.9.63,2.17,2.17,0,0,0-.31,1.11.54.54,0,0,1,0,.18,1.3,1.3,0,0,0,0,.19v1.92a5.37,5.37,0,0,0,.08.74,5,5,0,0,1,.07.72q0,.24-.36.24a.49.49,0,0,1-.42-.24.83.83,0,0,1-.18-.5l.09-9.24a.57.57,0,0,1,0-.18q0-.27.3-.27a1,1,0,0,1,.45.2c.19.14.29.25.29.34a5.86,5.86,0,0,1-.14,1,5.16,5.16,0,0,0-.15,1s0,.69,0,2a1.6,1.6,0,0,1,.86-.5,3.07,3.07,0,0,1,1.15.29c.87.36,1.31,1.31,1.31,2.85Z"/><path d="M57,89.5c0,.44-.3.84-.89,1.19a2.92,2.92,0,0,1-1.5.48q-2,0-2-2.55A8.13,8.13,0,0,1,53,86.2q.54-1.68,1.38-1.68a2.5,2.5,0,0,1,1.57.73,2,2,0,0,1,.86,1.45A2.14,2.14,0,0,1,56,88.32a2.45,2.45,0,0,1-1.7.69,1.22,1.22,0,0,1-.38-.15,1.11,1.11,0,0,0-.4-.15c-.13,0-.19,0-.19.12,0,1.15.38,1.72,1.14,1.72a1.71,1.71,0,0,0,1.08-.39,3.49,3.49,0,0,0,.66-.7c.19-.25.31-.38.37-.38C56.83,89.08,57,89.22,57,89.5Zm-1-2.76a1.74,1.74,0,0,0-.3-1,.9.9,0,0,0-.79-.46,1.12,1.12,0,0,0-1,.75,2.9,2.9,0,0,0-.31,1.31,1,1,0,0,0,.28.72.91.91,0,0,0,.71.3,1.24,1.24,0,0,0,1-.53A1.75,1.75,0,0,0,55.91,86.74Z"/><path d="M67.69,86.2A10.82,10.82,0,0,1,67.31,89q-.53,2-1.53,2a1.49,1.49,0,0,1-1.26-.91l-.39-.92-.06,0c-.14.4-.28.8-.43,1.2a1,1,0,0,1-1,.69q-1.9,0-1.9-4.57,0-1,.06-1.65a.32.32,0,0,1,.27-.15.86.86,0,0,1,.39.12c.15.09.22.19.22.3a3.08,3.08,0,0,1-.09.6,2.85,2.85,0,0,0-.1.66c0,2.6.33,3.9,1,3.9.43,0,.78-.49,1-1.47a7.18,7.18,0,0,0,.3-2V85.36c0-.21.12-.31.36-.31s.43.2.43.6a1,1,0,0,1,0,.22c0,.1,0,.18,0,.23v1.84a4.71,4.71,0,0,0,.22,1.38c.19.65.45,1,.77,1s.79-.55,1.08-1.64a8.83,8.83,0,0,0,.33-2.2,3.19,3.19,0,0,0-.12-1.16l-.11-.13a.35.35,0,0,1-.1-.17.42.42,0,0,1,.14-.31.43.43,0,0,1,.31-.15C67.51,84.54,67.69,85.09,67.69,86.2Z"/><path d="M73.07,88a4.32,4.32,0,0,1-.57,2.25,2.08,2.08,0,0,1-1.87,1.16,2,2,0,0,1-1.82-1,3.82,3.82,0,0,1-.49-2.07,5.88,5.88,0,0,1,.57-2.5c.48-1,1.09-1.52,1.83-1.52a1.74,1.74,0,0,1,.81.33A3.57,3.57,0,0,1,73.07,88Zm-.72,0a5.48,5.48,0,0,0-.25-1.73c-.25-.71-.64-1.06-1.16-1.06s-1.07.39-1.41,1.18a5,5,0,0,0-.39,2A4.13,4.13,0,0,0,69.41,90a1.28,1.28,0,0,0,1.22.88,1.47,1.47,0,0,0,1.36-1A4.33,4.33,0,0,0,72.35,88Z"/><path d="M77.15,85.65s0,.12,0,.25-.26.3-.38.3a.25.25,0,0,1-.21-.15c0-.63-.29-.94-.78-.94-.32,0-.63.59-.94,1.77a6.6,6.6,0,0,0-.18,1.72,11,11,0,0,0,.07,1.7l.08.18a.66.66,0,0,1,.06.22q0,.33-.45.33a.45.45,0,0,1-.51-.52.73.73,0,0,1,0-.22,1.22,1.22,0,0,0,0-.22c0-.55,0-1.37-.07-2.47s-.08-1.93-.08-2.48c0-.2,0-.32.11-.37a.89.89,0,0,1,.4-.06c.25,0,.4.09.44.27l0,.58c.26-.4.41-.62.45-.67a.94.94,0,0,1,.69-.38,1,1,0,0,1,.54.17,1.63,1.63,0,0,1,.41.46A1.15,1.15,0,0,1,77.15,85.65Z"/><path d="M79,90.84q0,.39-.42.39c-.44,0-.65-.91-.64-2.72l0-6.73a3.5,3.5,0,0,0,0-.48,3.54,3.54,0,0,1,0-.45.88.88,0,0,1,.48-.21.72.72,0,0,1,.42.15.44.44,0,0,1,.21.36,1.34,1.34,0,0,1-.07.39c-.06.2-.1.32-.11.37a17.36,17.36,0,0,0-.18,2.85c0,2,0,2.92,0,2.85a16.65,16.65,0,0,0,.24,2.78.65.65,0,0,0,.07.2A.74.74,0,0,1,79,90.84Z"/><path d="M84.52,81.45a5.55,5.55,0,0,1-.09.88c-.07.47-.12.77-.14.89q0,.47-.15,3.09c-.06,1.61-.09,2.49-.09,2.66a6.31,6.31,0,0,0,.29,2.27.32.32,0,0,1-.27.17.58.58,0,0,1-.34-.15.67.67,0,0,1-.23-.3,7,7,0,0,0-.09-.92,2.38,2.38,0,0,1-1.7,1.13,1.74,1.74,0,0,1-1.5-.74,2.79,2.79,0,0,1-.45-1.66,8,8,0,0,1,.47-2.61q.6-1.77,1.59-1.77a1.44,1.44,0,0,1,.85.31c.06,0,.3.25.71.63a40.31,40.31,0,0,0,.15-4.48.38.38,0,0,1,.28-.11.72.72,0,0,1,.71.71ZM83.39,87a2.36,2.36,0,0,0-.3-1.19,1.08,1.08,0,0,0-1-.63q-.75,0-1.2,1.53a7.35,7.35,0,0,0-.36,2.18A2.83,2.83,0,0,0,80.77,90a.91.91,0,0,0,.85.63q.93,0,1.41-1.44A6.71,6.71,0,0,0,83.39,87Z"/><path d="M86.59,90.67c0,.14-.1.26-.29.36a1,1,0,0,1-.46.12.64.64,0,0,1-.45-.18.56.56,0,0,1-.2-.42.46.46,0,0,1,.53-.51,1.14,1.14,0,0,1,.58.17A.53.53,0,0,1,86.59,90.67Z"/></g></g></g></svg>