<svg xmlns="http://www.w3.org/2000/svg" viewBox="0 0 152.18 137.6"><defs><style>.cls-1{fill:#fff;}.cls-2{fill:none;stroke:#541726;stroke-miterlimit:10;stroke-width:2.35px;}</style></defs><title>8</title><g id="Layer_2" data-name="Layer 2"><g id="Facts"><g id="_8" data-name="8"><path class="cls-1" d="M151,68.8c0,2.56-3,4.9-3.29,7.39s2,5.54,1.35,8-4.1,4-5,6.34.55,5.83-.66,8.06-4.94,2.87-6.4,4.94-.83,5.79-2.52,7.68-5.46,1.69-7.34,3.39-2.34,5.68-4.55,7.27-6,.63-8.35,2-3.52,5-6,6.11-6-.65-8.58.15-4.47,4.2-7.15,4.74-5.71-1.86-8.43-1.59-5.22,3.21-8,3.21-5.3-2.95-8-3.21-5.8,2.12-8.42,1.59-4.6-3.94-7.16-4.74-6.11.91-8.57-.15-3.68-4.8-6-6.11-6.17-.4-8.35-2-2.55-5.48-4.55-7.27-5.67-1.51-7.35-3.39-1.06-5.62-2.51-7.68-5.2-2.73-6.4-5,.27-5.7-.66-8-4.39-3.88-5-6.34,1.66-5.45,1.34-8S1.18,71.36,1.18,68.8s3-4.91,3.28-7.39-2-5.54-1.34-8,4.09-4,5-6.34S7.59,41.26,8.8,39s4.94-2.87,6.4-4.94.82-5.79,2.51-7.69,5.46-1.68,7.35-3.38,2.34-5.69,4.55-7.27,6-.63,8.35-2,3.51-5,6-6.11,6,.65,8.57-.16S57,3.34,59.71,2.8s5.71,1.86,8.42,1.59,5.22-3.21,8-3.21,5.29,3,8,3.21,5.81-2.12,8.43-1.59,4.6,3.94,7.15,4.73,6.12-.9,8.58.16,3.68,4.8,6,6.11,6.17.4,8.35,2,2.55,5.47,4.55,7.27,5.67,1.51,7.34,3.38S135.52,32,137,34.1s5.19,2.73,6.4,4.94-.27,5.71.66,8.06,4.39,3.88,5,6.34-1.67,5.44-1.35,8S151,66.24,151,68.8Z"/><path class="cls-2" d="M151,68.8c0,2.56-3,4.9-3.29,7.39s2,5.54,1.35,8-4.1,4-5,6.34.55,5.83-.66,8.06-4.94,2.87-6.4,4.94-.83,5.79-2.52,7.68-5.46,1.69-7.34,3.39-2.34,5.68-4.55,7.27-6,.63-8.35,2-3.52,5-6,6.11-6-.65-8.58.15-4.47,4.2-7.15,4.74-5.71-1.86-8.43-1.59-5.22,3.21-8,3.21-5.3-2.95-8-3.21-5.8,2.12-8.42,1.59-4.6-3.94-7.16-4.74-6.11.91-8.57-.15-3.68-4.8-6-6.11-6.17-.4-8.35-2-2.55-5.48-4.55-7.27-5.67-1.51-7.35-3.39-1.06-5.62-2.51-7.68-5.2-2.73-6.4-5,.27-5.7-.66-8-4.39-3.88-5-6.34,1.66-5.45,1.34-8S1.18,71.36,1.18,68.8s3-4.91,3.28-7.39-2-5.54-1.34-8,4.09-4,5-6.34S7.59,41.26,8.8,39s4.94-2.87,6.4-4.94.82-5.79,2.51-7.69,5.46-1.68,7.35-3.38,2.34-5.69,4.55-7.27,6-.63,8.35-2,3.51-5,6-6.11,6,.65,8.57-.16S57,3.34,59.71,2.8s5.71,1.86,8.42,1.59,5.22-3.21,8-3.21,5.29,3,8,3.21,5.81-2.12,8.43-1.59,4.6,3.94,7.15,4.73,6.12-.9,8.58.16,3.68,4.8,6,6.11,6.17.4,8.35,2,2.55,5.47,4.55,7.27,5.67,1.51,7.34,3.38S135.52,32,137,34.1s5.19,2.73,6.4,4.94-.27,5.71.66,8.06,4.39,3.88,5,6.34-1.67,5.44-1.35,8S151,66.24,151,68.8Z"/><path d="M64,26.36c0,.32-.13.48-.38.48a.89.89,0,0,1-.31-.06,4.68,4.68,0,0,0,.37,1.71.4.4,0,0,1-.18.31.69.69,0,0,1-.39.12.94.94,0,0,1-.4-.1,1.76,1.76,0,0,1-.12-.75c0-.09,0-.26,0-.5v-.49a1,1,0,0,0,0-.36,1.68,1.68,0,0,0-.38,0l-.36,0a17.43,17.43,0,0,0-2,.18,5.15,5.15,0,0,0-1.82.42,2.65,2.65,0,0,0-.28,1.08c-.08.53-.13.92-.14,1.17a.25.25,0,0,1-.21.11.72.72,0,0,1-.43-.2.52.52,0,0,1-.24-.37,1.61,1.61,0,0,1,.12-.41,3.21,3.21,0,0,0,.13-.39,20,20,0,0,1,1-3.67q2-5.62,3.06-5.63c.77,0,1.36,1,1.78,2.94.15.69.33,2,.53,4a1.33,1.33,0,0,0,.45.17Q64,26.18,64,26.36Zm-1.46-.44c-.25-1.76-.41-2.82-.48-3.19-.33-1.68-.68-2.52-1.05-2.51s-.92.79-1.54,2.31c-.35,1-.7,1.92-1,2.88a4.13,4.13,0,0,0-.19.59q-.06.36.21.36l.91-.15C59.76,26.13,60.82,26,62.51,25.92Z"/><path d="M68.77,29q0,.39-.42.39c-.44,0-.66-.9-.65-2.71l0-6.74a3.59,3.59,0,0,0,0-.47,3.38,3.38,0,0,1,0-.46.88.88,0,0,1,.48-.21.72.72,0,0,1,.42.15.44.44,0,0,1,.21.36,1.41,1.41,0,0,1-.08.39c-.06.2-.09.33-.1.38A17.36,17.36,0,0,0,68.41,23c0,2,0,2.92,0,2.85a16.51,16.51,0,0,0,.24,2.77,1,1,0,0,0,.07.2A.63.63,0,0,1,68.77,29Z"/><path d="M73.91,27.71c0,.44-.29.83-.88,1.18a2.92,2.92,0,0,1-1.5.48q-2,0-2-2.55a8,8,0,0,1,.4-2.41q.54-1.68,1.38-1.68a2.56,2.56,0,0,1,1.58.72,2,2,0,0,1,.85,1.45A2.14,2.14,0,0,1,73,26.52a2.43,2.43,0,0,1-1.69.69,1.14,1.14,0,0,1-.38-.15,1.18,1.18,0,0,0-.4-.15c-.13,0-.2,0-.2.12,0,1.15.38,1.73,1.14,1.73a1.71,1.71,0,0,0,1.08-.39,3.59,3.59,0,0,0,.66-.71c.19-.25.32-.37.38-.37C73.8,27.29,73.91,27.43,73.91,27.71Zm-1-2.76a1.79,1.79,0,0,0-.3-1,.92.92,0,0,0-.8-.45c-.4,0-.72.25-1,.75a2.87,2.87,0,0,0-.32,1.3,1.05,1.05,0,0,0,.28.73,1,1,0,0,0,.71.29,1.23,1.23,0,0,0,1-.52A1.76,1.76,0,0,0,72.88,25Z"/><path d="M79.22,24.69c0,.06,0,.15,0,.26a12.39,12.39,0,0,0-.32,2.41c0,.31,0,.79,0,1.43s0,1.12,0,1.44a4.37,4.37,0,0,1-.15,1.35,1.64,1.64,0,0,1-.69.82,1.91,1.91,0,0,1-1,.33,4.73,4.73,0,0,1-1.45-.27c-.7-.22-1-.48-1-.79s.1-.41.31-.41.17.06.24.18a1.33,1.33,0,0,0,.2.29A1.4,1.4,0,0,0,76,32a2.93,2.93,0,0,0,.68.12,1.42,1.42,0,0,0,1.27-.66A2.54,2.54,0,0,0,78.28,30a5.67,5.67,0,0,0-.17-1.53,2.1,2.1,0,0,1-1.72.94,1.71,1.71,0,0,1-.71-.2,1.87,1.87,0,0,1-.6-.44,2.34,2.34,0,0,1-.4-1.52,9.09,9.09,0,0,1,.46-2.74c.4-1.27.93-1.91,1.58-1.91S77.79,23,78.37,24a4.14,4.14,0,0,0,.28.44A2.84,2.84,0,0,1,79.22,24.69Zm-.9.83A.69.69,0,0,0,78.1,25a2.41,2.41,0,0,0-.32-1.08,1,1,0,0,0-.93-.55c-.27,0-.54.3-.81.91a5.72,5.72,0,0,0-.4,1.29,9.55,9.55,0,0,0-.15,1.53c0,1.23.35,1.85,1.06,1.85q.81,0,1.35-1.35A5.79,5.79,0,0,0,78.32,25.52Z"/><path d="M84.37,27.71c0,.44-.3.83-.89,1.18a2.92,2.92,0,0,1-1.5.48q-2,0-2-2.55a8.07,8.07,0,0,1,.41-2.41q.54-1.68,1.38-1.68a2.53,2.53,0,0,1,1.57.72,2,2,0,0,1,.86,1.45,2.14,2.14,0,0,1-.75,1.62,2.45,2.45,0,0,1-1.7.69,1.22,1.22,0,0,1-.38-.15,1.11,1.11,0,0,0-.4-.15c-.13,0-.19,0-.19.12,0,1.15.38,1.73,1.14,1.73A1.71,1.71,0,0,0,83,28.37a3.59,3.59,0,0,0,.66-.71c.19-.25.31-.37.37-.37C84.25,27.29,84.37,27.43,84.37,27.71Zm-1-2.76a1.79,1.79,0,0,0-.3-1,.91.91,0,0,0-.79-.45,1.12,1.12,0,0,0-1,.75,2.86,2.86,0,0,0-.31,1.3,1,1,0,0,0,.28.73.94.94,0,0,0,.71.29,1.23,1.23,0,0,0,1-.52A1.75,1.75,0,0,0,83.33,25Z"/><path d="M89.8,29.27a.26.26,0,0,1-.24.16,1.17,1.17,0,0,1-.51-.21v-.91q0-5-1.24-5-.39,0-.84.57a5.51,5.51,0,0,0-1.13,3.55,6.76,6.76,0,0,0,.08.83,5.42,5.42,0,0,1,.08.84c0,.15-.1.22-.3.22-.39,0-.58-.31-.58-.94V25c0-.09,0-.22,0-.39s0-.3,0-.39a5.49,5.49,0,0,0-.05-.57,3.85,3.85,0,0,1-.06-.55.44.44,0,0,1,.19-.28.53.53,0,0,1,.29-.16.46.46,0,0,1,.36.21c0,.65,0,1,0,1.14s0,.3,0,.44c.09,0,.21-.2.36-.5a3.62,3.62,0,0,1,.48-.78,1.08,1.08,0,0,1,.83-.42,1.77,1.77,0,0,1,.54.14,2,2,0,0,1,1.15,1A7.1,7.1,0,0,1,89.8,27Z"/><path d="M95.3,19.65a5.66,5.66,0,0,1-.09.89c-.07.47-.11.76-.13.88,0,.31-.08,1.35-.15,3.1s-.09,2.49-.09,2.66a6.36,6.36,0,0,0,.28,2.27.31.31,0,0,1-.27.16.54.54,0,0,1-.33-.15.64.64,0,0,1-.24-.3,6.93,6.93,0,0,0-.09-.91,2.35,2.35,0,0,1-1.69,1.12,1.73,1.73,0,0,1-1.5-.73A2.82,2.82,0,0,1,90.55,27,8,8,0,0,1,91,24.36q.6-1.77,1.59-1.77a1.48,1.48,0,0,1,.86.32c.06,0,.29.25.7.63a40.53,40.53,0,0,0,.15-4.49.39.39,0,0,1,.29-.1.72.72,0,0,1,.7.7ZM94.18,25.2a2.33,2.33,0,0,0-.3-1.18,1.1,1.1,0,0,0-1-.63q-.75,0-1.2,1.53a7.29,7.29,0,0,0-.36,2.17,2.83,2.83,0,0,0,.21,1.14.92.92,0,0,0,.86.63q.93,0,1.41-1.44A6.71,6.71,0,0,0,94.18,25.2Z"/><path d="M31.55,43.32c0,.35-.27.65-.8.89a3.18,3.18,0,0,1-1.27.28,2.52,2.52,0,0,1-.93-.2,4.67,4.67,0,0,1-.92-.63c-.46-.37-.69-.63-.69-.77,0-.31.19-.45.56-.42h.09c0,.3.34.63,1,1a3,3,0,0,0,1.35.49c.44,0,.66-.15.66-.46s-.27-.43-.81-.75a8.81,8.81,0,0,1-1.52-1,2.5,2.5,0,0,1-.82-1.84,3,3,0,0,1,.4-1.49A1.35,1.35,0,0,1,29,37.53a2.41,2.41,0,0,1,1.23.47,1.82,1.82,0,0,1,.84,1,3.3,3.3,0,0,1,.12.94A4.43,4.43,0,0,1,31,41.18a.48.48,0,0,1-.31.1,1.25,1.25,0,0,1-.33-.08c-.15-.06-.23-.11-.23-.17s.06-.07.17-.33a2.45,2.45,0,0,0,.12-.93c0-1.07-.34-1.61-1-1.61-.35,0-.63.24-.84.71A2.66,2.66,0,0,0,28.26,40a1.9,1.9,0,0,0,.86,1.42,17.45,17.45,0,0,0,1.57,1C31.26,42.84,31.55,43.12,31.55,43.32Z"/><path d="M34.79,39.47a1.45,1.45,0,0,1-.57.15,2.53,2.53,0,0,0-.57.1c0,.11,0,.67,0,1.67,0,.78,0,1.3,0,1.57a3.08,3.08,0,0,0,.08.53,2.81,2.81,0,0,1,.07.55.33.33,0,0,1-.15.24.45.45,0,0,1-.27.12c-.2,0-.36-.2-.48-.61a3.36,3.36,0,0,1-.12-.86V39.81c-.06-.05-.28-.05-.67,0s-.47-.07-.47-.34.41-.56,1.22-.53l.19-2.71a.41.41,0,0,0,0-.15.5.5,0,0,1,0-.14.21.21,0,0,1,.12-.17.38.38,0,0,1,.28-.07c.35,0,.53.21.53.53a9.07,9.07,0,0,1-.11,1.12,8.65,8.65,0,0,0-.1,1.11,2,2,0,0,0,0,.35l.82-.05q.42,0,.42.33A.44.44,0,0,1,34.79,39.47Z"/><path d="M39.59,44.63q0,.21-.33.21a.4.4,0,0,1-.44-.3s0-.23,0-.59a.54.54,0,0,0-.05-.24,3,3,0,0,1-1.81.62A2.54,2.54,0,0,1,35.64,44a1.22,1.22,0,0,1-.72-1.05c0-.41.29-.81.86-1.2a2.59,2.59,0,0,1,1.44-.54H38.7a.43.43,0,0,0,.09-.31,5.31,5.31,0,0,0-.16-1.52,1.06,1.06,0,0,0-1.07-.85,1.32,1.32,0,0,0-1.05.72,2.3,2.3,0,0,0-.43,1.26v.16a.11.11,0,0,1-.12.12.5.5,0,0,1-.33-.18.48.48,0,0,1-.18-.31,3,3,0,0,1,.25-1.06,3.18,3.18,0,0,1,.56-1,1.21,1.21,0,0,1,.93-.4,2.55,2.55,0,0,1,1.57.54,1.77,1.77,0,0,1,.78,1.41Zm-.8-2.39q0-.6-.93-.6a3.06,3.06,0,0,0-1.29.26,1.05,1.05,0,0,0-.7,1,.7.7,0,0,0,.37.63,1.39,1.39,0,0,0,.75.19,2,2,0,0,0,1.22-.42A1.25,1.25,0,0,0,38.79,42.24Z"/><path d="M43.2,39.47a1.45,1.45,0,0,1-.57.15,2.53,2.53,0,0,0-.57.1c0,.11,0,.67,0,1.67,0,.78,0,1.3,0,1.57a2.83,2.83,0,0,0,.07.53,3,3,0,0,1,.08.55.33.33,0,0,1-.15.24.45.45,0,0,1-.27.12c-.2,0-.36-.2-.48-.61a3.36,3.36,0,0,1-.12-.86V39.81a1.36,1.36,0,0,0-.68,0c-.31,0-.46-.07-.46-.34s.4-.56,1.21-.53l.2-2.71a.85.85,0,0,0,0-.15.33.33,0,0,1,0-.14.21.21,0,0,1,.12-.17.41.41,0,0,1,.29-.07.49.49,0,0,1,.52.53,8.63,8.63,0,0,1-.1,1.12,9.13,9.13,0,0,0-.11,1.11,2,2,0,0,0,0,.35l.83-.05q.42,0,.42.33A.44.44,0,0,1,43.2,39.47Z"/><path d="M48,42.71c0,.44-.3.83-.89,1.18a2.92,2.92,0,0,1-1.5.48q-2,0-2-2.55A8.07,8.07,0,0,1,44,39.41q.54-1.68,1.38-1.68a2.53,2.53,0,0,1,1.57.72,2,2,0,0,1,.86,1.45,2.14,2.14,0,0,1-.75,1.62,2.45,2.45,0,0,1-1.7.69,1.14,1.14,0,0,1-.38-.15,1.18,1.18,0,0,0-.4-.15c-.13,0-.19,0-.19.12,0,1.15.38,1.73,1.14,1.73a1.71,1.71,0,0,0,1.08-.39,3.59,3.59,0,0,0,.66-.71c.19-.25.31-.37.37-.37C47.87,42.29,48,42.43,48,42.71ZM47,40a1.79,1.79,0,0,0-.3-1,.91.91,0,0,0-.79-.45,1.12,1.12,0,0,0-1,.75,2.86,2.86,0,0,0-.31,1.3,1,1,0,0,0,.27.73,1,1,0,0,0,.72.29,1.23,1.23,0,0,0,1-.52A1.75,1.75,0,0,0,47,40Z"/><path d="M53,43.32c0,.35-.27.65-.8.89a3.18,3.18,0,0,1-1.27.28,2.52,2.52,0,0,1-.93-.2,4.67,4.67,0,0,1-.92-.63c-.46-.37-.69-.63-.69-.77,0-.31.19-.45.56-.42h.09c0,.3.33.63,1,1a3,3,0,0,0,1.35.49c.44,0,.66-.15.66-.46s-.27-.43-.81-.75a8.81,8.81,0,0,1-1.52-1,2.5,2.5,0,0,1-.82-1.84,3,3,0,0,1,.4-1.49,1.35,1.35,0,0,1,1.17-.84,2.41,2.41,0,0,1,1.23.47,1.82,1.82,0,0,1,.84,1,3.3,3.3,0,0,1,.12.94,4.43,4.43,0,0,1-.21,1.28.48.48,0,0,1-.31.1,1.25,1.25,0,0,1-.33-.08c-.15-.06-.23-.11-.23-.17s.06-.07.17-.33a2.45,2.45,0,0,0,.12-.93c0-1.07-.34-1.61-1-1.61-.35,0-.63.24-.84.71A2.66,2.66,0,0,0,49.74,40a1.9,1.9,0,0,0,.86,1.42,17.45,17.45,0,0,0,1.57,1C52.74,42.84,53,43.12,53,43.32Z"/><path d="M60.07,39.47a1.38,1.38,0,0,1-.56.15,2.53,2.53,0,0,0-.57.1c0,.11,0,.67,0,1.67,0,.78,0,1.3,0,1.57a3.08,3.08,0,0,0,.08.53,3.88,3.88,0,0,1,.07.55.33.33,0,0,1-.15.24.45.45,0,0,1-.27.12c-.2,0-.36-.2-.48-.61a3.36,3.36,0,0,1-.12-.86V39.81c-.06-.05-.28-.05-.67,0s-.47-.07-.47-.34.41-.56,1.21-.53l.2-2.71a.41.41,0,0,0,0-.15.5.5,0,0,1,0-.14.21.21,0,0,1,.12-.17.38.38,0,0,1,.28-.07.49.49,0,0,1,.52.53,8.63,8.63,0,0,1-.1,1.12A9.13,9.13,0,0,0,59,38.46a1.34,1.34,0,0,0,0,.35l.82-.05q.42,0,.42.33A.44.44,0,0,1,60.07,39.47Z"/><path d="M64.83,44.6a.64.64,0,0,1-.45.12.5.5,0,0,1-.35-.21V42.45q0-3.81-1.26-3.81a1,1,0,0,0-.9.63,2.17,2.17,0,0,0-.31,1.11.63.63,0,0,1,0,.19.89.89,0,0,0,0,.19v1.92a4.94,4.94,0,0,0,.07.73,5.31,5.31,0,0,1,.08.72q0,.24-.36.24a.51.51,0,0,1-.43-.24.82.82,0,0,1-.18-.49l.1-9.24a.38.38,0,0,1,0-.18c0-.18.09-.27.29-.27a.9.9,0,0,1,.45.2c.19.13.29.25.29.34a6,6,0,0,1-.14,1,5,5,0,0,0-.14,1s0,.69,0,2a1.52,1.52,0,0,1,.85-.49,3.11,3.11,0,0,1,1.16.28c.87.36,1.3,1.31,1.3,2.85Z"/><path d="M70.26,44.63q0,.21-.33.21a.39.39,0,0,1-.43-.3,4.53,4.53,0,0,1,0-.59.55.55,0,0,0,0-.24,3,3,0,0,1-1.82.62,2.51,2.51,0,0,1-1.3-.38,1.22,1.22,0,0,1-.72-1.05c0-.41.28-.81.85-1.2a2.59,2.59,0,0,1,1.44-.54h1.49a.43.43,0,0,0,.09-.31,5.24,5.24,0,0,0-.17-1.52,1.05,1.05,0,0,0-1.06-.85,1.32,1.32,0,0,0-1,.72,2.31,2.31,0,0,0-.44,1.26v.16a.11.11,0,0,1-.12.12.5.5,0,0,1-.33-.18.48.48,0,0,1-.18-.31,2.79,2.79,0,0,1,.26-1.06,3.18,3.18,0,0,1,.55-1,1.21,1.21,0,0,1,.93-.4,2.58,2.58,0,0,1,1.58.54,1.8,1.8,0,0,1,.78,1.41Zm-.79-2.39c0-.4-.32-.6-.93-.6a3,3,0,0,0-1.29.26,1.06,1.06,0,0,0-.71,1,.7.7,0,0,0,.38.63,1.39,1.39,0,0,0,.75.19,2,2,0,0,0,1.22-.42A1.27,1.27,0,0,0,69.47,42.24Z"/><path d="M73.88,39.47a1.45,1.45,0,0,1-.57.15,2.53,2.53,0,0,0-.57.1c0,.11,0,.67,0,1.67,0,.78,0,1.3,0,1.57a3.08,3.08,0,0,0,.08.53,2.81,2.81,0,0,1,.07.55.33.33,0,0,1-.15.24.45.45,0,0,1-.27.12c-.2,0-.36-.2-.48-.61a3.36,3.36,0,0,1-.12-.86V39.81c-.06-.05-.28-.05-.67,0s-.47-.07-.47-.34.41-.56,1.22-.53l.19-2.71a.41.41,0,0,0,0-.15.5.5,0,0,1,0-.14.21.21,0,0,1,.12-.17.38.38,0,0,1,.28-.07c.35,0,.53.21.53.53a9.07,9.07,0,0,1-.11,1.12,8.65,8.65,0,0,0-.1,1.11,2,2,0,0,0,0,.35l.82-.05q.42,0,.42.33A.44.44,0,0,1,73.88,39.47Z"/><path d="M82.7,42.63c0,.25-.21.57-.62,1a2.74,2.74,0,0,1-1,.72,3,3,0,0,1-.87.16,1.94,1.94,0,0,1-1.68-.8A2.93,2.93,0,0,1,78,41.86a8,8,0,0,1,.49-2.59Q79.1,37.5,80,37.5a2.45,2.45,0,0,1,1.16.43c.48.28.75.56.81.82a4.09,4.09,0,0,1,.1.91c0,1.1-.16,1.65-.49,1.65a.64.64,0,0,1-.29-.09c-.11-.06-.16-.13-.16-.21a.35.35,0,0,1,.06-.16l.07-.12a4,4,0,0,0,.06-.9c0-1.11-.25-1.67-.75-1.67s-1,.51-1.35,1.52a7,7,0,0,0-.39,2.23,3.15,3.15,0,0,0,.26,1.35,1.12,1.12,0,0,0,1.06.71,1.8,1.8,0,0,0,1-.46,2.94,2.94,0,0,0,.78-.86l.18-.42a.25.25,0,0,1,.21-.11c.06,0,.13.07.22.2A.78.78,0,0,1,82.7,42.63Z"/><path d="M88,44.63q0,.21-.33.21a.39.39,0,0,1-.43-.3,4.53,4.53,0,0,1,0-.59.55.55,0,0,0,0-.24,3,3,0,0,1-1.82.62,2.51,2.51,0,0,1-1.3-.38,1.22,1.22,0,0,1-.72-1.05c0-.41.28-.81.85-1.2a2.59,2.59,0,0,1,1.44-.54h1.49a.43.43,0,0,0,.09-.31A5.24,5.24,0,0,0,87,39.33,1.05,1.05,0,0,0,86,38.48a1.32,1.32,0,0,0-1,.72,2.31,2.31,0,0,0-.44,1.26v.16a.11.11,0,0,1-.12.12.5.5,0,0,1-.33-.18.48.48,0,0,1-.18-.31,3,3,0,0,1,.26-1.06,3.18,3.18,0,0,1,.55-1,1.21,1.21,0,0,1,.93-.4,2.58,2.58,0,0,1,1.58.54A1.77,1.77,0,0,1,88,39.77Zm-.79-2.39q0-.6-.93-.6A3.06,3.06,0,0,0,85,41.9a1.06,1.06,0,0,0-.71,1,.7.7,0,0,0,.38.63,1.39,1.39,0,0,0,.75.19,2,2,0,0,0,1.22-.42A1.27,1.27,0,0,0,87.2,42.24Z"/><path d="M92.39,38.85s0,.13,0,.26-.25.3-.37.3a.25.25,0,0,1-.21-.15c0-.63-.29-.95-.78-.95-.32,0-.64.59-1,1.77a6.68,6.68,0,0,0-.18,1.73A10.32,10.32,0,0,0,90,43.5l.07.19a.61.61,0,0,1,.06.22q0,.33-.45.33a.46.46,0,0,1-.51-.53.79.79,0,0,1,0-.22,1.23,1.23,0,0,0,0-.21c0-.55,0-1.38-.08-2.48s-.07-1.92-.07-2.47c0-.2,0-.33.1-.37a.79.79,0,0,1,.41-.07c.25,0,.39.09.43.27l0,.59c.26-.4.41-.63.45-.68a.92.92,0,0,1,.69-.37,1,1,0,0,1,.54.16,1.72,1.72,0,0,1,.41.47A1.19,1.19,0,0,1,92.39,38.85Z"/><path d="M97.89,44.27a.26.26,0,0,1-.24.16,1.27,1.27,0,0,1-.51-.21v-.91q0-5-1.24-5c-.26,0-.54.19-.83.57a5.46,5.46,0,0,0-1.14,3.55,6.76,6.76,0,0,0,.08.83,5.73,5.73,0,0,1,.09.84c0,.15-.11.22-.31.22-.39,0-.58-.31-.58-.94V40c0-.09,0-.22,0-.39s0-.3,0-.39a5.49,5.49,0,0,0,0-.57,3.51,3.51,0,0,1,0-.55.41.41,0,0,1,.18-.28.54.54,0,0,1,.3-.16.46.46,0,0,1,.36.21c0,.65,0,1,0,1.14s0,.3,0,.44c.09,0,.21-.2.36-.5a3.62,3.62,0,0,1,.48-.78,1.06,1.06,0,0,1,.82-.42,1.77,1.77,0,0,1,.54.14,2,2,0,0,1,1.16,1A7.11,7.11,0,0,1,97.89,42Z"/><path d="M103.31,44.63q0,.21-.33.21a.4.4,0,0,1-.44-.3s0-.23,0-.59a.54.54,0,0,0,0-.24,3,3,0,0,1-1.81.62A2.54,2.54,0,0,1,99.36,44a1.22,1.22,0,0,1-.72-1.05c0-.41.29-.81.86-1.2a2.59,2.59,0,0,1,1.44-.54h1.48a.43.43,0,0,0,.09-.31,5.31,5.31,0,0,0-.16-1.52,1.06,1.06,0,0,0-1.07-.85,1.32,1.32,0,0,0-1,.72,2.3,2.3,0,0,0-.43,1.26v.16a.11.11,0,0,1-.12.12.5.5,0,0,1-.33-.18.48.48,0,0,1-.18-.31,3,3,0,0,1,.25-1.06,3.18,3.18,0,0,1,.56-1,1.21,1.21,0,0,1,.93-.4,2.55,2.55,0,0,1,1.57.54,1.77,1.77,0,0,1,.78,1.41Zm-.8-2.39q0-.6-.93-.6a3.06,3.06,0,0,0-1.29.26,1.05,1.05,0,0,0-.7,1,.7.7,0,0,0,.37.63,1.39,1.39,0,0,0,.75.19,2,2,0,0,0,1.22-.42A1.25,1.25,0,0,0,102.51,42.24Z"/><path d="M106.92,39.47a1.45,1.45,0,0,1-.57.15,2.53,2.53,0,0,0-.57.1c0,.11,0,.67,0,1.67,0,.78,0,1.3,0,1.57a2.83,2.83,0,0,0,.07.53A3,3,0,0,1,106,44a.33.33,0,0,1-.15.24.45.45,0,0,1-.27.12c-.2,0-.36-.2-.48-.61a3.36,3.36,0,0,1-.12-.86V39.81a1.36,1.36,0,0,0-.68,0c-.31,0-.46-.07-.46-.34s.4-.56,1.21-.53l.2-2.71a.85.85,0,0,0,0-.15.33.33,0,0,1,0-.14.21.21,0,0,1,.12-.17.41.41,0,0,1,.29-.07.49.49,0,0,1,.52.53,8.63,8.63,0,0,1-.1,1.12,9.13,9.13,0,0,0-.11,1.11,2,2,0,0,0,0,.35l.83-.05q.42,0,.42.33A.44.44,0,0,1,106.92,39.47Z"/><path d="M109,38.33a4.32,4.32,0,0,1-.13.81,3.62,3.62,0,0,0-.13.81v3.31a3.77,3.77,0,0,0,.15.9.18.18,0,0,1-.16.12c-.49,0-.74-.23-.74-.7V38.07a.8.8,0,0,1,.38-.1.76.76,0,0,1,.37.1C108.86,38.14,109,38.23,109,38.33Zm.28-2.25q0,.51-.48.51a.77.77,0,0,1-.52-.21.63.63,0,0,1-.24-.48.45.45,0,0,1,.51-.51.72.72,0,0,1,.51.19A.63.63,0,0,1,109.23,36.08Z"/><path d="M114.38,41.24a4.32,4.32,0,0,1-.57,2.25,2.08,2.08,0,0,1-1.88,1.15,2,2,0,0,1-1.81-.94,3.82,3.82,0,0,1-.5-2.07,5.92,5.92,0,0,1,.57-2.51c.48-1,1.09-1.51,1.83-1.51a1.74,1.74,0,0,1,.81.33A3.58,3.58,0,0,1,114.38,41.24Zm-.72,0a5.4,5.4,0,0,0-.26-1.72c-.25-.71-.63-1.07-1.15-1.07s-1.07.4-1.41,1.19a4.93,4.93,0,0,0-.39,2,4.13,4.13,0,0,0,.27,1.59,1.28,1.28,0,0,0,1.21.89,1.48,1.48,0,0,0,1.37-1A4.38,4.38,0,0,0,113.66,41.22Z"/><path d="M119.88,44.27a.26.26,0,0,1-.24.16,1.27,1.27,0,0,1-.51-.21v-.91q0-5-1.24-5c-.26,0-.53.19-.83.57a5.46,5.46,0,0,0-1.14,3.55,6.76,6.76,0,0,0,.08.83,5.73,5.73,0,0,1,.09.84c0,.15-.1.22-.31.22-.38,0-.58-.31-.58-.94V40c0-.09,0-.22,0-.39s0-.3,0-.39a5.49,5.49,0,0,0,0-.57,3.51,3.51,0,0,1-.05-.55.41.41,0,0,1,.18-.28.54.54,0,0,1,.3-.16.46.46,0,0,1,.36.21c0,.65,0,1,0,1.14s0,.3,0,.44c.09,0,.21-.2.36-.5a3.62,3.62,0,0,1,.48-.78,1.06,1.06,0,0,1,.82-.42,1.77,1.77,0,0,1,.54.14,2,2,0,0,1,1.16,1,7.11,7.11,0,0,1,.58,3.13Z"/><path d="M125.24,43.32c0,.35-.27.65-.8.89a3.18,3.18,0,0,1-1.27.28,2.52,2.52,0,0,1-.93-.2,4.67,4.67,0,0,1-.92-.63c-.46-.37-.69-.63-.69-.77,0-.31.19-.45.56-.42h.09c0,.3.34.63,1,1a3,3,0,0,0,1.35.49c.44,0,.66-.15.66-.46s-.27-.43-.81-.75a8.81,8.81,0,0,1-1.52-1,2.5,2.5,0,0,1-.82-1.84,3,3,0,0,1,.4-1.49,1.35,1.35,0,0,1,1.17-.84,2.41,2.41,0,0,1,1.23.47,1.82,1.82,0,0,1,.84,1,3.3,3.3,0,0,1,.12.94,4.43,4.43,0,0,1-.21,1.28.48.48,0,0,1-.31.1,1.25,1.25,0,0,1-.33-.08c-.15-.06-.23-.11-.23-.17s.06-.07.17-.33a2.45,2.45,0,0,0,.12-.93c0-1.07-.34-1.61-1-1.61-.35,0-.63.24-.84.71A2.66,2.66,0,0,0,122,40a1.9,1.9,0,0,0,.86,1.42,17.45,17.45,0,0,0,1.57,1C125,42.84,125.24,43.12,125.24,43.32Z"/><path d="M25.83,54.41a10.81,10.81,0,0,1-.37,2.82q-.53,2-1.53,2a1.5,1.5,0,0,1-1.26-.92l-.39-.91-.06,0c-.14.4-.29.8-.44,1.2a1,1,0,0,1-.94.69q-1.9,0-1.91-4.58,0-1,.06-1.65a.32.32,0,0,1,.27-.15.78.78,0,0,1,.39.13c.15.08.23.18.23.29a3.52,3.52,0,0,1-.1.61,2.71,2.71,0,0,0-.1.65c0,2.6.34,3.9,1,3.9.43,0,.77-.49,1-1.47a7.11,7.11,0,0,0,.3-2V53.57c0-.21.12-.32.36-.32s.44.2.44.6a1.31,1.31,0,0,1,0,.23c0,.1,0,.17,0,.22v1.85A4.74,4.74,0,0,0,23,57.53c.19.65.44,1,.76,1s.79-.54,1.08-1.63a8.9,8.9,0,0,0,.33-2.21,3.12,3.12,0,0,0-.12-1.15.5.5,0,0,0-.1-.14c-.07-.08-.11-.13-.11-.16a.45.45,0,0,1,.15-.32.4.4,0,0,1,.3-.15C25.65,52.74,25.83,53.3,25.83,54.41Z"/><path d="M31,57.71c0,.44-.3.83-.89,1.18a2.92,2.92,0,0,1-1.5.48q-2,0-2-2.55A8.07,8.07,0,0,1,27,54.41q.54-1.68,1.38-1.68a2.53,2.53,0,0,1,1.57.72,2,2,0,0,1,.86,1.45,2.14,2.14,0,0,1-.75,1.62,2.45,2.45,0,0,1-1.7.69,1.14,1.14,0,0,1-.38-.15,1.11,1.11,0,0,0-.4-.15c-.13,0-.19,0-.19.12,0,1.15.38,1.73,1.14,1.73a1.71,1.71,0,0,0,1.08-.39,3.59,3.59,0,0,0,.66-.71c.19-.25.31-.37.37-.37C30.86,57.29,31,57.43,31,57.71Zm-1-2.76a1.79,1.79,0,0,0-.3-1,.91.91,0,0,0-.79-.45,1.12,1.12,0,0,0-1,.75,2.86,2.86,0,0,0-.31,1.3,1,1,0,0,0,.28.73.94.94,0,0,0,.71.29,1.23,1.23,0,0,0,1-.52A1.75,1.75,0,0,0,29.94,55Z"/><path d="M35,53.85s0,.13,0,.26-.26.3-.38.3a.25.25,0,0,1-.21-.15c0-.63-.29-.95-.78-.95-.32,0-.63.59-.94,1.77a6.68,6.68,0,0,0-.18,1.73,10.86,10.86,0,0,0,.07,1.69l.08.19a.61.61,0,0,1,.06.22q0,.33-.45.33a.46.46,0,0,1-.51-.53.79.79,0,0,1,0-.22,1,1,0,0,0,0-.21c0-.55,0-1.38-.07-2.48s-.08-1.92-.08-2.47c0-.2,0-.33.11-.37a.74.74,0,0,1,.4-.07c.25,0,.4.09.44.27l0,.59c.26-.4.41-.63.45-.68a.92.92,0,0,1,.69-.37,1,1,0,0,1,.54.16,1.72,1.72,0,0,1,.41.47A1.13,1.13,0,0,1,35,53.85Z"/><path d="M39.65,57.71c0,.44-.3.83-.89,1.18a2.92,2.92,0,0,1-1.5.48q-2,0-2-2.55a8.07,8.07,0,0,1,.41-2.41q.54-1.68,1.38-1.68a2.53,2.53,0,0,1,1.57.72,2,2,0,0,1,.86,1.45,2.14,2.14,0,0,1-.75,1.62,2.45,2.45,0,0,1-1.7.69,1.22,1.22,0,0,1-.38-.15,1.11,1.11,0,0,0-.4-.15c-.13,0-.19,0-.19.12,0,1.15.38,1.73,1.14,1.73a1.71,1.71,0,0,0,1.08-.39,3.59,3.59,0,0,0,.66-.71c.19-.25.31-.37.37-.37C39.53,57.29,39.65,57.43,39.65,57.71Zm-1-2.76a1.79,1.79,0,0,0-.3-1,.91.91,0,0,0-.79-.45,1.12,1.12,0,0,0-1,.75,2.86,2.86,0,0,0-.31,1.3,1,1,0,0,0,.28.73.94.94,0,0,0,.71.29,1.23,1.23,0,0,0,1-.52A1.75,1.75,0,0,0,38.61,55Z"/><path d="M50.37,59.3a1,1,0,0,1-.48.19.69.69,0,0,1-.3-.1V57.76c0-3.08-.31-4.63-.94-4.63-.38,0-.7.48-1,1.44a7.33,7.33,0,0,0-.33,2V58a1.56,1.56,0,0,0,.07.34,1,1,0,0,1,.07.32c0,.08-.06.16-.17.24A.5.5,0,0,1,47,59a.43.43,0,0,1-.3-.19.53.53,0,0,1-.17-.32v-3a5.75,5.75,0,0,0-.16-1.22q-.21-.93-.51-.93c-.11,0-.28.14-.5.42a5.57,5.57,0,0,0-1.12,3.54,7.11,7.11,0,0,0,.06.76,6.82,6.82,0,0,1,.06.74c0,.3-.13.45-.38.45a.4.4,0,0,1-.31-.15,2.18,2.18,0,0,1-.14-.67,6.19,6.19,0,0,1-.07-.74V54.18q0-1.53.36-1.53a.5.5,0,0,1,.31.14.43.43,0,0,1,.15.3,4.92,4.92,0,0,1-.09.82c-.06.44-.09.72-.1.83l.07.07.57-1.29c.27-.55.59-.82,1-.82q.78,0,1.35,1.68a3.08,3.08,0,0,0,.38-.75,3.75,3.75,0,0,1,.4-.81.88.88,0,0,1,.71-.36,1.34,1.34,0,0,1,.9.54,5.2,5.2,0,0,1,.91,3.53Z"/><path d="M55.67,59.63q0,.21-.33.21a.4.4,0,0,1-.44-.3s0-.23,0-.59a.54.54,0,0,0,0-.24,3,3,0,0,1-1.81.62A2.54,2.54,0,0,1,51.72,59,1.22,1.22,0,0,1,51,57.9c0-.41.29-.81.86-1.2a2.59,2.59,0,0,1,1.44-.54h1.48a.43.43,0,0,0,.09-.31,5.31,5.31,0,0,0-.16-1.52,1.06,1.06,0,0,0-1.07-.85,1.32,1.32,0,0,0-1,.72,2.3,2.3,0,0,0-.43,1.26v.16a.11.11,0,0,1-.12.12.5.5,0,0,1-.33-.18.48.48,0,0,1-.18-.31,3,3,0,0,1,.25-1.06,3.18,3.18,0,0,1,.56-1,1.21,1.21,0,0,1,.93-.4,2.55,2.55,0,0,1,1.57.54,1.77,1.77,0,0,1,.78,1.41Zm-.8-2.39q0-.6-.93-.6a3.06,3.06,0,0,0-1.29.26,1.05,1.05,0,0,0-.7,1,.7.7,0,0,0,.37.63,1.39,1.39,0,0,0,.75.19,2.08,2.08,0,0,0,1.23-.42A1.26,1.26,0,0,0,54.87,57.24Z"/><path d="M61.32,49.65a5.66,5.66,0,0,1-.09.89c-.07.47-.11.76-.13.88,0,.31-.08,1.35-.15,3.1-.06,1.6-.09,2.49-.09,2.66a6.36,6.36,0,0,0,.28,2.27.31.31,0,0,1-.27.16.54.54,0,0,1-.33-.15.64.64,0,0,1-.24-.3,6.93,6.93,0,0,0-.09-.91,2.35,2.35,0,0,1-1.69,1.12,1.73,1.73,0,0,1-1.5-.73A2.82,2.82,0,0,1,56.57,57,8,8,0,0,1,57,54.36q.6-1.77,1.59-1.77a1.48,1.48,0,0,1,.86.32c.06,0,.29.25.7.63a40.53,40.53,0,0,0,.15-4.49.39.39,0,0,1,.29-.1.72.72,0,0,1,.7.7ZM60.2,55.2A2.33,2.33,0,0,0,59.9,54a1.1,1.1,0,0,0-1-.63q-.75,0-1.2,1.53a7.29,7.29,0,0,0-.36,2.17,2.83,2.83,0,0,0,.21,1.14.92.92,0,0,0,.86.63q.93,0,1.41-1.44A6.71,6.71,0,0,0,60.2,55.2Z"/><path d="M66.47,57.71c0,.44-.3.83-.89,1.18a2.92,2.92,0,0,1-1.5.48q-2,0-2-2.55a8.07,8.07,0,0,1,.41-2.41q.54-1.68,1.38-1.68a2.53,2.53,0,0,1,1.57.72,2,2,0,0,1,.86,1.45,2.14,2.14,0,0,1-.75,1.62,2.45,2.45,0,0,1-1.7.69,1.14,1.14,0,0,1-.38-.15,1.11,1.11,0,0,0-.4-.15c-.13,0-.19,0-.19.12,0,1.15.38,1.73,1.14,1.73a1.71,1.71,0,0,0,1.08-.39,3.59,3.59,0,0,0,.66-.71c.19-.25.31-.37.37-.37C66.35,57.29,66.47,57.43,66.47,57.71Zm-1-2.76a1.79,1.79,0,0,0-.3-1,.91.91,0,0,0-.79-.45,1.12,1.12,0,0,0-1,.75,2.86,2.86,0,0,0-.31,1.3,1,1,0,0,0,.28.73.94.94,0,0,0,.71.29,1.23,1.23,0,0,0,1-.52A1.75,1.75,0,0,0,65.43,55Z"/><path d="M75.15,49.94q0,.3-.45.3a.23.23,0,0,1-.13,0c0-.43-.32-.65-.84-.65s-.87.56-1.14,1.69a10.24,10.24,0,0,0-.27,2.27,1.2,1.2,0,0,1,.27,0H73c.37,0,.56.11.56.33a2.13,2.13,0,0,1,0,.3,1.63,1.63,0,0,1-.76.14,1.17,1.17,0,0,0-.49.06c0,.39,0,1.09,0,2.11v1.08A6.68,6.68,0,0,0,72.4,59a.24.24,0,0,1,0,.13q0,.36-.51.36c-.3,0-.45-.4-.45-1.21q0-3.3.06-3.9h-.77c-.23,0-.34-.11-.34-.33s.2-.44.6-.44h.54c0-.2,0-.45.06-.76q.23-4,2.23-4Q75.15,48.86,75.15,49.94Z"/><path d="M77.55,53.85s0,.13,0,.26-.26.3-.38.3a.25.25,0,0,1-.21-.15c0-.63-.29-.95-.78-.95-.32,0-.63.59-.94,1.77a6.68,6.68,0,0,0-.18,1.73,10.86,10.86,0,0,0,.07,1.69l.08.19a.61.61,0,0,1,.06.22q0,.33-.45.33a.46.46,0,0,1-.51-.53,1.22,1.22,0,0,1,0-.22.68.68,0,0,0,0-.21c0-.55,0-1.38-.07-2.48s-.08-1.92-.08-2.47c0-.2,0-.33.11-.37a.74.74,0,0,1,.4-.07c.25,0,.4.09.44.27l0,.59c.26-.4.41-.63.45-.68a.92.92,0,0,1,.69-.37,1,1,0,0,1,.54.16,1.91,1.91,0,0,1,.41.47A1.25,1.25,0,0,1,77.55,53.85Z"/><path d="M82.46,56.24a4.32,4.32,0,0,1-.57,2.25A2.08,2.08,0,0,1,80,59.64a2,2,0,0,1-1.81-.94,3.82,3.82,0,0,1-.5-2.07,5.92,5.92,0,0,1,.57-2.51c.48-1,1.09-1.51,1.83-1.51a1.74,1.74,0,0,1,.81.33A3.58,3.58,0,0,1,82.46,56.24Zm-.72,0a5.4,5.4,0,0,0-.26-1.72c-.25-.71-.63-1.07-1.15-1.07s-1.07.4-1.41,1.19a4.93,4.93,0,0,0-.39,2,4.13,4.13,0,0,0,.27,1.59,1.28,1.28,0,0,0,1.21.89,1.48,1.48,0,0,0,1.37-1A4.38,4.38,0,0,0,81.74,56.22Z"/><path d="M90.3,59.3a1,1,0,0,1-.48.19.69.69,0,0,1-.3-.1V57.76c0-3.08-.31-4.63-1-4.63-.37,0-.7.48-1,1.44a7.33,7.33,0,0,0-.33,2V58a1.56,1.56,0,0,0,.07.34,1,1,0,0,1,.07.32c0,.08-.06.16-.17.24A.5.5,0,0,1,87,59a.43.43,0,0,1-.3-.19.53.53,0,0,1-.17-.32v-3a5.75,5.75,0,0,0-.16-1.22q-.21-.93-.51-.93c-.11,0-.28.14-.5.42a5.57,5.57,0,0,0-1.12,3.54,7.11,7.11,0,0,0,.06.76,6.82,6.82,0,0,1,.06.74c0,.3-.13.45-.38.45a.4.4,0,0,1-.31-.15,2.18,2.18,0,0,1-.14-.67,6.19,6.19,0,0,1-.07-.74V54.18q0-1.53.36-1.53a.5.5,0,0,1,.31.14.43.43,0,0,1,.15.3,4.92,4.92,0,0,1-.09.82c-.06.44-.09.72-.1.83l.07.07.57-1.29c.27-.55.59-.82,1-.82s1,.56,1.35,1.68a3.08,3.08,0,0,0,.38-.75,3.75,3.75,0,0,1,.4-.81.88.88,0,0,1,.71-.36,1.34,1.34,0,0,1,.9.54,5.2,5.2,0,0,1,.91,3.53Z"/><path d="M97.35,54.47a1.45,1.45,0,0,1-.57.15,2.53,2.53,0,0,0-.57.1c0,.11,0,.67,0,1.67,0,.78,0,1.3,0,1.57a2.83,2.83,0,0,0,.07.53,3,3,0,0,1,.08.55.33.33,0,0,1-.15.24.45.45,0,0,1-.27.12c-.2,0-.36-.2-.48-.61a3.36,3.36,0,0,1-.12-.86V54.81a1.33,1.33,0,0,0-.67,0c-.32,0-.47-.07-.47-.34s.4-.56,1.21-.53l.2-2.71a.85.85,0,0,0,0-.15.63.63,0,0,1,0-.14.21.21,0,0,1,.12-.17A.41.41,0,0,1,96,50.7a.49.49,0,0,1,.52.53,8.63,8.63,0,0,1-.1,1.12,9.13,9.13,0,0,0-.11,1.11,2,2,0,0,0,0,.35l.83-.05q.42,0,.42.33A.44.44,0,0,1,97.35,54.47Z"/><path d="M102.11,59.6a.64.64,0,0,1-.45.12.5.5,0,0,1-.35-.21V57.45c0-2.54-.42-3.81-1.27-3.81a1,1,0,0,0-.89.63,2.17,2.17,0,0,0-.31,1.11,1.3,1.3,0,0,1,0,.19,1.08,1.08,0,0,0,0,.19v1.92a5.26,5.26,0,0,0,.08.73,5,5,0,0,1,.07.72q0,.24-.36.24a.52.52,0,0,1-.43-.24.88.88,0,0,1-.17-.49L98,49.4a.57.57,0,0,1,0-.18q0-.27.3-.27a.84.84,0,0,1,.44.2c.2.13.3.25.3.34a5.31,5.31,0,0,1-.15,1,5.81,5.81,0,0,0-.14,1s0,.69,0,2a1.56,1.56,0,0,1,.86-.49,3,3,0,0,1,1.15.28c.87.36,1.31,1.31,1.31,2.85Z"/><path d="M107.36,57.71c0,.44-.3.83-.89,1.18a2.92,2.92,0,0,1-1.5.48q-2,0-2-2.55a8.07,8.07,0,0,1,.41-2.41q.54-1.68,1.38-1.68a2.53,2.53,0,0,1,1.57.72,2,2,0,0,1,.86,1.45,2.14,2.14,0,0,1-.75,1.62,2.45,2.45,0,0,1-1.7.69,1.14,1.14,0,0,1-.38-.15,1.18,1.18,0,0,0-.4-.15c-.13,0-.19,0-.19.12,0,1.15.38,1.73,1.14,1.73a1.71,1.71,0,0,0,1.08-.39,3.59,3.59,0,0,0,.66-.71c.19-.25.31-.37.37-.37C107.24,57.29,107.36,57.43,107.36,57.71Zm-1-2.76a1.79,1.79,0,0,0-.3-1,.91.91,0,0,0-.79-.45,1.12,1.12,0,0,0-1,.75,2.86,2.86,0,0,0-.31,1.3,1,1,0,0,0,.28.73.94.94,0,0,0,.71.29,1.23,1.23,0,0,0,1-.52A1.75,1.75,0,0,0,106.32,55Z"/><path d="M114.33,54.47a1.45,1.45,0,0,1-.57.15,2.53,2.53,0,0,0-.57.1c0,.11,0,.67,0,1.67,0,.78,0,1.3,0,1.57a2.83,2.83,0,0,0,.07.53,3,3,0,0,1,.08.55.33.33,0,0,1-.15.24.45.45,0,0,1-.27.12c-.2,0-.36-.2-.48-.61a3.36,3.36,0,0,1-.12-.86V54.81c-.06-.05-.28-.05-.67,0s-.47-.07-.47-.34.4-.56,1.21-.53l.2-2.71a.41.41,0,0,0,0-.15.63.63,0,0,1,0-.14.21.21,0,0,1,.12-.17.41.41,0,0,1,.29-.07.49.49,0,0,1,.52.53,8.63,8.63,0,0,1-.1,1.12,9.13,9.13,0,0,0-.11,1.11,2,2,0,0,0,0,.35l.83-.05q.42,0,.42.33A.44.44,0,0,1,114.33,54.47Z"/><path d="M119.12,57.71c0,.44-.3.83-.89,1.18a2.92,2.92,0,0,1-1.5.48q-2,0-2-2.55a8.07,8.07,0,0,1,.41-2.41q.54-1.68,1.38-1.68a2.53,2.53,0,0,1,1.57.72,2,2,0,0,1,.86,1.45,2.14,2.14,0,0,1-.75,1.62,2.45,2.45,0,0,1-1.7.69,1.22,1.22,0,0,1-.38-.15,1.11,1.11,0,0,0-.4-.15c-.13,0-.19,0-.19.12,0,1.15.38,1.73,1.14,1.73a1.71,1.71,0,0,0,1.08-.39,3.59,3.59,0,0,0,.66-.71c.19-.25.31-.37.37-.37C119,57.29,119.12,57.43,119.12,57.71Zm-1-2.76a1.79,1.79,0,0,0-.3-1,.91.91,0,0,0-.79-.45,1.12,1.12,0,0,0-1,.75,2.86,2.86,0,0,0-.31,1.3,1,1,0,0,0,.28.73.94.94,0,0,0,.71.29,1.23,1.23,0,0,0,1-.52A1.75,1.75,0,0,0,118.08,55Z"/><path d="M124.34,59.63q0,.21-.33.21a.4.4,0,0,1-.44-.3s0-.23,0-.59a.54.54,0,0,0,0-.24,3,3,0,0,1-1.81.62,2.54,2.54,0,0,1-1.31-.38,1.22,1.22,0,0,1-.72-1.05c0-.41.29-.81.86-1.2a2.59,2.59,0,0,1,1.44-.54h1.48a.43.43,0,0,0,.09-.31,5.31,5.31,0,0,0-.16-1.52,1.06,1.06,0,0,0-1.07-.85,1.32,1.32,0,0,0-1,.72,2.3,2.3,0,0,0-.43,1.26v.16a.11.11,0,0,1-.12.12.5.5,0,0,1-.33-.18.48.48,0,0,1-.18-.31,3,3,0,0,1,.25-1.06,3.18,3.18,0,0,1,.56-1,1.21,1.21,0,0,1,.93-.4,2.55,2.55,0,0,1,1.57.54,1.77,1.77,0,0,1,.78,1.41Zm-.8-2.39q0-.6-.93-.6a3.06,3.06,0,0,0-1.29.26,1.05,1.05,0,0,0-.7,1,.7.7,0,0,0,.37.63,1.39,1.39,0,0,0,.75.19,2.08,2.08,0,0,0,1.23-.42A1.26,1.26,0,0,0,123.54,57.24Z"/><path d="M128.73,53.85s0,.13,0,.26-.26.3-.38.3a.25.25,0,0,1-.21-.15c0-.63-.29-.95-.78-.95-.32,0-.63.59-.94,1.77a6.68,6.68,0,0,0-.18,1.73,10.86,10.86,0,0,0,.07,1.69l.08.19a.61.61,0,0,1,.06.22q0,.33-.45.33a.46.46,0,0,1-.51-.53,1.22,1.22,0,0,1,0-.22.68.68,0,0,0,0-.21c0-.55,0-1.38-.07-2.48s-.08-1.92-.08-2.47c0-.2,0-.33.11-.37a.74.74,0,0,1,.4-.07c.25,0,.4.09.44.27l0,.59c.26-.4.41-.63.45-.68a.92.92,0,0,1,.69-.37,1,1,0,0,1,.54.16,1.91,1.91,0,0,1,.41.47A1.25,1.25,0,0,1,128.73,53.85Z"/><path d="M133.25,58.32c0,.35-.27.65-.8.89a3.18,3.18,0,0,1-1.27.28,2.52,2.52,0,0,1-.93-.2,4.67,4.67,0,0,1-.92-.63c-.46-.37-.69-.63-.69-.77,0-.31.19-.45.56-.42h.09c0,.3.34.63,1,1a3,3,0,0,0,1.35.49c.44,0,.66-.15.66-.46s-.27-.43-.81-.75a8.81,8.81,0,0,1-1.52-1,2.5,2.5,0,0,1-.82-1.84,3,3,0,0,1,.4-1.49,1.35,1.35,0,0,1,1.17-.84,2.41,2.41,0,0,1,1.23.47,1.82,1.82,0,0,1,.84,1,3.3,3.3,0,0,1,.12.94,4.43,4.43,0,0,1-.21,1.28.48.48,0,0,1-.31.1,1.25,1.25,0,0,1-.33-.08c-.15-.06-.23-.11-.23-.17s.06-.07.17-.33a2.45,2.45,0,0,0,.12-.93c0-1.07-.34-1.61-1-1.61-.35,0-.63.24-.84.71A2.66,2.66,0,0,0,130,55a1.9,1.9,0,0,0,.86,1.42,17.45,17.45,0,0,0,1.57,1C133,57.84,133.25,58.12,133.25,58.32Z"/><path d="M60.84,71.24a4.32,4.32,0,0,1-.57,2.25,2.07,2.07,0,0,1-1.87,1.15,2,2,0,0,1-1.82-.94,3.82,3.82,0,0,1-.49-2.07,5.92,5.92,0,0,1,.57-2.51c.48-1,1.09-1.51,1.83-1.51a1.74,1.74,0,0,1,.81.33A3.57,3.57,0,0,1,60.84,71.24Zm-.72,0a5.41,5.41,0,0,0-.25-1.72c-.25-.71-.64-1.07-1.16-1.07s-1.07.4-1.41,1.19a4.93,4.93,0,0,0-.39,2,4.13,4.13,0,0,0,.27,1.59,1.29,1.29,0,0,0,1.22.89,1.47,1.47,0,0,0,1.36-1A4.38,4.38,0,0,0,60.12,71.22Z"/><path d="M66.08,64.94q0,.3-.45.3a.26.26,0,0,1-.14,0c0-.43-.32-.65-.84-.65s-.87.56-1.14,1.69a10.24,10.24,0,0,0-.27,2.27h.68c.37,0,.55.11.55.33a2.13,2.13,0,0,1,0,.3,1.6,1.6,0,0,1-.76.14,1.11,1.11,0,0,0-.48.06c0,.39-.05,1.09-.05,2.11v1.08A6.14,6.14,0,0,0,63.33,74a.35.35,0,0,1,0,.13q0,.36-.51.36c-.3,0-.45-.4-.45-1.21q0-3.3.06-3.9H61.7c-.23,0-.35-.11-.35-.33s.2-.44.6-.44h.54c0-.2,0-.45.06-.76q.23-4,2.24-4Q66.08,63.86,66.08,64.94Z"/><path d="M75.41,64.65c0,.17-.1.26-.3.26l-.27,0h-.27q-.72,0-.72.45a2.38,2.38,0,0,0,0,.34c0,.15,0,.26,0,.34a39.71,39.71,0,0,1-.21,4.41,10.65,10.65,0,0,1-.52,2.5,2,2,0,0,1-1.82,1.45,2.36,2.36,0,0,1-1.89-1.21A3.81,3.81,0,0,1,68.67,71c0-.82.14-1.23.41-1.23q.66,0,.66,1.14v1A1.75,1.75,0,0,0,70.22,73a1.35,1.35,0,0,0,1,.57q1.68,0,1.68-5c0-2.31,0-3.38,0-3.21l0,0a3,3,0,0,0-1.2.45,7.06,7.06,0,0,1-.84.44.34.34,0,0,1-.29-.19.76.76,0,0,1-.1-.37c0-.17.11-.3.33-.4s.54-.18,1.08-.33a4.55,4.55,0,0,0,1-.42l0,0c0-.31.17-.46.4-.46a.58.58,0,0,1,.28.13.59.59,0,0,0,.28.14,2,2,0,0,0,.38-.07,1.34,1.34,0,0,1,.38-.07,1,1,0,0,1,.47.14A.41.41,0,0,1,75.41,64.65Z"/><path d="M79.43,72.71c0,.44-.3.83-.89,1.18a2.92,2.92,0,0,1-1.5.48q-2,0-2-2.55a8.07,8.07,0,0,1,.41-2.41q.54-1.68,1.38-1.68a2.53,2.53,0,0,1,1.57.72,2,2,0,0,1,.86,1.45,2.14,2.14,0,0,1-.75,1.62,2.45,2.45,0,0,1-1.7.69,1.14,1.14,0,0,1-.38-.15,1.18,1.18,0,0,0-.4-.15c-.13,0-.19,0-.19.12,0,1.15.38,1.73,1.14,1.73a1.71,1.71,0,0,0,1.08-.39,3.59,3.59,0,0,0,.66-.71c.19-.25.31-.37.37-.37C79.31,72.29,79.43,72.43,79.43,72.71Zm-1-2.76a1.79,1.79,0,0,0-.3-1,.91.91,0,0,0-.79-.45,1.12,1.12,0,0,0-1,.75,2.86,2.86,0,0,0-.31,1.3,1,1,0,0,0,.27.73,1,1,0,0,0,.72.29,1.23,1.23,0,0,0,1-.52A1.75,1.75,0,0,0,78.39,70Z"/><path d="M84.47,73.32c0,.35-.27.65-.8.89a3.18,3.18,0,0,1-1.27.28,2.52,2.52,0,0,1-.93-.2,4.67,4.67,0,0,1-.92-.63c-.46-.37-.69-.63-.69-.77,0-.31.19-.45.56-.42h.09c0,.3.34.63,1,1a3,3,0,0,0,1.35.49c.44,0,.66-.15.66-.46s-.27-.43-.81-.75a8.81,8.81,0,0,1-1.52-1,2.5,2.5,0,0,1-.82-1.84,3,3,0,0,1,.4-1.49,1.35,1.35,0,0,1,1.17-.84,2.41,2.41,0,0,1,1.23.47A1.82,1.82,0,0,1,84,69a3.3,3.3,0,0,1,.12.94,4.43,4.43,0,0,1-.21,1.28.48.48,0,0,1-.31.1,1.25,1.25,0,0,1-.33-.08c-.15-.06-.23-.11-.23-.17s.06-.07.17-.33a2.45,2.45,0,0,0,.12-.93c0-1.07-.34-1.61-1-1.61-.35,0-.63.24-.84.71A2.66,2.66,0,0,0,81.18,70,1.9,1.9,0,0,0,82,71.45a17.45,17.45,0,0,0,1.57,1C84.18,72.84,84.47,73.12,84.47,73.32Z"/><path d="M89.27,68.58c0,.31,0,.77-.1,1.39a14.23,14.23,0,0,0-.1,1.6c0,.18,0,.52.05,1s.06.87.06,1.09c0,.44-.05.71-.15.8a.48.48,0,0,1-.26.06.45.45,0,0,1-.45-.29l-.12-.55a2.08,2.08,0,0,1-1.48.84,1.22,1.22,0,0,1-.9-.35,1.9,1.9,0,0,1-.62-.72A5.73,5.73,0,0,1,85,71.55V68.28q-.09-.45.51-.45.42,0,.42.48c0,.48,0,1.11,0,1.88,0,1,0,1.6,0,1.87a2.35,2.35,0,0,0,.24,1.08c.2.43.46.65.77.65.51,0,.9-.34,1.18-1a4.56,4.56,0,0,0,.3-1.68v-2a1.22,1.22,0,0,0-.08-.34.9.9,0,0,1-.08-.35.92.92,0,0,1,0-.16.7.7,0,0,1,.42-.21C89,68,89.27,68.19,89.27,68.58Z"/><path d="M94.43,73.32c0,.35-.27.65-.8.89a3.18,3.18,0,0,1-1.27.28,2.52,2.52,0,0,1-.93-.2,4.67,4.67,0,0,1-.92-.63c-.46-.37-.69-.63-.69-.77,0-.31.19-.45.56-.42h.09c0,.3.34.63,1,1a3,3,0,0,0,1.35.49c.44,0,.66-.15.66-.46s-.27-.43-.81-.75a8.81,8.81,0,0,1-1.52-1,2.5,2.5,0,0,1-.82-1.84,3,3,0,0,1,.4-1.49,1.35,1.35,0,0,1,1.17-.84,2.41,2.41,0,0,1,1.23.47,1.82,1.82,0,0,1,.84,1,3.3,3.3,0,0,1,.12.94,4.43,4.43,0,0,1-.21,1.28.48.48,0,0,1-.31.1,1.25,1.25,0,0,1-.33-.08c-.15-.06-.23-.11-.23-.17s.06-.07.17-.33a2.45,2.45,0,0,0,.12-.93c0-1.07-.34-1.61-1-1.61-.35,0-.63.24-.84.71A2.66,2.66,0,0,0,91.14,70,1.9,1.9,0,0,0,92,71.45a17.45,17.45,0,0,0,1.57,1C94.14,72.84,94.43,73.12,94.43,73.32Z"/><path d="M96.17,64.16a.91.91,0,0,1-.1.18,1.06,1.06,0,0,0-.11.21,2.64,2.64,0,0,0-.09.81c0,.13,0,.32,0,.57s0,.45,0,.58c0,.38-.14.57-.43.57s-.3,0-.35-.15c0-1.15,0-1.78,0-1.9a4,4,0,0,1,.06-.6c.06-.31.13-.48.2-.5a.35.35,0,0,1,.16,0C96,63.9,96.17,64,96.17,64.16Z"/><path d="M27.12,89.3a1,1,0,0,1-.48.19.69.69,0,0,1-.3-.1V87.76c0-3.08-.31-4.63-.95-4.63-.37,0-.7.48-1,1.44a7.33,7.33,0,0,0-.33,2V88a1.13,1.13,0,0,0,.07.34,1.44,1.44,0,0,1,.07.32c0,.08-.06.16-.17.24a.5.5,0,0,1-.28.12.43.43,0,0,1-.3-.19.53.53,0,0,1-.17-.32v-3a5.75,5.75,0,0,0-.16-1.22q-.21-.93-.51-.93c-.11,0-.28.14-.5.42A5.57,5.57,0,0,0,21,87.33a7.11,7.11,0,0,0,.06.76,6.82,6.82,0,0,1,.06.74c0,.3-.13.45-.38.45a.4.4,0,0,1-.31-.15,2.18,2.18,0,0,1-.14-.67,6.19,6.19,0,0,1-.07-.74V84.18q0-1.53.36-1.53a.46.46,0,0,1,.3.14.41.41,0,0,1,.16.3,4.92,4.92,0,0,1-.09.82c-.06.44-.09.72-.1.83l.07.07.57-1.29c.27-.55.59-.82,1-.82q.78,0,1.35,1.68a3.08,3.08,0,0,0,.38-.75,3.75,3.75,0,0,1,.4-.81.88.88,0,0,1,.71-.36,1.34,1.34,0,0,1,.9.54,5.2,5.2,0,0,1,.91,3.53Z"/><path d="M32.75,86.24a4.32,4.32,0,0,1-.57,2.25,2.08,2.08,0,0,1-1.88,1.15,2,2,0,0,1-1.81-.94,3.82,3.82,0,0,1-.5-2.07,5.92,5.92,0,0,1,.57-2.51c.48-1,1.09-1.51,1.83-1.51a1.74,1.74,0,0,1,.81.33A3.58,3.58,0,0,1,32.75,86.24Zm-.72,0a5.4,5.4,0,0,0-.26-1.72c-.25-.71-.63-1.07-1.15-1.07s-1.07.4-1.41,1.19a4.93,4.93,0,0,0-.39,2,4.13,4.13,0,0,0,.27,1.59,1.28,1.28,0,0,0,1.21.89,1.48,1.48,0,0,0,1.37-1A4.38,4.38,0,0,0,32,86.22Z"/><path d="M36,84.47a1.45,1.45,0,0,1-.57.15,2.53,2.53,0,0,0-.57.1c0,.11,0,.67,0,1.67,0,.78,0,1.3,0,1.57a3.08,3.08,0,0,0,.08.53A2.81,2.81,0,0,1,35,89a.33.33,0,0,1-.15.24.45.45,0,0,1-.27.12c-.2,0-.36-.2-.48-.61a3.36,3.36,0,0,1-.12-.86V84.81c-.06,0-.28,0-.67,0s-.47-.07-.47-.34.41-.56,1.22-.53l.19-2.71a.41.41,0,0,0,0-.15.5.5,0,0,1,0-.14.21.21,0,0,1,.12-.17.38.38,0,0,1,.28-.07c.35,0,.53.21.53.53A9.07,9.07,0,0,1,35,82.35a8.65,8.65,0,0,0-.1,1.11,2,2,0,0,0,0,.35l.82,0q.42,0,.42.33A.44.44,0,0,1,36,84.47Z"/><path d="M40.77,89.6a.64.64,0,0,1-.45.12.48.48,0,0,1-.34-.21V87.45c0-2.54-.43-3.81-1.27-3.81a1,1,0,0,0-.89.63,2.18,2.18,0,0,0-.32,1.11.63.63,0,0,1,0,.19.89.89,0,0,0,0,.19v1.92a4.94,4.94,0,0,0,.07.73,5.31,5.31,0,0,1,.08.72q0,.24-.36.24a.51.51,0,0,1-.43-.24.81.81,0,0,1-.17-.49l.09-9.24a.57.57,0,0,1,0-.18q0-.27.3-.27a.84.84,0,0,1,.44.2c.19.13.29.25.29.34a6,6,0,0,1-.14,1,5,5,0,0,0-.14,1s0,.69,0,2a1.55,1.55,0,0,1,.85-.49,3.07,3.07,0,0,1,1.16.28c.87.36,1.3,1.31,1.3,2.85Z"/><path d="M46,87.71c0,.44-.29.83-.88,1.18a2.92,2.92,0,0,1-1.5.48q-2,0-2-2.55a8,8,0,0,1,.4-2.41q.54-1.68,1.38-1.68a2.56,2.56,0,0,1,1.58.72,2,2,0,0,1,.85,1.45,2.14,2.14,0,0,1-.75,1.62,2.43,2.43,0,0,1-1.69.69,1.14,1.14,0,0,1-.38-.15,1.18,1.18,0,0,0-.4-.15c-.13,0-.2,0-.2.12,0,1.15.38,1.73,1.14,1.73a1.71,1.71,0,0,0,1.08-.39,3.59,3.59,0,0,0,.66-.71c.19-.25.32-.37.38-.37C45.91,87.29,46,87.43,46,87.71ZM45,85a1.79,1.79,0,0,0-.3-1,.92.92,0,0,0-.8-.45c-.4,0-.72.25-1,.75a2.87,2.87,0,0,0-.32,1.3,1,1,0,0,0,.28.73,1,1,0,0,0,.71.29,1.23,1.23,0,0,0,1-.52A1.76,1.76,0,0,0,45,85Z"/><path d="M50,83.85s0,.13,0,.26-.25.3-.37.3a.25.25,0,0,1-.21-.15c0-.63-.29-1-.78-1-.32,0-.64.59-.95,1.77a6.68,6.68,0,0,0-.18,1.73,10.32,10.32,0,0,0,.08,1.69l.07.19a.61.61,0,0,1,.06.22q0,.33-.45.33a.46.46,0,0,1-.51-.53,1.51,1.51,0,0,1,0-.22.68.68,0,0,0,0-.21c0-.55,0-1.38-.08-2.48s-.07-1.92-.07-2.47c0-.2,0-.33.1-.37a.79.79,0,0,1,.41-.07c.25,0,.39.09.43.27l0,.59c.26-.4.41-.63.45-.68a.92.92,0,0,1,.69-.37,1,1,0,0,1,.54.16,1.89,1.89,0,0,1,.42.47A1.25,1.25,0,0,1,50,83.85Z"/><path d="M60.84,84.41a10.81,10.81,0,0,1-.37,2.82q-.53,2-1.53,2a1.5,1.5,0,0,1-1.26-.92l-.39-.91-.06,0c-.14.4-.29.8-.44,1.2a1,1,0,0,1-.94.69q-1.91,0-1.91-4.58,0-1.05.06-1.65a.32.32,0,0,1,.27-.15.78.78,0,0,1,.39.13c.15.08.23.18.23.29a2.75,2.75,0,0,1-.1.61,3.33,3.33,0,0,0-.1.65c0,2.6.34,3.9,1,3.9.43,0,.77-.49,1-1.47a7.11,7.11,0,0,0,.3-2V83.57c0-.21.12-.32.36-.32s.44.2.44.6c0,.05,0,.13,0,.23a1.22,1.22,0,0,0,0,.22v1.85A4.74,4.74,0,0,0,58,87.53c.19.65.44,1,.76,1s.79-.54,1.08-1.63a8.9,8.9,0,0,0,.33-2.21,3.12,3.12,0,0,0-.12-1.15.5.5,0,0,0-.1-.14c-.07-.08-.11-.13-.11-.16a.45.45,0,0,1,.15-.32.4.4,0,0,1,.3-.15C60.66,82.74,60.84,83.3,60.84,84.41Z"/><path d="M65.64,89.6a.64.64,0,0,1-.45.12.48.48,0,0,1-.34-.21V87.45c0-2.54-.42-3.81-1.27-3.81a1,1,0,0,0-.89.63,2.18,2.18,0,0,0-.32,1.11,1,1,0,0,1,0,.19.58.58,0,0,0,0,.19v1.92a4.94,4.94,0,0,0,.07.73,5.31,5.31,0,0,1,.08.72q0,.24-.36.24a.52.52,0,0,1-.43-.24.88.88,0,0,1-.17-.49l.09-9.24a.57.57,0,0,1,0-.18q0-.27.3-.27a.84.84,0,0,1,.44.2c.2.13.29.25.29.34a5.13,5.13,0,0,1-.14,1,5.81,5.81,0,0,0-.14,1s0,.69,0,2a1.55,1.55,0,0,1,.85-.49,3.07,3.07,0,0,1,1.16.28c.87.36,1.3,1.31,1.3,2.85Z"/><path d="M70.89,87.71c0,.44-.29.83-.88,1.18a2.92,2.92,0,0,1-1.5.48q-2,0-2-2.55a8,8,0,0,1,.4-2.41q.54-1.68,1.38-1.68a2.56,2.56,0,0,1,1.58.72,2,2,0,0,1,.85,1.45A2.14,2.14,0,0,1,70,86.52a2.43,2.43,0,0,1-1.69.69,1.14,1.14,0,0,1-.38-.15,1.18,1.18,0,0,0-.4-.15c-.13,0-.2,0-.2.12,0,1.15.38,1.73,1.14,1.73a1.71,1.71,0,0,0,1.08-.39,3.59,3.59,0,0,0,.66-.71c.19-.25.32-.37.38-.37C70.78,87.29,70.89,87.43,70.89,87.71Zm-1-2.76a1.79,1.79,0,0,0-.3-1,.92.92,0,0,0-.8-.45c-.4,0-.72.25-1,.75a2.87,2.87,0,0,0-.32,1.3,1.05,1.05,0,0,0,.28.73,1,1,0,0,0,.71.29,1.23,1.23,0,0,0,1-.52A1.76,1.76,0,0,0,69.86,85Z"/><path d="M76.32,89.27a.25.25,0,0,1-.24.16,1.27,1.27,0,0,1-.51-.21v-.91q0-5-1.24-5c-.25,0-.53.19-.83.57a5.54,5.54,0,0,0-1,4.38,7.07,7.07,0,0,1,.08.84c0,.15-.1.22-.31.22-.38,0-.58-.31-.58-.94V85c0-.09,0-.22,0-.39s0-.3,0-.39a3.63,3.63,0,0,0,0-.57,5.44,5.44,0,0,1-.05-.55.4.4,0,0,1,.19-.28.5.5,0,0,1,.29-.16.46.46,0,0,1,.36.21c0,.65,0,1,0,1.14s0,.3,0,.44c.09,0,.21-.2.36-.5a3.62,3.62,0,0,1,.48-.78,1.06,1.06,0,0,1,.82-.42,1.77,1.77,0,0,1,.54.14,2,2,0,0,1,1.16,1A7.11,7.11,0,0,1,76.32,87Z"/><path d="M84.84,88.32c0,.35-.26.65-.79.89a3.22,3.22,0,0,1-1.28.28,2.52,2.52,0,0,1-.93-.2,4.69,4.69,0,0,1-.91-.63c-.46-.37-.69-.63-.69-.77,0-.31.18-.45.55-.42h.09c0,.3.34.63,1,1a3,3,0,0,0,1.35.49c.44,0,.66-.15.66-.46s-.27-.43-.81-.75a8.62,8.62,0,0,1-1.51-1,2.52,2.52,0,0,1-.83-1.84,3,3,0,0,1,.41-1.49,1.35,1.35,0,0,1,1.17-.84,2.41,2.41,0,0,1,1.23.47,1.82,1.82,0,0,1,.84,1,3.3,3.3,0,0,1,.12.94,4.43,4.43,0,0,1-.21,1.28.51.51,0,0,1-.32.1,1.25,1.25,0,0,1-.33-.08c-.15-.06-.22-.11-.22-.17s0-.07.16-.33a2.45,2.45,0,0,0,.12-.93c0-1.07-.33-1.61-1-1.61-.35,0-.63.24-.84.71A2.66,2.66,0,0,0,81.56,85a1.88,1.88,0,0,0,.85,1.42,18.28,18.28,0,0,0,1.58,1C84.56,87.84,84.84,88.12,84.84,88.32Z"/><path d="M89.64,89.6a.64.64,0,0,1-.45.12.48.48,0,0,1-.34-.21V87.45c0-2.54-.42-3.81-1.27-3.81a1,1,0,0,0-.89.63,2.18,2.18,0,0,0-.32,1.11,1,1,0,0,1,0,.19.58.58,0,0,0,0,.19v1.92a4.94,4.94,0,0,0,.07.73,5.31,5.31,0,0,1,.08.72q0,.24-.36.24a.52.52,0,0,1-.43-.24.88.88,0,0,1-.17-.49l.09-9.24a.57.57,0,0,1,0-.18q0-.27.3-.27a.84.84,0,0,1,.44.2c.2.13.29.25.29.34a5.13,5.13,0,0,1-.14,1,5.81,5.81,0,0,0-.14,1s0,.69,0,2a1.55,1.55,0,0,1,.85-.49,3.07,3.07,0,0,1,1.16.28c.87.36,1.3,1.31,1.3,2.85Z"/><path d="M94.89,87.71c0,.44-.29.83-.88,1.18a2.92,2.92,0,0,1-1.5.48q-2,0-2-2.55a8,8,0,0,1,.4-2.41q.54-1.68,1.38-1.68a2.56,2.56,0,0,1,1.58.72,2,2,0,0,1,.85,1.45A2.14,2.14,0,0,1,94,86.52a2.43,2.43,0,0,1-1.69.69,1.14,1.14,0,0,1-.38-.15,1.18,1.18,0,0,0-.4-.15c-.13,0-.2,0-.2.12,0,1.15.38,1.73,1.14,1.73a1.71,1.71,0,0,0,1.08-.39,3.59,3.59,0,0,0,.66-.71c.19-.25.32-.37.38-.37C94.78,87.29,94.89,87.43,94.89,87.71Zm-1-2.76a1.79,1.79,0,0,0-.3-1,.92.92,0,0,0-.8-.45c-.4,0-.72.25-1,.75a2.87,2.87,0,0,0-.32,1.3,1.05,1.05,0,0,0,.28.73,1,1,0,0,0,.71.29,1.23,1.23,0,0,0,1-.52A1.76,1.76,0,0,0,93.86,85Z"/><path d="M105.63,84.41a10.81,10.81,0,0,1-.37,2.82q-.53,2-1.53,2a1.5,1.5,0,0,1-1.26-.92l-.39-.91-.06,0c-.14.4-.29.8-.44,1.2a1,1,0,0,1-.94.69q-1.9,0-1.91-4.58,0-1.05.06-1.65a.32.32,0,0,1,.27-.15.78.78,0,0,1,.39.13c.15.08.23.18.23.29a2.75,2.75,0,0,1-.1.61,3.33,3.33,0,0,0-.1.65c0,2.6.34,3.9,1,3.9.43,0,.77-.49,1-1.47a7.11,7.11,0,0,0,.3-2V83.57c0-.21.12-.32.36-.32s.44.2.44.6c0,.05,0,.13,0,.23a1.22,1.22,0,0,0,0,.22v1.85a4.74,4.74,0,0,0,.23,1.38c.19.65.44,1,.76,1s.79-.54,1.08-1.63a8.9,8.9,0,0,0,.33-2.21,3.12,3.12,0,0,0-.12-1.15.5.5,0,0,0-.1-.14c-.07-.08-.11-.13-.11-.16a.45.45,0,0,1,.15-.32.4.4,0,0,1,.3-.15C105.45,82.74,105.63,83.3,105.63,84.41Z"/><path d="M110.78,87.71c0,.44-.3.83-.89,1.18a2.92,2.92,0,0,1-1.5.48q-2,0-2-2.55a8.07,8.07,0,0,1,.41-2.41q.54-1.68,1.38-1.68a2.53,2.53,0,0,1,1.57.72,2,2,0,0,1,.86,1.45,2.14,2.14,0,0,1-.75,1.62,2.45,2.45,0,0,1-1.7.69,1.22,1.22,0,0,1-.38-.15,1.11,1.11,0,0,0-.4-.15c-.13,0-.19,0-.19.12,0,1.15.38,1.73,1.14,1.73a1.71,1.71,0,0,0,1.08-.39,3.59,3.59,0,0,0,.66-.71c.19-.25.31-.37.37-.37C110.66,87.29,110.78,87.43,110.78,87.71Zm-1-2.76a1.79,1.79,0,0,0-.3-1,.91.91,0,0,0-.79-.45,1.12,1.12,0,0,0-1,.75,2.86,2.86,0,0,0-.31,1.3,1,1,0,0,0,.28.73.94.94,0,0,0,.71.29,1.23,1.23,0,0,0,1-.52A1.75,1.75,0,0,0,109.74,85Z"/><path d="M116,85.52a6.28,6.28,0,0,1-.43,2.49,1.94,1.94,0,0,1-1.85,1.39,1.8,1.8,0,0,1-1.44-.76c-.07,0-.1.34-.1.93a13.48,13.48,0,0,0,.19,2.76,2.3,2.3,0,0,0,.15.36,1.5,1.5,0,0,1,.12.34q0,.24-.3.24a.89.89,0,0,1-.5-.1,1.31,1.31,0,0,1-.25-.69,4.63,4.63,0,0,1-.09-.78V87.89q0-.52.06-1.41c0-.69.06-1.16.06-1.41s0-.62,0-1V83c0-.69.18-1,.54-1,.18,0,.27.06.27.19s0,.62-.06,1.1-.06.84-.06,1.08h.06l.69-1a1.23,1.23,0,0,1,1-.52,1.63,1.63,0,0,1,1.51.9A3.53,3.53,0,0,1,116,85.52Zm-.75.06a5,5,0,0,0-.16-1.37c-.17-.56-.45-.84-.83-.84s-.62.25-1,.74a4,4,0,0,0-.73,1.32,7.89,7.89,0,0,0-.27,1.5q-.06.72-.06.69s0,.08.13.15l.18.13.49.7a.85.85,0,0,0,.74.35c.54,0,1-.45,1.23-1.35A6.72,6.72,0,0,0,115.2,85.58Z"/><path d="M119.36,84.47a1.45,1.45,0,0,1-.57.15,2.53,2.53,0,0,0-.57.1c0,.11,0,.67,0,1.67,0,.78,0,1.3,0,1.57a3.08,3.08,0,0,0,.08.53,2.81,2.81,0,0,1,.07.55.33.33,0,0,1-.15.24.45.45,0,0,1-.27.12c-.2,0-.36-.2-.48-.61a3.36,3.36,0,0,1-.12-.86V84.81c-.06,0-.28,0-.67,0s-.47-.07-.47-.34.41-.56,1.22-.53l.19-2.71a.64.64,0,0,0,0-.15.33.33,0,0,1,0-.14.21.21,0,0,1,.12-.17.38.38,0,0,1,.28-.07c.35,0,.53.21.53.53a9.07,9.07,0,0,1-.11,1.12,8.65,8.65,0,0,0-.1,1.11,2,2,0,0,0,0,.35l.82,0q.42,0,.42.33A.44.44,0,0,1,119.36,84.47Z"/><path d="M128.13,89.63q0,.21-.33.21a.39.39,0,0,1-.43-.3,4.53,4.53,0,0,1,0-.59.55.55,0,0,0,0-.24,3,3,0,0,1-1.82.62,2.51,2.51,0,0,1-1.3-.38,1.22,1.22,0,0,1-.72-1c0-.41.28-.81.85-1.2a2.59,2.59,0,0,1,1.44-.54h1.49a.43.43,0,0,0,.09-.31,5.24,5.24,0,0,0-.17-1.52,1.05,1.05,0,0,0-1.06-.85,1.32,1.32,0,0,0-1,.72,2.31,2.31,0,0,0-.44,1.26v.16a.11.11,0,0,1-.12.12.5.5,0,0,1-.33-.18.48.48,0,0,1-.18-.31,3,3,0,0,1,.26-1.06,3.18,3.18,0,0,1,.55-1,1.21,1.21,0,0,1,.93-.4,2.58,2.58,0,0,1,1.58.54,1.77,1.77,0,0,1,.78,1.41Zm-.79-2.39q0-.6-.93-.6a3.06,3.06,0,0,0-1.29.26,1.06,1.06,0,0,0-.71,1,.7.7,0,0,0,.38.63,1.39,1.39,0,0,0,.75.19,2,2,0,0,0,1.22-.42A1.25,1.25,0,0,0,127.34,87.24Z"/><path d="M131.75,84.47a1.45,1.45,0,0,1-.57.15,2.53,2.53,0,0,0-.57.1c0,.11,0,.67,0,1.67,0,.78,0,1.3,0,1.57a3.08,3.08,0,0,0,.08.53,2.81,2.81,0,0,1,.07.55.33.33,0,0,1-.15.24.45.45,0,0,1-.27.12c-.2,0-.36-.2-.48-.61a3.36,3.36,0,0,1-.12-.86V84.81c-.06,0-.28,0-.67,0s-.47-.07-.47-.34.41-.56,1.22-.53l.19-2.71a.64.64,0,0,0,0-.15.33.33,0,0,1,0-.14.21.21,0,0,1,.12-.17.38.38,0,0,1,.28-.07c.35,0,.53.21.53.53a9.07,9.07,0,0,1-.11,1.12,8.65,8.65,0,0,0-.1,1.11,2,2,0,0,0,0,.35l.82,0q.42,0,.42.33A.44.44,0,0,1,131.75,84.47Z"/><path d="M33.89,104.6a.64.64,0,0,1-.45.12.5.5,0,0,1-.35-.21v-2.06c0-2.54-.42-3.81-1.27-3.81a1,1,0,0,0-.89.63,2.17,2.17,0,0,0-.31,1.11,1.3,1.3,0,0,1,0,.19.58.58,0,0,0,0,.19v1.92a5.26,5.26,0,0,0,.08.73,5,5,0,0,1,.07.72q0,.24-.36.24a.52.52,0,0,1-.43-.24.88.88,0,0,1-.17-.49l.09-9.24a.57.57,0,0,1,0-.18q0-.27.3-.27a.84.84,0,0,1,.44.2c.2.13.3.25.3.34a5.31,5.31,0,0,1-.15,1,5.81,5.81,0,0,0-.14,1s0,.69,0,2a1.56,1.56,0,0,1,.86-.49,3,3,0,0,1,1.15.28c.87.36,1.31,1.31,1.31,2.85Z"/><path d="M36.06,98.33a3.62,3.62,0,0,1-.13.81,4.12,4.12,0,0,0-.12.81v3.31a3.77,3.77,0,0,0,.15.9.19.19,0,0,1-.17.12c-.49,0-.73-.23-.73-.7V98.07a.76.76,0,0,1,.37-.1.8.8,0,0,1,.38.1C36,98.14,36.06,98.23,36.06,98.33Zm.29-2.25q0,.51-.48.51a.79.79,0,0,1-.53-.21.63.63,0,0,1-.24-.48.45.45,0,0,1,.51-.51.76.76,0,0,1,.52.19A.67.67,0,0,1,36.35,96.08Z"/><path d="M41.22,103.32c0,.35-.26.65-.79.89a3.22,3.22,0,0,1-1.28.28,2.52,2.52,0,0,1-.93-.2,4.69,4.69,0,0,1-.91-.63c-.46-.37-.69-.63-.69-.77,0-.31.18-.45.55-.42h.09c0,.3.34.63,1,1a3,3,0,0,0,1.35.49c.44,0,.66-.15.66-.46s-.27-.43-.81-.75a8.62,8.62,0,0,1-1.51-1,2.52,2.52,0,0,1-.83-1.84,3,3,0,0,1,.41-1.49,1.35,1.35,0,0,1,1.17-.84,2.41,2.41,0,0,1,1.23.47,1.82,1.82,0,0,1,.84,1,3.3,3.3,0,0,1,.12.94,4.43,4.43,0,0,1-.21,1.28.51.51,0,0,1-.32.1,1.25,1.25,0,0,1-.33-.08c-.15-.06-.22-.11-.22-.17s0-.07.16-.33a2.45,2.45,0,0,0,.12-.93c0-1.07-.33-1.61-1-1.61-.35,0-.63.24-.84.71a2.66,2.66,0,0,0-.27,1.16,1.88,1.88,0,0,0,.85,1.42,18.28,18.28,0,0,0,1.58,1C40.94,102.84,41.22,103.12,41.22,103.32Z"/><path d="M50,94.94q0,.3-.45.3a.23.23,0,0,1-.13,0c0-.43-.32-.65-.84-.65s-.87.56-1.14,1.69a10.24,10.24,0,0,0-.27,2.27h.67c.37,0,.56.11.56.33a2.13,2.13,0,0,1,0,.3,1.66,1.66,0,0,1-.76.14,1.14,1.14,0,0,0-.49.06c0,.39,0,1.09,0,2.11v1.08a6.68,6.68,0,0,0,.17,1.46.24.24,0,0,1,0,.13q0,.36-.51.36c-.3,0-.45-.4-.45-1.21q0-3.3.06-3.9H45.6c-.23,0-.34-.11-.34-.33s.2-.44.6-.44h.54c0-.2,0-.45.06-.76q.23-4,2.23-4Q50,93.86,50,94.94Z"/><path d="M53,102.71c0,.44-.29.83-.88,1.18a2.92,2.92,0,0,1-1.5.48q-2,0-2-2.55a8,8,0,0,1,.4-2.41q.54-1.68,1.38-1.68a2.56,2.56,0,0,1,1.58.72,2,2,0,0,1,.85,1.45,2.14,2.14,0,0,1-.75,1.62,2.43,2.43,0,0,1-1.69.69,1.24,1.24,0,0,1-.39-.15,1.09,1.09,0,0,0-.39-.15c-.13,0-.2,0-.2.12,0,1.15.38,1.73,1.14,1.73a1.71,1.71,0,0,0,1.08-.39,3.59,3.59,0,0,0,.66-.71c.19-.25.32-.37.38-.37C52.87,102.29,53,102.43,53,102.71ZM52,100a1.79,1.79,0,0,0-.3-1,.92.92,0,0,0-.8-.45c-.4,0-.72.25-1,.75a2.87,2.87,0,0,0-.32,1.3,1,1,0,0,0,.28.73.94.94,0,0,0,.71.29,1.23,1.23,0,0,0,1-.52A1.76,1.76,0,0,0,52,100Z"/><path d="M58.05,102.71c0,.44-.29.83-.88,1.18a2.92,2.92,0,0,1-1.5.48q-2,0-2-2.55a8,8,0,0,1,.4-2.41q.54-1.68,1.38-1.68a2.56,2.56,0,0,1,1.58.72,2,2,0,0,1,.85,1.45,2.14,2.14,0,0,1-.75,1.62,2.43,2.43,0,0,1-1.69.69,1.24,1.24,0,0,1-.39-.15,1.09,1.09,0,0,0-.39-.15c-.13,0-.2,0-.2.12,0,1.15.38,1.73,1.14,1.73a1.71,1.71,0,0,0,1.08-.39,3.59,3.59,0,0,0,.66-.71c.19-.25.32-.37.38-.37C57.94,102.29,58.05,102.43,58.05,102.71ZM57,100a1.79,1.79,0,0,0-.3-1,.92.92,0,0,0-.8-.45c-.4,0-.72.25-1,.75a2.87,2.87,0,0,0-.32,1.3,1,1,0,0,0,.28.73.94.94,0,0,0,.71.29,1.23,1.23,0,0,0,1-.52A1.76,1.76,0,0,0,57,100Z"/><path d="M61.38,99.47a1.45,1.45,0,0,1-.57.15,2.53,2.53,0,0,0-.57.1c0,.11,0,.67,0,1.67,0,.78,0,1.3,0,1.57a2.83,2.83,0,0,0,.07.53,3,3,0,0,1,.08.55.33.33,0,0,1-.15.24.45.45,0,0,1-.27.12c-.2,0-.36-.2-.48-.61a3.36,3.36,0,0,1-.12-.86V99.81a1.36,1.36,0,0,0-.68,0c-.31,0-.46-.07-.46-.34s.4-.56,1.21-.53l.2-2.71a.85.85,0,0,0,0-.15.33.33,0,0,1,0-.14.21.21,0,0,1,.12-.17A.41.41,0,0,1,60,95.7a.49.49,0,0,1,.52.53,8.63,8.63,0,0,1-.1,1.12,9.13,9.13,0,0,0-.11,1.11,2,2,0,0,0,0,.35l.83,0q.42,0,.42.33A.44.44,0,0,1,61.38,99.47Z"/><path d="M72.39,99.41a10.81,10.81,0,0,1-.37,2.82q-.52,2-1.53,2a1.5,1.5,0,0,1-1.26-.92l-.39-.91-.06,0c-.14.4-.29.8-.44,1.2a1,1,0,0,1-.94.69q-1.91,0-1.91-4.58,0-1.05.06-1.65a.32.32,0,0,1,.27-.15.78.78,0,0,1,.39.13c.15.08.23.18.23.29a3.52,3.52,0,0,1-.1.61,2.71,2.71,0,0,0-.1.65c0,2.6.34,3.9,1,3.9.43,0,.77-.49,1-1.47a7.11,7.11,0,0,0,.3-2V98.57c0-.21.12-.32.36-.32s.44.2.44.6a1.31,1.31,0,0,1,0,.23c0,.1,0,.17,0,.22v1.85a4.74,4.74,0,0,0,.23,1.38c.19.65.44,1,.76,1s.79-.54,1.08-1.63a8.9,8.9,0,0,0,.33-2.21,3.12,3.12,0,0,0-.12-1.15.5.5,0,0,0-.1-.14c-.07-.08-.11-.13-.11-.16a.49.49,0,0,1,.14-.32.43.43,0,0,1,.31-.15C72.21,97.74,72.39,98.3,72.39,99.41Z"/><path d="M77.19,104.6a.64.64,0,0,1-.45.12.48.48,0,0,1-.34-.21v-2.06c0-2.54-.43-3.81-1.27-3.81a1,1,0,0,0-.9.63,2.27,2.27,0,0,0-.31,1.11.63.63,0,0,1,0,.19.89.89,0,0,0,0,.19v1.92a4.94,4.94,0,0,0,.07.73,5.31,5.31,0,0,1,.08.72q0,.24-.36.24a.51.51,0,0,1-.43-.24.81.81,0,0,1-.17-.49l.09-9.24a.57.57,0,0,1,0-.18q0-.27.3-.27a.87.87,0,0,1,.44.2c.19.13.29.25.29.34a6,6,0,0,1-.14,1,5,5,0,0,0-.14,1s0,.69,0,2a1.55,1.55,0,0,1,.85-.49,3.07,3.07,0,0,1,1.16.28c.87.36,1.3,1.31,1.3,2.85Z"/><path d="M82.44,102.71c0,.44-.29.83-.88,1.18a2.92,2.92,0,0,1-1.5.48q-2,0-2-2.55a8,8,0,0,1,.4-2.41q.54-1.68,1.38-1.68a2.56,2.56,0,0,1,1.58.72,2,2,0,0,1,.85,1.45,2.14,2.14,0,0,1-.75,1.62,2.43,2.43,0,0,1-1.69.69,1.24,1.24,0,0,1-.39-.15,1.09,1.09,0,0,0-.39-.15c-.13,0-.2,0-.2.12,0,1.15.38,1.73,1.14,1.73a1.71,1.71,0,0,0,1.08-.39,3.59,3.59,0,0,0,.66-.71c.19-.25.32-.37.38-.37C82.33,102.29,82.44,102.43,82.44,102.71Zm-1-2.76a1.79,1.79,0,0,0-.3-1,.92.92,0,0,0-.8-.45c-.4,0-.72.25-1,.75a2.87,2.87,0,0,0-.32,1.3,1,1,0,0,0,.28.73.94.94,0,0,0,.71.29,1.23,1.23,0,0,0,1-.52A1.76,1.76,0,0,0,81.41,100Z"/><path d="M87.87,104.27a.25.25,0,0,1-.24.16,1.27,1.27,0,0,1-.51-.21v-.91q0-5-1.24-5c-.26,0-.53.19-.83.57a5.46,5.46,0,0,0-1.14,3.55,6.76,6.76,0,0,0,.08.83,5.73,5.73,0,0,1,.09.84c0,.15-.1.22-.31.22-.38,0-.58-.31-.58-.94V100c0-.09,0-.22,0-.39s0-.3,0-.39a5.49,5.49,0,0,0,0-.57,3.51,3.51,0,0,1,0-.55.41.41,0,0,1,.18-.28.54.54,0,0,1,.3-.16.46.46,0,0,1,.36.21c0,.65,0,1,0,1.14s0,.3,0,.44c.09,0,.21-.2.36-.5a3.62,3.62,0,0,1,.48-.78,1.06,1.06,0,0,1,.82-.42,1.77,1.77,0,0,1,.54.14,2,2,0,0,1,1.16,1,7.11,7.11,0,0,1,.58,3.13Z"/><path d="M95.84,104.6a.64.64,0,0,1-.45.12.5.5,0,0,1-.35-.21v-2.06c0-2.54-.42-3.81-1.27-3.81a1,1,0,0,0-.89.63,2.17,2.17,0,0,0-.31,1.11,1.3,1.3,0,0,1,0,.19.58.58,0,0,0,0,.19v1.92a5.26,5.26,0,0,0,.08.73,5,5,0,0,1,.07.72q0,.24-.36.24a.52.52,0,0,1-.43-.24.88.88,0,0,1-.17-.49l.09-9.24a.57.57,0,0,1,0-.18q0-.27.3-.27a.84.84,0,0,1,.44.2c.2.13.3.25.3.34a5.31,5.31,0,0,1-.15,1,5.81,5.81,0,0,0-.14,1s0,.69,0,2a1.56,1.56,0,0,1,.86-.49,3,3,0,0,1,1.15.28c.87.36,1.31,1.31,1.31,2.85Z"/><path d="M101.09,102.71c0,.44-.3.83-.89,1.18a2.92,2.92,0,0,1-1.5.48q-2,0-2-2.55a8.07,8.07,0,0,1,.41-2.41q.54-1.68,1.38-1.68a2.53,2.53,0,0,1,1.57.72,2,2,0,0,1,.86,1.45,2.14,2.14,0,0,1-.75,1.62,2.45,2.45,0,0,1-1.7.69,1.14,1.14,0,0,1-.38-.15,1.18,1.18,0,0,0-.4-.15c-.13,0-.19,0-.19.12,0,1.15.38,1.73,1.14,1.73a1.71,1.71,0,0,0,1.08-.39,3.59,3.59,0,0,0,.66-.71c.19-.25.31-.37.37-.37C101,102.29,101.09,102.43,101.09,102.71Zm-1-2.76a1.79,1.79,0,0,0-.3-1,.91.91,0,0,0-.79-.45,1.12,1.12,0,0,0-1,.75,2.86,2.86,0,0,0-.31,1.3,1,1,0,0,0,.27.73,1,1,0,0,0,.72.29,1.23,1.23,0,0,0,1-.52A1.75,1.75,0,0,0,100.05,100Z"/><path d="M111.83,99.41a10.82,10.82,0,0,1-.38,2.82q-.53,2-1.53,2a1.5,1.5,0,0,1-1.26-.92l-.39-.91-.06,0c-.14.4-.28.8-.43,1.2a1,1,0,0,1-1,.69q-1.9,0-1.9-4.58,0-1.05.06-1.65a.32.32,0,0,1,.27-.15.78.78,0,0,1,.39.13.34.34,0,0,1,.22.29,2.75,2.75,0,0,1-.1.61,3.19,3.19,0,0,0-.09.65c0,2.6.33,3.9,1,3.9.43,0,.78-.49,1-1.47a7.11,7.11,0,0,0,.3-2V98.57c0-.21.12-.32.36-.32s.43.2.43.6c0,.05,0,.13,0,.23a1,1,0,0,0,0,.22v1.85a4.71,4.71,0,0,0,.22,1.38c.19.65.45,1,.77,1s.79-.54,1.08-1.63a8.9,8.9,0,0,0,.33-2.21,3.12,3.12,0,0,0-.12-1.15.75.75,0,0,0-.11-.14c-.07-.08-.1-.13-.1-.16a.44.44,0,0,1,.14-.32.42.42,0,0,1,.31-.15C111.65,97.74,111.83,98.3,111.83,99.41Z"/><path d="M117,104.63q0,.21-.33.21a.4.4,0,0,1-.44-.3s0-.23,0-.59a.54.54,0,0,0,0-.24,3,3,0,0,1-1.81.62A2.54,2.54,0,0,1,113,104a1.22,1.22,0,0,1-.72-1c0-.41.29-.81.86-1.2a2.59,2.59,0,0,1,1.44-.54h1.48a.43.43,0,0,0,.09-.31,5.31,5.31,0,0,0-.16-1.52,1.06,1.06,0,0,0-1.07-.85,1.32,1.32,0,0,0-1,.72,2.3,2.3,0,0,0-.43,1.26v.16a.11.11,0,0,1-.12.12.5.5,0,0,1-.33-.18.48.48,0,0,1-.18-.31,3,3,0,0,1,.25-1.06,3.18,3.18,0,0,1,.56-1,1.21,1.21,0,0,1,.93-.4,2.55,2.55,0,0,1,1.57.54,1.77,1.77,0,0,1,.78,1.41Zm-.8-2.39q0-.6-.93-.6a3.06,3.06,0,0,0-1.29.26,1.05,1.05,0,0,0-.7,1,.7.7,0,0,0,.37.63,1.39,1.39,0,0,0,.75.19,2,2,0,0,0,1.22-.42A1.25,1.25,0,0,0,116.19,102.24Z"/><path d="M122.34,103.32c0,.35-.26.65-.79.89a3.22,3.22,0,0,1-1.28.28,2.52,2.52,0,0,1-.93-.2,4.69,4.69,0,0,1-.91-.63c-.46-.37-.69-.63-.69-.77,0-.31.18-.45.55-.42h.09c0,.3.34.63,1,1a3,3,0,0,0,1.35.49c.44,0,.66-.15.66-.46s-.27-.43-.81-.75a8.62,8.62,0,0,1-1.51-1,2.52,2.52,0,0,1-.83-1.84,3,3,0,0,1,.41-1.49,1.35,1.35,0,0,1,1.17-.84A2.41,2.41,0,0,1,121,98a1.82,1.82,0,0,1,.84,1,3.3,3.3,0,0,1,.12.94,4.43,4.43,0,0,1-.21,1.28.51.51,0,0,1-.32.1,1.25,1.25,0,0,1-.33-.08c-.15-.06-.22-.11-.22-.17s0-.07.16-.33a2.45,2.45,0,0,0,.12-.93c0-1.07-.33-1.61-1-1.61-.35,0-.63.24-.84.71a2.66,2.66,0,0,0-.27,1.16,1.88,1.88,0,0,0,.85,1.42,18.28,18.28,0,0,0,1.58,1C122.06,102.84,122.34,103.12,122.34,103.32Z"/><path d="M61.22,117.63c0,.25-.21.57-.62,1a2.74,2.74,0,0,1-1,.72,3,3,0,0,1-.87.16,1.94,1.94,0,0,1-1.68-.8,2.93,2.93,0,0,1-.54-1.83,8,8,0,0,1,.49-2.59q.61-1.77,1.53-1.77a2.45,2.45,0,0,1,1.16.43c.48.28.75.56.81.82a4.09,4.09,0,0,1,.1.91c0,1.1-.16,1.65-.49,1.65a.64.64,0,0,1-.29-.09c-.11-.06-.16-.13-.16-.21a.35.35,0,0,1,.06-.16l.07-.12a4,4,0,0,0,.06-.9c0-1.11-.25-1.67-.75-1.67s-1,.51-1.35,1.52a7,7,0,0,0-.39,2.23,3.15,3.15,0,0,0,.26,1.35,1.12,1.12,0,0,0,1.06.71,1.8,1.8,0,0,0,1-.46,2.94,2.94,0,0,0,.78-.86l.18-.42a.25.25,0,0,1,.21-.11c.06,0,.13.07.22.2A.78.78,0,0,1,61.22,117.63Z"/><path d="M65.3,113.85s0,.13,0,.26-.25.3-.37.3a.25.25,0,0,1-.21-.15c0-.63-.29-1-.78-1-.32,0-.64.59-1,1.77a6.68,6.68,0,0,0-.18,1.73,10.32,10.32,0,0,0,.08,1.69l.07.19a.61.61,0,0,1,.06.22q0,.33-.45.33a.46.46,0,0,1-.51-.53.79.79,0,0,1,0-.22,1.23,1.23,0,0,0,0-.21c0-.55,0-1.38-.08-2.48s-.07-1.92-.07-2.47c0-.2,0-.33.1-.37a.79.79,0,0,1,.41-.07c.25,0,.39.09.43.27l0,.59c.26-.4.41-.63.45-.68a.92.92,0,0,1,.69-.37,1,1,0,0,1,.54.16,1.72,1.72,0,0,1,.41.47A1.19,1.19,0,0,1,65.3,113.85Z"/><path d="M70.34,113.58c0,.31,0,.77-.1,1.39a14.23,14.23,0,0,0-.1,1.6c0,.18,0,.52,0,1s.06.87.06,1.09c0,.44,0,.71-.15.8a.48.48,0,0,1-.26.06.45.45,0,0,1-.45-.29l-.12-.55a2.08,2.08,0,0,1-1.48.84,1.22,1.22,0,0,1-.9-.35,1.9,1.9,0,0,1-.62-.72,5.73,5.73,0,0,1-.21-1.92v-3.27q-.09-.45.51-.45.42,0,.42.48c0,.48,0,1.11,0,1.88,0,1,0,1.6,0,1.87a2.35,2.35,0,0,0,.24,1.08c.2.43.46.65.77.65.51,0,.9-.34,1.18-1a4.56,4.56,0,0,0,.3-1.68v-2a1.22,1.22,0,0,0-.08-.34.9.9,0,0,1-.08-.35.92.92,0,0,1,0-.16.7.7,0,0,1,.42-.21C70.11,113,70.34,113.19,70.34,113.58Z"/><path d="M75.72,117.63c0,.25-.2.57-.61,1a2.76,2.76,0,0,1-1,.72,3,3,0,0,1-.87.16,1.94,1.94,0,0,1-1.68-.8,2.93,2.93,0,0,1-.54-1.83,8.07,8.07,0,0,1,.5-2.59q.61-1.77,1.53-1.77a2.42,2.42,0,0,1,1.15.43c.48.28.75.56.81.82a4.11,4.11,0,0,1,.11.91c0,1.1-.17,1.65-.5,1.65a.6.6,0,0,1-.28-.09c-.11-.06-.17-.13-.17-.21a.35.35,0,0,1,.06-.16l.08-.12a4,4,0,0,0,.06-.9c0-1.11-.25-1.67-.75-1.67s-1,.51-1.35,1.52a7,7,0,0,0-.39,2.23,3.16,3.16,0,0,0,.25,1.35,1.14,1.14,0,0,0,1.07.71,1.8,1.8,0,0,0,1-.46,2.94,2.94,0,0,0,.78-.86l.18-.42a.25.25,0,0,1,.21-.11c.06,0,.13.07.21.2A.65.65,0,0,1,75.72,117.63Z"/><path d="M77.55,113.33a3.62,3.62,0,0,1-.13.81,4.12,4.12,0,0,0-.12.81v3.31a3.77,3.77,0,0,0,.15.9.19.19,0,0,1-.17.12c-.49,0-.73-.23-.73-.7v-5.51a.76.76,0,0,1,.37-.1.8.8,0,0,1,.38.1C77.47,113.14,77.55,113.23,77.55,113.33Zm.29-2.25q0,.51-.48.51a.79.79,0,0,1-.53-.21.63.63,0,0,1-.24-.48.45.45,0,0,1,.51-.51.76.76,0,0,1,.52.19A.67.67,0,0,1,77.84,111.08Z"/><path d="M82.71,109.94q0,.3-.45.3a.23.23,0,0,1-.13,0c0-.43-.32-.65-.84-.65s-.87.56-1.14,1.69a10.24,10.24,0,0,0-.27,2.27h.67c.37,0,.56.11.56.33a2.13,2.13,0,0,1,0,.3,1.66,1.66,0,0,1-.76.14,1.17,1.17,0,0,0-.49.06c0,.39,0,1.09,0,2.11v1.08A6.68,6.68,0,0,0,80,119a.24.24,0,0,1,0,.13q0,.36-.51.36c-.3,0-.45-.4-.45-1.21q0-3.3.06-3.9h-.77c-.23,0-.34-.11-.34-.33s.2-.44.6-.44h.54c0-.2,0-.45.06-.76q.23-4,2.23-4Q82.71,108.86,82.71,109.94Z"/><path d="M83.06,113.33a4.32,4.32,0,0,1-.13.81,3.62,3.62,0,0,0-.13.81v3.31a3.77,3.77,0,0,0,.15.9.18.18,0,0,1-.16.12c-.49,0-.74-.23-.74-.7v-5.51a.8.8,0,0,1,.38-.1.76.76,0,0,1,.37.1C83,113.14,83.06,113.23,83.06,113.33Zm.28-2.25q0,.51-.48.51a.77.77,0,0,1-.52-.21.63.63,0,0,1-.24-.48.45.45,0,0,1,.51-.51.72.72,0,0,1,.51.19A.63.63,0,0,1,83.34,111.08Z"/><path d="M88.25,117.71c0,.44-.3.83-.89,1.18a2.92,2.92,0,0,1-1.5.48q-2,0-2-2.55a8.07,8.07,0,0,1,.41-2.41q.54-1.68,1.38-1.68a2.53,2.53,0,0,1,1.57.72,2,2,0,0,1,.86,1.45,2.14,2.14,0,0,1-.75,1.62,2.45,2.45,0,0,1-1.7.69,1.14,1.14,0,0,1-.38-.15,1.18,1.18,0,0,0-.4-.15c-.13,0-.19,0-.19.12,0,1.15.38,1.73,1.14,1.73a1.71,1.71,0,0,0,1.08-.39,3.59,3.59,0,0,0,.66-.71c.19-.25.31-.37.37-.37C88.13,117.29,88.25,117.43,88.25,117.71Zm-1-2.76a1.79,1.79,0,0,0-.3-1,.91.91,0,0,0-.79-.45,1.12,1.12,0,0,0-1,.75,2.86,2.86,0,0,0-.31,1.3,1,1,0,0,0,.28.73.94.94,0,0,0,.71.29,1.23,1.23,0,0,0,1-.52A1.75,1.75,0,0,0,87.21,115Z"/><path d="M93.68,109.65a5.66,5.66,0,0,1-.09.89c-.07.47-.12.76-.14.88,0,.31-.08,1.35-.15,3.1s-.09,2.49-.09,2.66a6.31,6.31,0,0,0,.29,2.27.31.31,0,0,1-.27.16.58.58,0,0,1-.34-.15.67.67,0,0,1-.23-.3,6.93,6.93,0,0,0-.09-.91,2.36,2.36,0,0,1-1.7,1.12,1.73,1.73,0,0,1-1.5-.73,2.82,2.82,0,0,1-.45-1.67,8,8,0,0,1,.47-2.61q.6-1.77,1.59-1.77a1.45,1.45,0,0,1,.85.32c.06,0,.3.25.71.63a40.53,40.53,0,0,0,.15-4.49A.37.37,0,0,1,93,109a.69.69,0,0,1,.5.21A.67.67,0,0,1,93.68,109.65Zm-1.13,5.55a2.33,2.33,0,0,0-.3-1.18,1.08,1.08,0,0,0-1-.63q-.75,0-1.2,1.53a7.29,7.29,0,0,0-.36,2.17,2.83,2.83,0,0,0,.21,1.14.91.91,0,0,0,.85.63q.93,0,1.41-1.44A6.71,6.71,0,0,0,92.55,115.2Z"/><path d="M95.75,118.88c0,.14-.1.26-.29.36a1,1,0,0,1-.46.12.64.64,0,0,1-.45-.18.56.56,0,0,1-.2-.42.46.46,0,0,1,.53-.51,1.05,1.05,0,0,1,.58.17A.52.52,0,0,1,95.75,118.88Z"/></g></g></g></svg>