<svg xmlns="http://www.w3.org/2000/svg" viewBox="0 0 133.42 114.39"><defs><style>.cls-1{fill:#fff;}.cls-2{fill:none;stroke:#af4758;stroke-miterlimit:10;stroke-width:2.01px;}</style></defs><title>9</title><g id="Layer_2" data-name="Layer 2"><g id="Facts"><g id="_9" data-name="9"><path class="cls-1" d="M132.42,57.2c0,2.15-2.55,4.11-2.83,6.19s1.64,4.69,1.08,6.73-3.54,3.27-4.36,5.23.38,4.92-.69,6.77-4.24,2.27-5.53,4-.8,4.87-2.27,6.42-4.65,1.25-6.28,2.64c-1.78,1.51-2.2,4.85-4.16,6.18s-5.19.45-7.29,1.56-3.18,4.26-5.38,5.15-5.17-.64-7.45,0-4,3.54-6.3,4-4.95-1.62-7.32-1.4-4.55,2.73-6.93,2.73-4.62-2.52-6.93-2.73-5,1.84-7.32,1.4-4.06-3.33-6.3-4-5.29.84-7.45,0-3.32-4.07-5.38-5.15S28,102.64,26,101.34s-2.38-4.67-4.16-6.18c-1.63-1.39-4.83-1.11-6.28-2.64s-1-4.73-2.27-6.42S8.86,84,7.8,82.12s.14-4.82-.69-6.78-3.8-3.17-4.36-5.23,1.37-4.6,1.08-6.72S1,59.35,1,57.2,3.55,53.09,3.83,51s-1.64-4.68-1.08-6.72S6.29,41,7.11,39.05s-.38-4.93.69-6.78,4.24-2.27,5.53-4,.8-4.86,2.27-6.42,4.65-1.25,6.28-2.64c1.78-1.51,2.19-4.85,4.16-6.18s5.19-.44,7.29-1.55,3.18-4.27,5.38-5.15,5.17.63,7.45,0,4-3.54,6.3-4S57.41,4,59.78,3.73,64.33,1,66.71,1s4.62,2.52,6.93,2.73,5-1.83,7.32-1.4,4.06,3.33,6.3,4,5.29-.83,7.45,0,3.32,4.06,5.38,5.15,5.36.25,7.29,1.55,2.38,4.67,4.16,6.18c1.63,1.39,4.83,1.11,6.28,2.64s1,4.73,2.27,6.42,4.47,2.15,5.53,4-.14,4.82.69,6.78,3.8,3.18,4.36,5.23-1.37,4.6-1.08,6.72S132.42,55.05,132.42,57.2Z"/><path class="cls-2" d="M132.42,57.2c0,2.15-2.55,4.11-2.83,6.19s1.64,4.69,1.08,6.73-3.54,3.27-4.36,5.23.38,4.92-.69,6.77-4.24,2.27-5.53,4-.8,4.87-2.27,6.42-4.65,1.25-6.28,2.64c-1.78,1.51-2.2,4.85-4.16,6.18s-5.19.45-7.29,1.56-3.18,4.26-5.38,5.15-5.17-.64-7.45,0-4,3.54-6.3,4-4.95-1.62-7.32-1.4-4.55,2.73-6.93,2.73-4.62-2.52-6.93-2.73-5,1.84-7.32,1.4-4.06-3.33-6.3-4-5.29.84-7.45,0-3.32-4.07-5.38-5.15S28,102.64,26,101.34s-2.38-4.67-4.16-6.18c-1.63-1.39-4.83-1.11-6.28-2.64s-1-4.73-2.27-6.42S8.86,84,7.8,82.12s.14-4.82-.69-6.78-3.8-3.17-4.36-5.23,1.37-4.6,1.08-6.72S1,59.35,1,57.2,3.55,53.09,3.83,51s-1.64-4.68-1.08-6.72S6.29,41,7.11,39.05s-.38-4.93.69-6.78,4.24-2.27,5.53-4,.8-4.86,2.27-6.42,4.65-1.25,6.28-2.64c1.78-1.51,2.19-4.85,4.16-6.18s5.19-.44,7.29-1.55,3.18-4.27,5.38-5.15,5.17.63,7.45,0,4-3.54,6.3-4S57.41,4,59.78,3.73,64.33,1,66.71,1s4.62,2.52,6.93,2.73,5-1.83,7.32-1.4,4.06,3.33,6.3,4,5.29-.83,7.45,0,3.32,4.06,5.38,5.15,5.36.25,7.29,1.55,2.38,4.67,4.16,6.18c1.63,1.39,4.83,1.11,6.28,2.64s1,4.73,2.27,6.42,4.47,2.15,5.53,4-.14,4.82.69,6.78,3.8,3.18,4.36,5.23-1.37,4.6-1.08,6.72S132.42,55.05,132.42,57.2Z"/><path d="M53.46,25.47a6.94,6.94,0,0,1-1,3.67A3.43,3.43,0,0,1,49.44,31a3.7,3.7,0,0,1-1.16-.23c-1.67-.53-2.5-2-2.5-4.49a7.83,7.83,0,0,1,1-3.88,3.47,3.47,0,0,1,3.13-2.07,3.07,3.07,0,0,1,2.75,1.79A6.7,6.7,0,0,1,53.46,25.47Zm-.84-.13q0-3.33-2.22-4.08a1.22,1.22,0,0,0-.42-.09,2.76,2.76,0,0,0-1.88.89,6.11,6.11,0,0,0-1.57,4.62,5.29,5.29,0,0,0,.12.9,3.9,3.9,0,0,0,.84,1.92,2.52,2.52,0,0,0,1.92.72A2.72,2.72,0,0,0,52,28.53,7,7,0,0,0,52.62,25.34Z"/><path d="M59.2,21.29q0,.3-.45.3a.23.23,0,0,1-.13,0c0-.43-.32-.64-.84-.64s-.87.56-1.14,1.69a10.24,10.24,0,0,0-.27,2.27H57c.37,0,.56.11.56.33a2.13,2.13,0,0,1,0,.3,1.65,1.65,0,0,1-.76.13,1.17,1.17,0,0,0-.49.06c0,.39,0,1.1,0,2.12V28.9a6.59,6.59,0,0,0,.17,1.45.27.27,0,0,1,0,.14q0,.36-.51.36c-.3,0-.45-.41-.45-1.22q0-3.3.06-3.9h-.77c-.23,0-.34-.11-.34-.33s.2-.43.6-.43h.54c0-.2,0-.46.06-.77q.23-4,2.23-4Q59.2,20.21,59.2,21.29Z"/><path d="M66.54,31q0,.21-.33.21a.4.4,0,0,1-.44-.3s0-.22,0-.58a.54.54,0,0,0-.05-.24,3,3,0,0,1-1.81.61,2.53,2.53,0,0,1-1.31-.37,1.22,1.22,0,0,1-.72-1c0-.41.29-.81.86-1.2a2.59,2.59,0,0,1,1.44-.54h1.48a.45.45,0,0,0,.09-.32,5.23,5.23,0,0,0-.16-1.51,1.07,1.07,0,0,0-1.07-.86,1.32,1.32,0,0,0-1.05.72A2.3,2.3,0,0,0,63,26.81V27a.11.11,0,0,1-.12.12.67.67,0,0,1-.51-.5,2.9,2.9,0,0,1,.25-1.05,3.18,3.18,0,0,1,.56-1,1.22,1.22,0,0,1,.93-.41,2.55,2.55,0,0,1,1.57.54,1.77,1.77,0,0,1,.78,1.41Zm-.8-2.38q0-.6-.93-.6a3.06,3.06,0,0,0-1.29.25,1.05,1.05,0,0,0-.7,1,.7.7,0,0,0,.37.63,1.4,1.4,0,0,0,.75.2,2,2,0,0,0,1.22-.42A1.25,1.25,0,0,0,65.74,28.6Z"/><path d="M68.71,30.4q0,.39-.42.39c-.44,0-.65-.91-.64-2.72l0-6.73a3.26,3.26,0,0,0,0-.47,3.85,3.85,0,0,1-.05-.46.88.88,0,0,1,.48-.21.72.72,0,0,1,.42.15.44.44,0,0,1,.21.36,1.34,1.34,0,0,1-.07.39c-.06.2-.1.32-.11.37a17.36,17.36,0,0,0-.18,2.85c0,2,0,2.92,0,2.85A16.65,16.65,0,0,0,68.58,30a.74.74,0,0,0,.06.2A.63.63,0,0,1,68.71,30.4Z"/><path d="M70.69,30.4q0,.39-.42.39c-.44,0-.65-.91-.64-2.72l0-6.73a3.26,3.26,0,0,0,0-.47,3.85,3.85,0,0,1,0-.46.88.88,0,0,1,.48-.21.72.72,0,0,1,.42.15.44.44,0,0,1,.21.36,1.34,1.34,0,0,1-.07.39c-.06.2-.1.32-.11.37a17.36,17.36,0,0,0-.18,2.85c0,2,0,2.92,0,2.85A16.65,16.65,0,0,0,70.56,30a.74.74,0,0,0,.06.2A.63.63,0,0,1,70.69,30.4Z"/><path d="M77.74,25.82a1.45,1.45,0,0,1-.57.15,2.28,2.28,0,0,0-.57.11c0,.11,0,.66,0,1.66,0,.78,0,1.31,0,1.58a2.75,2.75,0,0,0,.07.52,3.08,3.08,0,0,1,.08.56.33.33,0,0,1-.15.24.45.45,0,0,1-.27.12c-.2,0-.36-.21-.48-.62a3.28,3.28,0,0,1-.12-.85V26.17a1.33,1.33,0,0,0-.67,0c-.32,0-.47-.08-.47-.35s.4-.55,1.21-.52l.2-2.72a.82.82,0,0,0,0-.14.33.33,0,0,1,0-.14.21.21,0,0,1,.12-.17.41.41,0,0,1,.29-.07c.35,0,.52.2.52.52a8.75,8.75,0,0,1-.1,1.13,9.13,9.13,0,0,0-.11,1.11,1.87,1.87,0,0,0,0,.34l.83,0q.42,0,.42.33A.43.43,0,0,1,77.74,25.82Z"/><path d="M82.5,31a.64.64,0,0,1-.45.12.5.5,0,0,1-.35-.21V28.81Q81.7,25,80.44,25a1,1,0,0,0-.9.63,2.17,2.17,0,0,0-.31,1.11.63.63,0,0,1,0,.19,1,1,0,0,0,0,.18V29a5.37,5.37,0,0,0,.08.74,5,5,0,0,1,.07.72q0,.24-.36.24a.49.49,0,0,1-.42-.24.83.83,0,0,1-.18-.5l.09-9.24a.57.57,0,0,1,0-.18q0-.27.3-.27a.94.94,0,0,1,.45.21c.19.13.29.25.29.34a5.78,5.78,0,0,1-.14,1,5.33,5.33,0,0,0-.15,1s0,.68,0,2a1.6,1.6,0,0,1,.86-.5,3.07,3.07,0,0,1,1.15.29c.87.36,1.31,1.31,1.31,2.85Z"/><path d="M87.75,29.06c0,.44-.3.84-.89,1.19a2.92,2.92,0,0,1-1.5.48q-2,0-2-2.55a8.13,8.13,0,0,1,.41-2.42q.54-1.68,1.38-1.68a2.55,2.55,0,0,1,1.57.73,2,2,0,0,1,.86,1.45,2.14,2.14,0,0,1-.75,1.62,2.45,2.45,0,0,1-1.7.69,1.22,1.22,0,0,1-.38-.15,1.11,1.11,0,0,0-.4-.15c-.13,0-.19,0-.19.12,0,1.15.38,1.72,1.14,1.72a1.71,1.71,0,0,0,1.08-.39A3.49,3.49,0,0,0,87,29c.19-.25.31-.38.37-.38C87.63,28.64,87.75,28.78,87.75,29.06Zm-1-2.76a1.76,1.76,0,0,0-.3-1,.92.92,0,0,0-.79-.46,1.12,1.12,0,0,0-1,.75,2.9,2.9,0,0,0-.31,1.31,1,1,0,0,0,.28.73.94.94,0,0,0,.71.29,1.24,1.24,0,0,0,1-.53A1.75,1.75,0,0,0,86.71,26.3Z"/><path d="M31.2,36.29q0,.3-.45.3a.23.23,0,0,1-.13,0c0-.43-.32-.64-.84-.64s-.87.56-1.14,1.69a10.24,10.24,0,0,0-.27,2.27,1.2,1.2,0,0,1,.27,0H29c.37,0,.56.11.56.33a2.13,2.13,0,0,1,0,.3,1.65,1.65,0,0,1-.76.13,1.11,1.11,0,0,0-.48.06c0,.39,0,1.1,0,2.12V43.9a6.06,6.06,0,0,0,.18,1.45.39.39,0,0,1,0,.14q0,.36-.51.36c-.3,0-.45-.41-.45-1.22q0-3.3.06-3.9h-.77c-.23,0-.34-.11-.34-.33s.2-.43.6-.43h.54c0-.2,0-.46.06-.77q.22-4,2.23-4Q31.2,35.21,31.2,36.29Z"/><path d="M31.73,45.4q0,.39-.42.39c-.44,0-.66-.91-.65-2.72l.05-6.73a3.59,3.59,0,0,0-.05-.47,3.38,3.38,0,0,1,0-.46.88.88,0,0,1,.48-.21.72.72,0,0,1,.42.15.44.44,0,0,1,.21.36,1.41,1.41,0,0,1-.08.39c-.06.2-.09.32-.1.37a17.36,17.36,0,0,0-.18,2.85c0,2,0,2.92,0,2.85A16.65,16.65,0,0,0,31.59,45a1,1,0,0,0,.07.2A.63.63,0,0,1,31.73,45.4Z"/><path d="M37.23,42.59a4.32,4.32,0,0,1-.57,2.25A2.08,2.08,0,0,1,34.79,46a2,2,0,0,1-1.82-1A3.82,3.82,0,0,1,32.48,43a5.88,5.88,0,0,1,.57-2.5c.48-1,1.09-1.52,1.83-1.52a1.74,1.74,0,0,1,.81.33A3.57,3.57,0,0,1,37.23,42.59Zm-.72,0a5.48,5.48,0,0,0-.25-1.73c-.25-.71-.64-1.06-1.16-1.06S34,40.18,33.69,41a5,5,0,0,0-.39,2,4.13,4.13,0,0,0,.27,1.59,1.28,1.28,0,0,0,1.22.88,1.47,1.47,0,0,0,1.36-1A4.33,4.33,0,0,0,36.51,42.58Z"/><path d="M44.88,40.76a10.81,10.81,0,0,1-.37,2.82q-.52,2-1.53,2a1.49,1.49,0,0,1-1.26-.91l-.39-.92-.06,0c-.14.4-.29.8-.44,1.2a1,1,0,0,1-.94.69Q38,45.65,38,41.08q0-1,.06-1.65a.32.32,0,0,1,.27-.15.78.78,0,0,1,.39.13c.15.08.23.18.23.29a2.75,2.75,0,0,1-.1.61,3.33,3.33,0,0,0-.1.65c0,2.6.34,3.9,1,3.9.43,0,.77-.49,1-1.47a7.18,7.18,0,0,0,.3-2V39.92c0-.21.12-.31.36-.31s.44.2.44.6c0,0,0,.12,0,.22a1.31,1.31,0,0,0,0,.23V42.5a4.74,4.74,0,0,0,.23,1.38c.19.65.44,1,.76,1s.79-.55,1.08-1.64a8.83,8.83,0,0,0,.33-2.2,3.19,3.19,0,0,0-.12-1.16.56.56,0,0,0-.1-.13.4.4,0,0,1-.11-.17.43.43,0,0,1,.15-.31.4.4,0,0,1,.3-.15C44.7,39.1,44.88,39.65,44.88,40.76Z"/><path d="M50,44.06c0,.44-.3.84-.89,1.19a2.92,2.92,0,0,1-1.5.48q-2,0-2-2.55A8.13,8.13,0,0,1,46,40.76q.54-1.68,1.38-1.68a2.55,2.55,0,0,1,1.57.73,2,2,0,0,1,.86,1.45,2.14,2.14,0,0,1-.75,1.62,2.43,2.43,0,0,1-1.7.69,1.22,1.22,0,0,1-.38-.15,1.11,1.11,0,0,0-.4-.15c-.13,0-.19,0-.19.12,0,1.15.38,1.72,1.14,1.72a1.71,1.71,0,0,0,1.08-.39,3.49,3.49,0,0,0,.66-.7c.19-.25.31-.38.37-.38C49.91,43.64,50,43.78,50,44.06ZM49,41.3a1.76,1.76,0,0,0-.3-1,.92.92,0,0,0-.79-.46,1.12,1.12,0,0,0-1,.75,2.9,2.9,0,0,0-.31,1.31,1,1,0,0,0,.28.73.94.94,0,0,0,.71.29,1.24,1.24,0,0,0,1-.53A1.75,1.75,0,0,0,49,41.3Z"/><path d="M54,40.21s0,.12,0,.25-.26.3-.37.3a.23.23,0,0,1-.21-.15c0-.63-.3-.94-.78-.94-.33,0-.64.59-.95,1.77a6.6,6.6,0,0,0-.18,1.72,9.37,9.37,0,0,0,.08,1.7l.07.19a.57.57,0,0,1,.06.21q0,.33-.45.33a.45.45,0,0,1-.51-.52.79.79,0,0,1,0-.22,1.31,1.31,0,0,0,0-.22c0-.55,0-1.37-.08-2.47s-.08-1.93-.08-2.48c0-.2,0-.32.11-.36a.74.74,0,0,1,.4-.07c.25,0,.4.09.44.27l0,.58c.26-.4.41-.62.45-.67a.94.94,0,0,1,.69-.38,1,1,0,0,1,.54.17,1.63,1.63,0,0,1,.41.46A1.2,1.2,0,0,1,54,40.21Z"/><path d="M58.55,44.68c0,.35-.26.64-.8.88a3.16,3.16,0,0,1-1.27.29,2.74,2.74,0,0,1-.93-.2,4.69,4.69,0,0,1-.91-.63c-.47-.37-.69-.63-.69-.77,0-.31.18-.46.55-.43h.09q0,.47,1,1a3,3,0,0,0,1.35.48q.66,0,.66-.45,0-.27-.81-.75a8.16,8.16,0,0,1-1.51-1,2.48,2.48,0,0,1-.83-1.83,2.86,2.86,0,0,1,.41-1.49A1.34,1.34,0,0,1,56,38.89a2.35,2.35,0,0,1,1.22.47,1.79,1.79,0,0,1,.85,1,3.79,3.79,0,0,1,.12.95A4.09,4.09,0,0,1,58,42.53a.49.49,0,0,1-.31.11,1.25,1.25,0,0,1-.33-.08c-.15-.06-.22-.12-.22-.18s0-.07.16-.33a2.45,2.45,0,0,0,.12-.93c0-1.07-.34-1.6-1-1.6-.34,0-.63.23-.83.71a2.65,2.65,0,0,0-.27,1.15,1.9,1.9,0,0,0,.85,1.43,16.69,16.69,0,0,0,1.58,1C58.27,44.2,58.55,44.48,58.55,44.68Z"/><path d="M66.84,42.22a5.83,5.83,0,0,1-.36,2.19,1.67,1.67,0,0,1-1.61,1.23,2.51,2.51,0,0,1-.77-.17l-.75-.27a.64.64,0,0,0,0,.2c0,.05,0,.12,0,.22s0,.16,0,.21-.09.23-.26.23a.53.53,0,0,1-.42-.21,2.19,2.19,0,0,1-.16-.89c0-.41,0-.73,0-1v-.09l.29-8.37H63a.56.56,0,0,1,.4.22.7.7,0,0,1,.18.44,12.86,12.86,0,0,1-.14,1.65,15,15,0,0,0-.14,1.65v.57a.79.79,0,0,0,.3-.34A2.49,2.49,0,0,1,64,39.2a1,1,0,0,1,.73-.27,1.86,1.86,0,0,1,1.34.6,2.69,2.69,0,0,1,.72,1.31A7.22,7.22,0,0,1,66.84,42.22Zm-.79.08a5.85,5.85,0,0,0-.2-1.61q-.28-1-1-1c-.55,0-1,.4-1.3,1.22a5.31,5.31,0,0,0-.38,1.94,3.38,3.38,0,0,0,.3,1.49,1.21,1.21,0,0,0,1.15.82c.5,0,.88-.36,1.13-1.08A5.47,5.47,0,0,0,66.05,42.3Z"/><path d="M72.35,42.59a4.32,4.32,0,0,1-.57,2.25A2.09,2.09,0,0,1,69.9,46a2,2,0,0,1-1.81-1,3.82,3.82,0,0,1-.5-2.07,5.88,5.88,0,0,1,.57-2.5c.48-1,1.09-1.52,1.83-1.52a1.74,1.74,0,0,1,.81.33A3.58,3.58,0,0,1,72.35,42.59Zm-.72,0a5.47,5.47,0,0,0-.26-1.73c-.25-.71-.63-1.06-1.15-1.06s-1.07.39-1.41,1.18a5,5,0,0,0-.39,2,4.13,4.13,0,0,0,.27,1.59,1.27,1.27,0,0,0,1.21.88,1.48,1.48,0,0,0,1.37-1A4.33,4.33,0,0,0,71.63,42.58Z"/><path d="M77.39,39.94a13.23,13.23,0,0,1-.1,1.39c-.06.61-.1,1.14-.1,1.59,0,.18,0,.53.06,1s0,.87,0,1.09c0,.44,0,.7-.15.79a.48.48,0,0,1-.26.06.44.44,0,0,1-.45-.28l-.12-.56a2,2,0,0,1-1.48.84,1.21,1.21,0,0,1-.9-.34,1.85,1.85,0,0,1-.62-.73,5.66,5.66,0,0,1-.21-1.91V39.64q-.09-.45.51-.45.42,0,.42.48c0,.48,0,1.1,0,1.87,0,1,0,1.61,0,1.88a2.35,2.35,0,0,0,.24,1.08c.2.43.46.64.77.64.51,0,.9-.34,1.18-1a4.56,4.56,0,0,0,.3-1.68v-2a.94.94,0,0,0-.08-.34,1.13,1.13,0,0,1-.08-.35,1,1,0,0,1,0-.17.7.7,0,0,1,.42-.21C77.16,39.37,77.39,39.55,77.39,39.94Z"/><path d="M82.7,41.05c0,.06,0,.14,0,.25a12.33,12.33,0,0,0-.31,2.42c0,.31,0,.78,0,1.42s0,1.12,0,1.44a4.37,4.37,0,0,1-.15,1.35,1.66,1.66,0,0,1-.69.83,1.91,1.91,0,0,1-1.05.33,4.79,4.79,0,0,1-1.46-.27c-.7-.22-1-.49-1-.8s.11-.4.32-.4.17.06.24.18a1.27,1.27,0,0,0,.19.28,1.43,1.43,0,0,0,.62.23,2.87,2.87,0,0,0,.67.12,1.44,1.44,0,0,0,1.28-.66,2.57,2.57,0,0,0,.37-1.46,5.72,5.72,0,0,0-.16-1.53,2.13,2.13,0,0,1-1.73.95,1.67,1.67,0,0,1-.7-.2,1.88,1.88,0,0,1-.6-.45,2.31,2.31,0,0,1-.41-1.51,9.18,9.18,0,0,1,.47-2.75c.4-1.27.92-1.9,1.57-1.9s1.07.47,1.65,1.41a4.66,4.66,0,0,0,.29.43A3,3,0,0,1,82.7,41.05Zm-.9.82a.68.68,0,0,0-.23-.52,2.4,2.4,0,0,0-.31-1.08,1.06,1.06,0,0,0-.93-.56c-.27,0-.54.31-.81.92a5.78,5.78,0,0,0-.41,1.29A9.55,9.55,0,0,0,79,43.45c0,1.23.36,1.84,1.07,1.84q.81,0,1.35-1.35A5.79,5.79,0,0,0,81.8,41.87Z"/><path d="M87.62,46a.64.64,0,0,1-.45.12.5.5,0,0,1-.35-.21v-2q0-3.81-1.26-3.81a1,1,0,0,0-.9.63,2.17,2.17,0,0,0-.31,1.11.63.63,0,0,1,0,.19,1,1,0,0,0,0,.18V44a5.37,5.37,0,0,0,.08.74,5,5,0,0,1,.07.72q0,.24-.36.24a.49.49,0,0,1-.42-.24.83.83,0,0,1-.18-.5l.09-9.24a.57.57,0,0,1,0-.18q0-.27.3-.27a.94.94,0,0,1,.45.21c.19.13.29.25.29.34a5.78,5.78,0,0,1-.14,1,5.33,5.33,0,0,0-.15,1s0,.68,0,2a1.6,1.6,0,0,1,.86-.5,3.07,3.07,0,0,1,1.15.29c.87.36,1.31,1.31,1.31,2.85Z"/><path d="M90.87,40.82a1.45,1.45,0,0,1-.57.15,2.28,2.28,0,0,0-.57.11c0,.11,0,.66,0,1.66,0,.78,0,1.31,0,1.58a2.75,2.75,0,0,0,.07.52,3.08,3.08,0,0,1,.08.56.33.33,0,0,1-.15.24.45.45,0,0,1-.27.12c-.2,0-.36-.21-.48-.62a3.28,3.28,0,0,1-.12-.85V41.17c-.06-.05-.28-.05-.67,0s-.47-.08-.47-.35.4-.55,1.21-.52l.2-2.72a.38.38,0,0,0,0-.14.63.63,0,0,1,0-.14.21.21,0,0,1,.12-.17.41.41,0,0,1,.29-.07c.35,0,.52.2.52.52a8.75,8.75,0,0,1-.1,1.13,9.13,9.13,0,0,0-.11,1.11,1.87,1.87,0,0,0,0,.34l.83,0q.42,0,.42.33A.43.43,0,0,1,90.87,40.82Z"/><path d="M99.83,36.29q0,.3-.45.3a.26.26,0,0,1-.14,0c0-.43-.32-.64-.84-.64s-.87.56-1.14,1.69A10.24,10.24,0,0,0,97,39.88a1.2,1.2,0,0,1,.27,0h.41c.37,0,.55.11.55.33a2.13,2.13,0,0,1,0,.3,1.6,1.6,0,0,1-.75.13,1.14,1.14,0,0,0-.49.06c0,.39,0,1.1,0,2.12V43.9a6.06,6.06,0,0,0,.18,1.45.39.39,0,0,1,0,.14q0,.36-.51.36c-.3,0-.45-.41-.45-1.22q0-3.3.06-3.9h-.76c-.23,0-.35-.11-.35-.33s.2-.43.6-.43h.54c0-.2,0-.46.06-.77q.23-4,2.24-4Q99.83,35.21,99.83,36.29Z"/><path d="M103,42.59a4.32,4.32,0,0,1-.57,2.25A2.09,2.09,0,0,1,100.56,46a2,2,0,0,1-1.81-1,3.82,3.82,0,0,1-.5-2.07,5.88,5.88,0,0,1,.57-2.5c.48-1,1.09-1.52,1.83-1.52a1.74,1.74,0,0,1,.81.33A3.58,3.58,0,0,1,103,42.59Zm-.72,0a5.47,5.47,0,0,0-.26-1.73c-.25-.71-.63-1.06-1.15-1.06s-1.07.39-1.41,1.18a5,5,0,0,0-.39,2,4.13,4.13,0,0,0,.27,1.59,1.27,1.27,0,0,0,1.21.88,1.48,1.48,0,0,0,1.37-1A4.33,4.33,0,0,0,102.29,42.58Z"/><path d="M107.09,40.21s0,.12,0,.25-.25.3-.37.3a.25.25,0,0,1-.21-.15c0-.63-.29-.94-.78-.94-.32,0-.64.59-.95,1.77a6.6,6.6,0,0,0-.18,1.72,10.48,10.48,0,0,0,.08,1.7l.07.19a.57.57,0,0,1,.06.21q0,.33-.45.33a.45.45,0,0,1-.51-.52,1.51,1.51,0,0,1,0-.22.73.73,0,0,0,0-.22c0-.55,0-1.37-.08-2.47s-.07-1.93-.07-2.48c0-.2,0-.32.1-.36a.79.79,0,0,1,.41-.07c.25,0,.39.09.43.27l0,.58c.26-.4.41-.62.45-.67a.94.94,0,0,1,.69-.38,1,1,0,0,1,.54.17,1.79,1.79,0,0,1,.42.46A1.27,1.27,0,0,1,107.09,40.21Z"/><path d="M16,61a.64.64,0,0,1-.45.12.5.5,0,0,1-.35-.21v-2c0-2.54-.42-3.81-1.27-3.81a1,1,0,0,0-.89.63,2.17,2.17,0,0,0-.31,1.11,1.3,1.3,0,0,1,0,.19,1,1,0,0,0,0,.18V59a5.37,5.37,0,0,0,.08.74,5,5,0,0,1,.07.72q0,.24-.36.24a.52.52,0,0,1-.43-.24.88.88,0,0,1-.17-.5l.09-9.24a.57.57,0,0,1,0-.18q0-.27.3-.27a.88.88,0,0,1,.44.21c.2.13.3.25.3.34a5.78,5.78,0,0,1-.14,1,5.33,5.33,0,0,0-.15,1s0,.68,0,2a1.6,1.6,0,0,1,.86-.5,3.07,3.07,0,0,1,1.15.29C15.55,55.06,16,56,16,57.55Z"/><path d="M21.6,57.59A4.32,4.32,0,0,1,21,59.84,2.09,2.09,0,0,1,19.15,61a2,2,0,0,1-1.81-1,3.82,3.82,0,0,1-.5-2.07,5.88,5.88,0,0,1,.57-2.5c.48-1,1.09-1.52,1.83-1.52a1.74,1.74,0,0,1,.81.33A3.58,3.58,0,0,1,21.6,57.59Zm-.72,0a5.47,5.47,0,0,0-.26-1.73c-.25-.71-.63-1.06-1.15-1.06s-1.07.39-1.41,1.18a5,5,0,0,0-.39,2,4.13,4.13,0,0,0,.27,1.59,1.27,1.27,0,0,0,1.21.88,1.48,1.48,0,0,0,1.37-1A4.33,4.33,0,0,0,20.88,57.58Z"/><path d="M23.58,60.4q0,.39-.42.39c-.44,0-.66-.91-.65-2.72l0-6.73a3.59,3.59,0,0,0,0-.47,3.38,3.38,0,0,1,0-.46A.88.88,0,0,1,23,50.2a.72.72,0,0,1,.42.15.44.44,0,0,1,.21.36,1.41,1.41,0,0,1-.08.39c-.06.2-.09.32-.1.37a17.36,17.36,0,0,0-.18,2.85c0,2,0,2.92,0,2.85A16.65,16.65,0,0,0,23.44,60a.57.57,0,0,0,.07.2A.63.63,0,0,1,23.58,60.4Z"/><path d="M25.53,54.68a3.62,3.62,0,0,1-.13.81,4.32,4.32,0,0,0-.13.81v3.32a3.77,3.77,0,0,0,.15.9.18.18,0,0,1-.16.12.64.64,0,0,1-.74-.71v-5.5a.82.82,0,0,1,.38-.11.78.78,0,0,1,.37.11C25.44,54.5,25.53,54.58,25.53,54.68Zm.28-2.25q0,.51-.48.51a.77.77,0,0,1-.52-.21.63.63,0,0,1-.24-.48.45.45,0,0,1,.51-.51.77.77,0,0,1,.52.2A.64.64,0,0,1,25.81,52.43Z"/><path d="M31.32,51a5.66,5.66,0,0,1-.09.89c-.07.47-.12.76-.14.88,0,.31-.08,1.34-.15,3.1-.06,1.6-.09,2.48-.09,2.65a6.27,6.27,0,0,0,.29,2.27.32.32,0,0,1-.27.17.58.58,0,0,1-.34-.15.67.67,0,0,1-.23-.3,7,7,0,0,0-.09-.92,2.38,2.38,0,0,1-1.7,1.13A1.74,1.74,0,0,1,27,60a2.79,2.79,0,0,1-.45-1.66A8,8,0,0,1,27,55.72Q27.63,54,28.62,54a1.44,1.44,0,0,1,.85.31c.06,0,.3.25.71.63a40.18,40.18,0,0,0,.15-4.48.38.38,0,0,1,.28-.11.72.72,0,0,1,.71.71Zm-1.13,5.55a2.36,2.36,0,0,0-.3-1.19,1.08,1.08,0,0,0-1-.63q-.75,0-1.2,1.53a7.35,7.35,0,0,0-.36,2.18,2.83,2.83,0,0,0,.21,1.14.91.91,0,0,0,.85.63q.93,0,1.41-1.44A6.71,6.71,0,0,0,30.19,56.56Z"/><path d="M36.39,61q0,.21-.33.21a.4.4,0,0,1-.44-.3s0-.22,0-.58a.54.54,0,0,0,0-.24,3,3,0,0,1-1.81.61,2.53,2.53,0,0,1-1.31-.37,1.22,1.22,0,0,1-.72-1.05c0-.41.29-.81.86-1.2A2.59,2.59,0,0,1,34,57.52H35.5a.45.45,0,0,0,.09-.32,5.23,5.23,0,0,0-.16-1.51,1.07,1.07,0,0,0-1.07-.86,1.32,1.32,0,0,0-1,.72,2.3,2.3,0,0,0-.43,1.26V57a.11.11,0,0,1-.12.12.67.67,0,0,1-.51-.5,2.9,2.9,0,0,1,.25-1.05,3.18,3.18,0,0,1,.56-1,1.22,1.22,0,0,1,.93-.41,2.55,2.55,0,0,1,1.57.54,1.77,1.77,0,0,1,.78,1.41Zm-.8-2.38q0-.6-.93-.6a3.06,3.06,0,0,0-1.29.25,1.05,1.05,0,0,0-.7,1,.7.7,0,0,0,.37.63,1.4,1.4,0,0,0,.75.2A2.08,2.08,0,0,0,35,59.65,1.26,1.26,0,0,0,35.59,58.6Z"/><path d="M42,54.67c-.08.44-.16.88-.23,1.32a6.32,6.32,0,0,0-.14,1.32V62a2.15,2.15,0,0,1-.61,1.6,2.21,2.21,0,0,1-1.63.59,3.15,3.15,0,0,1-1.24-.3,2.23,2.23,0,0,1-1.1-.82A.54.54,0,0,1,37,62.8c0-.29.14-.44.42-.44a.38.38,0,0,1,.19.06l.51.53a1.84,1.84,0,0,0,1.29.46,1.32,1.32,0,0,0,1.32-.69,4.27,4.27,0,0,0,.2-1.57,5.71,5.71,0,0,0-.06-.6,2.54,2.54,0,0,1,0-.66,4.12,4.12,0,0,1-.6.49,1.32,1.32,0,0,1-.72.21A1.74,1.74,0,0,1,38,59.8,3.09,3.09,0,0,1,37.53,58q0-2,.06-3.42a.48.48,0,0,1,.52-.48c.38,0,.55.07.51.2a13,13,0,0,0-.28,3.49c0,1.4.4,2.1,1.19,2.1.49,0,.88-.37,1.16-1.12A4.72,4.72,0,0,0,41,57.05V55.34c0-.17,0-.38,0-.64s.18-.38.49-.36S42.06,54.48,42,54.67Z"/><path d="M47,59.68c0,.35-.27.64-.8.88a3.2,3.2,0,0,1-1.27.29,2.74,2.74,0,0,1-.93-.2,4.67,4.67,0,0,1-.92-.63c-.46-.37-.69-.63-.69-.77,0-.31.19-.46.56-.43h.09q0,.47,1,1a3,3,0,0,0,1.35.48q.66,0,.66-.45,0-.27-.81-.75a8.71,8.71,0,0,1-1.52-1,2.47,2.47,0,0,1-.82-1.83,3,3,0,0,1,.4-1.49,1.35,1.35,0,0,1,1.17-.84,2.41,2.41,0,0,1,1.23.47,1.8,1.8,0,0,1,.84,1,3.38,3.38,0,0,1,.12.95,4.37,4.37,0,0,1-.21,1.27.49.49,0,0,1-.31.11,1.25,1.25,0,0,1-.33-.08c-.15-.06-.23-.12-.23-.18s.06-.07.17-.33a2.45,2.45,0,0,0,.12-.93c0-1.07-.34-1.6-1-1.6-.35,0-.63.23-.84.71a2.65,2.65,0,0,0-.27,1.15,1.91,1.91,0,0,0,.86,1.43,17.45,17.45,0,0,0,1.57,1C46.72,59.2,47,59.48,47,59.68Z"/><path d="M47.83,59.87a.56.56,0,0,1,.12-.34.64.64,0,0,1,.53-.17.72.72,0,0,1,.48.18.9.9,0,0,1,.28.57,5.68,5.68,0,0,1,.09,1.09,2.09,2.09,0,0,1-.31.94,2.92,2.92,0,0,1-.56.7.94.94,0,0,1-.6.26c-.16,0-.25-.07-.27-.2a.43.43,0,0,1,.18-.39,5.56,5.56,0,0,1,.54-.42,1.25,1.25,0,0,0,.42-.55.88.88,0,0,0,0-.64,1,1,0,0,0-.37-.5L48,60.14A.33.33,0,0,1,47.83,59.87Z"/><path d="M58.23,57.59a4.32,4.32,0,0,1-.57,2.25A2.09,2.09,0,0,1,55.78,61a2,2,0,0,1-1.81-1,3.82,3.82,0,0,1-.5-2.07,5.88,5.88,0,0,1,.57-2.5c.48-1,1.09-1.52,1.83-1.52a1.74,1.74,0,0,1,.81.33A3.58,3.58,0,0,1,58.23,57.59Zm-.72,0a5.47,5.47,0,0,0-.26-1.73c-.25-.71-.63-1.06-1.15-1.06S55,55.18,54.69,56a5,5,0,0,0-.39,2,4.13,4.13,0,0,0,.27,1.59,1.27,1.27,0,0,0,1.21.88,1.48,1.48,0,0,0,1.37-1A4.33,4.33,0,0,0,57.51,57.58Z"/><path d="M63.73,60.62a.25.25,0,0,1-.24.17,1.27,1.27,0,0,1-.51-.21v-.92q0-5-1.24-5c-.26,0-.53.19-.83.57a5.56,5.56,0,0,0-1,4.39,6.94,6.94,0,0,1,.08.83c0,.15-.1.23-.31.23-.38,0-.58-.32-.58-1v-3.4c0-.09,0-.22,0-.39s0-.3,0-.39A3.63,3.63,0,0,0,59,55a3.61,3.61,0,0,1-.05-.56q0-.12.18-.27a.54.54,0,0,1,.3-.16.46.46,0,0,1,.36.21c0,.65,0,1,0,1.14s0,.29,0,.43c.09,0,.21-.19.36-.49a3.62,3.62,0,0,1,.48-.78,1.06,1.06,0,0,1,.82-.42,1.68,1.68,0,0,1,.54.13,2,2,0,0,1,1.16,1,7.16,7.16,0,0,1,.58,3.14Z"/><path d="M69,59.06c0,.44-.29.84-.88,1.19a2.92,2.92,0,0,1-1.5.48q-2,0-2-2.55a8.1,8.1,0,0,1,.4-2.42q.54-1.68,1.38-1.68a2.58,2.58,0,0,1,1.58.73,2,2,0,0,1,.85,1.45A2.14,2.14,0,0,1,68,57.88a2.43,2.43,0,0,1-1.69.69,1.24,1.24,0,0,1-.39-.15,1.09,1.09,0,0,0-.39-.15c-.13,0-.2,0-.2.12,0,1.15.38,1.72,1.14,1.72a1.71,1.71,0,0,0,1.08-.39,3.49,3.49,0,0,0,.66-.7c.19-.25.32-.38.38-.38C68.84,58.64,69,58.78,69,59.06Zm-1-2.76a1.76,1.76,0,0,0-.3-1,.93.93,0,0,0-.8-.46c-.4,0-.72.25-1,.75a2.91,2.91,0,0,0-.32,1.31,1,1,0,0,0,.28.73.94.94,0,0,0,.71.29,1.24,1.24,0,0,0,1-.53A1.76,1.76,0,0,0,67.92,56.3Z"/><path d="M77.34,55.87a6.35,6.35,0,0,0-.27.73,16,16,0,0,0-.38,4.32c0,2,.22,3.15.65,3.29v.21a1.21,1.21,0,0,1-.41.15c-.64,0-1-1.42-1-4.25l-.07-.07a2,2,0,0,1-1.42.49,1.45,1.45,0,0,1-1.37-.84,3.69,3.69,0,0,1-.33-1.68,7.76,7.76,0,0,1,.42-2.5c.38-1.1.91-1.65,1.58-1.65a1.49,1.49,0,0,1,1.08.52l.82.93.21,0C77.19,55.48,77.34,55.61,77.34,55.87Zm-1.1.82a.76.76,0,0,0-.13-.51v-.3a1.17,1.17,0,0,0-.38-.75,1,1,0,0,0-.72-.42c-.48,0-.86.48-1.15,1.44a6.8,6.8,0,0,0-.35,2.06c0,1.39.36,2.08,1.08,2.08s1.06-.47,1.35-1.41A7.43,7.43,0,0,0,76.24,56.69Z"/><path d="M82.38,54.94a13.23,13.23,0,0,1-.1,1.39,14.07,14.07,0,0,0-.1,1.59c0,.18,0,.53.06,1s.05.87.05,1.09c0,.44-.05.7-.15.79a.48.48,0,0,1-.26.06.44.44,0,0,1-.45-.28l-.12-.56a2,2,0,0,1-1.48.84,1.21,1.21,0,0,1-.9-.34,1.85,1.85,0,0,1-.62-.73,5.66,5.66,0,0,1-.21-1.91V54.64q-.09-.45.51-.45.42,0,.42.48c0,.48,0,1.1,0,1.87,0,1,0,1.61,0,1.88a2.35,2.35,0,0,0,.24,1.08c.2.43.46.64.77.64.51,0,.9-.34,1.18-1a4.56,4.56,0,0,0,.3-1.68v-2a.94.94,0,0,0-.08-.34.9.9,0,0,1-.08-.35,1,1,0,0,1,0-.17.7.7,0,0,1,.42-.21C82.15,54.37,82.38,54.55,82.38,54.94Z"/><path d="M87.6,61q0,.21-.33.21a.4.4,0,0,1-.44-.3s0-.22,0-.58a.54.54,0,0,0,0-.24,3,3,0,0,1-1.81.61,2.53,2.53,0,0,1-1.31-.37,1.22,1.22,0,0,1-.72-1.05c0-.41.29-.81.86-1.2a2.59,2.59,0,0,1,1.44-.54h1.48a.45.45,0,0,0,.09-.32,5.23,5.23,0,0,0-.16-1.51,1.07,1.07,0,0,0-1.07-.86,1.32,1.32,0,0,0-1,.72,2.3,2.3,0,0,0-.43,1.26V57a.11.11,0,0,1-.12.12.67.67,0,0,1-.51-.5,2.9,2.9,0,0,1,.25-1.05,3.18,3.18,0,0,1,.56-1,1.22,1.22,0,0,1,.93-.41,2.55,2.55,0,0,1,1.57.54,1.77,1.77,0,0,1,.78,1.41Zm-.8-2.38q0-.6-.93-.6a3.06,3.06,0,0,0-1.29.25,1.05,1.05,0,0,0-.7,1,.7.7,0,0,0,.37.63,1.4,1.4,0,0,0,.75.2,2.08,2.08,0,0,0,1.23-.42A1.26,1.26,0,0,0,86.8,58.6Z"/><path d="M92,55.21s0,.12,0,.25-.26.3-.38.3a.25.25,0,0,1-.21-.15c0-.63-.29-.94-.78-.94-.32,0-.63.59-.94,1.77a6.6,6.6,0,0,0-.18,1.72,11,11,0,0,0,.07,1.7l.08.19a.57.57,0,0,1,.06.21q0,.33-.45.33a.45.45,0,0,1-.51-.52,1.22,1.22,0,0,1,0-.22.73.73,0,0,0,0-.22c0-.55,0-1.37-.07-2.47s-.08-1.93-.08-2.48c0-.2,0-.32.11-.36a.74.74,0,0,1,.4-.07c.25,0,.4.09.44.27l0,.58c.26-.4.41-.62.45-.67a.94.94,0,0,1,.69-.38,1,1,0,0,1,.54.17,1.8,1.8,0,0,1,.41.46A1.27,1.27,0,0,1,92,55.21Z"/><path d="M95.16,55.82a1.45,1.45,0,0,1-.57.15,2.28,2.28,0,0,0-.57.11c0,.11,0,.66,0,1.66,0,.78,0,1.31,0,1.58a3,3,0,0,0,.08.52,2.89,2.89,0,0,1,.07.56.33.33,0,0,1-.15.24.45.45,0,0,1-.27.12c-.2,0-.36-.21-.48-.62a3.28,3.28,0,0,1-.12-.85V56.17c-.06-.05-.28-.05-.67,0s-.47-.08-.47-.35.41-.55,1.22-.52l.19-2.72a.38.38,0,0,0,0-.14.5.5,0,0,1,0-.14.21.21,0,0,1,.12-.17.38.38,0,0,1,.28-.07c.35,0,.53.2.53.52a9.19,9.19,0,0,1-.11,1.13,8.65,8.65,0,0,0-.1,1.11,1.87,1.87,0,0,0,0,.34l.82,0q.42,0,.42.33A.42.42,0,0,1,95.16,55.82Z"/><path d="M99.94,59.06c0,.44-.29.84-.88,1.19a2.92,2.92,0,0,1-1.5.48q-2,0-2-2.55a8.1,8.1,0,0,1,.4-2.42q.54-1.68,1.38-1.68a2.58,2.58,0,0,1,1.58.73,2,2,0,0,1,.85,1.45A2.14,2.14,0,0,1,99,57.88a2.43,2.43,0,0,1-1.69.69,1.14,1.14,0,0,1-.38-.15,1.18,1.18,0,0,0-.4-.15c-.13,0-.2,0-.2.12,0,1.15.38,1.72,1.14,1.72a1.71,1.71,0,0,0,1.08-.39,3.49,3.49,0,0,0,.66-.7c.19-.25.32-.38.38-.38C99.83,58.64,99.94,58.78,99.94,59.06Zm-1-2.76a1.76,1.76,0,0,0-.3-1,.93.93,0,0,0-.8-.46c-.4,0-.72.25-1,.75a2.91,2.91,0,0,0-.32,1.31,1.05,1.05,0,0,0,.28.73,1,1,0,0,0,.71.29,1.24,1.24,0,0,0,1-.53A1.76,1.76,0,0,0,98.91,56.3Z"/><path d="M104,55.21s0,.12,0,.25-.25.3-.37.3a.25.25,0,0,1-.21-.15c0-.63-.29-.94-.78-.94-.32,0-.64.59-.95,1.77a6.6,6.6,0,0,0-.18,1.72,10.48,10.48,0,0,0,.08,1.7l.07.19a.57.57,0,0,1,.06.21q0,.33-.45.33a.45.45,0,0,1-.51-.52,1.51,1.51,0,0,1,0-.22.73.73,0,0,0,0-.22c0-.55,0-1.37-.08-2.47s-.07-1.93-.07-2.48c0-.2,0-.32.1-.36a.79.79,0,0,1,.41-.07c.25,0,.39.09.43.27l0,.58c.26-.4.41-.62.45-.67a.94.94,0,0,1,.69-.38,1,1,0,0,1,.54.17,1.79,1.79,0,0,1,.42.46A1.27,1.27,0,0,1,104,55.21Z"/><path d="M112.53,61q0,.21-.33.21a.4.4,0,0,1-.44-.3s0-.22,0-.58a.54.54,0,0,0,0-.24,3,3,0,0,1-1.81.61,2.53,2.53,0,0,1-1.31-.37,1.22,1.22,0,0,1-.72-1.05c0-.41.29-.81.86-1.2a2.59,2.59,0,0,1,1.44-.54h1.48a.45.45,0,0,0,.09-.32,5.23,5.23,0,0,0-.16-1.51,1.07,1.07,0,0,0-1.07-.86,1.32,1.32,0,0,0-1,.72,2.3,2.3,0,0,0-.43,1.26V57a.11.11,0,0,1-.12.12.67.67,0,0,1-.51-.5,2.9,2.9,0,0,1,.25-1.05,3.18,3.18,0,0,1,.56-1,1.22,1.22,0,0,1,.93-.41,2.55,2.55,0,0,1,1.57.54,1.77,1.77,0,0,1,.78,1.41Zm-.8-2.38q0-.6-.93-.6a3.06,3.06,0,0,0-1.29.25,1.05,1.05,0,0,0-.7,1,.7.7,0,0,0,.37.63,1.4,1.4,0,0,0,.75.2,2.08,2.08,0,0,0,1.23-.42A1.26,1.26,0,0,0,111.73,58.6Z"/><path d="M116.92,55.21s0,.12,0,.25-.26.3-.38.3a.25.25,0,0,1-.21-.15c0-.63-.29-.94-.78-.94-.32,0-.63.59-.94,1.77a6.6,6.6,0,0,0-.18,1.72,11,11,0,0,0,.07,1.7l.08.19a.57.57,0,0,1,.06.21q0,.33-.45.33a.45.45,0,0,1-.51-.52,1.22,1.22,0,0,1,0-.22.73.73,0,0,0,0-.22c0-.55,0-1.37-.07-2.47s-.08-1.93-.08-2.48c0-.2,0-.32.11-.36a.74.74,0,0,1,.4-.07c.25,0,.4.09.44.27l0,.58c.26-.4.41-.62.45-.67a.94.94,0,0,1,.69-.38,1,1,0,0,1,.54.17,1.63,1.63,0,0,1,.41.46A1.27,1.27,0,0,1,116.92,55.21Z"/><path d="M121.59,59.06c0,.44-.3.84-.89,1.19a2.92,2.92,0,0,1-1.5.48q-2,0-2-2.55a8.13,8.13,0,0,1,.41-2.42q.54-1.68,1.38-1.68a2.55,2.55,0,0,1,1.57.73,2,2,0,0,1,.86,1.45,2.14,2.14,0,0,1-.75,1.62,2.45,2.45,0,0,1-1.7.69,1.22,1.22,0,0,1-.38-.15,1.11,1.11,0,0,0-.4-.15c-.13,0-.19,0-.19.12,0,1.15.38,1.72,1.14,1.72a1.71,1.71,0,0,0,1.08-.39,3.49,3.49,0,0,0,.66-.7c.19-.25.31-.38.37-.38C121.47,58.64,121.59,58.78,121.59,59.06Zm-1-2.76a1.76,1.76,0,0,0-.3-1,.92.92,0,0,0-.79-.46,1.12,1.12,0,0,0-1,.75,2.9,2.9,0,0,0-.31,1.31,1,1,0,0,0,.28.73.94.94,0,0,0,.71.29,1.24,1.24,0,0,0,1-.53A1.75,1.75,0,0,0,120.55,56.3Z"/><path d="M40.75,71.87a6.28,6.28,0,0,1-.43,2.49,2,2,0,0,1-1.85,1.4A1.82,1.82,0,0,1,37,75c-.07,0-.1.34-.1.93a13.48,13.48,0,0,0,.19,2.76,3.12,3.12,0,0,0,.14.36,1.28,1.28,0,0,1,.13.35q0,.24-.3.24a.86.86,0,0,1-.5-.11c-.1-.07-.18-.3-.25-.69a4.63,4.63,0,0,1-.09-.78V74.24q0-.52.06-1.41t.06-1.41q0-.4,0-1V69.31c0-.69.18-1,.54-1,.18,0,.27.07.27.2s0,.61-.06,1.09-.06.84-.06,1.08h.06l.69-.94a1.24,1.24,0,0,1,1-.53,1.63,1.63,0,0,1,1.51.9A3.53,3.53,0,0,1,40.75,71.87Zm-.75.06a4.93,4.93,0,0,0-.16-1.36c-.17-.56-.45-.84-.83-.84s-.62.24-1,.73a4,4,0,0,0-.73,1.32,7.89,7.89,0,0,0-.27,1.5q-.06.72-.06.69s0,.08.13.15l.18.14.49.7a.84.84,0,0,0,.73.35c.55,0,1-.45,1.24-1.35A6.78,6.78,0,0,0,40,71.93Z"/><path d="M45.79,69.94a13.23,13.23,0,0,1-.1,1.39q-.09.92-.09,1.59c0,.18,0,.53,0,1s.05.87.05,1.09c0,.44-.05.7-.15.79a.52.52,0,0,1-.7-.22l-.12-.56a2,2,0,0,1-1.49.84,1.21,1.21,0,0,1-.9-.34,1.81,1.81,0,0,1-.61-.73,5.66,5.66,0,0,1-.21-1.91V69.64q-.09-.45.51-.45.42,0,.42.48c0,.48,0,1.1-.05,1.87,0,1,0,1.61,0,1.88a2.35,2.35,0,0,0,.24,1.08c.2.43.45.64.76.64.51,0,.91-.34,1.19-1a4.56,4.56,0,0,0,.3-1.68v-2a1,1,0,0,0-.09-.34,1.13,1.13,0,0,1-.08-.35,1.11,1.11,0,0,1,0-.17.7.7,0,0,1,.42-.21C45.57,69.37,45.79,69.55,45.79,69.94Z"/><path d="M50.16,70.21s0,.12,0,.25-.25.3-.37.3a.25.25,0,0,1-.21-.15c0-.63-.29-.94-.78-.94-.32,0-.64.59-1,1.77a6.6,6.6,0,0,0-.18,1.72,10.48,10.48,0,0,0,.08,1.7l.07.19a.57.57,0,0,1,.06.21q0,.33-.45.33a.45.45,0,0,1-.51-.52.79.79,0,0,1,0-.22,1.31,1.31,0,0,0,0-.22c0-.55,0-1.37-.08-2.47s-.07-1.93-.07-2.48c0-.2,0-.32.1-.36a.79.79,0,0,1,.41-.07c.25,0,.39.09.43.27l0,.58c.26-.4.41-.62.45-.67a.94.94,0,0,1,.69-.38,1,1,0,0,1,.54.17,1.63,1.63,0,0,1,.41.46A1.2,1.2,0,0,1,50.16,70.21Z"/><path d="M55.26,74c0,.24-.21.57-.62,1a2.69,2.69,0,0,1-1,.71,3.06,3.06,0,0,1-.87.17,2,2,0,0,1-1.68-.8,2.93,2.93,0,0,1-.54-1.83A8,8,0,0,1,51,70.63q.62-1.77,1.53-1.77a2.45,2.45,0,0,1,1.16.43q.72.42.81.81a4.18,4.18,0,0,1,.1.92c0,1.1-.16,1.65-.49,1.65a.64.64,0,0,1-.29-.09c-.11-.06-.16-.13-.16-.21a.35.35,0,0,1,.06-.16.92.92,0,0,0,.07-.13,4,4,0,0,0,.06-.9c0-1.11-.25-1.66-.75-1.66s-1,.51-1.35,1.52a7,7,0,0,0-.39,2.22,3.2,3.2,0,0,0,.26,1.36,1.11,1.11,0,0,0,1.06.7,1.78,1.78,0,0,0,1-.45,2.94,2.94,0,0,0,.78-.86l.18-.43a.24.24,0,0,1,.21-.1c.06,0,.13.07.22.2A.78.78,0,0,1,55.26,74Z"/><path d="M60.06,76a.64.64,0,0,1-.45.12.5.5,0,0,1-.35-.21v-2c0-2.54-.42-3.81-1.27-3.81a1,1,0,0,0-.89.63,2.17,2.17,0,0,0-.31,1.11,1.3,1.3,0,0,1,0,.19.54.54,0,0,0,0,.18V74a5.37,5.37,0,0,0,.08.74,5,5,0,0,1,.07.72q0,.24-.36.24a.52.52,0,0,1-.43-.24.88.88,0,0,1-.17-.5L56,65.75a.57.57,0,0,1,0-.18q0-.27.3-.27a.88.88,0,0,1,.44.21c.2.13.3.25.3.34a5.14,5.14,0,0,1-.15,1,6,6,0,0,0-.14,1s0,.68,0,2a1.6,1.6,0,0,1,.86-.5,3.07,3.07,0,0,1,1.15.29c.87.36,1.31,1.31,1.31,2.85Z"/><path d="M65.49,76q0,.21-.33.21a.4.4,0,0,1-.44-.3s0-.22,0-.58a.54.54,0,0,0,0-.24,3,3,0,0,1-1.81.61,2.53,2.53,0,0,1-1.31-.37,1.22,1.22,0,0,1-.72-1c0-.41.29-.81.86-1.2a2.59,2.59,0,0,1,1.44-.54H64.6a.45.45,0,0,0,.09-.32,5.23,5.23,0,0,0-.16-1.51,1.07,1.07,0,0,0-1.07-.86,1.32,1.32,0,0,0-1.05.72A2.3,2.3,0,0,0,62,71.81V72a.11.11,0,0,1-.12.12.67.67,0,0,1-.51-.5,2.9,2.9,0,0,1,.25-1,3.18,3.18,0,0,1,.56-1,1.22,1.22,0,0,1,.93-.41,2.55,2.55,0,0,1,1.57.54,1.77,1.77,0,0,1,.78,1.41Zm-.8-2.38q0-.6-.93-.6a3.06,3.06,0,0,0-1.29.25,1.05,1.05,0,0,0-.7,1,.7.7,0,0,0,.37.63,1.4,1.4,0,0,0,.75.2,2.08,2.08,0,0,0,1.23-.42A1.26,1.26,0,0,0,64.69,73.6Z"/><path d="M70.84,74.68c0,.35-.26.64-.79.88a3.24,3.24,0,0,1-1.28.29,2.74,2.74,0,0,1-.93-.2,4.69,4.69,0,0,1-.91-.63c-.46-.37-.69-.63-.69-.77,0-.31.18-.46.55-.43h.09q0,.47,1,1a3,3,0,0,0,1.35.48q.66,0,.66-.45,0-.27-.81-.75a8.53,8.53,0,0,1-1.51-1,2.48,2.48,0,0,1-.83-1.83,3,3,0,0,1,.41-1.49,1.35,1.35,0,0,1,1.17-.84,2.41,2.41,0,0,1,1.23.47,1.8,1.8,0,0,1,.84,1,3.38,3.38,0,0,1,.12,1,4.37,4.37,0,0,1-.21,1.27.52.52,0,0,1-.32.11,1.25,1.25,0,0,1-.33-.08c-.15-.06-.22-.12-.22-.18s0-.07.16-.33a2.45,2.45,0,0,0,.12-.93c0-1.07-.33-1.6-1-1.6-.35,0-.63.23-.84.71a2.65,2.65,0,0,0-.27,1.15,1.9,1.9,0,0,0,.85,1.43,18.28,18.28,0,0,0,1.58,1C70.56,74.2,70.84,74.48,70.84,74.68Z"/><path d="M75.75,74.06c0,.44-.3.84-.89,1.19a2.92,2.92,0,0,1-1.5.48q-2,0-2-2.55a8.13,8.13,0,0,1,.41-2.42q.54-1.68,1.38-1.68a2.55,2.55,0,0,1,1.57.73,2,2,0,0,1,.86,1.45,2.14,2.14,0,0,1-.75,1.62,2.45,2.45,0,0,1-1.7.69,1.14,1.14,0,0,1-.38-.15,1.18,1.18,0,0,0-.4-.15c-.13,0-.19,0-.19.12,0,1.15.38,1.72,1.14,1.72a1.71,1.71,0,0,0,1.08-.39A3.49,3.49,0,0,0,75,74c.19-.25.31-.38.37-.38C75.63,73.64,75.75,73.78,75.75,74.06Zm-1-2.76a1.76,1.76,0,0,0-.3-1,.92.92,0,0,0-.79-.46,1.12,1.12,0,0,0-1,.75,2.9,2.9,0,0,0-.31,1.31,1,1,0,0,0,.27.73,1,1,0,0,0,.72.29,1.24,1.24,0,0,0,1-.53A1.75,1.75,0,0,0,74.71,71.3Z"/><path d="M81.18,66a5.66,5.66,0,0,1-.09.89c-.07.47-.12.76-.14.88,0,.31-.08,1.34-.15,3.1-.06,1.6-.09,2.48-.09,2.65A6.27,6.27,0,0,0,81,75.8a.32.32,0,0,1-.27.17.56.56,0,0,1-.34-.15.61.61,0,0,1-.23-.3,7,7,0,0,0-.09-.92,2.38,2.38,0,0,1-1.7,1.13,1.74,1.74,0,0,1-1.5-.74,2.79,2.79,0,0,1-.45-1.66,8,8,0,0,1,.47-2.61Q77.49,69,78.48,69a1.44,1.44,0,0,1,.85.31c.06,0,.3.25.71.63a40.18,40.18,0,0,0,.15-4.48.38.38,0,0,1,.28-.11.72.72,0,0,1,.71.71Zm-1.13,5.55a2.36,2.36,0,0,0-.3-1.19,1.08,1.08,0,0,0-1-.63q-.75,0-1.2,1.53a7.35,7.35,0,0,0-.36,2.18,2.83,2.83,0,0,0,.21,1.14.91.91,0,0,0,.85.63q.93,0,1.41-1.44A6.71,6.71,0,0,0,80.05,71.56Z"/><path d="M89.94,66.29q0,.3-.45.3a.26.26,0,0,1-.14,0c0-.43-.32-.64-.84-.64s-.87.56-1.14,1.69a10.24,10.24,0,0,0-.27,2.27h.68c.37,0,.55.11.55.33a2.13,2.13,0,0,1,0,.3,1.62,1.62,0,0,1-.76.13,1.11,1.11,0,0,0-.48.06c0,.39,0,1.1,0,2.12V73.9a6.06,6.06,0,0,0,.18,1.45.39.39,0,0,1,0,.14q0,.36-.51.36c-.3,0-.45-.41-.45-1.22q0-3.3.06-3.9h-.76c-.23,0-.35-.11-.35-.33s.2-.43.6-.43h.54c0-.2,0-.46.06-.77q.23-4,2.24-4Q89.94,65.21,89.94,66.29Z"/><path d="M93.12,72.59a4.32,4.32,0,0,1-.57,2.25A2.09,2.09,0,0,1,90.67,76a2,2,0,0,1-1.81-1,3.82,3.82,0,0,1-.5-2.07,5.88,5.88,0,0,1,.57-2.5c.48-1,1.09-1.52,1.83-1.52a1.74,1.74,0,0,1,.81.33A3.58,3.58,0,0,1,93.12,72.59Zm-.72,0a5.47,5.47,0,0,0-.26-1.73c-.25-.71-.63-1.06-1.15-1.06s-1.07.39-1.41,1.18a5,5,0,0,0-.39,2,4.13,4.13,0,0,0,.27,1.59,1.27,1.27,0,0,0,1.21.88,1.48,1.48,0,0,0,1.37-1A4.33,4.33,0,0,0,92.4,72.58Z"/><path d="M97.2,70.21s0,.12,0,.25-.25.3-.37.3a.25.25,0,0,1-.21-.15c0-.63-.29-.94-.78-.94-.32,0-.64.59-.95,1.77a6.6,6.6,0,0,0-.18,1.72,10.48,10.48,0,0,0,.08,1.7l.07.19a.57.57,0,0,1,.06.21q0,.33-.45.33a.45.45,0,0,1-.51-.52.79.79,0,0,1,0-.22,1.31,1.31,0,0,0,0-.22c0-.55,0-1.37-.08-2.47s-.07-1.93-.07-2.48c0-.2,0-.32.1-.36a.79.79,0,0,1,.41-.07c.25,0,.39.09.43.27l0,.58c.26-.4.41-.62.45-.67a.94.94,0,0,1,.69-.38,1,1,0,0,1,.54.17,1.63,1.63,0,0,1,.41.46A1.2,1.2,0,0,1,97.2,70.21Z"/><path d="M44.47,80.57a.4.4,0,0,1-.11.26c-.08.08-.14.16-.2.23a.81.81,0,0,0-.09.46,3.11,3.11,0,0,1,0,.49,52,52,0,0,0-.38,6v1.43q.06,1.07.45,1.2v.15a.25.25,0,0,1-.25.16c-.63,0-1-.61-1.13-1.84a7.59,7.59,0,0,1,0-1.43l.39-4.84-1.11,4c-.68,2.12-1.34,3.18-2,3.18a1.27,1.27,0,0,1-.9-.56,3,3,0,0,1-.57-.93,25.19,25.19,0,0,1-1-3.28c-.24-1.12-.5-2.24-.76-3.35l-.09.23a32.43,32.43,0,0,0-.24,4l.15,3.44c0,.36.14.55.36.58,0,.27-.23.41-.72.41s-.67-.83-.67-2.48c0-.75,0-1.86.12-3.35s.12-2.6.12-3.35a1.25,1.25,0,0,0-.05-.38.66.66,0,0,1,0-.16c0-.39.4-.59,1.2-.59a.87.87,0,0,1,.54.32c0,.31.07.77.13,1.38a28.06,28.06,0,0,0,.89,3.84c.58,2.06,1.05,3.09,1.42,3.09s1-.94,1.55-2.82a34.58,34.58,0,0,0,.84-3.6c.13-.38.29-.92.49-1.62a.94.94,0,0,1,1-.68.82.82,0,0,1,.39.11A.31.31,0,0,1,44.47,80.57Z"/><path d="M50,87.59a4.32,4.32,0,0,1-.57,2.25A2.09,2.09,0,0,1,47.53,91a2,2,0,0,1-1.81-1,3.82,3.82,0,0,1-.5-2.07,5.88,5.88,0,0,1,.57-2.5c.48-1,1.09-1.52,1.83-1.52a1.74,1.74,0,0,1,.81.33A3.58,3.58,0,0,1,50,87.59Zm-.72,0A5.47,5.47,0,0,0,49,85.85c-.25-.71-.63-1.06-1.15-1.06s-1.07.39-1.41,1.18a5,5,0,0,0-.39,2,4.13,4.13,0,0,0,.27,1.59,1.27,1.27,0,0,0,1.21.88,1.48,1.48,0,0,0,1.37-1A4.33,4.33,0,0,0,49.26,87.58Z"/><path d="M53.25,85.82a1.45,1.45,0,0,1-.57.15,2.28,2.28,0,0,0-.57.11c0,.11,0,.66,0,1.66,0,.78,0,1.31,0,1.58a3,3,0,0,0,.08.52,2.89,2.89,0,0,1,.07.56.33.33,0,0,1-.15.24.45.45,0,0,1-.27.12c-.2,0-.36-.21-.48-.62a3.28,3.28,0,0,1-.12-.85V86.17c-.06,0-.28,0-.67,0s-.47-.08-.47-.35.41-.55,1.22-.52l.19-2.72a.38.38,0,0,0,0-.14.5.5,0,0,1,0-.14.21.21,0,0,1,.12-.17.38.38,0,0,1,.28-.07c.35,0,.53.2.53.52a9.19,9.19,0,0,1-.11,1.13,8.65,8.65,0,0,0-.1,1.11,1.87,1.87,0,0,0,0,.34l.82,0q.42,0,.42.33A.42.42,0,0,1,53.25,85.82Z"/><path d="M58,91a.64.64,0,0,1-.45.12.48.48,0,0,1-.34-.21v-2c0-2.54-.43-3.81-1.27-3.81a1,1,0,0,0-.9.63,2.27,2.27,0,0,0-.31,1.11.63.63,0,0,1,0,.19.82.82,0,0,0,0,.18V89a5,5,0,0,0,.07.74,5.31,5.31,0,0,1,.08.72q0,.24-.36.24a.51.51,0,0,1-.43-.24.82.82,0,0,1-.17-.5l.09-9.24a.57.57,0,0,1,0-.18q0-.27.3-.27a.92.92,0,0,1,.44.21c.19.13.29.25.29.34a5.78,5.78,0,0,1-.14,1,5.14,5.14,0,0,0-.14,1s0,.68,0,2a1.58,1.58,0,0,1,.85-.5,3.11,3.11,0,0,1,1.16.29c.87.36,1.3,1.31,1.3,2.85Z"/><path d="M63.25,89.06c0,.44-.29.84-.88,1.19a2.92,2.92,0,0,1-1.5.48q-2,0-2-2.55a8.1,8.1,0,0,1,.4-2.42q.54-1.68,1.38-1.68a2.58,2.58,0,0,1,1.58.73,2,2,0,0,1,.85,1.45,2.14,2.14,0,0,1-.75,1.62,2.43,2.43,0,0,1-1.69.69,1.24,1.24,0,0,1-.39-.15,1.09,1.09,0,0,0-.39-.15c-.13,0-.2,0-.2.12,0,1.15.38,1.72,1.14,1.72a1.71,1.71,0,0,0,1.08-.39,3.49,3.49,0,0,0,.66-.7c.19-.25.32-.38.38-.38C63.14,88.64,63.25,88.78,63.25,89.06Zm-1-2.76a1.76,1.76,0,0,0-.3-1,.93.93,0,0,0-.8-.46c-.4,0-.72.25-1,.75a2.91,2.91,0,0,0-.32,1.31,1,1,0,0,0,.28.73.94.94,0,0,0,.71.29,1.24,1.24,0,0,0,1-.53A1.76,1.76,0,0,0,62.22,86.3Z"/><path d="M67.26,85.21s0,.12,0,.25-.25.3-.37.3a.25.25,0,0,1-.21-.15c0-.63-.29-.94-.78-.94-.32,0-.64.59-.95,1.77a6.6,6.6,0,0,0-.18,1.72,10.48,10.48,0,0,0,.08,1.7l.07.19a.57.57,0,0,1,.06.21q0,.33-.45.33a.45.45,0,0,1-.51-.52.79.79,0,0,1,0-.22,1.31,1.31,0,0,0,0-.22c0-.55,0-1.37-.08-2.47s-.07-1.93-.07-2.48c0-.2,0-.32.1-.36a.79.79,0,0,1,.41-.07c.25,0,.39.09.43.27l0,.58c.26-.4.41-.62.45-.67a.94.94,0,0,1,.69-.38,1,1,0,0,1,.54.17,1.63,1.63,0,0,1,.41.46A1.2,1.2,0,0,1,67.26,85.21Z"/><path d="M69,80.51a.86.86,0,0,1-.1.19,1.11,1.11,0,0,0-.11.2,2.64,2.64,0,0,0-.09.81c0,.13,0,.33,0,.58s0,.45,0,.58c0,.38-.14.57-.43.57s-.3,0-.35-.15c0-1.15,0-1.79,0-1.91a4,4,0,0,1,.06-.6c.06-.31.13-.47.2-.49a.35.35,0,0,1,.16,0C68.78,80.26,69,80.34,69,80.51Z"/><path d="M74.28,89.68c0,.35-.27.64-.8.88a3.2,3.2,0,0,1-1.27.29,2.74,2.74,0,0,1-.93-.2,4.67,4.67,0,0,1-.92-.63c-.46-.37-.69-.63-.69-.77,0-.31.19-.46.56-.43h.09q0,.47,1,1a3,3,0,0,0,1.35.48q.66,0,.66-.45,0-.27-.81-.75a8.71,8.71,0,0,1-1.52-1,2.47,2.47,0,0,1-.82-1.83,3,3,0,0,1,.4-1.49,1.35,1.35,0,0,1,1.17-.84,2.41,2.41,0,0,1,1.23.47,1.8,1.8,0,0,1,.84,1,3.38,3.38,0,0,1,.12,1,4.37,4.37,0,0,1-.21,1.27.49.49,0,0,1-.31.11,1.25,1.25,0,0,1-.33-.08c-.15-.06-.23-.12-.23-.18s.06-.07.17-.33a2.45,2.45,0,0,0,.12-.93c0-1.07-.34-1.6-1-1.6-.35,0-.63.23-.84.71A2.65,2.65,0,0,0,71,86.38a1.91,1.91,0,0,0,.86,1.43,17.45,17.45,0,0,0,1.57,1C74,89.2,74.28,89.48,74.28,89.68Z"/><path d="M84.85,84.26a9.39,9.39,0,0,1-1,4.28Q82.6,91,80.55,91a2.23,2.23,0,0,1-1.41-.53q-.26.33-.33.33a.6.6,0,0,1-.33-.1,7.84,7.84,0,0,1-.21-2.25c0-.84,0-2.09,0-3.74s0-2.91,0-3.76v-.24q0-.33.36-.33a.74.74,0,0,1,.39.14.4.4,0,0,1,.21.31,1.23,1.23,0,0,1-.11.44,1.23,1.23,0,0,0-.1.43v.58a2.18,2.18,0,0,0,.52-.73,3.21,3.21,0,0,1,.7-.93,2.1,2.1,0,0,1,1.42-.48,2.65,2.65,0,0,1,2.43,1.33A5.3,5.3,0,0,1,84.85,84.26ZM84,84.19a5.74,5.74,0,0,0-.39-2.27,1.78,1.78,0,0,0-1.71-1.26,2.26,2.26,0,0,0-1.67,1,5.15,5.15,0,0,0-.94,1.81A7,7,0,0,0,79,85.37v3.11a2,2,0,0,0,.37,1.21,1.31,1.31,0,0,0,1.11.57A2.69,2.69,0,0,0,82.65,89a5.84,5.84,0,0,0,1.08-2.37A12.24,12.24,0,0,0,84,84.19Z"/><path d="M90.34,91q0,.21-.33.21a.39.39,0,0,1-.43-.3,4.31,4.31,0,0,1,0-.58.55.55,0,0,0,0-.24,3,3,0,0,1-1.82.61,2.49,2.49,0,0,1-1.3-.37,1.22,1.22,0,0,1-.72-1c0-.41.28-.81.85-1.2A2.59,2.59,0,0,1,88,87.52h1.49a.45.45,0,0,0,.09-.32,5.16,5.16,0,0,0-.17-1.51,1.06,1.06,0,0,0-1.06-.86,1.32,1.32,0,0,0-1,.72,2.31,2.31,0,0,0-.44,1.26V87a.11.11,0,0,1-.12.12.67.67,0,0,1-.51-.5,3,3,0,0,1,.26-1,3.18,3.18,0,0,1,.55-1,1.22,1.22,0,0,1,.93-.41,2.58,2.58,0,0,1,1.58.54,1.77,1.77,0,0,1,.78,1.41Zm-.79-2.38q0-.6-.93-.6a3.06,3.06,0,0,0-1.29.25,1.06,1.06,0,0,0-.71,1,.7.7,0,0,0,.38.63,1.4,1.4,0,0,0,.75.2A2,2,0,0,0,89,89.65,1.27,1.27,0,0,0,89.55,88.6Z"/><path d="M96,84.67q-.14.66-.24,1.32a7.07,7.07,0,0,0-.14,1.32V92A2.11,2.11,0,0,1,95,93.6a2.18,2.18,0,0,1-1.62.59,3.19,3.19,0,0,1-1.25-.3,2.2,2.2,0,0,1-1.09-.82A.56.56,0,0,1,91,92.8c0-.29.14-.44.42-.44a.41.41,0,0,1,.2.06l.51.53a1.84,1.84,0,0,0,1.29.46,1.32,1.32,0,0,0,1.32-.69,4.33,4.33,0,0,0,.19-1.57,5.71,5.71,0,0,0-.06-.6,2.54,2.54,0,0,1,0-.66,4.12,4.12,0,0,1-.6.49,1.32,1.32,0,0,1-.72.21A1.72,1.72,0,0,1,92,89.8,3.09,3.09,0,0,1,91.48,88q0-2,.06-3.42a.49.49,0,0,1,.53-.48c.38,0,.55.07.51.2a12.85,12.85,0,0,0-.29,3.49c0,1.4.4,2.1,1.19,2.1.49,0,.88-.37,1.17-1.12A4.71,4.71,0,0,0,95,87.05V85.34c0-.17,0-.38,0-.64s.18-.38.49-.36S96,84.48,96,84.67Z"/><path d="M98,90.23c0,.14-.1.26-.29.36a1,1,0,0,1-.46.12.64.64,0,0,1-.45-.18.56.56,0,0,1-.2-.42.46.46,0,0,1,.53-.51,1.07,1.07,0,0,1,.58.18A.51.51,0,0,1,98,90.23Z"/></g></g></g></svg>