<?xml version="1.0" encoding="utf-8"?>
<!-- Generator: Adobe Illustrator 22.0.1, SVG Export Plug-In . SVG Version: 6.00 Build 0)  -->
<svg version="1.1" id="Layer_1" xmlns="http://www.w3.org/2000/svg" xmlns:xlink="http://www.w3.org/1999/xlink" x="0px" y="0px"
	 viewBox="0 0 61 46.2" style="enable-background:new 0 0 61 46.2;" xml:space="preserve">
<style type="text/css">
	.st0{fill:#F6C59C;}
	.st1{fill:#D83C60;}
</style>
<title>arm</title>
<g id="Layer_2_1_">
	<g id="arm">
		<path class="st0" d="M38.9,28.7c3.9-0.4,7.7-0.6,11.6-0.4c0.8,0.1,1.4,0.7,1.3,1.5c0,0.4-0.2,0.7-0.5,1c-0.6,0.5-1.2,0.9-1.9,1.1
			c-0.8,0.2-1.2,1-0.9,1.8c0,0.1,0.1,0.2,0.1,0.3c1.2,2,6.1,0.7,10,3c2,0.9,2.8,3.2,1.9,5.2c-0.1,0.2-0.2,0.4-0.3,0.5
			c-1.3,2.5-14.6,7.8-21.7-2.9c-0.1-0.2-0.3-0.2-0.4-0.3L34,34.4c-0.5-0.6-0.4-1.5,0.2-2l3.9-3.4C38.3,28.9,38.6,28.8,38.9,28.7z"/>
		<path class="st1" d="M43.8,25.9c-8.6-3.4-17.8-8.1-19.6-12.2C4.8-5.9,7.4,1.2,0,1.3C0.4,4,1.5,6.6,3.3,8.7
			c6.4,8,20,27.8,27.5,34.5l5-6C39.5,34.4,43.2,34.2,43.8,25.9z"/>
	</g>
</g>
</svg>
