<svg xmlns="http://www.w3.org/2000/svg" xmlns:xlink="http://www.w3.org/1999/xlink" viewBox="0 0 435.81 123.78"><defs><style>.cls-1{fill:url(#linear-gradient);}.cls-2{fill:url(#linear-gradient-2);}.cls-3{fill:#f8cdbc;}.cls-4{fill:url(#linear-gradient-3);}.cls-5{fill:url(#New_Gradient_Swatch_2);}.cls-6{fill:url(#linear-gradient-4);}.cls-7{fill:url(#linear-gradient-5);}.cls-8{fill:#5c5401;}.cls-9{fill:#a37b02;}.cls-10{fill:#b59535;}.cls-11{fill:url(#linear-gradient-6);}.cls-12{fill:url(#linear-gradient-7);}.cls-13{fill:url(#linear-gradient-8);}.cls-14{fill:url(#linear-gradient-9);}.cls-15{fill:url(#linear-gradient-10);}.cls-16{fill:url(#linear-gradient-11);}.cls-17{fill:url(#linear-gradient-12);}.cls-18{fill:url(#linear-gradient-13);}.cls-19{fill:url(#linear-gradient-14);}.cls-20{fill:#dfa118;}.cls-21{fill:url(#linear-gradient-15);}.cls-22{fill:url(#linear-gradient-16);}.cls-23{fill:url(#linear-gradient-17);}.cls-24{fill:url(#linear-gradient-18);}.cls-25{fill:url(#linear-gradient-19);}.cls-26{fill:url(#linear-gradient-20);}.cls-27{fill:url(#linear-gradient-21);}.cls-28{fill:url(#linear-gradient-22);}.cls-29{fill:url(#linear-gradient-23);}.cls-30{fill:url(#linear-gradient-24);}.cls-31{fill:url(#linear-gradient-25);}.cls-32{fill:url(#linear-gradient-26);}.cls-33{fill:url(#linear-gradient-27);}.cls-34{fill:url(#linear-gradient-28);}.cls-35{fill:url(#linear-gradient-29);}.cls-36{fill:url(#linear-gradient-30);}.cls-37{fill:url(#linear-gradient-31);}.cls-38{fill:url(#linear-gradient-32);}.cls-39{fill:url(#linear-gradient-33);}.cls-40{fill:url(#linear-gradient-34);}.cls-41{fill:url(#linear-gradient-35);}.cls-42{fill:url(#New_Gradient_Swatch_2-2);}.cls-43{fill:url(#linear-gradient-36);}.cls-44{fill:url(#linear-gradient-37);}.cls-45{fill:url(#linear-gradient-38);}.cls-46{fill:url(#linear-gradient-39);}.cls-47{fill:url(#linear-gradient-40);}.cls-48{fill:url(#linear-gradient-41);}.cls-49{fill:url(#linear-gradient-42);}.cls-50{fill:url(#linear-gradient-43);}.cls-51{fill:url(#linear-gradient-44);}.cls-52{fill:url(#linear-gradient-45);}.cls-53{fill:url(#linear-gradient-46);}.cls-54{fill:url(#linear-gradient-47);}.cls-55{fill:url(#linear-gradient-48);}.cls-56{fill:url(#linear-gradient-49);}.cls-57{fill:url(#linear-gradient-50);}.cls-58{fill:url(#linear-gradient-51);}.cls-59{fill:url(#linear-gradient-52);}.cls-60{fill:url(#linear-gradient-53);}.cls-61{fill:url(#linear-gradient-54);}.cls-62{fill:url(#linear-gradient-55);}.cls-63{fill:url(#linear-gradient-56);}.cls-64{fill:url(#linear-gradient-57);}.cls-65{fill:url(#linear-gradient-58);}.cls-66{fill:url(#New_Gradient_Swatch_2-3);}.cls-67{fill:url(#linear-gradient-59);}.cls-68{fill:url(#linear-gradient-60);}.cls-69{fill:url(#linear-gradient-61);}.cls-70{fill:url(#linear-gradient-62);}.cls-71{fill:url(#linear-gradient-63);}.cls-72{fill:url(#linear-gradient-64);}.cls-73{fill:url(#linear-gradient-65);}.cls-74{fill:url(#linear-gradient-66);}.cls-75{fill:url(#linear-gradient-67);}.cls-76{fill:url(#linear-gradient-68);}.cls-77{fill:url(#linear-gradient-69);}.cls-78{fill:url(#linear-gradient-70);}.cls-79{fill:url(#linear-gradient-71);}.cls-80{fill:url(#linear-gradient-72);}.cls-81{fill:url(#linear-gradient-73);}.cls-82{fill:url(#linear-gradient-74);}.cls-83{fill:url(#linear-gradient-75);}.cls-84{fill:url(#linear-gradient-76);}.cls-85{fill:url(#linear-gradient-77);}.cls-86{fill:url(#linear-gradient-78);}.cls-87{fill:url(#linear-gradient-79);}.cls-88{fill:url(#linear-gradient-80);}.cls-89{fill:url(#linear-gradient-81);}.cls-90{fill:url(#linear-gradient-82);}.cls-91{fill:url(#linear-gradient-83);}.cls-92{fill:url(#linear-gradient-84);}.cls-93{fill:url(#linear-gradient-85);}.cls-94{fill:url(#linear-gradient-86);}.cls-95{fill:url(#linear-gradient-87);}.cls-96{fill:url(#linear-gradient-88);}.cls-97{fill:url(#linear-gradient-89);}.cls-98{fill:url(#linear-gradient-90);}.cls-99{fill:url(#New_Gradient_Swatch_2-4);}.cls-100{fill:url(#linear-gradient-91);}.cls-101{fill:url(#linear-gradient-92);}.cls-102{fill:url(#linear-gradient-93);}.cls-103{fill:url(#linear-gradient-94);}.cls-104{fill:url(#linear-gradient-95);}.cls-105{fill:url(#linear-gradient-96);}.cls-106{fill:url(#linear-gradient-97);}.cls-107{fill:url(#linear-gradient-98);}.cls-108{fill:url(#linear-gradient-99);}.cls-109{fill:url(#linear-gradient-100);}.cls-110{fill:url(#linear-gradient-101);}.cls-111{fill:url(#linear-gradient-102);}.cls-112{fill:url(#linear-gradient-103);}.cls-113{fill:url(#linear-gradient-104);}.cls-114{fill:url(#linear-gradient-105);}.cls-115{fill:url(#linear-gradient-106);}.cls-116{fill:url(#linear-gradient-107);}.cls-117{fill:url(#linear-gradient-108);}.cls-118{fill:url(#linear-gradient-109);}.cls-119{fill:url(#linear-gradient-110);}.cls-120{fill:url(#linear-gradient-111);}.cls-121{fill:url(#linear-gradient-112);}.cls-122{fill:url(#linear-gradient-113);}.cls-123{fill:url(#New_Gradient_Swatch_2-5);}.cls-124{fill:url(#linear-gradient-114);}.cls-125{fill:url(#linear-gradient-115);}.cls-126{fill:url(#linear-gradient-116);}.cls-127{fill:url(#linear-gradient-117);}.cls-128{fill:url(#linear-gradient-118);}.cls-129{fill:url(#linear-gradient-119);}.cls-130{fill:url(#linear-gradient-120);}.cls-131{fill:url(#linear-gradient-121);}.cls-132{fill:url(#linear-gradient-122);}.cls-133{fill:url(#linear-gradient-123);}.cls-134{fill:url(#linear-gradient-124);}.cls-135{fill:url(#linear-gradient-125);}.cls-136{fill:url(#linear-gradient-126);}.cls-137{fill:url(#linear-gradient-127);}.cls-138{fill:url(#linear-gradient-128);}.cls-139{fill:url(#linear-gradient-129);}.cls-140{fill:url(#linear-gradient-130);}.cls-141{fill:url(#linear-gradient-131);}.cls-142{fill:url(#linear-gradient-132);}.cls-143{fill:url(#linear-gradient-133);}.cls-144{fill:url(#linear-gradient-134);}.cls-145{fill:url(#linear-gradient-135);}.cls-146{fill:url(#linear-gradient-136);}.cls-147{fill:url(#New_Gradient_Swatch_2-6);}.cls-148{fill:url(#linear-gradient-137);}.cls-149{fill:url(#linear-gradient-138);}.cls-150{fill:url(#linear-gradient-139);}.cls-151{fill:url(#linear-gradient-140);}.cls-152{fill:url(#linear-gradient-141);}.cls-153{fill:url(#linear-gradient-142);}.cls-154{fill:url(#linear-gradient-143);}.cls-155{fill:url(#linear-gradient-144);}.cls-156{fill:url(#linear-gradient-145);}.cls-157{fill:url(#linear-gradient-146);}.cls-158{fill:url(#linear-gradient-147);}.cls-159{fill:url(#linear-gradient-148);}.cls-160{fill:url(#linear-gradient-149);}.cls-161{fill:url(#linear-gradient-150);}.cls-162{fill:url(#linear-gradient-151);}.cls-163{fill:url(#linear-gradient-152);}.cls-164{fill:url(#linear-gradient-153);}.cls-165{fill:url(#linear-gradient-154);}.cls-166{fill:url(#linear-gradient-155);}.cls-167{fill:url(#linear-gradient-156);}</style><linearGradient id="linear-gradient" x1="79.63" y1="64.1" x2="84.96" y2="54.88" gradientUnits="userSpaceOnUse"><stop offset="0.01" stop-color="#9e005d"/><stop offset="0.43" stop-color="#e586a3"/><stop offset="0.59" stop-color="#e78ca4"/><stop offset="0.81" stop-color="#ed9ca6"/><stop offset="1" stop-color="#f5b1a9"/></linearGradient><linearGradient id="linear-gradient-2" x1="81.45" y1="67.41" x2="87.44" y2="57.03" gradientUnits="userSpaceOnUse"><stop offset="0.03" stop-color="#9e005d"/><stop offset="0.17" stop-color="#a0045f"/><stop offset="0.3" stop-color="#a60f65"/><stop offset="0.42" stop-color="#b0216e"/><stop offset="0.54" stop-color="#bd3b7c"/><stop offset="0.66" stop-color="#cf5d8d"/><stop offset="0.77" stop-color="#e585a3"/><stop offset="0.77" stop-color="#e586a3"/><stop offset="0.84" stop-color="#e68aa4"/><stop offset="0.91" stop-color="#eb95a5"/><stop offset="0.98" stop-color="#f2a8a8"/><stop offset="1" stop-color="#f5b1a9"/></linearGradient><linearGradient id="linear-gradient-3" x1="75.43" y1="64.99" x2="78.47" y2="53.63" gradientUnits="userSpaceOnUse"><stop offset="0" stop-color="#9e005d"/><stop offset="0.11" stop-color="#a20861"/><stop offset="0.27" stop-color="#ae1f6d"/><stop offset="0.48" stop-color="#c24380"/><stop offset="0.72" stop-color="#dc769a"/><stop offset="0.79" stop-color="#e586a3"/><stop offset="0.85" stop-color="#e78ca4"/><stop offset="0.93" stop-color="#ee9da6"/><stop offset="1" stop-color="#f5b1a9"/></linearGradient><linearGradient id="New_Gradient_Swatch_2" x1="79.2" y1="74.05" x2="79.2" y2="56.73" gradientUnits="userSpaceOnUse"><stop offset="0" stop-color="#9e005d"/><stop offset="0.65" stop-color="#e586a3"/><stop offset="0.74" stop-color="#eb9cab"/><stop offset="0.91" stop-color="#f4bfb7"/><stop offset="1" stop-color="#f8cdbc"/></linearGradient><linearGradient id="linear-gradient-4" x1="-1565.24" y1="68.84" x2="-1558.77" y2="63.41" gradientTransform="matrix(-1, 0, 0, 1, -1477.32, 0)" gradientUnits="userSpaceOnUse"><stop offset="0" stop-color="#9e005d"/><stop offset="0.71" stop-color="#e586a3"/><stop offset="0.79" stop-color="#e995a8"/><stop offset="0.94" stop-color="#f4bdb6"/><stop offset="0.99" stop-color="#f8cdbc"/></linearGradient><linearGradient id="linear-gradient-5" x1="72.07" y1="68.59" x2="78.36" y2="63.31" gradientUnits="userSpaceOnUse"><stop offset="0" stop-color="#9e005d"/><stop offset="0.13" stop-color="#a71166"/><stop offset="0.39" stop-color="#bf3d7d"/><stop offset="0.74" stop-color="#e484a2"/><stop offset="0.75" stop-color="#e586a3"/><stop offset="0.77" stop-color="#e995a8"/><stop offset="0.82" stop-color="#f0aeb1"/><stop offset="0.88" stop-color="#f4bfb7"/><stop offset="0.93" stop-color="#f7cabb"/><stop offset="1" stop-color="#f8cdbc"/></linearGradient><linearGradient id="linear-gradient-6" x1="53.94" y1="28.37" x2="59.27" y2="19.15" gradientUnits="userSpaceOnUse"><stop offset="0" stop-color="#7c8bc6"/><stop offset="0.65" stop-color="#cadbea"/><stop offset="0.65" stop-color="#cbdbea"/><stop offset="0.88" stop-color="#eee7e7"/><stop offset="1" stop-color="#fcece6"/></linearGradient><linearGradient id="linear-gradient-7" x1="55.76" y1="31.68" x2="61.75" y2="21.3" xlink:href="#linear-gradient-6"/><linearGradient id="linear-gradient-8" x1="57.5" y1="23.22" x2="63.26" y2="23.22" xlink:href="#linear-gradient-6"/><linearGradient id="linear-gradient-9" x1="53.97" y1="19.83" x2="60.51" y2="19.83" xlink:href="#linear-gradient-6"/><linearGradient id="linear-gradient-10" x1="49.73" y1="29.27" x2="52.78" y2="17.9" xlink:href="#linear-gradient-6"/><linearGradient id="linear-gradient-11" x1="47.07" y1="22.11" x2="53.41" y2="22.11" xlink:href="#linear-gradient-6"/><linearGradient id="linear-gradient-12" x1="53.5" y1="38.32" x2="53.5" y2="21.01" xlink:href="#linear-gradient-6"/><linearGradient id="linear-gradient-13" x1="-1539.55" y1="33.12" x2="-1533.08" y2="27.69" gradientTransform="matrix(-1, 0, 0, 1, -1477.32, 0)" xlink:href="#linear-gradient-6"/><linearGradient id="linear-gradient-14" x1="46.38" y1="32.87" x2="52.67" y2="27.58" xlink:href="#linear-gradient-6"/><linearGradient id="linear-gradient-15" x1="124.37" y1="66.24" x2="129.69" y2="57.01" gradientUnits="userSpaceOnUse"><stop offset="0" stop-color="#885691"/><stop offset="0.65" stop-color="#b477a5"/><stop offset="0.78" stop-color="#d19caf"/><stop offset="0.92" stop-color="#edbfb8"/><stop offset="1" stop-color="#f8cdbc"/></linearGradient><linearGradient id="linear-gradient-16" x1="126.18" y1="69.55" x2="132.18" y2="59.17" xlink:href="#linear-gradient-15"/><linearGradient id="linear-gradient-17" x1="127.93" y1="61.08" x2="133.69" y2="61.08" xlink:href="#linear-gradient-15"/><linearGradient id="linear-gradient-18" x1="124.4" y1="57.7" x2="130.93" y2="57.7" xlink:href="#linear-gradient-15"/><linearGradient id="linear-gradient-19" x1="120.16" y1="67.13" x2="123.2" y2="55.77" xlink:href="#linear-gradient-15"/><linearGradient id="linear-gradient-20" x1="117.49" y1="59.98" x2="123.84" y2="59.98" xlink:href="#linear-gradient-15"/><linearGradient id="linear-gradient-21" x1="123.93" y1="76.19" x2="123.93" y2="58.87" xlink:href="#linear-gradient-15"/><linearGradient id="linear-gradient-22" x1="-1609.97" y1="70.98" x2="-1603.5" y2="65.55" gradientTransform="matrix(-1, 0, 0, 1, -1477.32, 0)" xlink:href="#linear-gradient-15"/><linearGradient id="linear-gradient-23" x1="116.8" y1="70.73" x2="123.1" y2="65.45" xlink:href="#linear-gradient-15"/><linearGradient id="linear-gradient-24" x1="8.37" y1="49.24" x2="13.69" y2="40.01" xlink:href="#linear-gradient-15"/><linearGradient id="linear-gradient-25" x1="10.18" y1="52.55" x2="16.18" y2="42.17" xlink:href="#linear-gradient-15"/><linearGradient id="linear-gradient-26" x1="11.93" y1="44.08" x2="17.69" y2="44.08" xlink:href="#linear-gradient-15"/><linearGradient id="linear-gradient-27" x1="8.4" y1="40.7" x2="14.93" y2="40.7" xlink:href="#linear-gradient-15"/><linearGradient id="linear-gradient-28" x1="4.16" y1="50.13" x2="7.2" y2="38.77" xlink:href="#linear-gradient-15"/><linearGradient id="linear-gradient-29" x1="1.49" y1="42.98" x2="7.84" y2="42.98" xlink:href="#linear-gradient-15"/><linearGradient id="linear-gradient-30" x1="7.93" y1="59.19" x2="7.93" y2="41.87" xlink:href="#linear-gradient-15"/><linearGradient id="linear-gradient-31" x1="-1493.97" y1="53.98" x2="-1487.5" y2="48.55" gradientTransform="matrix(-1, 0, 0, 1, -1477.32, 0)" xlink:href="#linear-gradient-15"/><linearGradient id="linear-gradient-32" x1="0.8" y1="53.73" x2="7.1" y2="48.45" xlink:href="#linear-gradient-15"/><linearGradient id="linear-gradient-33" x1="330.24" y1="52.95" x2="335.16" y2="44.43" xlink:href="#linear-gradient"/><linearGradient id="linear-gradient-34" x1="331.92" y1="56.01" x2="337.46" y2="46.42" xlink:href="#linear-gradient-2"/><linearGradient id="linear-gradient-35" x1="326.35" y1="53.78" x2="329.17" y2="43.28" xlink:href="#linear-gradient-3"/><linearGradient id="New_Gradient_Swatch_2-2" x1="329.84" y1="62.15" x2="329.84" y2="46.15" xlink:href="#New_Gradient_Swatch_2"/><linearGradient id="linear-gradient-36" x1="-1815.22" y1="57.34" x2="-1809.24" y2="52.32" xlink:href="#linear-gradient-4"/><linearGradient id="linear-gradient-37" x1="323.25" y1="57.11" x2="329.07" y2="52.22" xlink:href="#linear-gradient-5"/><linearGradient id="linear-gradient-38" x1="303.78" y1="20.03" x2="308.72" y2="11.47" xlink:href="#linear-gradient-6"/><linearGradient id="linear-gradient-39" x1="305.46" y1="23.1" x2="311.02" y2="13.47" xlink:href="#linear-gradient-6"/><linearGradient id="linear-gradient-40" x1="307.08" y1="15.24" x2="312.42" y2="15.24" xlink:href="#linear-gradient-6"/><linearGradient id="linear-gradient-41" x1="303.81" y1="12.1" x2="309.87" y2="12.1" xlink:href="#linear-gradient-6"/><linearGradient id="linear-gradient-42" x1="299.87" y1="20.86" x2="302.7" y2="10.31" xlink:href="#linear-gradient-6"/><linearGradient id="linear-gradient-43" x1="297.4" y1="14.22" x2="303.29" y2="14.22" xlink:href="#linear-gradient-6"/><linearGradient id="linear-gradient-44" x1="303.37" y1="29.26" x2="303.37" y2="13.19" xlink:href="#linear-gradient-6"/><linearGradient id="linear-gradient-45" x1="-1788.78" y1="24.43" x2="-1782.78" y2="19.39" gradientTransform="matrix(-1, 0, 0, 1, -1477.32, 0)" xlink:href="#linear-gradient-6"/><linearGradient id="linear-gradient-46" x1="296.76" y1="24.19" x2="302.6" y2="19.29" xlink:href="#linear-gradient-6"/><linearGradient id="linear-gradient-47" x1="352.86" y1="20.92" x2="358.3" y2="11.5" xlink:href="#linear-gradient-15"/><linearGradient id="linear-gradient-48" x1="354.72" y1="24.3" x2="360.84" y2="13.7" xlink:href="#linear-gradient-15"/><linearGradient id="linear-gradient-49" x1="356.5" y1="15.65" x2="362.39" y2="15.65" xlink:href="#linear-gradient-15"/><linearGradient id="linear-gradient-50" x1="352.9" y1="12.19" x2="359.57" y2="12.19" xlink:href="#linear-gradient-15"/><linearGradient id="linear-gradient-51" x1="348.57" y1="21.83" x2="351.68" y2="10.22" xlink:href="#linear-gradient-15"/><linearGradient id="linear-gradient-52" x1="345.84" y1="14.52" x2="352.32" y2="14.52" xlink:href="#linear-gradient-15"/><linearGradient id="linear-gradient-53" x1="352.42" y1="31.08" x2="352.42" y2="13.39" xlink:href="#linear-gradient-15"/><linearGradient id="linear-gradient-54" x1="-1838.65" y1="25.76" x2="-1832.04" y2="20.22" gradientTransform="matrix(-1, 0, 0, 1, -1477.32, 0)" xlink:href="#linear-gradient-15"/><linearGradient id="linear-gradient-55" x1="345.13" y1="25.51" x2="351.57" y2="20.11" xlink:href="#linear-gradient-15"/><linearGradient id="linear-gradient-56" x1="195.69" y1="78.65" x2="201.02" y2="69.43" xlink:href="#linear-gradient"/><linearGradient id="linear-gradient-57" x1="197.51" y1="81.96" x2="203.5" y2="71.58" xlink:href="#linear-gradient-2"/><linearGradient id="linear-gradient-58" x1="191.49" y1="79.55" x2="194.53" y2="68.18" xlink:href="#linear-gradient-3"/><linearGradient id="New_Gradient_Swatch_2-3" x1="195.26" y1="88.6" x2="195.26" y2="71.28" xlink:href="#New_Gradient_Swatch_2"/><linearGradient id="linear-gradient-59" x1="-1681.3" y1="83.39" x2="-1674.83" y2="77.97" xlink:href="#linear-gradient-4"/><linearGradient id="linear-gradient-60" x1="188.13" y1="83.14" x2="194.42" y2="77.86" xlink:href="#linear-gradient-5"/><linearGradient id="linear-gradient-61" x1="253" y1="74.93" x2="258.33" y2="65.7" xlink:href="#linear-gradient-6"/><linearGradient id="linear-gradient-62" x1="254.82" y1="78.24" x2="260.81" y2="67.86" xlink:href="#linear-gradient-6"/><linearGradient id="linear-gradient-63" x1="256.56" y1="69.77" x2="262.32" y2="69.77" xlink:href="#linear-gradient-6"/><linearGradient id="linear-gradient-64" x1="253.03" y1="66.39" x2="259.57" y2="66.39" xlink:href="#linear-gradient-6"/><linearGradient id="linear-gradient-65" x1="248.8" y1="75.82" x2="251.84" y2="64.46" xlink:href="#linear-gradient-6"/><linearGradient id="linear-gradient-66" x1="246.13" y1="68.67" x2="252.47" y2="68.67" xlink:href="#linear-gradient-6"/><linearGradient id="linear-gradient-67" x1="252.57" y1="84.88" x2="252.57" y2="67.56" xlink:href="#linear-gradient-6"/><linearGradient id="linear-gradient-68" x1="-1738.61" y1="79.67" x2="-1732.14" y2="74.24" gradientTransform="matrix(-1, 0, 0, 1, -1477.32, 0)" xlink:href="#linear-gradient-6"/><linearGradient id="linear-gradient-69" x1="245.44" y1="79.42" x2="251.73" y2="74.14" xlink:href="#linear-gradient-6"/><linearGradient id="linear-gradient-70" x1="160" y1="83.93" x2="165.33" y2="74.7" xlink:href="#linear-gradient-6"/><linearGradient id="linear-gradient-71" x1="161.82" y1="87.24" x2="167.81" y2="76.86" xlink:href="#linear-gradient-6"/><linearGradient id="linear-gradient-72" x1="163.56" y1="78.77" x2="169.32" y2="78.77" xlink:href="#linear-gradient-6"/><linearGradient id="linear-gradient-73" x1="160.03" y1="75.39" x2="166.57" y2="75.39" xlink:href="#linear-gradient-6"/><linearGradient id="linear-gradient-74" x1="155.8" y1="84.82" x2="158.84" y2="73.46" xlink:href="#linear-gradient-6"/><linearGradient id="linear-gradient-75" x1="153.13" y1="77.67" x2="159.47" y2="77.67" xlink:href="#linear-gradient-6"/><linearGradient id="linear-gradient-76" x1="159.57" y1="93.88" x2="159.57" y2="76.56" xlink:href="#linear-gradient-6"/><linearGradient id="linear-gradient-77" x1="-1645.61" y1="88.67" x2="-1639.14" y2="83.24" gradientTransform="matrix(-1, 0, 0, 1, -1477.32, 0)" xlink:href="#linear-gradient-6"/><linearGradient id="linear-gradient-78" x1="152.44" y1="88.42" x2="158.73" y2="83.14" xlink:href="#linear-gradient-6"/><linearGradient id="linear-gradient-79" x1="94.43" y1="14.79" x2="99.75" y2="5.57" xlink:href="#linear-gradient-15"/><linearGradient id="linear-gradient-80" x1="96.24" y1="18.1" x2="102.24" y2="7.72" xlink:href="#linear-gradient-15"/><linearGradient id="linear-gradient-81" x1="97.99" y1="9.63" x2="103.75" y2="9.63" xlink:href="#linear-gradient-15"/><linearGradient id="linear-gradient-82" x1="94.46" y1="6.25" x2="100.99" y2="6.25" xlink:href="#linear-gradient-15"/><linearGradient id="linear-gradient-83" x1="90.22" y1="15.68" x2="93.27" y2="4.32" xlink:href="#linear-gradient-15"/><linearGradient id="linear-gradient-84" x1="87.55" y1="8.53" x2="93.9" y2="8.53" xlink:href="#linear-gradient-15"/><linearGradient id="linear-gradient-85" x1="93.99" y1="24.74" x2="93.99" y2="7.42" xlink:href="#linear-gradient-15"/><linearGradient id="linear-gradient-86" x1="-1580.03" y1="19.53" x2="-1573.56" y2="14.1" gradientTransform="matrix(-1, 0, 0, 1, -1477.32, 0)" xlink:href="#linear-gradient-15"/><linearGradient id="linear-gradient-87" x1="86.86" y1="19.28" x2="93.16" y2="14" xlink:href="#linear-gradient-15"/><linearGradient id="linear-gradient-88" x1="221.65" y1="38.38" x2="226.8" y2="29.47" xlink:href="#linear-gradient"/><linearGradient id="linear-gradient-89" x1="223.41" y1="41.58" x2="229.2" y2="31.55" xlink:href="#linear-gradient-2"/><linearGradient id="linear-gradient-90" x1="217.59" y1="39.25" x2="220.53" y2="28.26" xlink:href="#linear-gradient-3"/><linearGradient id="New_Gradient_Swatch_2-4" x1="221.23" y1="48" x2="221.23" y2="31.26" xlink:href="#New_Gradient_Swatch_2"/><linearGradient id="linear-gradient-91" x1="-1706.98" y1="42.96" x2="-1700.73" y2="37.72" xlink:href="#linear-gradient-4"/><linearGradient id="linear-gradient-92" x1="214.34" y1="42.72" x2="220.43" y2="37.62" xlink:href="#linear-gradient-5"/><linearGradient id="linear-gradient-93" x1="250.4" y1="16.31" x2="255.55" y2="7.4" xlink:href="#linear-gradient-6"/><linearGradient id="linear-gradient-94" x1="252.16" y1="19.51" x2="257.95" y2="9.48" xlink:href="#linear-gradient-6"/><linearGradient id="linear-gradient-95" x1="253.84" y1="11.33" x2="259.41" y2="11.33" xlink:href="#linear-gradient-6"/><linearGradient id="linear-gradient-96" x1="250.43" y1="8.06" x2="256.74" y2="8.06" xlink:href="#linear-gradient-6"/><linearGradient id="linear-gradient-97" x1="246.34" y1="17.18" x2="249.28" y2="6.19" xlink:href="#linear-gradient-6"/><linearGradient id="linear-gradient-98" x1="243.76" y1="10.26" x2="249.89" y2="10.26" xlink:href="#linear-gradient-6"/><linearGradient id="linear-gradient-99" x1="249.98" y1="25.93" x2="249.98" y2="9.19" xlink:href="#linear-gradient-6"/><linearGradient id="linear-gradient-100" x1="-1735.73" y1="20.89" x2="-1729.48" y2="15.65" gradientTransform="matrix(-1, 0, 0, 1, -1477.32, 0)" xlink:href="#linear-gradient-6"/><linearGradient id="linear-gradient-101" x1="243.09" y1="20.65" x2="249.18" y2="15.55" xlink:href="#linear-gradient-6"/><linearGradient id="linear-gradient-102" x1="279.62" y1="36.35" x2="284.77" y2="27.43" xlink:href="#linear-gradient-15"/><linearGradient id="linear-gradient-103" x1="281.37" y1="39.54" x2="287.17" y2="29.51" xlink:href="#linear-gradient-15"/><linearGradient id="linear-gradient-104" x1="283.06" y1="31.36" x2="288.63" y2="31.36" xlink:href="#linear-gradient-15"/><linearGradient id="linear-gradient-105" x1="279.65" y1="28.09" x2="285.96" y2="28.09" xlink:href="#linear-gradient-15"/><linearGradient id="linear-gradient-106" x1="275.55" y1="37.21" x2="278.5" y2="26.23" xlink:href="#linear-gradient-15"/><linearGradient id="linear-gradient-107" x1="272.98" y1="30.3" x2="279.11" y2="30.3" xlink:href="#linear-gradient-15"/><linearGradient id="linear-gradient-108" x1="279.2" y1="45.96" x2="279.2" y2="29.23" xlink:href="#linear-gradient-15"/><linearGradient id="linear-gradient-109" x1="-1764.95" y1="40.93" x2="-1758.69" y2="35.68" gradientTransform="matrix(-1, 0, 0, 1, -1477.32, 0)" xlink:href="#linear-gradient-15"/><linearGradient id="linear-gradient-110" x1="272.31" y1="40.69" x2="278.39" y2="35.58" xlink:href="#linear-gradient-15"/><linearGradient id="linear-gradient-111" x1="140.23" y1="15.43" x2="145.38" y2="6.51" xlink:href="#linear-gradient"/><linearGradient id="linear-gradient-112" x1="141.98" y1="18.62" x2="147.78" y2="8.59" xlink:href="#linear-gradient-2"/><linearGradient id="linear-gradient-113" x1="136.16" y1="16.29" x2="139.11" y2="5.31" xlink:href="#linear-gradient-3"/><linearGradient id="New_Gradient_Swatch_2-5" x1="139.81" y1="25.04" x2="139.81" y2="8.31" xlink:href="#New_Gradient_Swatch_2"/><linearGradient id="linear-gradient-114" x1="-1625.56" y1="20.01" x2="-1619.3" y2="14.76" xlink:href="#linear-gradient-4"/><linearGradient id="linear-gradient-115" x1="132.92" y1="19.77" x2="139" y2="14.66" xlink:href="#linear-gradient-5"/><linearGradient id="linear-gradient-116" x1="196.98" y1="10.36" x2="202.12" y2="1.44" xlink:href="#linear-gradient-6"/><linearGradient id="linear-gradient-117" x1="198.73" y1="13.55" x2="204.52" y2="3.52" xlink:href="#linear-gradient-6"/><linearGradient id="linear-gradient-118" x1="200.42" y1="5.37" x2="205.99" y2="5.37" xlink:href="#linear-gradient-6"/><linearGradient id="linear-gradient-119" x1="197.01" y1="2.1" x2="203.32" y2="2.1" xlink:href="#linear-gradient-6"/><linearGradient id="linear-gradient-120" x1="192.91" y1="11.22" x2="195.85" y2="0.24" xlink:href="#linear-gradient-6"/><linearGradient id="linear-gradient-121" x1="190.34" y1="4.31" x2="196.47" y2="4.31" xlink:href="#linear-gradient-6"/><linearGradient id="linear-gradient-122" x1="196.56" y1="19.97" x2="196.56" y2="3.24" xlink:href="#linear-gradient-6"/><linearGradient id="linear-gradient-123" x1="-1682.3" y1="14.94" x2="-1676.05" y2="9.69" gradientTransform="matrix(-1, 0, 0, 1, -1477.32, 0)" xlink:href="#linear-gradient-6"/><linearGradient id="linear-gradient-124" x1="189.67" y1="14.7" x2="195.75" y2="9.59" xlink:href="#linear-gradient-6"/><linearGradient id="linear-gradient-125" x1="169.2" y1="27.39" x2="174.34" y2="18.48" xlink:href="#linear-gradient-15"/><linearGradient id="linear-gradient-126" x1="170.95" y1="30.59" x2="176.74" y2="20.56" xlink:href="#linear-gradient-15"/><linearGradient id="linear-gradient-127" x1="172.64" y1="22.41" x2="178.21" y2="22.41" xlink:href="#linear-gradient-15"/><linearGradient id="linear-gradient-128" x1="169.23" y1="19.14" x2="175.54" y2="19.14" xlink:href="#linear-gradient-15"/><linearGradient id="linear-gradient-129" x1="165.13" y1="28.26" x2="168.07" y2="17.27" xlink:href="#linear-gradient-15"/><linearGradient id="linear-gradient-130" x1="162.56" y1="21.34" x2="168.69" y2="21.34" xlink:href="#linear-gradient-15"/><linearGradient id="linear-gradient-131" x1="168.77" y1="37.01" x2="168.77" y2="20.27" xlink:href="#linear-gradient-15"/><linearGradient id="linear-gradient-132" x1="-1654.52" y1="31.97" x2="-1648.27" y2="26.73" gradientTransform="matrix(-1, 0, 0, 1, -1477.32, 0)" xlink:href="#linear-gradient-15"/><linearGradient id="linear-gradient-133" x1="161.89" y1="31.73" x2="167.97" y2="26.63" xlink:href="#linear-gradient-15"/><linearGradient id="linear-gradient-134" x1="377.36" y1="48.16" x2="382.53" y2="39.2" xlink:href="#linear-gradient"/><linearGradient id="linear-gradient-135" x1="379.12" y1="51.37" x2="384.94" y2="41.29" xlink:href="#linear-gradient-2"/><linearGradient id="linear-gradient-136" x1="373.27" y1="49.03" x2="376.23" y2="37.98" xlink:href="#linear-gradient-3"/><linearGradient id="New_Gradient_Swatch_2-6" x1="376.93" y1="57.83" x2="376.93" y2="41" xlink:href="#New_Gradient_Swatch_2"/><linearGradient id="linear-gradient-137" x1="-1862.72" y1="52.77" x2="-1856.44" y2="47.49" xlink:href="#linear-gradient-4"/><linearGradient id="linear-gradient-138" x1="370" y1="52.52" x2="376.12" y2="47.39" xlink:href="#linear-gradient-5"/><linearGradient id="linear-gradient-139" x1="426.35" y1="37.14" x2="431.52" y2="28.18" xlink:href="#linear-gradient-6"/><linearGradient id="linear-gradient-140" x1="428.11" y1="40.36" x2="433.94" y2="30.27" xlink:href="#linear-gradient-6"/><linearGradient id="linear-gradient-141" x1="429.81" y1="32.13" x2="435.41" y2="32.13" xlink:href="#linear-gradient-6"/><linearGradient id="linear-gradient-142" x1="426.38" y1="28.84" x2="432.73" y2="28.84" xlink:href="#linear-gradient-6"/><linearGradient id="linear-gradient-143" x1="422.26" y1="38.01" x2="425.22" y2="26.97" xlink:href="#linear-gradient-6"/><linearGradient id="linear-gradient-144" x1="419.67" y1="31.06" x2="425.84" y2="31.06" xlink:href="#linear-gradient-6"/><linearGradient id="linear-gradient-145" x1="425.92" y1="46.81" x2="425.92" y2="29.98" xlink:href="#linear-gradient-6"/><linearGradient id="linear-gradient-146" x1="-1911.72" y1="41.75" x2="-1905.43" y2="36.48" gradientTransform="matrix(-1, 0, 0, 1, -1477.32, 0)" xlink:href="#linear-gradient-6"/><linearGradient id="linear-gradient-147" x1="419" y1="41.51" x2="425.12" y2="36.37" xlink:href="#linear-gradient-6"/><linearGradient id="linear-gradient-148" x1="399.44" y1="28.15" x2="404.62" y2="19.19" xlink:href="#linear-gradient-15"/><linearGradient id="linear-gradient-149" x1="401.21" y1="31.37" x2="407.03" y2="21.28" xlink:href="#linear-gradient-15"/><linearGradient id="linear-gradient-150" x1="402.9" y1="23.14" x2="408.5" y2="23.14" xlink:href="#linear-gradient-15"/><linearGradient id="linear-gradient-151" x1="399.47" y1="19.85" x2="405.82" y2="19.85" xlink:href="#linear-gradient-15"/><linearGradient id="linear-gradient-152" x1="395.35" y1="29.02" x2="398.31" y2="17.98" xlink:href="#linear-gradient-15"/><linearGradient id="linear-gradient-153" x1="392.76" y1="22.07" x2="398.93" y2="22.07" xlink:href="#linear-gradient-15"/><linearGradient id="linear-gradient-154" x1="399.02" y1="37.82" x2="399.02" y2="20.99" xlink:href="#linear-gradient-15"/><linearGradient id="linear-gradient-155" x1="-1884.81" y1="32.76" x2="-1878.53" y2="27.48" gradientTransform="matrix(-1, 0, 0, 1, -1477.32, 0)" xlink:href="#linear-gradient-15"/><linearGradient id="linear-gradient-156" x1="392.09" y1="32.52" x2="398.21" y2="27.38" xlink:href="#linear-gradient-15"/></defs><title>backtulips</title><g id="Layer_2" data-name="Layer 2"><g id="Tulips"><g id="tulip"><path class="cls-1" d="M80,57.36s.56-1.9,4.29-2.85a5.93,5.93,0,0,1,1.87,2.85S80.22,75,80,57.36Z"/><path class="cls-2" d="M81.34,61.35s.94-6.84,4.67-5.13c3.36,1.54,2.61,6.64,2.61,6.64l-4.85,5.89Z"/><path class="cls-3" d="M83.19,56.48l.11,0a3.06,3.06,0,0,1,3.64,1.68,14.27,14.27,0,0,1,2,4,0,0,0,0,0,0,0C88.77,60.14,87.8,53.53,83.19,56.48Z"/><path class="cls-3" d="M79.66,57a37.12,37.12,0,0,0,4.9-2.28L86,57l.21-.14s-1-2.71-1.43-2.71C83.93,54.13,79.66,56.84,79.66,57Z"/><path class="cls-4" d="M72.76,60.21s.93-9.3,6.9-6.08c0,0,2.24,1.14,1.5,4.75S74.07,69.89,72.76,60.21Z"/><path class="cls-3" d="M79.1,53.75s-4.66-.94-4.85,8.55l-1.49-1.9S73.51,51.48,79.1,53.75Z"/><path class="cls-5" d="M71.27,62.11S78.73,53,80.78,58.5c0,0,3-4.75,6,4.93S73.69,82,71.27,62.11Z"/><path class="cls-6" d="M88,56.79s-6.78,2.85-8.37,15.94v1.33S93.68,71.6,88,56.79Z"/><path class="cls-7" d="M72.39,56.79s5.59,2.85,6.9,15.94v1.33S67.72,71.6,72.39,56.79Z"/></g><path class="cls-8" d="M69.81,73.7S78.43,83.43,78.47,86s1,12.51,1,12.51S71,82.89,70.67,81.2,69.81,73.7,69.81,73.7Z"/><path class="cls-9" d="M79.94,93.69S71.29,80.24,70.67,81.2s8.82,17.28,8.82,17.28Z"/><path class="cls-8" d="M86.49,71.23s-6.2,7-6.24,8.83-.73,9-.73,9,6.14-11.22,6.34-12.44S86.49,71.23,86.49,71.23Z"/><path class="cls-9" d="M79.2,85.61s6.22-9.68,6.66-9-6.34,12.44-6.34,12.44Z"/><path class="cls-10" d="M79.71,73.22s1.79,27.87.78,30.12-1.48.13-1.48.13l-.56-20.85-.24-8.92S78.46,71.25,79.71,73.22Z"/><path class="cls-8" d="M62.48,37.55s-8.62,9.73-8.67,12.27-1,12.5-1,12.5,8.53-15.58,8.82-17.27S62.48,37.55,62.48,37.55Z"/><path class="cls-9" d="M52.35,57.54S61,44.08,61.62,45.05,52.8,62.32,52.8,62.32Z"/><path class="cls-8" d="M45.8,35.08s6.2,7,6.24,8.83.73,9,.73,9-6.14-11.21-6.35-12.43S45.8,35.08,45.8,35.08Z"/><path class="cls-9" d="M53.09,49.46s-6.22-9.68-6.67-9S52.77,52.9,52.77,52.9Z"/><path class="cls-10" d="M52.58,37.07s-1.79,27.87-.79,30.12,1.48.13,1.48.13l.57-20.86.24-8.91S53.83,35.1,52.58,37.07Z"/><g id="tulip-2" data-name="tulip"><path class="cls-11" d="M54.35,21.64s.56-1.9,4.29-2.85a5.93,5.93,0,0,1,1.87,2.85S54.53,39.29,54.35,21.64Z"/><path class="cls-12" d="M55.65,25.62s.94-6.83,4.67-5.12c3.36,1.53,2.61,6.64,2.61,6.64L58.08,33Z"/><path class="cls-13" d="M57.5,20.75l.11,0a3.05,3.05,0,0,1,3.64,1.68,14.14,14.14,0,0,1,2,4s.05,0,0,0C63.08,24.41,62.1,17.81,57.5,20.75Z"/><path class="cls-14" d="M54,21.26A37.12,37.12,0,0,0,58.87,19l1.43,2.28.21-.15s-1-2.7-1.43-2.7C58.24,18.41,54,21.11,54,21.26Z"/><path class="cls-15" d="M47.07,24.48s.93-9.3,6.9-6.07c0,0,2.24,1.14,1.5,4.74S48.37,34.16,47.07,24.48Z"/><path class="cls-16" d="M53.41,18s-4.66-1-4.85,8.54l-1.49-1.9S47.82,15.75,53.41,18Z"/><path class="cls-17" d="M45.58,26.38s7.46-9.11,9.51-3.6c0,0,3-4.75,6,4.93S48,46.31,45.58,26.38Z"/><path class="cls-18" d="M62.34,21.07S55.56,23.91,54,37v1.33S68,35.87,62.34,21.07Z"/><path class="cls-19" d="M46.7,21.07S52.29,23.91,53.6,37v1.33S42,35.87,46.7,21.07Z"/></g><path class="cls-8" d="M133.23,72.21S125,82.27,125,84.81s-.54,12.53-.54,12.53,7.93-15.9,8.16-17.6S133.23,72.21,133.23,72.21Z"/><path class="cls-9" d="M123.86,92.58S132,78.8,132.65,79.74s-8.16,17.6-8.16,17.6Z"/><path class="cls-20" d="M123.41,74.68s-.74,27.92.35,30.14,1.48.06,1.48.06L125,84l-.09-8.92S124.59,72.67,123.41,74.68Z"/><g id="tulip-3" data-name="tulip"><path class="cls-21" d="M124.77,59.5s.56-1.9,4.29-2.85a5.93,5.93,0,0,1,1.87,2.85S125,77.15,124.77,59.5Z"/><path class="cls-22" d="M126.08,63.48s.93-6.83,4.66-5.12c3.36,1.54,2.62,6.64,2.62,6.64l-4.86,5.89Z"/><path class="cls-23" d="M127.93,58.62l.1,0a3.06,3.06,0,0,1,3.65,1.68,14.25,14.25,0,0,1,2,4s.05,0,.05,0C133.5,62.27,132.53,55.67,127.93,58.62Z"/><path class="cls-24" d="M124.4,59.12a37.72,37.72,0,0,0,4.9-2.28l1.43,2.28.2-.14s-1-2.71-1.43-2.71C128.66,56.27,124.4,59,124.4,59.12Z"/><path class="cls-25" d="M117.49,62.35s.94-9.3,6.91-6.08c0,0,2.24,1.14,1.49,4.75S118.8,72,117.49,62.35Z"/><path class="cls-26" d="M123.84,55.89s-4.67-1-4.85,8.54l-1.5-1.89S118.24,53.61,123.84,55.89Z"/><path class="cls-27" d="M116,64.24s7.47-9.11,9.52-3.6c0,0,3-4.75,6,4.93S118.43,84.17,116,64.24Z"/><path class="cls-28" d="M132.76,58.93S126,61.78,124.4,74.87V76.2S138.41,73.73,132.76,58.93Z"/><path class="cls-29" d="M117.12,58.93s5.6,2.85,6.9,15.94V76.2S112.45,73.73,117.12,58.93Z"/></g><path class="cls-8" d="M17.23,55.21S9,65.27,9,67.81s-.54,12.53-.54,12.53,7.93-15.9,8.16-17.6S17.23,55.21,17.23,55.21Z"/><path class="cls-9" d="M7.86,75.58S16,61.8,16.65,62.74s-8.16,17.6-8.16,17.6Z"/><path class="cls-20" d="M7.41,57.68s-.74,27.92.35,30.14,1.48.06,1.48.06L9,67,8.93,58.1S8.59,55.67,7.41,57.68Z"/><g id="tulip-4" data-name="tulip"><path class="cls-30" d="M8.77,42.5s.56-1.9,4.29-2.85a5.93,5.93,0,0,1,1.87,2.85S9,60.15,8.77,42.5Z"/><path class="cls-31" d="M10.08,46.48s.93-6.83,4.66-5.12C18.1,42.9,17.36,48,17.36,48L12.5,53.89Z"/><path class="cls-32" d="M11.93,41.62l.1,0a3.06,3.06,0,0,1,3.65,1.68,14.25,14.25,0,0,1,2,4s.05,0,.05,0C17.5,45.27,16.53,38.67,11.93,41.62Z"/><path class="cls-33" d="M8.4,42.12a37.72,37.72,0,0,0,4.9-2.28l1.43,2.28.2-.14s-1-2.71-1.43-2.71C12.66,39.27,8.4,42,8.4,42.12Z"/><path class="cls-34" d="M1.49,45.35s.94-9.3,6.91-6.08c0,0,2.24,1.14,1.49,4.75S2.8,55,1.49,45.35Z"/><path class="cls-35" d="M7.84,38.89s-4.67-1-4.85,8.54l-1.5-1.89S2.24,36.61,7.84,38.89Z"/><path class="cls-36" d="M0,47.24s7.47-9.11,9.52-3.6c0,0,3-4.75,6,4.93S2.43,67.17,0,47.24Z"/><path class="cls-37" d="M16.76,41.93S10,44.78,8.4,57.87V59.2S22.41,56.73,16.76,41.93Z"/><path class="cls-38" d="M1.12,41.93S6.72,44.78,8,57.87V59.2S-3.55,56.73,1.12,41.93Z"/></g><g id="tulip-5" data-name="tulip"><path class="cls-39" d="M330.62,46.73s.51-1.75,4-2.63a5.43,5.43,0,0,1,1.73,2.63S330.79,63,330.62,46.73Z"/><path class="cls-40" d="M331.82,50.41s.86-6.31,4.31-4.73c3.1,1.42,2.42,6.13,2.42,6.13l-4.49,5.44Z"/><path class="cls-3" d="M333.53,45.91l.1,0A2.82,2.82,0,0,1,337,47.43a12.82,12.82,0,0,1,1.82,3.71s.05,0,0,0C338.68,49.29,337.78,43.19,333.53,45.91Z"/><path class="cls-3" d="M330.27,46.38a34.34,34.34,0,0,0,4.53-2.11l1.32,2.11.19-.13s-.95-2.5-1.32-2.5C334.21,43.75,330.27,46.25,330.27,46.38Z"/><path class="cls-41" d="M323.89,49.36s.86-8.59,6.38-5.61c0,0,2.07,1,1.38,4.38S325.1,58.3,323.89,49.36Z"/><path class="cls-3" d="M329.75,43.4s-4.31-.88-4.48,7.89l-1.38-1.76S324.58,41.29,329.75,43.4Z"/><path class="cls-42" d="M322.51,51.11s6.9-8.41,8.8-3.33c0,0,2.75-4.38,5.51,4.56S324.75,69.52,322.51,51.11Z"/><path class="cls-43" d="M338,46.2s-6.27,2.63-7.73,14.73v1.23S343.22,59.88,338,46.2Z"/><path class="cls-44" d="M323.55,46.2s5.17,2.63,6.38,14.73v1.23S319.24,59.88,323.55,46.2Z"/></g><path class="cls-8" d="M321.17,61.82s8,9,8,11.34.94,11.55.94,11.55-7.88-14.39-8.15-16S321.17,61.82,321.17,61.82Z"/><path class="cls-9" d="M330.52,80.29s-8-12.43-8.56-11.54,8.15,16,8.15,16Z"/><path class="cls-8" d="M336.57,59.54s-5.73,6.47-5.76,8.16-.67,8.31-.67,8.31,5.67-10.36,5.86-11.48S336.57,59.54,336.57,59.54Z"/><path class="cls-9" d="M329.84,72.83s5.75-8.94,6.16-8.3S330.14,76,330.14,76Z"/><path class="cls-10" d="M330.31,61.38S332,87.13,331,89.21s-1.37.12-1.37.12l-.52-19.27-.22-8.24S329.16,59.56,330.31,61.38Z"/><path class="cls-8" d="M311.7,28.53s-8,9-8,11.39-.94,11.6-.94,11.6,7.91-14.46,8.18-16S311.7,28.53,311.7,28.53Z"/><path class="cls-9" d="M302.3,47.08s8-12.48,8.6-11.59-8.18,16-8.18,16Z"/><path class="cls-8" d="M296.23,26.24s5.75,6.5,5.78,8.19.68,8.35.68,8.35-5.7-10.4-5.89-11.53S296.23,26.24,296.23,26.24Z"/><path class="cls-9" d="M303,39.59s-5.78-9-6.19-8.34,5.89,11.53,5.89,11.53Z"/><path class="cls-10" d="M302.51,28.09s-1.66,25.85-.73,27.94,1.38.12,1.38.12l.52-19.34.22-8.28S303.67,26.27,302.51,28.09Z"/><g id="tulip-6" data-name="tulip"><path class="cls-45" d="M304.15,13.78s.52-1.76,4-2.64a5.48,5.48,0,0,1,1.74,2.64S304.33,30.15,304.15,13.78Z"/><path class="cls-46" d="M305.36,17.47s.87-6.33,4.33-4.75c3.12,1.43,2.43,6.16,2.43,6.16l-4.5,5.46Z"/><path class="cls-47" d="M307.08,13a.26.26,0,0,1,.1,0,2.84,2.84,0,0,1,3.38,1.55,13,13,0,0,1,1.82,3.72s.05,0,0,0C312.25,16.35,311.35,10.22,307.08,13Z"/><path class="cls-48" d="M303.81,13.42a34.37,34.37,0,0,0,4.54-2.11l1.33,2.11.19-.13s-.95-2.51-1.33-2.51C307.76,10.78,303.81,13.29,303.81,13.42Z"/><path class="cls-49" d="M297.4,16.42s.87-8.63,6.41-5.64c0,0,2.07,1.06,1.38,4.4S298.61,25.4,297.4,16.42Z"/><path class="cls-50" d="M303.29,10.43s-4.33-.88-4.5,7.92l-1.39-1.76S298.09,8.32,303.29,10.43Z"/><path class="cls-51" d="M296,18.18s6.92-8.45,8.83-3.35c0,0,2.77-4.4,5.54,4.58S298.27,36.66,296,18.18Z"/><path class="cls-52" d="M311.56,13.25s-6.29,2.64-7.75,14.79v1.23S316.8,27,311.56,13.25Z"/><path class="cls-53" d="M297.06,13.25s5.19,2.64,6.4,14.79v1.23S292.73,27,297.06,13.25Z"/></g><path class="cls-8" d="M361.92,27s-8.43,10.27-8.38,12.87-.55,12.8-.55,12.8,8.1-16.24,8.33-18S361.92,27,361.92,27Z"/><path class="cls-9" d="M352.34,47.83s8.32-14.08,9-13.12-8.33,18-8.33,18Z"/><path class="cls-20" d="M351.89,29.54s-.76,28.52.35,30.79,1.52.07,1.52.07l-.23-21.31L353.44,30S353.09,27.49,351.89,29.54Z"/><g id="tulip-7" data-name="tulip"><path class="cls-54" d="M353.28,14s.57-1.94,4.38-2.91A6,6,0,0,1,359.57,14S353.47,32.07,353.28,14Z"/><path class="cls-55" d="M354.61,18.11s.95-7,4.77-5.24c3.43,1.57,2.67,6.79,2.67,6.79l-5,6Z"/><path class="cls-56" d="M356.5,13.13l.11,0a3.13,3.13,0,0,1,3.72,1.71,14.5,14.5,0,0,1,2,4.1,0,0,0,0,0,.05,0C362.2,16.87,361.2,10.12,356.5,13.13Z"/><path class="cls-57" d="M352.9,13.65a38.64,38.64,0,0,0,5-2.33l1.46,2.33.21-.15s-1-2.76-1.46-2.76C357.25,10.74,352.9,13.5,352.9,13.65Z"/><path class="cls-58" d="M345.84,16.94s1-9.5,7.06-6.2c0,0,2.28,1.16,1.52,4.85S347.18,26.83,345.84,16.94Z"/><path class="cls-59" d="M352.32,10.35s-4.76-1-4.95,8.73l-1.53-1.94S346.6,8,352.32,10.35Z"/><path class="cls-60" d="M344.32,18.88s7.62-9.3,9.72-3.68c0,0,3-4.85,6.1,5S346.79,39.24,344.32,18.88Z"/><path class="cls-61" d="M361.44,13.45s-6.93,2.91-8.54,16.29V31.1S367.21,28.58,361.44,13.45Z"/><path class="cls-62" d="M345.46,13.45s5.72,2.91,7.05,16.29V31.1S340.69,28.58,345.46,13.45Z"/></g><g id="tulip-8" data-name="tulip"><path class="cls-63" d="M196.1,71.91s.56-1.89,4.29-2.84a5.93,5.93,0,0,1,1.87,2.84S196.28,89.56,196.1,71.91Z"/><path class="cls-64" d="M197.4,75.9s.94-6.83,4.67-5.13c3.36,1.54,2.61,6.65,2.61,6.65l-4.85,5.88Z"/><path class="cls-3" d="M199.25,71l.11,0A3,3,0,0,1,203,72.67a14.2,14.2,0,0,1,2,4,0,0,0,0,0,.05,0C204.83,74.69,203.86,68.08,199.25,71Z"/><path class="cls-3" d="M195.73,71.53a36.84,36.84,0,0,0,4.89-2.27l1.43,2.27.21-.14s-1-2.7-1.43-2.7C200,68.69,195.73,71.39,195.73,71.53Z"/><path class="cls-65" d="M188.82,74.76s.93-9.3,6.91-6.07c0,0,2.23,1.14,1.49,4.74S190.13,84.44,188.82,74.76Z"/><path class="cls-3" d="M195.17,68.31s-4.67-1-4.86,8.54L188.82,75S189.57,66,195.17,68.31Z"/><path class="cls-66" d="M187.33,76.66s7.46-9.11,9.51-3.61c0,0,3-4.74,6,4.94S189.75,96.59,187.33,76.66Z"/><path class="cls-67" d="M204.09,71.34s-6.78,2.85-8.36,16v1.33S209.74,86.15,204.09,71.34Z"/><path class="cls-68" d="M188.45,71.34s5.6,2.85,6.9,16v1.33S183.78,86.15,188.45,71.34Z"/></g><path class="cls-8" d="M185.87,88.25s8.62,9.73,8.66,12.27,1,12.51,1,12.51S187,97.44,186.73,95.75,185.87,88.25,185.87,88.25Z"/><path class="cls-9" d="M196,108.24s-8.65-13.45-9.27-12.49S195.55,113,195.55,113Z"/><path class="cls-8" d="M202.55,85.78s-6.2,7-6.24,8.83-.73,9-.73,9,6.14-11.21,6.34-12.43S202.55,85.78,202.55,85.78Z"/><path class="cls-9" d="M195.26,100.17s6.22-9.68,6.66-9-6.34,12.43-6.34,12.43Z"/><path class="cls-10" d="M195.77,87.77s1.79,27.87.78,30.13-1.48.12-1.48.12l-.56-20.85-.24-8.92S194.52,85.81,195.77,87.77Z"/><path class="cls-8" d="M261.54,84.1s-8.62,9.73-8.67,12.27-1,12.51-1,12.51,8.53-15.59,8.82-17.28S261.54,84.1,261.54,84.1Z"/><path class="cls-9" d="M251.41,104.09s8.65-13.45,9.27-12.49-8.82,17.28-8.82,17.28Z"/><path class="cls-8" d="M244.86,81.63s6.2,7,6.24,8.83.73,9,.73,9S245.69,88.24,245.48,87,244.86,81.63,244.86,81.63Z"/><path class="cls-9" d="M252.15,96s-6.22-9.68-6.67-9,6.35,12.44,6.35,12.44Z"/><path class="cls-10" d="M251.64,83.62s-1.79,27.87-.79,30.12,1.48.13,1.48.13L252.9,93l.24-8.92S252.89,81.65,251.64,83.62Z"/><g id="tulip-9" data-name="tulip"><path class="cls-69" d="M253.41,68.19s.56-1.9,4.29-2.85a5.93,5.93,0,0,1,1.87,2.85S253.59,85.84,253.41,68.19Z"/><path class="cls-70" d="M254.71,72.17s.94-6.83,4.67-5.12c3.36,1.54,2.61,6.64,2.61,6.64l-4.85,5.89Z"/><path class="cls-71" d="M256.56,67.31l.11,0A3.06,3.06,0,0,1,260.31,69a14.27,14.27,0,0,1,2,4s.05,0,0,0C262.14,71,261.16,64.36,256.56,67.31Z"/><path class="cls-72" d="M253,67.81a37.12,37.12,0,0,0,4.9-2.28l1.43,2.28.21-.14s-1-2.71-1.43-2.71C257.3,65,253,67.67,253,67.81Z"/><path class="cls-73" d="M246.13,71s.93-9.3,6.9-6.08c0,0,2.24,1.14,1.5,4.75S247.44,80.72,246.13,71Z"/><path class="cls-74" d="M252.47,64.58s-4.66-.95-4.85,8.54l-1.49-1.89S246.88,62.31,252.47,64.58Z"/><path class="cls-75" d="M244.64,72.93s7.46-9.11,9.51-3.6c0,0,3-4.75,6,4.93S247.06,92.86,244.64,72.93Z"/><path class="cls-76" d="M261.4,67.62s-6.78,2.85-8.37,15.94v1.33S267.05,82.42,261.4,67.62Z"/><path class="cls-77" d="M245.76,67.62s5.59,2.85,6.9,15.94v1.33S241.09,82.42,245.76,67.62Z"/></g><path class="cls-8" d="M168.54,93.1s-8.62,9.73-8.67,12.27-1,12.51-1,12.51,8.53-15.59,8.82-17.28S168.54,93.1,168.54,93.1Z"/><path class="cls-9" d="M158.41,113.09s8.65-13.45,9.27-12.49-8.82,17.28-8.82,17.28Z"/><path class="cls-8" d="M151.86,90.63s6.2,7,6.24,8.83.73,9,.73,9S152.69,97.24,152.48,96,151.86,90.63,151.86,90.63Z"/><path class="cls-9" d="M159.15,105s-6.22-9.68-6.67-9,6.35,12.44,6.35,12.44Z"/><path class="cls-10" d="M158.64,92.62s-1.79,27.87-.79,30.12,1.48.13,1.48.13L159.9,102l.24-8.92S159.89,90.65,158.64,92.62Z"/><g id="tulip-10" data-name="tulip"><path class="cls-78" d="M160.41,77.19s.56-1.9,4.29-2.85a5.93,5.93,0,0,1,1.87,2.85S160.59,94.84,160.41,77.19Z"/><path class="cls-79" d="M161.71,81.17s.94-6.83,4.67-5.12c3.36,1.54,2.61,6.64,2.61,6.64l-4.85,5.89Z"/><path class="cls-80" d="M163.56,76.31l.11,0A3.06,3.06,0,0,1,167.31,78a14.27,14.27,0,0,1,2,4s.05,0,0,0C169.14,80,168.16,73.36,163.56,76.31Z"/><path class="cls-81" d="M160,76.81a37.12,37.12,0,0,0,4.9-2.28l1.43,2.28.21-.14s-1-2.71-1.43-2.71C164.3,74,160,76.67,160,76.81Z"/><path class="cls-82" d="M153.13,80s.93-9.3,6.9-6.08c0,0,2.24,1.14,1.5,4.75S154.44,89.72,153.13,80Z"/><path class="cls-83" d="M159.47,73.58s-4.66-1-4.85,8.54l-1.49-1.89S153.88,71.31,159.47,73.58Z"/><path class="cls-84" d="M151.64,81.93s7.46-9.11,9.51-3.6c0,0,3-4.75,6,4.93S154.06,101.86,151.64,81.93Z"/><path class="cls-85" d="M168.4,76.62s-6.78,2.85-8.37,15.94v1.33S174.05,91.42,168.4,76.62Z"/><path class="cls-86" d="M152.76,76.62s5.59,2.85,6.9,15.94v1.33S148.09,91.42,152.76,76.62Z"/></g><path class="cls-8" d="M103.29,20.76S95,30.82,95.09,33.36s-.54,12.54-.54,12.54,7.93-15.91,8.16-17.61S103.29,20.76,103.29,20.76Z"/><path class="cls-9" d="M93.92,41.13s8.14-13.78,8.79-12.84S94.55,45.9,94.55,45.9Z"/><path class="cls-20" d="M93.47,23.23s-.74,27.92.35,30.14,1.48.07,1.48.07l-.22-20.86L95,23.65S94.65,21.22,93.47,23.23Z"/><g id="tulip-11" data-name="tulip"><path class="cls-87" d="M94.83,8.05s.56-1.9,4.29-2.85A5.93,5.93,0,0,1,101,8.05S95,25.7,94.83,8.05Z"/><path class="cls-88" d="M96.14,12s.93-6.84,4.66-5.13c3.36,1.54,2.62,6.65,2.62,6.65l-4.86,5.88Z"/><path class="cls-89" d="M98,7.17l.1,0a3.07,3.07,0,0,1,3.65,1.68,14.17,14.17,0,0,1,2,4s0,0,0,0C103.56,10.83,102.59,4.22,98,7.17Z"/><path class="cls-90" d="M94.46,7.67a37.12,37.12,0,0,0,4.9-2.28l1.43,2.28.2-.14s-1-2.71-1.43-2.71C98.72,4.82,94.46,7.53,94.46,7.67Z"/><path class="cls-91" d="M87.55,10.9s.94-9.3,6.91-6.08c0,0,2.24,1.14,1.49,4.75S88.86,20.58,87.55,10.9Z"/><path class="cls-92" d="M93.9,4.44S89.23,3.5,89.05,13l-1.5-1.9S88.3,2.17,93.9,4.44Z"/><path class="cls-93" d="M86.06,12.8s7.47-9.11,9.52-3.61c0,0,3-4.75,6,4.93S88.49,32.72,86.06,12.8Z"/><path class="cls-94" d="M102.82,7.48S96,10.33,94.46,23.42v1.33S108.47,22.29,102.82,7.48Z"/><path class="cls-95" d="M87.18,7.48s5.6,2.85,6.91,15.94v1.33S82.51,22.29,87.18,7.48Z"/></g><g id="tulip-12" data-name="tulip"><path class="cls-96" d="M222,31.87s.55-1.83,4.15-2.75A5.73,5.73,0,0,1,228,31.87S222.22,48.93,222,31.87Z"/><path class="cls-97" d="M223.31,35.72s.9-6.6,4.51-4.95c3.24,1.48,2.52,6.42,2.52,6.42l-4.69,5.68Z"/><path class="cls-3" d="M225.09,31l.1,0a3,3,0,0,1,3.53,1.62,14,14,0,0,1,1.9,3.88,0,0,0,1,0,0,0C230.48,34.55,229.54,28.17,225.09,31Z"/><path class="cls-3" d="M221.68,31.5a36,36,0,0,0,4.74-2.2l1.38,2.2.2-.13s-1-2.62-1.39-2.62C225.8,28.75,221.68,31.37,221.68,31.5Z"/><path class="cls-98" d="M215,34.62s.9-9,6.67-5.87c0,0,2.17,1.1,1.45,4.59S216.27,44,215,34.62Z"/><path class="cls-3" d="M221.14,28.39s-4.51-.92-4.69,8.25L215,34.8S215.73,26.19,221.14,28.39Z"/><path class="cls-99" d="M213.57,36.46s7.21-8.81,9.2-3.49c0,0,2.88-4.58,5.77,4.77S215.91,55.71,213.57,36.46Z"/><path class="cls-100" d="M229.76,31.32s-6.55,2.75-8.08,15.41V48S235.22,45.63,229.76,31.32Z"/><path class="cls-101" d="M214.65,31.32s5.41,2.75,6.67,15.41V48S210.14,45.63,214.65,31.32Z"/></g><path class="cls-8" d="M212.16,47.66s8.33,9.4,8.37,11.85,1,12.09,1,12.09S213.27,56.54,213,54.9,212.16,47.66,212.16,47.66Z"/><path class="cls-9" d="M222,67s-8.36-13-9-12.08,8.52,16.7,8.52,16.7Z"/><path class="cls-8" d="M228.27,45.27s-6,6.77-6,8.53-.7,8.7-.7,8.7,5.92-10.84,6.12-12S228.27,45.27,228.27,45.27Z"/><path class="cls-9" d="M221.23,59.17s6-9.35,6.44-8.68-6.12,12-6.12,12Z"/><path class="cls-10" d="M221.73,47.19s1.73,26.93.75,29.11-1.42.13-1.42.13l-.55-20.16-.23-8.61S220.52,45.3,221.73,47.19Z"/><path class="cls-8" d="M258.65,25.17s-8.33,9.4-8.37,11.86-1,12.08-1,12.08,8.24-15,8.52-16.69S258.65,25.17,258.65,25.17Z"/><path class="cls-9" d="M248.86,44.49s8.36-13,9-12.07-8.52,16.69-8.52,16.69Z"/><path class="cls-8" d="M242.54,22.79s6,6.76,6,8.53.7,8.69.7,8.69-5.92-10.83-6.12-12S242.54,22.79,242.54,22.79Z"/><path class="cls-9" d="M249.58,36.69s-6-9.36-6.44-8.69,6.12,12,6.12,12Z"/><path class="cls-10" d="M249.08,24.71s-1.73,26.93-.75,29.11,1.42.12,1.42.12l.55-20.15.23-8.62S250.29,22.81,249.08,24.71Z"/><g id="tulip-13" data-name="tulip"><path class="cls-102" d="M250.79,9.8s.54-1.83,4.15-2.75a5.68,5.68,0,0,1,1.8,2.75S251,26.86,250.79,9.8Z"/><path class="cls-103" d="M252.05,13.65s.91-6.6,4.51-5c3.25,1.48,2.53,6.42,2.53,6.42L254.4,20.8Z"/><path class="cls-104" d="M253.84,9l.1,0a3,3,0,0,1,3.52,1.62,13.48,13.48,0,0,1,1.9,3.88s.05,0,.05,0C259.23,12.48,258.29,6.1,253.84,9Z"/><path class="cls-105" d="M250.43,9.43a36.55,36.55,0,0,0,4.74-2.2l1.38,2.2.19-.13s-1-2.62-1.38-2.62C254.55,6.68,250.43,9.3,250.43,9.43Z"/><path class="cls-106" d="M243.76,12.55s.9-9,6.67-5.87c0,0,2.17,1.1,1.44,4.59S245,21.9,243.76,12.55Z"/><path class="cls-107" d="M249.89,6.32s-4.51-.92-4.69,8.25l-1.44-1.84S244.48,4.11,249.89,6.32Z"/><path class="cls-108" d="M242.32,14.38s7.21-8.8,9.19-3.48c0,0,2.89-4.58,5.77,4.77S244.66,33.64,242.32,14.38Z"/><path class="cls-109" d="M258.51,9.25S252,12,250.43,24.66v1.28S264,23.55,258.51,9.25Z"/><path class="cls-110" d="M243.4,9.25s5.41,2.75,6.67,15.41v1.28S238.89,23.55,243.4,9.25Z"/></g><path class="cls-8" d="M288.18,42.12s-8,9.72-7.92,12.17-.52,12.11-.52,12.11,7.67-15.36,7.88-17S288.18,42.12,288.18,42.12Z"/><path class="cls-9" d="M279.13,61.8s7.86-13.31,8.49-12.41-7.88,17-7.88,17Z"/><path class="cls-20" d="M278.7,44.5s-.72,27,.33,29.12,1.44.07,1.44.07l-.22-20.16-.09-8.62S279.84,42.56,278.7,44.5Z"/><g id="tulip-14" data-name="tulip"><path class="cls-111" d="M280,29.84s.54-1.84,4.15-2.76a5.75,5.75,0,0,1,1.8,2.76S280.19,46.89,280,29.84Z"/><path class="cls-112" d="M281.27,33.69s.91-6.61,4.51-5c3.25,1.49,2.53,6.42,2.53,6.42l-4.69,5.69Z"/><path class="cls-113" d="M283.06,29l.1,0a2.94,2.94,0,0,1,3.52,1.62,13.35,13.35,0,0,1,1.9,3.88,0,0,0,0,0,.05,0C288.45,32.52,287.51,26.13,283.06,29Z"/><path class="cls-114" d="M279.65,29.47a35.91,35.91,0,0,0,4.73-2.2l1.39,2.2.19-.14s-1-2.61-1.38-2.61C283.77,26.72,279.65,29.33,279.65,29.47Z"/><path class="cls-115" d="M273,32.59s.9-9,6.67-5.87c0,0,2.16,1.1,1.44,4.58S274.24,41.94,273,32.59Z"/><path class="cls-116" d="M279.11,26.35s-4.51-.92-4.69,8.25L273,32.77S273.7,24.15,279.11,26.35Z"/><path class="cls-117" d="M271.54,34.42s7.21-8.8,9.19-3.48c0,0,2.89-4.59,5.77,4.76S273.88,53.68,271.54,34.42Z"/><path class="cls-118" d="M287.73,29.28s-6.55,2.76-8.08,15.41V46S293.19,43.59,287.73,29.28Z"/><path class="cls-119" d="M272.62,29.28S278,32,279.29,44.69V46S268.11,43.59,272.62,29.28Z"/></g><g id="tulip-15" data-name="tulip"><path class="cls-120" d="M140.62,8.92s.54-1.84,4.15-2.76a5.75,5.75,0,0,1,1.8,2.76S140.8,26,140.62,8.92Z"/><path class="cls-121" d="M141.88,12.77s.91-6.61,4.51-5c3.25,1.49,2.53,6.42,2.53,6.42l-4.69,5.69Z"/><path class="cls-3" d="M143.67,8.06l.1,0a2.94,2.94,0,0,1,3.52,1.62,13.35,13.35,0,0,1,1.9,3.88,0,0,0,0,0,.05,0C149.06,11.6,148.12,5.21,143.67,8.06Z"/><path class="cls-3" d="M140.26,8.55A35.91,35.91,0,0,0,145,6.35l1.38,2.2.2-.14s-1-2.61-1.38-2.61C144.38,5.8,140.26,8.41,140.26,8.55Z"/><path class="cls-122" d="M133.59,11.67s.9-9,6.67-5.87c0,0,2.16,1.1,1.44,4.58S134.85,21,133.59,11.67Z"/><path class="cls-3" d="M139.72,5.43s-4.51-.92-4.69,8.25l-1.44-1.83S134.31,3.23,139.72,5.43Z"/><path class="cls-123" d="M132.15,13.5s7.21-8.8,9.19-3.48c0,0,2.89-4.59,5.77,4.76S134.49,32.76,132.15,13.5Z"/><path class="cls-124" d="M148.34,8.36s-6.55,2.76-8.08,15.41v1.28S153.8,22.67,148.34,8.36Z"/><path class="cls-125" d="M133.23,8.36s5.41,2.76,6.67,15.41v1.28S128.72,22.67,133.23,8.36Z"/></g><path class="cls-8" d="M130.74,24.7s8.32,9.4,8.37,11.86,1,12.08,1,12.08S131.85,33.58,131.57,32,130.74,24.7,130.74,24.7Z"/><path class="cls-9" d="M140.52,44s-8.35-13-9-12.07,8.52,16.69,8.52,16.69Z"/><path class="cls-8" d="M146.85,22.31s-6,6.77-6,8.54-.71,8.69-.71,8.69,5.93-10.83,6.13-12S146.85,22.31,146.85,22.31Z"/><path class="cls-9" d="M139.81,36.22s6-9.36,6.44-8.69-6.13,12-6.13,12Z"/><path class="cls-10" d="M140.31,24.24s1.72,26.93.75,29.11-1.43.12-1.43.12l-.54-20.15-.23-8.62S139.09,22.34,140.31,24.24Z"/><path class="cls-8" d="M205.23,19.22s-8.33,9.4-8.38,11.85-1,12.09-1,12.09,8.23-15.06,8.51-16.7S205.23,19.22,205.23,19.22Z"/><path class="cls-9" d="M195.44,38.54s8.36-13,8.95-12.08-8.51,16.7-8.51,16.7Z"/><path class="cls-8" d="M189.11,16.83s6,6.77,6,8.53.7,8.7.7,8.7-5.93-10.84-6.13-12S189.11,16.83,189.11,16.83Z"/><path class="cls-9" d="M196.15,30.73s-6-9.35-6.44-8.68,6.13,12,6.13,12Z"/><path class="cls-10" d="M195.66,18.75s-1.73,26.93-.76,29.11,1.43.13,1.43.13l.54-20.16.24-8.61S196.87,16.86,195.66,18.75Z"/><g id="tulip-16" data-name="tulip"><path class="cls-126" d="M197.37,3.84s.54-1.83,4.15-2.75a5.75,5.75,0,0,1,1.8,2.75S197.55,20.9,197.37,3.84Z"/><path class="cls-127" d="M198.63,7.7s.9-6.61,4.51-5c3.24,1.49,2.52,6.42,2.52,6.42L201,14.85Z"/><path class="cls-128" d="M200.42,3l.1,0A2.94,2.94,0,0,1,204,4.58a13.61,13.61,0,0,1,1.9,3.88,0,0,0,0,0,.05,0C205.81,6.53,204.86.14,200.42,3Z"/><path class="cls-129" d="M197,3.48a35.91,35.91,0,0,0,4.73-2.2l1.38,2.2.2-.14s-1-2.61-1.38-2.61C201.13.73,197,3.34,197,3.48Z"/><path class="cls-130" d="M190.34,6.6s.9-9,6.67-5.87c0,0,2.16,1.1,1.44,4.58S191.6,16,190.34,6.6Z"/><path class="cls-131" d="M196.47.36S192-.56,191.78,8.61l-1.44-1.83S191.06-1.84,196.47.36Z"/><path class="cls-132" d="M188.89,8.43s7.22-8.8,9.2-3.49c0,0,2.89-4.58,5.77,4.77S191.24,27.69,188.89,8.43Z"/><path class="cls-133" d="M205.09,3.29S198.54,6.05,197,18.7V20S210.55,17.6,205.09,3.29Z"/><path class="cls-134" d="M190,3.29s5.41,2.76,6.67,15.41V20S185.47,17.6,190,3.29Z"/></g><path class="cls-8" d="M177.76,33.16s-8,9.72-7.92,12.17-.53,12.12-.53,12.12,7.67-15.37,7.89-17S177.76,33.16,177.76,33.16Z"/><path class="cls-9" d="M168.7,52.85s7.87-13.32,8.5-12.41-7.89,17-7.89,17Z"/><path class="cls-20" d="M168.27,35.55s-.71,27,.34,29.12,1.43.06,1.43.06l-.21-20.15L169.74,36S169.41,33.61,168.27,35.55Z"/><g id="tulip-17" data-name="tulip"><path class="cls-135" d="M169.59,20.88s.54-1.83,4.15-2.75a5.68,5.68,0,0,1,1.8,2.75S169.77,37.94,169.59,20.88Z"/><path class="cls-136" d="M170.85,24.73s.9-6.6,4.51-4.95c3.24,1.48,2.52,6.42,2.52,6.42l-4.69,5.68Z"/><path class="cls-137" d="M172.64,20l.1,0a3,3,0,0,1,3.52,1.62,14,14,0,0,1,1.9,3.88s.05,0,0,0C178,23.56,177.08,17.18,172.64,20Z"/><path class="cls-138" d="M169.23,20.51a35.91,35.91,0,0,0,4.73-2.2l1.38,2.2.2-.13s-1-2.62-1.38-2.62C173.35,17.76,169.23,20.38,169.23,20.51Z"/><path class="cls-139" d="M162.56,23.63s.9-9,6.67-5.87c0,0,2.16,1.1,1.44,4.59S163.82,33,162.56,23.63Z"/><path class="cls-140" d="M168.69,17.4s-4.51-.92-4.69,8.25l-1.44-1.84S163.28,15.19,168.69,17.4Z"/><path class="cls-141" d="M161.11,25.46s7.22-8.8,9.2-3.48c0,0,2.88-4.58,5.77,4.77S163.46,44.72,161.11,25.46Z"/><path class="cls-142" d="M177.31,20.33s-6.55,2.75-8.08,15.4V37S182.77,34.63,177.31,20.33Z"/><path class="cls-143" d="M162.19,20.33s5.41,2.75,6.68,15.4V37S157.69,34.63,162.19,20.33Z"/></g><g id="tulip-18" data-name="tulip"><path class="cls-144" d="M377.75,41.61s.54-1.84,4.17-2.76a5.65,5.65,0,0,1,1.81,2.76S377.93,58.76,377.75,41.61Z"/><path class="cls-145" d="M379,45.48s.9-6.63,4.53-5C386.81,42,386.09,47,386.09,47l-4.72,5.72Z"/><path class="cls-3" d="M380.81,40.75l.1,0a3,3,0,0,1,3.55,1.63,14.16,14.16,0,0,1,1.91,3.9s0,0,0,0C386.23,44.31,385.29,37.89,380.81,40.75Z"/><path class="cls-3" d="M377.38,41.24A36.27,36.27,0,0,0,382.14,39l1.39,2.21.2-.14s-1-2.62-1.39-2.62C381.53,38.48,377.38,41.1,377.38,41.24Z"/><path class="cls-146" d="M370.68,44.38s.9-9,6.7-5.9c0,0,2.18,1.1,1.46,4.61S372,53.78,370.68,44.38Z"/><path class="cls-3" d="M376.84,38.11s-4.53-.92-4.71,8.3l-1.45-1.85S371.4,35.89,376.84,38.11Z"/><path class="cls-147" d="M369.23,46.22s7.25-8.85,9.24-3.5c0,0,2.9-4.61,5.81,4.79S371.58,65.59,369.23,46.22Z"/><path class="cls-148" d="M385.51,41.06s-6.59,2.76-8.13,15.49v1.29S391,55.44,385.51,41.06Z"/><path class="cls-149" d="M370.31,41.06s5.44,2.76,6.71,15.49v1.29S365.78,55.44,370.31,41.06Z"/></g><path class="cls-8" d="M367.81,57.49s8.37,9.45,8.42,11.92,1,12.15,1,12.15-8.28-15.14-8.56-16.79S367.81,57.49,367.81,57.49Z"/><path class="cls-9" d="M377.65,76.91s-8.4-13.07-9-12.14,8.56,16.79,8.56,16.79Z"/><path class="cls-8" d="M384,55.09s-6,6.8-6.05,8.57-.71,8.75-.71,8.75,6-10.9,6.16-12.08S384,55.09,384,55.09Z"/><path class="cls-9" d="M376.93,69.06s6.05-9.4,6.48-8.73-6.16,12.08-6.16,12.08Z"/><path class="cls-10" d="M377.43,57s1.74,27.08.76,29.27-1.44.12-1.44.12l-.54-20.26L376,57.49S376.21,55.11,377.43,57Z"/><path class="cls-8" d="M434.64,46.05s-8.37,9.46-8.41,11.93-1,12.15-1,12.15S433.52,55,433.8,53.34,434.64,46.05,434.64,46.05Z"/><path class="cls-9" d="M424.8,65.48s8.41-13.07,9-12.14-8.56,16.79-8.56,16.79Z"/><path class="cls-8" d="M418.44,43.65s6,6.81,6.06,8.58.71,8.75.71,8.75-6-10.9-6.17-12.08S418.44,43.65,418.44,43.65Z"/><path class="cls-9" d="M425.52,57.63s-6-9.4-6.48-8.73S425.21,61,425.21,61Z"/><path class="cls-10" d="M425,45.59s-1.74,27.08-.76,29.27,1.44.12,1.44.12l.55-20.26.23-8.67S426.24,43.68,425,45.59Z"/><g id="tulip-19" data-name="tulip"><path class="cls-150" d="M426.74,30.6s.55-1.85,4.17-2.77a5.77,5.77,0,0,1,1.82,2.77S426.92,47.75,426.74,30.6Z"/><path class="cls-151" d="M428,34.47s.91-6.64,4.53-5c3.27,1.49,2.54,6.45,2.54,6.45l-4.71,5.72Z"/><path class="cls-152" d="M429.81,29.74l.1,0a3,3,0,0,1,3.54,1.63,13.88,13.88,0,0,1,1.91,3.9s.05,0,.05,0C435.23,33.29,434.28,26.87,429.81,29.74Z"/><path class="cls-153" d="M426.38,30.23A35.81,35.81,0,0,0,431.14,28l1.39,2.22.2-.14s-1-2.63-1.39-2.63C430.52,27.46,426.38,30.09,426.38,30.23Z"/><path class="cls-154" d="M419.67,33.36s.91-9,6.71-5.9c0,0,2.18,1.11,1.45,4.61S420.94,42.77,419.67,33.36Z"/><path class="cls-155" d="M425.84,27.09s-4.54-.92-4.72,8.3l-1.45-1.84S420.4,24.88,425.84,27.09Z"/><path class="cls-156" d="M418.22,35.21s7.25-8.86,9.25-3.51c0,0,2.9-4.61,5.8,4.8S420.58,54.57,418.22,35.21Z"/><path class="cls-157" d="M434.5,30s-6.58,2.77-8.12,15.49v1.29S440,44.43,434.5,30Z"/><path class="cls-158" d="M419.31,30s5.44,2.77,6.71,15.49v1.29S414.77,44.43,419.31,30Z"/></g><path class="cls-8" d="M408.05,34s-8,9.78-8,12.24-.53,12.18-.53,12.18,7.71-15.45,7.93-17.1S408.05,34,408.05,34Z"/><path class="cls-9" d="M399,53.75s7.91-13.39,8.54-12.48-7.93,17.1-7.93,17.1Z"/><path class="cls-20" d="M398.52,36.35s-.73,27.13.33,29.28,1.44.07,1.44.07l-.21-20.27L400,36.76S399.66,34.4,398.52,36.35Z"/><g id="tulip-20" data-name="tulip"><path class="cls-159" d="M399.84,21.6s.54-1.84,4.17-2.76a5.8,5.8,0,0,1,1.81,2.76S400,38.75,399.84,21.6Z"/><path class="cls-160" d="M401.11,25.48s.9-6.64,4.53-5C408.9,22,408.18,27,408.18,27l-4.72,5.72Z"/><path class="cls-161" d="M402.9,20.75l.1,0a3,3,0,0,1,3.55,1.63,14.16,14.16,0,0,1,1.91,3.9,0,0,0,1,0,0,0C408.32,24.3,407.37,17.88,402.9,20.75Z"/><path class="cls-162" d="M399.47,21.23A35,35,0,0,0,404.23,19l1.39,2.21.2-.13s-1-2.63-1.39-2.63C403.61,18.47,399.47,21.1,399.47,21.23Z"/><path class="cls-163" d="M392.76,24.37s.91-9,6.71-5.9c0,0,2.18,1.11,1.45,4.61S394,33.77,392.76,24.37Z"/><path class="cls-164" d="M398.93,18.1s-4.53-.92-4.72,8.3l-1.45-1.85S393.49,15.89,398.93,18.1Z"/><path class="cls-165" d="M391.31,26.21s7.26-8.85,9.25-3.5c0,0,2.9-4.61,5.8,4.79S393.67,45.58,391.31,26.21Z"/><path class="cls-166" d="M407.6,21.05s-6.59,2.77-8.13,15.49v1.29S413.09,35.43,407.6,21.05Z"/><path class="cls-167" d="M392.4,21.05s5.44,2.77,6.71,15.49v1.29S387.87,35.43,392.4,21.05Z"/></g></g></g></svg>