<svg xmlns="http://www.w3.org/2000/svg" viewBox="0 0 157.44 147.59"><defs><style>.cls-1{fill:#97dae3;}.cls-10,.cls-11,.cls-2,.cls-3,.cls-4,.cls-5,.cls-6,.cls-7,.cls-8,.cls-9{fill:none;stroke:#fff;stroke-linecap:round;stroke-miterlimit:10;}.cls-2{stroke-width:0.93px;}.cls-3{stroke-width:0.49px;}.cls-4{stroke-width:0.72px;}.cls-5{stroke-width:0.38px;}.cls-6{stroke-width:1.03px;}.cls-7{stroke-width:0.54px;}.cls-8{stroke-width:0.81px;}.cls-9{stroke-width:0.43px;}.cls-10{stroke-width:0.87px;}.cls-11{stroke-width:0.46px;}.cls-12{fill:#f9ce5d;}</style></defs><title>bees</title><g id="Layer_2" data-name="Layer 2"><g id="bugs"><g id="left_wing" data-name="left wing"><path class="cls-1" d="M101.5,73.37c1-1.33,8.89-.65,14.63,3.66s7.15,10.61,6.15,12-7.54.31-13.28-4S100.5,74.7,101.5,73.37Z"/><path class="cls-2" d="M102.91,74.77c.55,4.16,6.71,9.82,12.11,10.41"/></g><g id="right_wing" data-name="right wing"><path class="cls-1" d="M129.66,61.08c-1.64-.26-6.84,5.72-8,12.81s2.24,12.6,3.88,12.86,5.65-5,6.78-12.1S131.31,61.34,129.66,61.08Z"/><path class="cls-2" d="M130.48,73.91a11.61,11.61,0,0,1-.86,3.3"/><path class="cls-3" d="M129.29,78.82a8.34,8.34,0,0,1-.76,1.75"/><path class="cls-2" d="M129.86,62.55c1.42,2.09,1.68,5.92.88,9.52"/></g><g id="left_wing-2" data-name="left wing"><path class="cls-1" d="M119.36,9.54c.78-1,6.9-.51,11.35,2.84s5.55,8.23,4.77,9.26-5.85.25-10.3-3.09S118.58,10.57,119.36,9.54Z"/><path class="cls-4" d="M120.46,10.62c.42,3.23,5.2,7.62,9.39,8.08"/></g><g id="right_wing-2" data-name="right wing"><path class="cls-1" d="M141.21,0C139.93-.2,135.9,4.44,135,9.94s1.74,9.77,3,10,4.37-3.89,5.25-9.39S142.48.21,141.21,0Z"/><path class="cls-4" d="M141.84,10a8.69,8.69,0,0,1-.66,2.55"/><path class="cls-5" d="M140.92,13.76a7,7,0,0,1-.59,1.37"/><path class="cls-4" d="M141.36,1.15c1.1,1.61,1.31,4.58.68,7.38"/></g><g id="left_wing-3" data-name="left wing"><path class="cls-1" d="M27.09,106.39c1.1-1.47,9.82-.72,16.17,4s7.9,11.73,6.79,13.21-8.33.35-14.67-4.41S26,107.86,27.09,106.39Z"/><path class="cls-6" d="M28.65,107.94c.6,4.6,7.41,10.85,13.38,11.51"/></g><g id="right_wing-3" data-name="right wing"><path class="cls-1" d="M58.21,92.81c-1.82-.29-7.57,6.32-8.81,14.15s2.47,13.93,4.29,14.22,6.24-5.54,7.48-13.37S60,93.1,58.21,92.81Z"/><path class="cls-6" d="M59.11,107a12.5,12.5,0,0,1-1,3.64"/><path class="cls-7" d="M57.8,112.41a10,10,0,0,1-.84,1.94"/><path class="cls-6" d="M58.42,94.44c1.57,2.3,1.86,6.53,1,10.51"/></g><g id="left_wing-4" data-name="left wing"><path class="cls-1" d="M58.94,27.55c.88-1.17,7.81-.57,12.85,3.21s6.28,9.32,5.4,10.49-6.62.28-11.66-3.5S58.06,28.72,58.94,27.55Z"/><path class="cls-8" d="M60.18,28.78c.48,3.66,5.89,8.63,10.63,9.15"/></g><g id="right_wing-4" data-name="right wing"><path class="cls-1" d="M83.67,16.77c-1.45-.23-6,5-7,11.24s2,11.06,3.42,11.29S85,34.9,86,28.68,85.11,17,83.67,16.77Z"/><path class="cls-8" d="M84.39,28a10.24,10.24,0,0,1-.76,2.89"/><path class="cls-9" d="M83.34,32.33a7.72,7.72,0,0,1-.67,1.55"/><path class="cls-8" d="M83.84,18.06c1.24,1.83,1.47,5.19.77,8.35"/></g><g id="left_wing-5" data-name="left wing"><path class="cls-1" d="M.19,57.34c.93-1.25,8.31-.61,13.68,3.42s6.68,9.92,5.75,11.16-7,.3-12.42-3.73S-.75,58.58.19,57.34Z"/><path class="cls-10" d="M1.51,58.64c.51,3.9,6.27,9.19,11.32,9.74"/></g><g id="right_wing-5" data-name="right wing"><path class="cls-1" d="M26.51,45.85c-1.53-.24-6.39,5.35-7.45,12s2.09,11.78,3.63,12S28,65.16,29,58.53,28.05,46.1,26.51,45.85Z"/><path class="cls-10" d="M27.28,57.84a10.81,10.81,0,0,1-.8,3.08"/><path class="cls-11" d="M26.17,62.43a8.64,8.64,0,0,1-.71,1.64"/><path class="cls-10" d="M26.7,47.23c1.32,1.94,1.57,5.52.82,8.89"/></g><g id="bee"><path class="cls-12" d="M116.34,90.41c-1.08.89-2.11,1.81-3.07,2.75,2.76,13.44,7.43,16.54,8.36,17.42.86,0,1.74.07,2.63.07l-.09-.15A54.3,54.3,0,0,1,116.34,90.41Z"/><path class="cls-12" d="M109.19,97.65c-2.85,3.59-4.64,7-5,9.48,0,.14,4.39,1.77,10.73,2.76-2.76-3.21-4.74-8.8-5.73-12.07C109.21,97.77,109.21,97.71,109.19,97.65Z"/><path class="cls-12" d="M150.18,88.56c-1.33-4.41-7.69-8.4-15.5-7.19.72,16,6.52,21.66,8.13,23.59C148.55,100.39,151.76,93.85,150.18,88.56Z"/><path class="cls-12" d="M123.34,85.58c1.87,13.91,6.08,21.35,8,24.58a25,25,0,0,0,4.51-1.24A46.53,46.53,0,0,1,127,83.76,38.6,38.6,0,0,0,123.34,85.58Z"/><path d="M133.47,81.6A35.31,35.31,0,0,0,127,83.76a46.53,46.53,0,0,0,8.83,25.16,26.08,26.08,0,0,0,7-4c-1.61-1.93-7.41-7.57-8.13-23.59C134.28,81.44,133.88,81.51,133.47,81.6Z"/><path d="M116.34,90.41a54.3,54.3,0,0,0,7.83,20.09l.09.15a49,49,0,0,0,5.5-.27c.52-.06,1-.14,1.54-.22-1.88-3.23-6.09-10.67-8-24.58A47.17,47.17,0,0,0,116.34,90.41Z"/><path d="M113.27,93.16a47.5,47.5,0,0,0-4.08,4.49c0,.06,0,.12,0,.17,1,3.27,3,8.86,5.73,12.07a64.61,64.61,0,0,0,6.67.69C120.7,109.7,116,106.6,113.27,93.16Z"/><path class="cls-12" d="M139.21,88.85a2.54,2.54,0,0,1,1.54-2.54c1.78-.7,3,1.48,3,1.48"/><path d="M139.21,88.85a2.24,2.24,0,0,1,.11-1.82,2.41,2.41,0,0,1,1.54-1.23,2.1,2.1,0,0,1,1.94.45,2.81,2.81,0,0,1,1,1.54,6.93,6.93,0,0,0-1.36-.94,1.78,1.78,0,0,0-1.3-.16,2.38,2.38,0,0,0-1.18.73A3.84,3.84,0,0,0,139.21,88.85Z"/></g><g id="bee-2" data-name="bee"><path class="cls-12" d="M130.87,22.75c-.84.7-1.63,1.41-2.38,2.14,2.15,10.42,5.77,12.83,6.49,13.51.67,0,1.35.05,2,.06l-.08-.12A42.41,42.41,0,0,1,130.87,22.75Z"/><path class="cls-12" d="M125.33,28.37c-2.21,2.79-3.6,5.46-3.85,7.36a34.55,34.55,0,0,0,8.32,2.14c-2.14-2.5-3.67-6.83-4.44-9.37Z"/><path class="cls-12" d="M157.12,21.32c-1-3.42-6-6.52-12-5.57.56,12.42,5.06,16.8,6.3,18.29C155.86,30.5,158.35,25.42,157.12,21.32Z"/><path class="cls-12" d="M136.3,19c1.46,10.79,4.72,16.56,6.18,19.06a19.42,19.42,0,0,0,3.5-1,36.05,36.05,0,0,1-6.85-19.53C138.16,18,137.22,18.49,136.3,19Z"/><path d="M144.16,15.92a27.74,27.74,0,0,0-5,1.67A36.05,36.05,0,0,0,146,37.12,20.29,20.29,0,0,0,151.4,34c-1.24-1.49-5.74-5.87-6.3-18.29C144.79,15.8,144.48,15.85,144.16,15.92Z"/><path d="M130.87,22.75a42.41,42.41,0,0,0,6.07,15.59l.08.12a41.17,41.17,0,0,0,4.26-.21q.6-.07,1.2-.18C141,35.57,137.76,29.8,136.3,19A37.53,37.53,0,0,0,130.87,22.75Z"/><path d="M128.49,24.89a37,37,0,0,0-3.16,3.48l0,.13c.77,2.54,2.3,6.87,4.44,9.37a48.93,48.93,0,0,0,5.18.53C134.26,37.72,130.64,35.31,128.49,24.89Z"/><path class="cls-12" d="M148.62,21.55a2,2,0,0,1,1.19-2c1.38-.55,2.33,1.14,2.33,1.14"/><path d="M148.62,21.55a1.73,1.73,0,0,1,.08-1.42,1.87,1.87,0,0,1,1.19-.95,1.66,1.66,0,0,1,1.51.35,2.16,2.16,0,0,1,.74,1.19,5.54,5.54,0,0,0-1-.73,1.4,1.4,0,0,0-1-.12,1.89,1.89,0,0,0-.91.56A2.8,2.8,0,0,0,148.62,21.55Z"/></g><g id="bee-3" data-name="bee"><path class="cls-12" d="M43.48,125.22c-1.19,1-2.32,2-3.39,3,3.06,14.86,8.22,18.28,9.24,19.26,1,.05,1.92.07,2.91.08l-.11-.16A60.31,60.31,0,0,1,43.48,125.22Z"/><path class="cls-12" d="M35.59,133.22c-3.15,4-5.13,7.78-5.49,10.48,0,.15,4.85,2,11.86,3.05-3.05-3.56-5.24-9.73-6.33-13.34A1.06,1.06,0,0,1,35.59,133.22Z"/><path class="cls-12" d="M80.88,123.18c-1.47-4.88-8.5-9.29-17.13-7.94.79,17.69,7.21,23.93,9,26.05C79.08,136.25,82.63,129,80.88,123.18Z"/><path class="cls-12" d="M51.22,119.88c2.07,15.37,6.72,23.59,8.8,27.16a27.84,27.84,0,0,0,5-1.36,51.38,51.38,0,0,1-9.76-27.81A44.49,44.49,0,0,0,51.22,119.88Z"/><path d="M62.41,115.49a37.84,37.84,0,0,0-7.16,2.38A51.38,51.38,0,0,0,65,145.68a28.82,28.82,0,0,0,7.72-4.39c-1.77-2.12-8.19-8.36-9-26C63.31,115.31,62.87,115.39,62.41,115.49Z"/><path d="M43.48,125.22a60.31,60.31,0,0,0,8.65,22.21l.11.16a57,57,0,0,0,6.07-.3c.58-.07,1.14-.15,1.71-.25-2.08-3.57-6.73-11.79-8.8-27.16A53.56,53.56,0,0,0,43.48,125.22Z"/><path d="M40.09,128.25a53.34,53.34,0,0,0-4.5,5,1.06,1.06,0,0,0,0,.19c1.09,3.61,3.28,9.78,6.33,13.34a72.09,72.09,0,0,0,7.37.76C48.31,146.53,43.15,143.11,40.09,128.25Z"/><path class="cls-12" d="M68.76,123.5a2.79,2.79,0,0,1,1.7-2.81c2-.77,3.32,1.64,3.32,1.64"/><path d="M68.76,123.5a2.51,2.51,0,0,1,.12-2,2.71,2.71,0,0,1,1.7-1.36,2.38,2.38,0,0,1,2.15.5,3.13,3.13,0,0,1,1,1.71,7.77,7.77,0,0,0-1.49-1,2.51,2.51,0,0,0-.74-.23,1.55,1.55,0,0,0-.71,0,2.66,2.66,0,0,0-1.29.8A4.24,4.24,0,0,0,68.76,123.5Z"/></g><g id="bee-4" data-name="bee"><path class="cls-12" d="M72,42.51c-1,.78-1.85,1.59-2.7,2.41,2.43,11.8,6.53,14.53,7.34,15.3q1.14.06,2.31.06l-.08-.13A47.83,47.83,0,0,1,72,42.51Z"/><path class="cls-12" d="M65.69,48.87c-2.5,3.15-4.07,6.18-4.35,8.32a38.78,38.78,0,0,0,9.42,2.42c-2.42-2.82-4.16-7.72-5-10.59C65.71,49,65.71,48.92,65.69,48.87Z"/><path class="cls-12" d="M101.68,40.89c-1.17-3.87-6.75-7.38-13.61-6.31.63,14.06,5.73,19,7.13,20.7C100.25,51.28,103.07,45.53,101.68,40.89Z"/><path class="cls-12" d="M78.11,38.27c1.65,12.21,5.34,18.74,7,21.58a22.78,22.78,0,0,0,4-1.08,40.84,40.84,0,0,1-7.76-22.1C80.22,37.15,79.15,37.69,78.11,38.27Z"/><path d="M87,34.78a31,31,0,0,0-5.7,1.89,40.84,40.84,0,0,0,7.76,22.1,22.77,22.77,0,0,0,6.13-3.49c-1.4-1.69-6.5-6.64-7.13-20.7C87.72,34.64,87.37,34.7,87,34.78Z"/><path d="M72,42.51a47.83,47.83,0,0,0,6.87,17.64l.08.13A41.66,41.66,0,0,0,83.75,60c.45,0,.91-.11,1.35-.19-1.65-2.84-5.34-9.37-7-21.58A42,42,0,0,0,72,42.51Z"/><path d="M69.27,44.92a44.09,44.09,0,0,0-3.58,3.95c0,.05,0,.1,0,.15.87,2.87,2.61,7.77,5,10.59a52.88,52.88,0,0,0,5.85.61C75.8,59.45,71.7,56.72,69.27,44.92Z"/><path class="cls-12" d="M92.05,41.15a2.22,2.22,0,0,1,1.35-2.23C95,38.3,96,40.21,96,40.21"/><path d="M92.05,41.15a2,2,0,0,1,.09-1.61,2.19,2.19,0,0,1,1.35-1.08,1.86,1.86,0,0,1,1.71.4A2.56,2.56,0,0,1,96,40.21a5.92,5.92,0,0,0-1.19-.82,1.53,1.53,0,0,0-1.15-.14,2.09,2.09,0,0,0-1,.64A3.17,3.17,0,0,0,92.05,41.15Z"/></g><g id="bee-5" data-name="bee"><path class="cls-12" d="M14.06,73.26c-1,.83-2,1.7-2.87,2.57,2.58,12.56,7,15.46,7.82,16.29.8,0,1.62.06,2.45.06l-.08-.13A50.89,50.89,0,0,1,14.06,73.26Z"/><path class="cls-12" d="M7.38,80C4.72,83.39,3,86.61,2.74,88.89c0,.13,4.1,1.65,10,2.58-2.58-3-4.43-8.23-5.35-11.28A.75.75,0,0,1,7.38,80Z"/><path class="cls-12" d="M45.69,71.54c-1.24-4.13-7.19-7.86-14.49-6.72.67,15,6.1,20.24,7.6,22C44.17,82.59,47.17,76.48,45.69,71.54Z"/><path class="cls-12" d="M20.6,68.75c1.75,13,5.68,20,7.45,23a22.74,22.74,0,0,0,4.21-1.15A43.49,43.49,0,0,1,24,67C22.84,67.56,21.71,68.13,20.6,68.75Z"/><path d="M30.07,65A33.13,33.13,0,0,0,24,67a43.49,43.49,0,0,0,8.25,23.53,24.23,24.23,0,0,0,6.54-3.71c-1.5-1.8-6.93-7.07-7.6-22Z"/><path d="M14.06,73.26a50.89,50.89,0,0,0,7.32,18.79l.08.13a47.27,47.27,0,0,0,5.14-.25c.49-.05,1-.13,1.45-.21-1.77-3-5.7-10-7.45-23A44.81,44.81,0,0,0,14.06,73.26Z"/><path d="M11.19,75.83A46.69,46.69,0,0,0,7.38,80a.75.75,0,0,0,0,.16c.92,3,2.77,8.28,5.35,11.28a59.6,59.6,0,0,0,6.24.65C18.14,91.29,13.77,88.39,11.19,75.83Z"/><path class="cls-12" d="M35.44,71.81a2.36,2.36,0,0,1,1.44-2.38c1.66-.65,2.81,1.39,2.81,1.39"/><path d="M35.44,71.81a2.1,2.1,0,0,1,.1-1.71A2.29,2.29,0,0,1,37,69a2,2,0,0,1,1.81.42,2.67,2.67,0,0,1,.9,1.45,6.06,6.06,0,0,0-1.27-.88,1.66,1.66,0,0,0-1.22-.15,2.18,2.18,0,0,0-1.1.68A3.5,3.5,0,0,0,35.44,71.81Z"/></g></g></g></svg>