<svg xmlns="http://www.w3.org/2000/svg" viewBox="0 0 112.61 107"><defs><style>.cls-1{fill:#e6cfbd;}.cls-2{fill:#8cac6d;}.cls-3{fill:#f9ffd1;}.cls-4{fill:#4b8a6d;}.cls-5{fill:#d2ae8e;}.cls-6{fill:#c7c26e;}.cls-7{fill:none;stroke:#f4f5af;stroke-linecap:round;stroke-miterlimit:10;stroke-width:0.7px;}.cls-8{fill:#fcec41;}.cls-9{fill:#ffffb6;}.cls-10{fill:#ff7d7d;}.cls-11{fill:#ffe4d0;}.cls-12{fill:#ee9134;}.cls-13{fill:#ca394e;}.cls-14{fill:#ff90a1;}</style></defs><title>bouquet</title><g id="Layer_2" data-name="Layer 2"><g id="bouquet"><g id="bouquet-2" data-name="bouquet"><path class="cls-1" d="M80.78,0S66.27,2.34,55.84,7.06q-1.46.66-2.79,1.38C51.24,34,38.14,87.14,38.14,87.14c6.43-1.58,50.08-10.87,54.31-8C92.45,79.13,101.68,60,80.78,0Z"/><path class="cls-2" d="M40,77.84s18.24-10.58,34.5,1.72c0,0-30.11-.76-35.15,3.3S40,77.84,40,77.84Z"/><path class="cls-3" d="M64,77.18s-16.6-1.52-21.39,2.09"/><path class="cls-2" d="M65.46,41.13S82.77,21,107.21,28.89c0,0-36.13,11.57-40.44,18.48S65.46,41.13,65.46,41.13Z"/><path class="cls-3" d="M93.78,30.38S73.41,35.45,69.21,41.73"/><path class="cls-4" d="M69.07,54.87s17.31-20.15,41.75-12.24c0,0-36.13,11.56-40.44,18.48S69.07,54.87,69.07,54.87Z"/><path class="cls-3" d="M97.39,44.12S77,49.19,72.83,55.46"/><path class="cls-4" d="M55.51,49.29s7.27-25.56,38.81-26.44c0,0-33,23.82-33.72,32S55.51,49.29,55.51,49.29Z"/><path class="cls-3" d="M80.41,29S60.94,41,60,48.55"/><path class="cls-4" d="M54.24,43.88S75.87,28.45,70.2,3.4c0,0-14.78,35-22.05,38.62S54.24,43.88,54.24,43.88Z"/><path class="cls-3" d="M67.5,16.64S60.62,36.47,54,40.09"/><path class="cls-2" d="M69.11,60.67s22.53-14.07,43.5.77c0,0-37.94.26-44.12,5.57S69.11,60.67,69.11,60.67Z"/><path class="cls-3" d="M99.35,58.85s-21-1.23-26.84,3.5"/><path class="cls-5" d="M49.11,11c-9.06,7.36-26.79,59.12-26.79,59.12a14.87,14.87,0,0,1-1.84,3.52h0a9.1,9.1,0,0,1-3.23,2.94,101.73,101.73,0,0,0-8.83,5.89L0,88.65A33.25,33.25,0,0,0,5.52,100a52.3,52.3,0,0,0,7.65,7c21-21.17,25-19.86,25-19.86S51.24,34,53.05,8.44A26.56,26.56,0,0,0,49.11,11Z"/><path class="cls-6" d="M55.22,36.27s7.89-19.55-6.59-33.91c0,0,5,29.7,1.71,35.26S55.22,36.27,55.22,36.27Z"/><path class="cls-7" d="M52.47,12.38s3.85,16.21,1,21.46"/><path class="cls-8" d="M70.46,45.73s4,6.57,14.89-2.57C85.35,43.16,73.14,36.68,70.46,45.73Z"/><path class="cls-9" d="M70.81,45.68c0-.16,0,0,.08,0s.11.13.16.19a3.76,3.76,0,0,0,.34.35,4.64,4.64,0,0,0,.8.6,5.43,5.43,0,0,0,1.85.73,8.16,8.16,0,0,0,4-.34A17.56,17.56,0,0,0,80,46.49c.61-.34,1.25-.62,1.83-1s1.19-.74,1.74-1.17L85.24,43l0,.29a23.09,23.09,0,0,0-4-1.62A15.14,15.14,0,0,0,77,41a7.07,7.07,0,0,0-4.12,1.17,6.87,6.87,0,0,0-2.39,3.56Zm-.47.47.12-.42a6.91,6.91,0,0,1,2.34-3.64A7.26,7.26,0,0,1,77,40.82a15.68,15.68,0,0,1,4.36.62A24.73,24.73,0,0,1,85.44,43l.24.13-.21.17-1.66,1.33c-.55.44-1.17.81-1.75,1.22s-1.23.71-1.85,1.08a19.22,19.22,0,0,1-2,.83,8.73,8.73,0,0,1-4.31.43,6.09,6.09,0,0,1-2.08-.77,5.71,5.71,0,0,1-.9-.65,5.14,5.14,0,0,1-.41-.4,1.92,1.92,0,0,1-.18-.22Z"/><path class="cls-8" d="M69.88,45.13s-.29,6.69,12,5.39C81.83,50.52,76.19,39.92,69.88,45.13Z"/><path class="cls-9" d="M70.19,45.29c.07-.16,0,0,0,.05s0,.14,0,.21a3,3,0,0,0,.08.41,4.53,4.53,0,0,0,.27.81,4.86,4.86,0,0,0,1,1.41,7,7,0,0,0,3.05,1.71,14.33,14.33,0,0,0,1.75.39c.6,0,1.2.16,1.8.16s1.22.05,1.82,0l1.82-.11-.13.26a20.35,20.35,0,0,0-2.11-3.12,13.11,13.11,0,0,0-2.73-2.58,6.17,6.17,0,0,0-3.51-1.16,5.89,5.89,0,0,0-3.45,1.39Zm-.65.13.34-.29a5.92,5.92,0,0,1,3.44-1.48,6.33,6.33,0,0,1,3.62,1.1,13.56,13.56,0,0,1,2.84,2.56A20.69,20.69,0,0,1,82,50.43l.14.24-.28,0L80,50.85c-.61,0-1.23,0-1.85,0s-1.24-.09-1.86-.13a16.43,16.43,0,0,1-1.83-.36,7.61,7.61,0,0,1-3.33-1.78A5.2,5.2,0,0,1,70,47a4.82,4.82,0,0,1-.34-.92,4.1,4.1,0,0,1-.1-.48Z"/><path class="cls-8" d="M71.41,46s5.89,2.24,8.36-9.08C79.77,36.87,68.63,38.76,71.41,46Z"/><path class="cls-9" d="M71.65,45.7c-.13-.11,0,0,0,0l.19,0,.39.06a3.57,3.57,0,0,0,.8,0,4.39,4.39,0,0,0,1.54-.44,6.59,6.59,0,0,0,2.43-2.21,13.11,13.11,0,0,0,.87-1.44c.22-.53.5-1,.68-1.57s.4-1.06.55-1.62l.44-1.66.21.22a15.58,15.58,0,0,0-6.52,2.63,5.84,5.84,0,0,0-2.09,2.78A6,6,0,0,0,71.41,46Zm-.1.65-.14-.4a6,6,0,0,1-.31-3.52,6,6,0,0,1,2.07-2.89,12.27,12.27,0,0,1,3.12-1.79,18.59,18.59,0,0,1,3.45-1l.27-.06-.07.27-.41,1.69c-.13.57-.34,1.11-.51,1.67s-.45,1.08-.66,1.62a12.9,12.9,0,0,1-.88,1.53,7.17,7.17,0,0,1-2.58,2.46,5,5,0,0,1-1.75.54,4,4,0,0,1-.92,0,3.75,3.75,0,0,1-.47-.05Z"/><path class="cls-8" d="M70.69,47.48s4.88-.24,2.94-12.32C73.63,35.16,66.39,41.61,70.69,47.48Z"/><path class="cls-9" d="M70.84,47.17a.19.19,0,0,0-.14,0h.12l.17,0a2.17,2.17,0,0,0,.35-.15,2.92,2.92,0,0,0,.62-.44,4.51,4.51,0,0,0,.94-1.29,9.89,9.89,0,0,0,.84-3.2,21.3,21.3,0,0,0,.06-3.39c0-1.14-.2-2.27-.34-3.4l.29.1a16.92,16.92,0,0,0-2.27,2.58,12.41,12.41,0,0,0-1.61,3,8,8,0,0,0-.44,3.39,7.43,7.43,0,0,0,1.26,3.19Zm.06.63-.21-.32a7.37,7.37,0,0,1-1.34-3.18,8,8,0,0,1,.35-3.46,12.35,12.35,0,0,1,1.57-3.12A16,16,0,0,1,73.52,35l.24-.23,0,.33c.17,1.14.35,2.28.43,3.43a22.32,22.32,0,0,1,0,3.47,10.56,10.56,0,0,1-.82,3.42,4.93,4.93,0,0,1-1,1.5,3.49,3.49,0,0,1-.75.56,2.48,2.48,0,0,1-.44.2l-.24.08Z"/><path class="cls-10" d="M55.72,24.13s-8.54,8.8-1.51,12.61,8.07-6.76,6.3-11.49C60.51,25.25,57.73,21.72,55.72,24.13Z"/><path class="cls-11" d="M59.5,26.45a8.33,8.33,0,0,0-2.94,2.25A3,3,0,0,0,56,30.28,3.79,3.79,0,0,0,56.3,32l0,0a3.15,3.15,0,0,1,.33,1,3.33,3.33,0,0,1-.71,2.76,4,4,0,0,0,.33-1.77,3.17,3.17,0,0,0-.15-.87,3.57,3.57,0,0,0-.33-.77h0v0a4,4,0,0,1-.46-2,3.33,3.33,0,0,1,.79-1.93,4.94,4.94,0,0,1,1.59-1.23A6.53,6.53,0,0,1,59.5,26.45Z"/><path class="cls-11" d="M57.3,26.62a1.54,1.54,0,0,1-1.43-.85,1.66,1.66,0,0,1,.07-1.8l.13-.17.21.11a3.21,3.21,0,0,0,1.79.06,2.58,2.58,0,0,1,1.12.15,1.24,1.24,0,0,1,.82,1,1.58,1.58,0,0,1-1.5,1.67,3.43,3.43,0,0,1-2-.67L56.39,26l0-.12.15-.53,0-.16.13.06a1.6,1.6,0,0,0,1.22.06,1.57,1.57,0,0,1-1.31.19l.17-.1-.06.55-.09-.19a3.27,3.27,0,0,0,1.77.42,1,1,0,0,0,.92-1c-.06-.42-.66-.63-1.26-.59A3.32,3.32,0,0,1,56,24.35l.34-.06A1.51,1.51,0,0,0,57.3,26.62Z"/><path class="cls-11" d="M52.93,34.41a.7.7,0,0,0,0-1.4.7.7,0,0,0,0,1.4Z"/><path class="cls-11" d="M52.22,32.53a.35.35,0,0,0,0-.7.35.35,0,0,0,0,.7Z"/><path class="cls-2" d="M53,47.33s10.6-23.51-13-34.65c0,0,10.22,30.58,5.58,37.58S53,47.33,53,47.33Z"/><path class="cls-3" d="M46.75,22.34S54.05,38.7,50,45.24"/><path class="cls-12" d="M76.82,51.2s-14.74.26-12,9.46,12.6,1.08,15.1-4.45C79.94,56.21,80.57,50.85,76.82,51.2Z"/><path class="cls-11" d="M78.07,56.38a10.16,10.16,0,0,0-4.41-.58,3.59,3.59,0,0,0-1.85.85,4.67,4.67,0,0,0-1.16,1.73v0a4,4,0,0,1-.54,1.11,3.86,3.86,0,0,1-.82.89,3.91,3.91,0,0,1-2.13.86A4.85,4.85,0,0,0,69,60a4.41,4.41,0,0,0,1-1.8v0A4.88,4.88,0,0,1,71.25,56a4.12,4.12,0,0,1,2.31-1,6,6,0,0,1,2.4.31A7.66,7.66,0,0,1,78.07,56.38Z"/><path class="cls-11" d="M76.05,54.66a1.57,1.57,0,0,1-.53-.87,2.24,2.24,0,0,1,0-1.06,2,2,0,0,1,1.58-1.48l.25,0,.08.27c.18.62.84,1,1.49,1.57a3.18,3.18,0,0,1,.82,1.07,1.51,1.51,0,0,1-.13,1.53,1.71,1.71,0,0,1-1.35.63A2,2,0,0,1,77,55.8a4.28,4.28,0,0,1-1.14-2.26l0-.16.13-.08.58-.32.18-.1,0,.16a1.92,1.92,0,0,0,1,1.09,1.89,1.89,0,0,1-1.27-1l.23.07-.53.41.09-.23a3.81,3.81,0,0,0,1.16,1.86A1.23,1.23,0,0,0,79,55.2c.31-.41,0-1.1-.57-1.58-.28-.24-.61-.5-.91-.81a2.23,2.23,0,0,1-.67-1.19l.33.24a1.53,1.53,0,0,0-1.28,1A1.75,1.75,0,0,0,76.05,54.66Z"/><path class="cls-11" d="M66.32,57.84a.84.84,0,0,0,0-1.68.84.84,0,0,0,0,1.68Z"/><path class="cls-11" d="M67,55.51a.42.42,0,0,0,0-.84.42.42,0,0,0,0,.84Z"/><path class="cls-12" d="M67.28,33s-9.77,2.23-6.65,8,8.53-1,9.42-5.07C70.05,35.93,69.73,32.27,67.28,33Z"/><path class="cls-11" d="M68.83,36.31a10.1,10.1,0,0,0-1.55-.06,4.79,4.79,0,0,0-1.47.28,2.55,2.55,0,0,0-1.11.83,3.32,3.32,0,0,0-.53,1.31v0a2.93,2.93,0,0,1-.63,1.51,2.66,2.66,0,0,1-1.3.88,3.32,3.32,0,0,0,1-1.06,2.79,2.79,0,0,0,.39-1.34v0h0A3.28,3.28,0,0,1,64.25,37a2.79,2.79,0,0,1,1.4-1,4.11,4.11,0,0,1,1.63-.12A4.84,4.84,0,0,1,68.83,36.31Z"/><path class="cls-11" d="M67.25,35.44a1.24,1.24,0,0,1-.6-1.22A1.39,1.39,0,0,1,67.5,33l.16-.06.09.18c.21.38.7.56,1.21.83a2.31,2.31,0,0,1,.7.6,1,1,0,0,1,.12,1,1.29,1.29,0,0,1-1.76.48,3,3,0,0,1-1.08-1.35l0-.1.08-.07.34-.3.1-.09.06.1a1.25,1.25,0,0,0,.81.58,1.28,1.28,0,0,1-1-.45h.16c-.1.12-.19.24-.29.35l0-.17a2.69,2.69,0,0,0,1,1.08.86.86,0,0,0,1.08-.28c.15-.32-.17-.73-.6-1S67.64,34,67.37,33.3l.25.12A1.23,1.23,0,0,0,67.25,35.44Z"/><path class="cls-11" d="M61.1,38.93a.58.58,0,0,0,0-1.15.58.58,0,0,0,0,1.15Z"/><path class="cls-8" d="M60,48.58s2.83,7.17,15.11.07C75.1,48.65,64.2,40.13,60,48.58Z"/><path class="cls-9" d="M60.34,48.59c0-.16,0,0,.08.06a2.25,2.25,0,0,0,.12.21,4.81,4.81,0,0,0,.27.41,4.64,4.64,0,0,0,.68.72,5.25,5.25,0,0,0,1.69,1,8.2,8.2,0,0,0,4,.38,18,18,0,0,0,2-.42c.65-.23,1.33-.39,2-.68s1.3-.52,1.92-.84l1.87-1,0,.29a22.92,22.92,0,0,0-3.68-2.3,15.42,15.42,0,0,0-4.09-1.43,7.11,7.11,0,0,0-4.25.43,6.76,6.76,0,0,0-3,3.09ZM59.8,49l.19-.39a6.8,6.8,0,0,1,2.94-3.17,7.28,7.28,0,0,1,4.32-.53,15.89,15.89,0,0,1,4.18,1.37,23.76,23.76,0,0,1,3.78,2.26l.22.16-.24.13-1.87,1c-.62.35-1.29.6-1.93.9s-1.34.49-2,.74a18.26,18.26,0,0,1-2.1.47A8.67,8.67,0,0,1,63,51.61a6.28,6.28,0,0,1-1.92-1.12,6,6,0,0,1-.78-.81,3.76,3.76,0,0,1-.32-.46c-.05-.08-.11-.16-.15-.24Z"/><path class="cls-8" d="M59.52,47.89s-1.45,6.54,10.83,7.39C70.35,55.28,66.64,43.86,59.52,47.89Z"/><path class="cls-9" d="M59.8,48.1c.09-.15,0,0,0,0a1.48,1.48,0,0,0,0,.21,2,2,0,0,0,0,.42,4.06,4.06,0,0,0,.13.85,4.61,4.61,0,0,0,.7,1.55,7.07,7.07,0,0,0,2.7,2.22,16.11,16.11,0,0,0,1.66.69c.58.15,1.15.37,1.75.48s1.18.25,1.79.32l1.81.21-.18.23a20.28,20.28,0,0,0-1.53-3.44,13.17,13.17,0,0,0-2.24-3,6.16,6.16,0,0,0-3.26-1.76,5.86,5.86,0,0,0-3.63.77Zm-.66,0,.38-.22A5.92,5.92,0,0,1,63.17,47a6.28,6.28,0,0,1,3.37,1.72,13.49,13.49,0,0,1,2.35,3,21.45,21.45,0,0,1,1.63,3.46l.09.26-.27,0-1.84-.17c-.62-.06-1.22-.2-1.83-.29s-1.21-.3-1.81-.45a13.63,13.63,0,0,1-1.74-.68,7.57,7.57,0,0,1-3-2.33,5.35,5.35,0,0,1-.84-1.75,4.5,4.5,0,0,1-.17-1,2.79,2.79,0,0,1,0-.5A1.62,1.62,0,0,1,59.14,48.11Z"/><path class="cls-8" d="M60.88,49s5.41,3.24,9.82-7.48C70.7,41.48,59.4,41.4,60.88,49Z"/><path class="cls-9" d="M61.17,48.76c-.12-.13,0,0,0,0l.18.08c.12,0,.25.08.37.12a3.54,3.54,0,0,0,.79.14,4.52,4.52,0,0,0,1.59-.17,6.61,6.61,0,0,0,2.78-1.75A15.06,15.06,0,0,0,68,45.89c.31-.48.67-.92.94-1.42s.58-1,.83-1.5l.72-1.56.17.25a15.67,15.67,0,0,0-6.88,1.45,5.9,5.9,0,0,0-2.55,2.37A6,6,0,0,0,60.88,49Zm-.22.62L60.88,49a6.07,6.07,0,0,1,.32-3.52A6,6,0,0,1,63.74,43a12.3,12.3,0,0,1,3.38-1.21,19.57,19.57,0,0,1,3.58-.44H71l-.11.25-.7,1.59c-.23.54-.53,1-.8,1.55s-.62,1-.93,1.49-.71.93-1.12,1.36a7.29,7.29,0,0,1-3,2,5,5,0,0,1-1.81.23,4.08,4.08,0,0,1-.92-.13,3.88,3.88,0,0,1-.45-.14Z"/><path class="cls-8" d="M59.91,50.34s4.85.62,5-11.61C65,38.73,56.7,43.81,59.91,50.34Z"/><path class="cls-9" d="M60.11,50.06A.18.18,0,0,0,60,50h.12l.18,0c.12,0,.25,0,.36-.08a3.45,3.45,0,0,0,.7-.33,4.62,4.62,0,0,0,1.14-1.11,9.91,9.91,0,0,0,1.39-3,22,22,0,0,0,.65-3.33c.15-1.13.2-2.27.26-3.41l.27.16A16.14,16.14,0,0,0,62.37,41a12.37,12.37,0,0,0-2.13,2.7,8,8,0,0,0-1,3.26,7.26,7.26,0,0,0,.68,3.36Zm0,.64-.15-.36A7.39,7.39,0,0,1,59.14,47a8.22,8.22,0,0,1,1-3.35,12.62,12.62,0,0,1,2.09-2.8,16.48,16.48,0,0,1,2.68-2.25l.28-.19v.34c0,1.15,0,2.3-.17,3.45a22.22,22.22,0,0,1-.58,3.42A10.58,10.58,0,0,1,63,48.82a5.1,5.1,0,0,1-1.28,1.3,3.54,3.54,0,0,1-.85.42,2.39,2.39,0,0,1-.46.12l-.25,0Z"/><path class="cls-10" d="M59.38,40.15s-11.1,5.22-5.87,11.27,9.94-3.48,10-8.53C63.46,42.89,62.11,38.6,59.38,40.15Z"/><path class="cls-11" d="M62.1,43.66a8.28,8.28,0,0,0-3.55,1.06A3,3,0,0,0,57.44,46a3.91,3.91,0,0,0-.3,1.71v0a3,3,0,0,1,0,1,3.21,3.21,0,0,1-.31.95A3.4,3.4,0,0,1,55.46,51a3.89,3.89,0,0,0,.94-1.54,3.64,3.64,0,0,0,.17-.86,3.31,3.31,0,0,0,0-.84v0h0a4.08,4.08,0,0,1,.28-2.06,3.37,3.37,0,0,1,1.42-1.52,5,5,0,0,1,1.92-.59A6.76,6.76,0,0,1,62.1,43.66Z"/><path class="cls-11" d="M60,43a1.53,1.53,0,0,1-1-1.3,1.65,1.65,0,0,1,.7-1.66l.19-.12.15.19c.34.41,1,.49,1.66.68a2.55,2.55,0,0,1,1,.54,1.25,1.25,0,0,1,.42,1.2,1.59,1.59,0,0,1-2,1,3.52,3.52,0,0,1-1.64-1.33l-.08-.12.07-.09.33-.45.1-.13.1.1a1.59,1.59,0,0,0,1.12.49,1.62,1.62,0,0,1-1.3-.29l.2,0-.25.49,0-.21a3.31,3.31,0,0,0,1.51,1,1,1,0,0,0,1.22-.62c.09-.41-.4-.82-1-1a3.34,3.34,0,0,1-1.88-1l.34.07A1.51,1.51,0,0,0,60,43Z"/><path class="cls-11" d="M53.38,48.83a.7.7,0,0,0,0-1.4.7.7,0,0,0,0,1.4Z"/><path class="cls-11" d="M53.27,46.8a.35.35,0,0,0,0-.7.35.35,0,0,0,0,.7Z"/><path class="cls-10" d="M69.83,45s-11.28,4.8-6.28,11S73.61,53,73.81,47.92C73.81,47.92,72.62,43.59,69.83,45Z"/><path class="cls-11" d="M72.42,48.64a8.48,8.48,0,0,0-3.59.93,3,3,0,0,0-1.16,1.23,3.87,3.87,0,0,0-.35,1.7v0a2.87,2.87,0,0,1-.07,1,3.13,3.13,0,0,1-.35.94,3.3,3.3,0,0,1-1.38,1.34,4.07,4.07,0,0,0,1-1.51,3.74,3.74,0,0,0,.2-.85,3.89,3.89,0,0,0,0-.84v0h0a4.16,4.16,0,0,1,.35-2A3.39,3.39,0,0,1,68.52,49a5.06,5.06,0,0,1,2-.52A6.71,6.71,0,0,1,72.42,48.64Z"/><path class="cls-11" d="M70.32,47.94a1.51,1.51,0,0,1-1-1.33A1.65,1.65,0,0,1,70.1,45l.18-.11.15.19a3.18,3.18,0,0,0,1.63.75,2.73,2.73,0,0,1,1,.57,1.3,1.3,0,0,1,.37,1.22,1.58,1.58,0,0,1-2,.95,3.38,3.38,0,0,1-1.58-1.39L69.71,47l.08-.09.35-.43.1-.13.1.11a1.6,1.6,0,0,0,1.1.52,1.61,1.61,0,0,1-1.29-.33l.2,0-.27.48v-.21A3.38,3.38,0,0,0,71.55,48a1,1,0,0,0,1.23-.57c.11-.41-.36-.84-.93-1A3.3,3.3,0,0,1,70,45.34l.34.09A1.51,1.51,0,0,0,70.32,47.94Z"/><path class="cls-11" d="M63.54,53.49a.7.7,0,0,0,0-1.4.7.7,0,0,0,0,1.4Z"/><path class="cls-11" d="M63.49,51.45a.35.35,0,0,0,0-.7.35.35,0,0,0,0,.7Z"/><path class="cls-12" d="M51.75,32.06s-9.68,7.54-3.24,12.28,8.92-5.57,7.82-10.51C56.33,33.83,54.07,30,51.75,32.06Z"/><path class="cls-11" d="M55.17,34.89a8.32,8.32,0,0,0-3.23,1.81,3,3,0,0,0-.8,1.49,3.78,3.78,0,0,0,.09,1.73v0a3.57,3.57,0,0,1,.09,2,3.37,3.37,0,0,1-1,1.64,4.1,4.1,0,0,0,.58-1.71,3.23,3.23,0,0,0,0-.88,3.32,3.32,0,0,0-.23-.81v0h0a4,4,0,0,1-.18-2.06,3.4,3.4,0,0,1,1-1.81,5,5,0,0,1,1.75-1A6.33,6.33,0,0,1,55.17,34.89Z"/><path class="cls-11" d="M53,34.74a1.52,1.52,0,0,1-1.3-1A1.67,1.67,0,0,1,52,31.93l.16-.15.19.15a3.36,3.36,0,0,0,1.77.3,2.63,2.63,0,0,1,1.09.3,1.28,1.28,0,0,1,.67,1.08,1.58,1.58,0,0,1-1.72,1.44,3.46,3.46,0,0,1-1.89-.93l-.11-.1,0-.11.23-.5.07-.16.12.09a1.64,1.64,0,0,0,1.2.22,1.55,1.55,0,0,1-1.33,0l.19-.07-.15.54-.06-.2a3.32,3.32,0,0,0,1.7.66,1,1,0,0,0,1.05-.87c0-.43-.57-.71-1.17-.76a3.27,3.27,0,0,1-2-.55h.34A1.5,1.5,0,0,0,53,34.74Z"/><path class="cls-11" d="M47.66,41.87a.7.7,0,0,0,0-1.4.7.7,0,0,0,0,1.4Z"/><path class="cls-11" d="M47.17,39.9a.35.35,0,0,0,0-.7.35.35,0,0,0,0,.7Z"/><path class="cls-12" d="M62.43,51.45s-11.68,3.76-7.26,10.42,10.29-2.18,11-7.19C66.12,54.68,65.33,50.26,62.43,51.45Z"/><path class="cls-11" d="M64.67,55.27a8.5,8.5,0,0,0-3.66.6A3.12,3.12,0,0,0,59.75,57a3.85,3.85,0,0,0-.51,1.66v0a3.29,3.29,0,0,1-.16,1,3.58,3.58,0,0,1-.44.9,3.3,3.3,0,0,1-1.49,1.21,4.1,4.1,0,0,0,1.13-1.41,4.23,4.23,0,0,0,.27-.83,4.14,4.14,0,0,0,.07-.84v0a4.14,4.14,0,0,1,.54-2,3.37,3.37,0,0,1,1.61-1.33,4.86,4.86,0,0,1,2-.33A6.6,6.6,0,0,1,64.67,55.27Z"/><path class="cls-11" d="M62.65,54.38A1.49,1.49,0,0,1,61.79,53a1.66,1.66,0,0,1,.9-1.57l.2-.08.13.2c.29.45.91.62,1.55.89a2.53,2.53,0,0,1,.92.66,1.28,1.28,0,0,1,.27,1.24,1.59,1.59,0,0,1-2.11.77,3.44,3.44,0,0,1-1.45-1.53l-.08-.12.09-.09.38-.4.12-.12.08.12a1.62,1.62,0,0,0,1.05.62,1.56,1.56,0,0,1-1.24-.45h.2l-.32.45v-.21a3.33,3.33,0,0,0,1.37,1.21,1.05,1.05,0,0,0,1.29-.46c.14-.4-.3-.87-.85-1.12s-1.33-.46-1.73-1.21l.32.11A1.5,1.5,0,0,0,62.65,54.38Z"/><path class="cls-11" d="M55.46,59.3a.71.71,0,0,0,0-1.41.71.71,0,0,0,0,1.41Z"/><path class="cls-11" d="M55.55,57.26a.35.35,0,0,0,0-.7.35.35,0,0,0,0,.7Z"/><path class="cls-11" d="M73.26,34.56a.29.29,0,0,0,0-.57.29.29,0,0,0,0,.57Z"/><path class="cls-8" d="M46,54.28s7.33,2.41,9.71-11.58C55.69,42.7,42.17,45.65,46,54.28Z"/><path class="cls-9" d="M46.22,54c-.13-.1,0,0,.09,0l.24,0a3.87,3.87,0,0,0,.49.05A4.71,4.71,0,0,0,48,54a5.31,5.31,0,0,0,1.88-.64,8.16,8.16,0,0,0,2.86-2.86,17.84,17.84,0,0,0,1-1.83c.24-.65.55-1.28.74-2s.43-1.34.58-2l.44-2.06.22.21a23.22,23.22,0,0,0-4.13,1.36,15.38,15.38,0,0,0-3.71,2.23A7.2,7.2,0,0,0,45.5,50,6.81,6.81,0,0,0,46,54.28Zm-.06.66-.18-.4A6.87,6.87,0,0,1,45.42,50a7.18,7.18,0,0,1,2.35-3.66A15.34,15.34,0,0,1,51.49,44a23.35,23.35,0,0,1,4.16-1.47l.27-.07-.06.27-.4,2.09c-.14.7-.37,1.37-.55,2.06s-.48,1.34-.71,2a18.12,18.12,0,0,1-1,1.91,8.65,8.65,0,0,1-3,3.12,6.11,6.11,0,0,1-2.08.75,5.24,5.24,0,0,1-1.12.09,5.46,5.46,0,0,1-.56,0,2.74,2.74,0,0,1-.28,0Z"/><path class="cls-8" d="M45.15,54.21s4.11,5.29,12.6-3.62C57.75,50.59,46.6,46.15,45.15,54.21Z"/><path class="cls-9" d="M45.49,54.12c-.05-.16,0,0,.06,0l.15.15c.1.1.22.18.33.27a4.11,4.11,0,0,0,.73.43,5,5,0,0,0,1.65.46,7.12,7.12,0,0,0,3.43-.67,14.14,14.14,0,0,0,1.59-.83c.49-.35,1-.65,1.48-1s1-.75,1.4-1.17l1.31-1.26.07.29a20.51,20.51,0,0,0-3.62-1,13.57,13.57,0,0,0-3.76-.2,6.17,6.17,0,0,0-3.43,1.39,5.87,5.87,0,0,0-1.73,3.29Zm-.41.52.07-.43a5.89,5.89,0,0,1,1.67-3.36,6.29,6.29,0,0,1,3.47-1.5,13.59,13.59,0,0,1,3.82.12,20,20,0,0,1,3.71,1l.26.09-.2.19L56.58,52c-.44.44-.93.82-1.39,1.23s-1,.73-1.5,1.1a15.3,15.3,0,0,1-1.64.91,7.63,7.63,0,0,1-3.69.79,5.36,5.36,0,0,1-1.88-.47,4.75,4.75,0,0,1-.85-.48,3.79,3.79,0,0,1-.39-.31Z"/><path class="cls-8" d="M46.85,53.84s5.94-2.09.51-12.33C47.36,41.51,40.08,50.15,46.85,53.84Z"/><path class="cls-9" d="M46.87,53.49c-.17,0,0,0,0-.05a.91.91,0,0,0,.17-.09,1.73,1.73,0,0,0,.34-.21,3.73,3.73,0,0,0,.61-.52,4.5,4.5,0,0,0,.89-1.33A6.74,6.74,0,0,0,49.33,48a15.72,15.72,0,0,0-.28-1.67c-.16-.54-.27-1.1-.48-1.63s-.39-1.08-.63-1.59l-.74-1.56.3,0a15.58,15.58,0,0,0-3.28,6.21,6,6,0,0,0,.2,3.48,6,6,0,0,0,2.43,2.52Zm.34.57-.36-.22a6,6,0,0,1-2.51-2.49,6,6,0,0,1-.29-3.54,12.21,12.21,0,0,1,1.22-3.38,19.3,19.3,0,0,1,1.95-3l.17-.22.13.25L48.3,43c.26.52.45,1.07.68,1.61s.36,1.11.55,1.66A16.67,16.67,0,0,1,49.85,48a7,7,0,0,1-.39,3.54A5.16,5.16,0,0,1,47.8,53.7c-.13.08-.26.18-.4.25A1.18,1.18,0,0,1,47.21,54.06Z"/><path class="cls-8" d="M47.29,55.48s3.57-3.35-5.72-11.31C41.57,44.17,40.21,53.77,47.29,55.48Z"/><path class="cls-9" d="M47.2,55.14a.16.16,0,0,0-.13.06l0,0,.06-.07.1-.15a3.36,3.36,0,0,0,.16-.33,2.69,2.69,0,0,0,.19-.74,4.3,4.3,0,0,0-.12-1.59,9.77,9.77,0,0,0-1.42-3,21.38,21.38,0,0,0-2.15-2.62c-.77-.84-1.61-1.6-2.45-2.38l.29-.11a16.46,16.46,0,0,0-.07,3.44A12.39,12.39,0,0,0,42.41,51a7.9,7.9,0,0,0,1.86,2.87,7.4,7.4,0,0,0,3,1.63Zm.46.44-.37-.1a7.46,7.46,0,0,1-3.08-1.57,8.1,8.1,0,0,1-2-2.86,12.8,12.8,0,0,1-.82-3.4,16.47,16.47,0,0,1,0-3.51l0-.33.26.22c.86.76,1.74,1.51,2.54,2.34A21.9,21.9,0,0,1,46.49,49a10.44,10.44,0,0,1,1.59,3.14A5,5,0,0,1,48.26,54a3.74,3.74,0,0,1-.22.92,2.48,2.48,0,0,1-.2.44l-.14.21Z"/><path class="cls-10" d="M54.5,47.38s-11.85,3.15-7.78,10S57.11,55.78,58,50.8C58,50.8,57.46,46.35,54.5,47.38Z"/><path class="cls-11" d="M56.55,51.32a8.31,8.31,0,0,0-3.68.41,3.08,3.08,0,0,0-1.33,1.05A4,4,0,0,0,51,54.41v0a3.51,3.51,0,0,1-.7,1.88,3.26,3.26,0,0,1-1.55,1.13A4,4,0,0,0,49.9,56a3.58,3.58,0,0,0,.32-.82,3.51,3.51,0,0,0,.11-.83v0a4,4,0,0,1,.64-2,3.34,3.34,0,0,1,1.67-1.25,5.09,5.09,0,0,1,2-.24A6.87,6.87,0,0,1,56.55,51.32Z"/><path class="cls-11" d="M54.58,50.33a1.51,1.51,0,0,1-.79-1.46,1.63,1.63,0,0,1,1-1.51l.2-.08.12.21c.26.46.88.66,1.51,1a2.68,2.68,0,0,1,.88.71,1.26,1.26,0,0,1,.2,1.26,1.57,1.57,0,0,1-2.14.65,3.34,3.34,0,0,1-1.37-1.6l-.07-.13.09-.08.4-.38.13-.11.07.12a1.6,1.6,0,0,0,1,.68,1.59,1.59,0,0,1-1.22-.52h.2l-.34.44,0-.21a3.31,3.31,0,0,0,1.31,1.27,1,1,0,0,0,1.3-.39c.17-.39-.24-.88-.78-1.16s-1.31-.53-1.67-1.3l.31.13A1.51,1.51,0,0,0,54.58,50.33Z"/><path class="cls-11" d="M47.17,54.87a.71.71,0,0,0,0-1.41.71.71,0,0,0,0,1.41Z"/><path class="cls-11" d="M47.36,52.84a.36.36,0,0,0,0-.71.36.36,0,0,0,0,.71Z"/><path class="cls-6" d="M45.85,73.8s7.89-19.56-6.59-33.91c0,0,5,29.7,1.71,35.26S45.85,73.8,45.85,73.8Z"/><path class="cls-7" d="M43.1,49.91s3.86,16.21,1,21.46"/><path class="cls-6" d="M46.7,70s20.08-6.45,33.34,9c0,0-29.25-7.17-35-4.28S46.7,70,46.7,70Z"/><path class="cls-7" d="M70.34,74.49S54.45,69.46,49,72"/><path class="cls-6" d="M65.76,66.28s20.67-4.21,32.15,12.64c0,0-28.3-10.33-34.36-8.1S65.76,66.28,65.76,66.28Z"/><path class="cls-7" d="M88.76,73.32s-15.24-6.74-20.93-4.85"/><path class="cls-13" d="M39.9,82.92c-.69-4.65-14-2.38-14-2.38s7.7-12.23,1.93-12.65-6.59,13.34-6.59,13.34a4.93,4.93,0,0,0-.08.73c-4.75,1.4-11.76,3-9.88,4.86l9.7-3-4.81,9.3c1.45,2.1,4.11-3.94,6.3-8.34C24.88,86.87,29.71,87,29.71,87S40.59,87.58,39.9,82.92Z"/><path class="cls-10" d="M65.21,59.76s-11.86,3.15-7.79,10,10.39-1.64,11.31-6.61C68.73,63.18,68.17,58.72,65.21,59.76Z"/><path class="cls-11" d="M67.25,63.69a8.31,8.31,0,0,0-3.68.41,3,3,0,0,0-1.32,1.06,3.9,3.9,0,0,0-.6,1.63v0a3.24,3.24,0,0,1-.22,1,3.76,3.76,0,0,1-.48.88,3.38,3.38,0,0,1-1.56,1.12,4.09,4.09,0,0,0,1.21-1.35,4,4,0,0,0,.31-.81,3.66,3.66,0,0,0,.11-.84v0h0a4.07,4.07,0,0,1,.64-2,3.44,3.44,0,0,1,1.67-1.25,5.09,5.09,0,0,1,2-.23A6.52,6.52,0,0,1,67.25,63.69Z"/><path class="cls-11" d="M57.88,67.24a.7.7,0,0,0,0-1.4.7.7,0,0,0,0,1.4Z"/><path class="cls-11" d="M58.06,65.21a.35.35,0,0,0,0-.7.35.35,0,0,0,0,.7Z"/><path class="cls-11" d="M65.28,62.7a1.51,1.51,0,0,1-.79-1.46,1.65,1.65,0,0,1,1-1.51l.2-.08.12.21c.27.47.88.66,1.51,1a2.68,2.68,0,0,1,.89.7,1.28,1.28,0,0,1,.19,1.26,1.59,1.59,0,0,1-2.14.66,3.44,3.44,0,0,1-1.37-1.6l-.07-.13.09-.08.41-.38.12-.12.08.12a1.58,1.58,0,0,0,1,.68,1.58,1.58,0,0,1-1.22-.51h.2l-.34.44,0-.21a3.34,3.34,0,0,0,1.31,1.28,1,1,0,0,0,1.31-.4c.16-.39-.25-.87-.79-1.15s-1.31-.54-1.67-1.31l.32.13A1.51,1.51,0,0,0,65.28,62.7Z"/><path class="cls-8" d="M47.49,66.24s4,6.57,14.89-2.57C62.38,63.67,50.16,57.19,47.49,66.24Z"/><path class="cls-9" d="M47.84,66.19c0-.16,0,0,.08,0a1.29,1.29,0,0,0,.16.18,2.81,2.81,0,0,0,.34.35,4.22,4.22,0,0,0,.79.6,5.38,5.38,0,0,0,1.85.73,8.16,8.16,0,0,0,4-.34A16.8,16.8,0,0,0,57,67c.61-.34,1.25-.62,1.83-1s1.19-.74,1.75-1.17l1.66-1.28,0,.29a23.09,23.09,0,0,0-4-1.62,15.21,15.21,0,0,0-4.28-.7,7.11,7.11,0,0,0-4.11,1.17,6.75,6.75,0,0,0-2.39,3.56Zm-.47.47.12-.42a6.85,6.85,0,0,1,2.34-3.64A7.22,7.22,0,0,1,54,61.33a15.61,15.61,0,0,1,4.35.62,24.4,24.4,0,0,1,4.12,1.56l.25.13-.22.17-1.66,1.33c-.55.45-1.16.81-1.74,1.22s-1.24.72-1.85,1.08a17.38,17.38,0,0,1-2,.83,8.69,8.69,0,0,1-4.3.43,5.94,5.94,0,0,1-2.08-.77,5.37,5.37,0,0,1-.91-.65,3.78,3.78,0,0,1-.4-.4c-.06-.07-.13-.14-.19-.22Z"/><path class="cls-8" d="M46.9,65.64s-.28,6.69,12,5.39C58.86,71,53.22,60.43,46.9,65.64Z"/><path class="cls-9" d="M47.22,65.8c.06-.16,0,0,0,0a1.49,1.49,0,0,0,0,.21c0,.14,0,.27.07.41a3.88,3.88,0,0,0,.28.81,4.67,4.67,0,0,0,1,1.41,7,7,0,0,0,3,1.71,14.76,14.76,0,0,0,1.75.39c.6,0,1.2.16,1.81.16s1.21,0,1.82,0l1.82-.11-.14.26A21,21,0,0,0,56.6,68a13.62,13.62,0,0,0-2.73-2.58,6.22,6.22,0,0,0-3.52-1.16,5.91,5.91,0,0,0-3.45,1.39Zm-.65.13.33-.29a6,6,0,0,1,3.45-1.48A6.39,6.39,0,0,1,54,65.26a13.31,13.31,0,0,1,2.84,2.56A20.29,20.29,0,0,1,59,71l.14.23-.27,0L57,71.36c-.61,0-1.23,0-1.85,0s-1.23-.09-1.85-.13a16.17,16.17,0,0,1-1.84-.36,7.72,7.72,0,0,1-3.33-1.78A5.56,5.56,0,0,1,47,67.55a4.82,4.82,0,0,1-.34-.92c0-.16-.08-.32-.1-.48S46.57,66,46.57,65.93Z"/><path class="cls-8" d="M48.43,66.46s5.89,2.25,8.36-9.08C56.79,57.38,45.65,59.27,48.43,66.46Z"/><path class="cls-9" d="M48.68,66.21c-.14-.11,0,0,0,0l.19,0c.12,0,.26,0,.39.06a3.48,3.48,0,0,0,.79,0,4.44,4.44,0,0,0,1.55-.44,6.56,6.56,0,0,0,2.42-2.21,13.11,13.11,0,0,0,.87-1.44c.23-.52.5-1,.69-1.56s.4-1.07.54-1.63l.45-1.66.2.22a15.54,15.54,0,0,0-6.51,2.63A5.86,5.86,0,0,0,48.21,63a6,6,0,0,0,.22,3.49Zm-.11.65-.14-.4a5.12,5.12,0,0,1,1.77-6.41,12,12,0,0,1,3.11-1.79,19.06,19.06,0,0,1,3.45-1l.27-.06-.06.27-.41,1.69c-.14.57-.35,1.11-.52,1.67s-.44,1.08-.66,1.62a15.58,15.58,0,0,1-.87,1.54,7.26,7.26,0,0,1-2.59,2.45,5.28,5.28,0,0,1-1.74.55,4.82,4.82,0,0,1-.93,0,3.59,3.59,0,0,1-.46,0Z"/><path class="cls-8" d="M47.71,68s4.89-.24,2.95-12.32C50.66,55.67,43.42,62.12,47.71,68Z"/><path class="cls-9" d="M47.86,67.68a.17.17,0,0,0-.14,0h.12l.18-.05a2.52,2.52,0,0,0,.34-.15A3,3,0,0,0,49,67a4.48,4.48,0,0,0,.93-1.29,10.16,10.16,0,0,0,.85-3.2,22.55,22.55,0,0,0,0-3.39c0-1.14-.2-2.27-.33-3.4l.29.1a16.92,16.92,0,0,0-2.27,2.58,12.11,12.11,0,0,0-1.62,3,8,8,0,0,0-.43,3.39A7.29,7.29,0,0,0,47.71,68Zm.07.63L47.71,68a7.49,7.49,0,0,1-1.34-3.18,8.13,8.13,0,0,1,.35-3.46,13,13,0,0,1,1.57-3.12,17,17,0,0,1,2.25-2.69l.24-.23,0,.33c.17,1.14.36,2.28.43,3.43a22.32,22.32,0,0,1,0,3.47A10.56,10.56,0,0,1,50.47,66a5.08,5.08,0,0,1-1,1.5,3.82,3.82,0,0,1-.76.56,2.19,2.19,0,0,1-.44.2L48,68.3Z"/><path class="cls-8" d="M69.84,68.05s2.83,7.18,15.11.07C85,68.12,74.05,59.6,69.84,68.05Z"/><path class="cls-9" d="M70.19,68.07c0-.17,0,0,.07.05l.12.22c.08.14.19.27.28.4a4.27,4.27,0,0,0,.68.73,5.62,5.62,0,0,0,1.69,1,8.19,8.19,0,0,0,4,.37,17.8,17.8,0,0,0,2-.41c.66-.23,1.34-.4,2-.68s1.3-.52,1.92-.85l1.87-1,0,.29A24.93,24.93,0,0,0,81.16,66a16.1,16.1,0,0,0-4.1-1.43,7.13,7.13,0,0,0-4.25.43,6.84,6.84,0,0,0-3,3.09Zm-.54.38.19-.4a6.87,6.87,0,0,1,2.93-3.17,7.21,7.21,0,0,1,4.32-.52,15.28,15.28,0,0,1,4.18,1.36A24.62,24.62,0,0,1,85.06,68l.22.17-.24.13-1.87,1c-.62.34-1.29.6-1.93.9s-1.34.49-2,.73a15.16,15.16,0,0,1-2.1.47,8.71,8.71,0,0,1-4.32-.32A6.15,6.15,0,0,1,70.9,70a5.37,5.37,0,0,1-.78-.8,4.73,4.73,0,0,1-.32-.46c0-.09-.11-.16-.15-.25Z"/><path class="cls-8" d="M69.36,67.37S67.92,73.9,80.2,74.75C80.2,74.75,76.49,63.33,69.36,67.37Z"/><path class="cls-9" d="M69.65,67.57c.09-.14,0,0,0,.06s0,.14,0,.21,0,.28,0,.42a4.74,4.74,0,0,0,.13.84,4.79,4.79,0,0,0,.71,1.56,7,7,0,0,0,2.7,2.21,14.22,14.22,0,0,0,1.66.7c.58.15,1.15.36,1.75.47s1.18.26,1.79.33l1.81.21-.18.23a21.1,21.1,0,0,0-1.53-3.44,13,13,0,0,0-2.24-3A6.19,6.19,0,0,0,73,66.59a5.91,5.91,0,0,0-3.64.78Zm-.66,0,.37-.21A6,6,0,0,1,73,66.51a6.3,6.3,0,0,1,3.36,1.71,13.65,13.65,0,0,1,2.35,3,21.15,21.15,0,0,1,1.64,3.47l.09.26-.28,0-1.84-.17c-.61-.05-1.22-.19-1.83-.29s-1.2-.3-1.8-.44A17.43,17.43,0,0,1,73,73.35,7.6,7.6,0,0,1,70,71a5.3,5.3,0,0,1-.84-1.74,4.59,4.59,0,0,1-.17-1,4,4,0,0,1,0-.49C69,67.73,69,67.66,69,67.58Z"/><path class="cls-8" d="M70.73,68.44s5.41,3.23,9.82-7.48C80.55,61,69.24,60.87,70.73,68.44Z"/><path class="cls-9" d="M71,68.24c-.11-.14,0,0,.06,0l.17.07a2.43,2.43,0,0,0,.38.13,4.2,4.2,0,0,0,.79.13A4.3,4.3,0,0,0,74,68.38a6.49,6.49,0,0,0,2.78-1.74,15.2,15.2,0,0,0,1.11-1.28c.31-.47.67-.91.94-1.41s.58-1,.82-1.51l.73-1.55.16.24a15.64,15.64,0,0,0-6.87,1.46A5.84,5.84,0,0,0,71.12,65a6,6,0,0,0-.39,3.48Zm-.22.62-.06-.42a5.11,5.11,0,0,1,2.86-6A12.21,12.21,0,0,1,77,61.21a19.35,19.35,0,0,1,3.58-.43h.27l-.11.25-.7,1.6c-.23.53-.53,1-.8,1.55s-.62,1-.93,1.48A13.36,13.36,0,0,1,77.15,67a7.06,7.06,0,0,1-3,2,5.07,5.07,0,0,1-1.82.24,4.66,4.66,0,0,1-.91-.14,3.81,3.81,0,0,1-.45-.13Z"/><path class="cls-8" d="M69.75,69.82s4.85.61,5-11.62C74.8,58.2,66.55,63.29,69.75,69.82Z"/><path class="cls-9" d="M70,69.53a.25.25,0,0,0-.14-.06h.31a2.37,2.37,0,0,0,.36-.09,3,3,0,0,0,.7-.33,4.4,4.4,0,0,0,1.14-1.1,10,10,0,0,0,1.39-3,21.78,21.78,0,0,0,.65-3.33c.15-1.12.2-2.26.26-3.4l.27.15a16.74,16.74,0,0,0-2.69,2.14,12.57,12.57,0,0,0-2.12,2.7,7.9,7.9,0,0,0-1,3.27,7.38,7.38,0,0,0,.67,3.36Zm0,.64-.16-.35A7.52,7.52,0,0,1,69,66.45a7.92,7.92,0,0,1,1-3.34A12.17,12.17,0,0,1,72,60.31a16.62,16.62,0,0,1,2.68-2.26l.28-.18v.33c0,1.15,0,2.3-.17,3.45a23.49,23.49,0,0,1-.58,3.42,10.63,10.63,0,0,1-1.4,3.23,5.23,5.23,0,0,1-1.28,1.29,3.77,3.77,0,0,1-.85.43,3.59,3.59,0,0,1-.47.12l-.24,0Z"/><path class="cls-13" d="M20.12,73.47s.93,12.72,12.82,17.06C32.94,90.53,15.52,87.47,20.12,73.47Z"/><circle class="cls-14" cx="23.37" cy="82.66" r="3.16"/></g></g></g></svg>