<svg xmlns="http://www.w3.org/2000/svg" viewBox="0 0 479.37 119.37"><defs><style>.cls-1,.cls-3{fill:#fddaf2;}.cls-2{fill:none;stroke:#fddaf2;stroke-width:14px;}.cls-2,.cls-3{stroke-miterlimit:10;}.cls-3{font-size:60px;stroke:#e586a3;font-family:SeasideResortNF, SeasideResortNF;}</style></defs><title>button</title><g id="Layer_2" data-name="Layer 2"><g id="Greeting"><path class="cls-1" d="M472.37,59.68c0,3.48-5.39,5.39-8.44,8.66-2.24,2.41-2.53,8.1-6.26,10.37-2.95,1.79-8.37-.33-12.18,1.36-3.25,1.43-5.19,6.89-9,8.25-3.41,1.2-8.39-1.78-12.23-.65-3.51,1-6,6.25-9.88,7.22-3.58.9-8.29-2.47-12.15-1.63C395,94.84,388.14,100.6,380,102c-7.38,1.24-15.75-1.94-23.8-.9-7.5,1-14.78,6.18-22.78,7-7.58.74-15.73-3-23.71-2.4-7.63.53-15.17,5.34-23.13,5.7-7.67.35-15.62-3.75-23.55-3.58-7.7.17-15.47,4.63-23.38,4.63s-15.67-4.46-23.37-4.63c-7.93-.17-15.88,3.93-23.56,3.58-7.95-.36-15.5-5.17-23.13-5.7-8-.56-16.13,3.14-23.7,2.4-8-.78-15.29-6-22.78-7-8-1-16.43,2.14-23.81.9-8.11-1.36-15-7.12-22.17-8.7-3.85-.84-8.56,2.53-12.13,1.63-3.85-1-6.38-6.18-9.89-7.22-3.84-1.13-8.82,1.85-12.23.65-3.84-1.36-5.78-6.82-9-8.25-3.82-1.69-9.23.43-12.18-1.36-3.74-2.27-4-8-6.27-10.37C12.38,65.06,7,63.16,7,59.68S12.38,54.3,15.44,51c2.24-2.4,2.52-8.1,6.26-10.36,2.95-1.79,8.36.33,12.18-1.36,3.25-1.44,5.19-6.89,9-8.25,3.41-1.2,8.38,1.78,12.23.65,3.5-1,6-6.25,9.88-7.22,3.57-.91,8.29,2.47,12.14,1.63,7.21-1.58,14.07-7.34,22.17-8.7,7.39-1.24,15.76,1.94,23.81.9,7.5-1,14.77-6.19,22.78-7,7.58-.73,15.73,3,23.7,2.41,7.63-.54,15.18-5.35,23.13-5.7,7.67-.35,15.63,3.75,23.56,3.57C224,11.45,231.78,7,239.68,7s15.67,4.45,23.38,4.62c7.92.18,15.88-3.92,23.55-3.57,8,.35,15.51,5.16,23.14,5.7,8,.56,16.13-3.14,23.7-2.41,8,.78,15.28,6,22.78,7,8,1,16.43-2.14,23.81-.9,8.11,1.36,15,7.12,22.16,8.7,3.85.84,8.57-2.54,12.14-1.63,3.85,1,6.38,6.18,9.88,7.22,3.85,1.13,8.83-1.85,12.24-.65,3.84,1.36,5.78,6.81,9,8.25,3.82,1.69,9.23-.43,12.18,1.36,3.74,2.27,4,8,6.26,10.37C467,54.3,472.37,56.21,472.37,59.68Z"/><path class="cls-2" d="M472.37,59.68c0,3.48-5.39,5.39-8.44,8.66-2.24,2.41-2.53,8.1-6.26,10.37-2.95,1.79-8.37-.33-12.18,1.36-3.25,1.43-5.19,6.89-9,8.25-3.41,1.2-8.39-1.78-12.23-.65-3.51,1-6,6.25-9.88,7.22-3.58.9-8.29-2.47-12.15-1.63C395,94.84,388.14,100.6,380,102c-7.38,1.24-15.75-1.94-23.8-.9-7.5,1-14.78,6.18-22.78,7-7.58.74-15.73-3-23.71-2.4-7.63.53-15.17,5.34-23.13,5.7-7.67.35-15.62-3.75-23.55-3.58-7.7.17-15.47,4.63-23.38,4.63s-15.67-4.46-23.37-4.63c-7.93-.17-15.88,3.93-23.56,3.58-7.95-.36-15.5-5.17-23.13-5.7-8-.56-16.13,3.14-23.7,2.4-8-.78-15.29-6-22.78-7-8-1-16.43,2.14-23.81.9-8.11-1.36-15-7.12-22.17-8.7-3.85-.84-8.56,2.53-12.13,1.63-3.85-1-6.38-6.18-9.89-7.22-3.84-1.13-8.82,1.85-12.23.65-3.84-1.36-5.78-6.82-9-8.25-3.82-1.69-9.23.43-12.18-1.36-3.74-2.27-4-8-6.27-10.37C12.38,65.06,7,63.16,7,59.68S12.38,54.3,15.44,51c2.24-2.4,2.52-8.1,6.26-10.36,2.95-1.79,8.36.33,12.18-1.36,3.25-1.44,5.19-6.89,9-8.25,3.41-1.2,8.38,1.78,12.23.65,3.5-1,6-6.25,9.88-7.22,3.57-.91,8.29,2.47,12.14,1.63,7.21-1.58,14.07-7.34,22.17-8.7,7.39-1.24,15.76,1.94,23.81.9,7.5-1,14.77-6.19,22.78-7,7.58-.73,15.73,3,23.7,2.41,7.63-.54,15.18-5.35,23.13-5.7,7.67-.35,15.63,3.75,23.56,3.57C224,11.45,231.78,7,239.68,7s15.67,4.45,23.38,4.62c7.92.18,15.88-3.92,23.55-3.57,8,.35,15.51,5.16,23.14,5.7,8,.56,16.13-3.14,23.7-2.41,8,.78,15.28,6,22.78,7,8,1,16.43-2.14,23.81-.9,8.11,1.36,15,7.12,22.16,8.7,3.85.84,8.57-2.54,12.14-1.63,3.85,1,6.38,6.18,9.88,7.22,3.85,1.13,8.83-1.85,12.24-.65,3.84,1.36,5.78,6.81,9,8.25,3.82,1.69,9.23-.43,12.18,1.36,3.74,2.27,4,8,6.26,10.37C467,54.3,472.37,56.21,472.37,59.68Z"/><text class="cls-3" transform="translate(44.19 84.78)">click here</text></g></g></svg>