<?xml version="1.0" encoding="utf-8"?>
<!-- Generator: Adobe Illustrator 22.0.1, SVG Export Plug-In . SVG Version: 6.00 Build 0)  -->
<svg version="1.1" id="Layer_1" xmlns="http://www.w3.org/2000/svg" xmlns:xlink="http://www.w3.org/1999/xlink" x="0px" y="0px"
	 viewBox="0 0 479.4 119.4" style="enable-background:new 0 0 479.4 119.4;" xml:space="preserve">
<style type="text/css">
	.st0{fill:#FDDAF2;}
	.st1{fill:none;stroke:#FDDAF2;stroke-width:14;stroke-miterlimit:10;}
	.st2{font-family:'SeasideResortNF';}
	.st3{font-size:60px;}
	.st4{enable-background:new    ;}
	.st5{fill:none;stroke:#E586A3;stroke-miterlimit:10;}
</style>
<title>button</title>
<g id="Layer_2_1_">
	<g id="Greeting">
		<path class="st0" d="M472.4,59.7c0,3.5-5.4,5.4-8.4,8.7c-2.2,2.4-2.5,8.1-6.3,10.4c-3,1.8-8.4-0.3-12.2,1.4
			c-3.2,1.4-5.2,6.9-9,8.2c-3.4,1.2-8.4-1.8-12.2-0.7c-3.5,1-6,6.2-9.9,7.2c-3.6,0.9-8.3-2.5-12.1-1.6c-7.2,1.6-14.1,7.3-22.2,8.7
			c-7.4,1.2-15.8-1.9-23.8-0.9c-7.5,1-14.8,6.2-22.8,7c-7.6,0.7-15.7-3-23.7-2.4c-7.6,0.5-15.2,5.3-23.1,5.7
			c-7.7,0.3-15.6-3.8-23.5-3.6c-7.7,0.2-15.5,4.6-23.4,4.6s-15.7-4.5-23.4-4.6c-7.9-0.2-15.9,3.9-23.6,3.6
			c-7.9-0.4-15.5-5.2-23.1-5.7c-8-0.6-16.1,3.1-23.7,2.4c-8-0.8-15.3-6-22.8-7c-8-1-16.4,2.1-23.8,0.9c-8.1-1.4-15-7.1-22.2-8.7
			c-3.8-0.8-8.6,2.5-12.1,1.6c-3.8-1-6.4-6.2-9.9-7.2c-3.8-1.1-8.8,1.8-12.2,0.7c-3.8-1.4-5.8-6.8-9-8.2c-3.8-1.7-9.2,0.4-12.2-1.4
			c-3.7-2.3-4-8-6.3-10.4C12.4,65.1,7,63.2,7,59.7s5.4-5.4,8.4-8.7c2.2-2.4,2.5-8.1,6.3-10.4c3-1.8,8.4,0.3,12.2-1.4
			c3.2-1.4,5.2-6.9,9-8.2c3.4-1.2,8.4,1.8,12.2,0.6c3.5-1,6-6.2,9.9-7.2c3.6-0.9,8.3,2.5,12.1,1.6c7.2-1.6,14.1-7.3,22.2-8.7
			c7.4-1.2,15.8,1.9,23.8,0.9c7.5-1,14.8-6.2,22.8-7c7.6-0.7,15.7,3,23.7,2.4c7.6-0.5,15.2-5.4,23.1-5.7c7.7-0.3,15.6,3.8,23.6,3.6
			C224,11.4,231.8,7,239.7,7s15.7,4.4,23.4,4.6c7.9,0.2,15.9-3.9,23.5-3.6c8,0.4,15.5,5.2,23.1,5.7c8,0.6,16.1-3.1,23.7-2.4
			c8,0.8,15.3,6,22.8,7c8,1,16.4-2.1,23.8-0.9c8.1,1.4,15,7.1,22.2,8.7c3.9,0.8,8.6-2.5,12.1-1.6c3.9,1,6.4,6.2,9.9,7.2
			c3.9,1.1,8.8-1.9,12.2-0.6c3.8,1.4,5.8,6.8,9,8.3c3.8,1.7,9.2-0.4,12.2,1.4c3.7,2.3,4,8,6.3,10.4C467,54.3,472.4,56.2,472.4,59.7z
			"/>
		<path class="st1" d="M472.4,59.7c0,3.5-5.4,5.4-8.4,8.7c-2.2,2.4-2.5,8.1-6.3,10.4c-3,1.8-8.4-0.3-12.2,1.4
			c-3.2,1.4-5.2,6.9-9,8.2c-3.4,1.2-8.4-1.8-12.2-0.7c-3.5,1-6,6.2-9.9,7.2c-3.6,0.9-8.3-2.5-12.1-1.6c-7.2,1.6-14.1,7.3-22.2,8.7
			c-7.4,1.2-15.8-1.9-23.8-0.9c-7.5,1-14.8,6.2-22.8,7c-7.6,0.7-15.7-3-23.7-2.4c-7.6,0.5-15.2,5.3-23.1,5.7
			c-7.7,0.3-15.6-3.8-23.5-3.6c-7.7,0.2-15.5,4.6-23.4,4.6s-15.7-4.5-23.4-4.6c-7.9-0.2-15.9,3.9-23.6,3.6
			c-7.9-0.4-15.5-5.2-23.1-5.7c-8-0.6-16.1,3.1-23.7,2.4c-8-0.8-15.3-6-22.8-7c-8-1-16.4,2.1-23.8,0.9c-8.1-1.4-15-7.1-22.2-8.7
			c-3.8-0.8-8.6,2.5-12.1,1.6c-3.8-1-6.4-6.2-9.9-7.2c-3.8-1.1-8.8,1.8-12.2,0.7c-3.8-1.4-5.8-6.8-9-8.2c-3.8-1.7-9.2,0.4-12.2-1.4
			c-3.7-2.3-4-8-6.3-10.4C12.4,65.1,7,63.2,7,59.7s5.4-5.4,8.4-8.7c2.2-2.4,2.5-8.1,6.3-10.4c3-1.8,8.4,0.3,12.2-1.4
			c3.2-1.4,5.2-6.9,9-8.2c3.4-1.2,8.4,1.8,12.2,0.6c3.5-1,6-6.2,9.9-7.2c3.6-0.9,8.3,2.5,12.1,1.6c7.2-1.6,14.1-7.3,22.2-8.7
			c7.4-1.2,15.8,1.9,23.8,0.9c7.5-1,14.8-6.2,22.8-7c7.6-0.7,15.7,3,23.7,2.4c7.6-0.5,15.2-5.4,23.1-5.7c7.7-0.3,15.6,3.8,23.6,3.6
			C224,11.4,231.8,7,239.7,7s15.7,4.4,23.4,4.6c7.9,0.2,15.9-3.9,23.5-3.6c8,0.4,15.5,5.2,23.1,5.7c8,0.6,16.1-3.1,23.7-2.4
			c8,0.8,15.3,6,22.8,7c8,1,16.4-2.1,23.8-0.9c8.1,1.4,15,7.1,22.2,8.7c3.9,0.8,8.6-2.5,12.1-1.6c3.9,1,6.4,6.2,9.9,7.2
			c3.9,1.1,8.8-1.9,12.2-0.6c3.8,1.4,5.8,6.8,9,8.3c3.8,1.7,9.2-0.4,12.2,1.4c3.7,2.3,4,8,6.3,10.4C467,54.3,472.4,56.2,472.4,59.7z
			"/>
		<text transform="matrix(1 0 0 1 44.19 84.78)" class="st0 st2 st3">click here</text>
		<g class="st4">
			<path class="st5" d="M87.5,81.1c-4.4,2.9-9.2,4.4-14.6,4.4c-7.3,0-13.6-2.6-18.8-7.8c-5.2-5.2-7.8-11.4-7.8-18.7
				c0-7.3,2.6-13.6,7.8-18.8c5.2-5.2,11.5-7.8,18.8-7.8c5.2,0,10.1,1.5,14.6,4.4L85,40.6c-3.6-2.4-7.6-3.6-12.1-3.6
				c-6.1,0-11.3,2.2-15.6,6.5c-4.3,4.3-6.4,9.5-6.4,15.6c0,6,2.2,11.2,6.5,15.5c4.3,4.3,9.5,6.5,15.5,6.5c4.4,0,8.4-1.2,12.1-3.6
				L87.5,81.1z M75.2,41.9c-4.8,0.3-8.8,2.2-12.1,5.6c-3.3,3.5-5,7.6-5,12.4c0,6,2.5,10.8,7.4,14.5c2.6,1.5,5.3,2.4,8.3,2.5h-1
				c-3.2,0-6.3-0.8-9.2-2.5c-2.7-1.6-4.8-3.7-6.4-6.4C55.8,65.2,55,62.2,55,59c0-5,1.8-9.2,5.3-12.7C63.8,42.7,68,41,72.9,41
				C73.2,41,73.9,41.3,75.2,41.9z M91.9,38.5l-3.7,5.5c-0.5-0.3-0.9-0.6-1.3-0.8l3.7-5.6L91.9,38.5z M93.1,81.2L91.8,82l-4.9-7.3
				c0.6-0.3,1.1-0.6,1.3-0.8L93.1,81.2z"/>
			<path class="st5" d="M119.1,84.8H97.4V33.1h4.5v47.2h17.2V84.8z M109.6,33.1l-1.8,43.1H106V33.1H109.6z M124.6,84.8h-1.9v-8.7
				h1.9V84.8z"/>
			<path class="st5" d="M133.4,84.8h-4.5V33h4.5V84.8z M141.2,33l-1.8,51.8h-1.9V33H141.2z"/>
			<path class="st5" d="M186.7,81.1c-4.4,2.9-9.2,4.4-14.6,4.4c-7.3,0-13.6-2.6-18.8-7.8c-5.2-5.2-7.8-11.4-7.8-18.7
				c0-7.3,2.6-13.6,7.8-18.8c5.2-5.2,11.5-7.8,18.8-7.8c5.2,0,10.1,1.5,14.6,4.4l-2.5,3.8c-3.6-2.4-7.6-3.6-12.1-3.6
				c-6.1,0-11.3,2.2-15.6,6.5c-4.3,4.3-6.4,9.5-6.4,15.6c0,6,2.2,11.2,6.5,15.5c4.3,4.3,9.5,6.5,15.5,6.5c4.4,0,8.4-1.2,12.1-3.6
				L186.7,81.1z M174.4,41.9c-4.8,0.3-8.8,2.2-12.1,5.6c-3.3,3.5-5,7.6-5,12.4c0,6,2.5,10.8,7.4,14.5c2.6,1.5,5.3,2.4,8.3,2.5h-1
				c-3.2,0-6.3-0.8-9.2-2.5c-2.7-1.6-4.8-3.7-6.4-6.4c-1.6-2.7-2.4-5.7-2.4-8.9c0-5,1.8-9.2,5.3-12.7c3.5-3.5,7.7-5.3,12.7-5.3
				C172.3,41,173.1,41.3,174.4,41.9z M191.1,38.5l-3.7,5.5c-0.5-0.3-0.9-0.6-1.3-0.8l3.7-5.6L191.1,38.5z M192.3,81.2l-1.3,0.8
				l-4.9-7.3c0.6-0.3,1.1-0.6,1.3-0.8L192.3,81.2z"/>
			<path class="st5" d="M231.9,33.1L210,62.5l18.4,22.3h-5.8l-15.4-18.5l-6.1,8v10.5h-4.6l0.1-51.7h4.7l-0.1,33.5l25-33.5H231.9z
				 M208.3,73.9l-1.1,1.7v9.2h-1.9l0.1-9.2l2.1-2.8L208.3,73.9z M209.1,33.1l-1.9,18.8l-1.9,2.4l0.1-21.2H209.1z M238.8,33.1
				L217,62.3l18.5,22.5h-1.8l-18.5-22.5L237,33.1H238.8z"/>
			<path class="st5" d="M298.1,84.8h-4.6V70.6h-32.3v14.2h-4.6V33.1h4.6v33h32.3v-33h4.6V84.8z M268.9,33.1L267.6,62h-2.3V33.1
				H268.9z M290.2,75.9h-22.7l-0.4,8.9h-1.8V74.7h25V75.9z M305.8,33.1L304,84.8h-1.9V33.1H305.8z"/>
			<path class="st5" d="M332.7,84.8h-22.6V33.1h20.8v4.5h-16.1V65H331v4.5h-16.3v10.8h17.9V84.8z M336.5,42.8h-11.2l-6.5,18.1V41.6
				h15.9v-8.5h1.8V42.8z M336.5,73.6h-15.8v2.5h-1.9v-3.7h15.9V60.8h1.8V73.6z M338.2,84.8h-1.9v-8.7h1.9V84.8z"/>
			<path class="st5" d="M369.4,54.6c0,3.7-0.9,7.2-2.7,10.4c-1.8,3.2-4.3,5.8-7.3,7.8l6.4,10.5l-3.8,2.3l-6.7-10.9
				c-2.4,0.9-4.9,1.3-7.3,1.3c-0.4,0-0.6,0-0.8-0.1v8.8h-4.5V33.1h5.3c5.9,0,11,2.1,15.2,6.3C367.3,43.6,369.4,48.7,369.4,54.6z
				 M364.9,54.6c0-4.7-1.7-8.7-5-12s-7.3-5-12-5h-0.8v34h0.8c4.6,0,8.6-1.7,12-5C363.2,63.2,364.9,59.2,364.9,54.6z M355.2,43.9
				l-2.2,22.5c-0.2,0.1-0.5,0.2-0.9,0.3c-0.4,0.1-0.7,0.2-0.9,0.3l0.1-24.8C352.1,42.4,353.5,43,355.2,43.9z M353.5,79.9
				c-0.1,0-0.2,0-0.2,0c-0.1,0-0.2,0.1-0.2,0.1v4.9h-1.9v-4.9l2.2-0.4L353.5,79.9z M375.3,54.6c0,3.8-0.8,7.3-2.3,10.6
				c-1.6,3.3-3.7,6.2-6.5,8.5l6.3,10.1l-6.1,3.7h-1.8l6.1-3.7l-6.3-10.1c2.8-2.4,4.9-5.2,6.5-8.5c1.6-3.3,2.4-6.9,2.4-10.6
				c0-4.4-1.1-8.6-3.2-12.5c-2.1-3.8-5-6.8-8.6-9.1h1.9c3.6,2.3,6.4,5.3,8.5,9.1C374.2,46,375.3,50.2,375.3,54.6z"/>
			<path class="st5" d="M402.2,84.8h-22.6V33.1h20.8v4.5h-16.1V65h16.3v4.5h-16.3v10.8h17.9V84.8z M406,42.8h-11.2l-6.5,18.1V41.6
				h15.9v-8.5h1.8V42.8z M406,73.6h-15.8v2.5h-1.9v-3.7h15.9V60.8h1.8V73.6z M407.7,84.8h-1.9v-8.7h1.9V84.8z"/>
		</g>
	</g>
</g>
</svg>
