<?xml version="1.0" encoding="utf-8"?>
<!-- Generator: Adobe Illustrator 22.0.1, SVG Export Plug-In . SVG Version: 6.00 Build 0)  -->
<svg version="1.1" id="Layer_1" xmlns="http://www.w3.org/2000/svg" xmlns:xlink="http://www.w3.org/1999/xlink" x="0px" y="0px"
	 viewBox="0 0 121.9 289.5" style="enable-background:new 0 0 121.9 289.5;" xml:space="preserve">
<style type="text/css">
	.st0{fill:#004073;}
	.st1{fill:#F6C59C;}
	.st2{fill:#D83C60;}
	.st3{fill:#262125;}
	.st4{fill:#F6BC96;}
	.st5{fill:#FEECF8;}
	.st6{fill:#FDC797;}
	.st7{fill:url(#SVGID_1_);}
	.st8{fill:url(#SVGID_2_);}
	.st9{opacity:0.81;fill:url(#SVGID_3_);enable-background:new    ;}
	.st10{opacity:0.81;fill:url(#SVGID_4_);enable-background:new    ;}
	.st11{fill:#FFFFFF;}
	.st12{fill:#51433A;}
	.st13{fill:#371F13;}
	.st14{fill:none;}
	.st15{fill:url(#nose_1_);}
	.st16{fill:#734C34;}
	.st17{fill:#AF4758;}
	.st18{fill:#5D3722;}
</style>
<title>girl</title>
<g id="Layer_2_1_">
	<g id="arm">
		<g id="legs">
			<path class="st0" d="M51.2,170.5c0,0-0.1,0.4-0.2,1.1c-2.8,16.9-1.6,34.2,3.6,50.5c0.4,1.4,0.8,2.8,1.1,4.2c0,0-2.5,6.6,1.3,11.6
				l-3.8,37.8c5-3,11-3.5,16.4-1.3l-3.8-34v-15.1c0,0,3.8-26.8,3.8-40.3C69.6,171.1,65.2,163.5,51.2,170.5z"/>
			<path class="st0" d="M88.1,170.5c0,0,0.1,0.4,0.2,1.1c2.8,16.9,1.6,34.2-3.6,50.5c-0.5,1.6-0.9,3-1.1,4.2c0,0,2.5,6.6-1.3,11.6
				l3.8,37.8c-5-3-11-3.5-16.4-1.3l3.8-34v-15.1c0,0-3.8-26.8-3.8-40.3C69.6,171.1,74.1,163.5,88.1,170.5z"/>
		</g>
		<path class="st1" d="M101.4,150.8c-0.1,3.9,0,7.8,0.4,11.6c0.1,0.8,0.8,1.3,1.6,1.2c0.4-0.1,0.7-0.3,0.9-0.6c0.5-0.6,0.8-1.3,1-2
			c0.2-0.8,1-1.2,1.8-1c0.1,0,0.2,0.1,0.2,0.1c2.1,1.1,1.2,6,3.7,9.8c1.1,1.9,3.5,2.6,5.3,1.5c0.2-0.1,0.3-0.2,0.5-0.3
			c2.4-1.5,6.7-15.1-4.5-21.4c-0.2-0.1-0.2-0.3-0.4-0.4l-5.4-3.8c-0.6-0.5-1.5-0.3-2,0.3l0,0l-3,4.2
			C101.5,150.2,101.4,150.5,101.4,150.8z"/>
		<path class="st2" d="M95.3,143.5l4,9c2,0,14-2,14-4l-11-11c-16-42-24-33-24-33l-23.8,1.1c0,0-7.8-11.4-16.9,33.8
			c-0.2,1-0.2,2.1-0.1,3.1c3.3,0,6.6-0.7,9.9,0.3c0-0.1-0.1-0.2-0.1-0.3c1-3,4-7,8-13c0.7,6.8,1,13.6,0.8,20.4c2,1.1,4,1.9,6.2,2.6
			c5,1.3-6.2,15.5-10,13c-0.7-0.6-1.4-1.2-2-1.9l-13.4,12.5c0,0,12.6,15.1,31.5,13.9s31.5-15.1,31.5-15.1l-16.2-15
			c-4-5.1,0.6-31.3,0.6-31.3S92.3,136.5,95.3,143.5z"/>
		<g id="feet">
			<path class="st1" d="M58.2,282.8l-4.7-7c-0.9-1.3-0.5-3.1,0.8-3.9c0.4-0.3,0.9-0.4,1.4-0.5l8.3-0.5c1.6-0.1,2.9,1,3.1,2.6
				c0,0.5-0.1,1.1-0.3,1.6l-3.7,7.5c-0.7,1.4-2.4,2-3.8,1.3C58.9,283.5,58.5,283.2,58.2,282.8z"/>
			<path class="st1" d="M75.1,282.5l-3.8-7.5c-0.7-1.4-0.1-3.1,1.3-3.8c0.4-0.2,0.9-0.3,1.4-0.3l8.3,0.5c1.6,0.1,2.8,1.4,2.7,3
				c0,0.5-0.2,1-0.5,1.4l-4.6,7c-0.9,1.3-2.6,1.7-3.9,0.8C75.7,283.3,75.3,282.9,75.1,282.5z"/>
		</g>
		<path class="st3" d="M71.3,270.6c0,0,2.4,11.8,6.1,11.8s7.3-9.5,7.3-10.6s2.4,13-6.1,17.7C78.6,289.5,68.8,284.7,71.3,270.6z"/>
		<path class="st3" d="M53.7,270.6c0,0,2.5,11.8,6.1,11.8s7.4-9.5,7.4-10.6s2.4,13-6.1,17.7C61,289.5,51.2,284.7,53.7,270.6z"/>
		<path class="st2" d="M52.3,165.5c3.8,2.5,15-11.7,10-13c-2.1-0.6-4.2-1.5-6.2-2.6c-0.2,4.8-1,9.1-2.6,10.7l-3.2,3
			C50.9,164.3,51.5,164.9,52.3,165.5z"/>
		<path id="neck" class="st4" d="M73.4,103c0,4.2-2.8,13.9-6.3,13.9s-5-9.7-5-13.9s2-12.6,5.5-12.6S73.4,98.8,73.4,103z"/>
		<g id="face">
			<path class="st5" d="M62.1,105.5c0,0,7.3,79.4-6.3,83.2c0,0,12.6,7.6,32.8-5c0,0-18.9-8.8-15.1-79.4
				C73.4,104.2,67.1,129.4,62.1,105.5z"/>
			<path id="face-2" class="st6" d="M108.7,59c-0.4,23.7-30.2,42.8-44.1,41.5C48.9,99,22.6,78.8,23,55.2s16.4-38.3,44.4-37.8
				S109.1,35.3,108.7,59z"/>
			<g id="blush">
				
					<radialGradient id="SVGID_1_" cx="-264.2236" cy="911.9445" r="7.4144" gradientTransform="matrix(1.29 0 0 0.9 381 -749.89)" gradientUnits="userSpaceOnUse">
					<stop  offset="0" style="stop-color:#FC8E97;stop-opacity:0.8"/>
					<stop  offset="0.34" style="stop-color:#FAA597;stop-opacity:0.88"/>
					<stop  offset="0.77" style="stop-color:#F9BE98;stop-opacity:0.97"/>
					<stop  offset="1" style="stop-color:#F8C898"/>
				</radialGradient>
				<ellipse class="st7" cx="40.7" cy="70.9" rx="11.3" ry="6.9"/>
				
					<radialGradient id="SVGID_2_" cx="-225.1538" cy="911.8778" r="7.41" gradientTransform="matrix(1.29 0 0 0.9 381 -749.89)" gradientUnits="userSpaceOnUse">
					<stop  offset="0" style="stop-color:#FC8E97;stop-opacity:0.8"/>
					<stop  offset="0.34" style="stop-color:#FAA597;stop-opacity:0.88"/>
					<stop  offset="0.77" style="stop-color:#F9BE98;stop-opacity:0.97"/>
					<stop  offset="1" style="stop-color:#F8C898"/>
				</radialGradient>
				<ellipse class="st8" cx="91.1" cy="70.8" rx="11.3" ry="6.9"/>
			</g>
			<g id="eyeshadow_crease">
				
					<radialGradient id="SVGID_3_" cx="45.07" cy="1006.3" r="11.7534" gradientTransform="matrix(1 0 0 0.8 0 -758.74)" gradientUnits="userSpaceOnUse">
					<stop  offset="0" style="stop-color:#F8A077"/>
					<stop  offset="0.39" style="stop-color:#F8A379"/>
					<stop  offset="0.65" style="stop-color:#F8AB80"/>
					<stop  offset="0.86" style="stop-color:#F8BA8D"/>
					<stop  offset="1" style="stop-color:#F8C898"/>
				</radialGradient>
				<ellipse class="st9" cx="45.1" cy="46.3" rx="13.2" ry="10.1"/>
				
					<radialGradient id="SVGID_4_" cx="81.6" cy="814.3" r="11.7527" gradientTransform="matrix(1 0 0 1 0 -768)" gradientUnits="userSpaceOnUse">
					<stop  offset="0" style="stop-color:#F8A077"/>
					<stop  offset="0.39" style="stop-color:#F8A379"/>
					<stop  offset="0.65" style="stop-color:#F8AB80"/>
					<stop  offset="0.86" style="stop-color:#F8BA8D"/>
					<stop  offset="1" style="stop-color:#F8C898"/>
				</radialGradient>
				<ellipse class="st10" cx="81.6" cy="46.3" rx="13.2" ry="10.1"/>
			</g>
			<g id="left_eye">
				
					<ellipse transform="matrix(0.1774 -0.9841 0.9841 0.1774 -14.4613 94.422)" class="st11" cx="49.3" cy="55.9" rx="9" ry="11.3"/>
				<ellipse transform="matrix(0.9841 -0.1774 0.1774 0.9841 -9.0748 9.502)" class="st12" cx="48.6" cy="55.5" rx="7.2" ry="8.4"/>
				<circle class="st13" cx="48.6" cy="55.5" r="6"/>
				<circle class="st11" cx="44.4" cy="52.6" r="2.4"/>
				<circle class="st11" cx="53.7" cy="57" r="1.2"/>
				<g id="eyelashes">
					<path d="M42.5,44.4c0.2,0.6,0.5,1.1,0.9,1.6c0.2,0.2,0.4,0.3,0.7,0.5c0.3,0.1,0.6,0.2,1,0.4c-0.3,0.2-0.7,0.3-1.1,0.3
						c-0.4,0-0.8-0.2-1.2-0.5c-0.3-0.3-0.5-0.7-0.5-1.2C42.2,45.1,42.3,44.7,42.5,44.4z"/>
					<path d="M35.6,46.3c0.1,1,0.5,1.9,1,2.7c0.3,0.3,0.6,0.6,1,0.8c0.5,0.2,0.9,0.4,1.4,0.5c-0.5,0.2-1.1,0.3-1.7,0.2
						c-0.6-0.1-1.2-0.4-1.5-0.9c-0.4-0.5-0.6-1.1-0.6-1.7C35.3,47.3,35.4,46.8,35.6,46.3z"/>
					<path d="M37.5,45.7c0,0.8,0.3,1.6,0.9,2.3c0.3,0.3,0.6,0.5,1,0.6l0.6,0.2c0.2,0.1,0.5,0.1,0.7,0.2c-0.2,0.1-0.5,0.2-0.7,0.2
						c-0.3,0-0.5,0-0.8,0c-0.6,0-1.1-0.3-1.5-0.7s-0.6-0.9-0.6-1.5C37.1,46.6,37.2,46.1,37.5,45.7z"/>
					<path d="M40,44.4c0,0.9,0.2,1.7,0.8,2.4c0.3,0.3,0.6,0.5,1,0.6l0.7,0.2c0.2,0.1,0.5,0.1,0.7,0.2c-0.2,0.1-0.5,0.2-0.7,0.3
						c-0.3,0-0.5,0.1-0.8,0.1c-0.6,0-1.1-0.3-1.5-0.6c-0.4-0.4-0.6-1-0.6-1.6C39.5,45.3,39.7,44.8,40,44.4z"/>
					<path d="M44.4,43.5c0.2,0.7,0.5,1.3,0.8,1.9c0.2,0.2,0.4,0.4,0.7,0.6c0.3,0.2,0.6,0.3,1,0.5c-0.4,0.2-0.8,0.3-1.2,0.2
						c-0.5-0.1-0.9-0.3-1.2-0.7s-0.4-0.8-0.4-1.3C44.1,44.3,44.2,43.9,44.4,43.5z"/>
					<path d="M47,43.5c0.2,0.7,0.5,1.3,0.8,1.9c0.2,0.2,0.4,0.4,0.7,0.6c0.3,0.2,0.6,0.3,1,0.5c-0.4,0.2-0.8,0.3-1.2,0.2
						c-0.5-0.1-1-0.3-1.3-0.7s-0.4-0.8-0.4-1.3C46.6,44.3,46.7,43.9,47,43.5z"/>
				</g>
				<g id="eye_line">
					<path d="M40.2,50c-0.5,0.7-1.2,1.2-1.9,1.6c-0.8,0.5-1.7,0.6-2.6,0.5c-0.2-0.1-0.5-0.2-0.7-0.3s-0.4-0.3-0.6-0.5
						c-0.2-0.2-0.3-0.4-0.4-0.6s-0.2-0.4-0.2-0.7c-0.1-0.4-0.1-0.9-0.1-1.3c0.1-0.4,0.1-0.8,0.2-1.2c0.1,0.4,0.3,0.8,0.4,1.2
						c0.2,0.3,0.3,0.7,0.4,1c0.2,0.6,0.7,1,1.3,1.1c0.7,0.1,1.4,0,2-0.2C38.6,50.5,39.4,50.2,40.2,50z"/>
					<path d="M43.3,47.6c-0.7,0.7-1.4,1.3-2.3,1.8c-0.8,0.5-1.7,0.9-2.7,1.2c-1,0.4-2.1,0.4-3.1,0.1c-0.6-0.2-1-0.6-1.3-1.1
						c-0.2-0.5-0.3-1-0.1-1.5c0.1,0.4,0.4,0.8,0.7,1.2c0.3,0.3,0.6,0.4,1,0.4c0.8,0,1.7-0.1,2.5-0.4C39.7,48.9,41.4,48.1,43.3,47.6z
						"/>
					<path d="M60.8,56.1c-0.8-2.3-2.2-4.3-4-5.9c-0.9-0.7-1.8-1.3-2.9-1.8c-1.1-0.4-2.2-0.7-3.3-0.8s-2.3-0.1-3.5-0.1
						c-1.1,0.1-2.2,0.3-3.2,0.8c-1.1,0.4-2.1,1-3,1.7c-0.5,0.4-1,0.7-1.6,1c-0.3,0.2-0.6,0.3-0.9,0.5c-0.2,0.1-0.3,0.1-0.5,0.1
						c-0.1,0-0.2,0-0.3-0.1s-0.1-0.2,0-0.3h0.1c-0.1,0.3,0.4,0.1,0.6,0c0.3-0.2,0.5-0.3,0.7-0.5c0.5-0.4,0.9-0.8,1.4-1.2
						c2.8-2.6,6.7-3.7,10.4-3c2.5,0.3,4.8,1.4,6.6,3.2s3,4,3.5,6.5h-0.1C60.8,56.2,60.8,56.1,60.8,56.1z"/>
				</g>
			</g>
			<g id="right_eye">
				
					<ellipse transform="matrix(0.2224 -0.975 0.975 0.2224 7.5206 121.1204)" class="st11" cx="79.7" cy="55.8" rx="8.6" ry="10.8"/>
				<ellipse transform="matrix(0.2224 -0.975 0.975 0.2224 7.7618 120.0326)" class="st14" cx="79.1" cy="55.2" rx="8" ry="6.8"/>
				
					<ellipse transform="matrix(0.9925 -0.1222 0.1222 0.9925 -6.1726 10.1545)" class="st12" cx="79.7" cy="55.4" rx="7.3" ry="8.6"/>
				<circle class="st13" cx="79.2" cy="55.1" r="5.7"/>
				<circle class="st11" cx="83.3" cy="52.6" r="2.3"/>
				<circle class="st11" cx="74.3" cy="56.3" r="1.1"/>
				<g id="eyelashes-2">
					<path d="M92.3,46.3c0.1,0.6,0.1,1.2,0,1.8s-0.4,1.2-0.8,1.7c-0.9,1-2.2,1.4-3.5,0.9c0.5-0.1,1.1-0.3,1.6-0.6
						c0.5-0.2,0.9-0.5,1.2-0.9C91.4,48.3,91.9,47.3,92.3,46.3z"/>
					<path d="M90.4,45.7c0.2,0.5,0.2,1,0.2,1.6c0,0.5-0.2,1.1-0.5,1.6s-0.7,0.9-1.2,1.2c-0.5,0.2-1.1,0.3-1.6,0.1
						c0.4-0.2,0.9-0.4,1.2-0.7c0.3-0.3,0.6-0.6,0.8-1C89.7,47.5,90.1,46.6,90.4,45.7z"/>
					<path d="M89.2,45.7c0.2,0.5,0.2,1.1,0,1.6c-0.1,0.5-0.4,1.1-0.8,1.5s-0.9,0.7-1.5,0.8c-0.5,0.1-1.1,0.1-1.6-0.1
						c0.5-0.2,0.9-0.4,1.3-0.6c0.4-0.2,0.7-0.5,1-0.8C88.3,47.4,88.8,46.5,89.2,45.7z"/>
					<path d="M87.3,45c0.2,0.5,0.2,1.1,0,1.6c-0.1,0.5-0.4,1.1-0.8,1.5s-0.9,0.7-1.5,0.8c-0.5,0.1-1,0.1-1.5-0.1
						c0.5-0.2,0.9-0.4,1.3-0.6c0.4-0.2,0.7-0.5,1-0.8C86.4,46.7,86.9,45.9,87.3,45z"/>
					<path d="M85.4,44.4c0.2,0.5,0.2,1,0.1,1.5c-0.3,1.1-1.3,1.8-2.4,1.7c-0.3,0-0.5-0.1-0.7-0.2c-0.2-0.1-0.4-0.2-0.6-0.4
						c0.2,0,0.5-0.1,0.7,0c0.2,0,0.4,0,0.7-0.1c0.4-0.1,0.7-0.2,1-0.4C84.6,45.9,85.1,45.2,85.4,44.4z"/>
					<path d="M82.9,44.4c0.2,0.3,0.2,0.7,0.1,1.1c-0.1,0.4-0.3,0.7-0.5,1c-0.3,0.3-0.6,0.5-1,0.6s-0.8,0-1.1-0.2
						c0.3-0.2,0.6-0.3,0.9-0.5c0.2-0.1,0.4-0.3,0.6-0.5C82.2,45.4,82.6,44.9,82.9,44.4z"/>
				</g>
				<g id="eyeline">
					<path d="M84.6,47.9c0.9,0.4,1.8,0.7,2.7,1c0.9,0.3,1.8,0.4,2.7,0.5c0.9,0,1.8-0.1,2.6-0.5c0.9-0.4,1.6-0.9,2.3-1.5
						c-0.4,1-1,1.8-1.9,2.3c-0.9,0.6-1.9,0.8-3,0.8c-1-0.1-2.1-0.3-3-0.8C86.1,49.3,85.3,48.7,84.6,47.9z"/>
					<path d="M81.2,47.7c1.3,0.1,2.7,0.5,3.9,1.1c1.2,0.5,2.4,0.9,3.6,1.3c1.1,0.4,2.4,0.3,3.5-0.2c1.1-0.6,2-1.5,2.8-2.6
						c-0.3,1.4-1.1,2.6-2.3,3.4c-0.6,0.4-1.3,0.7-2.1,0.7c-0.4,0-0.7,0-1.1,0s-0.7-0.1-1.1-0.2c-1.3-0.4-2.6-0.9-3.8-1.6
						C83.5,49,82.4,48.3,81.2,47.7z"/>
					<path d="M69,57.2c-0.6-2.3-0.2-4.7,1-6.8c0.6-1.1,1.5-1.9,2.6-2.6c1.1-0.6,2.2-1,3.4-1.2c1.2-0.2,2.4-0.2,3.5-0.1
						c0.6,0,1.2,0.1,1.7,0.2c0.6,0.1,1.2,0.2,1.7,0.5c1.1,0.4,2.1,0.9,3.1,1.4c0.5,0.3,1,0.5,1.5,0.9c0.5,0.3,0.9,0.6,1.4,1v0.1
						c-2-0.9-4.1-1.7-6.2-2.3c-1.1-0.3-2.2-0.5-3.3-0.5c-1.1-0.1-2.2-0.1-3.3,0.1c-1.1,0.2-2.1,0.5-3.1,1s-1.8,1.2-2.4,2.1
						C69.5,52.8,68.9,55,69,57.2L69,57.2z"/>
				</g>
			</g>
			
				<radialGradient id="nose_1_" cx="843.4893" cy="1081.3922" r="6.87" gradientTransform="matrix(0.61 -4.000000e-02 7.000000e-02 0.97 -525.87 -942.08)" gradientUnits="userSpaceOnUse">
				<stop  offset="0" style="stop-color:#F8C898"/>
				<stop  offset="0.26" style="stop-color:#F8C596;stop-opacity:0.97"/>
				<stop  offset="0.66" style="stop-color:#F8BD90;stop-opacity:0.89"/>
				<stop  offset="1" style="stop-color:#F8B589;stop-opacity:0.8"/>
			</radialGradient>
			<path id="nose" class="st15" d="M62.1,67.7c-2.5,3-2.5,6.3,2.5,6.3s5.7-3.1,2.5-6.3"/>
			<g id="right_eyebrow">
				<path class="st16" d="M27.4,45.7c2.2-1.7,4.6-3.2,7.2-4.3s5.2-1.9,8-2.5s5.8-0.6,8.6,0c1.5,0.3,2.9,0.9,4.1,1.8
					c1.2,0.9,2.1,2.2,2.3,3.7c-2-2.1-4.4-2.5-6.9-2.6c-2.5,0-5.1,0.3-7.6,0.8c-2.6,0.5-5.1,1-7.8,1.6S30.2,45.3,27.4,45.7z"/>
			</g>
			<g id="left_eyebrow">
				<path class="st16" d="M99.2,45.7c-2.8-0.4-5.4-0.9-8.1-1.5s-5.2-1.1-7.8-1.6c-2.5-0.5-5-0.8-7.6-0.8c-2.5,0-4.9,0.5-6.9,2.6
					c0.3-1.5,1.1-2.8,2.3-3.7c1.2-0.9,2.6-1.5,4.1-1.8c2.8-0.6,5.8-0.6,8.6,0c2.8,0.5,5.4,1.3,8,2.5C94.7,42.5,97.1,43.9,99.2,45.7z
					"/>
			</g>
			<g id="mouth">
				<path id="lower_lip" class="st17" d="M73.4,82.8c-1.3,0.8-2.8,1.3-4.3,1.7c-2.1,0.3-4.2,0.4-6.3,0.1c-2-0.2-4-0.9-5.8-1.8h-1.2
					c0,0,0,6.3,8.8,6.3s10.1-6.3,10.1-6.3L73.4,82.8z"/>
				<path id="back" d="M58.3,83.9l7.5,0.2c1.3,0,7.6-1.1,7.6-1.1"/>
				<path id="upper_lip" class="st17" d="M65.9,84.1c2.4,0,8.4-1.3,8.8-1.3c-7.6-5-10.1-1.6-10.1-1.6c-3.5-3.3-8.8,1.6-8.8,1.6
					C59.1,83.5,62.5,83.9,65.9,84.1z"/>
				<path id="teeth" class="st11" d="M57,82.8c1.3,0.7,15.2,0.7,16.4,0c-2.5,1.3-5.2,2.5-7.6,2.5C62,85.3,58.3,84.1,57,82.8z"/>
				<g id="smile">
					<path d="M54.5,81.6c3.4,1.9,7.3,2.9,11.3,2.7c1,0,1.9-0.1,2.9-0.3c0.5-0.1,1-0.1,1.4-0.2l1.4-0.3c0.5-0.1,1-0.2,1.5-0.4
						l1.4-0.4c0.9-0.3,1.8-0.7,2.8-1c-0.8,0.6-1.7,1.1-2.6,1.6c-0.9,0.4-1.8,0.8-2.8,1.2c-1.9,0.7-4,1.1-6,1.2
						c-2.1,0-4.1-0.3-6.1-0.9C57.8,84,56,83,54.5,81.6z"/>
				</g>
			</g>
		</g>
		<path id="hair" class="st18" d="M82.2,19.8c0,0-7.6,14.7-39.1,16.4c-23.9,1.3-18,24.9-16.4,31.5c1.3,5,10.1,21.4,25.2,29
			c0,0,2.5,32.8-10.1,36.5S-11,139.5,2.9,63.9S69.6-1.6,83.5,3.5c0,0,34.1,9.9,35.5,42c0.3,6.5,0.7,13,1.4,19.5
			c2.6,24.3,4.9,75.6-23,70.8c0,0-17.6,5-13.9-40.3c0,0,17.6-13.9,20.2-30.2S89.8,48.8,91.1,24.9c0,0-12.6,17.6-27.7,15.1
			C63.3,40,84.8,33.7,82.2,19.8z"/>
		<path class="st1" d="M76.4,170.1c3.9-0.4,7.7-0.6,11.6-0.4c0.8,0.1,1.4,0.8,1.3,1.6c0,0.4-0.2,0.7-0.5,1c-0.6,0.5-1.2,0.8-1.9,1.1
			c-0.8,0.2-1.2,1.1-0.9,1.8c0,0.1,0.1,0.2,0.1,0.3c1.2,2,6.1,0.7,10,3c2,0.9,2.8,3.2,1.9,5.2c-0.1,0.2-0.2,0.3-0.3,0.5
			c-1.3,2.5-14.6,7.8-21.7-2.8c-0.1-0.2-0.3-0.2-0.4-0.4l-4.2-5.1c-0.5-0.6-0.4-1.5,0.2-2l3.9-3.4C75.8,170.2,76.1,170.1,76.4,170.1
			z"/>
		<path class="st2" d="M81.3,167.3c-8.6-3.4-17.7-8.1-19.6-12.2c-19.4-19.6-16.8-12.5-24.1-12.5c0.4,2.7,1.5,5.3,3.3,7.4
			c6.4,7.9,20,27.8,27.5,34.5l5-6C77,175.7,80.7,175.5,81.3,167.3z"/>
	</g>
</g>
</svg>
