<svg xmlns="http://www.w3.org/2000/svg" viewBox="0 0 963.38 583.46"><defs><style>.cls-1{fill:#fddaf2;}</style></defs><title>greeting</title><g id="Layer_2" data-name="Layer 2"><g id="Greeting"><path class="cls-1" d="M274,159.71H260.57V118.06H165.44v41.65H152V7.59h13.41v97.06h95.13V7.59H274ZM188.21,7.59l-4.06,85.06h-6.71V7.59Zm62.65,126H184l-1.23,26.12h-5.3V130.06h73.42Zm45.88-126-5.29,152.12H286V7.59Z"/><path class="cls-1" d="M426.81,159.71H412.69L407,144.18H329.39l-5.65,15.53H309.45L368.22,0ZM401.92,131,368.22,39,334.33,131Zm-58.76,25.41-1.42,3.53h-5.29l1.41-3.53Zm31.41-65.47-17.82,27.88h-5.3l16.77-45.18Zm70.41,69h-5.29L382.51,7.76H388Z"/><path class="cls-1" d="M536.57,70.94q0,26.13-18.61,44.65t-44.74,18.53a11.19,11.19,0,0,1-2.3-.17v25.76H457.69V7.59h15.53q26.11,0,44.74,18.62T536.57,70.94Zm-13.23,0A48.27,48.27,0,0,0,508.6,35.56a48.27,48.27,0,0,0-35.38-14.74h-1.94l-.18,99.89h2.12a48.38,48.38,0,0,0,35.38-14.65Q523.33,91.42,523.34,70.94Zm30.53,0a72.65,72.65,0,0,1-18.8,49.68q-18.8,21.27-46.5,24.8v14.29H483.1V145.42q27.7-3.54,46.5-24.8a72.65,72.65,0,0,0,18.8-49.68A74.73,74.73,0,0,0,513.81,7.59h5.47a74.66,74.66,0,0,1,34.59,63.35ZM495.1,39.35l-6.35,66.18c-.59.24-1.5.56-2.74,1s-2.14.74-2.73,1l.18-73.06A73.08,73.08,0,0,1,495.1,39.35Z"/><path class="cls-1" d="M645.46,70.94q0,26.13-18.62,44.65T582.1,134.12a11.08,11.08,0,0,1-2.29-.17v25.76H566.57V7.59H582.1q26.11,0,44.74,18.62T645.46,70.94Zm-13.24,0a48.26,48.26,0,0,0-14.73-35.38A48.29,48.29,0,0,0,582.1,20.82h-1.94L580,120.71h2.11a48.4,48.4,0,0,0,35.39-14.65A47.76,47.76,0,0,0,632.22,70.94Zm30.53,0A72.64,72.64,0,0,1,644,120.62q-18.8,21.27-46.5,24.8v14.29H592V145.42q27.71-3.54,46.5-24.8a72.64,72.64,0,0,0,18.79-49.68A74.66,74.66,0,0,0,622.69,7.59h5.47a74.66,74.66,0,0,1,34.59,63.35ZM604,39.35l-6.36,66.18c-.59.24-1.5.56-2.73,1s-2.15.74-2.74,1l.18-73.06A73.09,73.09,0,0,1,604,39.35Z"/><path class="cls-1" d="M792.11,7.59l-83.3,152.3H693.47l34.26-63L649.34,7.59h17.85l67.55,77,42.16-77ZM734.4,60l-1.76,3.71L683.05,7.59h14.64Zm77-52.41-83.83,152.3-5.25,0L806.09,7.61Z"/><path class="cls-1" d="M140.12,371.48H127.59V263.66L70.06,373.6,12.53,263.66V371.48H0V213.18l70.06,133.6,70.06-133.6ZM72.53,318l-2.47,4.77L19.59,229.6H29.65ZM34.24,329l-5.47,42.53H23.82V309.36Zm82.06-10.06L88.94,371.66H83.83l32.47-62.3Zm39.88,52.59h-4.94V229.6h4.94Z"/><path class="cls-1" d="M325.07,295.6q0,32.11-23,55.06T246.71,373.6q-32.29,0-55.06-22.85T168.89,295.6q0-32.3,22.76-55.33t55.06-23q32.29,0,55.33,23T325.07,295.6Zm-13.59,0a64.77,64.77,0,0,0-64.77-64.77q-26.64,0-45.62,19a62.41,62.41,0,0,0-19,45.8q0,26.65,19,45.62t45.62,19a62.41,62.41,0,0,0,45.8-19Q311.47,322.25,311.48,295.6Zm-58.06-50.3a53.31,53.31,0,0,0-49.95,52.95q0,26.46,21.53,42.53a54.62,54.62,0,0,0,24.54,7.41h-2.83q-21.53,0-37-15.44A50.64,50.64,0,0,1,194.3,295.6a51.3,51.3,0,0,1,15.35-37.41,50.2,50.2,0,0,1,37.06-15.53C247.42,242.66,249.65,243.54,253.42,245.3Zm88.94,50.3a88.76,88.76,0,0,1-11.47,44.12,89.74,89.74,0,0,1-30.71,31.94h-5.29a90.27,90.27,0,0,0,30.53-31.94,90.59,90.59,0,0,0,0-88.24,90.24,90.24,0,0,0-30.35-32.12h5.29a91.8,91.8,0,0,1,30.53,32.12A88.76,88.76,0,0,1,342.36,295.6Z"/><path class="cls-1" d="M447.37,232.6H403.6V371.48H390.36V232.6H346.42V219.36H447.37Zm-69.54,17.64H346.42v-5.47h31.41Zm71.3-5.47-28.06,14V371.48H415.6V244.77Zm14.47,0h-5.47V219.36h5.47Z"/><path class="cls-1" d="M598.25,371.48H584.84V329.84H489.72v41.64H476.31V219.36h13.41v97.06h95.12V219.36h13.41ZM512.48,219.36l-4.06,85.06h-6.7V219.36Zm62.65,126H508.25L507,371.48h-5.29V341.84h73.41Zm45.89-126-5.3,152.12h-5.47V219.36Z"/><path class="cls-1" d="M700.08,371.48H633.72V219.36h61.06V232.6H647.31v80.65h47.83v13.23H647.31v31.77h52.77ZM711.2,248H678.37l-19.23,53.12V244.42H705.9V219.36h5.3Zm0,90.71H664.61v7.41h-5.47V335.13H705.9V301.07h5.3Zm5.11,33h-5.47V346.07h5.47Z"/><path class="cls-1" d="M807.9,282.72a61.17,61.17,0,0,1-8,30.61,64,64,0,0,1-21.62,22.86l18.88,30.88L785.84,374,766.26,342a63.09,63.09,0,0,1-21.53,3.88,13.33,13.33,0,0,1-2.48-.17v25.76H729V219.36h15.71q26.12,0,44.64,18.62T807.9,282.72Zm-13.23,0a48.29,48.29,0,0,0-14.74-35.39q-14.73-14.73-35.2-14.73h-2.48v99.88h2.48a48.17,48.17,0,0,0,35.2-14.65Q794.66,303.19,794.67,282.72Zm-28.41-31.59-6.36,66.18c-.59.23-1.5.56-2.73,1s-2.15.73-2.74,1l.18-73.06A71.23,71.23,0,0,1,766.26,251.13Zm-5,105.88h-.7a2.8,2.8,0,0,1-.71.18v14.29h-5.47V357.19l6.36-1.06Zm64.07-74.29a74.22,74.22,0,0,1-26,56.47L818,368.84l-18,10.94h-5.29l17.82-10.94L794,339.19A74.67,74.67,0,0,0,813.11,314a72.27,72.27,0,0,0,7-31.32,74.82,74.82,0,0,0-34.76-63.36h5.47A72.7,72.7,0,0,1,815.85,246,74.31,74.31,0,0,1,825.38,282.72Z"/><path class="cls-1" d="M869,216l-22.58,36h-8.3l13.41-36Z"/><path class="cls-1" d="M946.08,334.6a37,37,0,0,1-64.41,24.71l10.06-9a23.21,23.21,0,0,0,34.06,1,22.91,22.91,0,0,0,6.88-16.68,23.32,23.32,0,0,0-6.17-16.06l-21.89-24.18q-12.71-14.12-12.7-32.11,0-18.18,12.79-30.54a43,43,0,0,1,31-12.35V232.6a30.22,30.22,0,0,0-21.62,8.47,28,28,0,0,0-8.91,21.18,33.51,33.51,0,0,0,9.18,23.29l22.06,24A35.86,35.86,0,0,1,946.08,334.6Zm17.3,0q0,22.41-16.94,37.06h-5.3q17-14.64,16.94-37.06a47.61,47.61,0,0,0-12.7-33.18l-21.88-24a22.21,22.21,0,0,1-6.18-15.17,16.42,16.42,0,0,1,5.21-12.62,18.25,18.25,0,0,1,13-4.86h5.82v.71Q927,249,927,264.89q0,6.36,5.29,12.53l20.29,24Q963.38,314.13,963.38,334.6Zm-11.47-89.83a28,28,0,0,0-5.47.53V219.36h5.47Z"/><path class="cls-1" d="M398.83,507.19q0,28.59-18.88,50.83-19.43,22.77-47.83,24.88l-7.06.53V430.6l7.06.53Q360.53,433.25,380,456A76.73,76.73,0,0,1,398.83,507.19Zm-13.41,0A64.2,64.2,0,0,0,372.18,468Q359,450.19,338.3,445.6V568.43q20.65-4.59,33.88-22.23A63.5,63.5,0,0,0,385.42,507.19ZM359,469.43l-3.18,77.12c-.59.47-1.47,1.15-2.65,2s-2.06,1.56-2.64,2V463.43Q353.82,465.54,359,469.43Zm57.18,37.76a88.18,88.18,0,0,1-11.56,43.86,86.68,86.68,0,0,1-31.15,32.38h-5.3a86.61,86.61,0,0,0,31.15-32.38,90,90,0,0,0-30.44-119.92h5.47a90.94,90.94,0,0,1,41.83,76.06Z"/><path class="cls-1" d="M527.13,583.26H513l-5.64-15.53H429.72l-5.65,15.53H409.78l58.76-159.72Zm-24.88-28.77-33.71-91.94-33.88,91.94ZM443.48,579.9l-1.41,3.53h-5.29l1.41-3.53Zm31.41-65.47-17.82,27.88h-5.29l16.76-45.17Zm70.42,69H540L482.84,431.31h5.47Z"/><path class="cls-1" d="M658.79,431.13l-83.3,152.3H560.15l34.26-63L516,431.13h17.84l67.55,77,42.16-77Zm-57.71,52.42-1.77,3.7-49.59-56.12h14.65ZM678,431.13l-83.83,152.3-5.24,0,83.82-152.3Z"/></g></g></svg>