<svg xmlns="http://www.w3.org/2000/svg" viewBox="0 0 116.5 100.49"><defs><style>.cls-1{fill:#242632;}.cls-2{fill:#fd6256;}.cls-3{fill:#febfbb;}</style></defs><title>ladybugs2</title><g id="Layer_2" data-name="Layer 2"><g id="bugs"><g id="ladybug_2" data-name="ladybug 2"><g id="ladybug"><circle class="cls-1" cx="95.42" cy="81.52" r="13.39"/><circle class="cls-1" cx="85.34" cy="65.54" r="5.66"/><path class="cls-2" d="M79.48,75.06a17.1,17.1,0,0,0-.94,9.71c2.69,14.4,17.55,15.72,17.55,15.72,4-6.46-.26-20-.53-20-.06,0-.06.39-.06.43-.13,2.18,19,10.88,21,6a23.86,23.86,0,0,0-13.59-20C94.62,62.9,83,66.16,79.48,75.06Z"/><circle class="cls-1" cx="91.04" cy="94.91" r="1.32"/><circle class="cls-1" cx="92.77" cy="85.27" r="1.32"/><circle class="cls-1" cx="83.67" cy="85.89" r="1.32"/><circle class="cls-1" cx="85.77" cy="78.95" r="1.32"/><circle class="cls-1" cx="92.8" cy="74.8" r="1.32"/><circle class="cls-1" cx="102.49" cy="79.91" r="1.32"/><circle class="cls-1" cx="100.54" cy="72.68" r="1.32"/><circle class="cls-1" cx="110.46" cy="83.35" r="1.32"/></g><path class="cls-3" d="M96,66.92A14.17,14.17,0,0,1,100.55,68,18.43,18.43,0,0,1,108,73.68a19.64,19.64,0,0,1,1.35,1.93c.4.67.74,1.38,1.08,2.08a35.22,35.22,0,0,0-2.87-3.63A24.76,24.76,0,0,0,104.21,71a23.25,23.25,0,0,0-3.9-2.41A21.62,21.62,0,0,0,96,66.92Z"/></g><g id="ladybug_2-2" data-name="ladybug 2"><g id="ladybug-2" data-name="ladybug"><circle class="cls-1" cx="35.76" cy="12.32" r="6.85"/><circle class="cls-1" cx="33.58" cy="2.9" r="2.9"/><path class="cls-2" d="M29.14,6.51a8.79,8.79,0,0,0-2.08,4.54C25.93,18.46,32.9,21.6,32.9,21.6c3-2.46,3.24-9.72,3.1-9.75s-.09.17-.1.19c-.43,1,7.37,8.47,9.15,6.42a12.23,12.23,0,0,0-3.21-12C38.51,3.18,32.33,2.8,29.14,6.51Z"/><circle class="cls-1" cx="31.4" cy="18.05" r="0.68"/><circle class="cls-1" cx="33.85" cy="13.68" r="0.68"/><circle class="cls-1" cx="29.35" cy="12.45" r="0.68"/><circle class="cls-1" cx="31.53" cy="9.45" r="0.68"/><circle class="cls-1" cx="35.63" cy="8.63" r="0.68"/><circle class="cls-1" cx="39.45" cy="12.73" r="0.68"/><circle class="cls-1" cx="39.72" cy="8.9" r="0.68"/><circle class="cls-1" cx="42.73" cy="15.73" r="0.68"/></g><path class="cls-3" d="M38.5,5.35a7.41,7.41,0,0,1,2,1.31,9.58,9.58,0,0,1,1.6,1.82,10,10,0,0,1,1.07,2.17,9,9,0,0,1,.5,2.35,14.19,14.19,0,0,0-1.89-4.3,11.85,11.85,0,0,0-1.48-1.83A12,12,0,0,0,38.5,5.35Z"/></g><g id="ladybug_2-3" data-name="ladybug 2"><g id="ladybug-3" data-name="ladybug"><circle class="cls-1" cx="14.9" cy="57.03" r="8.41"/><circle class="cls-1" cx="3.55" cy="53.56" r="3.55"/><path class="cls-2" d="M4.67,60.5a10.69,10.69,0,0,0,3.54,5c7.18,5.75,14.79.28,14.79.28-.76-4.7-8.33-9.42-8.45-9.29s.13.21.15.23c.83,1.09,13.52-2.63,12.43-5.77A15,15,0,0,0,12.47,47C6.89,48.5,2.68,54.83,4.67,60.5Z"/><circle class="cls-1" cx="18.31" cy="65.19" r="0.83"/><circle class="cls-1" cx="15.18" cy="59.9" r="0.83"/><circle class="cls-1" cx="11.1" cy="63.93" r="0.83"/><circle class="cls-1" cx="9.26" cy="59.76" r="0.83"/><circle class="cls-1" cx="10.9" cy="54.91" r="0.83"/><circle class="cls-1" cx="17.6" cy="53.37" r="0.83"/><circle class="cls-1" cx="13.71" cy="50.73" r="0.83"/><circle class="cls-1" cx="22.81" cy="51.73" r="0.83"/></g><path class="cls-3" d="M9.19,49.85a9.15,9.15,0,0,1,2.62-1.34,12.08,12.08,0,0,1,2.92-.57,11.74,11.74,0,0,1,3,.19,12.12,12.12,0,0,1,1.44.36c.46.16.92.36,1.37.55a22.17,22.17,0,0,0-2.86-.55,13.9,13.9,0,0,0-2.88-.08,13.67,13.67,0,0,0-2.84.45A14.16,14.16,0,0,0,9.19,49.85Z"/></g></g></g></svg>