<svg xmlns="http://www.w3.org/2000/svg" viewBox="0 0 168.39 49.56"><defs><style>.cls-1{fill:#242632;}.cls-2{fill:#fd6256;}.cls-3{fill:#febfbb;}</style></defs><title>ladybugs</title><g id="Layer_2" data-name="Layer 2"><g id="ladybug_dots" data-name="ladybug dots"><g id="ladybug"><circle class="cls-1" cx="18.71" cy="34.75" r="11.52"/><circle class="cls-1" cx="30.9" cy="23.99" r="4.87"/></g><g id="ladybug-2" data-name="ladybug"><circle class="cls-1" cx="91.74" cy="23.65" r="8.41"/><circle class="cls-1" cx="98.39" cy="13.82" r="3.55"/></g><g id="ladybug-3" data-name="ladybug"><circle class="cls-1" cx="157.78" cy="7.83" r="6.37"/><circle class="cls-1" cx="165.7" cy="3.58" r="2.69"/></g><path id="left_wing" data-name="left wing" class="cls-2" d="M16.67,35.25a.48.48,0,0,1-.39.07c-1.83,3.45-4.48,9.79-3.13,14.1,0,0,12.68,2,18-9.41a14.68,14.68,0,0,0,1.27-8.3A12.59,12.59,0,0,0,29.3,25C25.15,28.5,21.19,32.22,16.67,35.25Z"/><path id="right_wing" data-name="right wing" class="cls-2" d="M17.05,35.26a.22.22,0,0,1,.09-.07c4.53-2.8,8.55-6.3,12.73-9.58a16,16,0,0,0-13.81-4.74A20.52,20.52,0,0,0,0,34.09C.35,37.8,12.45,36.76,17.05,35.26Z"/><path id="left_wing-2" data-name="left wing" class="cls-2" d="M90.39,24.38a.33.33,0,0,1-.25.12c-.66,2.77-1.38,7.73.36,10.54,0,0,9.33-.89,11-9.94a10.68,10.68,0,0,0-.62-6.09,9.16,9.16,0,0,0-3.4-4.18A105.86,105.86,0,0,1,90.39,24.38Z"/><path id="right_wing-2" data-name="right wing" class="cls-2" d="M90.66,24.32a.2.2,0,0,1,.06-.07A104.29,104.29,0,0,0,98,15.15a11.69,11.69,0,0,0-10.63-.82,15,15,0,0,0-8.92,12.28C79.33,29.17,87.69,26.22,90.66,24.32Z"/><path id="left_wing-3" data-name="left wing" class="cls-2" d="M156.62,7.84a.24.24,0,0,1-.22,0c-1.42,1.63-3.65,4.7-3.47,7.2,0,0,6.57,2.69,10.86-2.8a8.19,8.19,0,0,0,1.73-4.31,6.94,6.94,0,0,0-.81-4A81.44,81.44,0,0,1,156.62,7.84Z"/><path id="right_wing-3" data-name="right wing" class="cls-2" d="M156.82,7.9l.06,0a77,77,0,0,0,8.06-3.55A8.81,8.81,0,0,0,158.1,0a11.35,11.35,0,0,0-10.31,5.08C147.51,7.16,154.16,8.13,156.82,7.9Z"/><g id="dots"><circle class="cls-1" cx="19.08" cy="46.86" r="1.14"/><circle class="cls-1" cx="19.99" cy="38.48" r="1.14"/><circle class="cls-1" cx="27.35" cy="41.2" r="1.14"/><circle class="cls-1" cx="27.3" cy="34.96" r="1.14"/><circle class="cls-1" cx="22.49" cy="29.84" r="1.14"/><circle class="cls-1" cx="20.52" cy="23.91" r="1.14"/><circle class="cls-1" cx="15.24" cy="31.71" r="1.14"/><circle class="cls-1" cx="11.5" cy="27.06" r="1.14"/><circle class="cls-1" cx="5.84" cy="32.62" r="1.14"/><path class="cls-3" d="M18.21,23a15.59,15.59,0,0,0-3.21.29,17.89,17.89,0,0,0-3.06.89A17.22,17.22,0,0,0,9.1,25.59a25.16,25.16,0,0,0-2.61,1.9c.36-.4.72-.82,1.11-1.19a13.74,13.74,0,0,1,1.27-1,12.68,12.68,0,0,1,2.88-1.6,12.53,12.53,0,0,1,3.19-.79A10,10,0,0,1,18.21,23Z"/></g><g id="dots-2" data-name="dots"><circle class="cls-1" cx="94.23" cy="32.14" r="0.83"/><circle class="cls-1" cx="93.33" cy="26.06" r="0.83"/><circle class="cls-1" cx="99.03" cy="26.63" r="0.83"/><circle class="cls-1" cx="97.85" cy="22.23" r="0.83"/><circle class="cls-1" cx="93.52" cy="19.49" r="0.83"/><circle class="cls-1" cx="91.04" cy="15.67" r="0.83"/><circle class="cls-1" cx="88.73" cy="22.14" r="0.83"/><circle class="cls-1" cx="85.24" cy="19.54" r="0.83"/><circle class="cls-1" cx="82.26" cy="24.5" r="0.83"/><path class="cls-3" d="M89.23,15.42a11.43,11.43,0,0,0-2.21.8,10.66,10.66,0,0,0-2,1.19,14.14,14.14,0,0,0-3.24,3.35,9.64,9.64,0,0,1,1.28-2A9.26,9.26,0,0,1,86.91,16,7.18,7.18,0,0,1,89.23,15.42Z"/></g><g id="dots-3" data-name="dots"><circle class="cls-1" cx="156.45" cy="14.4" r="0.63"/><circle class="cls-1" cx="158" cy="10" r="0.63"/><circle class="cls-1" cx="161.62" cy="12.4" r="0.63"/><circle class="cls-1" cx="162.38" cy="9.03" r="0.63"/><circle class="cls-1" cx="160.44" cy="5.66" r="0.63"/><circle class="cls-1" cx="160.12" cy="2.23" r="0.63"/><circle class="cls-1" cx="156.29" cy="5.76" r="0.63"/><circle class="cls-1" cx="154.87" cy="2.78" r="0.63"/><circle class="cls-1" cx="151.12" cy="5.06" r="0.63"/><path class="cls-3" d="M159,1.43a8.12,8.12,0,0,0-1.76-.25,8.62,8.62,0,0,0-1.76.09,10.92,10.92,0,0,0-3.35,1.11,7.11,7.11,0,0,1,1.56-.9A7,7,0,0,1,155.43,1,6.45,6.45,0,0,1,159,1.43Z"/></g></g></g></svg>