<?xml version="1.0" encoding="utf-8"?>
<!-- Generator: Adobe Illustrator 22.0.1, SVG Export Plug-In . SVG Version: 6.00 Build 0)  -->
<svg version="1.1" id="Layer_1" xmlns="http://www.w3.org/2000/svg" xmlns:xlink="http://www.w3.org/1999/xlink" x="0px" y="0px"
	 viewBox="0 0 178 355.4" style="enable-background:new 0 0 178 355.4;" xml:space="preserve">
<style type="text/css">
	.st0{fill:#F6C59C;}
	.st1{fill:#262125;}
	.st2{fill:#004073;}
	.st3{fill:#B70D2E;}
	.st4{fill:#F6BC96;}
	.st5{fill:#F0CCD3;}
	.st6{fill:#FDC797;}
	.st7{opacity:0.81;fill:url(#SVGID_1_);enable-background:new    ;}
	.st8{opacity:0.81;fill:url(#SVGID_2_);enable-background:new    ;}
	.st9{fill:#FFFFFF;}
	.st10{fill:#51433A;}
	.st11{fill:#371F13;}
	.st12{fill:none;}
	.st13{fill:url(#nose_1_);}
	.st14{fill:url(#SVGID_3_);}
	.st15{fill:url(#SVGID_4_);}
	.st16{fill:#734C34;}
	.st17{fill:#5D3722;}
</style>
<title>mom</title>
<g id="Layer_2_1_">
	<g id="people">
		<g id="feet">
			<path class="st0" d="M68.1,347.2l-5.7-8.6c-1.1-1.6-0.6-3.8,1-4.9c0.5-0.3,1.1-0.5,1.7-0.6l10.3-0.7c1.9-0.1,3.6,1.4,3.7,3.3
				c0,0.6-0.1,1.2-0.3,1.7l-4.6,9.2c-0.8,1.7-2.9,2.5-4.7,1.6C69,348.1,68.5,347.7,68.1,347.2z"/>
			<path class="st0" d="M89,346.8l-4.7-9.2c-0.9-1.7-0.2-3.8,1.5-4.7c0.5-0.3,1.2-0.4,1.8-0.4l10.3,0.6c1.9,0.1,3.4,1.8,3.3,3.7
				c0,0.6-0.2,1.2-0.6,1.7l-5.7,8.6c-1.1,1.6-3.3,2-4.9,0.9C89.7,347.8,89.3,347.3,89,346.8z"/>
		</g>
		<path class="st1" d="M84.3,332.1c0,0,3,14.6,7.6,14.6s9.1-11.6,9.1-13.1s3,16-7.6,21.9C93.3,355.4,81.3,349.6,84.3,332.1z"/>
		<path class="st1" d="M62.5,332.1c0,0,3,14.6,7.6,14.6s9.1-11.6,9.1-13.1s3,16-7.6,21.9C71.6,355.4,59.5,349.6,62.5,332.1z"/>
		<g id="legs">
			<path class="st2" d="M59.5,208.6c0,0-0.1,0.5-0.2,1.4c-3.5,20.8-2,42.2,4.4,62.3c0.6,2,1.1,3.7,1.4,5.1c0,0-3.1,8.1,1.6,14.3
				L62,338.3c0,0,9.3-6.2,20.2-1.5l-4.7-42v-18.6c0,0,4.7-33,4.7-49.7C82.2,209.5,76.8,200.1,59.5,208.6z"/>
			<path class="st2" d="M105,208.6c0,0,0.1,0.5,0.2,1.4c3.5,20.8,2,42.2-4.4,62.3c-0.6,2-1.1,3.7-1.4,5.1c0,0,3.1,8.1-1.6,14.3
				l4.7,46.6c0,0-9.3-6.2-20.2-1.5l4.7-42v-18.6c0,0-4.7-33-4.7-49.7C82.2,209.5,87.7,200.1,105,208.6z"/>
		</g>
		<path class="st0" d="M151.8,200.6c4.8-0.2,9.6,0,14.3,0.5c1,0.1,1.6,1,1.5,2c-0.1,0.5-0.3,0.9-0.7,1.2c-0.7,0.5-1.5,0.9-2.4,1.2
			c-0.9,0.2-1.5,1.2-1.3,2.1c0,0.1,0.1,0.2,0.1,0.4c1.3,2.5,7.4,1.4,12.1,4.5c2.9,1.9,3.1,4.7,1.5,7.2c-1.9,3-18.6,8.4-26.5-5.3
			c-0.1-0.2-0.4-0.3-0.5-0.5l-4.7-6.6c-0.6-0.8-0.4-1.9,0.4-2.4l5.1-3.8C151.1,200.8,151.5,200.7,151.8,200.6z"/>
		<path class="st0" d="M23.1,202.2c-4.7,0.6-9.4,1.6-14,2.9c-0.9,0.3-1.4,1.3-1.1,2.2c0.1,0.4,0.5,0.8,0.9,1
			c0.8,0.4,1.7,0.7,2.6,0.8c1,0.1,1.7,0.9,1.6,1.9c0,0.1,0,0.2-0.1,0.4c-0.9,2.7-7,2.6-11.1,6.5c-2.5,2.4-2.2,5.1-0.3,7.3
			c2.3,2.6,19.8,5,25.1-9.8c0.1-0.2,0.3-0.3,0.4-0.6l3.5-7.3c0.4-0.9,0.1-1.9-0.8-2.3l-5.7-2.9C23.8,202.3,23.5,202.2,23.1,202.2z"
			/>
		<path id="top" class="st3" d="M63.6,128.5c0,0-21.8-15.5-21.8,46.6c0,0-21.8,20.2-26.4,23.3s10.9,17.1,17.1,15.5
			S62,172,63.6,161.1c0,0,4.7,29.5-1.3,35.3l-20.5,19.1c0,0,15.5,18.6,38.9,17.1s38.8-18.6,38.8-18.6l-20-18.5
			c-4.9-6.4-0.2-35.9-0.2-35.9c0,0.3,39.1,54.4,43.5,54.4s17.1-15.5,14-17.1s-31.1-23.3-31.1-23.3c-12.4-62.6-31-46.6-31-46.6
			L63.6,128.5z"/>
		<path id="neck" class="st4" d="M86.9,125.4c0,5.2-3.5,17.1-7.8,17.1s-6.2-11.9-6.2-17.1s2.4-15.5,6.7-15.5S86.9,120.3,86.9,125.4z
			"/>
		<g id="face">
			<path class="st5" d="M72.9,128.5c0,0,9,97.9-7.8,102.6c0,0,15.5,9.3,40.4-6.2c0,0-23.3-10.9-18.7-97.9
				C86.9,127,79.1,158.1,72.9,128.5z"/>
			<path id="face-2" class="st6" d="M130.4,71.2c-0.5,29.2-37.3,52.7-54.4,51.2c-19.3-1.8-51.8-26.7-51.3-55.9S45,19.2,79.5,19.8
				S130.9,42,130.4,71.2z"/>
			<g id="eyeshadow_crease">
				
					<radialGradient id="SVGID_1_" cx="51.94" cy="598" r="14.5" gradientTransform="matrix(1 0 0 0.8 0 -422.9)" gradientUnits="userSpaceOnUse">
					<stop  offset="0" style="stop-color:#BC4D15;stop-opacity:0.8"/>
					<stop  offset="0.26" style="stop-color:#BD4F18;stop-opacity:0.8"/>
					<stop  offset="0.42" style="stop-color:#C15720;stop-opacity:0.82"/>
					<stop  offset="0.57" style="stop-color:#C7642E;stop-opacity:0.84"/>
					<stop  offset="0.69" style="stop-color:#D07742;stop-opacity:0.87"/>
					<stop  offset="0.81" style="stop-color:#DC8F5B;stop-opacity:0.91"/>
					<stop  offset="0.92" style="stop-color:#EBAC7B;stop-opacity:0.96"/>
					<stop  offset="1" style="stop-color:#F8C898"/>
				</radialGradient>
				<ellipse class="st7" cx="51.9" cy="55.5" rx="16.3" ry="12.4"/>
				
					<radialGradient id="SVGID_2_" cx="97" cy="489.5" r="14.506" gradientTransform="matrix(1 0 0 1 0 -434)" gradientUnits="userSpaceOnUse">
					<stop  offset="0" style="stop-color:#BC4D15;stop-opacity:0.8"/>
					<stop  offset="0.26" style="stop-color:#BD4F18;stop-opacity:0.8"/>
					<stop  offset="0.42" style="stop-color:#C15720;stop-opacity:0.82"/>
					<stop  offset="0.57" style="stop-color:#C7642E;stop-opacity:0.84"/>
					<stop  offset="0.69" style="stop-color:#D07742;stop-opacity:0.87"/>
					<stop  offset="0.81" style="stop-color:#DC8F5B;stop-opacity:0.91"/>
					<stop  offset="0.92" style="stop-color:#EBAC7B;stop-opacity:0.96"/>
					<stop  offset="1" style="stop-color:#F8C898"/>
				</radialGradient>
				<ellipse class="st8" cx="97" cy="55.5" rx="16.3" ry="12.4"/>
			</g>
			<g id="left_eye">
				<ellipse transform="matrix(0.1774 -0.9841 0.9841 0.1774 -19.4318 111.6059)" class="st9" cx="57" cy="67.4" rx="11" ry="14"/>
				
					<ellipse transform="matrix(0.9841 -0.1774 0.1774 0.9841 -10.978 11.0322)" class="st10" cx="56.2" cy="66.9" rx="8.8" ry="10.3"/>
				<circle class="st11" cx="56.2" cy="66.9" r="7.4"/>
				<circle class="st9" cx="51.1" cy="63.3" r="2.9"/>
				<circle class="st9" cx="62.6" cy="68.7" r="1.5"/>
				<g id="eyelashes">
					<path d="M48.8,53.2c0.2,0.7,0.5,1.4,1.1,2c0.3,0.2,0.5,0.4,0.8,0.6l0.6,0.2c0.2,0.1,0.4,0.2,0.6,0.3c-0.2,0.1-0.4,0.2-0.7,0.3
						c-0.2,0.1-0.5,0.1-0.7,0.1c-0.5,0-1.1-0.2-1.5-0.6c-0.4-0.4-0.6-0.9-0.7-1.5C48.4,54.1,48.5,53.6,48.8,53.2z"/>
					<path d="M40.3,55.5c0.2,1.2,0.6,2.3,1.2,3.3c0.3,0.4,0.7,0.8,1.2,1c0.3,0.1,0.5,0.2,0.8,0.3s0.6,0.2,0.9,0.3
						c-0.3,0.1-0.7,0.2-1,0.3c-0.3,0-0.7,0-1,0c-0.7-0.1-1.4-0.5-1.9-1.1c-0.4-0.6-0.7-1.3-0.7-2C39.8,56.8,40,56.1,40.3,55.5z"/>
					<path d="M42.6,54.7c0.1,1,0.4,2,1.1,2.8c0.3,0.3,0.7,0.6,1.2,0.8l0.8,0.3c0.3,0.1,0.6,0.2,0.8,0.3c-0.3,0.1-0.6,0.2-0.9,0.3
						c-0.3,0-0.6,0-0.9,0c-0.7-0.1-1.3-0.4-1.8-0.8c-0.5-0.5-0.8-1.2-0.8-1.9C42.1,55.9,42.3,55.2,42.6,54.7z"/>
					<path d="M45.7,53.2c0,1.1,0.3,2.1,0.9,3c0.4,0.3,0.8,0.6,1.2,0.7l0.8,0.2c0.3,0.1,0.6,0.1,0.9,0.2c-0.3,0.1-0.6,0.2-0.9,0.3
						c-0.3,0.1-0.7,0.1-1,0.1c-0.7,0-1.4-0.3-1.9-0.8s-0.8-1.3-0.8-2C45.1,54.3,45.3,53.7,45.7,53.2z"/>
					<path d="M51.2,52.1c0.2,0.8,0.5,1.6,1,2.4c0.2,0.3,0.5,0.5,0.8,0.7s0.8,0.4,1.3,0.6c-0.5,0.3-1,0.4-1.5,0.3
						c-0.6-0.1-1.1-0.4-1.5-0.9c-0.3-0.5-0.5-1-0.5-1.6C50.7,53.1,50.8,52.6,51.2,52.1z"/>
					<path d="M54.2,52.1c0.2,0.8,0.5,1.6,1,2.4c0.2,0.3,0.5,0.5,0.8,0.7c0.4,0.2,0.8,0.4,1.3,0.6c-0.5,0.3-1,0.4-1.5,0.3
						c-0.6-0.1-1.1-0.4-1.5-0.9C53.7,54.3,53.6,53.1,54.2,52.1L54.2,52.1z"/>
				</g>
				<g id="eye_line">
					<path d="M45.9,60.1c-0.6,0.8-1.4,1.5-2.4,2c-1,0.6-2.1,0.8-3.2,0.6c-0.6-0.1-1.2-0.4-1.7-0.9c-0.4-0.4-0.7-1-0.8-1.5
						c-0.2-1-0.2-2.1,0.2-3.2c0.3,0.9,0.6,1.8,1,2.7c0.3,0.7,0.9,1.2,1.7,1.4c0.8,0.1,1.7,0,2.4-0.2C44,60.7,44.9,60.4,45.9,60.1z"
						/>
					<path d="M49.7,57.1c-0.8,0.9-1.8,1.6-2.8,2.3c-1,0.6-2.1,1.2-3.3,1.5c-1.2,0.4-2.6,0.5-3.8,0.2c-0.7-0.2-1.3-0.7-1.6-1.3
						s-0.3-1.2-0.2-1.9c0.2,0.5,0.5,1,0.8,1.4c0.3,0.3,0.8,0.5,1.2,0.5c1,0,2.1-0.2,3.1-0.5C45.3,58.7,47.4,57.8,49.7,57.1z"/>
					<path d="M71.3,67.6c-1-2.8-2.7-5.3-4.9-7.2c-1.1-0.9-2.3-1.7-3.5-2.2c-1.3-0.5-2.6-0.8-4-1S56,57,54.6,57.1
						c-1.4,0.1-2.7,0.5-4,1s-2.6,1.2-3.7,2c-0.6,0.5-1.3,0.9-2,1.3c-0.3,0.2-0.7,0.4-1.1,0.6c-0.3,0-0.5,0-0.7,0
						c-0.1,0-0.3,0-0.4-0.1c-0.1-0.1-0.1-0.3,0-0.4h0.1c0,0.2,0.1,0.2,0.2,0.2c0.2-0.1,0.3-0.1,0.5-0.2c0.3-0.2,0.6-0.4,0.9-0.7
						c0.6-0.5,1.1-1,1.7-1.5c1.1-1,2.4-1.9,3.8-2.6c1.4-0.7,2.9-1.1,4.4-1.2c1.5-0.2,3.1-0.1,4.6,0.1c3.1,0.4,6,1.7,8.2,3.9
						C69.3,61.7,70.8,64.5,71.3,67.6L71.3,67.6z"/>
				</g>
			</g>
			<g id="right_eye">
				
					<ellipse transform="matrix(0.2212 -0.9752 0.9752 0.2212 7.3238 144.3623)" class="st9" cx="94" cy="67.6" rx="10.5" ry="13.3"/>
				<ellipse transform="matrix(0.2224 -0.975 0.975 0.2224 8.4323 143.2996)" class="st12" cx="94" cy="66.4" rx="9.8" ry="8.4"/>
				
					<ellipse transform="matrix(0.9925 -0.1222 0.1222 0.9925 -7.4423 12.0593)" class="st10" cx="94.6" cy="66.7" rx="9.1" ry="10.6"/>
				<circle class="st11" cx="94.1" cy="66.4" r="7"/>
				<circle class="st9" cx="99.1" cy="63.2" r="2.8"/>
				<circle class="st9" cx="87.9" cy="67.9" r="1.4"/>
				<g id="eyelashes-2">
					<path d="M110.2,55.5c0.2,0.7,0.2,1.5,0,2.2c-0.2,0.8-0.5,1.5-1.1,2.1c-1.1,1.2-2.8,1.7-4.3,1.1c0.7-0.2,1.4-0.4,2-0.7
						s1.1-0.7,1.5-1.2C109.1,58,109.7,56.8,110.2,55.5z"/>
					<path d="M107.9,54.7c0.2,0.6,0.3,1.3,0.2,2c-0.1,0.7-0.2,1.3-0.6,1.9c-0.3,0.6-0.9,1.1-1.5,1.5c-0.6,0.3-1.3,0.3-2,0.1
						c0.5-0.2,1.1-0.5,1.5-0.9s0.7-0.8,1-1.3s0.5-1,0.7-1.6C107.4,55.9,107.6,55.3,107.9,54.7z"/>
					<path d="M106.3,54.7c0.2,0.6,0.2,1.3,0.1,2c-0.2,0.7-0.5,1.3-1,1.8c-1,1-2.4,1.4-3.8,0.9c0.6-0.3,1.2-0.5,1.7-0.7
						c0.5-0.3,0.9-0.6,1.3-1C105.3,56.8,105.9,55.8,106.3,54.7z"/>
					<path d="M104,54c0.2,0.6,0.2,1.3,0.1,2c-0.2,0.7-0.5,1.3-1,1.8s-1.1,0.9-1.8,1c-0.7,0.2-1.4,0.1-2-0.1c0.6-0.2,1.1-0.5,1.7-0.7
						c0.5-0.3,0.9-0.6,1.3-1C103,56.1,103.6,55.1,104,54z"/>
					<path d="M101.7,53.2c0.2,0.6,0.2,1.2,0.1,1.8c-0.2,0.7-0.6,1.2-1.1,1.6c-0.6,0.4-1.3,0.5-1.9,0.4c-0.3,0-0.6-0.1-0.9-0.3
						c-0.3-0.1-0.5-0.3-0.8-0.5c0.3,0,0.6-0.1,0.9-0.1s0.6,0,0.8-0.1c0.5-0.1,0.9-0.2,1.3-0.5C100.7,55,101.3,54.1,101.7,53.2z"/>
					<path d="M98.6,53.2c0.2,0.4,0.3,0.9,0.2,1.4c-0.1,0.5-0.3,0.9-0.6,1.3c-0.3,0.4-0.8,0.6-1.3,0.7c-0.5,0.1-0.9,0-1.4-0.2
						c0.4-0.3,0.8-0.4,1-0.6c0.3-0.2,0.5-0.4,0.8-0.6C97.7,54.5,98.2,53.8,98.6,53.2z"/>
				</g>
				<g id="eyeline">
					<path d="M100.7,57.5c2.1,0.9,4.4,1.5,6.7,1.8c1.1,0,2.2-0.1,3.2-0.5c1.1-0.5,2-1.1,2.9-1.9c-0.5,1.2-1.3,2.2-2.3,2.9
						c-1.1,0.7-2.4,1.1-3.8,1C104.8,60.6,102.4,59.4,100.7,57.5L100.7,57.5z"/>
					<path d="M96.5,57.3c0.8,0,1.7,0.2,2.5,0.4c0.8,0.3,1.6,0.6,2.3,0.9c1.5,0.6,2.9,1.2,4.5,1.6c1.4,0.4,2.9,0.4,4.3-0.2
						c1.4-0.8,2.5-1.9,3.4-3.2c-0.3,1.7-1.3,3.2-2.8,4.3c-0.8,0.5-1.7,0.8-2.6,0.9c-0.9,0.1-1.8,0-2.7-0.2c-1.6-0.5-3.2-1.1-4.6-2
						C99.3,58.8,97.9,58,96.5,57.3z"/>
					<path d="M81.4,68.9c-0.3-1.4-0.4-2.8-0.2-4.2c0.2-1.5,0.7-2.9,1.4-4.1c0.8-1.3,1.9-2.4,3.3-3.2c1.3-0.8,2.8-1.3,4.2-1.5
						c1.4-0.2,2.9-0.3,4.4-0.2c0.7,0,1.4,0.2,2.1,0.2c0.7,0.1,1.5,0.3,2.2,0.6c2.6,0.9,5.1,2.3,7.3,4l-0.1,0.1
						c-2.5-1.1-5-2.1-7.7-2.8c-0.7-0.2-1.3-0.3-2-0.4c-0.7-0.1-1.3-0.2-2-0.2c-1.3-0.1-2.7-0.1-4,0.1c-1.3,0.2-2.6,0.6-3.8,1.2
						c-1.2,0.6-2.2,1.5-3,2.6c-1.5,2.3-2.2,5-2,7.7L81.4,68.9z"/>
				</g>
			</g>
			
				<radialGradient id="nose_1_" cx="847.2594" cy="723.7218" r="8.48" gradientTransform="matrix(0.61 -4.000000e-02 7.000000e-02 0.97 -491.92 -579.83)" gradientUnits="userSpaceOnUse">
				<stop  offset="0" style="stop-color:#F8C898"/>
				<stop  offset="0.26" style="stop-color:#F8C596;stop-opacity:0.97"/>
				<stop  offset="0.66" style="stop-color:#F8BD90;stop-opacity:0.89"/>
				<stop  offset="1" style="stop-color:#F8B589;stop-opacity:0.8"/>
			</radialGradient>
			<path id="nose" class="st13" d="M72.9,81.9c-3,3.7-3.1,7.8,3.1,7.8s7.1-3.8,3.1-7.8"/>
			<g id="blush">
				
					<radialGradient id="SVGID_3_" cx="-239.0362" cy="561.7667" r="9.1378" gradientTransform="matrix(1.29 0 0 0.9 354.24 -419.79)" gradientUnits="userSpaceOnUse">
					<stop  offset="0" style="stop-color:#F8A077;stop-opacity:0.8"/>
					<stop  offset="0.24" style="stop-color:#F8AB80;stop-opacity:0.86"/>
					<stop  offset="0.74" style="stop-color:#F8C091;stop-opacity:0.96"/>
					<stop  offset="1" style="stop-color:#F8C898"/>
				</radialGradient>
				<ellipse class="st14" cx="46.5" cy="85.8" rx="14" ry="8.6"/>
				
					<radialGradient id="SVGID_4_" cx="-189.5401" cy="561.7667" r="9.1378" gradientTransform="matrix(1.29 0 0 0.9 354.24 -419.79)" gradientUnits="userSpaceOnUse">
					<stop  offset="0" style="stop-color:#F8A077;stop-opacity:0.8"/>
					<stop  offset="0.24" style="stop-color:#F8AB80;stop-opacity:0.86"/>
					<stop  offset="0.74" style="stop-color:#F8C091;stop-opacity:0.96"/>
					<stop  offset="1" style="stop-color:#F8C898"/>
				</radialGradient>
				<ellipse class="st15" cx="110.3" cy="85.8" rx="14" ry="8.6"/>
			</g>
			<g id="right_eyebrow">
				<path class="st16" d="M30.2,54.7c2.7-2.1,5.7-3.9,8.8-5.3c3.2-1.4,6.5-2.4,9.9-3c3.5-0.7,7.1-0.7,10.6,0
					c1.8,0.4,3.6,1.1,5.1,2.2c1.5,1.1,2.5,2.7,2.9,4.5c-1.1-1.2-2.5-2.1-4-2.5C62,50.3,60.5,50,59,50c-3.1,0.1-6.3,0.4-9.3,1
					c-3.2,0.6-6.3,1.2-9.6,1.9S33.6,54.3,30.2,54.7z"/>
			</g>
			<g id="left_eyebrow">
				<path class="st16" d="M118.8,54.7c-3.4-0.4-6.7-1.1-9.9-1.8s-6.4-1.4-9.6-1.9c-3.1-0.6-6.2-0.9-9.3-1c-1.5,0-3,0.2-4.4,0.6
					c-1.5,0.5-2.9,1.3-4,2.5c0.4-1.8,1.4-3.4,2.9-4.5s3.3-1.9,5.1-2.2c3.5-0.7,7.1-0.7,10.6,0c3.4,0.6,6.7,1.6,9.8,3
					C113.1,50.7,116.1,52.5,118.8,54.7z"/>
			</g>
			<g id="mouth">
				<path id="lower_lip" class="st3" d="M86.9,100.6c-1.7,0.9-3.4,1.6-5.3,2.1c-2,0.5-4.3,0.3-7.8,0.2c-2.5-0.3-4.9-1.1-7.1-2.2
					h-1.5c0,0,0,7.8,10.9,7.8s12.4-7.8,12.4-7.8L86.9,100.6L86.9,100.6z"/>
				<path id="back" d="M68.3,101.9l9.3,0.2c1.6,0,9.4-1.3,9.4-1.3"/>
				<path id="upper_lip" class="st3" d="M77.6,102.1c3,0,10.4-1.6,10.9-1.6c-9.3-6.2-12.4-2-12.4-2c-4.3-4-10.9,2-10.9,2
					C69.2,101.4,73.4,101.9,77.6,102.1z"/>
				<path id="teeth" class="st9" d="M66.7,100.6c1.7,0.8,18.8,0.8,20.2,0c-3.1,1.6-6.3,3.1-9.3,3.1
					C72.9,103.7,68.3,102.1,66.7,100.6z"/>
				<g id="smile">
					<path d="M63.6,99c2.1,1.2,4.4,2.1,6.8,2.6c2.3,0.5,4.7,0.8,7.1,0.7c1.2-0.1,2.4-0.2,3.6-0.4c0.6-0.1,1.2-0.1,1.8-0.3l1.8-0.4
						c0.6-0.1,1.2-0.3,1.8-0.5l1.8-0.5c1.2-0.4,2.3-0.9,3.5-1.3c-1,0.7-2.1,1.3-3.2,2c-1.1,0.6-2.3,1.1-3.4,1.5
						c-2.4,0.9-4.9,1.3-7.4,1.5c-2.5,0.1-5.1-0.3-7.5-1.1C67.6,102.1,65.4,100.8,63.6,99z"/>
				</g>
			</g>
		</g>
		<path id="hair" class="st17" d="M97.8,22.9c0,0-2,28.7-49.2,22.5c-23-3-21.2,28.4-19.2,36.5c1.5,6.2,12.4,26.4,31.1,35.7
			c0,0-42.9-10.2-46.9-42.2c-10-81,68.6-79,85.7-72.7c0,0,34.5,9.7,41.3,48.7c4.5,26-14,61-44,66c0,0,24.5-18.4,27.6-38.6
			s-17.1-20.2-15.5-49.7c0,0-15.5,21.8-34.2,18.6C74.5,47.7,100.9,40,97.8,22.9z"/>
	</g>
</g>
</svg>
