<?xml version="1.0" encoding="utf-8"?>
<!-- Generator: Adobe Illustrator 22.0.1, SVG Export Plug-In . SVG Version: 6.00 Build 0)  -->
<svg version="1.1" id="Layer_1" xmlns="http://www.w3.org/2000/svg" xmlns:xlink="http://www.w3.org/1999/xlink" x="0px" y="0px"
	 viewBox="0 0 42.3 31.4" style="enable-background:new 0 0 42.3 31.4;" xml:space="preserve">
<style type="text/css">
	.st0{fill:#DC5611;}
	.st1{fill:#F9817B;}
	.st2{fill:#E35219;}
	.st3{fill:#FFA79E;}
	.st4{fill:#FFCBC6;}
	.st5{fill:#EF675F;}
	.st6{fill:#312927;}
	.st7{fill:#FFFFFF;}
</style>
<title>pink</title>
<g id="Layer_2_1_">
	<g id="birds">
		<g id="pink">
			<path class="st0" d="M20.7,25.2c0.4,0.4,0.8,0.8,1.1,1.3c0.3,0.4,0.6,0.8,0.8,1.3c0.2,0.4,0.5,0.9,0.7,1.3
				c0.1,0.2,0.2,0.4,0.3,0.6c0.1,0.2,0.3,0.4,0.5,0.5v0.1c-0.6,0-1.1-0.2-1.5-0.7c-0.4-0.4-0.7-0.9-1-1.3c-0.5-1-0.9-2-1.2-3.1
				L20.7,25.2z"/>
			<path class="st0" d="M22.6,29.6c-0.4,0.2-0.7,0.5-1,0.8c-0.3,0.3-0.5,0.6-0.6,1c-0.2-0.5-0.1-1,0.3-1.4
				C21.6,29.7,22.1,29.5,22.6,29.6z"/>
			<path class="st0" d="M22.4,29.1c0,0.4,0,0.8,0.1,1.2c0.1,0.4,0.3,0.8,0.5,1.1c-0.5,0-0.9-0.4-1-1C22,30,22.1,29.5,22.4,29.1z"/>
			<path class="st0" d="M16.9,29.6c-0.4,0.2-0.7,0.5-1,0.7c-0.3,0.3-0.5,0.6-0.6,1c-0.2-0.5-0.1-1,0.3-1.4
				C15.9,29.6,16.4,29.5,16.9,29.6z"/>
			<path class="st1" d="M34.2,20.5c2.2,0,8.4-0.1,8-2.5c-0.2-0.9-0.6-1.7-1-2.5C41,15.2,40.4,15,40,15.2l-6,3.6
				C33.3,19.2,33.8,20.5,34.2,20.5z"/>
			<path class="st0" d="M16.7,29c0,0.4,0,0.8,0.1,1.2c0.1,0.4,0.3,0.8,0.5,1.1c-0.5-0.1-0.9-0.5-1-1C16.2,29.8,16.4,29.3,16.7,29z"
				/>
			<path class="st0" d="M15,25.5c0.6,0.9,1.2,1.8,1.6,2.8c0.2,0.5,0.5,0.9,0.8,1.3c0.1,0.2,0.3,0.4,0.5,0.6c0.2,0.2,0.4,0.3,0.6,0.4
				c-0.3,0.2-0.6,0.2-0.9,0c-0.3-0.1-0.6-0.3-0.8-0.5c-0.4-0.4-0.8-0.8-1.1-1.4C15.2,27.8,14.9,26.6,15,25.5z"/>
			<path class="st2" d="M3.3,12.5L3.3,12.5c0.2-0.2,0.3-0.5,0.1-0.7c-0.1-0.1-0.1-0.1-0.2-0.2l-2.5-1.1c-0.2-0.1-0.5,0-0.6,0.3
				c0,0.1,0,0.2,0,0.3l0,0c0.1,1.1,1.2,1.9,2.3,1.8C2.7,12.9,3,12.7,3.3,12.5z"/>
			<path class="st3" d="M12.3,20.4c-3.5-3.4-7.6-4.8-9.2-3.3C1.3,11.8,2.5,5.6,9.7,3.6c5.1-1.4,9.5,2.7,13.1,9
				c1.2,2.1,8.5,4.5,11.9,5.8c0.7,0.3,0.9,1.9,0.3,2.2c-4,2-8.1,3.8-12.3,5.2c-2,0.6-4.2,0.8-6.3,0.7C15.6,24.2,14.2,22,12.3,20.4z"
				/>
			<path class="st4" d="M4.4,19.8c-0.5-0.9-1-1.8-1.3-2.8c1.7-1.5,5.7-0.1,9.2,3.3c1.9,1.7,3.3,3.8,4,6.2C11.5,26.5,7,24,4.4,19.8z"
				/>
			<path class="st5" d="M38.2,16.4l1.8-1.1c0.4-0.3,1-0.1,1.3,0.3c0,0,0,0,0,0c0.4,0.8,0.8,1.6,1,2.5c0.2,1-0.8,1.6-2.3,2
				C40,18.7,39.4,17.3,38.2,16.4z"/>
			<path class="st3" d="M12.5,5C12,4.2,11.9,3.2,12,2.3c0.1-0.5,0.3-0.9,0.5-1.3c0.3-0.4,0.7-0.7,1.2-0.7c-0.3,0.2-0.6,0.6-0.8,0.9
				c-0.1,0.4-0.3,0.8-0.3,1.2C12.6,3.3,12.5,4.1,12.5,5z"/>
			<path class="st3" d="M12.6,4.3c-0.8-0.3-1.5-1-1.8-1.9c-0.1-0.5,0-0.9,0.2-1.4c0.2-0.4,0.5-0.8,0.9-1c-0.4,0.7-0.5,1.5-0.4,2.2
				C11.7,2.9,12.1,3.6,12.6,4.3z"/>
			<path class="st3" d="M12.8,3.6c-0.4,0.1-0.8,0.1-1.1,0c-0.4-0.1-0.8-0.2-1.1-0.4c-0.4-0.2-0.7-0.5-0.9-0.8
				C9.4,2.1,9.3,1.7,9.4,1.3c0.2,0.7,0.7,1.2,1.4,1.5C11.4,3.1,12.1,3.4,12.8,3.6z"/>
			<circle class="st6" cx="5.5" cy="9.5" r="1.3"/>
			<circle class="st7" cx="4.9" cy="9.1" r="0.5"/>
		</g>
	</g>
</g>
<g id="Layer_2_2_">
	<g id="bird_wings">
		<path id="pink_1_" class="st1" d="M20.1,20.2c4.2-0.1,12.2-4.1,12.2-4.1s-8.5-2.8-11.1-4.5c-4.9-3.2-9.5-0.6-9.6,2.8
			C11.6,18.6,16.6,20.3,20.1,20.2z"/>
	</g>
</g>
</svg>
