<svg xmlns="http://www.w3.org/2000/svg" xmlns:xlink="http://www.w3.org/1999/xlink" viewBox="0 0 258.22 242.32"><defs><style>.cls-1{fill:url(#linear-gradient);}.cls-2{fill:url(#linear-gradient-2);}.cls-3{fill:url(#linear-gradient-3);}.cls-4{fill:url(#linear-gradient-4);}.cls-5{fill:url(#linear-gradient-5);}.cls-6{fill:url(#linear-gradient-6);}.cls-7{fill:url(#linear-gradient-7);}.cls-8{fill:url(#linear-gradient-8);}.cls-9{fill:url(#linear-gradient-9);}.cls-10{fill:url(#linear-gradient-10);}.cls-11{fill:url(#linear-gradient-11);}.cls-12{fill:url(#linear-gradient-12);}.cls-13{fill:url(#linear-gradient-13);}.cls-14{fill:url(#linear-gradient-14);}.cls-15{fill:url(#linear-gradient-15);}.cls-16{fill:url(#radial-gradient);}.cls-17{fill:url(#linear-gradient-16);}.cls-18{fill:url(#radial-gradient-2);}.cls-19{fill:url(#linear-gradient-17);}.cls-20{fill:url(#radial-gradient-3);}.cls-21{fill:url(#linear-gradient-18);}.cls-22{fill:url(#linear-gradient-19);}.cls-23{fill:url(#linear-gradient-20);}.cls-24{fill:url(#linear-gradient-21);}.cls-25{fill:url(#linear-gradient-22);}.cls-26{fill:url(#radial-gradient-4);}.cls-27{fill:url(#radial-gradient-5);}.cls-28{fill:url(#linear-gradient-23);}.cls-29{fill:url(#linear-gradient-24);}</style><linearGradient id="linear-gradient" x1="-1304.68" y1="2858.87" x2="-1317.97" y2="2961.24" gradientTransform="matrix(-0.52, 1.15, -1.67, -0.76, 4293.48, 3822.05)" gradientUnits="userSpaceOnUse"><stop offset="0" stop-color="#d090a0"/><stop offset="0.9" stop-color="#b34f60"/><stop offset="1" stop-color="#af4758"/></linearGradient><linearGradient id="linear-gradient-2" x1="764.56" y1="-27.63" x2="686.38" y2="-27.63" gradientTransform="translate(-473.29 315.48) rotate(-15.39)" gradientUnits="userSpaceOnUse"><stop offset="0" stop-color="#af4758"/><stop offset="0.44" stop-color="#be6979"/><stop offset="1" stop-color="#d090a0"/></linearGradient><linearGradient id="linear-gradient-3" x1="2316.62" y1="1011.42" x2="2298.01" y2="1065.29" gradientTransform="matrix(0.43, -0.9, 0.9, 0.43, -1724.11, 1821.46)" xlink:href="#linear-gradient"/><linearGradient id="linear-gradient-4" x1="-1688.11" y1="1149.78" x2="-1693.39" y2="1165.18" gradientTransform="matrix(0.69, 0.72, -0.72, 0.69, 2053.18, 578.55)" gradientUnits="userSpaceOnUse"><stop offset="0" stop-color="#af4758"/><stop offset="0.27" stop-color="#a33f51"/><stop offset="0.76" stop-color="#842b3e"/><stop offset="1" stop-color="#721f33"/></linearGradient><linearGradient id="linear-gradient-5" x1="-1789.67" y1="3819.62" x2="-1794.96" y2="3835.03" gradientTransform="matrix(-0.41, 0.91, -0.91, -0.41, 2806.65, 3293.58)" xlink:href="#linear-gradient-4"/><linearGradient id="linear-gradient-6" x1="1523.92" y1="4525.41" x2="1518.64" y2="4540.82" gradientTransform="matrix(-0.9, -0.43, 0.43, -0.9, -376.29, 4803.14)" xlink:href="#linear-gradient-4"/><linearGradient id="linear-gradient-7" x1="606.39" y1="13.66" x2="568.13" y2="79.94" gradientTransform="translate(-473.29 315.48) rotate(-15.39)" gradientUnits="userSpaceOnUse"><stop offset="0" stop-color="#fddaf2"/><stop offset="0.2" stop-color="#e5b3c7"/><stop offset="0.39" stop-color="#d090a0"/><stop offset="1" stop-color="#af4758"/></linearGradient><linearGradient id="linear-gradient-8" x1="627.84" y1="48.36" x2="627.84" y2="-117.56" gradientTransform="translate(-473.29 315.48) rotate(-15.39)" gradientUnits="userSpaceOnUse"><stop offset="0" stop-color="#fddaf2"/><stop offset="0.51" stop-color="#ff90a1"/><stop offset="0.75" stop-color="#d66b7c"/><stop offset="1" stop-color="#af4758"/></linearGradient><linearGradient id="linear-gradient-9" x1="593.64" y1="14.26" x2="541.5" y2="14.26" gradientTransform="translate(-473.29 315.48) rotate(-15.39)" gradientUnits="userSpaceOnUse"><stop offset="0" stop-color="#863e4c"/><stop offset="1" stop-color="#721f33"/></linearGradient><linearGradient id="linear-gradient-10" x1="144.67" y1="25.75" x2="139.39" y2="41.15" gradientTransform="translate(-32.25 186.55) rotate(-4.57)" gradientUnits="userSpaceOnUse"><stop offset="0" stop-color="#ff90a1"/><stop offset="1" stop-color="#721f33"/></linearGradient><linearGradient id="linear-gradient-11" x1="2667.72" y1="2008.17" x2="2662.45" y2="2023.57" gradientTransform="translate(-1983.25 2650.8) rotate(-85.67)" xlink:href="#linear-gradient-10"/><linearGradient id="linear-gradient-12" x1="-1659.69" y1="3903.5" x2="-1659.69" y2="3737.57" gradientTransform="translate(2515.77 3562.44) rotate(121.98)" gradientUnits="userSpaceOnUse"><stop offset="0" stop-color="#ff9aa9"/><stop offset="0.51" stop-color="#ff90a1"/><stop offset="0.75" stop-color="#d66b7c"/><stop offset="1" stop-color="#af4758"/></linearGradient><linearGradient id="linear-gradient-13" x1="580.44" y1="-29.96" x2="598.33" y2="-60.95" gradientTransform="translate(-473.29 315.48) rotate(-15.39)" gradientUnits="userSpaceOnUse"><stop offset="0" stop-color="#af4758"/><stop offset="0.16" stop-color="#933849"/><stop offset="0.37" stop-color="#782a3a"/><stop offset="0.58" stop-color="#641f2f"/><stop offset="0.79" stop-color="#581928"/><stop offset="1" stop-color="#541726"/></linearGradient><linearGradient id="linear-gradient-14" x1="583.79" y1="-33.11" x2="695.37" y2="-33.11" gradientTransform="translate(-473.29 315.48) rotate(-15.39)" gradientUnits="userSpaceOnUse"><stop offset="0" stop-color="#ff90a1"/><stop offset="0.52" stop-color="#e26073"/><stop offset="1" stop-color="#ca394e"/></linearGradient><linearGradient id="linear-gradient-15" x1="-799.3" y1="222.36" x2="-703.94" y2="222.36" gradientTransform="translate(932.65 166.34) rotate(18.97)" xlink:href="#linear-gradient-14"/><radialGradient id="radial-gradient" cx="1014.15" cy="215.06" r="7.89" gradientTransform="matrix(1.06, -0.55, 0.48, 0.93, -1013.69, 489.72)" gradientUnits="userSpaceOnUse"><stop offset="0" stop-color="#541726"/><stop offset="0.28" stop-color="#692232"/><stop offset="0.86" stop-color="#a03f50"/><stop offset="1" stop-color="#af4758"/></radialGradient><linearGradient id="linear-gradient-16" x1="629.1" y1="-28.08" x2="673.76" y2="-28.08" gradientTransform="translate(-473.29 315.48) rotate(-15.39)" gradientUnits="userSpaceOnUse"><stop offset="0" stop-color="#ff90a1"/><stop offset="0.11" stop-color="#ea7d8e"/><stop offset="0.35" stop-color="#bf5667"/><stop offset="0.47" stop-color="#af4758"/><stop offset="0.72" stop-color="#be3f53"/><stop offset="1" stop-color="#ca394e"/></linearGradient><radialGradient id="radial-gradient-2" cx="2570.95" cy="755.94" r="6.85" gradientTransform="matrix(-0.96, 0.27, -0.53, -1.93, 3001.26, 876.1)" gradientUnits="userSpaceOnUse"><stop offset="0" stop-color="#541726"/><stop offset="1" stop-color="#af4758"/></radialGradient><linearGradient id="linear-gradient-17" x1="-2868.93" y1="3700.46" x2="-2850.47" y2="3668.49" gradientTransform="matrix(-0.24, 0.63, -0.81, -0.3, 2422.28, 3027.51)" gradientUnits="userSpaceOnUse"><stop offset="0" stop-color="#ca394e"/><stop offset="0.52" stop-color="#e7697c"/><stop offset="1" stop-color="#ff90a1"/></linearGradient><radialGradient id="radial-gradient-3" cx="-41.25" cy="330.4" r="11.46" gradientTransform="matrix(1.38, 0.11, -0.18, 2.21, 276.41, -592.87)" gradientUnits="userSpaceOnUse"><stop offset="0" stop-color="#541726"/><stop offset="0.19" stop-color="#6b2333"/><stop offset="0.54" stop-color="#903747"/><stop offset="0.82" stop-color="#a74353"/><stop offset="1" stop-color="#af4758"/></radialGradient><linearGradient id="linear-gradient-18" x1="3232.54" y1="5245.11" x2="3251" y2="5213.13" gradientTransform="matrix(-0.44, -0.31, 0.35, -0.51, -236.47, 3790.79)" gradientUnits="userSpaceOnUse"><stop offset="0" stop-color="#fc8e97"/><stop offset="0.54" stop-color="#fdb9cb"/><stop offset="1" stop-color="#fddaf2"/></linearGradient><linearGradient id="linear-gradient-19" x1="639.86" y1="-21.83" x2="656.56" y2="-31.47" gradientTransform="translate(-473.29 315.48) rotate(-15.39)" gradientUnits="userSpaceOnUse"><stop offset="0" stop-color="#ffc3cc"/><stop offset="0.25" stop-color="#feb5be"/><stop offset="1" stop-color="#fc8e97"/></linearGradient><linearGradient id="linear-gradient-20" x1="650.64" y1="5.35" x2="650.64" y2="-16.59" xlink:href="#linear-gradient-13"/><linearGradient id="linear-gradient-21" x1="622.01" y1="-8.43" x2="649.3" y2="-24.18" gradientTransform="translate(-473.29 315.48) rotate(-15.39)" gradientUnits="userSpaceOnUse"><stop offset="0" stop-color="#fc8e97"/><stop offset="0.39" stop-color="#feaab3"/><stop offset="0.75" stop-color="#ffbcc5"/><stop offset="1" stop-color="#ffc3cc"/></linearGradient><linearGradient id="linear-gradient-22" x1="-873.29" y1="2195.01" x2="-877.18" y2="2192.6" gradientTransform="matrix(0.53, 1.93, -1.81, 0.5, 4566.08, 738.37)" xlink:href="#radial-gradient"/><radialGradient id="radial-gradient-4" cx="658.86" cy="272.84" r="61.37" gradientTransform="matrix(0.96, -0.27, 0.53, 1.93, -616.92, -206.36)" gradientUnits="userSpaceOnUse"><stop offset="0" stop-color="#fddaf2"/><stop offset="0.43" stop-color="#fdd8f0"/><stop offset="0.61" stop-color="#fdd2e9"/><stop offset="0.74" stop-color="#fec6dd"/><stop offset="0.85" stop-color="#feb6cb"/><stop offset="0.94" stop-color="#ffa2b4"/><stop offset="1" stop-color="#ff90a1"/></radialGradient><radialGradient id="radial-gradient-5" cx="169.53" cy="-2271.17" r="79.72" gradientTransform="matrix(0.57, -0.05, 0.08, 0.96, 252.14, 2318.95)" xlink:href="#radial-gradient-4"/><linearGradient id="linear-gradient-23" x1="620.12" y1="10.97" x2="640.19" y2="-23.8" gradientTransform="translate(-473.29 315.48) rotate(-15.39)" gradientUnits="userSpaceOnUse"><stop offset="0" stop-color="#ff90a1"/><stop offset="0.49" stop-color="#feb6cb"/><stop offset="1" stop-color="#fddaf2"/></linearGradient><linearGradient id="linear-gradient-24" x1="588.44" y1="-28.91" x2="619.69" y2="-28.91" gradientTransform="translate(-473.29 315.48) rotate(-15.39)" gradientUnits="userSpaceOnUse"><stop offset="0" stop-color="#fddaf2"/><stop offset="0.08" stop-color="#fdd0e7"/><stop offset="0.32" stop-color="#feb4c8"/><stop offset="0.56" stop-color="#ffa0b3"/><stop offset="0.79" stop-color="#ff94a5"/><stop offset="1" stop-color="#ff90a1"/></linearGradient></defs><title>rose1</title><g id="Layer_2" data-name="Layer 2"><g id="Layer_1-2" data-name="Layer 1"><g id="rose1"><path class="cls-1" d="M197.4,16.26l25.2,118.2L71.2,163.76s-7.2,47-15,43.4S0,136.76,0,136.76s29.8-25.4,49.2-79.7c6.8-19,33-30.1,66.9-33.1C142.5,21.56,171.8-23.34,197.4,16.26Z"/><path class="cls-2" d="M166,44.46s13.7-3.8,16.2,5.3a69.77,69.77,0,0,1,22.8-6.3s6.6-11.6,23.8-11.5l4.6-1.2s37.7,65.7,12.1,53.1c0,0-7.5,70.8-18.3,76.2s-9.4-7.2-9.4-7.2,17.1-26.8,4.2-64.9c0,0-21.1,3.4-19.9,7.9S160.6,60.66,166,44.46Z"/><path class="cls-3" d="M132.2,225.66l81-37.6,25.3-63.9s1.9-14.8,6.1-12.8,37.6,69.2-18.9,80.5C225.8,191.86,230.2,255.66,132.2,225.66Z"/><path class="cls-4" d="M50.6,139.86s-9.9-13.8-16.8-3.9,31.8,38.2,31.8,38.2Z"/><path class="cls-5" d="M80,73.16s9.1-14.3-2.6-17S53.8,100,53.8,100Z"/><path class="cls-6" d="M194.1,70.16s14.1,9.3,17.1-2.4-43.4-24.2-43.4-24.2Z"/><path class="cls-7" d="M53.6,171.06l42.8,39.7L161.3,188s12.4-8.3,13.7-3.8-9.9,88.6-87.8,46.3C87.2,230.56,6.7,250.26,53.6,171.06Z"/><path class="cls-8" d="M124.9,61.86c-24,7.9-34.8,4-58.2,32-24,28.7,3,55.6,3,55.6,30.2,38.3,65.7,33.5,65.7,33.5,63.4-10.1,71.2-71.1,71.2-71.1.3-34.4-43.7-78.7-43.7-78.7-17.7,7.3-51.7-.5-51.7-.5-36.3,19.8-34.5,43.8-34.5,43.8-9.1,2.5-9.5,10-9.5,10-52.2,24.2-18.7,56.7-13.3,67.4s29.5,36,29.5,36,58.1,33,101-25.3S193.1,39.46,124.9,61.86Z"/><path class="cls-9" d="M53.8,153.86s34.3,44.5,56.7,45.7c0,0-23.3.1-20.9,6.3s-39.7-21.5-41.8-38.1A89.69,89.69,0,0,1,53.8,153.86Z"/><path class="cls-10" d="M102.1,197.56s-16.9-1.1-13.6,10.5,49.7-.4,49.7-.4Z"/><path class="cls-11" d="M215.5,154.16s-3.6,16.5,8.3,15.1,7.1-49.2,7.1-49.2Z"/><path class="cls-12" d="M188.8,172.26c12.3-22.1,22.9-26.6,21.2-63-1.8-37.3-39.9-38.8-39.9-38.8-48.1-7.8-70.9,19.8-70.9,19.8-39.8,50.4-4.2,100.5-4.2,100.5,23.1,25.6,85.5,28.3,85.5,28.3,8-17.3,38.3-34.6,38.3-34.6,13.3-39.1-4.3-55.7-4.3-55.7,5-8,.2-13.8.2-13.8,22-53.1-24.6-54.4-35.9-58.6s-46-6.4-46-6.4-65.2,15.1-57.1,87S153.9,235,188.8,172.26Z"/><path class="cls-13" d="M87.5,98l-4.7,18.5-.2,17.2C74.5,131,78.4,100.46,87.5,98Z"/><path class="cls-14" d="M102.9,145.26C86.4,112.46,90.1,90,90.1,90c-33,85.1,45.4,75.8,45.4,75.8-19.1-7-29.1-16.5-41.4-52.4s32.7-50.7,32.7-50.7c-.6-.3,39.8-15.9,59.2,27.9,0,0,16.5,69-48.2,74.6C137.8,165.06,113.8,166.76,102.9,145.26Z"/><path class="cls-15" d="M98,137.76c4.9-36.4,61-47.2,61-47.2-75.3,51.7-45.6,82.5-45.6,82.5-11.8-16.6-14.7-30-4.6-66.6s55.6-23.4,55.6-23.4c-.4-.6,41.8,9.4,33.1,56.4,0,0-25.3,66.3-81.8,34.4C115.7,173.86,94.8,161.66,98,137.76Z"/><path class="cls-16" d="M169.4,118.56s.7,13.6-3.5,24.1c0,0,8.9-7.4,6.9-17.5Z"/><path class="cls-17" d="M167,137.46s15.7-41.1-20.4-38.5c0,0-17-17.4-25.7,4.6,0,0,30.1-2.1,28.6,10.5,0,0,13.9,6,9.6,17C159.1,131.06,166.6,131.36,167,137.46Z"/><path class="cls-18" d="M114,105.36s-4.8-8.5,14.1-11.2c0,0-5.6,6.5-4.3,11C123.8,105.16,114.7,107.66,114,105.36Z"/><path class="cls-19" d="M150.4,111.76s-34.6-6.9-44.5,12.2c0,0-1.9,5.5,3.6,16.8,0,0-11.5-14.9-4.2-30.8C112,95.36,150.4,111.76,150.4,111.76Z"/><path class="cls-20" d="M159.1,117.56s3,25.6-10.7,32.4c0,0,16.9-3.5,18.6-12.5C168,132.26,159.1,117.56,159.1,117.56Z"/><path class="cls-21" d="M151,150.06s10.3-23.1-2.8-34.3c0,0-3.9-2.6-13.3-1.1,0,0,13-4.9,24,3.7C169.1,126.26,151,150.06,151,150.06Z"/><path class="cls-22" d="M128.6,113.66s9.9-17.4,21.8-1.1c0,0,12.7,1.4,4.4,16,0,0-11.6-6.6-10.6-11.8C144.1,116.76,128.2,121.16,128.6,113.66Z"/><path class="cls-23" d="M147.3,128.16s5.6,20.5,3.4,21.1c0,0,8.9-12.2,4.1-20.8C154.7,128.56,151.2,124.56,147.3,128.16Z"/><path class="cls-24" d="M109.9,126.16s7-19.1,15.7-14.1c0,0,12.4-8.3,16.8,7.6,0,0,3.3-5.8,10.4,29C152.9,148.66,127.2,153.26,109.9,126.16Z"/><path class="cls-25" d="M152.3,146.36s-21.6-3.9-38.2-14c0,0,9.3,17.1,27.7,16.9Z"/><path class="cls-26" d="M98.9,193s58-8.6,68-18.7,47.4-47.9,36.7-80.2c0,0,3-9.2,17.3-10.7,0,0,25,37.3-5.2,70.1C215.6,153.46,145.4,219.36,98.9,193Z"/><path class="cls-27" d="M121.5,162.06s33.8.5,40.5-3.5,29.5-40.4,27.1-56.7c0,0,12-15.8,20.3-15.4,0,0,3.2,52.8-17.5,66.1C191.9,152.56,144.8,178.46,121.5,162.06Z"/><path class="cls-28" d="M104.3,119.06s14,32.9,51.7,27.5c0,0,9.1-2.5,12.8-15.8,0,0,1.7,24.1-30.8,30.6S104.3,119.06,104.3,119.06Z"/><path class="cls-29" d="M98,82.86s-23.1,40.7,15.5,74.2c0,0,12.3,8.9,14.5,8.3S49.8,130.46,98,82.86Z"/></g></g></g></svg>