<svg xmlns="http://www.w3.org/2000/svg" xmlns:xlink="http://www.w3.org/1999/xlink" viewBox="0 0 260.76 230.7"><defs><style>.cls-1{fill:url(#linear-gradient);}.cls-2{fill:url(#linear-gradient-2);}.cls-3{fill:url(#linear-gradient-3);}.cls-4{fill:url(#linear-gradient-4);}.cls-5{fill:url(#linear-gradient-5);}.cls-6{fill:url(#linear-gradient-6);}.cls-7{fill:url(#linear-gradient-7);}.cls-8{fill:url(#linear-gradient-8);}.cls-9{fill:url(#linear-gradient-9);}.cls-10{fill:url(#linear-gradient-10);}.cls-11{fill:url(#linear-gradient-11);}.cls-12{fill:url(#linear-gradient-12);}.cls-13{fill:url(#linear-gradient-13);}.cls-14{fill:url(#linear-gradient-14);}.cls-15{fill:url(#linear-gradient-15);}.cls-16{fill:url(#radial-gradient);}.cls-17{fill:url(#linear-gradient-16);}.cls-18{fill:url(#radial-gradient-2);}.cls-19{fill:url(#linear-gradient-17);}.cls-20{fill:url(#radial-gradient-3);}.cls-21{fill:url(#linear-gradient-18);}.cls-22{fill:url(#linear-gradient-19);}.cls-23{fill:url(#linear-gradient-20);}.cls-24{fill:url(#linear-gradient-21);}.cls-25{fill:url(#linear-gradient-22);}.cls-26{fill:url(#radial-gradient-4);}.cls-27{fill:url(#radial-gradient-5);}.cls-28{fill:url(#linear-gradient-23);}.cls-29{fill:url(#linear-gradient-24);}</style><linearGradient id="linear-gradient" x1="-2709.92" y1="2638.95" x2="-2723.2" y2="2741.32" gradientTransform="matrix(-0.8, 0.98, -1.42, -1.15, 1795.64, 5868.95)" gradientUnits="userSpaceOnUse"><stop offset="0" stop-color="#d090a0"/><stop offset="0.9" stop-color="#b34f60"/><stop offset="1" stop-color="#af4758"/></linearGradient><linearGradient id="linear-gradient-2" x1="347.49" y1="-151.71" x2="269.43" y2="-151.71" gradientTransform="translate(-84.07 261.95) rotate(-0.88)" gradientUnits="userSpaceOnUse"><stop offset="0" stop-color="#af4758"/><stop offset="0.44" stop-color="#be6979"/><stop offset="1" stop-color="#d090a0"/></linearGradient><linearGradient id="linear-gradient-3" x1="1776.63" y1="1392.69" x2="1758.02" y2="1446.55" gradientTransform="matrix(0.64, -0.77, 0.77, 0.64, -2035.63, 630.51)" xlink:href="#linear-gradient"/><linearGradient id="linear-gradient-4" x1="-2532.74" y1="546.37" x2="-2538.03" y2="561.77" gradientTransform="translate(1761.84 2063.63) rotate(60.84)" gradientUnits="userSpaceOnUse"><stop offset="0" stop-color="#af4758"/><stop offset="0.27" stop-color="#a33f51"/><stop offset="0.76" stop-color="#842b3e"/><stop offset="1" stop-color="#721f33"/></linearGradient><linearGradient id="linear-gradient-5" x1="-3304.41" y1="3416.63" x2="-3309.69" y2="3432.04" gradientTransform="matrix(-0.63, 0.78, -0.78, -0.63, 659.56, 4775.43)" xlink:href="#linear-gradient-4"/><linearGradient id="linear-gradient-6" x1="102.59" y1="5010.54" x2="97.3" y2="5025.93" gradientTransform="translate(-2934.67 3975.01) rotate(-140.14)" xlink:href="#linear-gradient-4"/><linearGradient id="linear-gradient-7" x1="189.31" y1="-110.34" x2="151.03" y2="-44.03" gradientTransform="translate(-84.07 261.95) rotate(-0.88)" gradientUnits="userSpaceOnUse"><stop offset="0" stop-color="#fddaf2"/><stop offset="0.2" stop-color="#e5b3c7"/><stop offset="0.39" stop-color="#d090a0"/><stop offset="1" stop-color="#af4758"/></linearGradient><linearGradient id="linear-gradient-8" x1="210.73" y1="-75.53" x2="210.73" y2="-241.66" gradientTransform="translate(-84.07 261.95) rotate(-0.88)" gradientUnits="userSpaceOnUse"><stop offset="0" stop-color="#fddaf2"/><stop offset="0.51" stop-color="#ff90a1"/><stop offset="0.75" stop-color="#d66b7c"/><stop offset="1" stop-color="#af4758"/></linearGradient><linearGradient id="linear-gradient-9" x1="176.63" y1="-109.74" x2="124.43" y2="-109.74" gradientTransform="translate(-84.07 261.95) rotate(-0.88)" gradientUnits="userSpaceOnUse"><stop offset="0" stop-color="#863e4c"/><stop offset="1" stop-color="#721f33"/></linearGradient><linearGradient id="linear-gradient-10" x1="-312.37" y1="-205.37" x2="-317.66" y2="-189.97" gradientTransform="translate(361.94 441.63) rotate(10.41)" gradientUnits="userSpaceOnUse"><stop offset="0" stop-color="#ff90a1"/><stop offset="1" stop-color="#721f33"/></linearGradient><linearGradient id="linear-gradient-11" x1="1954.1" y1="2541.32" x2="1948.81" y2="2556.73" gradientTransform="translate(-2824.19 1179.82) rotate(-71.17)" xlink:href="#linear-gradient-10"/><linearGradient id="linear-gradient-12" x1="-3223.83" y1="3568" x2="-3223.83" y2="3402.02" gradientTransform="matrix(-0.73, 0.69, -0.69, -0.73, 211.92, 4870.69)" gradientUnits="userSpaceOnUse"><stop offset="0" stop-color="#ff9aa9"/><stop offset="0.51" stop-color="#ff90a1"/><stop offset="0.75" stop-color="#d66b7c"/><stop offset="1" stop-color="#af4758"/></linearGradient><linearGradient id="linear-gradient-13" x1="163.29" y1="-153.93" x2="181.17" y2="-184.89" gradientTransform="translate(-84.07 261.95) rotate(-0.88)" gradientUnits="userSpaceOnUse"><stop offset="0" stop-color="#af4758"/><stop offset="0.16" stop-color="#933849"/><stop offset="0.37" stop-color="#782a3a"/><stop offset="0.58" stop-color="#641f2f"/><stop offset="0.79" stop-color="#581928"/><stop offset="1" stop-color="#541726"/></linearGradient><linearGradient id="linear-gradient-14" x1="166.76" y1="-157.18" x2="278.25" y2="-157.18" gradientTransform="translate(-84.07 261.95) rotate(-0.88)" gradientUnits="userSpaceOnUse"><stop offset="0" stop-color="#ff90a1"/><stop offset="0.52" stop-color="#e26073"/><stop offset="1" stop-color="#ca394e"/></linearGradient><linearGradient id="linear-gradient-15" x1="-1390.37" y1="-228.4" x2="-1295.04" y2="-228.4" gradientTransform="matrix(0.83, 0.55, -0.55, 0.83, 1140.01, 1054)" xlink:href="#linear-gradient-14"/><radialGradient id="radial-gradient" cx="509.08" cy="219.11" r="7.89" gradientTransform="matrix(1.17, -0.27, 0.23, 1.02, -480.47, 35.89)" gradientUnits="userSpaceOnUse"><stop offset="0" stop-color="#541726"/><stop offset="0.28" stop-color="#692232"/><stop offset="0.86" stop-color="#a03f50"/><stop offset="1" stop-color="#af4758"/></radialGradient><linearGradient id="linear-gradient-16" x1="212.05" y1="-152.23" x2="256.68" y2="-152.23" gradientTransform="translate(-84.07 261.95) rotate(-0.88)" gradientUnits="userSpaceOnUse"><stop offset="0" stop-color="#ff90a1"/><stop offset="0.11" stop-color="#ea7d8e"/><stop offset="0.35" stop-color="#bf5667"/><stop offset="0.47" stop-color="#af4758"/><stop offset="0.72" stop-color="#be3f53"/><stop offset="1" stop-color="#ca394e"/></linearGradient><radialGradient id="radial-gradient-2" cx="2360.93" cy="241.58" r="6.84" gradientTransform="translate(2494.51 532.19) rotate(179.12) scale(1 2)" gradientUnits="userSpaceOnUse"><stop offset="0" stop-color="#541726"/><stop offset="1" stop-color="#af4758"/></radialGradient><linearGradient id="linear-gradient-17" x1="-4560.58" y1="3197.66" x2="-4542.12" y2="3165.69" gradientTransform="matrix(-0.39, 0.55, -0.71, -0.5, 601.02, 4187.26)" gradientUnits="userSpaceOnUse"><stop offset="0" stop-color="#ca394e"/><stop offset="0.52" stop-color="#e7697c"/><stop offset="1" stop-color="#ff90a1"/></linearGradient><radialGradient id="radial-gradient-3" cx="-684.3" cy="-88.43" r="11.46" gradientTransform="matrix(1.31, 0.46, -0.73, 2.1, 985.81, 627.77)" gradientUnits="userSpaceOnUse"><stop offset="0" stop-color="#541726"/><stop offset="0.19" stop-color="#6b2333"/><stop offset="0.54" stop-color="#903747"/><stop offset="0.82" stop-color="#a74353"/><stop offset="1" stop-color="#af4758"/></radialGradient><linearGradient id="linear-gradient-18" x1="1675.23" y1="6147.62" x2="1693.69" y2="6115.64" gradientTransform="matrix(-0.35, -0.41, 0.46, -0.4, -2114.29, 3270.29)" gradientUnits="userSpaceOnUse"><stop offset="0" stop-color="#fc8e97"/><stop offset="0.54" stop-color="#fdb9cb"/><stop offset="1" stop-color="#fddaf2"/></linearGradient><linearGradient id="linear-gradient-19" x1="222.74" y1="-145.93" x2="239.46" y2="-155.58" gradientTransform="translate(-84.07 261.95) rotate(-0.88)" gradientUnits="userSpaceOnUse"><stop offset="0" stop-color="#ffc3cc"/><stop offset="0.25" stop-color="#feb5be"/><stop offset="1" stop-color="#fc8e97"/></linearGradient><linearGradient id="linear-gradient-20" x1="233.52" y1="-118.61" x2="233.52" y2="-140.56" xlink:href="#linear-gradient-13"/><linearGradient id="linear-gradient-21" x1="204.92" y1="-132.45" x2="232.22" y2="-148.21" gradientTransform="translate(-84.07 261.95) rotate(-0.88)" gradientUnits="userSpaceOnUse"><stop offset="0" stop-color="#fc8e97"/><stop offset="0.39" stop-color="#feaab3"/><stop offset="0.75" stop-color="#ffbcc5"/><stop offset="1" stop-color="#ffc3cc"/></linearGradient><linearGradient id="linear-gradient-22" x1="-1966.86" y1="1867.75" x2="-1970.74" y2="1865.34" gradientTransform="matrix(0.03, 2, -1.87, 0.03, 3676.65, 4009.35)" xlink:href="#radial-gradient"/><radialGradient id="radial-gradient-4" cx="241.71" cy="18.7" r="61.43" gradientTransform="matrix(1, -0.02, 0.03, 2, -86.5, 104.98)" gradientUnits="userSpaceOnUse"><stop offset="0" stop-color="#fddaf2"/><stop offset="0.43" stop-color="#fdd8f0"/><stop offset="0.61" stop-color="#fdd2e9"/><stop offset="0.74" stop-color="#fec6dd"/><stop offset="0.85" stop-color="#feb6cb"/><stop offset="0.94" stop-color="#ffa2b4"/><stop offset="1" stop-color="#ff90a1"/></radialGradient><radialGradient id="radial-gradient-5" cx="171.9" cy="-3024.29" r="79.72" gradientTransform="matrix(0.57, 0.1, -0.16, 0.95, -417.68, 2991.74)" xlink:href="#radial-gradient-4"/><linearGradient id="linear-gradient-23" x1="203.04" y1="-113.01" x2="223.12" y2="-147.8" gradientTransform="translate(-84.07 261.95) rotate(-0.88)" gradientUnits="userSpaceOnUse"><stop offset="0" stop-color="#ff90a1"/><stop offset="0.49" stop-color="#feb6cb"/><stop offset="1" stop-color="#fddaf2"/></linearGradient><linearGradient id="linear-gradient-24" x1="171.4" y1="-152.99" x2="202.63" y2="-152.99" gradientTransform="translate(-84.07 261.95) rotate(-0.88)" gradientUnits="userSpaceOnUse"><stop offset="0" stop-color="#fddaf2"/><stop offset="0.08" stop-color="#fdd0e7"/><stop offset="0.32" stop-color="#feb4c8"/><stop offset="0.56" stop-color="#ffa0b3"/><stop offset="0.79" stop-color="#ff94a5"/><stop offset="1" stop-color="#ff90a1"/></linearGradient></defs><title>rose2</title><g id="Layer_2" data-name="Layer 2"><g id="Layer_1-2" data-name="Layer 1"><g id="rose2"><path class="cls-1" d="M221.3,22.62l-5.2,120.7-153.9-9.4s-18.7,43.7-25.4,38.2S0,89.92,0,89.92,35.2,72.82,67.6,25C78.9,8.32,107,4.12,140.7,9.72,166.8,14,206.4-22.08,221.3,22.62Z"/><path class="cls-2" d="M183.7,42.12s14.2-.2,14.3,9.2a69.84,69.84,0,0,1,23.7-.4s9.3-9.6,25.9-5.1l4.7-.1s20,73-1.5,54.4c0,0-25,66.6-36.8,69.2s-7.2-9.4-7.2-9.4,23.3-21.6,20.3-61.8c0,0-21.3-2-21.2,2.7S174.5,56.52,183.7,42.12Z"/><path class="cls-3" d="M105.7,209.12,193.5,193l40.5-55.5s5.5-13.9,9.1-10.9,19,76.4-38.4,73.2C204.8,199.82,193.1,262.62,105.7,209.12Z"/><path class="cls-4" d="M48.2,105.52s-6.1-15.8-15.3-8,21.2,44.9,21.2,44.9Z"/><path class="cls-5" d="M93.3,48.42s12.4-11.5,1.7-17.1-33.8,36.4-33.8,36.4Z"/><path class="cls-6" d="M204.5,74s11.3,12.6,17.1,2-35.9-34.3-35.9-34.3Z"/><path class="cls-7" d="M43.3,136.52l31.5,49.2,68.5-5.8s14.1-5,14.2-.2-31.8,83.3-96.6,22.8C60.9,202.52-21.9,201.42,43.3,136.52Z"/><path class="cls-8" d="M139.7,48.72c-25.2,1.7-34.7-4.8-64.4,16.4-30.4,21.8-11,54.6-11,54.6,19.6,44.6,55.2,48.8,55.2,48.8,64,6.1,86.7-51,86.7-51,9-33.2-22.6-87.2-22.6-87.2-18.9,2.7-49.9-13.4-49.9-13.4-40,10.1-44.4,33.8-44.4,33.8-9.5.2-11.7,7.3-11.7,7.3-56.6,10.3-32.3,50.2-29.8,62s19.6,42.3,19.6,42.3,48,46.6,104.1.8S211.3,44,139.7,48.72Z"/><path class="cls-9" d="M47.8,119.92s22.1,51.7,43.5,58.5c0,0-22.6-5.7-21.9.9s-33-30.8-30.9-47.3A73.38,73.38,0,0,1,47.8,119.92Z"/><path class="cls-10" d="M83.6,174.32s-16.1-5.3-15.8,6.8,48.2,12,48.2,12Z"/><path class="cls-11" d="M204.2,160.72s-7.7,15.1,4.3,16.7,19.2-45.8,19.2-45.8Z"/><path class="cls-12" d="M173.9,171.62c17.4-18.3,28.8-20,36.3-55.7,7.6-36.6-28.9-47.6-28.9-47.6-44.7-19.6-73.6,1.4-73.6,1.4C56.5,108.52,78.4,166,78.4,166c15.9,30.5,75.7,48.8,75.7,48.8,12.1-14.7,45.8-23.9,45.8-23.9,22.6-34.6,9.8-55,9.8-55,6.9-6.5,3.7-13.3,3.7-13.3,34.7-45.9-10.2-58.8-20-65.8s-43-17.8-43-17.8-66.9-1.7-77.1,69.9S124.3,223.52,173.9,171.62Z"/><path class="cls-13" d="M94.4,74.32,85.2,91l-4.5,16.6C73.5,103,84.9,74.42,94.4,74.32Z"/><path class="cls-14" d="M97.5,123.92C89.7,88,99,67.12,99,67.12c-53.3,74.1,25,84.8,25,84.8-16.7-11.6-24-23.3-27-61.1s44.3-40.9,44.3-40.9c-.6-.4,42.5-5.4,50.3,41.8,0,0-1.3,71-65.3,60.1C126.3,151.82,102.6,147.52,97.5,123.92Z"/><path class="cls-15" d="M94.6,115.42c13.8-34,70.8-30.5,70.8-30.5-85.8,31.2-64.8,68.5-64.8,68.5-7.3-19-6.7-32.8,12.2-65.6S172.5,79,172.5,79c-.2-.7,38.1,19.5,18,62.9,0,0-41.1,57.9-87.8,12.8C102.7,154.82,85.5,137.82,94.6,115.42Z"/><path class="cls-16" d="M168.6,114.72s-2.8,13.3-9.4,22.5c0,0,10.5-4.9,11-15.2Z"/><path class="cls-17" d="M161.5,132.32s25.5-35.9-10.1-42.4c0,0-12.2-21.1-26-2,0,0,29.7,5.4,25.1,17.4,0,0,12,9.3,5,18.8C155.4,124.22,162.6,126.42,161.5,132.32Z"/><path class="cls-18" d="M118.2,88.12s-2.5-9.4,16.4-7.3c0,0-7,4.8-7,9.6C127.7,90.32,118.3,90.42,118.2,88.12Z"/><path class="cls-19" d="M151.8,103.32s-31.8-15.4-46.1.7c0,0-3.3,4.9-.8,17.1,0,0-7.4-17.3,3.6-30.8C118.7,77.92,151.8,103.32,151.8,103.32Z"/><path class="cls-20" d="M158.8,111.12s-3.5,25.5-18.5,28.7c0,0,17.2.8,21.2-7.4C163.8,127.62,158.8,111.12,158.8,111.12Z"/><path class="cls-21" d="M142.9,140.52s15.8-19.7,5.9-33.9c0,0-3.1-3.5-12.6-4.4,0,0,13.9-1.5,22.3,9.6C166.3,122.12,142.9,140.52,142.9,140.52Z"/><path class="cls-22" d="M130.2,99.72s14-14.4,21.4,4.4c0,0,11.9,4.6.2,16.6,0,0-9.6-9.3-7.3-14.1C144.5,106.62,128,106.92,130.2,99.72Z"/><path class="cls-23" d="M144.7,118.42s.3,21.3-2,21.3c0,0,11.7-9.6,9.2-19.1C151.8,120.72,149.4,116,144.7,118.42Z"/><path class="cls-24" d="M109.1,107.12s11.6-16.7,18.8-9.8c0,0,14.1-4.9,14.4,11.6,0,0,4.7-4.8,2.8,30.7C145,139.72,119,137.72,109.1,107.12Z"/><path class="cls-25" d="M145,137.32s-19.9-9.1-33.5-23.1c0,0,4.8,18.9,22.6,23.3Z"/><path class="cls-26" d="M81.6,169.12s58.3,6.2,70.5-1.1,57.9-34.5,55.6-68.5c0,0,5.2-8.1,19.4-6,0,0,14.8,42.4-22.6,66.6C204.5,160.12,120.1,206.32,81.6,169.12Z"/><path class="cls-27" d="M111.3,144.92s32.6,9,40.1,6.8,38.7-31.7,40.4-48.1c0,0,15.6-12.3,23.5-9.8,0,0-10.1,52-33.5,59.6C181.8,153.32,129.8,166.52,111.3,144.92Z"/><path class="cls-28" d="M105.4,98.92s5.3,35.4,43.2,39.5c0,0,9.5-.1,16.4-12.1,0,0-4.4,23.7-37.5,21.9S105.4,98.92,105.4,98.92Z"/><path class="cls-29" d="M108.4,62.22s-32.6,33.6-3.6,75.8c0,0,9.7,11.7,12,11.6S49.8,96.22,108.4,62.22Z"/></g></g></g></svg>