<svg xmlns="http://www.w3.org/2000/svg" xmlns:xlink="http://www.w3.org/1999/xlink" viewBox="0 0 260.73 230.2"><defs><style>.cls-1{fill:url(#linear-gradient);}.cls-2{fill:url(#linear-gradient-2);}.cls-3{fill:url(#linear-gradient-3);}.cls-4{fill:url(#linear-gradient-4);}.cls-5{fill:url(#linear-gradient-5);}.cls-6{fill:url(#linear-gradient-6);}.cls-7{fill:url(#linear-gradient-7);}.cls-8{fill:url(#linear-gradient-8);}.cls-9{fill:url(#linear-gradient-9);}.cls-10{fill:url(#linear-gradient-10);}.cls-11{fill:url(#linear-gradient-11);}.cls-12{fill:url(#linear-gradient-12);}.cls-13{fill:url(#linear-gradient-13);}.cls-14{fill:url(#linear-gradient-14);}.cls-15{fill:url(#linear-gradient-15);}.cls-16{fill:url(#radial-gradient);}.cls-17{fill:url(#linear-gradient-16);}.cls-18{fill:url(#radial-gradient-2);}.cls-19{fill:url(#linear-gradient-17);}.cls-20{fill:url(#radial-gradient-3);}.cls-21{fill:url(#linear-gradient-18);}.cls-22{fill:url(#linear-gradient-19);}.cls-23{fill:url(#linear-gradient-20);}.cls-24{fill:url(#linear-gradient-21);}.cls-25{fill:url(#linear-gradient-22);}.cls-26{fill:url(#radial-gradient-4);}.cls-27{fill:url(#radial-gradient-5);}.cls-28{fill:url(#linear-gradient-23);}.cls-29{fill:url(#linear-gradient-24);}</style><linearGradient id="linear-gradient" x1="-822.93" y1="2424.93" x2="-836.23" y2="2527.42" gradientTransform="matrix(-0.81, 0.97, -1.41, -1.17, 2951.03, 3797.14)" gradientUnits="userSpaceOnUse"><stop offset="0" stop-color="#d090a0"/><stop offset="0.9" stop-color="#b34f60"/><stop offset="1" stop-color="#af4758"/></linearGradient><linearGradient id="linear-gradient-2" x1="260.82" y1="-153.99" x2="182.69" y2="-153.99" gradientTransform="translate(0 260)" gradientUnits="userSpaceOnUse"><stop offset="0" stop-color="#af4758"/><stop offset="0.44" stop-color="#be6979"/><stop offset="1" stop-color="#d090a0"/></linearGradient><linearGradient id="linear-gradient-3" x1="1689.69" y1="374.31" x2="1671.08" y2="428.17" gradientTransform="translate(-1221.82 1212.39) rotate(-49.03) scale(1.01)" xlink:href="#linear-gradient"/><linearGradient id="linear-gradient-4" x1="-1587.65" y1="1265.82" x2="-1592.94" y2="1281.22" gradientTransform="translate(1916.93 914.19) rotate(61.72)" gradientUnits="userSpaceOnUse"><stop offset="0" stop-color="#af4758"/><stop offset="0.27" stop-color="#a33f51"/><stop offset="0.76" stop-color="#842b3e"/><stop offset="1" stop-color="#721f33"/></linearGradient><linearGradient id="linear-gradient-5" x1="-1178.3" y1="3448.03" x2="-1183.59" y2="3463.44" gradientTransform="translate(1979.8 3160.6) rotate(129.73)" xlink:href="#linear-gradient-4"/><linearGradient id="linear-gradient-6" x1="1656.81" y1="3393.76" x2="1651.52" y2="3409.17" gradientTransform="translate(-761.66 3715.68) rotate(-139.25)" xlink:href="#linear-gradient-4"/><linearGradient id="linear-gradient-7" x1="102.69" y1="-112.78" x2="64.42" y2="-46.48" gradientTransform="translate(0 260)" gradientUnits="userSpaceOnUse"><stop offset="0" stop-color="#fddaf2"/><stop offset="0.2" stop-color="#e5b3c7"/><stop offset="0.39" stop-color="#d090a0"/><stop offset="1" stop-color="#af4758"/></linearGradient><linearGradient id="linear-gradient-8" x1="124.04" y1="-78" x2="124.04" y2="-244.05" gradientTransform="translate(0 260)" gradientUnits="userSpaceOnUse"><stop offset="0" stop-color="#fddaf2"/><stop offset="0.51" stop-color="#ff90a1"/><stop offset="0.75" stop-color="#d66b7c"/><stop offset="1" stop-color="#af4758"/></linearGradient><linearGradient id="linear-gradient-9" x1="89.9" y1="-112.18" x2="37.78" y2="-112.18" gradientTransform="translate(0 260)" gradientUnits="userSpaceOnUse"><stop offset="0" stop-color="#863e4c"/><stop offset="1" stop-color="#721f33"/></linearGradient><linearGradient id="linear-gradient-10" x1="-278.68" y1="-6.87" x2="-283.97" y2="8.54" gradientTransform="translate(365.55 239.15) rotate(11.06)" gradientUnits="userSpaceOnUse"><stop offset="0" stop-color="#ff90a1"/><stop offset="1" stop-color="#721f33"/></linearGradient><linearGradient id="linear-gradient-11" x1="2136.58" y1="1151.6" x2="2131.29" y2="1167.01" gradientTransform="translate(-1593.88 1773.73) rotate(-70.28)" xlink:href="#linear-gradient-10"/><linearGradient id="linear-gradient-12" x1="-1012.6" y1="3446.8" x2="-1012.6" y2="3280.8" gradientTransform="translate(1679.59 3291.13) rotate(137.42)" gradientUnits="userSpaceOnUse"><stop offset="0" stop-color="#ff9aa9"/><stop offset="0.51" stop-color="#ff90a1"/><stop offset="0.75" stop-color="#d66b7c"/><stop offset="1" stop-color="#af4758"/></linearGradient><linearGradient id="linear-gradient-13" x1="76.66" y1="-156.4" x2="94.54" y2="-187.37" gradientTransform="translate(0 260)" gradientUnits="userSpaceOnUse"><stop offset="0" stop-color="#af4758"/><stop offset="0.16" stop-color="#933849"/><stop offset="0.37" stop-color="#782a3a"/><stop offset="0.58" stop-color="#641f2f"/><stop offset="0.79" stop-color="#581928"/><stop offset="1" stop-color="#541726"/></linearGradient><linearGradient id="linear-gradient-14" x1="80.14" y1="-159.67" x2="191.7" y2="-159.67" gradientTransform="translate(0 260)" gradientUnits="userSpaceOnUse"><stop offset="0" stop-color="#ff90a1"/><stop offset="0.52" stop-color="#e26073"/><stop offset="1" stop-color="#ca394e"/></linearGradient><linearGradient id="linear-gradient-15" x1="-997.94" y1="313.86" x2="-902.53" y2="313.86" gradientTransform="translate(1107.03 399.48) rotate(34.36)" xlink:href="#linear-gradient-14"/><radialGradient id="radial-gradient" cx="539.38" cy="-38.77" r="7.89" gradientTransform="matrix(1.17, -0.25, 0.22, 1.02, -457.16, 296.12)" gradientUnits="userSpaceOnUse"><stop offset="0" stop-color="#541726"/><stop offset="0.28" stop-color="#692232"/><stop offset="0.86" stop-color="#a03f50"/><stop offset="1" stop-color="#af4758"/></radialGradient><linearGradient id="linear-gradient-16" x1="125.4" y1="-154.56" x2="170.08" y2="-154.56" gradientTransform="translate(0 260)" gradientUnits="userSpaceOnUse"><stop offset="0" stop-color="#ff90a1"/><stop offset="0.11" stop-color="#ea7d8e"/><stop offset="0.35" stop-color="#bf5667"/><stop offset="0.47" stop-color="#af4758"/><stop offset="0.72" stop-color="#be3f53"/><stop offset="1" stop-color="#ca394e"/></linearGradient><radialGradient id="radial-gradient-2" cx="2282.53" cy="214.34" r="6.83" gradientTransform="translate(2409.05 513.01) rotate(180) scale(1 2)" gradientUnits="userSpaceOnUse"><stop offset="0" stop-color="#541726"/><stop offset="1" stop-color="#af4758"/></radialGradient><linearGradient id="linear-gradient-17" x1="-1978.22" y1="3382.67" x2="-1959.77" y2="3350.7" gradientTransform="matrix(-0.39, 0.54, -0.7, -0.51, 1707.29, 2874.97)" gradientUnits="userSpaceOnUse"><stop offset="0" stop-color="#ca394e"/><stop offset="0.52" stop-color="#e7697c"/><stop offset="1" stop-color="#ff90a1"/></linearGradient><radialGradient id="radial-gradient-3" cx="-280.58" cy="168.39" r="11.46" gradientTransform="matrix(1.31, 0.48, -0.76, 2.09, 647.42, -91.47)" gradientUnits="userSpaceOnUse"><stop offset="0" stop-color="#541726"/><stop offset="0.19" stop-color="#6b2333"/><stop offset="0.54" stop-color="#903747"/><stop offset="0.82" stop-color="#a74353"/><stop offset="1" stop-color="#af4758"/></radialGradient><linearGradient id="linear-gradient-18" x1="3284.21" y1="3726.5" x2="3302.67" y2="3694.53" gradientTransform="matrix(-0.35, -0.41, 0.47, -0.4, -443.69, 2953)" gradientUnits="userSpaceOnUse"><stop offset="0" stop-color="#fc8e97"/><stop offset="0.54" stop-color="#fdb9cb"/><stop offset="1" stop-color="#fddaf2"/></linearGradient><linearGradient id="linear-gradient-19" x1="136.12" y1="-148.28" x2="152.83" y2="-157.93" gradientTransform="translate(0 260)" gradientUnits="userSpaceOnUse"><stop offset="0" stop-color="#ffc3cc"/><stop offset="0.25" stop-color="#feb5be"/><stop offset="1" stop-color="#fc8e97"/></linearGradient><linearGradient id="linear-gradient-20" x1="146.8" y1="-121.05" x2="146.8" y2="-143" xlink:href="#linear-gradient-13"/><linearGradient id="linear-gradient-21" x1="118.29" y1="-134.81" x2="145.56" y2="-150.56" gradientTransform="translate(0 260)" gradientUnits="userSpaceOnUse"><stop offset="0" stop-color="#fc8e97"/><stop offset="0.39" stop-color="#feaab3"/><stop offset="0.75" stop-color="#ffbcc5"/><stop offset="1" stop-color="#ffc3cc"/></linearGradient><linearGradient id="linear-gradient-22" x1="-682.59" y1="1960.25" x2="-686.48" y2="1957.84" gradientTransform="translate(3791.55 1493.16) rotate(90) scale(2 1.87)" xlink:href="#radial-gradient"/><radialGradient id="radial-gradient-4" cx="155.11" cy="8.03" r="61.39" gradientTransform="translate(0 121.99) scale(1 2)" gradientUnits="userSpaceOnUse"><stop offset="0" stop-color="#fddaf2"/><stop offset="0.43" stop-color="#fdd8f0"/><stop offset="0.61" stop-color="#fdd2e9"/><stop offset="0.74" stop-color="#fec6dd"/><stop offset="0.85" stop-color="#feb6cb"/><stop offset="0.94" stop-color="#ffa2b4"/><stop offset="1" stop-color="#ff90a1"/></radialGradient><radialGradient id="radial-gradient-5" cx="-547.22" cy="-2118.77" r="79.72" gradientTransform="matrix(0.57, 0.1, -0.18, 0.95, 101.02, 2186.87)" xlink:href="#radial-gradient-4"/><linearGradient id="linear-gradient-23" x1="116.49" y1="-115.44" x2="136.54" y2="-150.19" gradientTransform="translate(0 260)" gradientUnits="userSpaceOnUse"><stop offset="0" stop-color="#ff90a1"/><stop offset="0.49" stop-color="#feb6cb"/><stop offset="1" stop-color="#fddaf2"/></linearGradient><linearGradient id="linear-gradient-24" x1="84.74" y1="-155.4" x2="115.99" y2="-155.4" gradientTransform="translate(0 260)" gradientUnits="userSpaceOnUse"><stop offset="0" stop-color="#fddaf2"/><stop offset="0.08" stop-color="#fdd0e7"/><stop offset="0.32" stop-color="#feb4c8"/><stop offset="0.56" stop-color="#ffa0b3"/><stop offset="0.79" stop-color="#ff94a5"/><stop offset="1" stop-color="#ff90a1"/></linearGradient></defs><title>rose4</title><g id="Layer_2" data-name="Layer 2"><g id="Layer_1-2" data-name="Layer 1"><g id="rose4"><path class="cls-1" d="M222.4,23.05l-7.1,120.6L61.5,131.85s-19.4,43.4-26,37.8S0,86.85,0,86.85,35.5,70.25,68.6,23c11.6-16.6,39.8-20.3,73.3-14.2C168,13.55,208.2-21.85,222.4,23.05Z"/><path class="cls-2" d="M184.5,42s14.2,0,14.2,9.5a66.83,66.83,0,0,1,23.6,0s9.5-9.5,26-4.7H253s18.9,73.3-2.4,54.4c0,0-26,66.2-37.8,68.6s-7.1-9.5-7.1-9.5S229.3,139,227,98.75c0,0-21.3-2.4-21.3,2.4S175.1,56.15,184.5,42Z"/><path class="cls-3" d="M103.9,207.65l88.1-14.8L233.4,138s5.7-13.8,9.3-10.7,17.9,76.7-39.5,72.6C203.1,200,190.5,262.55,103.9,207.65Z"/><path class="cls-4" d="M48,103.25s-5.8-15.9-15.1-8.2,20.6,45.2,20.6,45.2Z"/><path class="cls-5" d="M94,46.85s12.6-11.3,2-17.1-34.3,35.9-34.3,35.9Z"/><path class="cls-6" d="M204.8,74.15s11.1,12.7,17.1,2.2-35.4-34.8-35.4-34.8Z"/><path class="cls-7" d="M42.6,134.15l30.8,49.7,68.6-4.7s14.2-4.7,14.2,0-33.1,82.8-97,21.3C59.2,200.45-23.6,198.05,42.6,134.15Z"/><path class="cls-8" d="M140.3,47.85c-25.2,1.2-34.6-5.3-64.6,15.4-30.7,21.3-11.8,54.4-11.8,54.4,18.9,44.9,54.4,49.7,54.4,49.7,63.9,7.1,87.5-49.7,87.5-49.7,9.5-33.1-21.3-87.5-21.3-87.5C165.6,32.55,134.8,16,134.8,16c-40.2,9.5-44.9,33.1-44.9,33.1-9.5,0-11.8,7.1-11.8,7.1-56.8,9.5-33.1,49.7-30.8,61.5s18.9,42.6,18.9,42.6,47.3,47.3,104.1,2.4S212.1,44.25,140.3,47.85Z"/><path class="cls-9" d="M47.3,117.65s21.3,52,42.6,59.1c0,0-22.5-6-21.9.5s-32.5-31.2-30.1-47.8A97.31,97.31,0,0,1,47.3,117.65Z"/><path class="cls-10" d="M82.3,172.55s-16-5.5-15.9,6.5,48,12.8,48,12.8Z"/><path class="cls-11" d="M203.1,160.85s-7.9,15,4,16.7,19.9-45.5,19.9-45.5Z"/><path class="cls-12" d="M172.7,171.25c17.7-18,29.1-19.5,37.1-55.1,8.2-36.5-28.1-48-28.1-48-44.4-20.2-73.6.3-73.6.3-51.8,38-30.8,95.8-30.8,95.8,15.5,30.8,74.9,50,74.9,50,12.3-14.6,46.1-23.2,46.1-23.2,23.2-34.2,10.6-54.8,10.6-54.8,7-6.4,3.9-13.2,3.9-13.2,35.4-45.4-9.3-59-19-66.1S151,38.45,151,38.45s-66.9-2.8-78.2,68.7S122.3,222.45,172.7,171.25Z"/><path class="cls-13" d="M94.6,72.75l-9.5,16.5-4.7,16.6C73.4,101.05,85.2,72.75,94.6,72.75Z"/><path class="cls-14" d="M97,122.35c-7.2-36,2.4-56.8,2.4-56.8-54.4,73.3,23.7,85.1,23.7,85.1-16.6-11.8-23.7-23.7-26-61.5S142,49,142,49c-.5-.4,42.6-4.7,49.7,42.6,0,0-2.4,71-66.2,59.1C125.4,150.75,101.7,146.05,97,122.35Z"/><path class="cls-15" d="M94.3,113.85c14.4-33.8,71.3-29.4,71.3-29.4C79.3,114.25,99.8,152,99.8,152c-7-19.1-6.2-32.9,13.2-65.4s59.8-7.8,59.8-7.8c-.2-.7,37.8,20.1,17,63.2,0,0-42,57.2-88,11.4C101.7,153.35,84.8,136.05,94.3,113.85Z"/><path class="cls-16" d="M168.2,114.25s-3,13.3-9.7,22.3c0,0,10.6-4.8,11.3-15Z"/><path class="cls-17" d="M160.9,131.85s26-35.5-9.5-42.6c0,0-11.8-21.3-26-2.4,0,0,29.6,5.9,24.8,17.7,0,0,11.8,9.5,4.7,18.9C154.9,123.55,162.1,126,160.9,131.85Z"/><path class="cls-18" d="M118.3,87s-2.4-9.5,16.6-7.1c0,0-7.1,4.7-7.1,9.5C127.7,89.25,118.3,89.25,118.3,87Z"/><path class="cls-19" d="M151.6,102.65s-31.5-15.8-46.1,0c0,0-3.3,4.8-1,17.1,0,0-7.2-17.5,4.1-30.8C119,76.65,151.6,102.65,151.6,102.65Z"/><path class="cls-20" d="M158.5,110.55s-3.9,25.5-18.9,28.4c0,0,17.2,1.1,21.3-7.1C163.2,127.15,158.5,110.55,158.5,110.55Z"/><path class="cls-21" d="M142.1,139.75s16.1-19.5,6.4-33.8c0,0-3.1-3.5-12.5-4.6,0,0,13.9-1.3,22.2,10C165.8,121.65,142.1,139.75,142.1,139.75Z"/><path class="cls-22" d="M130.1,98.75s14.2-14.2,21.3,4.7c0,0,11.8,4.7,0,16.6,0,0-9.5-9.5-7.1-14.2C144.3,105.85,127.7,105.85,130.1,98.75Z"/><path class="cls-23" d="M144.3,117.65s0,21.3-2.4,21.3c0,0,11.8-9.5,9.5-18.9C151.4,120.05,149,115.25,144.3,117.65Z"/><path class="cls-24" d="M108.8,105.85s11.8-16.6,18.9-9.5c0,0,14.2-4.7,14.2,11.8,0,0,4.7-4.7,2.4,30.8C144.3,139,118.3,136.55,108.8,105.85Z"/><path class="cls-25" d="M144.3,136.55s-19.8-9.4-33.1-23.6c0,0,4.4,19,22.2,23.7Z"/><path class="cls-26" d="M80.5,167.35s58.2,7.1,70.5,0,58.4-33.6,56.6-67.6c0,0,5.3-8,19.5-5.7,0,0,14.2,42.6-23.6,66.2C203.4,160.25,118.3,205.15,80.5,167.35Z"/><path class="cls-27" d="M110.5,143.55s32.4,9.5,40,7.4,39.2-31.1,41.1-47.5c0,0,15.8-12.1,23.6-9.5,0,0-10.9,51.8-34.4,59.1C180.8,153.05,128.6,165.45,110.5,143.55Z"/><path class="cls-28" d="M105.3,97.55s4.7,35.5,42.6,40.2c0,0,9.5,0,16.6-11.8,0,0-4.7,23.7-37.8,21.3S105.3,97.55,105.3,97.55Z"/><path class="cls-29" d="M108.8,60.85s-33.1,33.1-4.7,75.7c0,0,9.5,11.8,11.8,11.8S49.7,94,108.8,60.85Z"/></g></g></g></svg>