<svg xmlns="http://www.w3.org/2000/svg" xmlns:xlink="http://www.w3.org/1999/xlink" viewBox="0 0 258.22 242.44"><defs><style>.cls-1{fill:url(#linear-gradient);}.cls-2{fill:url(#linear-gradient-2);}.cls-3{fill:url(#linear-gradient-3);}.cls-4{fill:url(#linear-gradient-4);}.cls-5{fill:url(#linear-gradient-5);}.cls-6{fill:url(#linear-gradient-6);}.cls-7{fill:url(#linear-gradient-7);}.cls-8{fill:url(#linear-gradient-8);}.cls-9{fill:url(#linear-gradient-9);}.cls-10{fill:url(#linear-gradient-10);}.cls-11{fill:url(#linear-gradient-11);}.cls-12{fill:url(#linear-gradient-12);}.cls-13{fill:url(#linear-gradient-13);}.cls-14{fill:url(#linear-gradient-14);}.cls-15{fill:url(#linear-gradient-15);}.cls-16{fill:url(#radial-gradient);}.cls-17{fill:url(#linear-gradient-16);}.cls-18{fill:url(#radial-gradient-2);}.cls-19{fill:url(#linear-gradient-17);}.cls-20{fill:url(#radial-gradient-3);}.cls-21{fill:url(#linear-gradient-18);}.cls-22{fill:url(#linear-gradient-19);}.cls-23{fill:url(#linear-gradient-20);}.cls-24{fill:url(#linear-gradient-21);}.cls-25{fill:url(#linear-gradient-22);}.cls-26{fill:url(#radial-gradient-4);}.cls-27{fill:url(#radial-gradient-5);}.cls-28{fill:url(#linear-gradient-23);}.cls-29{fill:url(#linear-gradient-24);}</style><linearGradient id="linear-gradient" x1="-2935.34" y1="-1807.38" x2="-2948.62" y2="-1909.74" gradientTransform="matrix(-0.52, 1.15, 1.67, 0.76, 1690.92, 4898.99)" gradientUnits="userSpaceOnUse"><stop offset="0" stop-color="#d090a0"/><stop offset="0.9" stop-color="#b34f60"/><stop offset="1" stop-color="#af4758"/></linearGradient><linearGradient id="linear-gradient-2" x1="539.68" y1="-874.47" x2="461.54" y2="-874.47" gradientTransform="matrix(0.96, -0.27, -0.27, -0.96, -495.93, -613.92)" gradientUnits="userSpaceOnUse"><stop offset="0" stop-color="#af4758"/><stop offset="0.44" stop-color="#be6979"/><stop offset="1" stop-color="#d090a0"/></linearGradient><linearGradient id="linear-gradient-3" x1="849.68" y1="-2576.6" x2="831.08" y2="-2630.46" gradientTransform="matrix(0.43, -0.9, -0.9, -0.43, -2503.6, -177.06)" xlink:href="#linear-gradient"/><linearGradient id="linear-gradient-4" x1="-1715.68" y1="-323.48" x2="-1720.97" y2="-338.88" gradientTransform="matrix(0.69, 0.72, 0.72, -0.69, 1474.51, 1169.06)" gradientUnits="userSpaceOnUse"><stop offset="0" stop-color="#af4758"/><stop offset="0.27" stop-color="#a33f51"/><stop offset="0.76" stop-color="#842b3e"/><stop offset="1" stop-color="#721f33"/></linearGradient><linearGradient id="linear-gradient-5" x1="-3435.62" y1="-1998.36" x2="-3440.9" y2="-2013.76" gradientTransform="matrix(-0.41, 0.91, 0.91, 0.41, 467.08, 4037.42)" xlink:href="#linear-gradient-4"/><linearGradient id="linear-gradient-6" x1="-1741.29" y1="-4498.04" x2="-1746.58" y2="-4513.45" gradientTransform="matrix(-0.9, -0.43, -0.43, 0.9, -3315.17, 3380.03)" xlink:href="#linear-gradient-4"/><linearGradient id="linear-gradient-7" x1="381.5" y1="-915.71" x2="343.22" y2="-982.01" gradientTransform="matrix(0.96, -0.27, -0.27, -0.96, -495.93, -613.92)" gradientUnits="userSpaceOnUse"><stop offset="0" stop-color="#fddaf2"/><stop offset="0.2" stop-color="#e5b3c7"/><stop offset="0.39" stop-color="#d090a0"/><stop offset="1" stop-color="#af4758"/></linearGradient><linearGradient id="linear-gradient-8" x1="402.83" y1="-950.45" x2="402.83" y2="-784.45" gradientTransform="matrix(0.96, -0.27, -0.27, -0.96, -495.93, -613.92)" gradientUnits="userSpaceOnUse"><stop offset="0" stop-color="#fddaf2"/><stop offset="0.51" stop-color="#ff90a1"/><stop offset="0.75" stop-color="#d66b7c"/><stop offset="1" stop-color="#af4758"/></linearGradient><linearGradient id="linear-gradient-9" x1="368.78" y1="-916.34" x2="316.58" y2="-916.34" gradientTransform="matrix(0.96, -0.27, -0.27, -0.96, -495.93, -613.92)" gradientUnits="userSpaceOnUse"><stop offset="0" stop-color="#863e4c"/><stop offset="1" stop-color="#721f33"/></linearGradient><linearGradient id="linear-gradient-10" x1="85.45" y1="-650.34" x2="80.16" y2="-665.75" gradientTransform="matrix(1, -0.08, -0.08, -1, -22.07, -446.75)" gradientUnits="userSpaceOnUse"><stop offset="0" stop-color="#ff90a1"/><stop offset="1" stop-color="#721f33"/></linearGradient><linearGradient id="linear-gradient-11" x1="580.95" y1="-3496.77" x2="575.67" y2="-3512.17" gradientTransform="matrix(0.08, -1, -1, -0.08, -3310.17, 457.76)" xlink:href="#linear-gradient-10"/><linearGradient id="linear-gradient-12" x1="-3526.37" y1="-2106.34" x2="-3526.37" y2="-1940.32" gradientTransform="matrix(-0.53, 0.85, 0.85, 0.53, 2.65, 4194.16)" gradientUnits="userSpaceOnUse"><stop offset="0" stop-color="#ff9aa9"/><stop offset="0.51" stop-color="#ff90a1"/><stop offset="0.75" stop-color="#d66b7c"/><stop offset="1" stop-color="#af4758"/></linearGradient><linearGradient id="linear-gradient-13" x1="355.49" y1="-872.12" x2="373.38" y2="-841.15" gradientTransform="matrix(0.96, -0.27, -0.27, -0.96, -495.93, -613.92)" gradientUnits="userSpaceOnUse"><stop offset="0" stop-color="#af4758"/><stop offset="0.16" stop-color="#933849"/><stop offset="0.37" stop-color="#782a3a"/><stop offset="0.58" stop-color="#641f2f"/><stop offset="0.79" stop-color="#581928"/><stop offset="1" stop-color="#541726"/></linearGradient><linearGradient id="linear-gradient-14" x1="358.93" y1="-868.93" x2="470.46" y2="-868.93" gradientTransform="matrix(0.96, -0.27, -0.27, -0.96, -495.93, -613.92)" gradientUnits="userSpaceOnUse"><stop offset="0" stop-color="#ff90a1"/><stop offset="0.52" stop-color="#e26073"/><stop offset="1" stop-color="#ca394e"/></linearGradient><linearGradient id="linear-gradient-15" x1="-678.4" y1="-184.23" x2="-583.05" y2="-184.23" gradientTransform="matrix(0.95, 0.33, 0.33, -0.95, 805.88, 163.11)" xlink:href="#linear-gradient-14"/><radialGradient id="radial-gradient" cx="177.51" cy="-1535.43" r="7.89" gradientTransform="matrix(1, 0, 0, -1, 0, -247.5)" gradientUnits="userSpaceOnUse"><stop offset="0" stop-color="#541726"/><stop offset="0.28" stop-color="#692232"/><stop offset="0.86" stop-color="#a03f50"/><stop offset="1" stop-color="#af4758"/></radialGradient><linearGradient id="linear-gradient-16" x1="404.22" y1="-873.94" x2="448.89" y2="-873.94" gradientTransform="matrix(0.96, -0.27, -0.27, -0.96, -495.93, -613.92)" gradientUnits="userSpaceOnUse"><stop offset="0" stop-color="#ff90a1"/><stop offset="0.11" stop-color="#ea7d8e"/><stop offset="0.35" stop-color="#bf5667"/><stop offset="0.47" stop-color="#af4758"/><stop offset="0.72" stop-color="#be3f53"/><stop offset="1" stop-color="#ca394e"/></linearGradient><radialGradient id="radial-gradient-2" cx="1375.72" cy="-1255.39" r="6.84" gradientTransform="matrix(-0.96, 0.27, 0.53, 1.93, 2113.91, 2156.43)" gradientUnits="userSpaceOnUse"><stop offset="0" stop-color="#541726"/><stop offset="1" stop-color="#af4758"/></radialGradient><linearGradient id="linear-gradient-17" x1="-4369.12" y1="-1611.5" x2="-4350.66" y2="-1579.53" gradientTransform="matrix(-0.24, 0.63, 0.81, 0.3, 369.41, 3345.28)" gradientUnits="userSpaceOnUse"><stop offset="0" stop-color="#ca394e"/><stop offset="0.52" stop-color="#e7697c"/><stop offset="1" stop-color="#ff90a1"/></linearGradient><radialGradient id="radial-gradient-3" cx="-447.18" cy="-619.64" r="11.46" gradientTransform="matrix(1.38, 0.11, 0.18, -2.21, 885.04, -1191.35)" gradientUnits="userSpaceOnUse"><stop offset="0" stop-color="#541726"/><stop offset="0.19" stop-color="#6b2333"/><stop offset="0.54" stop-color="#903747"/><stop offset="0.82" stop-color="#a74353"/><stop offset="1" stop-color="#af4758"/></radialGradient><linearGradient id="linear-gradient-18" x1="-1407.02" y1="-5727.55" x2="-1388.56" y2="-5695.59" gradientTransform="matrix(-0.44, -0.31, -0.35, 0.51, -2456.27, 2603.75)" gradientUnits="userSpaceOnUse"><stop offset="0" stop-color="#fc8e97"/><stop offset="0.54" stop-color="#fdb9cb"/><stop offset="1" stop-color="#fddaf2"/></linearGradient><linearGradient id="linear-gradient-19" x1="414.97" y1="-880.19" x2="431.68" y2="-870.55" gradientTransform="matrix(0.96, -0.27, -0.27, -0.96, -495.93, -613.92)" gradientUnits="userSpaceOnUse"><stop offset="0" stop-color="#ffc3cc"/><stop offset="0.25" stop-color="#feb5be"/><stop offset="1" stop-color="#fc8e97"/></linearGradient><linearGradient id="linear-gradient-20" x1="425.66" y1="-907.4" x2="425.66" y2="-885.45" xlink:href="#linear-gradient-13"/><linearGradient id="linear-gradient-21" x1="397.15" y1="-893.67" x2="424.42" y2="-877.92" gradientTransform="matrix(0.96, -0.27, -0.27, -0.96, -495.93, -613.92)" gradientUnits="userSpaceOnUse"><stop offset="0" stop-color="#fc8e97"/><stop offset="0.39" stop-color="#feaab3"/><stop offset="0.75" stop-color="#ffbcc5"/><stop offset="1" stop-color="#ffc3cc"/></linearGradient><linearGradient id="linear-gradient-22" x1="-1931.23" y1="-1349.62" x2="-1935.12" y2="-1347.21" gradientTransform="matrix(0.53, 1.93, 1.81, -0.5, 3596.79, 3202.1)" xlink:href="#radial-gradient"/><radialGradient id="radial-gradient-4" cx="433.89" cy="-1040.69" r="61.44" gradientTransform="matrix(0.96, -0.27, -0.53, -1.93, -807.7, -1746.66)" gradientUnits="userSpaceOnUse"><stop offset="0" stop-color="#fddaf2"/><stop offset="0.43" stop-color="#fdd8f0"/><stop offset="0.61" stop-color="#fdd2e9"/><stop offset="0.74" stop-color="#fec6dd"/><stop offset="0.85" stop-color="#feb6cb"/><stop offset="0.94" stop-color="#ffa2b4"/><stop offset="1" stop-color="#ff90a1"/></radialGradient><radialGradient id="radial-gradient-5" cx="1227.01" cy="988.62" r="79.72" gradientTransform="matrix(0.57, -0.05, -0.08, -0.96, -464.74, 1138.2)" xlink:href="#radial-gradient-4"/><linearGradient id="linear-gradient-23" x1="395.24" y1="-913.06" x2="415.32" y2="-878.29" gradientTransform="matrix(0.96, -0.27, -0.27, -0.96, -495.93, -613.92)" gradientUnits="userSpaceOnUse"><stop offset="0" stop-color="#ff90a1"/><stop offset="0.49" stop-color="#feb6cb"/><stop offset="1" stop-color="#fddaf2"/></linearGradient><linearGradient id="linear-gradient-24" x1="363.58" y1="-873.13" x2="394.82" y2="-873.13" gradientTransform="matrix(0.96, -0.27, -0.27, -0.96, -495.93, -613.92)" gradientUnits="userSpaceOnUse"><stop offset="0" stop-color="#fddaf2"/><stop offset="0.08" stop-color="#fdd0e7"/><stop offset="0.32" stop-color="#feb4c8"/><stop offset="0.56" stop-color="#ffa0b3"/><stop offset="0.79" stop-color="#ff94a5"/><stop offset="1" stop-color="#ff90a1"/></linearGradient></defs><title>rose3</title><g id="Layer_2" data-name="Layer 2"><g id="Layer_1-2" data-name="Layer 1"><g id="rose3"><path class="cls-1" d="M197.35,16.25l25.17,118.17L71.17,163.81s-7.16,47-15,43.39S0,136.81,0,136.81,29.81,111.43,49.18,57C56,38,82.12,26.93,116.1,23.9,142.4,21.54,171.75-23.33,197.35,16.25Z"/><path class="cls-2" d="M165.89,44.51s13.68-3.77,16.19,5.35a68.32,68.32,0,0,1,22.8-6.27S211.49,32,228.71,32.12l4.56-1.25S271,96.53,245.43,83.94c0,0-7.51,70.75-18.29,76.17s-9.35-7.24-9.35-7.24S235,126.07,222,87.94c0,0-21.15,3.37-19.9,7.93S160.53,60.7,165.89,44.51Z"/><path class="cls-3" d="M132.16,225.7l81-37.59,25.31-63.92s1.85-14.84,6.12-12.8,37.57,69.2-18.86,80.5C225.75,191.89,230.15,255.64,132.16,225.7Z"/><path class="cls-4" d="M50.51,139.82s-9.86-13.77-16.78-3.89,31.82,38.16,31.82,38.16Z"/><path class="cls-5" d="M79.94,73.25S89,59,77.3,56.25,53.75,99.94,53.75,99.94Z"/><path class="cls-6" d="M194,70.17s14.14,9.32,17.06-2.38-43.37-24.24-43.37-24.24Z"/><path class="cls-7" d="M53.55,171.09l42.83,39.73,64.87-22.76s12.42-8.33,13.68-3.77-10,88.6-87.84,46.26C87.09,230.55,6.65,250.25,53.55,171.09Z"/><path class="cls-8" d="M124.86,61.91c-24,7.9-34.83,4-58.21,32-24,28.68,3,55.58,3,55.58,30.17,38.31,65.63,33.45,65.63,33.45,63.45-10.1,71.19-71.1,71.19-71.1.33-34.44-43.75-78.72-43.75-78.72-17.61,7.3-51.65-.5-51.65-.5C74.82,52.41,76.53,76.46,76.53,76.46,67.41,79,67,86.46,67,86.46c-52.22,24.19-18.75,56.67-13.33,67.45s29.54,36,29.54,36,58.16,33.05,101-25.33S193.05,39.43,124.86,61.91Z"/><path class="cls-9" d="M53.75,153.88s34.33,44.51,56.74,45.71c0,0-23.27.12-21,6.31s-39.65-21.52-41.76-38.11A92.58,92.58,0,0,1,53.75,153.88Z"/><path class="cls-10" d="M102.05,197.56s-16.9-1.1-13.65,10.51,49.68-.42,49.68-.42Z"/><path class="cls-11" d="M215.39,154.19s-3.64,16.54,8.36,15.06,7.06-49.17,7.06-49.17Z"/><path class="cls-12" d="M188.75,172.3c12.29-22,22.89-26.56,21.16-63C208.14,72,170,70.46,170,70.46,121.9,62.71,99.1,90.3,99.1,90.3c-39.84,50.4-4.22,100.53-4.22,100.53,23.07,25.56,85.5,28.29,85.5,28.29,8-17.3,38.34-34.61,38.34-34.61,13.27-39.12-4.29-55.65-4.29-55.65,5-8,.25-13.79.25-13.79,22-53.16-24.59-54.39-35.88-58.65s-46.13-6.5-46.13-6.5S67.5,65,75.55,136.92,153.82,235,188.75,172.3Z"/><path class="cls-13" d="M87.4,98l-4.73,18.47-.16,17.22C74.41,131,78.28,100.51,87.4,98Z"/><path class="cls-14" d="M102.86,145.25C86.36,112.45,90.08,89.9,90.08,89.9c-33,85.12,45.39,75.81,45.39,75.81-19.1-7-29.07-16.53-41.4-52.38s32.68-50.68,32.68-50.68c-.63-.26,39.79-15.86,59.18,27.86,0,0,16.55,69-48.16,74.58C137.75,165.09,113.75,166.81,102.86,145.25Z"/><path class="cls-15" d="M98,137.81c4.89-36.39,61-47.24,61-47.24-75.27,51.66-45.59,82.53-45.59,82.53-11.81-16.56-14.67-30-4.61-66.61s55.56-23.41,55.56-23.41c-.37-.57,41.8,9.36,33.13,56.4,0,0-25.3,66.33-81.84,34.39C115.59,173.87,94.75,161.71,98,137.81Z"/><path class="cls-16" d="M169.37,118.53s.67,13.59-3.46,24.09c0,0,8.92-7.41,6.88-17.5Z"/><path class="cls-17" d="M166.94,137.43s15.66-41.1-20.42-38.53c0,0-17-17.38-25.71,4.62,0,0,30.07-2.14,28.65,10.52,0,0,13.91,6,9.58,17C159,131,166.51,131.42,166.94,137.43Z"/><path class="cls-18" d="M114,105.41s-4.79-8.5,14.08-11.24c0,0-5.59,6.45-4.33,11C123.75,105.18,114.6,107.69,114,105.41Z"/><path class="cls-19" d="M150.32,111.77s-34.58-6.92-44.46,12.23c0,0-2,5.51,3.56,16.79,0,0-11.54-14.93-4.24-30.76C111.91,95.4,150.32,111.77,150.32,111.77Z"/><path class="cls-20" d="M159,117.54s3,25.59-10.71,32.38c0,0,16.87-3.53,18.64-12.49C168,132.25,159,117.54,159,117.54Z"/><path class="cls-21" d="M151,150s10.32-23-2.8-34.26c0,0-3.92-2.59-13.3-1.14,0,0,13-4.93,24,3.71C169,126.31,151,150,151,150Z"/><path class="cls-22" d="M128.51,113.67s9.91-17.45,21.77-1.09c0,0,12.66,1.42,4.4,16,0,0-11.63-6.61-10.61-11.8C144.07,116.74,128.11,121.14,128.51,113.67Z"/><path class="cls-23" d="M147.21,128.15s5.65,20.52,3.37,21.15c0,0,8.89-12.26,4.1-20.76C154.68,128.54,151.14,124.61,147.21,128.15Z"/><path class="cls-24" d="M109.87,126.16s7-19.1,15.73-14.14c0,0,12.43-8.33,16.82,7.63,0,0,3.3-5.81,10.44,29C152.86,148.67,127.15,153.25,109.87,126.16Z"/><path class="cls-25" d="M152.23,146.39s-21.6-3.86-38.2-14c0,0,9.33,17.09,27.67,16.93Z"/><path class="cls-26" d="M98.82,193s58-8.62,68-18.71S214.27,126.39,203.49,94c0,0,3-9.17,17.27-10.65,0,0,25,37.28-5.23,70.12C215.51,153.5,145.35,219.42,98.82,193Z"/><path class="cls-27" d="M121.47,162.11s33.76.52,40.51-3.49,29.52-40.42,27.07-56.71c0,0,12-15.83,20.29-15.39,0,0,3.26,52.84-17.5,66.08C191.84,152.6,144.75,178.43,121.47,162.11Z"/><path class="cls-28" d="M104.25,119.12s14,33,51.71,27.47c0,0,9.13-2.51,12.83-15.8,0,0,1.71,24.06-30.84,30.57S104.25,119.12,104.25,119.12Z"/><path class="cls-29" d="M97.94,82.83s-23.13,40.71,15.53,74.23c0,0,12.26,8.89,14.54,8.26S49.75,130.45,97.94,82.83Z"/></g></g></g></svg>