<?xml version="1.0" encoding="utf-8"?>
<!-- Generator: Adobe Illustrator 22.0.1, SVG Export Plug-In . SVG Version: 6.00 Build 0)  -->
<svg version="1.1" id="Layer_1" xmlns="http://www.w3.org/2000/svg" xmlns:xlink="http://www.w3.org/1999/xlink" x="0px" y="0px"
	 viewBox="0 0 66.8 58" style="enable-background:new 0 0 66.8 58;" xml:space="preserve">
<style type="text/css">
	.st0{fill:#DC5611;}
	.st1{fill:#E35219;}
	.st2{fill:#92DFCB;}
	.st3{fill:#6ECCB2;}
	.st4{fill:#D6F3EB;}
	.st5{fill:#312927;}
	.st6{fill:#FFFFFF;}
</style>
<title>turquoise (2)</title>
<g id="Layer_2_1_">
	<g id="birds">
		<g id="turquoise">
			<path class="st0" d="M28.3,46.4c0.5,0.8,1,1.8,1.3,2.7c0.3,0.8,0.6,1.7,0.8,2.6c0.2,0.8,0.4,1.7,0.5,2.5c0.1,0.4,0.1,0.8,0.3,1.2
				c0.1,0.4,0.3,0.8,0.6,1.1v0.2c-0.5,0-1-0.3-1.3-0.6c-0.3-0.4-0.6-0.8-0.8-1.2c-0.4-0.9-0.8-1.8-1-2.7c-0.4-1.9-0.6-3.8-0.5-5.7
				L28.3,46.4z"/>
			<path class="st0" d="M29.4,54.8c-0.7,0.2-1.4,0.5-2.1,0.8c-0.6,0.3-1.2,0.8-1.6,1.4c-0.1-0.4,0-0.9,0.2-1.3
				c0.2-0.4,0.6-0.7,1-0.9C27.8,54.4,28.6,54.4,29.4,54.8z"/>
			<path class="st0" d="M29.4,53.8c-0.2,0.7-0.3,1.4-0.4,2.2c-0.1,0.7,0.1,1.4,0.4,2c-0.4-0.1-0.8-0.4-1-0.8
				c-0.2-0.4-0.3-0.8-0.3-1.3C28.2,55.1,28.6,54.3,29.4,53.8z"/>
			<path class="st0" d="M19.8,52c-0.7,0.2-1.4,0.5-2.1,0.8c-0.6,0.3-1.2,0.8-1.5,1.4c-0.1-0.4,0-0.8,0.2-1.2c0.2-0.4,0.6-0.7,1-0.9
				C18.1,51.7,19,51.6,19.8,52z"/>
			<path class="st0" d="M19.8,51c-0.2,0.7-0.4,1.4-0.4,2.1c-0.1,0.7,0.1,1.4,0.4,2c-0.4-0.1-0.8-0.4-1-0.8c-0.2-0.4-0.3-0.8-0.3-1.3
				C18.5,52.2,19,51.5,19.8,51z"/>
			<path class="st0" d="M18.6,44.3c0.3,0.9,0.6,1.8,0.8,2.8l0.6,2.7c0.2,0.9,0.4,1.7,0.7,2.6c0.1,0.4,0.3,0.8,0.5,1.2
				c0.2,0.4,0.5,0.7,0.9,0.9c-0.5,0.2-1.1,0-1.5-0.3c-0.4-0.3-0.8-0.7-1.1-1.1c-0.6-0.9-0.9-1.8-1.2-2.8
				C17.9,48.3,18,46.2,18.6,44.3z"/>
			<path class="st1" d="M4.9,17L4.9,17c0.4-0.2,0.7-0.7,0.5-1.1c-0.1-0.1-0.2-0.3-0.3-0.4l-3.7-2.9c-0.4-0.3-0.9-0.3-1.2,0.1
				C0.1,12.9,0,13,0,13.2l0,0c-0.3,2,1.1,3.8,3,4.1C3.7,17.4,4.3,17.3,4.9,17z"/>
			<path class="st2" d="M24,8.6c0-4,1.9-7.2,4.2-7.2"/>
			<path class="st2" d="M24.3,7.5c-2.2-3.3-2-5.5,0.8-7.5"/>
			<path class="st2" d="M25,6.5c-3.2-1-5.2-3.4-4.6-5.3"/>
			<path class="st3" d="M53.7,43.5c0,0,6.6,12.7,10,8.7c4.4-5.1-3.5-7.4-3.5-7.4s8.1-0.7,6.4-6.5C65.1,33.1,53.6,43.5,53.7,43.5"/>
			<path class="st2" d="M16.5,34.4c-4.3-7.3-10.5-11.6-14-9.8C1.8,15,6.8,5,19.8,5c9.2,0,14.6,9,17.8,21.2
				c1.1,4,12.2,11.6,17.3,15.3c1,0.7,0.6,3.7-0.6,3.9c-5.7,1.2-17.9,3.1-23.1,3.1c-3.7,0-7.4-0.6-10.9-1.7
				C20.5,43.4,19.1,38.9,16.5,34.4z"/>
			<path class="st4" d="M3.3,29.8c-0.5-1.7-0.8-3.5-0.9-5.2c3.5-1.8,9.7,2.6,14,9.8c2.6,4.5,4,9,3.9,12.4
				C12.3,44.1,5.7,38.4,3.3,29.8z"/>
			<circle class="st5" cx="10" cy="13.1" r="2.2"/>
			<circle class="st6" cx="9.2" cy="12" r="0.8"/>
		</g>
	</g>
</g>
<g id="Layer_2_2_">
	<g id="bird_wings">
		<path id="turquoise_1_" class="st3" d="M28.9,36c7.1,1.8,22.5-1.3,22.5-1.3s-13-8.7-16.6-12.8c-6.7-7.7-15.6-5.5-17.4,0.2
			C15.2,29.3,22.8,34.5,28.9,36z"/>
	</g>
</g>
</svg>
