<?xml version="1.0" encoding="utf-8"?>
<!-- Generator: Adobe Illustrator 22.0.1, SVG Export Plug-In . SVG Version: 6.00 Build 0)  -->
<svg version="1.1" id="Layer_1" xmlns="http://www.w3.org/2000/svg" xmlns:xlink="http://www.w3.org/1999/xlink" x="0px" y="0px"
	 viewBox="0 0 41.4 37.7" style="enable-background:new 0 0 41.4 37.7;" xml:space="preserve">
<style type="text/css">
	.st0{fill:#E35219;}
	.st1{fill:#DC5611;}
	.st2{fill:#FBE3A1;}
	.st3{fill:#E3AC2E;}
	.st4{fill:#F7CB4E;}
	.st5{fill:#312927;}
	.st6{fill:#FFFFFF;}
</style>
<title>yellow</title>
<g id="Layer_2_1_">
	<g id="birds">
		<g id="yellow">
			<path class="st0" d="M3.7,12.3L3.7,12.3C4,12.1,4,11.8,3.9,11.5c0-0.1-0.1-0.1-0.2-0.2L1.2,9.7C0.9,9.5,0.6,9.6,0.4,9.8
				C0.4,9.9,0.4,10,0.4,10.1v0.2c0,1.2,1,2.3,2.2,2.3C3,12.6,3.4,12.5,3.7,12.3z"/>
			<path class="st0" d="M3.4,11.9l-1.4-0.7c0-0.2-0.1-0.3-0.3-0.4c-0.1,0-0.1,0-0.2,0l-1.3,0.8C0,11.8-0.1,12.1,0,12.4
				c0.1,0.1,0.1,0.2,0.2,0.2l1.5-0.1C2,12.6,3.4,12.1,3.4,11.9z"/>
			<path class="st1" d="M19.4,30.2c0.4,0.5,0.7,1.1,1,1.7c0.3,0.5,0.5,1.1,0.7,1.6c0.2,0.5,0.3,1.1,0.5,1.6c0.1,0.2,0.1,0.5,0.2,0.8
				c0.1,0.3,0.2,0.5,0.5,0.7v0.1c-0.3,0-0.7-0.1-0.9-0.4c-0.2-0.2-0.4-0.5-0.6-0.7c-0.3-0.5-0.6-1.1-0.8-1.7
				c-0.4-1.2-0.6-2.4-0.7-3.6L19.4,30.2z"/>
			<path class="st1" d="M20.7,35.7c-0.2,0.1-0.5,0.2-0.7,0.3c-0.2,0.1-0.4,0.2-0.5,0.3c-0.4,0.3-0.7,0.6-0.8,1
				c-0.2-0.5,0-1.2,0.5-1.5C19.6,35.5,20.1,35.4,20.7,35.7z"/>
			<path class="st1" d="M20.6,35c0,0.3-0.1,0.5-0.1,0.8c0,0.2,0,0.5,0,0.7c0,0.5,0.2,0.9,0.4,1.3c-0.6-0.2-1-0.7-1-1.3
				c0-0.3,0-0.6,0.1-0.8C20.2,35.4,20.4,35.2,20.6,35z"/>
			<path class="st1" d="M14.6,34.5c-0.2,0.1-0.5,0.2-0.7,0.3c-0.2,0.1-0.4,0.2-0.6,0.3c-0.4,0.3-0.7,0.6-0.8,1
				c-0.2-0.5,0-1.1,0.5-1.4C13.4,34.4,14,34.3,14.6,34.5z"/>
			<path class="st1" d="M14.5,33.8c0,0.3-0.1,0.5-0.1,0.8c0,0.2,0,0.5,0,0.7c0,0.5,0.2,0.9,0.4,1.3c-0.6-0.2-0.9-0.7-0.9-1.3
				c0-0.3,0-0.6,0.1-0.8C14.1,34.2,14.2,34,14.5,33.8z"/>
			<path class="st1" d="M13.2,29.5c0.3,0.6,0.5,1.1,0.8,1.7l0.6,1.7c0.2,0.6,0.4,1.1,0.6,1.6c0.1,0.3,0.2,0.5,0.4,0.8
				c0.1,0.3,0.4,0.5,0.7,0.6c-0.3,0.1-0.7,0.1-1-0.2c-0.3-0.2-0.5-0.4-0.8-0.7c-0.4-0.5-0.7-1.1-0.9-1.7
				C13.1,32.1,13,30.8,13.2,29.5z"/>
			<path class="st2" d="M13.9,5.8c-0.3-2.6,0.6-4.9,2-5"/>
			<path class="st2" d="M14,5c-1.6-2-1.7-3.5-0.1-5"/>
			<path class="st2" d="M14.4,4.2c-2-0.4-3.5-1.9-3.2-3.2"/>
			<path class="st3" d="M33.6,26.3c0,0,5,7.9,6.8,5c2.3-3.7-2.7-4.6-2.7-4.6s4.9-1,3.5-4.7C39.8,18.7,33.6,26.3,33.6,26.3"/>
			<path class="st4" d="M35.4,25.2c-3.4-2.1-10.8-6.3-11.8-8.9C20.7,8.5,16.7,3,11.1,3.7c-9.4,1.1-11,10.5-8.3,17.4l0.1,0.1
				c0.1-0.4,0.2-0.9,0.5-1.2c1.6-2,6.2-0.5,10.2,3.3c2.9,2.7,4.7,5.9,4.9,8.2c0.9,0,1.9,0,2.8-0.1c4.8-0.9,9.4-2.1,14-3.6
				C36,27.5,36,25.6,35.4,25.2z"/>
			<path class="st2" d="M13.6,23.3C9.6,19.5,5,18,3.4,20c-0.3,0.4-0.5,0.8-0.5,1.2c2.7,6.7,9,10.1,15.7,10.3
				C18.3,29.2,16.5,26,13.6,23.3z"/>
			<ellipse transform="matrix(0.9937 -0.1123 0.1123 0.9937 -1.0475 0.6965)" class="st5" cx="5.7" cy="9.6" rx="1.4" ry="1.5"/>
			<ellipse transform="matrix(0.9937 -0.1123 0.1123 0.9937 -0.976 0.6258)" class="st6" cx="5.1" cy="9" rx="0.5" ry="0.6"/>
		</g>
	</g>
</g>
<g id="Layer_2_2_">
	<g id="bird_wings">
		<path id="yellow_1_" class="st2" d="M20.6,23.6c4.5,0.6,13.7-2.5,13.7-2.5s-8.7-4.8-11.2-7.2c-4.7-4.6-10-2.5-10.7,1.4
			C11.7,20.2,16.8,23.1,20.6,23.6z"/>
	</g>
</g>
</svg>
