<svg xmlns="http://www.w3.org/2000/svg" viewBox="0 0 256 237"><defs><style>.cls-1,.cls-2{fill:#e6e6e6;}.cls-2{stroke:#b3b3b3;stroke-miterlimit:10;}.cls-3{font-size:80px;}.cls-3,.cls-4{font-family:Noteworthy-Light, Noteworthy;}.cls-4{font-size:60px;}.cls-5{letter-spacing:0.01em;}.cls-6{fill:#3f2200;}.cls-7{fill:#fff;}</style></defs><title>calendar_1</title><g id="Layer_2" data-name="Layer 2"><g id="calendar"><rect class="cls-1" x="12" y="1" width="227" height="236"/><rect class="cls-2" x="0.5" y="0.5" width="255" height="32.5" rx="12" ry="12"/><text class="cls-3" transform="translate(87.4 192.24)">13</text><text class="cls-4" transform="translate(72.62 93.81)">M<tspan class="cls-5" x="48.67" y="0">a</tspan><tspan x="76.2" y="0">y</tspan></text><circle class="cls-6" cx="130" cy="17" r="14"/><path class="cls-7" d="M119,20a7.65,7.65,0,0,1-.39-6.44,12,12,0,0,1,4.06-5.27,14,14,0,0,1,6.06-2.65,9.74,9.74,0,0,1,3.32,0A6,6,0,0,1,135,7a9.49,9.49,0,0,0-5.92.16,17.46,17.46,0,0,0-5.2,2.72A13.52,13.52,0,0,0,120,14.19,9.47,9.47,0,0,0,119,20Z"/></g></g></svg>