<?xml version="1.0" encoding="utf-8"?>
<!-- Generator: Adobe Illustrator 22.0.1, SVG Export Plug-In . SVG Version: 6.00 Build 0)  -->
<svg version="1.1" id="Layer_1" xmlns="http://www.w3.org/2000/svg" xmlns:xlink="http://www.w3.org/1999/xlink" x="0px" y="0px"
	 viewBox="0 0 256 237" style="enable-background:new 0 0 256 237;" xml:space="preserve">
<style type="text/css">
	.st0{fill:#E6E6E6;}
	.st1{fill:#E6E6E6;stroke:#B3B3B3;stroke-miterlimit:10;}
	.st2{enable-background:new    ;}
	.st3{font-family:'Noteworthy-Light';}
	.st4{font-size:60px;}
	.st5{fill:#3F2200;}
	.st6{fill:#FFFFFF;}
</style>
<g id="Layer_2_1_">
	<g id="calendar">
		<rect x="12" y="1" class="st0" width="227" height="236"/>
		<path class="st1" d="M12.5,0.5h231c6.6,0,12,5.4,12,12V21c0,6.6-5.4,12-12,12h-231c-6.6,0-12-5.4-12-12v-8.5
			C0.5,5.9,5.9,0.5,12.5,0.5z"/>
		<g class="st2">
			<path d="M100.6,131.7c0,0.2-0.4,2.5-1.2,7c-1.5,8.9-2.3,15.7-2.3,20.2v20.7c0,5.7,0.3,9.1,1,10.3c0.1,0.1,0.3,0.5,0.8,1
				c0.5,0.5,0.7,1,0.7,1.3c0,1.1-0.6,1.7-1.7,1.7c-1.1,0-2.4-0.4-4.1-1.3c-0.5-1.1-0.8-2.2-0.8-3.3v-44.9c-0.3-0.3-0.9-0.7-1.6-1.2
				v-2.4c0-1.5,0.6-4.5,1.7-9c1.2-4.8,2.2-7.2,2.9-7.2c1,0,2,0.9,3,2.8C100.1,129.2,100.6,130.7,100.6,131.7z"/>
			<path d="M159.6,169.6c0,4.3-1.3,8-3.8,11.3c-6.1,8-14.3,12-24.8,12c-4.5,0-8.9-0.5-13.2-1.6c-2.2-0.6-4.5-1.9-7-3.9
				c-2.8-2.3-4.2-4.4-4.2-6.3c0-0.6,0.3-1.2,1-1.8c0.6-0.6,1.3-0.9,1.9-0.9c1.1,0,2.1,0.9,3,2.6c0.6,1.3,1.2,2.5,1.8,3.8
				c2.1,3.1,6.6,4.7,13.7,4.7c4.8,0,9.3-1,13.3-2.9c4.4-2.1,7.8-5.1,10-9c1.6-2.9,2.4-5.3,2.4-7.4c0-3.8-2.1-7.1-6.2-9.9
				c-3.7-2.4-7.6-3.6-11.6-3.6c-0.8,0-3.2,0.8-7.2,2.3c-4,1.6-7.3,2.4-9.7,2.4c-2.3,0-3.5-0.5-3.5-1.6c0-1,0.6-2.1,1.7-3.3
				c1.1-1.2,3.6-1.9,7.4-2.2c4.6-0.4,7.4-0.8,8.4-1.2c2.2-0.9,4.9-3.2,8.2-7.1c3.1-3.7,4.6-7.3,4.6-10.8c0-2.3-0.7-4.2-2.1-5.7
				c-1.4-1.5-3.3-2.2-5.6-2.2c-2.6,0-5.9,0.9-9.8,2.8c-3.9,1.8-6.7,3.8-8.4,5.8c-0.4,0.5-0.5,1.3-0.2,2.5c-1.2,1.2-2.4,2.4-3.7,3.7
				c-1.9,1.8-3.3,2.7-4,2.7c-0.6,0-1.3-0.3-2-0.8c-0.8-0.5-1.1-1.1-1.1-1.6c0-1.1,0.8-2.7,2.3-4.8c2.8-3.7,6.8-7.1,12-10
				c5.5-3.1,10.4-4.6,14.9-4.6c3.7,0,6.8,1,9.3,3c2.5,2,3.8,4.9,3.8,8.7c0,3.2-1.2,6.6-3.5,10.1c-1.9,3.1-4.4,5.8-7.3,8.1
				c0.1,0.3,2,0.8,5.5,1.7c3.9,1.1,6.9,2.5,9,4.2C158,161.4,159.6,165,159.6,169.6z"/>
		</g>
		<text transform="matrix(1 0 0 1 72.62 93.81)" class="st3 st4">M</text>
		<text transform="matrix(1 0 0 1 121.29 93.81)" class="st3 st4">a</text>
		<text transform="matrix(1 0 0 1 148.82 93.81)" class="st3 st4">y</text>
		<circle class="st5" cx="130" cy="17" r="14"/>
		<path class="st6" d="M119,20c-1.1-2-1.2-4.3-0.4-6.4c0.8-2.1,2.2-3.9,4.1-5.3c1.8-1.4,3.9-2.3,6.1-2.7c1.1-0.2,2.2-0.2,3.3,0
			c1.1,0.2,2.1,0.6,2.9,1.4c-1.9-0.6-4-0.5-5.9,0.2c-1.9,0.6-3.6,1.5-5.2,2.7c-1.6,1.1-2.9,2.6-3.9,4.3C119.1,16,118.7,18,119,20z"
			/>
	</g>
</g>
</svg>
