<svg xmlns="http://www.w3.org/2000/svg" viewBox="0 0 1296.16 120.14"><defs><style>.cls-1{fill:#f2f2f2;}</style></defs><title>Stars</title><g id="Layer_2" data-name="Layer 2"><g id="stars"><g id="Stars-2" data-name="Stars"><polygon class="cls-1" points="365.17 98.88 360.42 96.55 355.8 99.14 356.55 93.9 352.66 90.31 357.88 89.41 360.08 84.59 362.56 89.27 367.82 89.89 364.13 93.69 365.17 98.88"/><polygon class="cls-1" points="12.51 29.21 7.76 26.88 3.15 29.48 3.89 24.23 0 20.65 5.21 19.74 7.42 14.93 9.9 19.61 15.16 20.22 11.47 24.02 12.51 29.21"/><polygon class="cls-1" points="176.5 106.09 171.75 103.76 167.13 106.35 167.88 101.11 163.99 97.52 169.2 96.61 171.41 91.8 173.89 96.48 179.14 97.1 175.46 100.9 176.5 106.09"/><polygon class="cls-1" points="116.52 32.28 111.76 29.95 107.15 32.55 107.9 27.31 104 23.72 109.22 22.81 111.43 18 113.9 22.68 119.16 23.29 115.47 27.09 116.52 32.28"/><polygon class="cls-1" points="318.22 57.62 313.46 55.29 308.85 57.88 309.6 52.64 305.71 49.05 310.92 48.15 313.13 43.34 315.61 48.01 320.86 48.63 317.18 52.43 318.22 57.62"/><polygon class="cls-1" points="267.65 66.22 262.9 63.88 258.29 66.48 259.04 61.24 255.14 57.65 260.36 56.74 262.57 51.93 265.04 56.61 270.3 57.23 266.61 61.02 267.65 66.22"/><polygon class="cls-1" points="740.17 105.88 735.42 103.55 730.8 106.14 731.55 100.9 727.66 97.31 732.88 96.41 735.08 91.59 737.56 96.27 742.82 96.89 739.13 100.69 740.17 105.88"/><polygon class="cls-1" points="437.51 57.21 432.76 54.88 428.14 57.48 428.89 52.23 425 48.65 430.21 47.74 432.42 42.93 434.9 47.61 440.16 48.22 436.47 52.02 437.51 57.21"/><polygon class="cls-1" points="532.5 99.09 527.75 96.76 523.13 99.35 523.88 94.11 519.99 90.52 525.2 89.61 527.41 84.8 529.89 89.48 535.14 90.1 531.46 93.9 532.5 99.09"/><polygon class="cls-1" points="524.52 32.28 519.76 29.95 515.15 32.55 515.9 27.31 512 23.72 517.22 22.81 519.43 18 521.9 22.68 527.16 23.29 523.48 27.09 524.52 32.28"/><polygon class="cls-1" points="608.22 24.62 603.47 22.29 598.85 24.88 599.6 19.64 595.71 16.05 600.92 15.14 603.13 10.34 605.61 15.01 610.86 15.63 607.18 19.43 608.22 24.62"/><polygon class="cls-1" points="651.65 83.22 646.9 80.88 642.29 83.48 643.03 78.24 639.14 74.65 644.36 73.74 646.57 68.93 649.04 73.61 654.3 74.22 650.61 78.02 651.65 83.22"/><polygon class="cls-1" points="1029.17 119.88 1024.42 117.55 1019.8 120.14 1020.55 114.9 1016.66 111.31 1021.88 110.41 1024.08 105.59 1026.56 110.27 1031.82 110.89 1028.13 114.69 1029.17 119.88"/><polygon class="cls-1" points="752.51 43.21 747.76 40.88 743.14 43.48 743.89 38.23 740 34.65 745.22 33.74 747.42 28.93 749.9 33.61 755.16 34.22 751.47 38.02 752.51 43.21"/><polygon class="cls-1" points="914.5 41.09 909.75 38.76 905.13 41.35 905.88 36.11 901.99 32.52 907.2 31.61 909.41 26.8 911.89 31.48 917.14 32.1 913.46 35.9 914.5 41.09"/><polygon class="cls-1" points="839.52 18.28 834.76 15.95 830.15 18.55 830.9 13.31 827 9.72 832.22 8.81 834.43 4 836.9 8.68 842.16 9.29 838.48 13.09 839.52 18.28"/><polygon class="cls-1" points="847.22 105.62 842.47 103.29 837.85 105.88 838.6 100.64 834.71 97.05 839.92 96.14 842.13 91.33 844.61 96.01 849.86 96.63 846.18 100.43 847.22 105.62"/><polygon class="cls-1" points="990.65 52.22 985.9 49.88 981.29 52.48 982.03 47.24 978.14 43.65 983.36 42.74 985.57 37.93 988.04 42.61 993.3 43.23 989.61 47.02 990.65 52.22"/><polygon class="cls-1" points="71.67 62.47 76.56 64.49 81 61.6 80.59 66.88 84.71 70.21 79.57 71.45 77.67 76.4 74.9 71.89 69.61 71.62 73.05 67.58 71.67 62.47"/><polygon class="cls-1" points="1099.51 36.21 1094.76 33.88 1090.14 36.48 1090.89 31.23 1087 27.65 1092.21 26.74 1094.42 21.93 1096.9 26.61 1102.16 27.22 1098.47 31.02 1099.51 36.21"/><polygon class="cls-1" points="1278.5 115.09 1273.75 112.76 1269.13 115.35 1269.88 110.11 1265.99 106.52 1271.2 105.61 1273.41 100.8 1275.89 105.48 1281.14 106.1 1277.46 109.9 1278.5 115.09"/><polygon class="cls-1" points="1150.52 83.28 1145.76 80.95 1141.15 83.55 1141.9 78.31 1138 74.72 1143.22 73.81 1145.43 69 1147.9 73.68 1153.16 74.29 1149.47 78.09 1150.52 83.28"/><polygon class="cls-1" points="1193.52 29.28 1188.76 26.95 1184.15 29.55 1184.9 24.31 1181 20.72 1186.22 19.81 1188.43 15 1190.9 19.68 1196.16 20.29 1192.47 24.09 1193.52 29.28"/><polygon class="cls-1" points="1293.52 14.28 1288.76 11.95 1284.15 14.55 1284.9 9.31 1281 5.72 1286.22 4.81 1288.43 0 1290.9 4.68 1296.16 5.29 1292.47 9.09 1293.52 14.28"/><polygon class="cls-1" points="1236.52 83.28 1231.76 80.95 1227.15 83.55 1227.9 78.31 1224 74.72 1229.22 73.81 1231.43 69 1233.9 73.68 1239.16 74.29 1235.47 78.09 1236.52 83.28"/><polygon class="cls-1" points="203.17 11.34 208.06 13.36 212.5 10.47 212.09 15.75 216.21 19.07 211.06 20.32 209.17 25.26 206.4 20.75 201.11 20.48 204.54 16.45 203.17 11.34"/><polygon class="cls-1" points="354.81 3.65 359.71 5.67 364.14 2.78 363.74 8.06 367.85 11.39 362.71 12.63 360.82 17.57 358.04 13.07 352.76 12.79 356.19 8.76 354.81 3.65"/></g></g></g></svg>